<svg id="Layer_1" data-name="Layer 1" xmlns="http://www.w3.org/2000/svg" viewBox="0 0 122.87 122.88"><title>event-calendar</title><path d="M81.6,4.73C81.6,2.12,84.18,0,87.37,0s5.77,2.12,5.77,4.73V25.45c0,2.61-2.58,4.73-5.77,4.73s-5.77-2.12-5.77-4.73V4.73Zm-19,56.57,6,13.91,15.07,1.35a1.2,1.2,0,0,1,1.1,1.31,1.18,1.18,0,0,1-.41.81h0l-11.41,10,3.37,14.75a1.2,1.2,0,0,1-.91,1.45,1.27,1.27,0,0,1-.94-.17l-13-7.74-13,7.78a1.22,1.22,0,0,1-1.66-.42,1.2,1.2,0,0,1-.14-.9h0L50,88.64l-11.4-10A1.22,1.22,0,0,1,38.48,77a1.26,1.26,0,0,1,.86-.4l15-1.34,6-13.93a1.21,1.21,0,0,1,1.59-.64,1.17,1.17,0,0,1,.65.64ZM29.61,4.73C29.61,2.12,32.19,0,35.38,0s5.77,2.12,5.77,4.73V25.45c0,2.61-2.58,4.73-5.77,4.73s-5.77-2.12-5.77-4.73V4.73ZM6.4,45.32H116.47V21.47a3,3,0,0,0-.86-2.07,2.92,2.92,0,0,0-2.07-.86H103a3.2,3.2,0,1,1,0-6.4h10.55a9.36,9.36,0,0,1,9.33,9.33v92.08a9.36,9.36,0,0,1-9.33,9.33H9.33A9.36,9.36,0,0,1,0,113.54V21.47a9.36,9.36,0,0,1,9.33-9.33H20.6a3.2,3.2,0,1,1,0,6.4H9.33a3,3,0,0,0-2.07.86,2.92,2.92,0,0,0-.86,2.07V45.32Zm110.07,6.41H6.4v61.81a3,3,0,0,0,.86,2.07,2.92,2.92,0,0,0,2.07.86H113.54a3,3,0,0,0,2.07-.86,2.92,2.92,0,0,0,.86-2.07V51.73Zm-66-33.19a3.2,3.2,0,0,1,0-6.4H71.91a3.2,3.2,0,1,1,0,6.4Z"/></svg>