<?xml version="1.0" encoding="utf-8"?><svg version="1.1" id="Layer_1" xmlns="http://www.w3.org/2000/svg" xmlns:xlink="http://www.w3.org/1999/xlink" x="0px" y="0px" viewBox="0 0 110.01 122.88" style="enable-background:new 0 0 110.01 122.88" xml:space="preserve"><style type="text/css">.st0{fill-rule:evenodd;clip-rule:evenodd;}</style><g><path class="st0" d="M1.87,14.69h22.66L24.5,14.3V4.13C24.5,1.86,26.86,0,29.76,0c2.89,0,5.26,1.87,5.26,4.13V14.3l-0.03,0.39 h38.59l-0.03-0.39V4.13C73.55,1.86,75.91,0,78.8,0c2.89,0,5.26,1.87,5.26,4.13V14.3l-0.03,0.39h24.11c1.03,0,1.87,0.84,1.87,1.87 v19.46c0,1.03-0.84,1.87-1.87,1.87H1.87C0.84,37.88,0,37.04,0,36.01V16.55C0,15.52,0.84,14.69,1.87,14.69L1.87,14.69z M71.6,74.59 c2.68-0.02,4.85,2.14,4.85,4.82c-0.01,2.68-2.19,4.87-4.87,4.89l-11.76,0.08l-0.08,11.77c-0.02,2.66-2.21,4.81-4.89,4.81 c-2.68-0.01-4.84-2.17-4.81-4.83l0.08-11.69L38.4,84.54c-2.68,0.02-4.85-2.14-4.85-4.82c0.01-2.68,2.19-4.88,4.87-4.9l11.76-0.08 l0.08-11.77c0.02-2.66,2.21-4.82,4.89-4.81c2.68,0,4.83,2.16,4.81,4.82l-0.08,11.69L71.6,74.59L71.6,74.59L71.6,74.59z M0.47,42.19 h109.08c0.26,0,0.46,0.21,0.46,0.46l0,0v79.76c0,0.25-0.21,0.46-0.46,0.46l-109.08,0c-0.25,0-0.46-0.21-0.46-0.46V42.66 C0,42.4,0.21,42.19,0.47,42.19L0.47,42.19L0.47,42.19z M8.84,50.58h93.84c0.52,0,0.94,0.45,0.94,0.94v62.85 c0,0.49-0.45,0.94-0.94,0.94H8.39c-0.49,0-0.94-0.42-0.94-0.94v-62.4c0-1.03,0.84-1.86,1.86-1.86L8.84,50.58L8.84,50.58z M78.34,29.87c2.89,0,5.26-1.87,5.26-4.13V15.11l-0.03-0.41H73.11l-0.03,0.41v10.16c0,2.27,2.36,4.13,5.25,4.13L78.34,29.87 L78.34,29.87z M29.29,29.87c2.89,0,5.26-1.87,5.26-4.13V15.11l-0.03-0.41H24.06l-0.03,0.41v10.16c0,2.27,2.36,4.13,5.25,4.13V29.87 L29.29,29.87z"/></g></svg>