<?xml version="1.0" encoding="utf-8"?><svg version="1.1" id="Layer_1" xmlns="http://www.w3.org/2000/svg" xmlns:xlink="http://www.w3.org/1999/xlink" x="0px" y="0px" viewBox="0 0 122.84 122.88" style="enable-background:new 0 0 122.84 122.88" xml:space="preserve"><g><path d="M81.49,4.71c0-2.62,2.58-4.71,5.77-4.71c3.2,0,5.77,2.13,5.77,4.71V25.4c0,2.62-2.58,4.71-5.77,4.71 c-3.2,0-5.77-2.13-5.77-4.71V4.71L81.49,4.71z M51.43,99.74c-1.24,1.33-3.33,1.42-4.71,0.18c-1.33-1.24-1.42-3.33-0.18-4.71 l10.35-11.06l-11.06-10.3c-1.33-1.24-1.42-3.33-0.18-4.71c1.24-1.33,3.33-1.42,4.71-0.18l11.06,10.35l10.3-11.06 c1.24-1.33,3.33-1.42,4.71-0.18c1.33,1.24,1.42,3.33,0.18,4.71L66.26,83.84l11.06,10.35c1.33,1.24,1.42,3.33,0.18,4.71 c-1.24,1.33-3.33,1.42-4.71,0.18L61.73,88.73L51.38,99.79L51.43,99.74L51.43,99.74z M29.53,4.71c0-2.62,2.58-4.71,5.77-4.71 c3.2,0,5.77,2.13,5.77,4.71V25.4c0,2.62-2.58,4.71-5.77,4.71c-3.2,0-5.77-2.13-5.77-4.71V4.71L29.53,4.71z M6.35,45.3H116.4V21.45 c0-0.8-0.31-1.55-0.84-2.04c-0.53-0.53-1.24-0.84-2.04-0.84h-10.53c-1.78,0-3.2-1.42-3.2-3.2c0-1.78,1.42-3.2,3.2-3.2h10.53 c2.58,0,4.88,1.07,6.57,2.75c1.69,1.69,2.75,4.04,2.75,6.57v92.06c0,2.58-1.07,4.88-2.75,6.57c-1.69,1.69-4.04,2.75-6.57,2.75 l-104.18,0c-2.58,0-4.88-1.07-6.57-2.75C1.07,118.44,0,116.08,0,113.55V21.49c0-2.58,1.07-4.88,2.75-6.57 c1.69-1.69,4.04-2.75,6.57-2.75l11.28,0c1.78,0,3.2,1.42,3.2,3.2c0,1.78-1.42,3.2-3.2,3.2H9.33c-0.8,0-1.55,0.31-2.09,0.84 c-0.53,0.53-0.84,1.24-0.84,2.09v23.85L6.35,45.3L6.35,45.3z M116.4,51.69H6.35v61.82c0,0.8,0.31,1.55,0.84,2.09 c0.53,0.53,1.24,0.84,2.09,0.84h104.18c0.8,0,1.55-0.31,2.09-0.84c0.53-0.53,0.84-1.24,0.84-2.09V51.69L116.4,51.69z M50.36,18.52 c-1.78,0-3.2-1.42-3.2-3.2c0-1.78,1.42-3.2,3.2-3.2h21.49c1.78,0,3.2,1.42,3.2,3.2c0,1.78-1.42,3.2-3.2,3.2H50.36L50.36,18.52z"/></g></svg>