<?xml version="1.0" encoding="utf-8"?><svg version="1.1" id="Layer_1" xmlns="http://www.w3.org/2000/svg" xmlns:xlink="http://www.w3.org/1999/xlink" x="0px" y="0px" viewBox="0 0 110.01 122.88" style="enable-background:new 0 0 110.01 122.88" xml:space="preserve"><style type="text/css">.st0{fill-rule:evenodd;clip-rule:evenodd;}</style><g><path class="st0" d="M1.87,14.69h22.66L24.5,14.3V4.13C24.5,1.86,26.86,0,29.76,0c2.89,0,5.26,1.87,5.26,4.13V14.3l-0.03,0.39 h38.59l-0.03-0.39V4.13C73.55,1.86,75.91,0,78.8,0c2.89,0,5.26,1.87,5.26,4.13V14.3l-0.03,0.39h24.11c1.03,0,1.87,0.84,1.87,1.87 v19.46c0,1.03-0.84,1.87-1.87,1.87H1.87C0.84,37.88,0,37.04,0,36.01V16.55C0,15.52,0.84,14.69,1.87,14.69L1.87,14.69z M64.24,61.76 c2.11-2.14,5.55-2.16,7.68-0.02c2.12,2.14,2.13,5.61,0.02,7.75l-9.27,9.41l9.29,9.42c2.09,2.13,2.07,5.58-0.06,7.71 c-2.13,2.13-5.56,2.12-7.65-0.01l-9.22-9.35l-9.24,9.37c-2.11,2.15-5.55,2.16-7.68,0.02c-2.12-2.13-2.13-5.61-0.02-7.75l9.28-9.41 l-9.29-9.42c-2.09-2.13-2.07-5.58,0.06-7.71c2.13-2.13,5.56-2.12,7.65,0.01L55,71.13L64.24,61.76L64.24,61.76L64.24,61.76z M0.47,42.19h109.08c0.26,0,0.46,0.21,0.46,0.46l0,0v79.76c0,0.25-0.21,0.46-0.46,0.46l-109.08,0c-0.25,0-0.46-0.21-0.46-0.46 V42.66C0,42.4,0.21,42.19,0.47,42.19L0.47,42.19L0.47,42.19z M8.84,50.58h93.84c0.52,0,0.94,0.45,0.94,0.94v62.85 c0,0.49-0.45,0.94-0.94,0.94H8.39c-0.49,0-0.94-0.42-0.94-0.94v-62.4c0-1.03,0.84-1.86,1.86-1.86L8.84,50.58L8.84,50.58z M78.34,29.87c2.89,0,5.26-1.87,5.26-4.13V15.11l-0.03-0.41H73.11l-0.03,0.41v10.16c0,2.27,2.36,4.13,5.25,4.13V29.87L78.34,29.87z M29.29,29.87c2.89,0,5.26-1.87,5.26-4.13V15.11l-0.03-0.41H24.07l-0.03,0.41v10.16c0,2.27,2.36,4.13,5.25,4.13L29.29,29.87 L29.29,29.87z"/></g></svg>