<?xml version="1.0" encoding="utf-8"?><svg version="1.1" id="Layer_1" xmlns="http://www.w3.org/2000/svg" xmlns:xlink="http://www.w3.org/1999/xlink" x="0px" y="0px" viewBox="0 0 122.88 122.88" style="enable-background:new 0 0 122.88 122.88" xml:space="preserve"><style type="text/css">.st0{fill:#050505;}</style><g><path class="st0" d="M81.61,4.73c0-2.61,2.58-4.73,5.77-4.73s5.77,2.12,5.77,4.73v20.72c0,2.61-2.58,4.73-5.77,4.73 s-5.77-2.12-5.77-4.73V4.73L81.61,4.73z M29.61,4.73c0-2.61,2.58-4.73,5.77-4.73s5.77,2.12,5.77,4.73v20.72 c0,2.61-2.58,4.73-5.77,4.73s-5.77-2.12-5.77-4.73V4.73L29.61,4.73z M40.99,84.56c-1.27-1.22-1.31-3.24-0.09-4.51 c1.22-1.27,3.24-1.31,4.51-0.09l9.9,9.57l22.02-23.58c1.2-1.29,3.22-1.36,4.51-0.16c1.29,1.2,1.36,3.22,0.16,4.51L57.77,96.26l0,0 l-0.04,0.04c-1.22,1.27-3.24,1.31-4.51,0.09L40.99,84.56L40.99,84.56z M6.4,45.32h110.08V21.47c0-0.8-0.33-1.53-0.86-2.07 c-0.53-0.53-1.26-0.86-2.07-0.86H103c-1.77,0-3.2-1.43-3.2-3.2c0-1.77,1.43-3.2,3.2-3.2h10.55c2.57,0,4.9,1.05,6.59,2.74 c1.69,1.69,2.74,4.02,2.74,6.59v27.06v65.03c0,2.57-1.05,4.9-2.74,6.59c-1.69,1.69-4.02,2.74-6.59,2.74H9.33 c-2.57,0-4.9-1.05-6.59-2.74C1.05,118.45,0,116.12,0,113.55V48.53V21.47c0-2.57,1.05-4.9,2.74-6.59c1.69-1.69,4.02-2.74,6.59-2.74 H20.6c1.77,0,3.2,1.43,3.2,3.2c0,1.77-1.43,3.2-3.2,3.2H9.33c-0.8,0-1.53,0.33-2.07,0.86c-0.53,0.53-0.86,1.26-0.86,2.07V45.32 L6.4,45.32z M116.48,51.73H6.4v61.82c0,0.8,0.33,1.53,0.86,2.07c0.53,0.53,1.26,0.86,2.07,0.86h104.22c0.8,0,1.53-0.33,2.07-0.86 c0.53-0.53,0.86-1.26,0.86-2.07V51.73L116.48,51.73z M50.43,18.54c-1.77,0-3.2-1.43-3.2-3.2c0-1.77,1.43-3.2,3.2-3.2h21.49 c1.77,0,3.2,1.43,3.2,3.2c0,1.77-1.43,3.2-3.2,3.2H50.43L50.43,18.54z"/></g></svg>