<svg xmlns="http://www.w3.org/2000/svg" xmlns:xlink="http://www.w3.org/1999/xlink" viewBox="0 0 24 24"><path d="M7 1C6.448 1 6 1.448 6 2L6 3L5 3C3.9 3 3 3.9 3 5L3 19C3 20.1 3.9 21 5 21L11.080078 21C11.593078 21 12.024453 20.607703 12.064453 20.095703C12.065453 20.087703 12.065406 20.078313 12.066406 20.070312C12.110406 19.494312 11.659031 19 11.082031 19L5 19L5 8L19 8L19 10C19 10.552 19.448 11 20 11C20.552 11 21 10.552 21 10L21 5C21 3.9 20.1 3 19 3L18 3L18 2C18 1.448 17.552 1 17 1C16.448 1 16 1.448 16 2L16 3L8 3L8 2C8 1.448 7.552 1 7 1 z M 20 13C19.448 13 19 13.448 19 14L19 16L19 17.355469C18.542845 17.13499 18.038 17 17.5 17C15.578848 17 14 18.578848 14 20.5C14 22.421152 15.578848 24 17.5 24C19.421152 24 21 22.421152 21 20.5L21 16L23 16C23.552 16 24 15.552 24 15L24 14C24 13.448 23.552 13 23 13L20 13 z M 17.5 19C18.340272 19 19 19.659728 19 20.5C19 21.340272 18.340272 22 17.5 22C16.659728 22 16 21.340272 16 20.5C16 19.659728 16.659728 19 17.5 19 z"/></svg>