<svg xmlns="http://www.w3.org/2000/svg" xmlns:xlink="http://www.w3.org/1999/xlink" viewBox="0 0 24 24"><path d="M6 1L6 3L5 3C3.9 3 3 3.9 3 5L3 19C3 20.1 3.9 21 5 21L12.025391 21C12.010391 20.835 12 20.669 12 20.5C12 19.979 12.077891 19.477 12.212891 19L5 19L5 9L19 9L19 11L21 11L21 5C21 3.9 20.1 3 19 3L18 3L18 1L16 1L16 3L8 3L8 1L6 1 z M 5 5L6 5L8 5L16 5L18 5L19 5L19 7L5 7L5 5 z M 19 13L19 16L19 17.355469C18.542845 17.13499 18.038 17 17.5 17C15.578848 17 14 18.578848 14 20.5C14 22.421152 15.578848 24 17.5 24C19.421152 24 21 22.421152 21 20.5L21 16L24 16L24 13L19 13 z M 17.5 19C18.340272 19 19 19.659728 19 20.5C19 21.340272 18.340272 22 17.5 22C16.659728 22 16 21.340272 16 20.5C16 19.659728 16.659728 19 17.5 19 z"/></svg>