<?xml version="1.0" encoding="utf-8"?><svg version="1.1" id="Layer_1" xmlns="http://www.w3.org/2000/svg" xmlns:xlink="http://www.w3.org/1999/xlink" x="0px" y="0px" viewBox="0 0 122.84 122.88" style="enable-background:new 0 0 122.84 122.88" xml:space="preserve"><g><path d="M81.54,4.71c0-2.62,2.58-4.71,5.77-4.71c3.2,0,5.77,2.13,5.77,4.71V25.4c0,2.62-2.58,4.71-5.77,4.71 c-3.2,0-5.77-2.13-5.77-4.71V4.71L81.54,4.71z M76.09,72.65h24.18v6.36h-8.12v19.37h-7.94V79.01h-8.12V72.65L76.09,72.65z M66.97,94.14h-9.01l-1.29,4.24h-8.12l9.68-25.73h8.7l9.64,25.73h-8.32L66.97,94.14L66.97,94.14z M65.29,88.57l-2.81-9.25 l-2.82,9.25H65.29L65.29,88.57z M22.56,89.87l7.55-0.47c0.16,1.22,0.5,2.16,1,2.79c0.82,1.04,1.99,1.56,3.51,1.56 c1.13,0,2.01-0.26,2.62-0.8c0.62-0.53,0.92-1.15,0.92-1.85c0-0.66-0.29-1.26-0.87-1.79c-0.58-0.53-1.93-1.02-4.06-1.49 c-3.49-0.78-5.96-1.82-7.45-3.12c-1.5-1.29-2.25-2.95-2.25-4.96c0-1.32,0.38-2.56,1.15-3.74c0.77-1.18,1.92-2.1,3.46-2.77 c1.54-0.67,3.65-1.01,6.32-1.01c3.29,0,5.79,0.61,7.52,1.84c1.72,1.22,2.75,3.17,3.08,5.84l-7.47,0.44 c-0.2-1.17-0.62-2.02-1.25-2.55c-0.64-0.53-1.52-0.8-2.64-0.8c-0.92,0-1.62,0.2-2.09,0.59c-0.47,0.39-0.7,0.87-0.7,1.43 c0,0.41,0.19,0.77,0.57,1.1c0.37,0.34,1.25,0.65,2.65,0.95c3.47,0.75,5.96,1.51,7.46,2.28c1.5,0.77,2.6,1.71,3.28,2.85 c0.68,1.13,1.02,2.4,1.02,3.81c0,1.65-0.45,3.17-1.37,4.56c-0.92,1.39-2.19,2.45-3.83,3.17c-1.64,0.72-3.7,1.08-6.19,1.08 c-4.37,0-7.4-0.84-9.09-2.53C23.74,94.6,22.79,92.46,22.56,89.87L22.56,89.87z M29.53,4.71c0-2.62,2.58-4.71,5.77-4.71 c3.2,0,5.77,2.13,5.77,4.71V25.4c0,2.62-2.58,4.71-5.77,4.71c-3.2,0-5.77-2.13-5.77-4.71V4.71L29.53,4.71z M7.56,44.09h107.62 V22.66c0-0.8-0.31-1.55-0.84-2.04c-0.53-0.53-1.24-0.84-2.04-0.84h-9.31c-1.78,0-3.2-2.63-3.2-4.41c0-1.78,1.42-3.2,3.2-3.2h10.53 c2.58,0,4.88,1.07,6.57,2.75c1.69,1.69,2.75,4.04,2.75,6.57v92.06c0,2.58-1.07,4.88-2.75,6.57c-1.69,1.69-4.04,2.75-6.57,2.75H9.33 c-2.58,0-4.88-1.07-6.57-2.75C1.07,118.44,0,116.08,0,113.55V21.49c0-2.58,1.07-4.89,2.75-6.57c1.69-1.69,4.04-2.75,6.57-2.75 h11.28c1.78,0,3.2,1.42,3.2,3.2s-1.42,4.41-3.2,4.41H10.54c-0.8,0-1.55,0.31-2.09,0.84c-0.53,0.53-0.84,1.24-0.84,2.09v21.43 L7.56,44.09L7.56,44.09z M115.19,52.9H7.56v59.4c0,0.8,0.31,1.55,0.84,2.09c0.53,0.53,1.24,0.84,2.09,0.84h101.76 c0.8,0,1.55-0.31,2.09-0.84c0.53-0.53,0.84-1.24,0.84-2.09V52.9L115.19,52.9z M50.36,19.73c-1.78,0-3.2-2.63-3.2-4.41 c0-1.78,1.42-3.2,3.2-3.2h21.49c1.78,0,3.2,1.42,3.2,3.2c0,1.78-1.42,4.41-3.2,4.41H50.36L50.36,19.73z"/></g></svg>