<?xml version="1.0" encoding="utf-8"?><svg version="1.1" id="Layer_1" xmlns="http://www.w3.org/2000/svg" xmlns:xlink="http://www.w3.org/1999/xlink" x="0px" y="0px" viewBox="0 0 122.84 122.88" style="enable-background:new 0 0 122.84 122.88" xml:space="preserve"><g><path d="M81.54,4.71c0-2.62,2.58-4.71,5.77-4.71c3.2,0,5.77,2.13,5.77,4.71V25.4c0,2.62-2.58,4.71-5.77,4.71 c-3.2,0-5.77-2.13-5.77-4.71V4.71L81.54,4.71z M94.72,72.65h7.94v15.33c0,1.52-0.24,2.95-0.71,4.3c-0.47,1.35-1.22,2.53-2.23,3.55 c-1.01,1.01-2.07,1.72-3.18,2.13c-1.55,0.57-3.4,0.86-5.56,0.86c-1.25,0-2.62-0.09-4.1-0.26c-1.48-0.17-2.72-0.52-3.71-1.04 s-1.9-1.26-2.72-2.22c-0.83-0.96-1.39-1.95-1.69-2.96c-0.49-1.64-0.74-3.08-0.74-4.35V72.65h7.94v15.69c0,1.4,0.39,2.5,1.16,3.28 c0.78,0.79,1.86,1.19,3.23,1.19c1.36,0,2.43-0.39,3.21-1.17c0.77-0.77,1.16-1.87,1.16-3.3V72.65L94.72,72.65z M48.02,72.65h7.94 v8.98h8.7v-8.98h7.98v25.73h-7.98V87.96h-8.7v10.42h-7.94V72.65L48.02,72.65z M20.17,72.65h24.18v6.36h-8.12v19.37h-7.94V79.01 h-8.12V72.65L20.17,72.65z M29.53,4.71c0-2.62,2.58-4.71,5.77-4.71c3.2,0,5.77,2.13,5.77,4.71V25.4c0,2.62-2.58,4.71-5.77,4.71 c-3.2,0-5.77-2.13-5.77-4.71V4.71L29.53,4.71z M7.56,44.09h107.62V22.66c0-0.8-0.31-1.55-0.84-2.04c-0.53-0.53-1.24-0.84-2.04-0.84 h-9.31c-1.78,0-3.2-2.63-3.2-4.41c0-1.78,1.42-3.2,3.2-3.2h10.53c2.58,0,4.88,1.07,6.57,2.75c1.69,1.69,2.75,4.04,2.75,6.57v92.06 c0,2.58-1.07,4.88-2.75,6.57c-1.69,1.69-4.04,2.75-6.57,2.75H9.33c-2.58,0-4.88-1.07-6.57-2.75C1.07,118.44,0,116.08,0,113.55 V21.49c0-2.58,1.07-4.89,2.75-6.57c1.69-1.69,4.04-2.75,6.57-2.75h11.28c1.78,0,3.2,1.42,3.2,3.2s-1.42,4.41-3.2,4.41H10.54 c-0.8,0-1.55,0.31-2.09,0.84c-0.53,0.53-0.84,1.24-0.84,2.09v21.43L7.56,44.09L7.56,44.09z M115.19,52.9H7.56v59.4 c0,0.8,0.31,1.55,0.84,2.09c0.53,0.53,1.24,0.84,2.09,0.84h101.76c0.8,0,1.55-0.31,2.09-0.84c0.53-0.53,0.84-1.24,0.84-2.09V52.9 L115.19,52.9z M50.36,19.73c-1.78,0-3.2-2.63-3.2-4.41c0-1.78,1.42-3.2,3.2-3.2h21.49c1.78,0,3.2,1.42,3.2,3.2 c0,1.78-1.42,4.41-3.2,4.41H50.36L50.36,19.73z"/></g></svg>