<?xml version="1.0" encoding="utf-8"?><svg version="1.1" id="Layer_1" xmlns="http://www.w3.org/2000/svg" xmlns:xlink="http://www.w3.org/1999/xlink" x="0px" y="0px" viewBox="0 0 122.84 122.88" style="enable-background:new 0 0 122.84 122.88" xml:space="preserve"><g><path d="M81.54,4.71c0-2.62,2.58-4.71,5.77-4.71c3.2,0,5.77,2.13,5.77,4.71V25.4c0,2.62-2.58,4.71-5.77,4.71 c-3.2,0-5.77-2.13-5.77-4.71V4.71L81.54,4.71z M81.35,72.65h11.82c2.32,0,4.21,0.32,5.64,0.95c1.43,0.63,2.62,1.54,3.56,2.72 c0.93,1.19,1.61,2.56,2.03,4.13c0.43,1.57,0.63,3.23,0.63,4.98c0,2.75-0.31,4.88-0.94,6.4c-0.62,1.52-1.49,2.78-2.61,3.81 c-1.11,1.02-2.31,1.71-3.58,2.05c-1.74,0.47-3.32,0.7-4.74,0.7H81.35V72.65L81.35,72.65z M89.29,78.47v14.05h1.95 c1.67,0,2.85-0.19,3.56-0.55c0.7-0.37,1.25-1.01,1.65-1.93c0.4-0.92,0.6-2.41,0.6-4.47c0-2.72-0.44-4.59-1.34-5.59 c-0.89-1.01-2.37-1.51-4.44-1.51H89.29L89.29,78.47z M55.83,72.65H77.1v5.5H63.8v4.1h12.33v5.25H63.8v5.07h13.69v5.82H55.83V72.65 L55.83,72.65z M17.8,72.65h7.55l2.71,14.36l3.98-14.36h7.49l4.01,14.38l2.73-14.38h7.51L48.1,98.38h-7.8l-4.52-16.2l-4.49,16.2 h-7.79L17.8,72.65L17.8,72.65z M29.53,4.71c0-2.62,2.58-4.71,5.77-4.71c3.2,0,5.77,2.13,5.77,4.71V25.4c0,2.62-2.58,4.71-5.77,4.71 c-3.2,0-5.77-2.13-5.77-4.71V4.71L29.53,4.71z M7.56,44.09h107.62V22.66c0-0.8-0.31-1.55-0.84-2.04c-0.53-0.53-1.24-0.84-2.04-0.84 h-9.31c-1.78,0-3.2-2.63-3.2-4.41c0-1.78,1.42-3.2,3.2-3.2h10.53c2.58,0,4.88,1.07,6.57,2.75c1.69,1.69,2.75,4.04,2.75,6.57v92.06 c0,2.58-1.07,4.88-2.75,6.57c-1.69,1.69-4.04,2.75-6.57,2.75H9.33c-2.58,0-4.88-1.07-6.57-2.75C1.07,118.44,0,116.08,0,113.55 V21.49c0-2.58,1.07-4.89,2.75-6.57c1.69-1.69,4.04-2.75,6.57-2.75h11.28c1.78,0,3.2,1.42,3.2,3.2s-1.42,4.41-3.2,4.41H10.54 c-0.8,0-1.55,0.31-2.09,0.84c-0.53,0.53-0.84,1.24-0.84,2.09v21.43L7.56,44.09L7.56,44.09z M115.19,52.9H7.56v59.4 c0,0.8,0.31,1.55,0.84,2.09c0.53,0.53,1.24,0.84,2.09,0.84h101.76c0.8,0,1.55-0.31,2.09-0.84c0.53-0.53,0.84-1.24,0.84-2.09V52.9 L115.19,52.9z M50.36,19.73c-1.78,0-3.2-2.63-3.2-4.41c0-1.78,1.42-3.2,3.2-3.2h21.49c1.78,0,3.2,1.42,3.2,3.2 c0,1.78-1.42,4.41-3.2,4.41H50.36L50.36,19.73z"/></g></svg>