<svg xmlns="http://www.w3.org/2000/svg" xmlns:xlink="http://www.w3.org/1999/xlink" viewBox="0 0 50 50"><path d="M25 2C20.125 2 16.800781 4.753906 14.8125 7.40625C12.824219 10.058594 12.03125 12.71875 12.03125 12.71875L11.90625 13.125L19.125 25.5C18.789063 25.878906 17 28.027344 17 31C17 32.75 17.835938 34.644531 18.59375 36.375C18.972656 37.242188 19.328125 38.054688 19.59375 38.71875C19.820313 39.277344 19.933594 39.703125 19.96875 39.875C19.957031 39.96875 19.957031 40.0625 19.96875 40.15625C19.929688 40.300781 19.851563 40.511719 19.6875 40.78125C19.449219 41.171875 19.085938 41.605469 18.71875 42.0625C18.351563 42.519531 17.972656 42.992188 17.65625 43.4375C17.339844 43.882813 17 44.25 17 45C17 45.457031 17.214844 45.824219 17.4375 46.0625C17.660156 46.300781 17.917969 46.476563 18.1875 46.625C18.726563 46.925781 19.386719 47.144531 20.125 47.34375C21.597656 47.746094 23.386719 48 25 48C26.613281 48 28.402344 47.746094 29.875 47.34375C30.613281 47.144531 31.273438 46.925781 31.8125 46.625C32.082031 46.476563 32.339844 46.300781 32.5625 46.0625C32.785156 45.824219 33 45.457031 33 45C33 44.25 32.660156 43.882813 32.34375 43.4375C32.027344 42.992188 31.648438 42.519531 31.28125 42.0625C30.914063 41.605469 30.550781 41.171875 30.3125 40.78125C30.074219 40.390625 30 40.054688 30 40C30 39.945313 30.140625 39.382813 30.40625 38.71875C30.671875 38.054688 31.027344 37.242188 31.40625 36.375C32.164063 34.644531 33 32.75 33 31C33 28.027344 31.210938 25.878906 30.875 25.5L38.09375 13.125L37.96875 12.6875C37.96875 12.6875 37.128906 10.054688 35.125 7.40625C33.121094 4.757813 29.816406 2 25 2 Z M 25 4C29.066406 4 31.753906 6.242188 33.53125 8.59375C35.0625 10.617188 35.695313 12.386719 35.875 12.90625L31.375 20.65625L33.96875 11.65625C34.125 11.121094 33.816406 10.5625 33.28125 10.40625C32.746094 10.25 32.1875 10.558594 32.03125 11.09375L28.28125 24.0625L30.53125 7.4375C30.601563 6.886719 30.207031 6.382813 29.65625 6.3125C29.105469 6.242188 28.601563 6.636719 28.53125 7.1875L26 25.875L26 6C26.007813 5.691406 25.871094 5.398438 25.632813 5.203125C25.398438 5.007813 25.082031 4.933594 24.78125 5C24.316406 5.105469 23.988281 5.523438 24 6L24 25.875L21.40625 7.28125C21.335938 6.730469 20.832031 6.335938 20.28125 6.40625C19.730469 6.476563 19.335938 6.980469 19.40625 7.53125L21.65625 23.59375L17.9375 11.03125C17.78125 10.496094 17.222656 10.1875 16.6875 10.34375C16.152344 10.5 15.84375 11.058594 16 11.59375L18.71875 20.78125L14.125 12.90625C14.289063 12.414063 14.875 10.636719 16.40625 8.59375C18.164063 6.246094 20.863281 4 25 4 Z M 20.40625 27.1875C21.195313 27.480469 22.652344 27.925781 24.71875 27.96875C24.820313 27.972656 24.898438 28 25 28C25.113281 28 25.203125 27.972656 25.3125 27.96875C27.363281 27.921875 28.808594 27.480469 29.59375 27.1875C30.039063 27.78125 31 29.15625 31 31C31 32.035156 30.335938 33.871094 29.59375 35.5625C29.222656 36.40625 28.828125 37.234375 28.53125 37.96875C28.234375 38.703125 28 39.289063 28 40C28 40.710938 28.300781 41.277344 28.625 41.8125C28.949219 42.347656 29.335938 42.835938 29.71875 43.3125C30.101563 43.789063 30.472656 44.25 30.71875 44.59375C30.863281 44.800781 30.839844 44.773438 30.875 44.84375C30.855469 44.855469 30.863281 44.863281 30.84375 44.875C30.539063 45.042969 30.011719 45.234375 29.375 45.40625C28.097656 45.753906 26.390625 46 25 46C23.609375 46 21.902344 45.753906 20.625 45.40625C19.988281 45.234375 19.460938 45.042969 19.15625 44.875C19.136719 44.863281 19.144531 44.855469 19.125 44.84375C19.160156 44.773438 19.136719 44.800781 19.28125 44.59375C19.527344 44.25 19.898438 43.789063 20.28125 43.3125C20.664063 42.835938 21.050781 42.347656 21.375 41.8125C21.460938 41.671875 21.546875 41.523438 21.625 41.375C22.4375 41.675781 23.609375 42 25 42C25.359375 42.003906 25.695313 41.816406 25.878906 41.503906C26.058594 41.191406 26.058594 40.808594 25.878906 40.496094C25.695313 40.183594 25.359375 39.996094 25 40C23.605469 40 22.472656 39.570313 21.90625 39.3125C21.8125 38.882813 21.660156 38.449219 21.46875 37.96875C21.171875 37.234375 20.777344 36.40625 20.40625 35.5625C19.664063 33.871094 19 32.035156 19 31C19 29.15625 19.960938 27.78125 20.40625 27.1875Z"/></svg>