<svg xmlns="http://www.w3.org/2000/svg" xmlns:xlink="http://www.w3.org/1999/xlink" viewBox="0 0 50 50"><path d="M25 2C15.355469 2 12.0625 12.613281 12.03125 12.71875L11.90625 13.125L18.28125 24.03125C18.308594 24.046875 18.316406 24.050781 18.34375 24.0625C18.605469 24.128906 19.449219 24.289063 20.46875 24.46875C20.476563 24.46875 20.492188 24.46875 20.5 24.46875C21.542969 24.652344 22.792969 24.847656 23.875 24.9375L21.40625 7.28125C21.332031 6.734375 20.8125 6.324219 20.28125 6.40625C19.734375 6.480469 19.332031 6.984375 19.40625 7.53125L21.65625 23.6875L17.9375 11.03125C17.78125 10.503906 17.21875 10.1875 16.6875 10.34375C16.160156 10.5 15.84375 11.0625 16 11.59375L18.75 20.875L14.09375 12.875C14.746094 11.105469 17.808594 4 25 4C32.148438 4 35.234375 11.09375 35.90625 12.90625L31.34375 20.71875L33.96875 11.65625C34.121094 11.125 33.8125 10.558594 33.28125 10.40625C32.75 10.253906 32.183594 10.5625 32.03125 11.09375L28.25 24.15625L30.53125 7.4375C30.605469 6.890625 30.203125 6.386719 29.65625 6.3125C29.121094 6.234375 28.605469 6.640625 28.53125 7.1875L26.125 24.9375C28.214844 24.761719 30.902344 24.234375 31.65625 24.0625L31.71875 24.03125L38.09375 13.125L37.96875 12.6875C37.933594 12.578125 34.507813 2 25 2 Z M 25 5C24.445313 5 24 5.449219 24 6L24 24.96875C24.355469 24.996094 24.695313 25 25 25C25.304688 25 25.644531 24.996094 26 24.96875L26 6C26 5.449219 25.554688 5 25 5 Z M 31.15625 26.1875C29.625 26.496094 26.878906 27 25 27C23.234375 27 20.527344 26.535156 18.9375 26.21875C18.078125 27.335938 17 29.101563 17 31C17 32.8125 18.007813 35.101563 18.90625 37.125C19.210938 37.808594 19.5625 38.585938 19.78125 39.1875C20.671875 39.453125 22.757813 40 25 40C25.554688 40 26 40.449219 26 41C26 41.550781 25.554688 42 25 42C22.632813 42 20.488281 41.5 19.40625 41.1875C19.109375 41.609375 18.769531 42.042969 18.5 42.375C17.636719 43.441406 17 44.199219 17 45C17 47.464844 23.414063 48 25 48C26.585938 48 33 47.464844 33 45C33 44.199219 32.363281 43.441406 31.5 42.375C30.933594 41.675781 30 40.492188 30 40C30 39.5625 30.613281 38.210938 31.09375 37.125C31.992188 35.101563 33 32.8125 33 31C33 29.085938 31.976563 27.304688 31.15625 26.1875Z"/></svg>