<svg xmlns="http://www.w3.org/2000/svg" xmlns:xlink="http://www.w3.org/1999/xlink" width="24" height="24" viewBox="0 0 24 24"><path d="M23.232,3.732c-0.655-0.264-6.433-2.579-7.512-2.724L8.385,1L8.269,1.007c-0.992,0.116-6.837,2.459-7.5,2.726l-0.773,0.311L1.005,9H5v14h14V9h3.994l1.012-4.957L23.232,3.732z M13.497,3L12,5.215L10.503,3H13.497z M2.639,7L2.288,5.278c2.819-1.122,4.996-1.921,5.862-2.189L13,10.267V12H7V7H2.639z M7,14h2v5h2v-5h2v7H7V14z M15,21v-7h2v7H15z M21.361,7H17v5h-2V9.655l-1.793-2.654l2.639-3.905c0.9,0.276,3.069,1.069,5.867,2.182L21.361,7z"/></svg>