<?xml version="1.0" encoding="utf-8"?><svg version="1.1" id="Layer_1" xmlns="http://www.w3.org/2000/svg" xmlns:xlink="http://www.w3.org/1999/xlink" x="0px" y="0px" viewBox="0 0 127.9 95.25" style="enable-background:new 0 0 127.9 95.25" xml:space="preserve"><g><path d="M98.97,22.32l-0.06-0.08c-0.31-0.45-0.93-0.55-1.37-0.24l-7.6,5.32c-0.45,0.31-0.55,0.93-0.24,1.37l0.06,0.08 c0.31,0.45,0.93,0.55,1.37,0.24l7.6-5.32C99.17,23.38,99.28,22.76,98.97,22.32L98.97,22.32L98.97,22.32z M119.01,52.32l-4.12,19.22 c-1.02,4.78-3.33,8.43-6.61,10.93c-2.27,1.73-4.98,2.88-8.03,3.45l2.7,5.78c0.58,1.25,0.04,2.74-1.21,3.32 c-1.25,0.58-2.74,0.04-3.32-1.21l-3.5-7.48H35.1l-3.5,7.48c-0.58,1.25-2.07,1.79-3.32,1.21c-1.25-0.58-1.79-2.07-1.21-3.32 l2.55-5.46c-3.9-0.34-7.1-1.59-9.68-3.73c-3.01-2.5-5.07-6.13-6.3-10.86L8.57,52.32H4.61c-1.26,0-2.41-0.52-3.25-1.35l0-0.01 l-0.01,0.01C0.52,50.13,0,48.98,0,47.71v-4.19c0-1.27,0.52-2.42,1.35-3.26c0.06-0.06,0.13-0.13,0.2-0.18 c0.81-0.73,1.88-1.17,3.05-1.17h0.61c0.17-1.82,0.87-3.54,1.95-5.04c1.1-1.54,2.62-2.85,4.35-3.75c1.74-0.91,3.71-1.42,5.7-1.36 c1.75,0.06,3.49,0.54,5.1,1.56c0.7-1.02,1.57-1.93,2.57-2.68c1.96-1.47,4.41-2.35,7.06-2.35c2.2,0,4.26,0.6,6.01,1.64 c1.37,0.81,2.55,1.9,3.47,3.18c2.79,0.22,5.31,1.41,7.2,3.23c1.55,1.5,2.67,3.42,3.16,5.56h67.25V14.1 c-1.46-7.17-5.6-9.12-11.13-8.33c2.49,4.34,2.17,8.75-1.36,13.25c0.45,0.73,0.41,1.53-0.08,2.38l-1.1,1.27 c-0.44,0.45-0.99,0.49-1.7-0.08L86.76,5.52c-0.46-0.55-0.37-1.03,0.17-1.45c1.2-1.47,1.35-1.72,3.48-1.36 c4.74-3.08,9.25-3.63,13.5-1.19c10.67-4.38,19.75,1.12,20.98,12.32l0,0V39.2c0.63,0.23,1.19,0.6,1.65,1.06 c0.83,0.83,1.35,1.99,1.35,3.26v4.19c0,1.27-0.52,2.42-1.35,3.26c-0.83,0.83-1.99,1.35-3.25,1.35H119.01L119.01,52.32z M89.4,14.1 l-0.06-0.08c-0.31-0.45-0.93-0.55-1.37-0.24l-7.6,5.32c-0.45,0.31-0.55,0.93-0.24,1.37l0.06,0.08c0.31,0.45,0.93,0.55,1.37,0.24 l7.6-5.32C89.61,15.16,89.71,14.54,89.4,14.1L89.4,14.1L89.4,14.1z M85.03,9.7l-0.06-0.08c-0.31-0.45-0.93-0.55-1.37-0.24 l-7.6,5.32c-0.45,0.31-0.55,0.93-0.24,1.37l0.06,0.08c0.31,0.45,0.93,0.55,1.37,0.24l7.6-5.32C85.23,10.76,85.34,10.14,85.03,9.7 L85.03,9.7L85.03,9.7z M93.76,18.35l-0.06-0.08c-0.31-0.45-0.93-0.55-1.37-0.24l-7.6,5.32c-0.45,0.31-0.55,0.93-0.24,1.37 l0.06,0.08c0.31,0.45,0.93,0.55,1.37,0.24l7.61-5.32C93.96,19.41,94.07,18.8,93.76,18.35L93.76,18.35L93.76,18.35z M10.29,38.91 h36.25c-0.32-0.74-0.79-1.4-1.37-1.95c-1.19-1.15-2.84-1.86-4.67-1.86c-0.28,0,0.02-0.01-0.17-0.01l-0.17,0.01 c-0.94,0.04-1.87-0.45-2.33-1.34c-0.54-1.03-1.38-1.9-2.41-2.51c-1-0.59-2.19-0.94-3.46-0.94c-1.54,0-2.95,0.5-4.06,1.33 c-1.11,0.84-1.94,2.01-2.3,3.35c-0.12,0.51-0.41,0.99-0.85,1.35c-1.07,0.87-2.65,0.71-3.52-0.36c-1.23-1.51-2.71-2.17-4.16-2.22 c-1.1-0.04-2.22,0.26-3.23,0.79c-1.02,0.54-1.92,1.32-2.59,2.24C10.78,37.45,10.44,38.17,10.29,38.91L10.29,38.91z M8.5,43.93 c-0.4,0.1-0.8,0.09-1.18,0h-2.3v3.36h117.86v-3.36H8.5L8.5,43.93z M13.74,52.32l4.74,18.07c0.96,3.68,2.48,6.45,4.66,8.25 c2.13,1.77,5,2.67,8.73,2.67h63.75c3.86,0,7.15-0.95,9.61-2.82c2.34-1.78,3.99-4.45,4.75-7.99l3.9-18.18H13.74L13.74,52.32z"/></g></svg>