<svg xmlns="http://www.w3.org/2000/svg" xmlns:xlink="http://www.w3.org/1999/xlink" viewBox="0 0 24 24"><path d="M11 2C9.9069372 2 9 2.9069372 9 4L9 9L1 9L1 10L1 11C1.6466454 11 2.1755518 11.466658 2.2558594 12.107422L2.5703125 14.619141C2.7532033 16.08373 3.5749442 17.324747 4.7226562 18.111328L4 21L6.0605469 21L6.5839844 18.90625C6.891815 18.965985 7.2078368 19 7.53125 19L16.46875 19C16.792163 19 17.108186 18.96595 17.416016 18.90625L17.939453 21L20 21L19.277344 18.111328C20.424892 17.325143 21.246779 16.085093 21.429688 14.621094L21.744141 12.109375C21.824548 11.467251 22.353355 11 23 11L23 10L23 9L11 9L11 4L14 4L14 5L13 5L13 7L17 7L17 5L16 5L16 4C16 2.9069372 15.093063 2 14 2L11 2 z"/></svg>