<svg xmlns="http://www.w3.org/2000/svg" xmlns:xlink="http://www.w3.org/1999/xlink" width="50" height="50" viewBox="0 0 50 50"><path d="M19.990234 3L20.142578 3.2539062L24.361328 9.953125L28.740234 3L19.990234 3 z M 30.783203 3.5058594L25.542969 11.830078L29.845703 18.666016C29.946703 18.826016 30 19.010219 30 19.199219L30 27L28 27L28 19.486328L18.041016 3.5800781L12.345703 6.0214844C12.235703 6.0554844 12.139219 6.1275625 12.074219 6.2265625L0.7109375 23.572266C0.6389375 23.683266 0.61167187 23.817266 0.63867188 23.947266C0.66567188 24.077266 0.74251562 24.191672 0.85351562 24.263672L6.4414062 27.923828C6.6734063 28.076828 6.9828125 28.01225 7.1328125 27.78125L12 20.394531L12 28L11.5 28C11.224 28 11 28.224 11 28.5L11 32.5C11 32.776 11.224 33 11.5 33L12 33L12 47.462891C12 47.738891 12.224 47.962891 12.5 47.962891L28 47.962891L28 34L30 34L30 47.962891L36.5 47.962891C36.776 47.962891 37 47.738891 37 47.462891L37 33L37.5 33C37.776 33 38 32.776 38 32.5L38 28.5C38 28.224 37.776 28 37.5 28L37 28L37 20.394531L41.867188 27.783203C42.019188 28.013203 42.327594 28.078781 42.558594 27.925781L48.144531 24.265625C48.255531 24.192625 48.332375 24.078219 48.359375 23.949219C48.387375 23.817219 48.361062 23.683266 48.289062 23.572266L36.925781 6.2265625C36.865781 6.1345625 36.775828 6.0652969 36.673828 6.0292969L30.783203 3.5058594 z M 20 28L23 28L23 43L20 43L20 28 z M 13 29L18 29L18 32L13 32L13 29 z M 25 29L36 29L36 32L25 32L25 29 z"/></svg>