<svg id="Layer_1" enable-background="new 0 0 512.065 512.065" height="512" viewBox="0 0 512.065 512.065" width="512" xmlns="http://www.w3.org/2000/svg"><g><path d="m503.998 398.986-15.01-230.72c-5.672-87.251-72.82-157.962-159.665-168.133-1.65-.193-145.217-.16-146.582 0-86.844 10.171-153.993 80.881-159.664 168.132l-15.01 230.72c-.602 9.251 6.75 17.039 15.966 17.039h75.963c-3.222 64.715-3.91 78.319-3.943 79.607-.218 9.053 7.081 16.393 15.994 16.393 307.771 0 288.755.236 291.618-.43 6.225-1.447 10.978-6.489 12.099-12.713.512-2.831.553 2.436-3.694-82.857h75.963c9.232 0 16.566-7.807 15.965-17.038zm-288.954-366.962h82.628l-39.55 115.979zm-173.937 352 13.902-213.682c4.552-70.041 57.225-127.126 126.128-137.698 9.954 26.799 79.928 215.191 94.484 254.38h-137.163l8.275-166.205c.439-8.825-6.359-16.336-15.185-16.775-8.819-.447-16.338 6.358-16.776 15.185l-8.406 168.847c-13.027 4.943-13.951 23.027-1.457 29.259l-3.32 66.689zm334.093-65 8.016 161h-71.183v-161zm-95.167 161h-151.184l8.016-161h143.168zm130.443-96-3.32-66.689c12.524-6.247 11.546-24.326-1.457-29.259l-8.406-168.847c-.439-8.826-7.974-15.627-16.776-15.185-8.825.439-15.624 7.95-15.185 16.775l8.275 166.205h-63.849l-34.01-91.565 55.504-162.764c68.744 10.701 121.259 67.716 125.805 137.647l13.901 213.682z"/></g></svg>