<svg xmlns="http://www.w3.org/2000/svg" xmlns:xlink="http://www.w3.org/1999/xlink" width="50" height="50" viewBox="0 0 50 50"><path d="M20 2 A 1.0001 1.0001 0 0 0 19.605469 2.0800781L12.794922 5L12.992188 5 A 1.0001 1.0001 0 0 0 12.15625 5.4511719L0.79101562 22.798828 A 1.0001 1.0001 0 0 0 1.0800781 24.181641L6.6679688 27.84375 A 1.0001 1.0001 0 0 0 8.0507812 27.556641L12 21.5625L12 27 A 1.0001 1.0001 0 0 0 11 28L11 32 A 1.0001 1.0001 0 0 0 12 33L12 46.962891 A 1.0001 1.0001 0 0 0 13 47.962891L25 47.962891L37 47.962891 A 1.0001 1.0001 0 0 0 38 46.962891L38 33 A 1.0001 1.0001 0 0 0 39 32L39 28 A 1.0001 1.0001 0 0 0 38 27L38 21.5625L41.949219 27.556641 A 1.0001 1.0001 0 0 0 43.332031 27.84375L48.919922 24.181641 A 1.0001 1.0001 0 0 0 49.208984 22.798828L37.84375 5.4511719 A 1.0001 1.0001 0 0 0 37.007812 5L37.205078 5L30.394531 2.0800781 A 1.0001 1.0001 0 0 0 30 2L25 2L20 2 z M 21.738281 4L25 4L28.261719 4L25 9.1816406L21.738281 4 z M 19.552734 4.2792969L29 19.289062L29 27L25 27 A 1.0001 1.0001 0 0 0 24 26L20 26 A 1.0001 1.0001 0 0 0 19 27L14 27L14 18.226562 A 1.0001 1.0001 0 0 0 12.164062 17.675781L6.9296875 25.623047L3.0136719 23.058594L13.533203 7L13 7 A 1.0001 1.0001 0 0 0 13.394531 6.9199219L19.552734 4.2792969 z M 30.447266 4.2792969L36.605469 6.9199219 A 1.0001 1.0001 0 0 0 36.994141 7L36.466797 7L46.986328 23.058594L43.070312 25.623047L37.835938 17.675781 A 1.0001 1.0001 0 0 0 36 18.226562L36 27L31 27L31 19 A 1.0001 1.0001 0 0 0 30.845703 18.466797L26.181641 11.058594L30.447266 4.2792969 z M 21 28L23 28L23 42L21 42L21 28 z M 13 29L19 29L19 31L13 31L13 29 z M 25 29L37 29L37 31L25 31L25 29 z M 14 33L19 33L19 43 A 1.0001 1.0001 0 0 0 20 44L24 44 A 1.0001 1.0001 0 0 0 25 43L25 33L29 33L29 45.962891L25 45.962891L14 45.962891L14 33 z M 31 33L36 33L36 45.962891L31 45.962891L31 33 z"/></svg>