<svg xmlns="http://www.w3.org/2000/svg" xmlns:xlink="http://www.w3.org/1999/xlink" viewBox="0 0 50 50"><path d="M25 1C17.28 1 11 7.28 11 15C11 18.866 12.569359 22.429 15.193359 25L18.369141 25C15.070141 22.819 13 19.11 13 15C13 8.383 18.383 3 25 3C31.617 3 37 8.383 37 15C37 19.11 34.929859 22.819 31.630859 25L34.806641 25C37.430641 22.429 39 18.866 39 15C39 7.28 32.72 1 25 1 z M 25.980469 5.9902344 A 1.0001 1.0001 0 0 0 25.292969 6.2929688L23.292969 8.2929688 A 1.0001 1.0001 0 1 0 24.707031 9.7070312L26.707031 7.7070312 A 1.0001 1.0001 0 0 0 25.980469 5.9902344 z M 30.980469 6.9902344 A 1.0001 1.0001 0 0 0 30.292969 7.2929688L24.292969 13.292969 A 1.0001 1.0001 0 1 0 25.707031 14.707031L31.707031 8.7070312 A 1.0001 1.0001 0 0 0 30.980469 6.9902344 z M 23 18C21.35503 18 20 19.35503 20 21 A 1.0001 1.0001 0 1 0 22 21C22 20.43497 22.43497 20 23 20C23.56503 20 24 20.43497 24 21L24 27L22 27L22 26 A 1.0001 1.0001 0 0 0 20.984375 24.986328 A 1.0001 1.0001 0 0 0 20 26L20 27L13 27 A 1.0001 1.0001 0 0 0 12 28L12 28.392578C12 33.022604 14.990686 36.961324 19.136719 38.404297L20.005859 47.099609 A 1.0001 1.0001 0 1 0 21.994141 46.900391L21.195312 38.894531C21.658571 38.956672 22.127519 39 22.607422 39L27.392578 39C27.872554 39 28.341378 38.956672 28.804688 38.894531L28.005859 46.900391 A 1.0001 1.0001 0 1 0 29.994141 47.099609L30.863281 38.404297C35.009526 36.961324 38 33.022604 38 28.392578L38 28 A 1.0001 1.0001 0 0 0 37 27L30 27L30 26 A 1.0001 1.0001 0 1 0 28 26L28 27L26 27L26 21C26 19.35503 24.64497 18 23 18 z M 14.123047 29L20.832031 29 A 1.0001 1.0001 0 0 0 21.158203 29L24.832031 29 A 1.0001 1.0001 0 0 0 25.158203 29L28.832031 29 A 1.0001 1.0001 0 0 0 29.158203 29L35.876953 29C35.550537 33.464276 31.942342 37 27.392578 37L22.607422 37C18.05871 37 14.449469 33.464276 14.123047 29 z"/></svg>