<svg xmlns="http://www.w3.org/2000/svg" xmlns:xlink="http://www.w3.org/1999/xlink" viewBox="0 0 50 50"><path d="M37 27H13c-.552 0-1 .448-1 1v.392C12 34.241 16.759 39 22.608 39h4.784C33.241 39 38 34.241 38 28.392V28C38 27.448 37.552 27 37 27zM20 25c0-.552.448-1 1-1s1 .448 1 1h2v-4c0-.551-.449-1-1-1s-1 .449-1 1c0 .552-.448 1-1 1s-1-.448-1-1c0-1.654 1.346-3 3-3s3 1.346 3 3v4h2c0-.552.448-1 1-1s1 .448 1 1h4.807C37.431 22.429 39 18.866 39 15c0-7.72-6.28-14-14-14S11 7.28 11 15c0 3.866 1.569 7.429 4.193 10H20zM31.707 7.293c.391.391.391 1.023 0 1.414l-6 6C25.512 14.902 25.256 15 25 15s-.512-.098-.707-.293c-.391-.391-.391-1.023 0-1.414l6-6C30.684 6.902 31.316 6.902 31.707 7.293zM23.293 8.293l2-2c.391-.391 1.023-.391 1.414 0s.391 1.023 0 1.414l-2 2C24.512 9.902 24.256 10 24 10s-.512-.098-.707-.293C22.902 9.316 22.902 8.684 23.293 8.293zM22.608 41c-1.128 0-2.216-.163-3.257-.442l.654 6.542C20.056 47.611 20.486 48 21 48h8c.514 0 .944-.389.995-.9l.654-6.542C29.608 40.837 28.52 41 27.392 41H22.608z"/></svg>