<svg xmlns="http://www.w3.org/2000/svg" xmlns:xlink="http://www.w3.org/1999/xlink" width="24" height="24" viewBox="0 0 24 24"><path d="M8.9257812 1.0019531L11.966797 5.328125L15.052734 1.0078125L8.9257812 1.0019531 z M 6.7871094 1.4375C4.6951094 2.1555 1.2665781 3.5304687 0.76757812 3.7304688L-0.005859375 4.0429688L1.0058594 9L5 9L5 12L7 12L7 14L5 14L5 23L13 23L13 16L15 16L15 23L19 23L19 14L13 14L13 12L19 12L19 9L22.994141 9L24.005859 4.0429688L23.232422 3.7304688C22.431422 3.4084687 19.212172 2.1235 17.201172 1.4375L13.185547 7.0625L15 9.6445312L15 10L12.804688 10L6.7871094 1.4375 z M 9 12L11 12L11 19L9 19L9 12 z"/></svg>