<svg xmlns="http://www.w3.org/2000/svg" xmlns:xlink="http://www.w3.org/1999/xlink" viewBox="0 0 50 50"><path d="M1 12C0.449219 12 0 12.449219 0 13L0 16L50 16L50 13C50 12.449219 49.554688 12 49 12 Z M 1 18C2.140625 18 3 18.859375 3 20L3 27C3 32.007813 6.351563 36.234375 10.9375 37.5625C10.722656 38.441406 9.992188 39 9 39C8.640625 38.996094 8.304688 39.183594 8.121094 39.496094C7.941406 39.808594 7.941406 40.191406 8.121094 40.503906C8.304688 40.816406 8.640625 41.003906 9 41C10.886719 41 12.453125 39.695313 12.875 37.9375C13.246094 37.976563 13.621094 38 14 38L36 38C36.378906 38 36.753906 37.976563 37.125 37.9375C37.546875 39.695313 39.113281 41 41 41C41.359375 41.003906 41.695313 40.816406 41.878906 40.503906C42.058594 40.191406 42.058594 39.808594 41.878906 39.496094C41.695313 39.183594 41.359375 38.996094 41 39C40.007813 39 39.277344 38.441406 39.0625 37.5625C43.648438 36.234375 47 32.007813 47 27L47 20C47 18.859375 47.859375 18 49 18Z"/></svg>