<svg id="Layer_1" enable-background="new 0 0 512 512" height="512" viewBox="0 0 512 512" width="512" xmlns="http://www.w3.org/2000/svg"><g><path d="m496 288c-38.154 0-437.487 0-448 0v-56h32c8.837 0 16-7.164 16-16v-40c0-8.836-7.163-16-16-16s-16 7.164-16 16v24h-16v-138.745c0-25.903 31.562-39.064 49.941-20.686l16.94 16.94c-13.424 23.401-10.164 53.835 9.805 73.805l8 8c6.247 6.248 16.379 6.249 22.627 0l64-64c6.249-6.248 6.249-16.379 0-22.627l-8-8c-20.35-20.351-50.837-23.06-73.817-9.817l-16.928-16.928c-11.57-11.57-26.952-17.942-43.313-17.942-33.776 0-61.255 27.479-61.255 61.255v226.745c-8.837 0-16 7.164-16 16s7.163 16 16 16v32c0 43.889 19.742 83.247 50.806 109.681l-22.338 23.229c-9.803 10.193-2.445 27.09 11.53 27.09 4.199 0 8.394-1.644 11.534-4.91l26.218-27.263c19.844 10.326 42.376 16.173 66.25 16.173h192c23.874 0 46.406-5.847 66.25-16.173l26.218 27.263c6.106 6.35 16.234 6.585 22.623.442 6.369-6.125 6.566-16.254.441-22.623l-22.338-23.229c31.064-26.433 50.806-65.791 50.806-109.68v-32c8.837 0 16-7.164 16-16s-7.163-16-16-16zm-310.89-223.738-40.845 40.845c-8.246-11.427-7.23-27.515 3.048-37.794 10.378-10.377 26.461-11.259 37.797-3.051zm278.89 287.738c0 61.757-50.243 112-112 112h-192c-61.757 0-112-50.243-112-112v-32h416z"/></g></svg>