<svg xmlns="http://www.w3.org/2000/svg" xmlns:xlink="http://www.w3.org/1999/xlink" viewBox="0 0 50 50"><path d="M48 16L46 16L46 13C46 11.898438 45.101563 11 44 11L6 11C4.898438 11 4 11.898438 4 13L4 16L2 16C0.898438 16 0 16.898438 0 18L0 32C0 33.101563 0.898438 34 2 34L4 34L4 37C4 38.101563 4.898438 39 6 39L44 39C45.101563 39 46 38.101563 46 37L46 34L48 34C49.101563 34 50 33.101563 50 32L50 18C50 16.898438 49.101563 16 48 16 Z M 45 27.5C45 28.050781 44.554688 28.5 44 28.5C43.445313 28.5 43 28.050781 43 27.5L43 26L41.5 26L39 28.5L37.5 27L34.847656 27C34.933594 27.148438 35 27.3125 35 27.5L35 29.5C35 30.050781 34.554688 30.5 34 30.5C33.445313 30.5 33 30.050781 33 29.5L33 27.5C33 27.3125 33.066406 27.148438 33.152344 27L28.445313 27C27.753906 28.191406 26.476563 29 25 29C23.523438 29 22.246094 28.191406 21.554688 27L15.847656 27C15.933594 27.148438 16 27.3125 16 27.5L16 29.5C16 30.050781 15.554688 30.5 15 30.5C14.445313 30.5 14 30.050781 14 29.5L14 27.5C14 27.3125 14.066406 27.148438 14.152344 27L12.5 27L11 28.5L8.5 26L7 26L7 27.5C7 28.050781 6.554688 28.5 6 28.5C5.445313 28.5 5 28.050781 5 27.5L5 22.5C5 21.949219 5.445313 21.5 6 21.5C6.554688 21.5 7 21.949219 7 22.5L7 24L8.5 24L11 21.5L12.5 23L14.152344 23C14.066406 22.851563 14 22.6875 14 22.5L14 20.5C14 19.949219 14.445313 19.5 15 19.5C15.554688 19.5 16 19.949219 16 20.5L16 22.5C16 22.6875 15.933594 22.851563 15.847656 23L21.554688 23C22.246094 21.808594 23.523438 21 25 21C26.476563 21 27.753906 21.808594 28.445313 23L33.152344 23C33.066406 22.851563 33 22.6875 33 22.5L33 20.5C33 19.949219 33.445313 19.5 34 19.5C34.554688 19.5 35 19.949219 35 20.5L35 22.5C35 22.6875 34.933594 22.851563 34.847656 23L37.5 23L39 21.5L41.5 24L43 24L43 22.5C43 21.949219 43.445313 21.5 44 21.5C44.554688 21.5 45 21.949219 45 22.5Z"/></svg>