<svg xmlns="http://www.w3.org/2000/svg" xmlns:xlink="http://www.w3.org/1999/xlink" viewBox="0 0 50 50"><path d="M6 11C4.90625 11 4 11.90625 4 13L4 16L2 16C0.90625 16 0 16.90625 0 18L0 32C0 33.09375 0.90625 34 2 34L4 34L4 37C4 38.09375 4.90625 39 6 39L44 39C45.09375 39 46 38.09375 46 37L46 34L48 34C49.09375 34 50 33.09375 50 32L50 18C50 16.90625 49.09375 16 48 16L46 16L46 13C46 11.90625 45.09375 11 44 11 Z M 6 13L44 13L44 17C44 17.550781 44.449219 18 45 18L48 18L48 32L45 32C44.449219 32 44 32.449219 44 33L44 37L6 37L6 33C6 32.449219 5.550781 32 5 32L2 32L2 18L5 18C5.550781 18 6 17.550781 6 17 Z M 14.90625 19.46875C14.863281 19.476563 14.820313 19.488281 14.78125 19.5C14.316406 19.605469 13.988281 20.023438 14 20.5L14 22L12.9375 22L11.71875 20.78125C11.53125 20.585938 11.269531 20.476563 11 20.476563C10.730469 20.476563 10.46875 20.585938 10.28125 20.78125L7 24.0625L7 22.5C7.007813 22.191406 6.871094 21.898438 6.632813 21.703125C6.398438 21.507813 6.082031 21.433594 5.78125 21.5C5.316406 21.605469 4.988281 22.023438 5 22.5L5 27.5C4.996094 27.859375 5.183594 28.195313 5.496094 28.378906C5.808594 28.558594 6.191406 28.558594 6.503906 28.378906C6.816406 28.195313 7.003906 27.859375 7 27.5L7 25.9375L10.28125 29.21875C10.46875 29.414063 10.730469 29.523438 11 29.523438C11.269531 29.523438 11.53125 29.414063 11.71875 29.21875L12.9375 28L14 28L14 29.5C13.996094 29.859375 14.183594 30.195313 14.496094 30.378906C14.808594 30.558594 15.191406 30.558594 15.503906 30.378906C15.816406 30.195313 16.003906 29.859375 16 29.5L16 28L21.1875 28C22.097656 29.15625 23.414063 30 25 30C26.585938 30 27.902344 29.15625 28.8125 28L33 28L33 29.5C32.996094 29.859375 33.183594 30.195313 33.496094 30.378906C33.808594 30.558594 34.191406 30.558594 34.503906 30.378906C34.816406 30.195313 35.003906 29.859375 35 29.5L35 28L37.0625 28L38.28125 29.21875C38.46875 29.414063 38.730469 29.523438 39 29.523438C39.269531 29.523438 39.53125 29.414063 39.71875 29.21875L43 25.9375L43 27.5C42.996094 27.859375 43.183594 28.195313 43.496094 28.378906C43.808594 28.558594 44.191406 28.558594 44.503906 28.378906C44.816406 28.195313 45.003906 27.859375 45 27.5L45 22.5C45.011719 22.210938 44.894531 21.933594 44.6875 21.738281C44.476563 21.539063 44.191406 21.441406 43.90625 21.46875C43.863281 21.476563 43.820313 21.488281 43.78125 21.5C43.316406 21.605469 42.988281 22.023438 43 22.5L43 24.0625L39.71875 20.78125C39.53125 20.585938 39.269531 20.476563 39 20.476563C38.730469 20.476563 38.46875 20.585938 38.28125 20.78125L37.0625 22L35 22L35 20.5C35.011719 20.210938 34.894531 19.933594 34.6875 19.738281C34.476563 19.539063 34.191406 19.441406 33.90625 19.46875C33.863281 19.476563 33.820313 19.488281 33.78125 19.5C33.316406 19.605469 32.988281 20.023438 33 20.5L33 22L28.8125 22C27.902344 20.84375 26.585938 20 25 20C23.414063 20 22.097656 20.84375 21.1875 22L16 22L16 20.5C16.011719 20.210938 15.894531 19.933594 15.6875 19.738281C15.476563 19.539063 15.191406 19.441406 14.90625 19.46875 Z M 25 22C26.113281 22 27.070313 22.601563 27.59375 23.5C27.769531 23.800781 28.089844 23.992188 28.4375 24L37.5 24C37.765625 24.007813 38.027344 23.90625 38.21875 23.71875L39 22.9375L41.0625 25L39 27.0625L38.21875 26.28125C38.027344 26.09375 37.765625 25.992188 37.5 26L28.4375 26C28.089844 26.007813 27.769531 26.199219 27.59375 26.5C27.070313 27.398438 26.113281 28 25 28C23.886719 28 22.929688 27.398438 22.40625 26.5C22.230469 26.199219 21.910156 26.007813 21.5625 26L12.5 26C12.234375 25.992188 11.972656 26.09375 11.78125 26.28125L11 27.0625L8.9375 25L11 22.9375L11.78125 23.71875C11.972656 23.90625 12.234375 24.007813 12.5 24L21.5625 24C21.910156 23.992188 22.230469 23.800781 22.40625 23.5C22.929688 22.601563 23.886719 22 25 22Z"/></svg>