<svg xmlns="http://www.w3.org/2000/svg" xmlns:xlink="http://www.w3.org/1999/xlink" viewBox="0 0 50 50"><path d="M12.1875 0.9375C12.011719 0.945313 11.851563 0.992188 11.71875 1.03125L10.75 1.3125L13.875 12.21875L23.1875 18.96875C15.988281 2.507813 13.429688 0.878906 12.1875 0.9375 Z M 2.75 6.625L2.1875 7.40625C1.386719 8.53125 1.351563 10.507813 11.125 19.6875C16.066406 24.332031 20.324219 27.738281 20.375 27.78125L20.65625 28L21 28C23.875 28.042969 31.726563 28.136719 35.34375 31.75C38.621094 35.027344 41.375 35 42 35C45.308594 35 48 32.308594 48 29C48 25.691406 45.308594 23 42 23C39.609375 23 37.535156 24.359375 36.71875 24.96875C35.210938 24.65625 29.011719 23.75 24 22 Z M 21 23C21.550781 23 22 23.449219 22 24C22 24.550781 21.550781 25 21 25C20.449219 25 20 24.550781 20 24C20 23.449219 20.449219 23 21 23 Z M 42 26C43.65625 26 45 27.34375 45 29C45 30.65625 43.65625 32 42 32C40.34375 32 39 30.65625 39 29C39 27.34375 40.34375 26 42 26 Z M 21.6875 30C21.984375 30.902344 22 31.984375 22 33.71875L22 34C22 35.445313 22.78125 37.734375 23.09375 38.40625C24.832031 42.167969 28.734375 46.792969 30.8125 48.09375C31.769531 48.691406 32.875 49 34 49C35.730469 49 37.328125 48.125 38.25 46.65625C39.707031 44.332031 38.996094 41.253906 36.6875 39.78125C36.148438 39.386719 34.265625 37.492188 33.53125 35.90625C33.066406 34.902344 32.042969 33 30 33C28.054688 33 27.316406 31.703125 27.0625 30.4375C24.996094 30.117188 23.003906 30.027344 21.6875 30 Z M 29 36C29.777344 36 30.488281 36.453125 30.8125 37.15625C31.882813 39.46875 34.351563 41.867188 35.0625 42.3125C35.996094 42.902344 36.273438 44.128906 35.6875 45.0625C35.320313 45.648438 34.691406 46 34 46C33.625 46 33.253906 45.886719 32.9375 45.6875C31.632813 44.871094 28.632813 41.964844 27.1875 38.84375C26.964844 38.359375 26.941406 37.816406 27.125 37.3125C27.308594 36.808594 27.671875 36.410156 28.15625 36.1875C28.421875 36.0625 28.707031 36 29 36Z"/></svg>