<svg xmlns="http://www.w3.org/2000/svg" xmlns:xlink="http://www.w3.org/1999/xlink" viewBox="0 0 50 50"><path d="M23 5C15.28125 5 9 11.28125 9 19L9 29.992188C5.710938 29.492188 3.222656 29.023438 3.1875 29.015625C2.871094 28.960938 2.539063 29.054688 2.304688 29.28125C2.074219 29.503906 1.960938 29.828125 2.011719 30.152344C2.097656 30.707031 4.191406 43.8125 13.78125 45.976563C13.851563 45.992188 13.925781 46 14 46L36 46C36.074219 46 36.148438 45.992188 36.21875 45.976563C45.808594 43.8125 47.902344 30.707031 47.988281 30.152344C48.039063 29.832031 47.925781 29.507813 47.695313 29.28125C47.464844 29.054688 47.136719 28.957031 46.820313 29.015625C46.769531 29.023438 41.691406 29.949219 36.453125 30.609375C34.417969 30.863281 32.589844 32.101563 31.441406 34C30.375 35.765625 27.730469 37 25 37C22.238281 37 19.652344 35.800781 18.566406 34.015625C17.40625 32.109375 15.582031 30.875 13.566406 30.628906C12.679688 30.519531 11.847656 30.398438 11 30.28125L11 19C11 13.617188 14.523438 9.078125 19.394531 7.550781C18.503906 8.71875 18 10.234375 18 12C18 12.550781 18.445313 13 19 13L31 13C31.554688 13 32 12.550781 32 12C32 7.84375 29.226563 5.042969 25.089844 5.003906C25.058594 5 25.03125 5 25 5 Z M 20.984375 15C20.425781 15 19.972656 15.449219 19.972656 16C19.972656 16.550781 20.425781 17 20.984375 17C21.546875 17 22 16.550781 22 16C22 15.449219 21.546875 15 20.984375 15 Z M 25.015625 15C24.453125 15 24 15.449219 24 16C24 16.550781 24.453125 17 25.015625 17C25.574219 17 26.027344 16.550781 26.027344 16C26.027344 15.449219 25.574219 15 25.015625 15 Z M 29.015625 15C28.453125 15 28 15.449219 28 16C28 16.550781 28.453125 17 29.015625 17C29.574219 17 30.027344 16.550781 30.027344 16C30.027344 15.449219 29.574219 15 29.015625 15 Z M 20.984375 19C20.425781 19 19.972656 19.449219 19.972656 20C19.972656 20.550781 20.425781 21 20.984375 21C21.546875 21 22 20.550781 22 20C22 19.449219 21.546875 19 20.984375 19 Z M 25.015625 19C24.453125 19 24 19.449219 24 20C24 20.550781 24.453125 21 25.015625 21C25.574219 21 26.027344 20.550781 26.027344 20C26.027344 19.449219 25.574219 19 25.015625 19 Z M 29.015625 19C28.453125 19 28 19.449219 28 20C28 20.550781 28.453125 21 29.015625 21C29.574219 21 30.027344 20.550781 30.027344 20C30.027344 19.449219 29.574219 19 29.015625 19 Z M 20.984375 23C20.425781 23 19.972656 23.449219 19.972656 24C19.972656 24.550781 20.425781 25 20.984375 25C21.546875 25 22 24.550781 22 24C22 23.449219 21.546875 23 20.984375 23 Z M 25.015625 23C24.453125 23 24 23.449219 24 24C24 24.550781 24.453125 25 25.015625 25C25.574219 25 26.027344 24.550781 26.027344 24C26.027344 23.449219 25.574219 23 25.015625 23 Z M 29.015625 23C28.453125 23 28 23.449219 28 24C28 24.550781 28.453125 25 29.015625 25C29.574219 25 30.027344 24.550781 30.027344 24C30.027344 23.449219 29.574219 23 29.015625 23 Z M 20.984375 27C20.425781 27 19.972656 27.449219 19.972656 28C19.972656 28.550781 20.425781 29 20.984375 29C21.546875 29 22 28.550781 22 28C22 27.449219 21.546875 27 20.984375 27 Z M 25.015625 27C24.453125 27 24 27.449219 24 28C24 28.550781 24.453125 29 25.015625 29C25.574219 29 26.027344 28.550781 26.027344 28C26.027344 27.449219 25.574219 27 25.015625 27 Z M 29.015625 27C28.453125 27 28 27.449219 28 28C28 28.550781 28.453125 29 29.015625 29C29.574219 29 30.027344 28.550781 30.027344 28C30.027344 27.449219 29.574219 27 29.015625 27Z"/></svg>