<svg xmlns="http://www.w3.org/2000/svg" xmlns:xlink="http://www.w3.org/1999/xlink" viewBox="0 0 50 50"><path d="M23 5C15.28125 5 9 11.28125 9 19L9 29.992188C5.679688 29.484375 3.1875 29.015625 3.1875 29.015625C3.121094 29.003906 3.054688 29 2.988281 29C2.699219 29.003906 2.425781 29.132813 2.238281 29.351563C2.050781 29.574219 1.96875 29.863281 2.011719 30.152344C2.011719 30.152344 2.515625 33.515625 4.203125 37.15625C5.894531 40.796875 8.835938 44.859375 13.78125 45.972656C13.851563 45.992188 13.925781 46 14 46L36 46C36.074219 46 36.148438 45.992188 36.21875 45.972656C41.164063 44.859375 44.105469 40.796875 45.796875 37.15625C47.484375 33.515625 47.988281 30.152344 47.988281 30.152344C48.035156 29.832031 47.929688 29.507813 47.695313 29.28125C47.464844 29.058594 47.136719 28.957031 46.820313 29.015625C46.820313 29.015625 41.746094 29.945313 36.453125 30.609375C34.304688 30.878906 32.523438 32.210938 31.441406 34C30.359375 35.796875 27.59375 37 25 37C22.410156 37 19.652344 35.804688 18.5625 34.015625C17.484375 32.242188 15.71875 30.890625 13.566406 30.625C12.679688 30.519531 11.84375 30.394531 11 30.277344L11 19C11 13.621094 14.519531 9.085938 19.386719 7.554688C18.464844 8.777344 18 10.332031 18 12C18 12.550781 18.449219 13 19 13L31 13C31.550781 13 32 12.550781 32 12C32 10.117188 31.390625 8.351563 30.175781 7.0625C28.980469 5.789063 27.210938 5.027344 25.09375 5.003906C25.0625 5 25.03125 5 25 5 Z M 25 7C26.703125 7 27.898438 7.558594 28.71875 8.429688C29.335938 9.085938 29.667969 9.996094 29.832031 11L20.164063 11C20.328125 9.976563 20.660156 9.0625 21.277344 8.410156C22.09375 7.546875 23.289063 7 25 7 Z M 20.984375 15C20.425781 15 19.972656 15.449219 19.972656 16C19.972656 16.550781 20.425781 17 20.984375 17C21.546875 17 22 16.550781 22 16C22 15.449219 21.546875 15 20.984375 15 Z M 25.015625 15C24.453125 15 24 15.449219 24 16C24 16.550781 24.453125 17 25.015625 17C25.574219 17 26.027344 16.550781 26.027344 16C26.027344 15.449219 25.574219 15 25.015625 15 Z M 29.015625 15C28.453125 15 28 15.449219 28 16C28 16.550781 28.453125 17 29.015625 17C29.574219 17 30.027344 16.550781 30.027344 16C30.027344 15.449219 29.574219 15 29.015625 15 Z M 20.984375 19C20.425781 19 19.972656 19.449219 19.972656 20C19.972656 20.550781 20.425781 21 20.984375 21C21.546875 21 22 20.550781 22 20C22 19.449219 21.546875 19 20.984375 19 Z M 25.015625 19C24.453125 19 24 19.449219 24 20C24 20.550781 24.453125 21 25.015625 21C25.574219 21 26.027344 20.550781 26.027344 20C26.027344 19.449219 25.574219 19 25.015625 19 Z M 29.015625 19C28.453125 19 28 19.449219 28 20C28 20.550781 28.453125 21 29.015625 21C29.574219 21 30.027344 20.550781 30.027344 20C30.027344 19.449219 29.574219 19 29.015625 19 Z M 20.984375 23C20.425781 23 19.972656 23.449219 19.972656 24C19.972656 24.550781 20.425781 25 20.984375 25C21.546875 25 22 24.550781 22 24C22 23.449219 21.546875 23 20.984375 23 Z M 25.015625 23C24.453125 23 24 23.449219 24 24C24 24.550781 24.453125 25 25.015625 25C25.574219 25 26.027344 24.550781 26.027344 24C26.027344 23.449219 25.574219 23 25.015625 23 Z M 29.015625 23C28.453125 23 28 23.449219 28 24C28 24.550781 28.453125 25 29.015625 25C29.574219 25 30.027344 24.550781 30.027344 24C30.027344 23.449219 29.574219 23 29.015625 23 Z M 20.984375 27C20.425781 27 19.972656 27.449219 19.972656 28C19.972656 28.550781 20.425781 29 20.984375 29C21.546875 29 22 28.550781 22 28C22 27.449219 21.546875 27 20.984375 27 Z M 25.015625 27C24.453125 27 24 27.449219 24 28C24 28.550781 24.453125 29 25.015625 29C25.574219 29 26.027344 28.550781 26.027344 28C26.027344 27.449219 25.574219 27 25.015625 27 Z M 29.015625 27C28.453125 27 28 27.449219 28 28C28 28.550781 28.453125 29 29.015625 29C29.574219 29 30.027344 28.550781 30.027344 28C30.027344 27.449219 29.574219 27 29.015625 27 Z M 45.714844 31.207031C45.449219 32.390625 45 34.117188 43.980469 36.3125C42.433594 39.648438 39.890625 43.054688 35.84375 44L14.15625 44C10.109375 43.054688 7.566406 39.648438 6.019531 36.3125C5 34.117188 4.550781 32.394531 4.289063 31.210938C5.417969 31.421875 8.59375 32.035156 13.324219 32.613281C14.789063 32.792969 16.042969 33.714844 16.859375 35.054688C18.46875 37.707031 21.835938 39 25 39C28.171875 39 31.546875 37.699219 33.15625 35.035156C33.964844 33.695313 35.222656 32.78125 36.703125 32.59375C41.316406 32.015625 44.5625 31.414063 45.714844 31.207031Z"/></svg>