<?xml version="1.0" encoding="utf-8"?><svg version="1.1" id="Layer_1" xmlns="http://www.w3.org/2000/svg" xmlns:xlink="http://www.w3.org/1999/xlink" x="0px" y="0px" viewBox="0 0 122.88 112.36" style="enable-background:new 0 0 122.88 112.36" xml:space="preserve"><style type="text/css">.st0{fill-rule:evenodd;clip-rule:evenodd;}</style><g><path class="st0" d="M0.03,0l19.64,4.69l-8.82,30.12L0,30.31L0.03,0L0.03,0z M96.44,69.55c4.07,0,7.37,3.3,7.37,7.37 c0,4.07-3.3,7.37-7.37,7.37c-4.07,0-7.37-3.3-7.37-7.37C89.07,72.85,92.37,69.55,96.44,69.55L96.44,69.55z M14.97,33.29l7.32-25 l11.25,3.29c4.52,2.25,8.53,6.23,12.42,10.63l8.73,2.56c3.88,1.4,4.78,6.01,0.17,7.52c-3.72,1.35-7.72,0.04-11.76-1.55 c-2.81-0.98-4.06,2.83-1.09,3.71c1.01,0.38,2.21,0.47,3.19,0.76c5.17,1.51,9.72,1.77,13.52-1.55c3.19-2.52,1.76-1.46,4.33-4.34 c-0.1-0.09-0.2-0.19-0.3-0.29l0,0c-1.09-1.16-1.52-2.74-1.52-4.29c0-1.48,0.79-2.67,1.75-4.13c0.85-1.29,1.87-2.84,2.34-4.87 c0.2-0.86,1.06-1.39,1.92-1.19c0.62,0.14,1.07,0.63,1.2,1.21c0.48,2.02,1.49,3.56,2.34,4.85c0.96,1.46,1.75,2.65,1.75,4.13 c0,1.41-0.36,2.86-1.25,3.98c6.94,3.86-6.61,13.33-9.62,14.67c-6.19,2.75-13.18,4.32-16.18,4.76c-8.45,2.26-15.57,0.01-21.51-6.3 L14.97,33.29L14.97,33.29z M73.32,61.33h46.36v-7.64c0-2.05-0.84-3.91-2.19-5.26c-1.35-1.35-3.22-2.19-5.26-2.19H84.66 c-0.05,0-0.1,0.01-0.14,0.01c-0.05,0-0.1,0-0.14-0.01h-3.59c-2.05,0-3.91,0.84-5.26,2.19c-1.35,1.35-2.19,3.22-2.19,5.26V61.33 L73.32,61.33z M119.68,64.53H73.32v26.34h46.36V64.53L119.68,64.53z M119.68,94.06H73.32v7.64c0,2.05,0.84,3.91,2.19,5.26 c1.35,1.35,3.22,2.19,5.26,2.19h31.45c2.05,0,3.91-0.84,5.26-2.19c1.35-1.35,2.19-3.22,2.19-5.26V94.06L119.68,94.06z M80.78,43.04 h2.14v-9.89c0-0.59,0.24-1.12,0.63-1.51c0.39-0.39,0.92-0.63,1.51-0.63h1.89V24.5c0-0.52,0.21-0.99,0.56-1.33l0,0l0,0l0.01-0.01 l0.02-0.02l0,0c0.34-0.33,0.8-0.53,1.3-0.53h1.21v-8.12H67.24c-1.23,0-1.55-0.64-1.88-1.31l0,0l-0.03-0.06 c-0.01-0.03-0.02-0.05-0.04-0.08l-3.41-6.75c-0.14-0.27-0.2-0.55-0.2-0.82c0-0.46,0.17-0.86,0.45-1.2 c0.19-0.23,0.43-0.41,0.68-0.54c0.3-0.15,0.64-0.24,0.98-0.24h43.85c0.57,0,1.1,0.23,1.47,0.61c0.38,0.38,0.61,0.9,0.61,1.47v6.83 c0,0.57-0.23,1.09-0.61,1.47l0,0c-0.38,0.38-0.9,0.61-1.47,0.61h-5v8.12h1.66c0.52,0,0.99,0.21,1.33,0.56l0,0l0,0l0.01,0.01 l0.02,0.02l0,0c0.33,0.34,0.53,0.8,0.53,1.3v6.51h1.36c0.59,0,1.12,0.24,1.51,0.63c0.39,0.39,0.63,0.92,0.63,1.51v9.89h2.54 c2.93,0,5.6,1.2,7.53,3.13c1.93,1.93,3.13,4.6,3.13,7.53v9.24v29.54v9.24c0,2.93-1.2,5.6-3.13,7.53c-1.93,1.93-4.6,3.13-7.53,3.13 H80.78c-2.93,0-5.6-1.2-7.53-3.13c-1.93-1.93-3.13-4.59-3.13-7.53v-9.24V62.93v-9.24c0-2.93,1.2-5.6,3.13-7.53 C75.18,44.23,77.84,43.04,80.78,43.04L80.78,43.04z M86.11,43.04h20.36v-8.82h-1.54c-0.11,0.02-0.23,0.04-0.35,0.04 c-0.12,0-0.24-0.01-0.35-0.04H86.11V43.04L86.11,43.04z M90.14,31.01h12.84v-5.21H91.87c-0.07,0.01-0.15,0.02-0.23,0.02 c-0.08,0-0.15-0.01-0.23-0.02h-1.27V31.01L90.14,31.01z M93.24,22.61h6.18v-8.12h-6.18V22.61L93.24,22.61z M91.37,11.28 c0.09-0.02,0.18-0.02,0.27-0.02h9.38c0.09,0,0.19,0.01,0.28,0.02h5.2v-4.6H65.65l2.32,4.6H91.37L91.37,11.28z M68.12,22.36 c-0.4-0.6-0.83-1.25-1.24-1.98c-0.41,0.73-0.84,1.38-1.24,1.98c-0.66,1.01-1.21,1.83-1.21,2.38c0,0.82,0.18,1.61,0.64,2.1l0,0l0,0 c0.35,0.37,0.92,0.61,1.8,0.61c0.88,0,1.45-0.24,1.8-0.61c0.46-0.49,0.64-1.28,0.64-2.1C69.33,24.2,68.79,23.37,68.12,22.36 L68.12,22.36z"/></g></svg>