<?xml version="1.0" encoding="utf-8"?><svg version="1.1" id="Layer_1" xmlns="http://www.w3.org/2000/svg" xmlns:xlink="http://www.w3.org/1999/xlink" x="0px" y="0px" viewBox="0 0 122.88 94.08" style="enable-background:new 0 0 122.88 94.08" xml:space="preserve"><style type="text/css">.st0{fill-rule:evenodd;clip-rule:evenodd;}</style><g><path class="st0" d="M101.08,84.71V57.73H88.94c-5.15,0.92-10.29,3.71-15.44,6.95h-9.43c-4.27,0.26-6.5,4.58-2.36,7.42 c3.31,2.42,7.67,2.29,12.14,1.89c3.08-0.15,3.22,3.99,0,4.01c-1.12,0.09-2.33-0.18-3.39-0.18c-5.58-0.01-10.18-1.07-12.99-5.48 l-1.41-3.3l-14.02-6.95c-7.02-2.31-12,5.03-6.83,10.13c10.16,7.39,20.57,13.47,31.23,18.38c7.74,4.71,15.48,4.55,23.21,0 L101.08,84.71L101.08,84.71z M78.32,42.94c0.96,4.46,3.85,6.69,3.85,8.92c0,2.23-0.96,4.46-3.85,4.46c-2.88,0-3.85-2.23-3.85-4.46 C74.47,49.63,77.36,47.4,78.32,42.94L78.32,42.94z M76.21,22.32c0.96,4.84,3.85,7.26,3.85,9.68c0,2.42-0.96,4.84-3.85,4.84 s-3.85-2.42-3.85-4.84C72.37,29.58,75.25,27.16,76.21,22.32L76.21,22.32z M63.08,18.72L74.16,8.7l4.22,5.65L67.22,24.3L63.08,18.72 L63.08,18.72z M122.88,55.14h-18.15v32.29h18.15V55.14L122.88,55.14z M25.33,50.81l48.7-48.39c-3.36-2.97-9.3-3.14-13.99-0.87 L25.98,26.1h-3.94v-6.01H7.72v6.67c-9.92,4.06-10.67,21.37,0,26.05L25.33,50.81L25.33,50.81z M11.84,5.03h5.71 c2.89,0,5.26,2.37,5.26,5.26v7.29H6.52v-7.23C6.52,7.42,8.91,5.03,11.84,5.03L11.84,5.03z"/></g></svg>