<?xml version="1.0" encoding="utf-8"?><svg version="1.1" id="Layer_1" xmlns="http://www.w3.org/2000/svg" xmlns:xlink="http://www.w3.org/1999/xlink" x="0px" y="0px" viewBox="0 0 68.82 122.88" style="enable-background:new 0 0 68.82 122.88" xml:space="preserve"><style type="text/css">.st0{fill-rule:evenodd;clip-rule:evenodd;}</style><g><path class="st0" d="M38.01,73.01c4.74,0,8.59,3.85,8.59,8.59c0,4.74-3.85,8.59-8.59,8.59s-8.59-3.85-8.59-8.59 C29.42,76.85,33.27,73.01,38.01,73.01L38.01,73.01z M8.39,14.31c0.56,2.35,1.74,4.15,2.72,5.64c1.12,1.7,2.03,3.09,2.03,4.81 c0,1.8-0.5,3.64-1.77,5c-1.08,1.15-2.64,1.9-4.81,1.9c-2.16,0-3.72-0.75-4.8-1.9l0,0C0.5,28.41,0,26.57,0,24.76 c0-1.72,0.92-3.11,2.03-4.81c0.99-1.5,2.18-3.3,2.73-5.67c0.23-1,1.23-1.62,2.24-1.39C7.72,13.06,8.25,13.63,8.39,14.31L8.39,14.31 z M11.08,63.43h54.01v-8.9c0-2.39-0.98-4.56-2.55-6.13c-1.57-1.57-3.75-2.55-6.13-2.55H24.29c-0.06,0-0.11,0.01-0.17,0.01 c-0.06,0-0.11,0-0.17-0.01h-4.19c-2.39,0-4.56,0.98-6.13,2.55c-1.58,1.57-2.55,3.75-2.55,6.13V63.43L11.08,63.43z M65.09,67.16 H11.08v30.68h54.01V67.16L65.09,67.16z M65.09,101.57H11.08v8.9c0,2.39,0.98,4.56,2.55,6.13c1.58,1.58,3.75,2.55,6.13,2.55H56.4 c2.39,0,4.56-0.98,6.13-2.55c1.58-1.57,2.55-3.75,2.55-6.13V101.57L65.09,101.57z M19.77,42.11h2.49v-9.54 c0-0.69,0.28-1.31,0.73-1.76c0.45-0.45,1.07-0.73,1.76-0.73h2.21v-5.6c0-0.6,0.25-1.15,0.65-1.55l0,0l0,0l0.01-0.01l0.03-0.03l0,0 c0.4-0.38,0.94-0.61,1.52-0.61h1.41v-9.46H6.98c-1.43,0-1.8-0.74-2.19-1.53l0,0l-0.03-0.07c-0.01-0.03-0.03-0.06-0.04-0.09 L0.73,3.26C0.57,2.95,0.5,2.63,0.5,2.31c0-0.53,0.2-1.01,0.52-1.4c0.22-0.27,0.5-0.48,0.8-0.63C2.16,0.11,2.57,0,2.95,0h48.09 c0.67,0,1.28,0.27,1.71,0.71s0.71,1.05,0.71,1.71v7.96c0,0.66-0.27,1.27-0.71,1.71l0,0c-0.44,0.44-1.05,0.71-1.71,0.71h-5.82v9.46 h1.93c0.6,0,1.15,0.25,1.55,0.65l0,0l0,0l0.01,0.01l0.03,0.03l0,0c0.38,0.4,0.61,0.94,0.61,1.52v5.6h1.58 c0.69,0,1.31,0.28,1.76,0.73c0.45,0.45,0.73,1.07,0.73,1.76v9.54h2.97c3.42,0,6.52,1.4,8.77,3.65c2.25,2.25,3.65,5.35,3.65,8.77 v10.76V99.7v10.76c0,3.42-1.4,6.52-3.65,8.77c-2.25,2.25-5.35,3.65-8.77,3.65H19.77c-3.42,0-6.52-1.4-8.77-3.65 c-2.25-2.25-3.65-5.35-3.65-8.77V99.7V65.29V54.53c0-3.42,1.4-6.52,3.65-8.77C13.25,43.51,16.35,42.11,19.77,42.11L19.77,42.11z M25.98,42.11h23.73v-8.29h-1.8c-0.13,0.03-0.27,0.04-0.41,0.04c-0.14,0-0.27-0.02-0.41-0.04H25.98V42.11L25.98,42.11z M30.68,30.09h14.96v-4.08H32.69c-0.09,0.01-0.18,0.02-0.27,0.02c-0.09,0-0.18-0.01-0.27-0.02h-1.49V30.09L30.68,30.09z M34.29,22.28h7.2v-9.46h-7.2V22.28L34.29,22.28z M32.11,9.09c0.1-0.02,0.21-0.03,0.32-0.03h10.93c0.11,0,0.22,0.01,0.32,0.03h6.06 V3.73H5.14l2.71,5.36H32.11L32.11,9.09z M8.01,21.99c-0.46-0.7-0.96-1.46-1.44-2.31c-0.48,0.85-0.98,1.61-1.44,2.31 c-0.77,1.17-1.41,2.14-1.41,2.77c0,0.96,0.21,1.87,0.75,2.45l0,0l0,0c0.4,0.43,1.07,0.71,2.1,0.71c1.02,0,1.69-0.28,2.1-0.72 c0.54-0.57,0.75-1.49,0.75-2.45C9.42,24.13,8.79,23.17,8.01,21.99L8.01,21.99z"/></g></svg>