<?xml version="1.0" encoding="utf-8"?><svg version="1.1" id="Layer_1" xmlns="http://www.w3.org/2000/svg" xmlns:xlink="http://www.w3.org/1999/xlink" x="0px" y="0px" viewBox="0 0 99.43 122.88" style="enable-background:new 0 0 99.43 122.88" xml:space="preserve"><g><path d="M13.66,70.64h72.06c1.21,0,2.32,0.5,3.12,1.3l0,0l0,0l0,0c0.8,0.81,1.3,1.91,1.3,3.12v1.02C92,76.08,94,75.92,94.8,74.77 l0,0l0.01-0.01c0.36-0.52-0.2-1.36-1.01-2.18c-1.31-1.34-3.25-2.55-4.41-3.26c-0.08-0.05-0.16-0.11-0.24-0.17L49.63,37.38 L7.79,70.8c-0.05,0.04-0.11,0.08-0.17,0.12c-1.71,1.23-2.69,2.28-3.06,3.14c-0.12,0.26-0.15,0.45-0.1,0.57 c0.06,0.17,0.26,0.35,0.58,0.54c0.9,0.53,2.34,0.85,4.19,0.9v-1c0-1.22,0.5-2.33,1.3-3.13C11.34,71.14,12.44,70.64,13.66,70.64 L13.66,70.64z M90.15,80.53v37.93c0,1.21-0.5,2.32-1.3,3.12l0,0l0,0l0,0c-0.81,0.8-1.91,1.3-3.12,1.3H13.66 c-1.21,0-2.32-0.5-3.12-1.3l-0.01-0.01v0c-0.8-0.8-1.3-1.91-1.3-3.12V80.52c-2.65-0.07-4.87-0.61-6.43-1.53 c-1.21-0.71-2.06-1.65-2.5-2.8c-0.45-1.2-0.42-2.51,0.19-3.91c0.68-1.56,2.14-3.24,4.54-4.97l42.4-33.86v-7.73h0 c0-1.11,0.83-2.07,1.96-2.21c5.43-0.66,8.36-3.38,9.32-6.56c0.42-1.37,0.49-2.84,0.25-4.29c-0.24-1.45-0.79-2.86-1.61-4.09 c-1.93-2.89-5.39-4.79-9.85-3.92c-1.86,0.36-3.62,1.44-4.98,3.11c-1.33,1.64-2.29,3.84-2.63,6.52c-0.15,1.21-1.26,2.07-2.48,1.92 c-1.21-0.15-2.07-1.26-1.92-2.48c0.45-3.55,1.76-6.52,3.58-8.77c2.03-2.5,4.7-4.12,7.57-4.68c6.47-1.26,11.54,1.55,14.39,5.81 c1.18,1.76,1.96,3.77,2.3,5.85c0.34,2.08,0.23,4.24-0.39,6.28c-1.31,4.31-4.83,8.03-11.08,9.36v5.89l39.94,32.1 c1.35,0.82,3.52,2.2,5.16,3.88c2.19,2.25,3.42,4.95,1.48,7.79l0,0C96.43,80.23,93.06,80.52,90.15,80.53L90.15,80.53z M86.19,78.57 c-0.01-0.09-0.02-0.18-0.02-0.27c0-0.09,0.01-0.18,0.02-0.27v-2.96c0-0.13-0.05-0.25-0.13-0.33l0,0l-0.01-0.01 c-0.08-0.08-0.2-0.13-0.33-0.13H13.66c-0.13,0-0.25,0.05-0.33,0.14c-0.09,0.09-0.14,0.2-0.14,0.33v22.34h73V78.57L86.19,78.57z M13.19,108.45h73v-7.08h-73V108.45L13.19,108.45z M86.19,112.41h-73v6.05c0,0.13,0.05,0.25,0.14,0.34l0,0 c0.09,0.08,0.2,0.14,0.34,0.14h72.06c0.13,0,0.25-0.05,0.33-0.13l0,0l0.01-0.01c0.08-0.08,0.13-0.2,0.13-0.33V112.41L86.19,112.41z"/></g></svg>