<svg id="Layer_1" enable-background="new 0 0 512.025 512.025" height="512" viewBox="0 0 512.025 512.025" width="512" xmlns="http://www.w3.org/2000/svg"><g><path d="m488.014 198.416c0-29.894-20.21-56.01-49.145-63.508l-166.628-43.204c.746-4.185 3.356-7.993 7.305-10.496 13.568-8.599 21.378-23.911 20.382-39.96-2.291-36.9-46.894-54.808-74.043-29.289-8.815 8.285-13.871 19.972-13.871 32.066 0 8.836 7.164 16 16 16s16-7.164 16-16c0-3.347 1.345-6.454 3.786-8.748 7.505-7.055 19.579-1.876 20.19 7.953.277 4.468-1.806 8.561-5.572 10.948-13.286 8.419-21.488 22.278-22.321 37.445l-166.93 43.282c-13.997 3.621-26.579 11.917-35.423 23.353-30.67 39.6-7.095 97.778 42.27 105.057v232.71c0 8.836 7.164 16 16 16h256c8.837 0 16-7.164 16-16v-48h48c8.837 0 16-7.164 16-16v-168.697c30.998-4.522 56-31.273 56-64.912zm-152 281.609h-224v-32h192c8.837 0 16-7.164 16-16s-7.163-16-16-16h-192v-200c0-8.822 7.178-16 16-16h210.742c-3.845 10.846-2.742-10.017-2.742 280zm64-264v16h-32v-16c0-8.822 7.178-16 16-16s16 7.178 16 16zm-32 200v-152h32v152zm78.155-193.843c-4.012 4.013-8.863 6.882-14.155 8.453v-14.609c0-26.467-21.532-48-48-48h-256c-26.467 0-48 21.533-48 48v14.593c-22.538-6.738-31.423-34.107-16.963-52.775 4.597-5.943 10.866-10.078 18.139-11.96l174.824-45.329 174.826 45.33c25.182 6.524 33.651 37.977 15.329 56.297z"/></g></svg>