<svg xmlns="http://www.w3.org/2000/svg" xmlns:xlink="http://www.w3.org/1999/xlink" width="128" height="128" viewBox="0 0 128 128"><path d="M16 42C7.7 42 1 48.7 1 57C1 60.4 2.1 63.5 4 66L3 66C1.3 66 0 67.3 0 69C0 70.7 1.3 72 3 72L3.6992188 72L9.3007812 94.599609C11.600781 103.89961 19.400781 110.70078 28.800781 111.80078L28.199219 121L19 121C17.3 121 16 122.3 16 124C16 125.7 17.3 127 19 127L124 127C125.7 127 127 125.7 127 124C127 122.3 125.7 121 124 121L99.599609 121L99 111.80078C108.4 110.70078 116.39922 103.9 118.69922 94.5L124.40039 71.900391C125.90039 71.700391 127 70.500391 127 68.900391C127 67.200391 125.7 65.900391 124 65.900391L107 65.900391L107 62.900391C107 61.200391 105.7 59.900391 104 59.900391L67 59.900391C65.3 59.900391 64 61.200391 64 62.900391L64 85.900391C64 87.600391 65.3 88.900391 67 88.900391L104 88.900391C105.7 88.900391 107 87.600391 107 85.900391L107 72L118.19922 72L112.90039 93.099609C111.00039 100.69961 104.20039 106 96.400391 106L31.599609 106C23.799609 106 16.999609 100.69961 15.099609 93.099609L9.8007812 72L55 72C56.7 72 58 70.7 58 69C58 67.3 56.7 66 55 66L28 66C29.9 63.5 31 60.4 31 57C31 48.7 24.3 42 16 42 z M 16 48C21 48 25 52 25 57C25 62 21 66 16 66C11 66 7 62 7 57C7 52 11 48 16 48 z M 34.800781 112L93 112L93.599609 121L34.199219 121L34.800781 112 z M 4 121 A 3 3 0 0 0 1 124 A 3 3 0 0 0 4 127 A 3 3 0 0 0 7 124 A 3 3 0 0 0 4 121 z"/></svg>