<svg xmlns="http://www.w3.org/2000/svg" xmlns:xlink="http://www.w3.org/1999/xlink" viewBox="0 0 48 48"><path d="M24 2C15.716 2 9 8.716 9 17C9 18.027339 9.10402 19.03071 9.3007812 20L7.2148438 20C7.1189506 19.465137 7.0481694 18.921862 7.0039062 18.371094C6.9419062 17.596094 6.2917188 17 5.5117188 17C4.6297188 17 3.9338594 17.755813 4.0058594 18.632812C4.8016106 28.405513 12.679697 36.198346 22.5 36.927734L22.5 43L15.5 43 A 1.50015 1.50015 0 1 0 15.5 46L32.5 46 A 1.50015 1.50015 0 1 0 32.5 43L25.5 43L25.5 36.927734C35.320303 36.198346 43.198389 28.405513 43.994141 18.632812C44.065141 17.755812 43.370281 17 42.488281 17C41.708281 17 41.059094 17.596094 40.996094 18.371094C40.951831 18.921862 40.881049 19.465137 40.785156 20L38.699219 20C38.89598 19.03071 39 18.027339 39 17C39 8.716 32.284 2 24 2 z M 24 5C30.617 5 36 10.383 36 17C36 23.617 30.617 29 24 29C17.383 29 12 23.617 12 17C12 10.383 17.383 5 24 5 z M 8.046875 23L10.257812 23C12.573569 28.295285 17.85098 32 24 32C30.14902 32 35.426431 28.295285 37.742188 23L39.953125 23C37.515266 29.421198 31.284855 34 24 34C16.715145 34 10.484734 29.421198 8.046875 23 z"/></svg>