<svg xmlns="http://www.w3.org/2000/svg" xmlns:xlink="http://www.w3.org/1999/xlink" viewBox="0 0 80 80"><path d="M33.597656 6.0058594C32.503474 6.0058725 31.410699 6.4206828 30.582031 7.25L17.408203 20.421875C15.751168 22.08021 15.751168 24.798697 17.408203 26.457031L25.785156 34.833984C22.951152 37.743264 21.705396 41.605079 21.974609 45.376953L19.140625 48.210938C17.920651 49.430911 17.440952 51.108865 17.666016 52.703125L9.2929688 61.076172 A 1.0001 1.0001 0 1 0 10.707031 62.490234L18.414062 54.785156C18.618869 55.109535 18.858588 55.417182 19.140625 55.699219L24.300781 60.859375C24.582818 61.141412 24.890465 61.381131 25.214844 61.585938L17.509766 69.292969 A 1.0001 1.0001 0 1 0 18.923828 70.707031L27.296875 62.333984C28.891135 62.559048 30.569089 62.079349 31.789062 60.859375L34.623047 58.025391C38.394766 58.293673 42.256728 57.047868 45.166016 54.214844L53.542969 62.591797C55.200754 64.249583 57.918725 64.249234 59.576172 62.591797L72.75 49.419922C74.408185 47.761737 74.408634 45.0421 72.75 43.384766L36.615234 7.25C35.786142 6.4209075 34.691839 6.0058463 33.597656 6.0058594 z M 33.599609 7.9941406C34.177677 7.9941537 34.754264 8.217155 35.201172 8.6640625L37.042969 10.503906L20.664062 26.882812L18.822266 25.042969C17.929301 24.149303 17.929301 22.729602 18.822266 21.835938L31.996094 8.6640625C32.442426 8.2173797 33.021542 7.9941275 33.599609 7.9941406 z M 38.457031 11.917969L68.082031 41.542969L65.199219 44.425781L63.066406 42.292969L62.992188 42.367188L62.705078 42.0625L62.359375 42L61.558594 42.402344L61.400391 43.283203L61.726562 43.632812L61.652344 43.707031L63.785156 45.839844L60.904297 48.720703L58.707031 46.523438L58.632812 46.597656L58.347656 46.292969L58 46.230469L57.199219 46.632812L57.041016 47.513672L57.367188 47.863281L57.292969 47.9375L59.490234 50.134766L56.609375 53.015625L54.707031 51.115234L54.632812 51.189453L54.347656 50.884766L54 50.822266L53.199219 51.222656L53.041016 52.105469L53.367188 52.455078L53.292969 52.529297L55.195312 54.429688L51.703125 57.921875L46.128906 52.347656L46.128906 52.337891L27.662109 33.871094L27.652344 33.871094L22.078125 28.296875L25.568359 24.806641L27.732422 26.970703 A 1.0001 1.0001 0 1 0 29.146484 25.556641L26.982422 23.392578L29.865234 20.509766 A 1.0001 1.0001 0 0 0 29.921875 20.568359C30.585236 21.224717 31.249471 21.879514 31.912109 22.535156 A 1.0001 1.0001 0 1 0 33.318359 21.113281C32.654998 20.456924 31.992717 19.802127 31.330078 19.146484 A 1.0001 1.0001 0 0 0 31.277344 19.097656L34.160156 16.214844L36.160156 18.214844 A 1.0001 1.0001 0 1 0 37.574219 16.800781L35.574219 14.800781L38.457031 11.917969 z M 39.732422 19.373047L38.929688 19.773438L38.773438 20.65625L39.384766 21.310547L39.732422 21.373047L40.533203 20.970703L40.691406 20.089844L40.078125 19.435547L39.732422 19.373047 z M 42.560547 22.201172L41.759766 22.601562L41.601562 23.484375L42.212891 24.138672L42.560547 24.201172L43.361328 23.798828L43.519531 22.917969L42.90625 22.263672L42.560547 22.201172 z M 35.373047 23.603516L34.572266 24.005859L34.414062 24.886719L35.025391 25.541016L35.373047 25.603516L36.173828 25.201172L36.332031 24.320312L35.71875 23.666016L35.373047 23.603516 z M 45.388672 25.029297L44.587891 25.431641L44.429688 26.3125L45.041016 26.966797L45.388672 27.029297L46.189453 26.628906L46.347656 25.746094L45.736328 25.091797L45.388672 25.029297 z M 38.201172 26.431641L37.400391 26.833984L37.242188 27.714844L37.853516 28.369141L38.201172 28.431641L39.001953 28.03125L39.160156 27.148438L38.548828 26.494141L38.201172 26.431641 z M 48.216797 27.857422L47.416016 28.259766L47.257812 29.140625L47.869141 29.794922L48.216797 29.857422L49.017578 29.457031L49.175781 28.574219L48.564453 27.919922L48.216797 27.857422 z M 31.373047 28.195312L30.572266 28.595703L30.414062 29.478516L31.025391 30.132812L31.373047 30.195312L32.173828 29.792969L32.332031 28.912109L31.71875 28.255859L31.373047 28.195312 z M 41.029297 29.259766L40.228516 29.662109L40.070312 30.542969L40.681641 31.199219L41.029297 31.259766L41.830078 30.859375L41.988281 29.976562L41.376953 29.322266L41.029297 29.259766 z M 51.044922 30.685547L50.244141 31.087891L50.085938 31.970703L50.699219 32.625L51.044922 32.685547L51.845703 32.285156L52.003906 31.402344L51.392578 30.748047L51.044922 30.685547 z M 34.201172 31.023438L33.400391 31.423828L33.242188 32.306641L33.853516 32.960938L34.201172 33.023438L35.001953 32.621094L35.160156 31.740234L34.548828 31.085938L34.201172 31.023438 z M 43.857422 32.087891L43.056641 32.490234L42.898438 33.373047L43.511719 34.027344L43.857422 34.087891L44.658203 33.6875L44.816406 32.804688L44.205078 32.150391L43.857422 32.087891 z M 53.873047 33.515625L53.072266 33.916016L52.914062 34.798828L53.527344 35.453125L53.873047 35.515625L54.673828 35.113281L54.832031 34.230469L54.220703 33.576172L53.873047 33.515625 z M 37.029297 33.851562L36.228516 34.251953L36.070312 35.134766L36.681641 35.789062L37.029297 35.851562L37.830078 35.449219L37.988281 34.568359L37.376953 33.914062L37.029297 33.851562 z M 46.685547 34.917969L45.884766 35.318359L45.726562 36.201172L46.339844 36.855469L46.685547 36.917969L47.488281 36.515625L47.644531 35.634766L47.033203 34.978516L46.685547 34.917969 z M 27.205078 36.253906L43.746094 52.794922C41.139714 55.322323 37.670913 56.406235 34.3125 56.037109L33.835938 55.984375L30.375 59.445312C29.570504 60.249809 28.469563 60.553611 27.439453 60.359375 A 1.0001 1.0001 0 0 0 27.050781 60.246094C26.564947 60.090529 26.103485 59.833954 25.714844 59.445312L20.554688 54.285156C20.168088 53.898557 19.911825 53.440022 19.755859 52.957031 A 1.0001 1.0001 0 0 0 19.640625 52.558594C19.44713 51.529035 19.750691 50.428996 20.554688 49.625L23.361328 46.818359L23.800781 46.597656L23.849609 46.330078L24.015625 46.164062L23.962891 45.6875C23.592874 42.329241 24.676796 38.860282 27.205078 36.253906 z M 56.701172 36.34375L55.900391 36.744141L55.742188 37.626953L56.355469 38.28125L56.701172 38.34375L57.503906 37.941406L57.662109 37.060547L57.048828 36.404297L56.701172 36.34375 z M 39.857422 36.679688L39.056641 37.082031L38.898438 37.962891L39.511719 38.617188L39.857422 38.679688L40.658203 38.279297L40.816406 37.396484L40.205078 36.742188L39.857422 36.679688 z M 49.515625 37.746094L48.712891 38.146484L48.556641 39.029297L49.167969 39.683594L49.515625 39.746094L50.316406 39.34375L50.474609 38.462891L49.861328 37.808594L49.515625 37.746094 z M 59.53125 39.171875L58.730469 39.572266L58.572266 40.455078L59.183594 41.109375L59.53125 41.171875L60.332031 40.769531L60.490234 39.888672L59.876953 39.234375L59.53125 39.171875 z M 42.685547 39.507812L41.884766 39.910156L41.726562 40.791016L42.339844 41.445312L42.685547 41.507812L43.488281 41.107422L43.644531 40.224609L43.033203 39.570312L42.685547 39.507812 z M 52.34375 40.574219L51.542969 40.974609L51.384766 41.857422L51.996094 42.511719L52.34375 42.574219L53.144531 42.171875L53.302734 41.291016L52.689453 40.636719L52.34375 40.574219 z M 45.515625 42.335938L44.712891 42.738281L44.556641 43.621094L45.167969 44.275391L45.515625 44.335938L46.316406 43.935547L46.474609 43.052734L45.861328 42.398438L45.515625 42.335938 z M 69.496094 42.957031L71.335938 44.798828C72.229303 45.691494 72.229753 47.112044 71.335938 48.005859L58.162109 61.177734C57.269444 62.0711 55.850846 62.071549 54.957031 61.177734L53.117188 59.335938L69.496094 42.957031 z M 55.171875 43.402344L54.371094 43.804688L54.212891 44.685547L54.824219 45.339844L55.171875 45.402344L55.972656 45.001953L56.130859 44.119141L55.517578 43.464844L55.171875 43.402344 z M 48.34375 45.166016L47.542969 45.566406L47.384766 46.449219L47.996094 47.103516L48.34375 47.166016L49.144531 46.763672L49.302734 45.880859L48.689453 45.226562L48.34375 45.166016 z M 25.828125 47.828125L25.027344 48.230469L24.869141 49.111328L25.482422 49.765625L25.828125 49.828125L26.628906 49.427734L26.787109 48.544922L26.175781 47.890625L25.828125 47.828125 z M 51.171875 47.994141L50.371094 48.394531L50.212891 49.277344L50.824219 49.931641L51.171875 49.994141L51.972656 49.591797L52.130859 48.710938L51.517578 48.056641L51.171875 47.994141 z M 28.65625 50.65625L27.855469 51.058594L27.697266 51.939453L28.310547 52.595703L28.65625 52.65625L29.457031 52.255859L29.615234 51.373047L29.003906 50.71875L28.65625 50.65625 z M 31.484375 53.484375L30.683594 53.886719L30.525391 54.769531L31.138672 55.423828L31.484375 55.484375L32.287109 55.083984L32.443359 54.201172L31.832031 53.546875L31.484375 53.484375 z"/></svg>