<svg xmlns="http://www.w3.org/2000/svg" xmlns:xlink="http://www.w3.org/1999/xlink" viewBox="0 0 50 50"><path d="M19.46875 2C18.625 2 17.792969 2.332031 17.15625 2.96875L7.96875 12.15625C6.695313 13.429688 6.695313 15.539063 7.96875 16.8125L13.59375 22.4375C11.78125 24.414063 10.867188 27.035156 11.03125 29.71875L9.1875 31.5625C8.429688 32.320313 8 33.339844 8 34.40625C8 35.472656 8.429688 36.464844 9.1875 37.21875L12.78125 40.8125C13.535156 41.570313 14.523438 42 15.59375 42C16.664063 42 17.683594 41.570313 18.4375 40.8125L20.28125 38.96875C22.957031 39.136719 25.554688 38.1875 27.53125 36.375L33.1875 42.03125C34.460938 43.304688 36.570313 43.304688 37.84375 42.03125L47.03125 32.84375C48.304688 31.570313 48.304688 29.460938 47.03125 28.1875L21.8125 2.96875C21.175781 2.332031 20.3125 2 19.46875 2 Z M 22.875 6.875L43.125 27.125L41.5625 28.6875L21.3125 8.4375 Z M 19.875 9.875L40.125 30.125L38.5625 31.6875L18.3125 11.4375 Z M 16.875 12.875L37.125 33.125L35.5625 34.6875L15.3125 14.4375 Z M 13.875 15.875L34.125 36.125L32.125 38.125L11.875 17.875 Z M 6.375 36.46875L2.28125 40.5625C2.09375 40.75 2 40.984375 2 41.25C2 41.515625 2.09375 41.78125 2.28125 41.96875L8.03125 47.71875C8.226563 47.914063 8.492188 48 8.75 48C9.007813 48 9.242188 47.914063 9.4375 47.71875L13.53125 43.625C12.726563 43.328125 12 42.875 11.375 42.25L7.75 38.625C7.125 38.003906 6.671875 37.273438 6.375 36.46875Z"/></svg>