<svg xmlns="http://www.w3.org/2000/svg" xmlns:xlink="http://www.w3.org/1999/xlink" viewBox="0 0 50 50"><path d="M28 2C20.5625 2 16 7.105469 16 13C15.476563 13 14.941406 13.183594 14.5625 13.5625C14.183594 13.941406 14 14.476563 14 15L14 45C14 46.765625 15.644531 48 17.40625 48L32.59375 48C34.355469 48 36 46.765625 36 45L36 15C36 13.84375 35.035156 13 34 13C34 10.636719 32.324219 9.082031 30.84375 8.21875C29.867188 7.648438 29.449219 7.597656 28.90625 7.4375C28.945313 7.394531 28.949219 7.289063 29 7.25C29.191406 7.101563 29.539063 7 29.90625 7L31.8125 7C32.078125 7 32.335938 6.941406 32.625 6.75C32.835938 6.609375 32.933594 6.273438 33.03125 5.96875L33.15625 6L33.75 4L33.75 3.96875L33.78125 3.9375C33.882813 3.527344 33.851563 3.035156 33.5625 2.625C33.273438 2.214844 32.761719 2 32.3125 2 Z M 28 4L31.65625 4L31.375 5L29.90625 5C29.175781 5 28.414063 5.1875 27.78125 5.6875C27.148438 6.1875 26.6875 7.039063 26.6875 8L26.6875 8.8125L27.46875 8.96875C27.46875 8.96875 28.671875 9.253906 29.84375 9.9375C31.015625 10.621094 32 11.566406 32 13L18 13C18 8.09375 21.4375 4 28 4 Z M 16 15L34 15L34 45C34 45.433594 33.433594 46 32.59375 46L17.40625 46C16.566406 46 16 45.433594 16 45Z"/></svg>