<svg xmlns="http://www.w3.org/2000/svg" xmlns:xlink="http://www.w3.org/1999/xlink" viewBox="0 0 50 50"><path d="M29 2C21.5625 2 17 7.105469 17 13C15.898438 13 15 13.898438 15 15L15 44.90625C15 46.605469 16.507813 48 18.40625 48L33.6875 48C35.488281 48 37.09375 46.605469 37.09375 44.90625L37.09375 15C36.992188 13.898438 36.101563 13 35 13C35 10.636719 33.324219 9.082031 31.84375 8.21875C30.867188 7.648438 30.449219 7.597656 29.90625 7.4375C29.945313 7.394531 29.949219 7.289063 30 7.25C30.191406 7.101563 30.539063 7 30.90625 7L32.8125 7C33.078125 7 33.335938 6.941406 33.625 6.75C33.835938 6.609375 33.933594 6.273438 34.03125 5.96875L34.15625 6L34.75 4L34.75 3.96875L34.78125 3.9375C35.023438 2.96875 34.277344 2 33.3125 2 Z M 29 4L32.65625 4L32.375 5L30.90625 5C30.175781 5 29.414063 5.1875 28.78125 5.6875C28.148438 6.1875 27.6875 7.039063 27.6875 8L27.6875 8.8125L28.46875 8.96875C28.46875 8.96875 29.671875 9.253906 30.84375 9.9375C32.015625 10.621094 33 11.566406 33 13L19 13C19 8.09375 22.4375 4 29 4Z"/></svg>