<svg xmlns="http://www.w3.org/2000/svg" xmlns:xlink="http://www.w3.org/1999/xlink" viewBox="0 0 50 50"><path d="M22 0L22 7.28125C22.972656 7.109375 23.972656 7 25 7C26.027344 7 27.027344 7.109375 28 7.28125L28 0 Z M 25 9C18.394531 9 12.871094 13.273438 11.40625 19L38.59375 19C37.128906 13.273438 31.605469 9 25 9 Z M 10 21C8.347656 21 7 22.347656 7 24C7 25.652344 8.347656 27 10 27L40 27C41.652344 27 43 25.652344 43 24C43 22.347656 41.652344 21 40 21 Z M 17 30C15.894531 30 15 30.894531 15 32C15 33.105469 15.894531 34 17 34C18.105469 34 19 33.105469 19 32C19 30.894531 18.105469 30 17 30 Z M 25 30C23.894531 30 23 30.894531 23 32C23 33.105469 23.894531 34 25 34C26.105469 34 27 33.105469 27 32C27 30.894531 26.105469 30 25 30 Z M 33 30C31.894531 30 31 30.894531 31 32C31 33.105469 31.894531 34 33 34C34.105469 34 35 33.105469 35 32C35 30.894531 34.105469 30 33 30 Z M 13 38C11.894531 38 11 38.894531 11 40C11 41.105469 11.894531 42 13 42C14.105469 42 15 41.105469 15 40C15 38.894531 14.105469 38 13 38 Z M 21 38C19.894531 38 19 38.894531 19 40C19 41.105469 19.894531 42 21 42C22.105469 42 23 41.105469 23 40C23 38.894531 22.105469 38 21 38 Z M 29 38C27.894531 38 27 38.894531 27 40C27 41.105469 27.894531 42 29 42C30.105469 42 31 41.105469 31 40C31 38.894531 30.105469 38 29 38 Z M 37 38C35.894531 38 35 38.894531 35 40C35 41.105469 35.894531 42 37 42C38.105469 42 39 41.105469 39 40C39 38.894531 38.105469 38 37 38 Z M 9 46C7.894531 46 7 46.894531 7 48C7 49.105469 7.894531 50 9 50C10.105469 50 11 49.105469 11 48C11 46.894531 10.105469 46 9 46 Z M 17 46C15.894531 46 15 46.894531 15 48C15 49.105469 15.894531 50 17 50C18.105469 50 19 49.105469 19 48C19 46.894531 18.105469 46 17 46 Z M 25 46C23.894531 46 23 46.894531 23 48C23 49.105469 23.894531 50 25 50C26.105469 50 27 49.105469 27 48C27 46.894531 26.105469 46 25 46 Z M 33 46C31.894531 46 31 46.894531 31 48C31 49.105469 31.894531 50 33 50C34.105469 50 35 49.105469 35 48C35 46.894531 34.105469 46 33 46 Z M 41 46C39.894531 46 39 46.894531 39 48C39 49.105469 39.894531 50 41 50C42.105469 50 43 49.105469 43 48C43 46.894531 42.105469 46 41 46Z"/></svg>