<svg xmlns="http://www.w3.org/2000/svg" xmlns:xlink="http://www.w3.org/1999/xlink" viewBox="0 0 50 50"><path d="M22 0L22 9.3125C16.074219 10.515625 11.503906 15.203125 11.03125 21L10 21C9.96875 21 9.9375 21 9.90625 21C9.84375 21.003906 9.78125 21.015625 9.71875 21.03125C8.207031 21.179688 7 22.453125 7 24C7 25.492188 8.125 26.71875 9.5625 26.9375C9.59375 26.941406 9.625 26.964844 9.65625 26.96875C9.71875 26.984375 9.78125 26.996094 9.84375 27C9.898438 27.003906 9.945313 27 10 27L40 27C40.03125 27 40.0625 27 40.09375 27C40.105469 27 40.113281 27 40.125 27C40.179688 26.996094 40.226563 26.972656 40.28125 26.96875C41.792969 26.820313 43 25.546875 43 24C43 22.453125 41.792969 21.179688 40.28125 21.03125C40.207031 21.023438 40.136719 21 40.0625 21C40.042969 21 40.019531 21 40 21L38.96875 21C38.496094 15.203125 33.925781 10.515625 28 9.3125L28 0L26 0L26 9.03125C25.664063 9.007813 25.339844 9 25 9C24.660156 9 24.335938 9.007813 24 9.03125L24 0 Z M 25 11C31.308594 11 36.390625 15.417969 36.9375 21L13.0625 21C13.609375 15.417969 18.691406 11 25 11 Z M 9.96875 23C9.980469 23 9.988281 23 10 23L40 23C40.03125 23 40.0625 23 40.09375 23C40.613281 23.046875 41 23.46875 41 24C41 24.542969 40.597656 24.96875 40.0625 25C40.042969 25 40.019531 25 40 25L10 25C9.96875 25 9.9375 25.003906 9.90625 25C9.386719 24.953125 9 24.53125 9 24C9 23.445313 9.417969 23.015625 9.96875 23 Z M 17 30C15.894531 30 15 30.894531 15 32C15 33.105469 15.894531 34 17 34C18.105469 34 19 33.105469 19 32C19 30.894531 18.105469 30 17 30 Z M 25 30C23.894531 30 23 30.894531 23 32C23 33.105469 23.894531 34 25 34C26.105469 34 27 33.105469 27 32C27 30.894531 26.105469 30 25 30 Z M 33 30C31.894531 30 31 30.894531 31 32C31 33.105469 31.894531 34 33 34C34.105469 34 35 33.105469 35 32C35 30.894531 34.105469 30 33 30 Z M 13 38C11.894531 38 11 38.894531 11 40C11 41.105469 11.894531 42 13 42C14.105469 42 15 41.105469 15 40C15 38.894531 14.105469 38 13 38 Z M 21 38C19.894531 38 19 38.894531 19 40C19 41.105469 19.894531 42 21 42C22.105469 42 23 41.105469 23 40C23 38.894531 22.105469 38 21 38 Z M 29 38C27.894531 38 27 38.894531 27 40C27 41.105469 27.894531 42 29 42C30.105469 42 31 41.105469 31 40C31 38.894531 30.105469 38 29 38 Z M 37 38C35.894531 38 35 38.894531 35 40C35 41.105469 35.894531 42 37 42C38.105469 42 39 41.105469 39 40C39 38.894531 38.105469 38 37 38 Z M 9 46C7.894531 46 7 46.894531 7 48C7 49.105469 7.894531 50 9 50C10.105469 50 11 49.105469 11 48C11 46.894531 10.105469 46 9 46 Z M 17 46C15.894531 46 15 46.894531 15 48C15 49.105469 15.894531 50 17 50C18.105469 50 19 49.105469 19 48C19 46.894531 18.105469 46 17 46 Z M 25 46C23.894531 46 23 46.894531 23 48C23 49.105469 23.894531 50 25 50C26.105469 50 27 49.105469 27 48C27 46.894531 26.105469 46 25 46 Z M 33 46C31.894531 46 31 46.894531 31 48C31 49.105469 31.894531 50 33 50C34.105469 50 35 49.105469 35 48C35 46.894531 34.105469 46 33 46 Z M 41 46C39.894531 46 39 46.894531 39 48C39 49.105469 39.894531 50 41 50C42.105469 50 43 49.105469 43 48C43 46.894531 42.105469 46 41 46Z"/></svg>