<?xml version="1.0" encoding="utf-8"?><svg version="1.1" id="Layer_1" xmlns="http://www.w3.org/2000/svg" xmlns:xlink="http://www.w3.org/1999/xlink" x="0px" y="0px" viewBox="0 0 122.88 89.87" style="enable-background:new 0 0 122.88 89.87" xml:space="preserve"><g><path d="M3.03,37.12v49.71h11.9V37.48c0-0.15,0.02-0.3,0.06-0.43c1.96-9.5,5.74-15.58,10.9-19.06c5.2-3.51,11.72-4.31,19.13-3.24 c0.83,0.12,1.4,0.88,1.29,1.71c-0.03,0.2-0.09,0.38-0.18,0.54l0,0c-3.01,5.25-4.32,10.53-3.82,15.83 c0.51,5.34,2.86,10.76,7.16,16.28c0.4,0.51,0.42,1.19,0.11,1.71l0,0c-0.41,0.69-0.6,1.38-0.58,2.09c0.03,0.72,0.27,1.49,0.74,2.32 l2.69,3.08c0.27,0.26,0.53,0.4,0.79,0.4c0.37-0.01,0.84-0.23,1.43-0.7L97.6,14.6c0.28-0.34,0.4-0.59,0.38-0.76 c-0.03-0.2-0.23-0.45-0.6-0.75c-0.08-0.07-0.16-0.14-0.22-0.22l0,0l-0.21-0.26c-0.02-0.03-0.04-0.06-0.06-0.08 c-2.33-2.85-2.77-3.33-7.17-2.6C89.3,10,88.9,9.89,88.58,9.67c-5.81-3.78-11.46-6-16.93-6.52c-5.42-0.52-10.72,0.64-15.87,3.59 c-0.45,0.26-0.98,0.26-1.42,0.05c-4.53-1.85-8.93-2.98-13.14-3.44c-7.97-0.87-15.22,0.65-21.21,4.21 c-5.99,3.56-10.76,9.17-13.76,16.47c-1.58,3.85-2.67,8.18-3.19,12.93C3.05,37.01,3.05,37.06,3.03,37.12L3.03,37.12z M80.9,48.34 l0.15-0.23c0.79-1.13,2.38-1.4,3.51-0.6l15.01,10.48c1.13,0.79,1.4,2.38,0.6,3.51l-0.15,0.23c-0.79,1.13-2.38,1.4-3.51,0.6 L81.5,51.84C80.37,51.05,80.11,49.47,80.9,48.34L80.9,48.34z M67.59,58.41l0.15-0.23c0.79-1.13,2.38-1.4,3.51-0.6l15.01,10.48 c1.13,0.79,1.4,2.38,0.6,3.51l-0.15,0.23c-0.79,1.13-2.38,1.4-3.51,0.6L68.19,61.91C67.06,61.12,66.8,59.54,67.59,58.41 L67.59,58.41z M91.99,37.48l0.15-0.23c0.79-1.13,2.38-1.4,3.51-0.6l15.01,10.48c1.13,0.79,1.4,2.38,0.6,3.51l-0.15,0.23 c-0.79,1.13-2.38,1.4-3.51,0.6L92.59,40.98C91.46,40.19,91.2,38.61,91.99,37.48L91.99,37.48z M103.15,26.27l0.15-0.23 c0.79-1.13,2.38-1.4,3.51-0.6l15.01,10.48c1.13,0.79,1.4,2.38,0.6,3.51l-0.15,0.23c-0.79,1.13-2.38,1.4-3.51,0.6l-15.01-10.48 C102.62,28.99,102.36,27.41,103.15,26.27L103.15,26.27z M0,88.35V36.83h0c0-0.17,0.03-0.34,0.08-0.5 c0.57-4.92,1.72-9.43,3.37-13.47c3.25-7.93,8.45-14.03,15.01-17.93c6.55-3.89,14.44-5.56,23.08-4.62c4.3,0.47,8.78,1.59,13.38,3.42 c5.51-3,11.18-4.17,17.01-3.61c5.84,0.56,11.79,2.84,17.86,6.72c5.59-0.88,6.25-0.12,9.43,3.76c0.02,0.03,0.05,0.05,0.07,0.08 l0.13,0.15c0.9,0.77,1.44,1.63,1.56,2.6c0.14,1.05-0.21,2.09-1.08,3.13l0,0c-0.03,0.03-0.06,0.06-0.09,0.1L56.74,60.19l0,0 c-0.04,0.04-0.08,0.07-0.12,0.11c-1.18,0.96-2.29,1.41-3.35,1.43c-1.16,0.02-2.16-0.45-3.02-1.31l0,0 c-0.02-0.02-0.04-0.05-0.07-0.07l-2.83-3.24l0,0c-0.06-0.07-0.12-0.15-0.17-0.23c-0.77-1.31-1.18-2.6-1.23-3.86 c-0.04-0.97,0.14-1.91,0.52-2.81c-4.3-5.73-6.66-11.42-7.2-17.09c-0.5-5.27,0.57-10.48,3.13-15.63c-5.78-0.53-10.82,0.3-14.84,3.01 c-4.5,3.04-7.83,8.49-9.62,17.11v50.74c0,0.84-0.68,1.52-1.52,1.52H1.52C0.68,89.87,0,89.19,0,88.35L0,88.35z"/></g></svg>