<?xml version="1.0" encoding="utf-8"?><svg version="1.1" id="Layer_1" xmlns="http://www.w3.org/2000/svg" xmlns:xlink="http://www.w3.org/1999/xlink" x="0px" y="0px" viewBox="0 0 106.46 122.88" style="enable-background:new 0 0 106.46 122.88" xml:space="preserve"><style type="text/css">.st0{fill-rule:evenodd;clip-rule:evenodd;}</style><g><path class="st0" d="M102.6,38.82c0,0.18,0.01,0.36,0.01,0.54c0,16.01-16.5,29.4-38.58,32.76l3.36,50.76H38.99l2.88-50.84 C20.04,68.57,3.77,55.26,3.77,39.36c0-0.18,0.01-0.36,0.01-0.54H102.6L102.6,38.82z M60.56,8.34l0.37,15.9H45.95V8.59 c-2.34-3.22-6.45-4.31-11.57-4.36C33.86,2.47,34.13,1,35.73,0.02C45.42-0.28,53.39,3.56,60.56,8.34L60.56,8.34z M2.89,28.55h100.68 c1.59,0,2.89,1.3,2.89,2.89v0c0,1.59-1.3,2.89-2.89,2.89H2.89C1.3,34.33,0,33.03,0,31.44v0C0,29.85,1.3,28.55,2.89,28.55 L2.89,28.55z"/></g></svg>