<svg xmlns="http://www.w3.org/2000/svg" xmlns:xlink="http://www.w3.org/1999/xlink" viewBox="0 0 50 50"><path d="M6.78125 3C6.589844 3.011719 6.40625 3.046875 6.21875 3.09375C5.488281 3.285156 4.855469 3.75 4.4375 4.4375L4.40625 4.4375C4.386719 4.46875 4.375 4.496094 4.375 4.5L3.375 6.25C2.5625 7.660156 3.074219 9.480469 4.46875 10.3125L4.46875 10.34375C4.476563 10.347656 4.492188 10.339844 4.5 10.34375L21.90625 20.21875C23.25 20.984375 24.90625 20.492188 25.78125 19.25L25.84375 19.3125C25.84375 19.3125 25.894531 19.269531 25.9375 19.21875L25.96875 19.15625C25.96875 19.15625 25.988281 19.117188 26 19.09375L26.03125 19.0625C28.738281 20.300781 31.402344 21.640625 34 23.09375L4.375 38.46875C3.292969 39.050781 2.492188 40.035156 2.15625 41.21875C1.484375 43.53125 2.8125 45.953125 5.125 46.625C5.167969 46.636719 5.238281 46.644531 5.28125 46.65625C6.464844 46.96875 7.703125 46.789063 8.75 46.15625L42.375 26.71875C42.945313 26.375 43.40625 25.902344 43.71875 25.3125C44.296875 24.246094 44.285156 22.929688 43.6875 21.875C42.714844 20.21875 40.605469 19.648438 38.90625 20.53125C37.703125 19.4375 36.457031 18.378906 35.15625 17.40625C33.300781 16.011719 30.929688 14.988281 28.8125 14.15625C26.695313 13.324219 24.769531 12.648438 24.125 12.28125L8.5 3.40625C7.96875 3.09375 7.359375 2.964844 6.78125 3 Z M 6.75 5C6.996094 4.9375 7.257813 4.984375 7.5 5.125L23.125 14.03125C24.21875 14.652344 26.039063 15.191406 28.09375 16C30.148438 16.808594 32.394531 17.816406 33.96875 19C34.980469 19.757813 35.925781 20.605469 36.875 21.4375L35.96875 21.9375C32.738281 20.070313 29.433594 18.335938 26.03125 16.8125L25.1875 16.46875L24.75 17.25L24.34375 17.96875L24.3125 18L24.28125 18.09375L24.25 18.125C23.96875 18.617188 23.398438 18.78125 22.90625 18.5L5.5 8.625L5.5 8.59375L5.46875 8.59375C4.980469 8.3125 4.84375 7.738281 5.125 7.25L6.09375 5.53125C6.128906 5.472656 6.152344 5.457031 6.125 5.5L6.125 5.46875C6.265625 5.226563 6.503906 5.0625 6.75 5 Z M 40 23C40.550781 23 41 23.449219 41 24C41 24.550781 40.550781 25 40 25C39.449219 25 39 24.550781 39 24C39 23.449219 39.449219 23 40 23 Z M 45.25 26.625C44.78125 27.371094 44.128906 27.980469 43.375 28.4375L43 28.65625C44.09375 29.6875 45.503906 30.351563 47 30.5C47.828125 30.5 48.5 29.828125 48.5 29C48.5 28.171875 47.828125 27.5 47 27.5C46.34375 27.375 45.742188 27.074219 45.25 26.625 Z M 7 41C7.550781 41 8 41.449219 8 42C8 42.550781 7.550781 43 7 43C6.449219 43 6 42.550781 6 42C6 41.449219 6.449219 41 7 41Z"/></svg>