<svg xmlns="http://www.w3.org/2000/svg" xmlns:xlink="http://www.w3.org/1999/xlink" viewBox="0 0 24 24"><path d="M6.25 2.9960938L4.8359375 4.4121094C4.0549375 5.1931094 4.0549375 6.4592344 4.8359375 7.2402344L10.890625 13.292969C11.280625 13.683969 11.913687 13.683969 12.304688 13.292969L13.089844 12.507812L15.099609 14.425781L4.0546875 16.863281C3.5156875 16.982281 3.1739688 17.515687 3.2929688 18.054688L3.7246094 20.007812C3.8436094 20.546813 4.3770156 20.888531 4.9160156 20.769531L18.589844 17.751953L20.652344 19.71875L22.033203 18.269531L20.945312 17.232422L20.960938 17.228516C21.499937 17.109516 21.839703 16.577109 21.720703 16.037109L21.289062 14.083984C21.170063 13.544984 20.636656 13.203266 20.097656 13.322266L17.455078 13.90625L11.1875 7.9335938L6.25 2.9960938 z"/></svg>