<?xml version="1.0" encoding="utf-8"?><svg version="1.1" id="Layer_1" xmlns="http://www.w3.org/2000/svg" xmlns:xlink="http://www.w3.org/1999/xlink" x="0px" y="0px" viewBox="0 0 122.88 119.3" style="enable-background:new 0 0 122.88 119.3" xml:space="preserve"><g><path d="M27.53,15.65c2.32,0,4.25,1.75,5.5,4.57c1.01,2.27,1.63,5.36,1.63,8.73c0,3.37-0.62,6.46-1.63,8.73 c-1.25,2.83-3.18,4.57-5.5,4.57c-2.32,0-4.25-1.75-5.5-4.57c-0.79-1.79-1.35-4.09-1.55-6.63h-3.71c0.21,6.36,1.49,12.04,3.45,16.22 c1.91,4.08,4.37,6.61,6.93,6.61c2.55,0,5.01-2.52,6.93-6.61c2.15-4.59,3.48-10.99,3.48-18.11c0-7.12-1.33-13.52-3.48-18.11 c-1.66-3.55-3.74-5.92-5.93-6.48h-0.48c-0.26,0-0.5-0.04-0.73-0.12c-2.48,0.14-4.85,2.63-6.71,6.6c-1.89,4.04-3.15,9.47-3.43,15.57 h3.7c0.21-2.45,0.76-4.66,1.53-6.39C23.28,17.39,25.21,15.65,27.53,15.65L27.53,15.65z M16.67,50.07v61.88l7.59-7.12 c0.87-0.82,2.24-0.8,3.08,0.05l0,0l9.08,9.08l9.4-9.1c0.88-0.85,2.28-0.83,3.13,0.04l0.02,0.02l0,0l8.23,8.68l9.37-8.76 c0.86-0.8,2.19-0.79,3.03,0.01l0,0l8.78,8.32l9.81-8.89c0.9-0.81,2.29-0.75,3.11,0.14l0,0l6.42,6.97V57.93H29.66 c-0.81,0.25-1.65,0.39-2.51,0.39C22.98,58.32,19.31,55.19,16.67,50.07L16.67,50.07z M35.49,53.49h61.82 c0.8-0.66,1.54-1.52,2.22-2.53c3.38-5.03,5.09-13.55,5.09-22.11c0-8.55-1.69-16.99-5.11-21.9C98.85,6,98.12,5.2,97.34,4.57H35.29 c1.03,1.3,1.97,2.85,2.8,4.6c2.42,5.16,3.92,12.23,3.92,19.99c0,7.76-1.5,14.83-3.92,19.99C37.32,50.79,36.45,52.25,35.49,53.49 L35.49,53.49z M28.61,0.13h69.44c0.53,0,1.02,0.19,1.4,0.5c1.39,0.97,2.62,2.25,3.69,3.8c3.64,5.22,5.59,13.59,5.87,22.19h11.64 c1.23,0,2.22,0.99,2.22,2.22s-0.99,2.22-2.22,2.22h-11.64c-0.28,8.61-2.22,17.05-5.8,22.37c-0.33,0.49-0.68,0.96-1.04,1.41v62.25h0 c0,0.6-0.24,1.19-0.72,1.63c-0.9,0.83-2.3,0.77-3.13-0.13l-8.78-9.54l-9.6,8.7c-0.85,0.86-2.23,0.89-3.11,0.06l-8.76-8.3 l-9.34,8.74c-0.03,0.03-0.06,0.07-0.1,0.1c-0.89,0.84-2.29,0.81-3.13-0.08l-8.2-8.65l-9.25,8.95c-0.03,0.03-0.06,0.06-0.09,0.09 c-0.87,0.87-2.27,0.87-3.14,0l-9.1-9.11l-9.65,9.05c-0.41,0.44-0.98,0.71-1.63,0.71c-1.23,0-2.22-0.99-2.22-2.22V31.06H2.22 C0.99,31.06,0,30.06,0,28.84s0.99-2.22,2.22-2.22h10.13c0.29-6.75,1.71-12.85,3.86-17.44C18.87,3.51,22.73,0,27.15,0 C27.64,0,28.13,0.04,28.61,0.13L28.61,0.13z M24.96,26.61h1.78c1.23,0,2.22,0.99,2.22,2.22s-0.99,2.22-2.22,2.22h-1.8 c0.18,1.89,0.58,3.56,1.15,4.84c0.52,1.19,1.05,1.92,1.44,1.92c0.39,0,0.92-0.73,1.44-1.92c0.77-1.74,1.25-4.19,1.25-6.94 c0-2.75-0.48-5.2-1.25-6.94c-0.52-1.19-1.05-1.92-1.44-1.92c-0.39,0-0.92,0.73-1.44,1.92C25.55,23.24,25.15,24.82,24.96,26.61 L24.96,26.61z"/></g></svg>