<svg xmlns="http://www.w3.org/2000/svg" xmlns:xlink="http://www.w3.org/1999/xlink" viewBox="0 0 50 50"><path d="M25 0C17.28125 0 11 7.625 11 17C11 19.980469 11.632813 22.820313 12.84375 25.375C13.167969 25.144531 13.574219 25 14 25L17 25C18.101563 25 19 25.898438 19 27L25 27C21.132813 27 18 22.523438 18 17C18 11.476563 21.132813 7 25 7C28.867188 7 32 11.476563 32 17C32 22.523438 28.867188 27 25 27L31 27C31 25.898438 31.898438 25 33 25L36 25C36.425781 25 36.832031 25.144531 37.15625 25.375C38.367188 22.820313 39 19.980469 39 17C39 7.625 32.71875 0 25 0 Z M 14 26C13.449219 26 13 26.445313 13 27L18 27C18 26.445313 17.550781 26 17 26 Z M 33 26C32.445313 26 32 26.445313 32 27L37 27C37 26.445313 36.554688 26 36 26 Z M 11 28C9.347656 28 8 29.347656 8 31C8 32.652344 9.347656 34 11 34L39 34C40.652344 34 42 32.652344 42 31C42 29.347656 40.652344 28 39 28 Z M 10.03125 34.875C10.476563 40.53125 15.230469 45 21 45L29 45C34.769531 45 39.523438 40.53125 39.96875 34.875C39.660156 34.949219 39.332031 35 39 35L11 35C10.667969 35 10.339844 34.949219 10.03125 34.875 Z M 15.9375 44.875C15.429688 45.789063 15 47.113281 15 49C15 49.554688 15.449219 50 16 50L34 50C34.007813 50 34.027344 50 34.03125 50C34.585938 50 35.03125 49.554688 35.03125 49C35.03125 48.929688 35.015625 48.847656 35 48.78125C34.96875 47.003906 34.550781 45.757813 34.0625 44.875C32.523438 45.59375 30.808594 46 29 46L21 46C19.191406 46 17.476563 45.59375 15.9375 44.875Z"/></svg>