<svg xmlns="http://www.w3.org/2000/svg" xmlns:xlink="http://www.w3.org/1999/xlink" viewBox="0 0 50 50"><path d="M25 0C17.132813 0 11 7.761719 11 17C11 20.457031 11.859375 23.613281 13.3125 26.28125C13.113281 26.46875 13.003906 26.726563 13 27L13 28L11 28C9.355469 28 8 29.355469 8 31C8 31.203125 8.023438 31.402344 8.0625 31.59375C8.066406 31.601563 8.058594 31.617188 8.0625 31.625C8.085938 31.726563 8.125 31.839844 8.15625 31.9375C8.179688 32.011719 8.21875 32.085938 8.25 32.15625C8.296875 32.269531 8.34375 32.363281 8.40625 32.46875C8.527344 32.679688 8.648438 32.886719 8.8125 33.0625C8.820313 33.074219 8.832031 33.082031 8.84375 33.09375C8.855469 33.105469 8.863281 33.113281 8.875 33.125C8.972656 33.21875 9.078125 33.292969 9.1875 33.375C9.3125 33.472656 9.453125 33.546875 9.59375 33.625C9.695313 33.679688 9.800781 33.738281 9.90625 33.78125C9.9375 33.792969 9.96875 33.800781 10 33.8125L10 34C10 38.457031 12.691406 42.308594 16.53125 44.03125C16.40625 44.175781 16.277344 44.316406 16.15625 44.5C15.550781 45.425781 15 46.878906 15 49C15 49.550781 15.449219 50 16 50L34 50C34.550781 50 35 49.550781 35 49C35 46.878906 34.449219 45.425781 33.84375 44.5C33.722656 44.316406 33.59375 44.175781 33.46875 44.03125C37.308594 42.308594 40 38.457031 40 34L40 33.8125C40.03125 33.800781 40.0625 33.792969 40.09375 33.78125C40.203125 33.738281 40.300781 33.683594 40.40625 33.625C40.546875 33.546875 40.6875 33.472656 40.8125 33.375C40.933594 33.285156 41.050781 33.203125 41.15625 33.09375C41.167969 33.082031 41.175781 33.074219 41.1875 33.0625C41.351563 32.886719 41.472656 32.679688 41.59375 32.46875C41.65625 32.363281 41.703125 32.269531 41.75 32.15625C41.78125 32.085938 41.820313 32.011719 41.84375 31.9375C41.878906 31.832031 41.914063 31.707031 41.9375 31.59375C41.976563 31.402344 42 31.203125 42 31C42 29.355469 40.644531 28 39 28L37 28L37 27C36.996094 26.726563 36.886719 26.46875 36.6875 26.28125C38.140625 23.613281 39 20.457031 39 17C39 7.761719 32.867188 0 25 0 Z M 25 2C31.535156 2 37 8.640625 37 17C37 20.417969 36.050781 23.488281 34.53125 26L33 26C32.96875 26 32.9375 26 32.90625 26C32.390625 26.046875 31.996094 26.480469 32 27L32 28L18 28L18 27C18 26.449219 17.550781 26 17 26L15.46875 26C13.949219 23.488281 13 20.417969 13 17C13 8.640625 18.464844 2 25 2 Z M 25 28C27.320313 28 29.378906 26.660156 30.78125 24.65625C32.183594 22.652344 33 19.949219 33 17C33 14.050781 32.183594 11.347656 30.78125 9.34375C29.378906 7.339844 27.320313 6 25 6C22.679688 6 20.621094 7.339844 19.21875 9.34375C17.816406 11.347656 17 14.050781 17 17C17 19.949219 17.816406 22.652344 19.21875 24.65625C20.621094 26.660156 22.679688 28 25 28 Z M 25 8C26.546875 8 27.996094 8.886719 29.125 10.5C30.253906 12.113281 31 14.425781 31 17C31 19.574219 30.253906 21.886719 29.125 23.5C27.996094 25.113281 26.546875 26 25 26C23.453125 26 22.003906 25.113281 20.875 23.5C19.746094 21.886719 19 19.574219 19 17C19 14.425781 19.746094 12.113281 20.875 10.5C22.003906 8.886719 23.453125 8 25 8 Z M 11 30L39 30C39.554688 30 40 30.445313 40 31C40 31.554688 39.554688 32 39 32L11 32C10.445313 32 10 31.554688 10 31C10 30.863281 10.042969 30.746094 10.09375 30.625C10.246094 30.265625 10.585938 30 11 30 Z M 12 34L38 34C38 38.953125 33.953125 43 29 43L21 43C16.046875 43 12 38.953125 12 34 Z M 18.375 45L31.625 45C31.691406 45.039063 31.828125 45.09375 32.15625 45.59375C32.457031 46.054688 32.738281 46.886719 32.875 48L17.125 48C17.261719 46.886719 17.542969 46.054688 17.84375 45.59375C18.171875 45.09375 18.308594 45.039063 18.375 45Z"/></svg>