<?xml version="1.0" encoding="utf-8"?><svg version="1.1" id="Layer_1" xmlns="http://www.w3.org/2000/svg" xmlns:xlink="http://www.w3.org/1999/xlink" x="0px" y="0px" viewBox="0 0 98.18 122.88" style="enable-background:new 0 0 98.18 122.88" xml:space="preserve"><g><path d="M21.58,24.97c0-1.01,0.82-1.82,1.82-1.82c1.01,0,1.82,0.82,1.82,1.82v33.33c0,1.01-0.82,1.82-1.82,1.82H1.82 C0.82,60.13,0,59.31,0,58.31V3.92c0-1.07,0.44-2.05,1.15-2.77l0.01-0.01C1.88,0.44,2.85,0,3.93,0H21.3c1.07,0,2.06,0.44,2.77,1.16 l0,0c0.71,0.71,1.15,1.69,1.15,2.77v4.62c0,1.01-0.82,1.82-1.82,1.82c-1.01,0-1.82-0.82-1.82-1.82V3.92c0-0.07-0.03-0.14-0.08-0.2 l0,0l0,0c-0.05-0.05-0.12-0.08-0.2-0.08H3.93c-0.08,0-0.15,0.03-0.2,0.08L3.72,3.73c-0.05,0.05-0.08,0.12-0.08,0.2v52.56h17.94 V24.97L21.58,24.97z M21.57,99.88L0.21,59.15c-0.46-0.89-0.12-1.98,0.77-2.45c0.27-0.14,0.56-0.21,0.84-0.21v-0.01h94.53 c1.01,0,1.82,0.82,1.82,1.82c0,0.07,0,0.14-0.01,0.21c-0.51,21.74-11.17,27.86-20.14,33c-5.24,3.01-9.83,5.64-10.69,11.21 l-0.01,0.05c-0.33,2.18-0.15,4.68,0.54,7.51c0.72,2.95,1.99,6.27,3.84,9.96c0.45,0.9,0.08,1.99-0.82,2.44 c-0.26,0.13-0.54,0.19-0.81,0.19l-57.06,0c-1.01,0-1.82-0.82-1.82-1.82c0-0.35,0.1-0.68,0.28-0.96L21.57,99.88L21.57,99.88z M4.83,60.13l20.39,38.89c0.26,0.5,0.28,1.11,0.01,1.65l-9.28,18.57h51.24c-1.3-2.89-2.25-5.59-2.86-8.09 c-0.81-3.32-1.01-6.29-0.61-8.91l0.01-0.06c1.13-7.3,6.43-10.34,12.48-13.81c7.92-4.54,17.29-9.92,18.26-28.23H4.83L4.83,60.13z M23.61,101.68c-1.01,0-1.82-0.82-1.82-1.82c0-1.01,0.82-1.82,1.82-1.82H43.5c1.01,0,1.82,0.82,1.82,1.82 c0,1.01-0.82,1.82-1.82,1.82H23.61L23.61,101.68z M25.21,58.58c-0.15,0.99-1.08,1.68-2.07,1.53c-0.99-0.15-1.68-1.08-1.53-2.07 c0.29-1.88,0.76-3.58,1.42-5.07c0.69-1.55,1.58-2.86,2.67-3.93c3.54-3.46,8.04-3.38,12.34-3.3c0.38,0.01,0.75,0.01,1.72,0.01 l38.96,0c9.24-0.06,19.48-0.13,19.43,13c0,1-0.81,1.81-1.81,1.81s-1.81-0.81-1.81-1.81c0.04-9.48-8.28-9.42-15.78-9.37 c-1.13,0.01-1.1,0.02-1.77,0.02H39.77l-1.78-0.03c-3.56-0.06-7.29-0.13-9.75,2.28c-0.77,0.75-1.39,1.68-1.89,2.79 C25.83,55.6,25.45,56.98,25.21,58.58L25.21,58.58z M15.33,11.17c2.83,0,5.12,2.29,5.12,5.12c0,2.83-2.29,5.12-5.12,5.12 c-2.83,0-5.12-2.29-5.12-5.12C10.21,13.46,12.51,11.17,15.33,11.17L15.33,11.17z M20.45,18.11c-1.01,0-1.82-0.82-1.82-1.82 c0-1.01,0.82-1.82,1.82-1.82h12.28c1.01,0,1.82,0.82,1.82,1.82c0,1.01-0.82,1.82-1.82,1.82H20.45L20.45,18.11z"/></g></svg>