<?xml version="1.0" encoding="utf-8"?><svg version="1.1" id="Layer_1" xmlns="http://www.w3.org/2000/svg" xmlns:xlink="http://www.w3.org/1999/xlink" x="0px" y="0px" viewBox="0 0 122.88 124.65" style="enable-background:new 0 0 122.88 124.65" xml:space="preserve"><style type="text/css">.st0{fill-rule:evenodd;clip-rule:evenodd;}</style><g><path class="st0" d="M0.57,117.29c22.97-23.54,34.29-35.44,57.26-58.98c9.68-5.97,15.85-8.81,25.95-14.35l1.59-2.78l-9.57-8.89 c-0.82-0.76-0.79-2.08,0-2.87l0.68-0.68c0.77-0.77,2-0.74,2.8,0l9.54,8.86l1.82-1.91l-9.95-9.24c-0.82-0.76-0.79-2.08,0-2.87 l0.68-0.68c0.77-0.77,2-0.74,2.8,0L93.97,32l1.81-1.9l-10.07-9.34c-0.82-0.76-0.79-2.08,0-2.87l0.68-0.68c0.77-0.77,2-0.74,2.8,0 l10.04,9.32l1.81-1.89l-10.06-9.34c-0.82-0.76-0.79-2.08,0-2.87l0.68-0.68c0.77-0.77,2-0.74,2.8,0l10.03,9.31l1.81-1.9L96.19,9.76 c-0.82-0.76-0.79-2.08,0-2.87l0.68-0.68c0.77-0.77,2-0.74,2.8,0l10.08,9.36l1.77-1.94l-10.25-9.52c-0.82-0.76-0.79-2.08,0-2.87 l0.68-0.68c0.77-0.77,2-0.74,2.8,0l10.26,9.52c4.65-1.7,3.72-2.32,7.11,1.06c1.08,1.08,0.96,1.83-0.05,2.91L89.56,48.74l-0.02-0.02 c-9.14,6.48-14.67,9.93-24.4,15.83l-1.4,1.46L7.4,124.06c-0.76,0.79-2.04,0.78-2.82,0l-4.01-4.01 C-0.19,119.29-0.18,118.06,0.57,117.29L0.57,117.29z"/></g></svg>