<?xml version="1.0" encoding="utf-8"?><svg version="1.1" id="Layer_1" xmlns="http://www.w3.org/2000/svg" xmlns:xlink="http://www.w3.org/1999/xlink" x="0px" y="0px" viewBox="0 0 78.07 122.88" style="enable-background:new 0 0 78.07 122.88" xml:space="preserve"><style type="text/css">.st0{fill-rule:evenodd;clip-rule:evenodd;}</style><g><path class="st0" d="M40.13,25.43l-5.77,81.89h42.78l-5.66-81.89H40.13L40.13,25.43z M7.85,121.47 c-0.29-23.81-0.59-35.69-0.88-59.5c1.9-8.01,3.6-16.03,5.94-24.04l-0.61-2.24l-9.45,0.35c-0.81,0.03-1.47-0.66-1.47-1.47v-0.7 c0-0.79,0.65-1.4,1.43-1.43l9.42-0.35l-0.05-1.91l-9.82,0.36c-0.81,0.03-1.47-0.66-1.47-1.47v-0.7c0-0.79,0.65-1.4,1.43-1.43 L12,26.59l-0.05-1.9l-9.94,0.37c-0.81,0.03-1.47-0.66-1.47-1.47v-0.7c0-0.79,0.65-1.4,1.43-1.43l9.91-0.37l-0.04-1.89l-9.93,0.37 c-0.81,0.03-1.47-0.66-1.47-1.47v-0.7c0-0.79,0.65-1.4,1.43-1.43l9.9-0.37l-0.05-1.9l-9.98,0.37c-0.81,0.03-1.47-0.66-1.47-1.47 v-0.7c0-0.79,0.65-1.4,1.43-1.43l9.95-0.37l-0.09-1.9L1.47,8.58C0.66,8.61,0,7.92,0,7.11v-0.7c0-0.79,0.65-1.4,1.43-1.43L11.56,4.6 c1.51-3.25,0.72-3.09,4.18-3.09c1.1,0,1.43,0.44,1.46,1.51l1.11,34.39l-0.02,0c-1.36,8-2.42,16-4.39,24l0.03,1.47l0.88,58.56 c0.01,0.79-0.65,1.44-1.44,1.44l-4.11,0C8.49,122.88,7.86,122.24,7.85,121.47L7.85,121.47z M46.37,20.1L48.61,0h14.08l2.43,20.1 H46.37L46.37,20.1z M33.91,113.68l-0.5,7.07h44.66l-0.49-7.07H33.91L33.91,113.68z"/></g></svg>