<svg xmlns="http://www.w3.org/2000/svg" xmlns:xlink="http://www.w3.org/1999/xlink" viewBox="0 0 50 50"><path d="M11 0C8.832031 0 7.015625 0.546875 5.78125 1.78125C4.546875 3.015625 4 4.832031 4 7L4 8L1 8C0.96875 8 0.9375 8 0.90625 8C0.355469 8.027344 -0.0742188 8.496094 -0.046875 9.046875C-0.0195313 9.597656 0.449219 10.027344 1 10L4 10L4 28.8125C3.972656 28.945313 3.972656 29.085938 4 29.21875L4 34.8125C3.972656 34.945313 3.972656 35.085938 4 35.21875L4 41C4 41.550781 4.449219 42 5 42L10 42L10 49C10 49.550781 10.449219 50 11 50L43 50C43.550781 50 44 49.550781 44 49L44 11.15625C44.003906 11.105469 44.003906 11.050781 44 11L44 10L49 10C49.359375 10.003906 49.695313 9.816406 49.878906 9.503906C50.058594 9.191406 50.058594 8.808594 49.878906 8.496094C49.695313 8.183594 49.359375 7.996094 49 8L44 8L44 7C44 4.9375 43.34375 3.152344 42.09375 1.90625C40.84375 0.660156 39.054688 0 37 0 Z M 11 2L37 2C38.640625 2 39.859375 2.488281 40.6875 3.3125C41.136719 3.761719 41.460938 4.347656 41.6875 5.03125C40.816406 4.367188 39.855469 4 39 4C37.992188 4 36.644531 4.273438 35.625 5.375C34.605469 6.476563 34 8.253906 34 11L34 26.09375C33.09375 26.289063 32.304688 26.722656 31.5625 27.09375C30.5625 27.59375 29.667969 28 29 28C28.332031 28 27.4375 27.59375 26.4375 27.09375C25.4375 26.59375 24.332031 26 23 26C21.667969 26 20.5625 26.59375 19.5625 27.09375C18.5625 27.59375 17.667969 28 17 28C16.332031 28 15.4375 27.59375 14.4375 27.09375C13.4375 26.59375 12.332031 26 11 26C9.667969 26 8.5625 26.59375 7.5625 27.09375C7 27.375 6.476563 27.644531 6 27.8125L6 9.1875C6.027344 9.054688 6.027344 8.914063 6 8.78125L6 7C6 5.167969 6.453125 3.984375 7.21875 3.21875C7.984375 2.453125 9.167969 2 11 2 Z M 39 6C39.617188 6 40.292969 6.179688 40.875 6.84375C41.113281 7.117188 41.339844 7.503906 41.53125 8L36.40625 8C36.601563 7.40625 36.839844 6.992188 37.09375 6.71875C37.648438 6.121094 38.3125 6 39 6 Z M 36.03125 10L41.9375 10C41.964844 10.308594 42 10.640625 42 11C42 11.03125 42 11.0625 42 11.09375L42 48L12 48L12 42L35 42C35.550781 42 36 41.550781 36 41L36 33.1875C36.027344 33.054688 36.027344 32.914063 36 32.78125L36 27.1875C36.027344 27.054688 36.027344 26.914063 36 26.78125L36 11C36 10.644531 36.011719 10.308594 36.03125 10 Z M 11 28C11.667969 28 12.5625 28.40625 13.5625 28.90625C14.5625 29.40625 15.667969 30 17 30C18.332031 30 19.4375 29.40625 20.4375 28.90625C21.4375 28.40625 22.332031 28 23 28C23.667969 28 24.5625 28.40625 25.5625 28.90625C26.5625 29.40625 27.667969 30 29 30C30.332031 30 31.4375 29.40625 32.4375 28.90625C33 28.625 33.523438 28.355469 34 28.1875L34 32.09375C33.09375 32.289063 32.304688 32.722656 31.5625 33.09375C30.5625 33.59375 29.667969 34 29 34C28.332031 34 27.4375 33.59375 26.4375 33.09375C25.4375 32.59375 24.332031 32 23 32C21.667969 32 20.5625 32.59375 19.5625 33.09375C18.5625 33.59375 17.667969 34 17 34C16.332031 34 15.4375 33.59375 14.4375 33.09375C13.4375 32.59375 12.332031 32 11 32C9.667969 32 8.5625 32.59375 7.5625 33.09375C7 33.375 6.476563 33.644531 6 33.8125L6 29.90625C6.90625 29.710938 7.695313 29.277344 8.4375 28.90625C9.4375 28.40625 10.332031 28 11 28 Z M 11 34C11.667969 34 12.5625 34.40625 13.5625 34.90625C14.5625 35.40625 15.667969 36 17 36C18.332031 36 19.4375 35.40625 20.4375 34.90625C21.4375 34.40625 22.332031 34 23 34C23.667969 34 24.5625 34.40625 25.5625 34.90625C26.5625 35.40625 27.667969 36 29 36C30.332031 36 31.4375 35.40625 32.4375 34.90625C33 34.625 33.523438 34.355469 34 34.1875L34 40L6 40L6 35.90625C6.90625 35.710938 7.695313 35.277344 8.4375 34.90625C9.4375 34.40625 10.332031 34 11 34Z"/></svg>