<svg xmlns="http://www.w3.org/2000/svg" xmlns:xlink="http://www.w3.org/1999/xlink" viewBox="0 0 50 50"><path d="M11 0C6.421875 0 4 2.421875 4 7L4 28L5 28C5.765625 28 6.640625 27.554688 7.5625 27.09375C8.648438 26.550781 9.765625 26 11 26C12.234375 26 13.351563 26.550781 14.4375 27.09375C15.359375 27.554688 16.234375 28 17 28C17.765625 28 18.640625 27.554688 19.5625 27.09375C20.648438 26.550781 21.765625 26 23 26C24.234375 26 25.351563 26.550781 26.4375 27.09375C27.359375 27.554688 28.234375 28 29 28C29.765625 28 30.640625 27.554688 31.5625 27.09375C32.347656 26.699219 33.148438 26.316406 34 26.125L34 11C34 5.839844 37.101563 4 40 4C41.066406 4 42.613281 4.402344 43.875 5.53125C43.304688 2.132813 40.734375 0 37 0 Z M 40 6C39.210938 6 38.148438 6.1875 37.3125 7L42.53125 7C41.429688 6.023438 40.09375 6 40 6 Z M 1 8C0.449219 8 0 8.449219 0 9C0 9.550781 0.449219 10 1 10L3 10L3 8 Z M 36.59375 8C36.332031 8.523438 36.148438 9.183594 36.0625 10L49 10C49.554688 10 50 9.550781 50 9C50 8.449219 49.554688 8 49 8 Z M 36 11L36 41C36 41.554688 35.554688 42 35 42L10 42L10 49C10 49.554688 10.449219 50 11 50L43 50C43.554688 50 44 49.554688 44 49L44 11 Z M 11 28C10.234375 28 9.359375 28.445313 8.4375 28.90625C7.351563 29.449219 6.234375 30 5 30L4 30L4 34L5 34C5.765625 34 6.640625 33.554688 7.5625 33.09375C8.648438 32.550781 9.765625 32 11 32C12.234375 32 13.351563 32.550781 14.4375 33.09375C15.359375 33.554688 16.234375 34 17 34C17.765625 34 18.640625 33.554688 19.5625 33.09375C20.648438 32.550781 21.765625 32 23 32C24.234375 32 25.351563 32.550781 26.4375 33.09375C27.359375 33.554688 28.234375 34 29 34C29.765625 34 30.640625 33.554688 31.5625 33.09375C32.347656 32.699219 33.148438 32.316406 34 32.125L34 28.21875C33.507813 28.390625 32.976563 28.636719 32.4375 28.90625C31.351563 29.449219 30.234375 30 29 30C27.765625 30 26.648438 29.449219 25.5625 28.90625C24.640625 28.445313 23.765625 28 23 28C22.234375 28 21.359375 28.445313 20.4375 28.90625C19.351563 29.449219 18.234375 30 17 30C15.765625 30 14.648438 29.449219 13.5625 28.90625C12.640625 28.445313 11.765625 28 11 28 Z M 11 34C10.234375 34 9.359375 34.445313 8.4375 34.90625C7.351563 35.449219 6.234375 36 5 36L4 36L4 39C4 39.554688 4.449219 40 5 40L34 40L34 34.21875C33.507813 34.390625 32.976563 34.636719 32.4375 34.90625C31.351563 35.449219 30.234375 36 29 36C27.765625 36 26.648438 35.449219 25.5625 34.90625C24.640625 34.445313 23.765625 34 23 34C22.234375 34 21.359375 34.445313 20.4375 34.90625C19.351563 35.449219 18.234375 36 17 36C15.765625 36 14.648438 35.449219 13.5625 34.90625C12.640625 34.445313 11.765625 34 11 34Z"/></svg>