<?xml version="1.0" encoding="utf-8"?><svg version="1.1" id="Layer_1" xmlns="http://www.w3.org/2000/svg" xmlns:xlink="http://www.w3.org/1999/xlink" x="0px" y="0px" viewBox="0 0 73.84 122.88" style="enable-background:new 0 0 73.84 122.88" xml:space="preserve"><style type="text/css">.st0{fill-rule:evenodd;clip-rule:evenodd;}</style><g><path class="st0" d="M36.64,90.45c5.2,0,9.41,0.95,9.41,2.12c0,1.17-4.21,2.12-9.41,2.12c-5.2,0-9.41-0.95-9.41-2.12 C27.23,91.4,31.44,90.45,36.64,90.45L36.64,90.45z M28.68,7.88h-7.16c-1.1,0-1.99-0.89-1.99-1.99s0.89-1.99,1.99-1.99h7.43 c0.04-0.96,0.07-1.97,0.07-3.06c0-0.46,0.31-0.84,0.69-0.84h14.41c0.38,0,0.69,0.38,0.69,0.84c0,12.63,3.28,15.82-5.05,15.95v2.96 v0l1.02,0c0.78,0,1.45,0.48,1.72,1.16l4.39,8.39h9.45c4.81,0,9.19,1.97,12.36,5.14s5.14,7.54,5.14,12.36v32.59 c0,7.94-2.67,15.29-7.16,21.19c-4.39,5.77-10.52,10.14-17.59,12.32l-2.42,4.95c-0.02,0.07-0.04,0.14-0.07,0.21 c-0.68,1.77-1.16,2.87-2.18,3.7c-1.05,0.86-2.29,1.12-4.39,1.12h-6.08c-1.75,0-3.1-0.19-4.31-0.93c-1.22-0.75-2.06-1.94-2.7-3.88 l-2.42-5.17c-7.02-2.24-13.1-6.64-17.45-12.4C2.64,94.61,0,87.29,0,79.39V46.8c0-4.81,1.97-9.19,5.14-12.36 c3.17-3.17,7.54-5.14,12.36-5.14h8.83l4.73-8.58c0.34-0.62,0.97-0.96,1.63-0.97l1.02,0v0V16.8C27.68,16.68,28.14,14.28,28.68,7.88 L28.68,7.88z M18.38,40.54H55c1.96,0,3.74,0.8,5.03,2.09l0.11,0.12c1.22,1.28,1.98,3.01,1.98,4.91v30.31 c0,6.99-2.86,13.35-7.47,17.96c-4.61,4.61-10.96,7.47-17.96,7.47h-0.8c-6.77,0-12.93-2.77-17.39-7.23 c-4.46-4.46-7.23-10.62-7.23-17.39V47.65c0-1.95,0.8-3.73,2.09-5.02l0.01-0.01C14.66,41.33,16.43,40.54,18.38,40.54L18.38,40.54z M43.13,116.72l2.72-5.89c0.2-0.62,0.69-1.06,1.27-1.22c6.68-1.85,12.49-5.88,16.6-11.28c4.01-5.27,6.39-11.83,6.39-18.94V46.81 c0-3.78-1.55-7.23-4.05-9.72c-2.5-2.5-5.94-4.05-9.72-4.05H45.77H27.42H17.5c-3.78,0-7.23,1.55-9.72,4.05 c-2.5,2.5-4.05,5.94-4.05,9.72v32.59c0,7.06,2.36,13.6,6.33,18.86c4.07,5.39,9.83,9.45,16.47,11.36c0.65,0.19,1.13,0.7,1.29,1.31 l2.67,6c0.34,1.04,0.69,1.61,1.12,1.87c0.47,0.29,1.25,0.36,2.36,0.36h6.08c1.19,0,1.79-0.06,2.05-0.27 c0.29-0.24,0.58-0.95,1.04-2.14L43.13,116.72L43.13,116.72z M39.66,23.49h-5.88l-3.21,5.82h12.14L39.66,23.49L39.66,23.49z M55,44.26H18.38c-0.93,0-1.78,0.38-2.39,0.99l-0.01,0.01c-0.61,0.61-0.99,1.46-0.99,2.39v31.11c0,5.74,2.35,10.97,6.14,14.76 c3.79,3.79,9.01,6.14,14.76,6.14h0.8c5.96,0,11.39-2.44,15.32-6.38c3.93-3.93,6.38-9.36,6.38-15.32V47.65 c0-0.9-0.35-1.71-0.92-2.32l-0.08-0.08C56.78,44.65,55.93,44.26,55,44.26L55,44.26z"/></g></svg>