<svg xmlns="http://www.w3.org/2000/svg" xmlns:xlink="http://www.w3.org/1999/xlink" viewBox="0 0 24 24"><path d="M8.96875 4C7.3237802 4 5.96875 5.3550302 5.96875 7L5.96875 8.1816406C5.7435446 8.0988815 5.5062813 8.0375539 5.2539062 8.0136719C4.6648793 7.9577143 4.0662669 8.0789836 3.5429688 8.3613281C2.1352999 9.1184219 1.6701484 10.832824 2.2324219 12.236328L3.9316406 16.486328C4.4531977 17.787934 5.6163742 18.704257 6.96875 18.9375L6.96875 21L8.96875 21L8.96875 19L15.025391 19L15.025391 21L17.025391 21L17.025391 18.9375C18.377186 18.70387 19.539974 17.787974 20.060547 16.486328L20.060547 16.484375L21.769531 12.212891C22.308731 10.863481 21.894066 9.2254763 20.580078 8.4355469C20.11146 8.1533131 19.57253 8 19.027344 8C18.678904 8 18.34268 8.0666332 18.025391 8.1796875L18.025391 7C18.025391 5.3550302 16.67036 4 15.025391 4L8.96875 4 z M 8.96875 6L15.025391 6C15.590421 6 16.025391 6.4349698 16.025391 7L16.025391 10.421875L14.994141 13L9 13L7.96875 10.421875L7.96875 7C7.96875 6.4349698 8.4037198 6 8.96875 6 z M 19.027344 10C19.211522 10 19.377829 10.045299 19.548828 10.148438C19.94484 10.386508 20.11291 10.96816 19.912109 11.470703L18.203125 15.742188C17.898785 16.504039 17.168788 17 16.347656 17L7.6445312 17C6.8252626 17 6.094526 16.504733 5.7890625 15.744141L5.7890625 15.742188L4.0878906 11.494141L4.0878906 11.492188C3.8765162 10.964664 4.0659668 10.35068 4.4902344 10.123047L4.4902344 10.121094L4.4921875 10.121094C4.6768893 10.021434 4.8534801 9.9858173 5.0644531 10.005859L5.0664062 10.005859C5.4127792 10.038639 5.7803373 10.336585 5.9511719 10.763672L7.6445312 15L16.347656 15L18.095703 10.630859C18.249018 10.247069 18.61453 10 19.027344 10 z"/></svg>