<?xml version="1.0" encoding="utf-8"?><svg version="1.1" id="Layer_1" xmlns="http://www.w3.org/2000/svg" xmlns:xlink="http://www.w3.org/1999/xlink" x="0px" y="0px" viewBox="0 0 122.88 113.4" style="enable-background:new 0 0 122.88 113.4" xml:space="preserve"><g><path d="M100.73,106.44v6.96h-4.29v-6.96h-0.7c-0.05,0-0.11,0.01-0.17,0.01H28.28c-0.08,0.01-0.16,0.01-0.24,0.01h-0.03h-1.77v6.94 h-4.29v-6.94h-2.47v-0.01c-2.42-0.01-4.41-0.49-5.91-1.77c-1.54-1.31-2.41-3.29-2.49-6.2c0-0.03,0-0.07,0-0.1l0.01-31.2 c-1.94-0.56-3.64-1.28-5.08-2.19c-1.98-1.25-3.46-2.85-4.37-4.85c-3.07-6.74-1.52-12.41,2.11-16.23c1.65-1.74,3.74-3.07,6.02-3.92 c2.27-0.85,4.73-1.22,7.12-1.03c1.8,0.14,3.57,0.58,5.2,1.35V18.73c0-8.88,1.33-13.51,4.75-16.1C30.18,0.1,35,0,42.3,0h38.22 c7.94,0,12.76,0.31,15.94,3.15c3.18,2.84,4.11,7.71,4.11,16.72v21.26c2.18-1.04,4.58-1.52,6.97-1.5c2.33,0.02,4.64,0.51,6.72,1.4 c2.11,0.91,4.01,2.24,5.5,3.93c3.26,3.73,4.44,9.06,1.28,15.26c-0.96,1.89-2.42,3.46-4.34,4.71c-1.44,0.93-3.13,1.68-5.07,2.25 v31.23h-0.01l0,0.05c-0.08,2.92-0.95,4.89-2.49,6.2c-1.5,1.27-3.49,1.76-5.91,1.77v0.01H100.73L100.73,106.44z M26.37,43.54 c1.32,1.5,2.39,3.4,3.1,5.71c0.34,1.1,0.58,2.3,0.7,3.6c0.12,1.25,0.12,2.59-0.01,4.04l0,5.73h62.37V56.8 c-0.12-1.41-0.16-2.72-0.07-3.92c0.1-1.37,0.36-2.64,0.83-3.79c0.77-1.9,1.79-3.49,2.99-4.79V19.87c0-7.7-0.6-11.69-2.67-13.54 c-2.06-1.84-6.19-2.04-13.09-2.04H42.3c-6.42,0-10.64,0.07-12.89,1.77c-2.19,1.65-3.04,5.31-3.04,12.68V43.54L26.37,43.54z M30.16,66.91l0,7.21h62.37v-7.21H30.16L30.16,66.91z M23.06,46.31c-0.25-0.16-0.47-0.38-0.63-0.63c-1.66-1.5-3.73-2.28-5.86-2.45 c-1.79-0.14-3.62,0.13-5.31,0.76c-1.68,0.63-3.21,1.6-4.41,2.87c-2.5,2.64-3.53,6.64-1.32,11.51c0.55,1.2,1.49,2.19,2.78,3.01 c1.42,0.9,3.24,1.58,5.39,2.06l0,0c0.95,0.21,1.67,1.07,1.67,2.09l-0.01,32.86c0.04,1.57,0.38,2.53,0.98,3.04 c0.64,0.55,1.72,0.76,3.15,0.76v-0.01h4.98c0.08-0.01,0.16-0.01,0.24-0.01h1.17l0.01-45.32c0-0.08,0-0.15,0.01-0.23 c0.11-1.22,0.11-2.34,0.01-3.36c-0.09-1-0.27-1.91-0.53-2.74C24.85,48.78,24.05,47.39,23.06,46.31L23.06,46.31z M96.82,64.1 c0.07,0.21,0.11,0.43,0.11,0.67c0,0.23-0.04,0.46-0.11,0.67v10.35c0.04,0.15,0.05,0.32,0.05,0.48s-0.02,0.33-0.05,0.48v25.41h6.39 v0.01c1.42,0,2.5-0.21,3.15-0.76c0.59-0.5,0.93-1.44,0.98-2.99h-0.01V65.52c0-1.08,0.8-1.97,1.83-2.12 c2.09-0.48,3.83-1.17,5.2-2.06c1.27-0.83,2.23-1.85,2.85-3.06c2.23-4.37,1.5-8.02-0.68-10.5c-1.04-1.19-2.42-2.14-3.97-2.81 c-1.58-0.68-3.32-1.05-5.06-1.07c-4.14-0.03-8.31,1.99-10.24,6.77c-0.29,0.72-0.46,1.56-0.52,2.5c-0.08,1.06-0.04,2.2,0.07,3.43 c0.01,0.06,0.01,0.13,0.01,0.19h0.01V64.1L96.82,64.1z M30.15,102.16h62.38V78.41H30.15L30.15,102.16L30.15,102.16z"/></g></svg>