<svg xmlns="http://www.w3.org/2000/svg" xmlns:xlink="http://www.w3.org/1999/xlink" viewBox="0 0 50 50"><path d="M25 10C22.75 10 20.625 10.8125 18.96875 12.3125C18.3125 12.101563 17.660156 12 17 12C12.730469 12 9.167969 16.324219 8.25 22.09375C8.601563 22.042969 8.949219 22 9.3125 22C12.414063 22 15.214844 24.046875 16.1875 27L16.75 28.25C18.664063 27.570313 21.40625 27 25.125 27C28.757813 27 31.371094 27.5625 33.21875 28.21875L33.9375 26.625C34.996094 23.863281 37.699219 22 40.6875 22C41.050781 22 41.402344 22.042969 41.75 22.09375C40.832031 16.324219 37.269531 12 33 12C32.339844 12 31.6875 12.101563 31.03125 12.3125C29.375 10.8125 27.253906 10 25 10 Z M 9.3125 24C6.40625 24 4.03125 26.375 4.03125 29.28125C4.03125 31.457031 5.394531 33.378906 7.40625 34.15625L9.84375 40.4375C10.84375 43.902344 15.269531 44 15.78125 44L34.25 44C34.75 44 39.152344 43.910156 40.125 40.53125L42.59375 34.15625C44.605469 33.378906 45.96875 31.457031 45.96875 29.28125C45.96875 26.375 43.59375 24 40.6875 24C38.507813 24 36.523438 25.382813 35.78125 27.375L34.25 30.84375C32.683594 29.980469 29.867188 29 25.125 29C20.234375 29 17.289063 30.058594 15.75 30.875L14.3125 27.71875C13.636719 25.523438 11.601563 24 9.3125 24 Z M 10.125 44.21875L9.3125 45.875C8.972656 46.554688 8.914063 47.339844 9.15625 48.0625C9.398438 48.785156 9.882813 49.347656 10.5625 49.6875C10.960938 49.886719 11.398438 50 11.84375 50C12.929688 50 13.917969 49.410156 14.40625 48.4375L15.59375 46C13.796875 45.972656 11.714844 45.453125 10.125 44.21875 Z M 39.875 44.25C38.289063 45.476563 36.210938 45.972656 34.40625 46L35.59375 48.4375C36.082031 49.40625 37.070313 50 38.15625 50C38.59375 50 39.03125 49.886719 39.4375 49.6875C40.839844 48.984375 41.386719 47.277344 40.6875 45.875Z"/></svg>