<svg xmlns="http://www.w3.org/2000/svg" xmlns:xlink="http://www.w3.org/1999/xlink" viewBox="0 0 50 50"><path d="M8 3C7.449219 3 7 3.449219 7 4L7 30C7 30.554688 7.449219 31 8 31L13 31C13.554688 31 14 30.554688 14 30L14 4C14 3.449219 13.554688 3 13 3 Z M 17 3C16.449219 3 16 3.449219 16 4L16 30C16 30.554688 16.449219 31 17 31L22 31C22.554688 31 23 30.554688 23 30L23 4C23 3.449219 22.554688 3 22 3 Z M 9.5 7L11.5 7C12.054688 7 12.5 7.449219 12.5 8C12.5 8.550781 12.054688 9 11.5 9L9.5 9C8.945313 9 8.5 8.550781 8.5 8C8.5 7.449219 8.945313 7 9.5 7 Z M 18.5 7L20.5 7C21.054688 7 21.5 7.449219 21.5 8C21.5 8.550781 21.054688 9 20.5 9L18.5 9C17.945313 9 17.5 8.550781 17.5 8C17.5 7.449219 17.945313 7 18.5 7 Z M 37.59375 8.4375L32.75 9.59375C32.492188 9.65625 32.265625 9.804688 32.125 10.03125C32.066406 10.125 32.023438 10.238281 32 10.34375L32 10C32 9.449219 31.554688 9 31 9L26 9C25.449219 9 25 9.449219 25 10L25 30C25 30.554688 25.449219 31 26 31L31 31C31.554688 31 32 30.554688 32 30L32 10.78125L36.8125 30.25C36.921875 30.710938 37.328125 31.03125 37.78125 31.03125C37.855469 31.03125 37.921875 31.015625 38 31L42.875 29.84375C43.132813 29.78125 43.359375 29.632813 43.5 29.40625C43.640625 29.179688 43.6875 28.914063 43.625 28.65625L38.8125 9.1875C38.683594 8.648438 38.128906 8.308594 37.59375 8.4375 Z M 36.96875 12.78125C37.351563 12.847656 37.6875 13.128906 37.78125 13.53125C37.90625 14.070313 37.566406 14.625 37.03125 14.75L36.0625 14.96875C35.984375 14.988281 35.917969 15 35.84375 15C35.390625 15 34.953125 14.679688 34.84375 14.21875C34.71875 13.679688 35.058594 13.15625 35.59375 13.03125L36.5625 12.8125C36.695313 12.78125 36.839844 12.757813 36.96875 12.78125 Z M 28 13L29 13C29.554688 13 30 13.449219 30 14C30 14.550781 29.554688 15 29 15L28 15C27.445313 15 27 14.550781 27 14C27 13.449219 27.445313 13 28 13 Z M 39.53125 24.46875C40.066406 24.347656 40.621094 24.679688 40.75 25.21875C40.875 25.753906 40.539063 26.28125 40 26.40625L39.03125 26.65625C38.953125 26.675781 38.855469 26.6875 38.78125 26.6875C38.328125 26.6875 37.921875 26.367188 37.8125 25.90625C37.6875 25.371094 38.023438 24.8125 38.5625 24.6875 Z M 9.5 25L11.5 25C12.054688 25 12.5 25.449219 12.5 26C12.5 26.550781 12.054688 27 11.5 27L9.5 27C8.945313 27 8.5 26.550781 8.5 26C8.5 25.449219 8.945313 25 9.5 25 Z M 18.5 25L20.5 25C21.054688 25 21.5 25.449219 21.5 26C21.5 26.550781 21.054688 27 20.5 27L18.5 27C17.945313 27 17.5 26.550781 17.5 26C17.5 25.449219 17.945313 25 18.5 25 Z M 28 25L29 25C29.554688 25 30 25.445313 30 26C30 26.554688 29.554688 27 29 27L28 27C27.445313 27 27 26.554688 27 26C27 25.445313 27.445313 25 28 25 Z M 3 32C2.449219 32 2 32.445313 2 33L2 36C2 36.554688 2.449219 37 3 37L47 37C47.554688 37 48 36.554688 48 36L48 33C48 32.445313 47.554688 32 47 32 Z M 6 39L6 44.5C6 45.878906 7.121094 47 8.5 47C9.878906 47 11 45.878906 11 44.5L11 39 Z M 39 39L39 44.5C39 45.878906 40.121094 47 41.5 47C42.878906 47 44 45.878906 44 44.5L44 39Z"/></svg>