<svg xmlns="http://www.w3.org/2000/svg" xmlns:xlink="http://www.w3.org/1999/xlink" viewBox="0 0 50 50"><path d="M0 13L0 18L50 18L50 13 Z M 2 20L2 30L48 30L48 20 Z M 22 24L28 24C28.554688 24 29 24.449219 29 25C29 25.550781 28.554688 26 28 26L22 26C21.449219 26 21 25.550781 21 25C21 24.449219 21.449219 24 22 24 Z M 2 32L2 42L48 42L48 32 Z M 22 36L28 36C28.554688 36 29 36.445313 29 37C29 37.554688 28.554688 38 28 38L22 38C21.449219 38 21 37.554688 21 37C21 36.445313 21.449219 36 22 36 Z M 2 44L2 50L9 50L9 46C9 44.5625 9.5625 44 11 44 Z M 39 44C40.4375 44 41 44.5625 41 46L41 50L48 50L48 44Z"/></svg>