<svg xmlns="http://www.w3.org/2000/svg" xmlns:xlink="http://www.w3.org/1999/xlink" viewBox="0 0 50 50"><path d="M0 13L0 20L2 20L2 42.8125C1.996094 42.855469 1.996094 42.894531 2 42.9375L2 50L9 50L9 46C9 45.167969 9.203125 44.734375 9.46875 44.46875C9.734375 44.203125 10.167969 44 11 44L39 44C39.832031 44 40.265625 44.203125 40.53125 44.46875C40.796875 44.734375 41 45.167969 41 46L41 50L48 50L48 43C48 42.96875 48 42.9375 48 42.90625L48 20L50 20L50 13 Z M 2 15L48 15L48 18L3.1875 18C3.054688 17.972656 2.914063 17.972656 2.78125 18L2 18 Z M 4 20L46 20L46 30L4 30 Z M 21.71875 24C21.167969 24.078125 20.78125 24.589844 20.859375 25.140625C20.9375 25.691406 21.449219 26.078125 22 26L28 26C28.359375 26.003906 28.695313 25.816406 28.878906 25.503906C29.058594 25.191406 29.058594 24.808594 28.878906 24.496094C28.695313 24.183594 28.359375 23.996094 28 24L22 24C21.96875 24 21.9375 24 21.90625 24C21.875 24 21.84375 24 21.8125 24C21.78125 24 21.75 24 21.71875 24 Z M 4 32L46 32L46 42L4 42 Z M 21.71875 36C21.167969 36.078125 20.78125 36.589844 20.859375 37.140625C20.9375 37.691406 21.449219 38.078125 22 38L28 38C28.359375 38.003906 28.695313 37.816406 28.878906 37.503906C29.058594 37.191406 29.058594 36.808594 28.878906 36.496094C28.695313 36.183594 28.359375 35.996094 28 36L22 36C21.96875 36 21.9375 36 21.90625 36C21.875 36 21.84375 36 21.8125 36C21.78125 36 21.75 36 21.71875 36 Z M 4 44L7.40625 44C7.140625 44.59375 7 45.269531 7 46L7 48L4 48 Z M 42.59375 44L46 44L46 48L43 48L43 46C43 45.269531 42.859375 44.59375 42.59375 44Z"/></svg>