<?xml version="1.0" encoding="utf-8"?><svg version="1.1" id="Layer_1" xmlns="http://www.w3.org/2000/svg" xmlns:xlink="http://www.w3.org/1999/xlink" x="0px" y="0px" viewBox="0 0 111.78 122.88" style="enable-background:new 0 0 111.78 122.88" xml:space="preserve"><g><path d="M20.27,104.92c-1.86,0.9-4.09,0.12-4.98-1.74c-0.9-1.86-0.12-4.09,1.74-4.98c4.5-2.17,8.98-3.96,13.43-5.37 c4.48-1.42,8.99-2.46,13.53-3.12c2.31-0.34,4.62-0.57,6.93-0.71V85.3l-10.99-8.18c-0.4-0.53-0.69-1.13-0.86-1.76H21.68l0,0v-0.02 c-3.74,0-7.12-1.51-9.56-3.95c-2.44-2.44-3.95-5.82-3.95-9.56H8.15v0V45.47h-3.5h0v-0.02c-1.28,0-2.45-0.52-3.28-1.36 c-0.83-0.83-1.34-1.98-1.35-3.25L0,40.83v0h0.01v-3.82H0l0,0h0.01c0-1.29,0.52-2.45,1.36-3.28c0.83-0.83,1.98-1.34,3.25-1.35 l0.01-0.01h0h16.69h0v0.01c1.29,0,2.45,0.52,3.28,1.35v0.01c0.83,0.83,1.34,1.98,1.35,3.25l0.01,0.02v0h-0.01v3.82h0.01v0h-0.01 c0,1.29-0.52,2.46-1.35,3.28H24.6c-0.83,0.83-1.98,1.34-3.25,1.34l-0.02,0.02h0h-4.46v16.35v0h-0.02c0,1.3,0.55,2.5,1.43,3.39 c0.88,0.88,2.08,1.43,3.39,1.43v-0.02l0,0h2.86v-7.89c0-3.35,2.95-6.09,6.54-6.09H79.1c3.6,0,6.54,2.74,6.54,6.09v7.89h2.86h0v0.02 c1.3,0,2.51-0.55,3.39-1.43c0.88-0.88,1.43-2.09,1.43-3.39h-0.02v0V45.47h-2.86h0v-0.02c-1.28,0-2.44-0.52-3.28-1.36 c-0.83-0.83-1.34-1.98-1.35-3.25l-0.01-0.02v0h0.01v-3.82H85.8l0,0h0.01c0-1.29,0.53-2.45,1.36-3.28c0.83-0.83,1.98-1.34,3.25-1.35 l0.02-0.01h0h16.69h0v0.01c1.29,0,2.45,0.52,3.28,1.35v0.01c0.83,0.83,1.34,1.98,1.35,3.25l0.01,0.02v0h-0.01v3.82h0.01v0h-0.01 c0,1.28-0.52,2.45-1.36,3.28c-0.83,0.83-1.98,1.34-3.25,1.34l-0.01,0.02h0h-5.1v16.35v0h-0.02c0,3.74-1.51,7.12-3.95,9.56 c-2.44,2.44-5.82,3.95-9.56,3.95v0.02h0H71.56c-0.17,0.77-0.51,1.5-1,2.13l-10.92,7.45v4.05c3.02,0.16,6.03,0.5,9.05,1.02 c8.22,1.41,16.41,4.13,24.59,8.2c1.85,0.92,2.6,3.16,1.68,5.01c-0.92,1.85-3.16,2.6-5.01,1.68c-7.52-3.75-15.03-6.25-22.51-7.53 c-2.6-0.44-5.2-0.74-7.79-0.9v7.17c0,2.41-1.95,4.36-4.36,4.36c-2.41,0-4.36-1.95-4.36-4.36v-7.15c-1.96,0.12-3.92,0.33-5.88,0.61 c-4.08,0.59-8.2,1.55-12.33,2.86C28.54,101.28,24.39,102.93,20.27,104.92L20.27,104.92z M27.84,0h54.5c1.81,0,3.44,1.49,3.28,3.28 l-4.5,42.37c-0.19,1.79-1.48,3.28-3.28,3.28H32.56c-1.8,0-3.12-1.48-3.28-3.28L24.56,3.28C24.4,1.49,26.04,0,27.84,0L27.84,0z M50.22,75.36h10.15H50.22L50.22,75.36z M91.96,110.1c3.53,0,6.39,2.86,6.39,6.39c0,3.53-2.86,6.39-6.39,6.39 c-3.53,0-6.39-2.86-6.39-6.39C85.57,112.96,88.43,110.1,91.96,110.1L91.96,110.1z M55.48,110.1c3.53,0,6.39,2.86,6.39,6.39 c0,3.53-2.86,6.39-6.39,6.39s-6.39-2.86-6.39-6.39C49.09,112.96,51.95,110.1,55.48,110.1L55.48,110.1z M19,110.1 c3.53,0,6.39,2.86,6.39,6.39c0,3.53-2.86,6.39-6.39,6.39c-3.53,0-6.39-2.86-6.39-6.39C12.61,112.96,15.47,110.1,19,110.1L19,110.1z"/></g></svg>