<?xml version="1.0" encoding="iso-8859-1"?>
<!-- Generator: Adobe Illustrator 19.0.0, SVG Export Plug-In . SVG Version: 6.00 Build 0)  -->
<svg version="1.1" id="Capa_1" xmlns="http://www.w3.org/2000/svg" xmlns:xlink="http://www.w3.org/1999/xlink" x="0px" y="0px"
	 viewBox="0 0 384 384" style="enable-background:new 0 0 384 384;" xml:space="preserve">
<g>
	<g>
		<path d="M304,176h-40v-72h8c8.832,0,16-7.168,16-16V16c0-8.832-7.168-16-16-16H112c-8.832,0-16,7.168-16,16v72
			c0,8.832,7.168,16,16,16h8v72H80c-8.832,0-16,7.168-16,16v56c0,8.832,7.168,16,16,16h8v72v8v24c0,8.832,7.168,16,16,16
			c8.832,0,16-7.168,16-16v-16h144v16c0,8.832,7.168,16,16,16c8.832,0,16-7.168,16-16V264h8c8.832,0,16-7.168,16-16v-56
			C320,183.168,312.832,176,304,176z M128,32h128v40H128V32z M232,104v72h-80v-72H232z M264,320H120v-56h144V320z M288,232H96v-24
			h192V232z"/>
	</g>
</g>
<g>
</g>
<g>
</g>
<g>
</g>
<g>
</g>
<g>
</g>
<g>
</g>
<g>
</g>
<g>
</g>
<g>
</g>
<g>
</g>
<g>
</g>
<g>
</g>
<g>
</g>
<g>
</g>
<g>
</g>
</svg>
