<svg xmlns="http://www.w3.org/2000/svg" xmlns:xlink="http://www.w3.org/1999/xlink" viewBox="0 0 50 50"><path d="M25 2C18.984375 2 13.09375 2.957031 12.84375 3C12.363281 3.078125 12 3.511719 12 4L12 8C12 8.292969 12.117188 8.558594 12.34375 8.75C12.570313 8.941406 12.867188 9.046875 13.15625 9C13.214844 8.992188 19.109375 8 25 8C30.890625 8 36.785156 8.992188 36.84375 9C36.898438 9.011719 36.945313 9 37 9C37.234375 9 37.472656 8.902344 37.65625 8.75C37.878906 8.558594 38 8.292969 38 8L38 4C38 3.511719 37.636719 3.078125 37.15625 3C36.910156 2.957031 31.015625 2 25 2 Z M 24 10L24 26L21.5 26C21.5 25.988281 21.5 25.980469 21.5 25.96875L21.0625 10.125C20.371094 10.167969 19.699219 10.226563 19.0625 10.28125L19.5 26L17 26C17 25.980469 17 25.957031 17 25.9375L16.09375 10.59375C15.246094 10.699219 14.542969 10.808594 14.09375 10.875L15 26L12 26C11.449219 26 11 26.449219 11 27L11 30C11 30.554688 11.449219 31 12 31L13 31L13 47C13 47.554688 13.449219 48 14 48L16 48C16.550781 48 17 47.554688 17 47L17 31L33 31L33 47C33 47.554688 33.445313 48 34 48L36 48C36.554688 48 37 47.554688 37 47L37 31L38 31C38.554688 31 39 30.554688 39 30L39 27C39 26.449219 38.554688 26 38 26L35 26L35.90625 10.875C35.457031 10.808594 34.753906 10.699219 33.90625 10.59375L33 25.9375C33 25.957031 33 25.980469 33 26L30.5 26L30.9375 10.28125C30.300781 10.226563 29.628906 10.167969 28.9375 10.125L28.5 25.96875C28.5 25.980469 28.5 25.988281 28.5 26L26 26L26 10C25.667969 9.992188 25.332031 10 25 10C24.667969 10 24.332031 9.992188 24 10 Z M 18 35L18 37L32 37L32 35Z"/></svg>