<?xml version="1.0" encoding="utf-8"?><svg version="1.1" id="Layer_1" xmlns="http://www.w3.org/2000/svg" xmlns:xlink="http://www.w3.org/1999/xlink" x="0px" y="0px" viewBox="0 0 83.23 122.88" style="enable-background:new 0 0 83.23 122.88" xml:space="preserve"><style type="text/css">.st0{fill-rule:evenodd;clip-rule:evenodd;}</style><g><path class="st0" d="M3.28,0h8.62c1.76,0,2.92,1.46,3.2,3.2c3.26,20.54,5.02,41.07,4.93,61.61H79c2.33,0,4.23,1.91,4.23,4.23v8.55 h-3.38v43.71c0,0.7-0.58,1.29-1.29,1.29H67.26c-0.71,0-1.29-0.58-1.29-1.29v-19.02H17.71c-0.7,5.8-1.57,11.6-2.61,17.4 c-0.31,1.73-1.44,3.2-3.2,3.2H3.28c-1.76,0-3.69-1.51-3.2-3.2c11.36-39.56,9-78.23,0-116.48C-0.33,1.49,1.52,0,3.28,0L3.28,0z M65.97,96.4v-18.8H19.85c-0.26,8-0.81,10.81-1.67,18.8H65.97L65.97,96.4z"/></g></svg>