<svg xmlns="http://www.w3.org/2000/svg" xmlns:xlink="http://www.w3.org/1999/xlink" viewBox="0 0 50 50"><path d="M44,3H6C5.448,3,5,3.448,5,4v43h6v-1h28v1h6V4C45,3.448,44.552,3,44,3z M31,19v3c0,0.552-0.448,1-1,1s-1-0.448-1-1v-3 c0-0.552,0.448-1,1-1S31,18.448,31,19z M21,19v3c0,0.552-0.448,1-1,1s-1-0.448-1-1v-3c0-0.552,0.448-1,1-1S21,18.448,21,19z M24,42 c0-0.552,0.448-1,1-1s1,0.448,1,1s-0.448,1-1,1S24,42.552,24,42z M43,40H7v-2h36V40z M24,36c0-0.552,0.448-1,1-1s1,0.448,1,1 s-0.448,1-1,1S24,36.552,24,36z M43,34H7v-2h17V5h2v27h17V34z"/></svg>