<?xml version="1.0" encoding="utf-8"?><svg version="1.1" id="Layer_1" xmlns="http://www.w3.org/2000/svg" xmlns:xlink="http://www.w3.org/1999/xlink" x="0px" y="0px" viewBox="0 0 122.88 73.12" style="enable-background:new 0 0 122.88 73.12" xml:space="preserve"><style type="text/css">.st0{fill-rule:evenodd;clip-rule:evenodd;}</style><g><path class="st0" d="M97.13,61.06c3.25,0,5.88,0.56,5.88,1.25s-2.63,1.25-5.88,1.25c-3.25,0-5.88-0.56-5.88-1.25 S93.88,61.06,97.13,61.06L97.13,61.06z M25.08,14.73v56.31c0,0.58-0.24,1.1-0.61,1.48c-0.38,0.38-0.9,0.61-1.48,0.61h-9.92 c-0.57,0-1.09-0.23-1.47-0.61l0,0l0,0l0,0c-0.38-0.38-0.61-0.9-0.61-1.47V14.73H2.96c-0.82,0-1.56-0.33-2.09-0.87 C0.33,13.32,0,12.58,0,11.77V2.96C0,2.14,0.33,1.4,0.87,0.87S2.14,0,2.96,0h116.96c0.82,0,1.56,0.33,2.09,0.87s0.87,1.28,0.87,2.09 v8.81c0,0.82-0.33,1.56-0.87,2.09c-0.54,0.54-1.28,0.87-2.09,0.87h-0.19v56.31c0,0.57-0.24,1.09-0.61,1.47l-0.01,0.01 c-0.38,0.38-0.9,0.61-1.47,0.61H77.18c-0.58,0-1.1-0.23-1.48-0.61c-0.07-0.07-0.13-0.14-0.19-0.22c-0.27-0.35-0.43-0.79-0.43-1.26 V14.73H25.08L25.08,14.73z M78.54,30.64h37.74V14.73H78.54V30.64L78.54,30.64z M116.28,34.09H78.54V50.3h37.74V34.09L116.28,34.09z M116.28,53.75H78.54v15.93h37.74V53.75L116.28,53.75z M119.43,3.45H3.45v7.83h115.98V3.45L119.43,3.45z M21.63,14.73h-7.21v54.94 h7.21V14.73L21.63,14.73z M97.13,21.27c3.25,0,5.88,0.53,5.88,1.19s-2.63,1.19-5.88,1.19c-3.25,0-5.88-0.53-5.88-1.19 S93.88,21.27,97.13,21.27L97.13,21.27z M97.13,41.13c3.25,0,5.88,0.56,5.88,1.25s-2.63,1.25-5.88,1.25c-3.25,0-5.88-0.56-5.88-1.25 S93.88,41.13,97.13,41.13L97.13,41.13z"/></g></svg>