<?xml version="1.0" encoding="utf-8"?><svg version="1.1" id="Layer_1" xmlns="http://www.w3.org/2000/svg" xmlns:xlink="http://www.w3.org/1999/xlink" x="0px" y="0px" viewBox="0 0 122.88 107.43" style="enable-background:new 0 0 122.88 107.43" xml:space="preserve"><style type="text/css">.st0{fill-rule:evenodd;clip-rule:evenodd;}</style><g><path class="st0" d="M99.89,96.65c2.9,0,5.25,0.5,5.25,1.12c0,0.62-2.35,1.12-5.25,1.12c-2.9,0-5.25-0.5-5.25-1.12 C94.63,97.16,96.98,96.65,99.89,96.65L99.89,96.65z M33.47,0h52.4c0.83,0,1.51,0.68,1.51,1.5v31.18c0,0.83-0.68,1.51-1.51,1.51 h-52.4c-0.83,0-1.51-0.68-1.51-1.51V1.51C31.96,0.68,32.64,0,33.47,0L33.47,0L33.47,0z M52.84,36.27H66.5 c0.03,2.23,0.9,4.24,3.21,5.86h50.52c0.73,0,1.39,0.3,1.87,0.77c0.48,0.48,0.78,1.14,0.78,1.87v7.86c0,0.73-0.3,1.39-0.78,1.87 c-0.48,0.48-1.14,0.78-1.87,0.78h-0.17v50.28c0,0.51-0.21,0.98-0.55,1.31l-0.01,0.01c-0.34,0.34-0.8,0.55-1.31,0.55H82.07 c-0.51,0-0.98-0.21-1.32-0.55c-0.06-0.06-0.12-0.13-0.17-0.2c-0.24-0.31-0.38-0.7-0.38-1.12V55.28H22.39v50.28 c0,0.52-0.21,0.98-0.55,1.32c-0.34,0.34-0.81,0.55-1.32,0.55h-8.86c-0.51,0-0.97-0.21-1.31-0.55l0,0l0,0l0,0 c-0.34-0.34-0.55-0.8-0.55-1.31V55.28H2.64c-0.73,0-1.39-0.3-1.87-0.78C0.3,54.02,0,53.36,0,52.63v-7.86c0-0.73,0.3-1.39,0.78-1.87 c0.48-0.48,1.14-0.77,1.87-0.77h46.94C51.49,40.65,52.85,38.85,52.84,36.27L52.84,36.27L52.84,36.27z M59.67,29.11 c1.07,0,1.93,0.87,1.93,1.93c0,1.07-0.87,1.93-1.93,1.93c-1.07,0-1.94-0.87-1.94-1.93C57.74,29.98,58.6,29.11,59.67,29.11 L59.67,29.11z M36.49,2.84h46.35c0.73,0,1.33,0.6,1.33,1.33v22.4c0,0.73-0.6,1.33-1.33,1.33H36.49c-0.73,0-1.33-0.6-1.33-1.33V4.17 C35.16,3.44,35.76,2.84,36.49,2.84L36.49,2.84L36.49,2.84z M83.28,69.49h33.7v-14.2h-33.7V69.49L83.28,69.49z M116.99,72.56h-33.7 v14.48h33.7V72.56L116.99,72.56z M116.99,90.13h-33.7v14.22h33.7V90.13L116.99,90.13z M119.8,45.2H3.08v6.99H119.8V45.2L119.8,45.2 z M19.31,55.28h-6.44v49.06h6.44V55.28L19.31,55.28z M99.89,61.12c2.9,0,5.25,0.47,5.25,1.06s-2.35,1.06-5.25,1.06 c-2.9,0-5.25-0.48-5.25-1.06S96.98,61.12,99.89,61.12L99.89,61.12z M99.89,78.86c2.9,0,5.25,0.5,5.25,1.12 c0,0.62-2.35,1.12-5.25,1.12c-2.9,0-5.25-0.5-5.25-1.12C94.63,79.36,96.98,78.86,99.89,78.86L99.89,78.86z"/></g></svg>