<?xml version="1.0" encoding="utf-8"?><svg version="1.1" id="Layer_1" xmlns="http://www.w3.org/2000/svg" xmlns:xlink="http://www.w3.org/1999/xlink" x="0px" y="0px" viewBox="0 0 121.9 122.88" style="enable-background:new 0 0 121.9 122.88" xml:space="preserve"><g><path d="M47.76,91.69c-0.4-1.05,0.12-2.23,1.18-2.63c1.05-0.4,2.23,0.12,2.63,1.18c0.58,1.52,1.16,2.4,1.88,2.85 c0.73,0.46,1.82,0.6,3.38,0.6h7.1h0.17v0.01c3.02,0,5.34,0,6.22-3.08c0.31-1.09,1.44-1.72,2.53-1.41c1.09,0.31,1.72,1.44,1.41,2.53 c-1.73,6.05-5.38,6.05-10.16,6.04v0.01h-0.17h-7.1c-2.31,0-4.05-0.29-5.56-1.24C49.76,95.59,48.69,94.09,47.76,91.69L47.76,91.69z M17.15,9.44h88.13c1,0,1.92,0.41,2.58,1.07c0.66,0.66,1.07,1.57,1.07,2.58v22.99c0,1-0.41,1.92-1.07,2.58 c-0.66,0.66-1.57,1.07-2.58,1.07H17.15c-1,0-1.92-0.41-2.58-1.07c-0.66-0.66-1.07-1.57-1.07-2.58V13.09c0-1,0.41-1.91,1.07-2.57 l0,0l0,0l0,0C15.25,9.85,16.16,9.44,17.15,9.44L17.15,9.44z M104.83,13.54H17.6v22.09h87.23V13.54L104.83,13.54z M17.15,44.27 h88.13c1,0,1.92,0.41,2.58,1.07c0.66,0.66,1.07,1.57,1.07,2.58v22.99c0,1-0.41,1.92-1.07,2.58c-0.66,0.66-1.57,1.07-2.58,1.07 H17.15c-1,0-1.92-0.41-2.58-1.07c-0.66-0.66-1.07-1.57-1.07-2.58V47.92c0-1,0.41-1.91,1.07-2.57l0,0l0,0l0,0 C15.25,44.68,16.16,44.27,17.15,44.27L17.15,44.27z M104.83,48.37H17.6v22.09h87.23V48.37L104.83,48.37z M17.15,79.1h88.13 c1,0,1.92,0.41,2.58,1.07c0.66,0.66,1.07,1.57,1.07,2.58v22.99c0,1-0.41,1.92-1.07,2.58c-0.66,0.66-1.57,1.07-2.58,1.07H17.15 c-1,0-1.92-0.41-2.58-1.07c-0.66-0.66-1.07-1.57-1.07-2.58V82.75c0-1.01,0.41-1.92,1.07-2.58c0.06-0.06,0.11-0.11,0.17-0.15 C15.39,79.44,16.24,79.1,17.15,79.1L17.15,79.1z M104.83,83.19H17.6v22.09h87.23V83.19L104.83,83.19z M2.05,4.1 C0.92,4.1,0,3.18,0,2.05C0,0.92,0.92,0,2.05,0h117.81c1.13,0,2.05,0.92,2.05,2.05c0,1.13-0.92,2.05-2.05,2.05h-1.7v116.73 c0,1.13-0.92,2.05-2.05,2.05c-1.13,0-2.05-0.92-2.05-2.05V4.1H8.7v116.73c0,1.13-0.92,2.05-2.05,2.05c-1.13,0-2.05-0.92-2.05-2.05 V4.1H2.05L2.05,4.1z M47.76,20.69c-0.4-1.05,0.12-2.23,1.18-2.63c1.05-0.4,2.23,0.12,2.63,1.18c0.58,1.52,1.16,2.4,1.88,2.85 c0.73,0.46,1.82,0.6,3.38,0.6h7.1h0.17v0.01c3.02,0,5.34,0,6.22-3.08c0.31-1.09,1.44-1.72,2.53-1.41c1.09,0.31,1.72,1.44,1.41,2.53 c-1.73,6.05-5.38,6.05-10.16,6.04v0.01h-0.17h-7.1c-2.31,0-4.05-0.29-5.56-1.24C49.76,24.59,48.69,23.09,47.76,20.69L47.76,20.69z M47.76,56.19c-0.4-1.05,0.12-2.23,1.18-2.63c1.05-0.4,2.23,0.12,2.63,1.18c0.58,1.52,1.16,2.4,1.88,2.85 c0.73,0.46,1.82,0.6,3.38,0.6h7.1h0.17v0.01c3.02,0,5.34,0,6.22-3.08c0.31-1.09,1.44-1.72,2.53-1.41c1.09,0.31,1.72,1.44,1.41,2.53 c-1.73,6.05-5.38,6.05-10.16,6.04v0.01h-0.17h-7.1c-2.31,0-4.05-0.29-5.56-1.24C49.76,60.09,48.69,58.59,47.76,56.19L47.76,56.19z"/></g></svg>