<?xml version="1.0" encoding="utf-8"?><svg version="1.1" id="Layer_1" xmlns="http://www.w3.org/2000/svg" xmlns:xlink="http://www.w3.org/1999/xlink" x="0px" y="0px" viewBox="0 0 112.47 122.88" style="enable-background:new 0 0 112.47 122.88" xml:space="preserve"><g><path d="M30.24,19.06c0,1.21-0.98,2.19-2.19,2.19s-2.19-0.98-2.19-2.19c0-1.21,0.98-2.19,2.19-2.19S30.24,17.85,30.24,19.06 L30.24,19.06z M8.65,102.95v19.93h-2.7v-19.93H2.49c-0.68,0-1.3-0.28-1.75-0.73l0,0l0,0l0,0C0.28,101.77,0,101.15,0,100.47V84.82 c0-0.68,0.28-1.31,0.73-1.76c0.04-0.04,0.07-0.07,0.11-0.1c0.44-0.39,1.02-0.63,1.64-0.63h2.64V65.14h4.16 c-0.02-2.83-0.33-4.13-3.2-4.4c-0.59-0.05-1.03-0.58-0.97-1.17c0.05-0.59,0.58-1.03,1.17-0.97c4.79,0.45,5.16,2.36,5.16,6.54h3.82 v17.19h5.3V3.41c0-0.94,0.38-1.79,1-2.4l0,0l0,0c0.62-0.62,1.47-1,2.41-1h65.1c0.94,0,1.79,0.39,2.41,1.01l0,0 c0.62,0.62,1,1.47,1,2.42v78.92h5.11v-9.19c0-0.04,0-0.07,0-0.11c0-0.04,0-0.07,0-0.11V64.9c0-0.74,0.6-1.35,1.35-1.35h8.2 c0.74,0,1.35,0.6,1.35,1.35v7.9c0.01,0.08,0.02,0.16,0.02,0.24c0,0.08-0.01,0.16-0.02,0.24v9.06h1.49c0.68,0,1.3,0.28,1.75,0.73 l0,0c0.45,0.45,0.73,1.07,0.73,1.76v15.64c0,0.68-0.28,1.3-0.73,1.75l0,0l0,0l0,0c-0.45,0.45-1.07,0.73-1.75,0.73h-3.57v19.41h-2.7 v-19.41H8.65L8.65,102.95z M59.5,85.04v1.98h-5.96v-1.98H35.61v7.04h41.82v-7.04H59.5L59.5,85.04z M80.13,85.04v8.39 c0,0.74-0.6,1.35-1.35,1.35H34.26c-0.74,0-1.35-0.6-1.35-1.35v-8.39H2.7v15.22h107.08V85.04H80.13L80.13,85.04z M35.58,12.68h41.86 c0.74,0,1.41,0.3,1.89,0.79c0.49,0.49,0.79,1.16,0.79,1.89v66.96h9.66V3.42c0-0.2-0.08-0.38-0.21-0.51l0,0l0,0 c-0.13-0.13-0.31-0.21-0.51-0.21h-65.1c-0.19,0-0.37,0.08-0.5,0.21l0,0c-0.13,0.13-0.21,0.31-0.21,0.5v78.91h9.66V15.35 c0-0.73,0.3-1.4,0.78-1.88l0,0l0,0C34.18,12.98,34.85,12.68,35.58,12.68L35.58,12.68z M77.43,15.38H35.61v66.94h41.82V15.38 L77.43,15.38z M28.81,5.75c1.21,0,2.19,0.98,2.19,2.19c0,1.21-0.98,2.19-2.19,2.19c-1.21,0-2.19-0.98-2.19-2.19 C26.62,6.73,27.6,5.75,28.81,5.75L28.81,5.75z M83.94,5.75c1.21,0,2.19,0.98,2.19,2.19c0,1.21-0.98,2.19-2.19,2.19 c-1.21,0-2.19-0.98-2.19-2.19C81.75,6.73,82.73,5.75,83.94,5.75L83.94,5.75z M72.91,5.75c1.21,0,2.19,0.98,2.19,2.19 c0,1.21-0.98,2.19-2.19,2.19c-1.21,0-2.19-0.98-2.19-2.19C70.72,6.73,71.7,5.75,72.91,5.75L72.91,5.75z M61.89,5.75 c1.21,0,2.19,0.98,2.19,2.19c0,1.21-0.98,2.19-2.19,2.19c-1.21,0-2.19-0.98-2.19-2.19C59.7,6.73,60.68,5.75,61.89,5.75L61.89,5.75z M50.86,5.75c1.21,0,2.19,0.98,2.19,2.19c0,1.21-0.98,2.19-2.19,2.19s-2.19-0.98-2.19-2.19C48.67,6.73,49.65,5.75,50.86,5.75 L50.86,5.75z M39.83,5.75c1.21,0,2.19,0.98,2.19,2.19c0,1.21-0.98,2.19-2.19,2.19c-1.21,0-2.19-0.98-2.19-2.19 C37.64,6.73,38.62,5.75,39.83,5.75L39.83,5.75z M86.89,63.17c0,1.21-0.98,2.19-2.19,2.19c-1.21,0-2.19-0.98-2.19-2.19 c0-1.21,0.98-2.19,2.19-2.19C85.91,60.98,86.89,61.96,86.89,63.17L86.89,63.17z M86.89,52.14c0,1.21-0.98,2.19-2.19,2.19 c-1.21,0-2.19-0.98-2.19-2.19c0-1.21,0.98-2.19,2.19-2.19C85.91,49.95,86.89,50.93,86.89,52.14L86.89,52.14z M86.89,41.11 c0,1.21-0.98,2.19-2.19,2.19c-1.21,0-2.19-0.98-2.19-2.19c0-1.21,0.98-2.19,2.19-2.19C85.91,38.92,86.89,39.91,86.89,41.11 L86.89,41.11z M86.89,30.09c0,1.21-0.98,2.19-2.19,2.19c-1.21,0-2.19-0.98-2.19-2.19c0-1.21,0.98-2.19,2.19-2.19 C85.91,27.9,86.89,28.88,86.89,30.09L86.89,30.09z M86.89,19.06c0,1.21-0.98,2.19-2.19,2.19c-1.21,0-2.19-0.98-2.19-2.19 c0-1.21,0.98-2.19,2.19-2.19C85.91,16.87,86.89,17.85,86.89,19.06L86.89,19.06z M30.24,63.17c0,1.21-0.98,2.19-2.19,2.19 s-2.19-0.98-2.19-2.19c0-1.21,0.98-2.19,2.19-2.19S30.24,61.96,30.24,63.17L30.24,63.17z M30.24,52.14c0,1.21-0.98,2.19-2.19,2.19 s-2.19-0.98-2.19-2.19c0-1.21,0.98-2.19,2.19-2.19S30.24,50.93,30.24,52.14L30.24,52.14z M30.24,41.11c0,1.21-0.98,2.19-2.19,2.19 s-2.19-0.98-2.19-2.19c0-1.21,0.98-2.19,2.19-2.19S30.24,39.91,30.24,41.11L30.24,41.11z M30.24,30.09c0,1.21-0.98,2.19-2.19,2.19 s-2.19-0.98-2.19-2.19c0-1.21,0.98-2.19,2.19-2.19S30.24,28.88,30.24,30.09L30.24,30.09z M100.3,71.7h5.5v-5.44h-5.5V71.7 L100.3,71.7z M105.8,74.39h-5.5v7.91h5.5V74.39L105.8,74.39z M99.06,91.39c1.18,0,2.14,0.96,2.14,2.14c0,1.18-0.96,2.14-2.14,2.14 c-1.18,0-2.14-0.96-2.14-2.14C96.92,92.35,97.88,91.39,99.06,91.39L99.06,91.39z M21.88,91.39c1.18,0,2.14,0.96,2.14,2.14 c0,1.18-0.96,2.14-2.14,2.14s-2.14-0.96-2.14-2.14C19.73,92.35,20.69,91.39,21.88,91.39L21.88,91.39z M13.63,91.39 c1.18,0,2.14,0.96,2.14,2.14c0,1.18-0.96,2.14-2.14,2.14c-1.18,0-2.14-0.96-2.14-2.14C11.48,92.35,12.44,91.39,13.63,91.39 L13.63,91.39z M90.81,91.39c1.18,0,2.14,0.96,2.14,2.14c0,1.18-0.96,2.14-2.14,2.14c-1.18,0-2.14-0.96-2.14-2.14 C88.67,92.35,89.63,91.39,90.81,91.39L90.81,91.39z M21.39,122.5h-2.7v-9.16c0-0.71,0.29-1.35,0.76-1.81l0.01-0.01 c0.47-0.47,1.11-0.76,1.81-0.76h70.36c0.71,0,1.35,0.29,1.81,0.76l0.01,0.01c0.47,0.47,0.76,1.11,0.76,1.81v9.16h-2.7v-9.04H21.39 V122.5L21.39,122.5z"/></g></svg>