<svg xmlns="http://www.w3.org/2000/svg" xmlns:xlink="http://www.w3.org/1999/xlink" viewBox="0 0 50 50"><path d="M19.960938 4C17.620938 4 15.799531 6.1298438 16.019531 8.5898438L17.410156 24.099609C17.410156 24.109609 17.409922 24.130625 17.419922 24.140625C17.769922 24.050625 18.13 24 18.5 24L31.5 24C31.87 24 32.230078 24.050625 32.580078 24.140625C32.590078 24.130625 32.589844 24.109609 32.589844 24.099609L33.980469 8.5898438C34.200469 6.1298438 32.379063 4 30.039062 4L19.960938 4 z M 10 18C9.45 18 8.9498437 18.219844 8.5898438 18.589844C8.2198437 18.949844 8 19.45 8 20C8 21.1 8.9 22 10 22L12 22C12.55 22 13.050156 21.780156 13.410156 21.410156C13.780156 21.050156 14 20.55 14 20C14 19.64 13.900469 19.29 13.730469 19C13.380469 18.4 12.74 18 12 18L10 18 z M 38 18C37.45 18 36.949844 18.219844 36.589844 18.589844C36.459844 18.709844 36.359531 18.85 36.269531 19C36.099531 19.29 36 19.64 36 20C36 21.1 36.9 22 38 22L40 22C40.55 22 41.050156 21.780156 41.410156 21.410156C41.780156 21.050156 42 20.55 42 20C42 18.9 41.1 18 40 18L38 18 z M 12.130859 23.990234C12.090859 24.000234 12.04 24 12 24L10.089844 24C10.449844 26.17 11.979766 27.950156 14.009766 28.660156C13.999766 28.610156 14 28.55 14 28.5C14 27.84 14.140391 27.220156 14.400391 26.660156C13.280391 26.170156 12.430859 25.190234 12.130859 23.990234 z M 37.869141 23.990234C37.569141 25.190234 36.719609 26.170156 35.599609 26.660156C35.859609 27.220156 36 27.84 36 28.5C36 28.55 36.000234 28.610156 35.990234 28.660156C38.020234 27.950156 39.550156 26.17 39.910156 24L38 24C37.96 24 37.909141 24.000234 37.869141 23.990234 z M 18.5 26C17.119 26 16 27.119 16 28.5C16 29.881 17.119 31 18.5 31L31.5 31C32.881 31 34 29.881 34 28.5C34 27.119 32.881 26 31.5 26L18.5 26 z M 24 33L24 36L23 36L23 40L22 40C20.349187 40 18.675836 40.637071 17.347656 41.677734C16.019477 42.718398 15 44.228458 15 46 A 1.0001 1.0001 0 1 0 17 46C17 45.010542 17.600461 44.02104 18.582031 43.251953C19.563602 42.482867 20.889813 42 22 42L24 42L24 46 A 1.0001 1.0001 0 1 0 26 46L26 42L28 42C29.110187 42 30.436398 42.482867 31.417969 43.251953C32.399539 44.02104 33 45.010542 33 46 A 1.0001 1.0001 0 1 0 35 46C35 44.228458 33.980523 42.718398 32.652344 41.677734C31.324164 40.637071 29.650813 40 28 40L27 40L27 36L26 36L26 33L24 33 z"/></svg>