<svg xmlns="http://www.w3.org/2000/svg" xmlns:xlink="http://www.w3.org/1999/xlink" viewBox="0 0 50 50"><path d="M7.2265625 1.9882812 A 1.0001 1.0001 0 0 0 6.4042969 3.6054688C10.494657 8.9812606 13 16.110384 13 23.943359C13 28.427548 12.172371 32.675982 10.703125 36.501953C10.23352 36.05118 9.7830805 35.579661 9.3613281 35.082031C8.868027 34.499356 8.1901632 34.142363 7.4746094 34.035156C6.7590555 33.927949 6.0062674 34.070883 5.359375 34.488281C3.913428 35.420147 3.5540173 37.455865 4.6738281 38.783203C9.5870326 44.601938 17.044718 48 25.037109 48C32.969375 48 40.391276 44.643539 45.306641 38.894531C46.436401 37.573953 46.087173 35.534633 44.648438 34.59375C43.359029 33.751475 41.636122 34.007129 40.642578 35.166016C40.214425 35.664783 39.755942 36.136757 39.279297 36.587891C37.82032 32.874367 37 28.752816 37 24.404297C37 23.275582 37.063402 22.165111 37.169922 21.070312C38.212176 21.323809 39 22.289762 39 23.5L39 24 A 1.0001 1.0001 0 1 0 41 24L41 23.5C41 21.046565 39.053206 19 36.630859 19L21.830078 19C21.678935 16.423295 20.682536 12.808688 18.816406 9.4628906C16.630693 5.544109 13.103624 2 8.1992188 2L7.4472656 2 A 1.0001 1.0001 0 0 0 7.3632812 2.0039062 A 1.0001 1.0001 0 0 0 7.2265625 1.9882812 z M 9.1796875 4.0683594C12.627538 4.4995104 15.243266 7.1652751 17.068359 10.4375C18.732972 13.421995 19.621921 16.880637 19.806641 19L14.607422 19C13.877799 13.44422 11.994959 8.330486 9.1796875 4.0683594 z M 14.765625 21L19.757812 21C19.566094 22.904344 19.189437 24.632392 18.791016 25.597656 A 1.0001 1.0001 0 0 0 19.714844 26.978516L32.441406 26.978516C33.79997 26.978516 34.953333 27.923184 35.322266 29.251953 A 1.0001 1.0001 0 0 0 35.349609 29.347656C35.426186 29.903162 35.51362 30.454395 35.615234 31L14.332031 31C14.763346 28.725988 15 26.367321 15 23.943359C15 22.937665 14.842178 21.982688 14.765625 21 z M 21.759766 21L35.169922 21C35.064819 22.119289 35 23.252524 35 24.404297C35 24.854684 35.018793 25.300231 35.035156 25.746094C34.277635 25.267214 33.39534 24.978516 32.441406 24.978516L20.910156 24.978516C21.259309 23.791507 21.592103 22.516649 21.759766 21 z M 13.898438 32.994141 A 1.0001 1.0001 0 0 0 14 33L36 33 A 1.0001 1.0001 0 0 0 36.046875 32.998047C36.470311 34.710735 37.016927 36.36277 37.675781 37.945312C34.16612 40.611536 29.729684 42.128906 25.037109 42.128906C20.296791 42.128906 15.827398 40.587802 12.306641 37.878906C12.944233 36.314218 13.479579 34.683875 13.898438 32.994141 z M 7.1796875 36.013672C7.4293836 36.051462 7.6652855 36.175721 7.8339844 36.375L7.8359375 36.375C11.986784 41.272621 18.284133 44.128906 25.037109 44.128906C30.361898 44.128906 35.407623 42.341353 39.341797 39.181641 A 1.0001 1.0001 0 0 0 39.673828 38.916016C40.566034 38.169934 41.399402 37.353158 42.160156 36.466797C42.500182 36.070186 43.106304 35.977195 43.552734 36.267578C44.055998 36.596695 44.147396 37.170328 43.785156 37.59375C39.266524 42.878742 32.404844 46 25.037109 46C17.611501 46 10.717967 42.843406 6.2011719 37.494141C5.8424119 37.069446 5.9378127 36.493777 6.4433594 36.167969C6.667467 36.023367 6.9299914 35.975879 7.1796875 36.013672 z"/></svg>