<svg xmlns="http://www.w3.org/2000/svg" xmlns:xlink="http://www.w3.org/1999/xlink" viewBox="0 0 50 50"><path d="M15.349609 5C11.099609 5 7 8 7 12L7 16C7.004 16 8.5820312 16.027344 8.5820312 16.027344C11.619031 16.317344 14 19.015875 14 22.171875L14 26L36 26L36 22.171875C36 19.015875 38.380969 16.317344 41.417969 16.027344C41.617969 16.008344 43 16 43 16L43 12C43 8 38.900391 5 34.650391 5L15.349609 5 z M 8 18C5.796 18.006 4 19.795 4 22C4 23.862 5.278 25.412375 7 25.859375L7 34C7 37.866 10.134 41 14 41L36 41C39.866 41 43 37.866 43 34L43 25.859375C44.722 25.412375 46 23.862 46 22C46 19.799 44.198 18.013 42 18C41.863 17.999 41.747422 18.005531 41.607422 18.019531C39.527422 18.217531 38 20.082875 38 22.171875L38 33C38 34.105 37.105 35 36 35L14 35C12.895 35 12 34.105 12 33L12 22.171875C12 20.082875 10.472578 18.217531 8.3925781 18.019531C8.2565781 18.006531 8.133 18 8 18 z M 16 28C14.895 28 14 28.895 14 30L14 33L36 33L36 30C36 28.895 35.105 28 34 28L16 28 z M 10 42.050781L10 44C10 44.553 10.448 45 11 45L14 45C14.552 45 15 44.553 15 44L15 43L14 43C12.562 43 11.207 42.653781 10 42.050781 z M 40 42.050781C38.793 42.653781 37.438 43 36 43L35 43L35 44C35 44.553 35.448 45 36 45L39 45C39.552 45 40 44.553 40 44L40 42.050781 z"/></svg>