<svg xmlns="http://www.w3.org/2000/svg" xmlns:xlink="http://www.w3.org/1999/xlink" viewBox="0 0 50 50"><path d="M15.349609 5C10.775868 5 6.9980469 8.5664884 6.9980469 13L6.9980469 17.414062C5.5791994 18.02413 4.4963604 19.278358 4.1386719 20.810547C3.5614356 23.284261 4.9220084 25.536326 6.9980469 26.476562L6.9980469 34C6.9980469 36.36797 8.1885285 38.464532 9.9980469 39.732422L9.9980469 44 A 1.0001 1.0001 0 0 0 10.998047 45L14.998047 45 A 1.0001 1.0001 0 0 0 15.998047 44L15.998047 41L34 41L34 44 A 1.0001 1.0001 0 0 0 35 45L39 45 A 1.0001 1.0001 0 0 0 40 44L40 39.732422C41.809518 38.464532 43 36.36797 43 34L43 26.494141C44.74513 25.715042 46 24.028851 46 22C46 19.963117 44.757157 18.207008 43 17.429688L43 13C43 8.5664884 39.224132 5 34.650391 5L15.349609 5 z M 15.349609 7L34.650391 7C38.19465 7 41 9.7015116 41 13L41 17.001953C40.838681 17.001741 40.676 17.007739 40.511719 17.023438C37.887643 17.273229 36 19.59556 36 22.171875L36 27L13.998047 27L13.998047 22C13.998047 19.252489 11.723174 17.016761 8.9980469 17.003906L8.9980469 13C8.9980469 9.7015116 11.80535 7 15.349609 7 z M 9.0175781 18.998047C10.70154 18.995038 11.998047 20.335835 11.998047 22L11.998047 32C11.998047 33.64497 13.353077 35 14.998047 35L35 35C36.64497 35 38 33.64497 38 32L38 22.171875C38 20.57019 39.165247 19.15988 40.701172 19.013672C42.518895 18.839975 44 20.233039 44 22C44 23.404427 43.042353 24.554647 41.748047 24.890625 A 1.0001 1.0001 0 0 0 41 25.859375L41 34C41 36.773666 38.773666 39 36 39L13.998047 39C11.224381 39 8.9980469 36.773666 8.9980469 34L8.9980469 25.869141 A 1.0001 1.0001 0 0 0 8.2480469 24.902344C6.7389781 24.512907 5.675984 23.020505 6.0859375 21.263672C6.331147 20.213297 7.2238514 19.325633 8.2753906 19.083984C8.5291498 19.0257 8.7770122 18.998477 9.0175781 18.998047 z M 13.998047 29L36 29L36 32C36 32.56503 35.56503 33 35 33L14.998047 33C14.433017 33 13.998047 32.56503 13.998047 32L13.998047 29 z M 11.998047 40.703125C12.632402 40.893215 13.303387 41 13.998047 41L13.998047 43L11.998047 43L11.998047 40.703125 z M 38 40.703125L38 43L36 43L36 41C36.69466 41 37.365645 40.893215 38 40.703125 z"/></svg>