<svg xmlns="http://www.w3.org/2000/svg" xmlns:xlink="http://www.w3.org/1999/xlink" viewBox="0 0 50 50"><path d="M13.9375 12C8.488281 12 4.03125 16.425781 4.03125 21.875L4.03125 22.125C4.445313 22.050781 4.878906 22 5.3125 22C8.414063 22 11.214844 24.046875 12.1875 27L12.96875 28.6875C15.492188 28.023438 20.199219 27 25.125 27C29.996094 27 34.488281 27.96875 37.03125 28.65625L37.9375 26.625C38.996094 23.863281 41.699219 22 44.6875 22C45.121094 22 45.554688 22.050781 45.96875 22.125L45.96875 21.875C45.96875 16.425781 41.511719 12 36.0625 12 Z M 5.3125 24C2.40625 24 0.03125 26.375 0.03125 29.28125C0.03125 31.457031 1.394531 33.378906 3.40625 34.15625L5.84375 40.4375C6.84375 43.902344 11.269531 44 11.78125 44L38.25 44C38.75 44 43.152344 43.910156 44.125 40.53125L46.59375 34.15625C48.605469 33.378906 49.96875 31.457031 49.96875 29.28125C49.96875 26.375 47.59375 24 44.6875 24C42.507813 24 40.523438 25.382813 39.78125 27.375L38.125 31.09375C35.945313 30.398438 30.75 29 25.125 29C19.65625 29 14.125 30.378906 11.84375 31.09375L10.3125 27.71875C9.636719 25.523438 7.601563 24 5.3125 24 Z M 6.125 44.21875L5.3125 45.875C4.972656 46.554688 4.914063 47.339844 5.15625 48.0625C5.398438 48.785156 5.882813 49.347656 6.5625 49.6875C6.960938 49.886719 7.398438 50 7.84375 50C8.929688 50 9.917969 49.410156 10.40625 48.4375L11.59375 46C9.796875 45.972656 7.714844 45.453125 6.125 44.21875 Z M 43.875 44.25C42.289063 45.476563 40.210938 45.972656 38.40625 46L39.59375 48.4375C40.082031 49.40625 41.070313 50 42.15625 50C42.59375 50 43.03125 49.886719 43.4375 49.6875C44.839844 48.984375 45.386719 47.277344 44.6875 45.875Z"/></svg>