<svg xmlns="http://www.w3.org/2000/svg" xmlns:xlink="http://www.w3.org/1999/xlink" viewBox="0 0 24 24"><path d="M7 4C5.3550302 4 4 5.3550302 4 7L4 8.1816406C3.7749277 8.0988815 3.5394844 8.0375539 3.2871094 8.0136719L3.2851562 8.0136719L3.2832031 8.0136719C2.6956383 7.9593227 2.0975168 8.0789836 1.5742188 8.3613281C0.16654993 9.1184219 -0.29860155 10.832824 0.26367188 12.236328L1.9628906 16.486328C2.4842054 17.787329 3.6480233 18.703727 5 18.9375L5 21L7 21L7 19L17 19L17 21L19 21L19 18.935547C20.352474 18.701653 21.51686 17.786714 22.037109 16.484375L23.769531 12.214844L23.771484 12.212891C24.310637 10.863481 23.896019 9.2254763 22.582031 8.4355469C22.112992 8.1535386 21.573166 8 21.027344 8C20.669496 8 20.324639 8.0704493 20 8.1894531L20 7C20 5.3550302 18.64497 4 17 4L7 4 z M 7 6L17 6C17.56503 6 18 6.4349698 18 7L18 10.474609L16.972656 13L7.03125 13L6 10.421875L6 7C6 6.4349698 6.4349698 6 7 6 z M 21.027344 10C21.211522 10 21.377821 10.044449 21.550781 10.148438C21.946794 10.386508 22.114863 10.96816 21.914062 11.470703L20.179688 15.740234L20.179688 15.742188C19.875347 16.503993 19.143398 17 18.322266 17L5.6777344 17C4.8584657 17 4.125776 16.504733 3.8203125 15.744141L3.8203125 15.742188L2.1210938 11.494141L2.1210938 11.492188C1.9097193 10.964664 2.0972168 10.35068 2.5214844 10.123047L2.5234375 10.121094C2.7075381 10.021764 2.8861235 9.9846829 3.0976562 10.003906C3.4440291 10.036686 3.8135404 10.336585 3.984375 10.763672L5.6777344 15L18.318359 15L20.09375 10.634766L20.095703 10.630859C20.248971 10.247062 20.61453 10 21.027344 10 z"/></svg>