<svg xmlns="http://www.w3.org/2000/svg" xmlns:xlink="http://www.w3.org/1999/xlink" viewBox="0 0 50 50"><path d="M11.349609 8C7.0996094 8 3.5892656 11.06 3.0722656 15L4 15L4 15.001953C4.004 15.001953 4.0077187 15 4.0117188 15C4.2047187 15 4.3830313 15.008344 4.5820312 15.027344C7.6190313 15.317344 10 18.015875 10 21.171875L10 25L40 25L40 21.171875C40 18.015875 42.380969 15.317344 45.417969 15.027344C45.617969 15.008344 45.783562 15 45.976562 15L46.005859 15L46.927734 15C46.410734 11.06 42.900391 8 38.650391 8L11.349609 8 z M 13 12C13.552 12 14 12.448 14 13C14 13.552 13.552 14 13 14C12.448 14 12 13.552 12 13C12 12.448 12.448 12 13 12 z M 21 12C21.552 12 22 12.448 22 13C22 13.552 21.552 14 21 14C20.448 14 20 13.552 20 13C20 12.448 20.448 12 21 12 z M 29 12C29.552 12 30 12.448 30 13C30 13.552 29.552 14 29 14C28.448 14 28 13.552 28 13C28 12.448 28.448 12 29 12 z M 37 12C37.552 12 38 12.448 38 13C38 13.552 37.552 14 37 14C36.448 14 36 13.552 36 13C36 12.448 36.448 12 37 12 z M 17 16C17.552 16 18 16.448 18 17C18 17.552 17.552 18 17 18C16.448 18 16 17.552 16 17C16 16.448 16.448 16 17 16 z M 25 16C25.552 16 26 16.448 26 17C26 17.552 25.552 18 25 18C24.448 18 24 17.552 24 17C24 16.448 24.448 16 25 16 z M 33 16C33.552 16 34 16.448 34 17C34 17.552 33.552 18 33 18C32.448 18 32 17.552 32 17C32 16.448 32.448 16 33 16 z M 4 17C1.796 17.006 0 18.795 0 21C0 22.862 1.278 24.412375 3 24.859375L3 33C3 36.866 6.134 40 10 40L40 40C43.866 40 47 36.866 47 33L47 24.859375C48.722 24.412375 50 22.862 50 21C50 18.799 48.198 17.013 46 17C45.863 16.999 45.747422 17.005531 45.607422 17.019531C43.527422 17.217531 42 19.082875 42 21.171875L42 32C42 33.105 41.105 34 40 34L10 34C8.895 34 8 33.105 8 32L8 21.171875C8 19.082875 6.4725781 17.217531 4.3925781 17.019531C4.2565781 17.006531 4.133 17 4 17 z M 13 20C13.552 20 14 20.448 14 21C14 21.552 13.552 22 13 22C12.448 22 12 21.552 12 21C12 20.448 12.448 20 13 20 z M 21 20C21.552 20 22 20.448 22 21C22 21.552 21.552 22 21 22C20.448 22 20 21.552 20 21C20 20.448 20.448 20 21 20 z M 29 20C29.552 20 30 20.448 30 21C30 21.552 29.552 22 29 22C28.448 22 28 21.552 28 21C28 20.448 28.448 20 29 20 z M 37 20C37.552 20 38 20.448 38 21C38 21.552 37.552 22 37 22C36.448 22 36 21.552 36 21C36 20.448 36.448 20 37 20 z M 10 27L10 32L24 32L24 29C24 27.895 23.105 27 22 27L10 27 z M 28 27C26.895 27 26 27.895 26 29L26 32L40 32L40 27L28 27 z M 6 41.050781L6 43C6 43.553 6.448 44 7 44L10 44C10.552 44 11 43.553 11 43L11 42L10 42C8.562 42 7.207 41.653781 6 41.050781 z M 44 41.050781C42.793 41.653781 41.438 42 40 42L39 42L39 43C39 43.553 39.448 44 40 44L43 44C43.552 44 44 43.553 44 43L44 41.050781 z"/></svg>