<svg xmlns="http://www.w3.org/2000/svg" xmlns:xlink="http://www.w3.org/1999/xlink" viewBox="0 0 24 24"><path d="M12 2C10.415 2 8.9572344 2.737 7.9902344 4L7 4C5.346 4 4 5.346 4 7L4 8.5742188C4.761 9.0372187 5.3783281 9.7553906 5.7363281 10.650391L6.6757812 13L17.316406 13L18.308594 10.517578C18.647594 9.6705781 19.253 8.9975938 20 8.5585938L20 7C20 5.346 18.654 4 17 4L15.996094 4.0214844C15.042094 2.7374844 13.585 2 12 2 z M 12 5C12.552 5 13 5.448 13 6C13 6.552 12.552 7 12 7C11.448 7 11 6.552 11 6C11 5.448 11.448 5 12 5 z M 9 7C9.552 7 10 7.448 10 8C10 8.552 9.552 9 9 9C8.448 9 8 8.552 8 8C8 7.448 8.448 7 9 7 z M 15 7C15.552 7 16 7.448 16 8C16 8.552 15.552 9 15 9C14.448 9 14 8.552 14 8C14 7.448 14.448 7 15 7 z M 12 9C12.552 9 13 9.448 13 10C13 10.552 12.552 11 12 11C11.448 11 11 10.552 11 10C11 9.448 11.448 9 12 9 z M 22.027344 10C21.208344 10 20.471969 10.498766 20.167969 11.259766L18.671875 15L5.3222656 15L3.8808594 11.392578C3.5888594 10.662578 2.9421563 10.083766 2.1601562 10.009766C1.7601562 9.9717656 1.3715781 10.049234 1.0175781 10.240234C0.10057813 10.732234 -0.22684375 11.899234 0.16015625 12.865234L1.859375 17.115234C2.315375 18.253234 3.4185313 19 4.6445312 19L5 19L5 21L7 21L7 19L17 19L17 21L19 21L19 19L19.347656 19C20.574656 19 21.677813 18.252281 22.132812 17.113281L23.841797 12.841797C24.211797 11.915797 23.919453 10.806969 23.064453 10.292969C22.744453 10.099969 22.392344 10 22.027344 10 z"/></svg>