<svg xmlns="http://www.w3.org/2000/svg" xmlns:xlink="http://www.w3.org/1999/xlink" viewBox="0 0 50 50"><path d="M22 5C19.802606 5 17.953509 6.2525306 16.908203 8.0253906C15.992531 6.8266908 14.615595 6 13 6L12.902344 6C7.4459353 6 3 10.444906 3 15.902344C3 16.016218 3.0015512 19.268974 3.0019531 20.292969C1.2593221 20.9354 0 22.601756 0 24.558594C0 26.378298 1.182472 27.797994 2.734375 28.523438L4.8535156 35.908203 A 1.0001 1.0001 0 0 0 4.8535156 35.910156C5.1819261 37.047727 5.8824057 37.810885 6.5957031 38.277344L5.3007812 40.880859C4.6029982 42.276425 5.1789141 44.001566 6.5742188 44.699219C6.9780861 44.90039 7.416624 45 7.8457031 45C8.8904681 45 9.8973429 44.416677 10.392578 43.427734L10.392578 43.425781L12.595703 39L37.404297 39L39.607422 43.425781L39.607422 43.427734C40.103285 44.414883 41.109532 44.998047 42.154297 44.998047C42.583376 44.998047 43.019961 44.900387 43.423828 44.699219L43.425781 44.699219C44.820461 44.001879 45.39555 42.276096 44.699219 40.880859L44.699219 40.878906L43.404297 38.277344C44.117594 37.810883 44.818074 37.047763 45.146484 35.910156 A 1.0001 1.0001 0 0 0 45.146484 35.908203L47.265625 28.523438C48.817528 27.798041 50 26.378298 50 24.558594C50 22.601756 48.740678 20.9354 46.998047 20.292969C46.99793 19.857131 46.997686 19.370145 46.998047 18.451172C46.998594 17.179422 47 15.96845 47 15.902344C47 10.445931 42.555094 6 37.097656 6L37 6C35.384405 6 34.007469 6.8266908 33.091797 8.0253906C32.046491 6.2525306 30.197394 5 28 5L22 5 z M 22 7L28 7C30.220375 7 32 8.7796254 32 11L32 24.380859C29.955436 24.161338 27.62573 24 25 24C22.37427 24 20.044564 24.161338 18 24.380859L18 11C18 8.7796254 19.779625 7 22 7 z M 12.902344 8L13 8C14.668484 8 16 9.3315161 16 11L16 24.625C12.75174 25.081398 10.565825 25.649321 9.8828125 25.837891L8.8984375 23.208984L8.921875 23.279297C8.4080839 21.529086 6.8678456 20.220589 5.0019531 20.037109C5.0014677 18.745933 5 15.81295 5 15.902344C5 11.525782 8.5267557 8 12.902344 8 z M 37 8L37.097656 8C41.474214 8 45 11.526756 45 15.902344C45 15.847234 44.998547 17.179422 44.998047 18.451172C44.997736 19.242483 44.997945 19.554017 44.998047 20.037109C43.132155 20.22059 41.591916 21.529083 41.078125 23.279297L41.101562 23.208984L40.117188 25.837891C39.434173 25.649319 37.24826 25.081398 34 24.625L34 11C34 9.3315161 35.331516 8 37 8 z M 4.5605469 22C5.7289396 22 6.6900874 22.779437 7.0019531 23.841797 A 1.0001 1.0001 0 0 0 7.0253906 23.910156L8.3144531 27.351562 A 1.0001 1.0001 0 0 0 9.5332031 27.958984C9.5332036 27.958983 16.148148 26 25 26C33.851852 26 40.466797 27.958984 40.466797 27.958984 A 1.0001 1.0001 0 0 0 41.685547 27.351562L42.974609 23.910156 A 1.0001 1.0001 0 0 0 42.998047 23.841797C43.309911 22.779438 44.27106 22 45.439453 22C46.866545 22 48 23.134391 48 24.558594C48 25.740587 47.202964 26.709644 46.117188 27.009766 A 1.0001 1.0001 0 0 0 45.421875 27.697266L43.224609 35.355469C42.966408 36.249874 42.465673 36.582387 41.953125 36.792969C41.440577 37.003551 41.013672 37 41.013672 37L41 37L38.027344 37L11.972656 37L8.9863281 37C8.9863281 37 8.5594232 37.0036 8.046875 36.792969C7.5343268 36.582387 7.0335924 36.249874 6.7753906 35.355469L4.578125 27.697266 A 1.0001 1.0001 0 0 0 3.8828125 27.009766C2.7970364 26.709644 2 25.740587 2 24.558594C2 23.134391 3.1334554 22 4.5605469 22 z M 8.4707031 39L9.0136719 39L10.361328 39L8.6035156 42.533203C8.450751 42.838261 8.1569381 43 7.8457031 43C7.7194017 43 7.5942569 42.972333 7.46875 42.910156C7.0400545 42.695809 6.8756268 42.203825 7.0898438 41.775391L7.0898438 41.773438L8.4707031 39 z M 39.638672 39L40.986328 39L41.529297 39L42.908203 41.773438L42.910156 41.773438C43.124132 42.201389 42.958866 42.693471 42.53125 42.908203C42.405117 42.971033 42.281218 42.998047 42.154297 42.998047C41.843062 42.998047 41.548669 42.836149 41.394531 42.529297L39.638672 39 z"/></svg>