<svg xmlns="http://www.w3.org/2000/svg" xmlns:xlink="http://www.w3.org/1999/xlink" viewBox="0 0 50 50"><path d="M22 5C19.79 5 18 6.79 18 9L18 24.380859C20.1 24.160859 22.46 24 25 24C27.54 24 29.9 24.160859 32 24.380859L32 9C32 6.79 30.21 5 28 5L22 5 z M 11.900391 6C6.9903906 6 3 8.9803906 3 13.900391L3 18.089844C3.32 18.029844 3.66 18 4 18C6.49 18 8.6800781 19.509844 9.5800781 21.839844L9.6191406 21.970703L10.720703 25.570312C12.000703 25.280312 13.8 24.919141 16 24.619141L16 10C16 7.79 14.21 6 12 6L11.900391 6 z M 38 6C35.79 6 34 7.79 34 10L34 24.619141C36.2 24.919141 37.999297 25.280313 39.279297 25.570312L40.419922 21.839844C41.319922 19.509844 43.51 18 46 18C46.34 18 46.68 18.029844 47 18.089844L47 14.900391C47 9.9903906 43.019609 6 38.099609 6L38 6 z M 4 20C1.791 20 0 21.791 0 24C0 26.073 1.5835156 27.758938 3.6035156 27.960938L5.8144531 36.632812C6.5084531 39.036812 9 39 9 39L41 39C41 39 43.491547 39.036812 44.185547 36.632812L46.396484 27.960938C48.416484 27.758938 50 26.073 50 24C50 21.791 48.209 20 46 20C44.3 20 42.861109 21.060594 42.287109 22.558594L40.634766 27.966797C39.747766 27.716797 33.346 26 25 26C16.654 26 10.252234 27.716797 9.3652344 27.966797L7.7128906 22.558594C7.1388906 21.060594 5.7 20 4 20 z M 44.220703 39.910156C43.120703 40.740156 41.839531 41 41.019531 41L38.400391 41L39.609375 43.429688C40.089375 44.399687 41.070391 45 42.150391 45C42.600391 45 43.019688 44.899219 43.429688 44.699219C44.829687 43.999219 45.399219 42.280859 44.699219 40.880859L44.220703 39.910156 z M 5.7792969 39.919922L5.3007812 40.880859C4.6007812 42.280859 5.1703125 43.999219 6.5703125 44.699219C6.9703125 44.899219 7.3998438 45 7.8398438 45C8.9298437 45 9.910625 44.399688 10.390625 43.429688L11.599609 41L8.9492188 41C8.1492187 41 6.8792969 40.739922 5.7792969 39.919922 z"/></svg>