<svg xmlns="http://www.w3.org/2000/svg" xmlns:xlink="http://www.w3.org/1999/xlink" viewBox="0 0 24 24"><path d="M8.9707031 2C7.3167031 2 5.9707031 3.346 5.9707031 5L5.9804688 8.1386719C7.1614687 8.4556719 8.1586406 9.3175781 8.6816406 10.517578L9.5019531 12L14.484375 12L15.363281 10.388672C15.865281 9.2456719 16.853344 8.4347656 18.027344 8.1347656L18.027344 5C18.027344 3.346 16.681344 2 15.027344 2L8.9707031 2 z M 19.027344 10C18.208344 10 17.471969 10.498766 17.167969 11.259766L15.671875 14L8.3222656 14L6.8808594 11.392578C6.5888594 10.662578 5.9421563 10.083766 5.1601562 10.009766C4.7601562 9.9727656 4.3715781 10.050234 4.0175781 10.240234C3.1005781 10.733234 2.7731563 11.899234 3.1601562 12.865234L4.859375 16.115234C5.315375 17.253234 6.4185313 18 7.6445312 18L11 18L11 20L8 20L8 22L16 22L16 20L13 20L13 18L16.347656 18C17.574656 18 18.677813 17.252281 19.132812 16.113281L20.841797 12.841797C21.211797 11.915797 20.919453 10.806969 20.064453 10.292969C19.744453 10.099969 19.392344 10 19.027344 10 z"/></svg>