<svg xmlns="http://www.w3.org/2000/svg" xmlns:xlink="http://www.w3.org/1999/xlink" viewBox="0 0 50 50"><path d="M25 2C9.226563 2 8 8.890625 8 11C8 13.324219 9.195313 15.613281 10.84375 18.78125C11.554688 20.144531 12.34375 21.679688 13.15625 23.4375L14.125 25.03125C14.484375 25.628906 15.144531 26 15.84375 26L34.15625 26C34.855469 26 35.515625 25.628906 35.875 25.03125L36.84375 23.4375C37.65625 21.679688 38.445313 20.144531 39.15625 18.78125C40.804688 15.613281 42 13.324219 42 11C42 8.890625 40.773438 2 25 2 Z M 6.0625 19.6875C5.222656 19.777344 4.425781 20.167969 3.8125 20.78125C2.585938 22.007813 2.371094 23.894531 3.28125 25.375L7.8125 32.71875C9.441406 35.359375 12.367188 37 15.46875 37L34.53125 37C37.632813 37 40.5625 35.359375 42.1875 32.71875L46.71875 25.375C47.628906 23.894531 47.414063 22.007813 46.1875 20.78125C45.371094 19.964844 44.25 19.546875 43.09375 19.6875C41.945313 19.828125 40.9375 20.507813 40.34375 21.5L37.59375 26.0625C36.875 27.261719 35.550781 28 34.15625 28L15.84375 28C14.449219 28 13.125 27.261719 12.40625 26.0625L9.65625 21.5C9.0625 20.507813 8.054688 19.828125 6.90625 19.6875C6.617188 19.652344 6.34375 19.65625 6.0625 19.6875 Z M 24 38L24 41L23 41L14.625 43.25C12.488281 43.832031 11 45.785156 11 48L14 48L23.125 46L26.90625 46L35.78125 47.96875L39 48C39 45.78125 37.511719 43.832031 35.375 43.25L27.25 41.03125L26 41.03125L26 38Z"/></svg>