<svg xmlns="http://www.w3.org/2000/svg" xmlns:xlink="http://www.w3.org/1999/xlink" viewBox="0 0 50 50"><path d="M25 2C18.320313 2 14.132813 3.203125 11.53125 4.96875C8.929688 6.734375 8 9.109375 8 11C8 13.332031 9.164063 15.527344 10.625 18.34375C11.90625 20.808594 13.449219 23.738281 14.90625 27.59375C14.28125 27.296875 13.71875 26.863281 13.3125 26.28125L9.6875 21.09375C9.027344 20.152344 8.023438 19.625 6.96875 19.53125C5.914063 19.4375 4.8125 19.78125 4 20.59375L3.90625 20.6875C2.636719 21.957031 2.445313 23.960938 3.46875 25.4375L8.78125 33.125C10.460938 35.554688 13.234375 37 16.1875 37L24 37L24 40L22.875 40L22.75 40.03125L14.625 42.25C12.484375 42.832031 11 44.78125 11 47L11 48L14.125 48L14.21875 47.96875L23 46L27 46L35.78125 47.96875L35.875 48L39 48L39 47C39 44.78125 37.515625 42.832031 35.375 42.25L27.25 40.03125L27.125 40L26 40L26 37L34.53125 37C37.65625 37 40.550781 35.378906 42.1875 32.71875L46.71875 25.375C47.621094 23.90625 47.40625 22 46.1875 20.78125C44.488281 19.082031 41.578125 19.4375 40.34375 21.5L37.59375 26.0625C37.011719 27.03125 36.054688 27.683594 34.96875 27.90625C36.457031 23.898438 38.0625 20.871094 39.375 18.34375C40.835938 15.527344 42 13.332031 42 11C42 9.109375 41.070313 6.734375 38.46875 4.96875C35.867188 3.203125 31.679688 2 25 2 Z M 25 4C31.433594 4 35.222656 5.1875 37.34375 6.625C39.464844 8.0625 40 9.714844 40 11C40 12.628906 39.046875 14.636719 37.59375 17.4375C36.21875 20.085938 34.453125 23.519531 32.84375 28L17.15625 28C15.546875 23.523438 13.78125 20.085938 12.40625 17.4375C10.953125 14.636719 10 12.628906 10 11C10 9.714844 10.535156 8.0625 12.65625 6.625C14.777344 5.1875 18.566406 4 25 4 Z M 6.40625 21.5C6.527344 21.484375 6.660156 21.488281 6.78125 21.5C7.265625 21.542969 7.75 21.800781 8.0625 22.25L11.6875 27.4375C12.734375 28.9375 14.40625 29.851563 16.21875 29.96875C16.34375 29.976563 16.464844 30 16.59375 30L34.15625 30C36.261719 30 38.230469 28.898438 39.3125 27.09375L42.0625 22.5C42.652344 21.511719 43.96875 21.375 44.78125 22.1875C45.351563 22.757813 45.453125 23.625 45.03125 24.3125L40.5 31.65625C39.226563 33.726563 36.964844 35 34.53125 35L16.1875 35C13.886719 35 11.746094 33.859375 10.4375 31.96875L5.125 24.3125C4.652344 23.628906 4.710938 22.722656 5.28125 22.125L5.40625 22C5.695313 21.710938 6.042969 21.542969 6.40625 21.5 Z M 23.125 42L26.875 42L34.84375 44.1875C35.761719 44.4375 36.328125 45.15625 36.65625 46L36 46L27.21875 44.03125L27.125 44L22.875 44L22.78125 44.03125L14 46L13.34375 46C13.671875 45.15625 14.238281 44.4375 15.15625 44.1875Z"/></svg>