<svg xmlns="http://www.w3.org/2000/svg" xmlns:xlink="http://www.w3.org/1999/xlink" viewBox="0 0 24 24"><path d="M8.96875 2C7.3237802 2 5.96875 3.3550302 5.96875 5L5.96875 9.0078125C5.4730985 9.0083647 4.9823144 9.1246164 4.5449219 9.359375C3.1351894 10.115742 2.6697963 11.831945 3.2324219 13.236328L3.2050781 13.160156L3.9160156 15.449219L3.9316406 15.486328C4.5383722 17.001823 6.0123322 18 7.6445312 18L11 18L11 20L8 20L8 22L16 22L16 20L13 20L13 18L16.347656 18C17.980524 18 19.454887 17.000522 20.060547 15.484375L20.074219 15.449219L20.794922 13.140625L20.769531 13.212891C21.308731 11.863434 20.894066 10.225476 19.580078 9.4355469C19.111461 9.1533131 18.57253 9 18.027344 9C18.027344 9 18.025391 9 18.025391 9L18.025391 5C18.025391 3.3550302 16.67036 2 15.025391 2L8.96875 2 z M 8.96875 4L15.025391 4C15.590421 4 16.025391 4.4349698 16.025391 5L16.025391 9.7695312C15.687209 10.072043 15.413273 10.450618 15.238281 10.888672L15.21875 10.9375L14.916016 12L9.0839844 12L8.8300781 11.072266L8.8085938 11.021484C8.6249622 10.562406 8.3351053 10.143222 7.96875 9.8027344L7.96875 5C7.96875 4.4349698 8.4037198 4 8.96875 4 z M 18.027344 11C18.211522 11 18.377829 11.045299 18.548828 11.148438C18.94484 11.386508 19.11291 11.96816 18.912109 12.470703L18.898438 12.507812L18.199219 14.746094C17.893599 15.504914 17.166865 16 16.347656 16L7.6445312 16C6.8266501 16 6.0995126 15.50556 5.7929688 14.746094L5.1035156 12.529297L5.0878906 12.492188C4.8765162 11.964571 5.0659666 11.348727 5.4902344 11.121094C5.6770403 11.020831 5.8551244 10.98402 6.0644531 11.003906L6.0664062 11.003906C6.409885 11.036406 6.7706914 11.336428 6.9433594 11.757812L7.5605469 14L16.425781 14L17.101562 11.626953C17.256547 11.247268 17.617114 11 18.027344 11 z"/></svg>