<?xml version="1.0" encoding="utf-8"?><svg version="1.1" id="Layer_1" xmlns="http://www.w3.org/2000/svg" xmlns:xlink="http://www.w3.org/1999/xlink" x="0px" y="0px" viewBox="0 0 122.88 97.07" style="enable-background:new 0 0 122.88 97.07" xml:space="preserve"><g><path d="M100.28,27.01c-0.88-0.09-1.53-0.88-1.44-1.77c0.09-0.88,0.88-1.53,1.77-1.44c1.98,0.21,3.87,0.82,5.6,1.86 c0.84,0.5,1.63,1.1,2.38,1.8c0.34-0.83,0.76-1.6,1.24-2.32c1.07-1.58,2.46-2.88,4.1-3.83c0.77-0.45,1.76-0.18,2.2,0.59 c0.45,0.77,0.18,1.76-0.59,2.2c-1.22,0.7-2.25,1.67-3.04,2.84c-0.77,1.15-1.32,2.5-1.59,4.01c-0.06,0.43-0.28,0.83-0.66,1.1 c-0.72,0.52-1.73,0.35-2.25-0.37c-1.01-1.42-2.18-2.5-3.45-3.26C103.24,27.63,101.8,27.17,100.28,27.01L100.28,27.01z M36.99,38.8 v53.41h6.2l7.22-7.94h-3.83v-4.85h11.86L45.06,64.59l3.6-3.24l8.1,8.97v-0.35h19.83c0.87,0,1.64,0.46,2.07,1.15l5.86,8.29h11.01 c0.73,0,1.39,0.32,1.83,0.84l12.06,11.96h13.46v4.85H0.7v-4.85h32.52V38.8H1.89C0.85,38.8,0,37.96,0,36.91c0-0.06,0-0.12,0.01-0.19 c0.08-9.42,4.01-17.93,10.32-24.1C16.56,6.55,25.1,2.74,34.54,2.61c0.18-0.06,0.38-0.09,0.58-0.09c0.2,0,0.4,0.03,0.59,0.09 c9.39,0.17,17.87,3.97,24.07,10.02c6.35,6.21,10.29,14.79,10.32,24.28c0,1.04-0.84,1.88-1.88,1.88v0.01H36.99L36.99,38.8z M49.74,92.22h52.8l-8.01-7.94H56.96L49.74,92.22L49.74,92.22z M64.97,79.42h13.61l-3.24-4.59H60.83L64.97,79.42L64.97,79.42z M83.92,7.95c-1.03,0.13-1.97-0.59-2.11-1.62c-0.13-1.03,0.59-1.97,1.62-2.11c3.26-0.43,6.41-0.04,9.26,1.23 c1.72,0.77,3.31,1.85,4.74,3.27c0.78-1.75,1.84-3.29,3.14-4.58c2.15-2.13,4.92-3.56,8.08-4.11c1.03-0.18,2,0.52,2.18,1.54 c0.18,1.03-0.52,2-1.54,2.18c-2.38,0.41-4.46,1.48-6.05,3.06c-1.58,1.56-2.7,3.65-3.19,6.12l-0.01,0c-0.09,0.47-0.36,0.91-0.79,1.2 c-0.86,0.58-2.03,0.36-2.61-0.5c-1.52-2.24-3.39-3.8-5.48-4.73C88.97,7.9,86.51,7.61,83.92,7.95L83.92,7.95z M57.15,15.33 c-2.56-2.5-5.57-4.58-8.89-6.09c1.28,1.85,2.36,3.96,3.24,6.29c2.05,5.41,3.05,12.06,3.15,19.5h11.62 C65.77,27.35,62.38,20.44,57.15,15.33L57.15,15.33z M40.58,6.86c-1.17-0.2-2.36-0.34-3.57-0.42v28.59h13.88 c-0.09-6.98-1.02-13.18-2.91-18.17C46.3,12.41,43.86,8.96,40.58,6.86L40.58,6.86z M33.23,6.43c-1.19,0.07-2.37,0.2-3.52,0.39 c-3.32,2.11-5.79,5.59-7.48,10.1c-1.87,4.97-2.79,11.16-2.88,18.1h13.88V6.43L33.23,6.43z M22.05,9.15 c-3.4,1.53-6.48,3.63-9.09,6.19c-5.23,5.11-8.62,12.02-9.12,19.69h11.76c0.09-7.4,1.09-14.03,3.12-19.43 C19.61,13.2,20.72,11.03,22.05,9.15L22.05,9.15z"/></g></svg>