<?xml version="1.0" encoding="utf-8"?><svg version="1.1" id="Layer_1" xmlns="http://www.w3.org/2000/svg" xmlns:xlink="http://www.w3.org/1999/xlink" x="0px" y="0px" viewBox="0 0 122.88 109.37" style="enable-background:new 0 0 122.88 109.37" xml:space="preserve"><style type="text/css"><![CDATA[
	.st0{fill-rule:evenodd;clip-rule:evenodd;}
]]></style><g><path class="st0" d="M112.28,107.53c0,1.01-0.82,1.84-1.84,1.84H11.93c-1.01,0-1.84-0.82-1.84-1.84V51.67 c-2.06,0.79-3.97,0.8-5.57,0.27c-1.25-0.42-2.3-1.17-3.07-2.15c-0.77-0.97-1.26-2.16-1.41-3.46C-0.18,44.3,0.43,42,2.15,39.85l0,0 c0.09-0.11,0.19-0.21,0.3-0.3l57.6-39.07c0.65-0.6,1.65-0.66,2.37-0.1l57.7,38.99l0,0c0.08,0.06,0.15,0.13,0.22,0.2 c2.32,2.5,2.9,5.27,2.34,7.62c-0.28,1.15-0.83,2.2-1.59,3.05c-0.76,0.86-1.73,1.52-2.84,1.92c-1.76,0.64-3.84,0.61-5.96-0.39 C112.28,67.37,112.28,91.94,112.28,107.53L112.28,107.53L112.28,107.53z M46.07,70.22c2.33,0,4.21,1.89,4.21,4.21 c0,2.33-1.89,4.21-4.21,4.21s-4.21-1.88-4.21-4.21C41.86,72.11,43.75,70.22,46.07,70.22L46.07,70.22L46.07,70.22z M58.15,64.11 h1.24v0.28l-0.8,0.83h0.83v0.3h-1.34v-0.3l0.79-0.82h-0.71L58.15,64.11L58.15,64.11L58.15,64.11z M49.7,66.73h2.69v0.62l-1.73,1.81 h1.79v0.66h-2.93v-0.64l1.72-1.79H49.7V66.73L49.7,66.73L49.7,66.73z M54.54,65.65h1.92v0.44l-1.23,1.29h1.28v0.47h-2.09V67.4 l1.22-1.27h-1.1L54.54,65.65L54.54,65.65L54.54,65.65z M33.75,70.37h5.35v15.77h51.34v8.66h-0.55v4.34h-5.35V94.8H39.1v4.34h-5.35 V94.8h-1.31v-8.65h1.31V70.37L33.75,70.37L33.75,70.37z M52.35,71.58h32.26c2.8,0,5.1,2.29,5.1,5.1v7.81c-14.85,0-33.75,0-48.6,0 v-3.53c0-0.55,0.45-1,1-1h10.23V71.58L52.35,71.58L52.35,71.58z M45.33,36.35h32.21v21.69H45.33V36.35L45.33,36.35L45.33,36.35z M56.27,42.24c0.93,0,1.69,0.76,1.69,1.69c0,0.93-0.76,1.69-1.69,1.69s-1.69-0.76-1.69-1.69C54.59,42.99,55.34,42.24,56.27,42.24 L56.27,42.24L56.27,42.24z M63.39,49.49l3.8-5.84l3.59,9.08h-17.6V51.6l1.41-0.07L56,48.08l1.12,2.47h2.11l1.83-4.72L63.39,49.49 L63.39,49.49L63.39,49.49z M47.27,38.58h28.35v17.23H47.27V38.58L47.27,38.58z M107.66,104.74V49.62c0-0.12,0.01-0.24,0.03-0.35 L61.62,18.58l-46.96,30.7c0.04,0.15,0.06,0.31,0.06,0.47v54.99C45.7,104.74,76.67,104.74,107.66,104.74L107.66,104.74 L107.66,104.74z"/></g></svg>