<?xml version="1.0" encoding="utf-8"?><svg version="1.1" id="Layer_1" xmlns="http://www.w3.org/2000/svg" xmlns:xlink="http://www.w3.org/1999/xlink" x="0px" y="0px" viewBox="0 0 122.88 110.25" style="enable-background:new 0 0 122.88 110.25" xml:space="preserve"><style type="text/css">.st0{fill-rule:evenodd;clip-rule:evenodd;}</style><g><path class="st0" d="M35.44,41.98c8.62,0,15.61,6.99,15.61,15.61c0,8.62-6.99,15.61-15.61,15.61c-8.62,0-15.61-6.99-15.61-15.61 C19.83,48.97,26.82,41.98,35.44,41.98L35.44,41.98z M3.36,31.61h7.3c1.85,0,3.36,1.56,3.36,3.36v43.77h37.33l9.45-33.22 c-2.49-4.42-3.92-9.53-3.92-14.98C56.87,13.67,70.54,0,87.42,0l0,0c16.87,0,30.55,13.67,30.55,30.55c0,5.08-1.24,9.86-3.43,14.07 c5.03,3.44,8.34,9.22,8.34,15.72v19.04h-0.02c0.01,0.12,0.02,0.24,0.02,0.37v30.5h-14.02V95.94H14.02v13.66H0V34.97 C0,33.13,1.51,31.61,3.36,31.61L3.36,31.61z M66.39,41.3h37.45c1.49,0,2.94,0.17,4.34,0.5c1.82-3.35,2.85-7.18,2.85-11.26 c0-13.04-10.57-23.61-23.61-23.61l0,0c-13.04,0-23.61,10.58-23.61,23.61C63.8,34.42,64.74,38.08,66.39,41.3L66.39,41.3z M86.92,18.2c0.68,0,1.24,0.56,1.24,1.24V30.8h11.7c0.69,0,1.24,0.56,1.24,1.24v3.74c0,0.68-0.56,1.24-1.24,1.24H81.94V19.44 c0-0.69,0.56-1.24,1.25-1.24H86.92L86.92,18.2z"/></g></svg>