<svg id="Layer_1" enable-background="new 0 0 512 512" height="512" viewBox="0 0 512 512" width="512" xmlns="http://www.w3.org/2000/svg"><g><circle cx="256" cy="376" r="16"/><circle cx="256" cy="440" r="16"/><path d="m496 480h-66.185l-18.904-128.324c-6.765-45.92-41.082-82.694-86.015-92.897 11.409-11.768 19.844-26.434 24.066-42.78h3.038c26.468 0 48-21.533 48-48 0-23.741-17.329-43.5-40-47.321 0-3.98 0-101.574 0-104.679 0-8.836-7.163-16-16-16h-176c-8.837 0-16 7.164-16 16v104.679c-22.671 3.821-40 23.58-40 47.321 0 26.467 21.532 48 48 48h3.038c4.209 16.293 12.602 30.918 23.956 42.666-45.606 10.125-80.027 47.432-86.606 93.494l-18.264 127.841h-66.124c-8.837 0-16 7.164-16 16s7.163 16 16 16h480c8.837 0 16-7.164 16-16s-7.163-16-16-16zm-116.747-123.66 18.217 123.66h-173.47v-127.437l40.875-27.25c4.451-2.968 7.125-7.963 7.125-13.313v-24h28.106c39.381 0 73.407 29.38 79.147 68.34zm-80.152-204.34h-86.201c-14.266 0-26.149-10.39-28.484-24h143.17c-2.336 13.61-14.22 24-28.485 24zm-107.101 28.305c6.521 2.39 13.561 3.695 20.899 3.695h86.201c7.339 0 14.378-1.305 20.899-3.695v11.695c0 35.29-28.71 64-64 64s-64-28.71-64-64v-11.695zm176-12.305c0 8.822-7.178 16-16 16 0-34.41-.289-30.189.675-31.966 8.508.358 15.325 7.372 15.325 15.966zm-184-136h144v64h-144zm-40 136c0-8.594 6.817-15.608 15.325-15.966.966 1.782.675-2.444.675 31.966-8.822 0-16-7.178-16-16zm-11.936 188.686c5.594-39.158 39.641-68.686 79.197-68.686h28.739v15.437l-40.875 27.25c-4.451 2.968-7.125 7.963-7.125 13.313v136h-77.552z"/></g></svg>