<?xml version="1.0" encoding="utf-8"?><svg version="1.1" id="Layer_1" xmlns="http://www.w3.org/2000/svg" xmlns:xlink="http://www.w3.org/1999/xlink" x="0px" y="0px" viewBox="0 0 122.88 114.5" style="enable-background:new 0 0 122.88 114.5" xml:space="preserve"><g><path d="M118.66,9.63c0.67-0.13,1.37,0,1.95,0.35c0.99,0.41,1.69,1.38,1.69,2.52l0.57,79.58c0.05,0.98-0.43,1.95-1.33,2.48 l-32.5,19.39c-0.46,0.35-1.03,0.55-1.65,0.55c-0.15,0-0.3-0.01-0.44-0.04l-84.34-9.38C1.16,105.02,0,103.82,0,102.35V21.42h0 c-0.03-1.08,0.58-2.13,1.64-2.59l42.31-18.6l0,0c0.44-0.2,0.94-0.28,1.46-0.21L118.66,9.63L118.66,9.63z M90.14,33.86v73.06 l27.26-16.26l-0.53-73.65L90.14,33.86L90.14,33.86z M84.65,108.69V34.63l-35.97-4.59L47.5,64.41l-12.63-8.6l-12.63,7.14L24.85,27 L5.49,24.53v75.37L84.65,108.69L84.65,108.69z M78.96,9.94L52.43,25l34.51,4.4l24.19-15.24L78.96,9.94L78.96,9.94z M28.23,21.91 L53.95,6.66l-8.48-1.11L12.74,19.94L28.23,21.91L28.23,21.91z"/></g></svg>