<?xml version="1.0" encoding="utf-8"?><svg version="1.1" id="Layer_1" xmlns="http://www.w3.org/2000/svg" xmlns:xlink="http://www.w3.org/1999/xlink" x="0px" y="0px" viewBox="0 0 112.04 122.88" style="enable-background:new 0 0 112.04 122.88" xml:space="preserve"><style type="text/css">.st0{fill-rule:evenodd;clip-rule:evenodd;}</style><g><path class="st0" d="M1.81,0h108.43c0.99,0,1.8,0.81,1.8,1.8v119.27c0,0.99-0.81,1.8-1.81,1.8l-108.43,0c-0.99,0-1.8-0.81-1.8-1.8 L0,1.8C0,0.81,0.81,0,1.81,0L1.81,0L1.81,0z M29.03,7.9h54.21v48.11H29.03V7.9L29.03,7.9z M29.03,65.61h54.21v48.12H29.03V65.61 L29.03,65.61z M7.92,104.24h14.7v9.74H7.92V104.24L7.92,104.24z M89.92,104.24h14.7v9.74h-14.7V104.24L89.92,104.24z M89.92,7.83 h14.7v9.74h-14.7V7.83L89.92,7.83z M89.92,27.11h14.7v9.74h-14.7V27.11L89.92,27.11z M89.92,46.39h14.7v9.74l-14.7,0V46.39 L89.92,46.39L89.92,46.39z M89.92,65.67h14.7v9.74h-14.7V65.67L89.92,65.67z M89.92,84.96h14.7v9.74h-14.7V84.96L89.92,84.96z M7.92,7.83h14.7v9.74H7.92V7.83L7.92,7.83z M7.92,27.11h14.7v9.74H7.92V27.11L7.92,27.11z M7.92,46.39h14.7v9.74H7.92V46.39 L7.92,46.39z M7.92,65.67h14.7v9.74H7.92V65.67L7.92,65.67z M7.92,84.96h14.7v9.74l-14.7,0V84.96L7.92,84.96z"/></g></svg>