<?xml version="1.0" encoding="utf-8"?><svg version="1.1" id="Layer_1" xmlns="http://www.w3.org/2000/svg" xmlns:xlink="http://www.w3.org/1999/xlink" x="0px" y="0px" viewBox="0 0 122.88 108.06" style="enable-background:new 0 0 122.88 108.06" xml:space="preserve"><style type="text/css">.st0{fill-rule:evenodd;clip-rule:evenodd;}</style><g><path class="st0" d="M93.44,72.08v35.99h-8.41v-5.56H35.42v5.56l-8.41,0V72.08h-2.9v-5.53h7.07l3.95-12.27 c1.16-3.61,3.11-6.9,6.9-6.9h37.85c3.8,0,5.99,3.22,6.9,6.9l3.05,12.27h6.5v5.53H93.44L93.44,72.08L93.44,72.08z M40.37,26.19 c1.13,5.23,4.51,7.85,4.51,10.46c0,2.62-1.13,5.23-4.51,5.23c-3.38,0-4.51-2.61-4.51-5.23C35.86,34.03,39.25,31.42,40.37,26.19 L40.37,26.19z M59.84,19.81c1.57,7.27,6.27,10.91,6.27,14.54c0,3.64-1.57,7.27-6.27,7.27c-4.7,0-6.27-3.64-6.27-7.27 C53.57,30.72,58.27,27.08,59.84,19.81L59.84,19.81z M80.75,16.36c1.57,7.9,6.27,11.84,6.27,15.79c0,3.95-1.57,7.9-6.27,7.9 c-4.7,0-6.27-3.95-6.27-7.9C74.47,28.21,79.18,24.26,80.75,16.36L80.75,16.36z M9.17,108.06H0V4.58C0,2.05,2.05,0,4.58,0H118.3 c2.53,0,4.58,2.05,4.58,4.58v103.48h-9.17V9.17H9.17V108.06L9.17,108.06z M47.63,91.4h24.85v5.86l-24.85,0V91.4L47.63,91.4 L47.63,91.4z M29.83,77.75c6.33,0.2,10.2,2.85,11.2,8.38h-11.2V77.75L29.83,77.75z M89.83,77.75c-6.33,0.2-10.2,2.85-11.2,8.38 h11.2V77.75L89.83,77.75z M34.21,66.54h52.03l-2.23-10.29c-0.61-2.82-2.37-5.26-5.26-5.26H42.77c-2.89,0-4.37,2.5-5.26,5.26 L34.21,66.54L34.21,66.54L34.21,66.54z"/></g></svg>