<?xml version="1.0" encoding="utf-8"?><svg version="1.1" id="Layer_1" xmlns="http://www.w3.org/2000/svg" xmlns:xlink="http://www.w3.org/1999/xlink" x="0px" y="0px" viewBox="0 0 122.88 120.2" style="enable-background:new 0 0 122.88 120.2" xml:space="preserve"><g><path d="M50.19,0h22.16c2.54,0,4.84,1.04,6.51,2.71c1.67,1.67,2.71,3.97,2.71,6.51v10.31h9.21c1.39,0,2.53,1.13,2.53,2.53 c0,1.39-1.13,2.53-2.53,2.53h-8.16c0.77,1.28,1.42,2.63,1.95,4.05c1.03,2.76,1.6,5.72,1.6,8.81c0,6.34-2.35,12.12-6.22,16.54h2.96 c3.73,0,6.78,3.05,6.78,6.78v0c0,1.86-0.76,3.55-1.98,4.78c0.63,0.78,1.22,1.6,1.77,2.43l9.06-8.61l4.12-17.73 c0.34-1.51,1.85-2.45,3.35-2.11c1.51,0.34,2.45,1.85,2.1,3.35l-2.2,9.47l6.31-6c1.12-1.07,2.89-1.02,3.96,0.1 c1.07,1.12,1.02,2.89-0.1,3.96l-6.3,5.99l9.75-1.86c1.52-0.29,2.99,0.71,3.28,2.23c0.29,1.52-0.71,2.99-2.23,3.28l-18.32,3.5 l-10.03,9.53c1.81,4.13,2.81,8.69,2.81,13.48c0,9.3-3.77,17.71-9.86,23.8c-6.09,6.09-14.51,9.86-23.8,9.86 c-9.3,0-17.71-3.77-23.8-9.86c-6.09-6.09-9.86-14.51-9.86-23.8c0-4.81,1.01-9.38,2.83-13.52l-9.98-9.49l-18.32-3.5 c-1.52-0.29-2.52-1.76-2.23-3.28c0.29-1.52,1.76-2.52,3.28-2.23l9.75,1.86l-6.3-5.99c-1.12-1.07-1.16-2.84-0.1-3.96 c1.07-1.12,2.84-1.16,3.96-0.1l6.31,6l-2.2-9.47c-0.34-1.51,0.6-3.01,2.11-3.35c1.51-0.34,3.01,0.6,3.35,2.11l4.12,17.73l9.02,8.57 c0.51-0.77,1.06-1.53,1.64-2.25c-1.31-1.24-2.13-2.99-2.13-4.92v0c0-3.73,3.05-6.78,6.78-6.78h2.56 c-3.87-4.42-6.22-10.2-6.22-16.54c0-3.08,0.57-6.05,1.6-8.81c0.53-1.42,1.19-2.77,1.95-4.05h-8.77c-1.39,0-2.53-1.13-2.53-2.53 c0-1.39,1.13-2.53,2.53-2.53h10.2V9.22c0-2.54,1.04-4.84,2.71-6.51C45.34,1.04,47.65,0,50.19,0L50.19,0z M61.23,80.71 c1.78,0,3.23,1.44,3.23,3.23c0,1.78-1.44,3.23-3.23,3.23c-1.78,0-3.23-1.44-3.23-3.23C58.01,82.16,59.45,80.71,61.23,80.71 L61.23,80.71z M61.23,92.65c1.78,0,3.23,1.44,3.23,3.23c0,1.78-1.44,3.23-3.23,3.23c-1.78,0-3.23-1.44-3.23-3.23 C58.01,94.09,59.45,92.65,61.23,92.65L61.23,92.65z M82.58,68.14v16.58c0,1.09-0.9,1.99-1.99,1.99H69.13 c-1.09,0-1.99-0.9-1.99-1.99V67.55H40.77c-4.6,5-7.41,11.67-7.41,19c0,7.75,3.14,14.76,8.22,19.83c5.08,5.08,12.09,8.22,19.83,8.22 c7.75,0,14.76-3.14,19.83-8.22c5.08-5.08,8.22-12.09,8.22-19.83C89.46,79.5,86.86,73.06,82.58,68.14L82.58,68.14z M61.41,52.88 c2.95,0,5.82,0.38,8.55,1.1h2.44c1.02-0.7,1.98-1.49,2.85-2.37c3.63-3.63,5.87-8.64,5.87-14.17c0-2.5-0.45-4.87-1.27-7.05 c-0.8-2.13-1.95-4.09-3.39-5.81H45.69c-1.44,1.72-2.59,3.68-3.39,5.81c-0.82,2.18-1.27,4.55-1.27,7.05 c0,5.53,2.24,10.55,5.87,14.17c0.87,0.87,1.83,1.67,2.85,2.37h3.1C55.59,53.26,58.45,52.88,61.41,52.88L61.41,52.88z M53.82,32.67 c1.78,0,3.23,1.44,3.23,3.23c0,1.78-1.44,3.23-3.23,3.23c-1.78,0-3.23-1.44-3.23-3.23C50.59,34.11,52.04,32.67,53.82,32.67 L53.82,32.67z M68.71,32.67c1.78,0,3.23,1.44,3.23,3.23c0,1.78-1.44,3.23-3.23,3.23c-1.78,0-3.23-1.44-3.23-3.23 C65.48,34.11,66.93,32.67,68.71,32.67L68.71,32.67z M61.23,42.51c1.78,0,3.23,1.44,3.23,3.23c0,1.78-1.44,3.23-3.23,3.23 c-1.78,0-3.23-1.44-3.23-3.23C58.01,43.95,59.45,42.51,61.23,42.51L61.23,42.51z"/></g></svg>