<?xml version="1.0" encoding="utf-8"?><svg version="1.1" id="Layer_1" xmlns="http://www.w3.org/2000/svg" xmlns:xlink="http://www.w3.org/1999/xlink" x="0px" y="0px" viewBox="0 0 94.19 123.38" style="enable-background:new 0 0 94.19 123.38" xml:space="preserve"><style type="text/css">.st0{fill-rule:evenodd;clip-rule:evenodd;stroke:#000000;stroke-width:0.5;stroke-miterlimit:2.6131;}</style><g><path class="st0" d="M45.11,0.25h3.97c19.51,0,35.47,15.96,35.47,35.47v35.47H9.64V35.72C9.64,16.21,25.6,0.25,45.11,0.25 L45.11,0.25z M61.14,100.05h13.9v19.19c0,2.14-1.76,3.9-3.9,3.9h-6.1c-2.14,0-3.9-1.76-3.9-3.9V100.05L61.14,100.05z M18.98,100.05 h13.9v19.19c0,2.14-1.76,3.9-3.9,3.9h-6.1c-2.14,0-3.9-1.76-3.9-3.9V100.05L18.98,100.05z M0.25,76.27h93.69v18.32H0.25V76.27 L0.25,76.27z M45.93,10.56c2.23-0.43,4.39,1.04,4.82,3.27c0.43,2.23-1.04,4.39-3.27,4.81c-2.89,0.56-5.55,1.39-7.91,2.54 c-2.28,1.11-4.28,2.52-5.96,4.26c-6.08,6.33-6.01,13.34-5.92,21.56c0.02,1.82,0.04,2.86,0.04,3.28v9.4c0,2.28-1.85,4.12-4.12,4.12 c-2.28,0-4.12-1.85-4.12-4.12v-9.4c0-2.63,0-2.91-0.01-3.22c-0.11-10.03-0.2-18.58,8.21-27.33c2.39-2.49,5.17-4.46,8.28-5.97 C38.98,12.31,42.32,11.26,45.93,10.56L45.93,10.56z"/></g></svg>