<?xml version="1.0" encoding="utf-8"?><svg version="1.1" id="Layer_1" xmlns="http://www.w3.org/2000/svg" xmlns:xlink="http://www.w3.org/1999/xlink" x="0px" y="0px" viewBox="0 0 107.77 122.88" style="enable-background:new 0 0 107.77 122.88" xml:space="preserve"><g><path d="M40.92,53.31c0-1.25,1.01-2.26,2.26-2.26c1.25,0,2.26,1.01,2.26,2.26v46.84c0,6.25-2.56,11.93-6.67,16.05 c-4.12,4.12-9.8,6.67-16.05,6.67h0c-6.25,0-11.93-2.56-16.05-6.67C2.56,112.09,0,106.41,0,100.16V22.72 c0-6.25,2.56-11.93,6.67-16.05C10.79,2.56,16.47,0,22.72,0h0c4.04,0,7.85,1.08,11.16,2.96c3.42,1.94,6.29,4.75,8.32,8.12 c0.64,1.07,0.29,2.46-0.78,3.1c-1.07,0.64-2.46,0.29-3.1-0.78c-1.62-2.7-3.93-4.95-6.68-6.51c-2.64-1.5-5.69-2.35-8.93-2.35h0 c-5,0-9.55,2.05-12.85,5.35c-3.3,3.3-5.35,7.85-5.35,12.85v77.44c0,5,2.05,9.55,5.35,12.85c3.3,3.3,7.85,5.35,12.85,5.35h0 c5,0,9.55-2.05,12.85-5.35c3.3-3.3,5.35-7.85,5.35-12.85V53.31L40.92,53.31z M28.91,20.27H94.7c3.6,0,6.86,1.47,9.23,3.84 c2.37,2.37,3.84,5.63,3.84,9.23v0c0,3.6-1.47,6.86-3.84,9.23c-2.37,2.37-5.63,3.84-9.23,3.84H28.91c-3.6,0-6.86-1.47-9.23-3.84 c-2.37-2.37-3.84-5.63-3.84-9.23v0c0-3.6,1.47-6.86,3.84-9.23C22.05,21.74,25.32,20.27,28.91,20.27L28.91,20.27z M94.7,24.8H28.91 c-2.35,0-4.48,0.96-6.03,2.51c-1.55,1.55-2.51,3.68-2.51,6.03v0c0,2.35,0.96,4.48,2.51,6.03c1.55,1.55,3.68,2.51,6.03,2.51H94.7 c2.35,0,4.48-0.96,6.03-2.51c1.55-1.55,2.51-3.68,2.51-6.03v0c0-2.35-0.96-4.48-2.51-6.03C99.18,25.76,97.05,24.8,94.7,24.8 L94.7,24.8z M25.18,92.58v8.76c0,1.25-1.01,2.26-2.26,2.26c-1.25,0-2.26-1.01-2.26-2.26v-8.87c-1.17-0.39-2.22-1.04-3.07-1.89 c-1.41-1.41-2.29-3.37-2.29-5.52c0-2.16,0.87-4.11,2.29-5.52c1.41-1.41,3.37-2.29,5.52-2.29c2.16,0,4.11,0.87,5.52,2.29 c1.41,1.41,2.29,3.37,2.29,5.52c0,2.16-0.87,4.11-2.29,5.52C27.68,91.52,26.5,92.22,25.18,92.58L25.18,92.58z M25.42,82.73 c-0.59-0.59-1.41-0.96-2.32-0.96c-0.91,0-1.73,0.37-2.32,0.96c-0.59,0.59-0.96,1.41-0.96,2.32c0,0.91,0.37,1.73,0.96,2.32 c0.59,0.59,1.41,0.96,2.32,0.96c0.91,0,1.73-0.37,2.32-0.96c0.59-0.59,0.96-1.41,0.96-2.32C26.39,84.15,26.02,83.33,25.42,82.73 L25.42,82.73z"/></g></svg>