<?xml version="1.0" encoding="utf-8"?><svg version="1.1" id="Layer_1" xmlns="http://www.w3.org/2000/svg" xmlns:xlink="http://www.w3.org/1999/xlink" x="0px" y="0px" viewBox="0 0 122.88 109.47" style="enable-background:new 0 0 122.88 109.47" xml:space="preserve"><style type="text/css">.st0{fill-rule:evenodd;clip-rule:evenodd;}</style><g><path class="st0" d="M41.57,32.77c0.03-0.04,0.07-0.09,0.12-0.12c0.89-0.87,2.04-1.31,3.19-1.31c1.16-0.01,2.32,0.41,3.22,1.27 c0.04,0.03,0.08,0.07,0.12,0.12c0.87,0.89,1.31,2.04,1.32,3.19c0.01,1.19-0.44,2.37-1.32,3.28c-0.9,0.91-2.08,1.37-3.26,1.38 c-1.19,0.01-2.37-0.44-3.28-1.32c-0.91-0.9-1.37-2.08-1.38-3.26C40.29,34.82,40.71,33.67,41.57,32.77L41.57,32.77L41.57,32.77z M45.33,12.92c1.64,0,2.97,1.33,2.97,2.97c0,1.64-1.33,2.97-2.97,2.97s-2.97-1.33-2.97-2.97C42.36,14.25,43.68,12.92,45.33,12.92 L45.33,12.92z M36.04,10.96c1.31,0,2.37,1.06,2.37,2.37c0,1.31-1.06,2.37-2.37,2.37c-1.31,0-2.37-1.06-2.37-2.37 C33.68,12.02,34.73,10.96,36.04,10.96L36.04,10.96z M54.83,16.11c1.31,0,2.37,1.06,2.37,2.37c0,1.31-1.06,2.37-2.37,2.37 c-1.31,0-2.37-1.06-2.37-2.37C52.46,17.16,53.52,16.11,54.83,16.11L54.83,16.11z M3.36,30.84h7.3c1.85,0,3.36,1.56,3.36,3.36v43.77 h37.33l10.64-37.44h41.85c10.47,0,19.04,8.59,19.04,19.04v19.04h-0.02c0.01,0.12,0.02,0.24,0.02,0.37v30.49h-14.02V95.16H14.02 v13.66H0V34.2C0,32.35,1.51,30.84,3.36,30.84L3.36,30.84z M35.44,41.21c8.62,0,15.61,6.99,15.61,15.61 c0,8.62-6.99,15.61-15.61,15.61c-8.62,0-15.61-6.99-15.61-15.61C19.83,48.2,26.82,41.21,35.44,41.21L35.44,41.21z M37.58,26.11 c-0.47-0.65-0.82-1.41-1.05-2.25c-4.86-0.1-8.15-2.01-10.03-4.6c-0.98-1.34-1.58-2.87-1.83-4.41c-0.24-1.54-0.12-3.1,0.31-4.52 c0.79-2.53,2.58-4.61,5.25-5.4c4.14-6.03,12.21-6.49,17.53-1.61c4.31-1.65,8.96-1.64,12.79,1.19c1.91,1.4,3.35,3.33,4.26,5.52 c0.74,1.76,1.11,3.7,1.09,5.64c-0.01,1.45-0.27,2.92-0.74,4.33c-0.79,2.34-2.18,4.48-4.12,6.03c-1.95,1.57-4.45,2.55-7.42,2.51 c-1.36-0.01-2.81-0.25-4.34-0.72c-1.14,0.72-2.37,1.17-3.62,1.37c-1.56,0.25-3.13,0.1-4.54-0.41 C39.71,28.26,38.46,27.36,37.58,26.11L37.58,26.11L37.58,26.11z"/></g></svg>