<?xml version="1.0" encoding="utf-8"?><svg version="1.1" id="Layer_1" xmlns="http://www.w3.org/2000/svg" xmlns:xlink="http://www.w3.org/1999/xlink" x="0px" y="0px" viewBox="0 0 122.88 113.63" style="enable-background:new 0 0 122.88 113.63" xml:space="preserve"><style type="text/css"><![CDATA[
	.st0{fill-rule:evenodd;clip-rule:evenodd;}
]]></style><g><path class="st0" d="M41.1,101.17c-20.64-18.34-16.35-28.5-15.85-54.84c0-0.24,0.04-0.47,0.12-0.67l-5.19-1.63 c-0.74-16.4,8.75-26.21,20.52-30.93c4.28-1.72-2.89-11.1,6.97-7.49c13.17,4.82,42.39,11.38,49.31,19.65 c5.62,6.72,5.85,10.36,5.72,19.13c-0.04,2.85-0.48,5.34-1.79,6.27c-0.61,0.43-1.33,0.6-2.18,0.52c0,16.27,2.19,31.67-9.56,44.92 c-6.97,7.86-17.48,12.9-28.06,12.74c-4.17-0.07-6.75-0.66-10.35-2.01C47.21,105.49,44.27,103.98,41.1,101.17L41.1,101.17z M77.25,62.33c2.31,0,4.19,1.87,4.19,4.18c0,2.31-1.87,4.19-4.19,4.19s-4.19-1.88-4.19-4.19C73.06,64.2,74.94,62.33,77.25,62.33 L77.25,62.33L77.25,62.33z M45.61,62.33c2.31,0,4.19,1.87,4.19,4.18c0,2.31-1.87,4.19-4.19,4.19c-2.31,0-4.19-1.88-4.19-4.19 C41.43,64.2,43.3,62.33,45.61,62.33L45.61,62.33L45.61,62.33z M86.77,60.28c0.6,0.8,0.44,1.95-0.37,2.55 c-0.8,0.6-1.95,0.44-2.55-0.37c-1.46-1.95-3.01-2.97-4.65-3.36c-1.67-0.4-3.49-0.14-5.39,0.49c-0.96,0.32-1.99-0.19-2.3-1.15 c-0.31-0.96,0.19-1.99,1.15-2.3c2.49-0.84,4.97-1.16,7.36-0.59C82.47,56.13,84.75,57.59,86.77,60.28L86.77,60.28L86.77,60.28z M42.85,55.55c2.39-0.57,4.87-0.25,7.36,0.59c0.96,0.32,1.47,1.35,1.15,2.3c-0.32,0.96-1.35,1.47-2.3,1.15 c-1.88-0.64-3.71-0.88-5.39-0.49c-1.63,0.39-3.2,1.42-4.65,3.36c-0.6,0.8-1.74,0.97-2.55,0.37c-0.8-0.6-0.97-1.74-0.37-2.55 C38.14,57.59,40.42,56.13,42.85,55.55L42.85,55.55L42.85,55.55z M54.12,90.87c-1.01-0.55-1.37-1.81-0.81-2.81 c0.55-1,1.81-1.37,2.81-0.81c1.9,1.05,3.74,1.62,5.5,1.66c1.71,0.03,3.4-0.44,5.07-1.46c0.97-0.6,2.24-0.3,2.84,0.67 c0.6,0.97,0.3,2.25-0.67,2.84c-2.37,1.46-4.81,2.13-7.31,2.08C59.07,92.98,56.6,92.24,54.12,90.87L54.12,90.87L54.12,90.87z M0,111.17v-18.9h4.91v16.45h12.83v4.91H2.45C1.1,113.63,0,112.53,0,111.17L0,111.17L0,111.17z M105.15,108.72h12.83V92.28h4.91 v18.9c0,1.35-1.09,2.45-2.45,2.45h-15.28V108.72L105.15,108.72L105.15,108.72z M0,20.08V2.45C0,1.1,1.1,0,2.45,0h15.28v4.91H4.91 v15.18H0L0,20.08L0,20.08z M105.15,0h15.28c1.35,0,2.45,1.1,2.45,2.45v17.63h-4.91V4.91h-12.83V0L105.15,0L105.15,0z M53.28,103.38 c2.09,0.83,5.99,1.24,8.26,1.24c4.47,0,8.99-1.01,13.19-2.93c4.22-1.92,8.11-4.73,11.3-8.33c10.71-12.09,8.51-27.51,8.51-42.42 h0.01c-0.04-1.33-0.24-2.54-0.6-3.65c-0.35-1.07-0.85-2-1.52-2.79c-2.56-3-4.98-2.88-8.44-2.7c-0.32,0.01-0.62,0.03-1.07,0.06 c-13.68,0.6-22.64,0.59-29.91-0.04c-6.7-0.6-11.96-1.7-18.1-3.32c-0.58,1.36-1.25,2.69-2.03,3.98c-1,1.65-2.16,3.23-3.49,4.73 c-0.46,24.62-4.75,33.82,14.46,50.87c1.09,0.97,2.24,1.83,3.43,2.57C48.99,101.7,51.51,102.81,53.28,103.38L53.28,103.38z"/></g></svg>