<?xml version="1.0" encoding="iso-8859-1"?>
<!-- Generator: Adobe Illustrator 19.0.0, SVG Export Plug-In . SVG Version: 6.00 Build 0)  -->
<svg version="1.1" id="Capa_1" xmlns="http://www.w3.org/2000/svg" xmlns:xlink="http://www.w3.org/1999/xlink" x="0px" y="0px"
	 viewBox="0 0 384 384" style="enable-background:new 0 0 384 384;" xml:space="preserve">
<g>
	<g>
		<path d="M379.312,32.687l-28-28c-6.248-6.248-16.376-6.248-22.624,0l-28,28c-3,3-4.688,7.072-4.688,11.312v104h-24v-104
			c0-4.24-1.688-8.312-4.688-11.312l-28-28c-6.248-6.248-16.376-6.248-22.624,0l-28,28c-3,3-4.688,7.072-4.688,11.312v104h-24v-104
			c0-4.24-1.688-8.312-4.688-11.312l-28-28c-6.248-6.248-16.376-6.248-22.624,0l-28,28c-3,3-4.688,7.072-4.688,11.312v104H16
			c-8.832,0-16,7.168-16,16v56c0,8.832,7.168,16,16,16h56v132c0,8.832,7.168,16,16,16h56c8.832,0,16-7.168,16-16v-132h24v132
			c0,8.832,7.168,16,16,16h56c8.832,0,16-7.168,16-16v-132h24v132c0,8.832,7.168,16,16,16h56c8.832,0,16-7.168,16-16v-148v-56v-120
			C384,39.759,382.312,35.687,379.312,32.687z M72,203.999H32v-24h40V203.999z M128,351.999h-24V50.631l12-12l12,12V351.999z
			 M184,203.999h-24v-24h24V203.999z M240,351.999h-24V50.631l12-12l12,12V351.999z M296,203.999h-24v-24h24V203.999z M352,163.999
			v56v132h-24V50.631l12-12l12,12V163.999z"/>
	</g>
</g>
<g>
</g>
<g>
</g>
<g>
</g>
<g>
</g>
<g>
</g>
<g>
</g>
<g>
</g>
<g>
</g>
<g>
</g>
<g>
</g>
<g>
</g>
<g>
</g>
<g>
</g>
<g>
</g>
<g>
</g>
</svg>
