<?xml version="1.0" encoding="utf-8"?><svg version="1.1" id="Layer_1" xmlns="http://www.w3.org/2000/svg" xmlns:xlink="http://www.w3.org/1999/xlink" x="0px" y="0px" viewBox="0 0 122.88 64.87" style="enable-background:new 0 0 122.88 64.87" xml:space="preserve"><style type="text/css">.st0{fill-rule:evenodd;clip-rule:evenodd;}</style><g><path class="st0" d="M6.48,10.34C4.99,10.62,3.2,6.72,4.61,6.08c22.22-12.79,24.46-2.2,46.46,2.86l0.28-0.79 c0.7-1.94,0.67-1.34,2.89-0.72l1.07,0.3c3.66,1.02,2.04,0.73,5-1.16C66.99,2.31,77.1,3.3,83.85,7.65c5.85,3.77,6.3,6.93,7.69,13.05 c1.28,5.61,19.56,22.09,31.34,33.11l-5.56,5.78l-7.73-8.05l-7.92,8.71c-2.14,2.35-3.54,4.85-7.06,4.6c-2.38-0.17-8.58-3.74-11-4.94 l-10.13-5.03c-1.82-1.73-2.68-3.98-2.5-6.81c-2.65,0.34-4.93-0.29-6.87-1.84c-6.98-5.57-3.33-9.32-4.3-15.42 c-0.07-0.42-0.15-0.85-0.26-1.27c-1.58-6.4-5.08-8.43-10.19-10.77c-1.62-0.74-1.45-0.35-0.83-2.03l0.25-0.68 C29.65,11.09,25.52,1.22,6.48,10.34L6.48,10.34z M4.04,10.16c1.01,4.47,4.04,6.7,4.04,8.93c0,2.23-1.01,4.47-4.04,4.47 C1.01,23.56,0,21.33,0,19.09C0,16.86,3.03,14.63,4.04,10.16L4.04,10.16z M77.87,41.66c0.36-1.19,0.21-2.54-0.9-3.61l4.29-3.59 c1.67-1.19,3.54-1.74,5.65-1.48c5.76,0.71,14.38,10.65,18.82,14.73l-8.59,9.72C92.13,50.22,86.47,40.79,77.87,41.66L77.87,41.66z M76.24,46.45c0.49-0.35,1.07-0.51,1.75-0.48l4.15,7.72C80.1,53.03,71.85,49.62,76.24,46.45L76.24,46.45z M81.53,45.17 c2.98,1.46,7.29,6.6,11.54,12.06c0.79,0.64-0.1,2.51-2.09,0.97l-2.61-1.39C83.54,54.08,82.99,51.5,81.53,45.17L81.53,45.17z"/></g></svg>