<svg id="Layer_1" data-name="Layer 1" xmlns="http://www.w3.org/2000/svg" viewBox="0 0 122.88 120.05"><defs><style>.cls-1{fill-rule:evenodd;}</style></defs><title>guest-traveler</title><path class="cls-1" d="M90.54,38.25c2.23-.75,4.58.44,6.13,2.3h18.46a.51.51,0,0,1,.51.51v4.86a.51.51,0,0,1-.51.51H111.9V62.62h-3.73V46.43H98.11a9.11,9.11,0,0,1-2.36,3.36V62.62H92V52.41a57.27,57.27,0,0,1-8,3.38,84.35,84.35,0,0,1-9,2.79,18,18,0,0,1-15.71-4,41.48,41.48,0,0,1-3.49-3.35l-.34-.36-3,17.75a62.39,62.39,0,0,0,7.2,4.17c7.78,3.63,14.18,6.63,15.55,18.85.25,2.14.14,14.68,0,20.84H86a1.8,1.8,0,0,1-.67-1.43v-1.89a4.77,4.77,0,0,1-4.71-4.76v-36a4.78,4.78,0,0,1,4.76-4.76h1.09a.91.91,0,0,0,0,.23l1.19,4.54a7.4,7.4,0,0,0,1.79,3.38A4.22,4.22,0,0,0,92.58,73h4.77v2.55c0,.41,1.92.73,2.32.73H106a.72.72,0,0,0,.73-.72V73h5a4.36,4.36,0,0,0,3.16-1.32,6.81,6.81,0,0,0,1.72-3.4l1-4.48a1,1,0,0,0,0-.24h.51a4.78,4.78,0,0,1,4.76,4.76v36.05a4.77,4.77,0,0,1-4.71,4.76V111a1.8,1.8,0,0,1-.67,1.43h5.38v7.58H0v-7.58H19.83c1.41-3.79,2.86-7.83,4.28-11.89,2.93-8.39,5.74-17,7.8-23.84a22,22,0,0,1-3.21-5.06A11.33,11.33,0,0,1,27.82,65l4.33-21.82c-1.55-.08-3.34-.54-4.8.1-2.83,1.24-7,6.52-9.47,9l-3.31,3.35c-2.55,2.58-4.25,5.44-8.15,5.13-4.84-.38-8.3-5.76-4.89-9.89l7.63-7.72c3.67-3.73,7.16-8.12,11.69-10.68C24.49,30.41,28.45,29,35,29.28c2.4,0,4.94.27,7.34.5l2.8.24c11,.71,16.12,6.5,20.12,11,1.77,2,3.29,3.7,4.94,4.49.78.37,2-.15,3.39-.73L83.76,41l6.78-2.72ZM61.15,112.47c.14-6.94.29-16.73.18-18.62-.09-1.35-1-4.92-2.42-5.57a59.35,59.35,0,0,0-5.83-2.17c-2.75-.91-5-1.83-7.72-2.58-2,6.58-4.68,14.52-7.57,22.09l-2.73,6.85Zm52.87,0H89.49a1.77,1.77,0,0,0,.67-1.43v-1.89h23.19V111a1.77,1.77,0,0,0,.67,1.43ZM88.91,100.24a.88.88,0,0,1,0-1.76h25.82a.88.88,0,0,1,0,1.76Zm0-8.51a.88.88,0,0,1,0-1.76h25.82a.88.88,0,1,1,0,1.76Zm0-8.51a.88.88,0,0,1,0-1.76h25.82a.88.88,0,1,1,0,1.76Zm26.73-18.75H88.5l.9,3.43a5.63,5.63,0,0,0,1.34,2.58,2.49,2.49,0,0,0,1.83.78h19.17a2.65,2.65,0,0,0,1.92-.81,5.09,5.09,0,0,0,1.24-2.51l.74-3.47ZM44.82.71a13.17,13.17,0,1,1-7.56,6.66A13.13,13.13,0,0,1,44.82.71Z"/></svg>