<svg id="Layer_1" data-name="Layer 1" xmlns="http://www.w3.org/2000/svg" viewBox="0 0 122.88 89.3"><defs><style>.cls-1{fill-rule:evenodd;}</style></defs><title>leisure</title><path class="cls-1" d="M67.71,49.7l6.45-1.6,2.58-1.32,4.94-5.65A2.44,2.44,0,0,1,85.36,44l-3.31,5.12c-1.75,2.72-1.39,2.17-4.34,3.58-1.69.82-3.71,1.68-5.63,2.39l7.52,6.22c3.15-.43,6.21-1,9.31-1.45,3.55-.52,3.62-.06,6.23,2l12.22,9.54c3.23,2.85.79,5.79-2.11,5.27L93.82,68.59c-2.54-1.79-2.09-1.57-5.17-.41-3.5,1.32-7.4,3.15-11.11,3C73,71,72,68.36,68.89,65.66A26.28,26.28,0,0,1,64,60.75c-.77-1.19-1.58-2.16-2.07-3.13a3.58,3.58,0,0,1,0-3.59c1.29-2.47,2.11-3.5,5.82-4.33ZM36.5,32V82.46h3.4l7.42-4.81H43.38v-5H64.52L50.78,57.44l3.7-3.33L71.23,72.67h20.2a2.46,2.46,0,0,1,1.88.86l15.74,8.94h13.83V89.3H.4V82.46H31.15V32H1.94A1.94,1.94,0,0,1,0,30.08a1.28,1.28,0,0,1,0-.19A21.91,21.91,0,0,1,2.58,19.06C16.46-6,49.42-6.41,64.5,18.29a21.46,21.46,0,0,1,3,11.79A1.92,1.92,0,0,1,65.61,32H36.5ZM46.63,82.47H102L90.41,77.66H54.05l-7.42,4.81ZM45.11,6.13c4.31,6.23,6.46,14.54,6.56,22H63.61C63,19,53.41,9.9,45.11,6.13ZM39.45,3.68a33.86,33.86,0,0,0-3.66-.43v24.9h12c-.07-5.69-3.61-21.43-8.36-24.47ZM31.9,3.24a32.94,32.94,0,0,0-3.61.4C23.47,6.69,20,22.4,19.88,28.14h12V3.24ZM22.65,6C14.29,9.79,4.57,18.65,3.94,28.15H16c.08-7.39,2.28-16,6.62-22.12Zm38.1,31.09a6.26,6.26,0,1,0,6.82,5.64,6.27,6.27,0,0,0-6.82-5.64Z"/></svg>