<?xml version="1.0" encoding="utf-8"?><svg version="1.1" id="Layer_1" xmlns="http://www.w3.org/2000/svg" xmlns:xlink="http://www.w3.org/1999/xlink" x="0px" y="0px" viewBox="0 0 122.88 80.13" style="enable-background:new 0 0 122.88 80.13" xml:space="preserve"><style type="text/css">.st0{fill-rule:evenodd;clip-rule:evenodd;}</style><g><path class="st0" d="M92.6,48.09c0.58,4.96-4.52,9.24-8.99,7.88c-0.62,1.09-1.11,2.46-1.48,4.12c-0.85,3.86-0.6,2.68-0.23,6.41 c0.5,4.98-0.04,8.37-3.24,9.82v1.91H13.88v-1.91c-2.49-0.89-3.57-3.33-3.19-7.36c0.83-7.57,0.31-9.94-1.59-12.79 c-3.34,0.12-5.75-0.68-7.26-2.36c-3.07-3.41-2.14-8.42,1.7-10.83c0.79-0.5,1.72-0.87,2.8-1.1c2.14-0.45,3.67-0.46,5.68,0.47 c4.21,1.95,7.3,6.88,9.28,12.87L42.9,55.8c1.48,0.2,2.42,0.85,3.04,1.75c0.59-0.87,1.43-1.53,2.72-1.83 c6.72-0.29,11.54,0.6,16.45,0.6h5.72c1.17,0.01,1.78-0.52,1.98-1.46c1.39-4.26,3.83-7.65,6.82-10.59c1.98-1.94,2.34-2.66,5.2-2.57 C88.14,41.81,91.76,44.1,92.6,48.09L92.6,48.09z M97.53,0h19.6l5.75,22.68H91.82L97.53,0L97.53,0z M109.24,26.1v50.24h7.59 c1.05,0,1.9,0.85,1.9,1.9c0,1.05-0.85,1.9-1.9,1.9H97.87c-1.05,0-1.9-0.85-1.9-1.9c0-1.05,0.85-1.9,1.9-1.9h7.59V26.1H109.24 L109.24,26.1z M12.91,40.58l0.01,0c2.17-4.85,5.58-6.07,10.22-4.44l4.98,17.1h-5.38l-1.58-3.23l-1.74-3.56 c-0.82-1.4-1.76-2.58-2.84-3.55C15.48,41.92,14.26,41.15,12.91,40.58L12.91,40.58z M25.23,36.25c0.06-0.03,0.12-0.08,0.15-0.16 c1.83-4.23,6.89-5.42,11.03-3.61c0-0.01,0.01-0.02,0.01-0.02l1.13,21.79h-7.16L25.23,36.25L25.23,36.25z M38.63,32.03 c1.34-5.57,14.04-4.43,15.2-0.59c0.17-0.01-1.31,20.56-1.42,22.85h-1.89c-1.3,0-1.52-0.02-2.76,0.37 c-0.61,0.19-1.22,0.38-1.83,0.57l-1.61-0.6c-1.07-0.4-1.2-0.34-2.34-0.34H39.6l-0.92-22.25L38.63,32.03L38.63,32.03z M55.49,32.96 c0.04,0,0.09-0.01,0.13-0.03c4.6-2.45,10.99-0.67,11.61,2.53l-0.31,0.12l-5.04,18.67h-7.45L55.49,32.96L55.49,32.96z M68.76,36.93 c0.07,0.01,0.14-0.01,0.21-0.07c3.57-2.8,8.81-1.62,11.21,4.23l-0.05,0c-4.73,4.02-8.11,8.38-9.34,13.26h-6.85L68.76,36.93 L68.76,36.93z"/></g></svg>