<?xml version="1.0" encoding="utf-8"?><svg version="1.1" id="Layer_1" xmlns="http://www.w3.org/2000/svg" xmlns:xlink="http://www.w3.org/1999/xlink" x="0px" y="0px" viewBox="0 0 90.82 122.88" style="enable-background:new 0 0 90.82 122.88" xml:space="preserve"><style type="text/css">.st0{fill-rule:evenodd;clip-rule:evenodd;}</style><g><path class="st0" d="M77.03,0h13.33c0.25,0,0.46,0.21,0.46,0.46v121.96c0,0.25-0.21,0.46-0.46,0.46H77.03 c-0.25,0-0.46-0.21-0.46-0.46V56.14l-6.01,2.38l0,0l-0.86,0.3c-4.96,1.76-8.55,3.03-14.84,1.48c-0.05-0.01-0.09-0.03-0.13-0.05 c-4.4-1.71-6.68-4.08-8.9-6.4l-0.33-0.34L33.99,71.43c2.51,1.58,5.02,2.75,7.39,3.86c7.2,3.36,13.12,6.12,14.39,17.43 c0.23,2.03,0.12,3.94,0.01,6.02l0,0.03c-0.02,0.3-0.03,0.63-0.07,1.4l-0.88,21.91c-0.02,0.43-0.38,0.76-0.8,0.75l-11.13,0.03 c-0.43,0-0.78-0.35-0.78-0.78c0.12-7.55,0.34-15.46,0.73-23l0.06-1.02c0.06-1.18,0.12-2.27,0.06-3.29 c-0.06-0.97-0.24-1.88-0.64-2.75l-0.11-0.23c-0.45-0.98-0.86-1.88-1.48-2.17c-1.23-0.57-3.18-1.28-5.4-2.01 c-2.54-0.84-5.38-1.68-7.88-2.39c-1.84,6.08-0.71,14.49-3.39,21.48c-2.39,6.24-8.54,11.16-10.89,15.69 c-0.14,0.28-0.44,0.44-0.73,0.42l-11.69,0.06c-0.43,0-0.78-0.34-0.78-0.77c0-0.1,0.02-0.2,0.06-0.29l0,0 c2.34-5.75,8.71-12.17,11.36-19.76c2.71-7.77,1.7-16.74,3.62-23.1c-1.14-1.4-2.23-2.96-2.97-4.68c-0.82-1.9-1.22-3.96-0.81-6.17 c1.1-5.93,5.08-11.63,8.6-17.3c8.34-13.43,12.44-31.4,34.7-6.4c1.63,1.84,3.05,3.42,4.57,4.15c0.72,0.34,1.85-0.14,3.14-0.68 c0.78-0.33,1.6-0.68,2.47-0.91c0.56-0.21,0.87-0.33,1.11-0.42c0.31-0.12,0.52-0.2,0.64-0.24l9.24-3.66l0.04-0.01l0.81,0.12V0.46 C76.57,0.21,76.78,0,77.03,0L77.03,0z M79.64,43.2l0.07,0.01l0.12,11.25h2.9V39.71h-3.08V43.2L79.64,43.2z M46.8,9.76 c3.18-1.09,6.51-0.78,9.31,0.59c2.8,1.37,5.08,3.82,6.17,7c1.09,3.18,0.78,6.51-0.59,9.31c-1.37,2.8-3.82,5.08-7,6.17 c-3.18,1.09-6.51,0.78-9.31-0.59c-2.8-1.37-5.08-3.82-6.17-7c-1.09-3.18-0.78-6.51,0.59-9.31C41.18,13.13,43.62,10.85,46.8,9.76 L46.8,9.76z"/></g></svg>