<?xml version="1.0" encoding="utf-8"?><svg version="1.1" id="Layer_1" xmlns="http://www.w3.org/2000/svg" xmlns:xlink="http://www.w3.org/1999/xlink" x="0px" y="0px" viewBox="0 0 122.88 113.37" style="enable-background:new 0 0 122.88 113.37" xml:space="preserve"><style type="text/css">.st0{fill-rule:evenodd;clip-rule:evenodd;}</style><g><path class="st0" d="M35.44,45.11c8.62,0,15.61,6.99,15.61,15.61c0,8.62-6.99,15.61-15.61,15.61c-8.62,0-15.61-6.99-15.61-15.61 C19.83,52.1,26.82,45.11,35.44,45.11L35.44,45.11z M58.49,19.84l9.93-11.89h-6.54c-0.56,0-1.1-0.07-1.59-0.21 c-0.3-0.09-0.57-0.19-0.8-0.33c-0.25-0.13-0.48-0.29-0.7-0.48l-0.01-0.01c-0.22-0.19-0.4-0.39-0.57-0.61 c-0.16-0.22-0.3-0.46-0.41-0.72c-0.1-0.25-0.19-0.5-0.25-0.76c-0.06-0.28-0.08-0.55-0.08-0.82c0-0.27,0.02-0.54,0.07-0.8 c0.05-0.27,0.13-0.53,0.23-0.77c0.12-0.26,0.25-0.5,0.41-0.73c0.15-0.22,0.34-0.44,0.55-0.63l0.01-0.01 c0.2-0.19,0.44-0.36,0.69-0.5c0.25-0.14,0.52-0.26,0.82-0.35c0.25-0.07,0.52-0.14,0.78-0.17C61.33,0.02,61.61,0,61.89,0h14.17 c0.72,0,1.37,0.1,1.94,0.29c0.59,0.2,1.1,0.51,1.53,0.91c0.46,0.42,0.8,0.92,1.03,1.51c0.22,0.58,0.33,1.23,0.33,1.94 c0,0.56-0.06,1.08-0.17,1.57C80.66,6.49,80.57,6.75,80.47,7c-0.1,0.25-0.22,0.49-0.36,0.71c-0.1,0.15-0.21,0.33-0.35,0.52 c-0.12,0.16-0.27,0.37-0.47,0.61l-0.56,0.72l-9.71,11.55h8.71c0.27,0,0.54,0.01,0.81,0.05c0.26,0.03,0.52,0.09,0.76,0.16 c0.29,0.07,0.56,0.18,0.81,0.31c0.24,0.12,0.46,0.27,0.68,0.44l0.01,0.01c0.22,0.18,0.42,0.4,0.6,0.62 c0.17,0.22,0.31,0.47,0.42,0.74l0.05,0.13c0.09,0.22,0.16,0.46,0.2,0.71c0.04,0.25,0.07,0.5,0.07,0.75c0,0.27-0.03,0.55-0.08,0.82 c-0.05,0.27-0.12,0.52-0.22,0.77c-0.1,0.27-0.24,0.51-0.4,0.75c-0.16,0.23-0.35,0.44-0.57,0.63l-0.02,0.03 c-0.21,0.19-0.44,0.35-0.7,0.49c-0.24,0.14-0.52,0.25-0.8,0.33l-0.11,0.03c-0.23,0.06-0.47,0.12-0.72,0.15 c-0.27,0.03-0.53,0.05-0.79,0.05H61.55c-0.74,0-1.42-0.1-2.04-0.27h-0.01c-0.35-0.1-0.67-0.25-0.97-0.41 c-0.31-0.17-0.59-0.36-0.84-0.59c-0.25-0.23-0.48-0.48-0.67-0.75c-0.2-0.27-0.36-0.56-0.49-0.87c-0.13-0.31-0.22-0.61-0.29-0.93 c-0.06-0.33-0.1-0.65-0.1-0.99c0-0.27,0.03-0.52,0.07-0.8c0.05-0.26,0.12-0.5,0.21-0.75l0.01-0.03c0.03-0.1,0.08-0.18,0.12-0.29 l0.14-0.27l0.16-0.27c0.06-0.1,0.13-0.2,0.2-0.29L58.49,19.84L58.49,19.84z M3.36,34.74h7.3c1.85,0,3.37,1.56,3.37,3.36v43.77 h37.33l10.64-37.44h41.85c10.47,0,19.04,8.58,19.04,19.04v19.05h-0.02l0.02,0.37v30.49h-14.02V99.07H14.02v13.66H0V38.1 C0,36.25,1.51,34.74,3.36,34.74L3.36,34.74z M35.84,31.08l6.78-8.11h-4.43c-0.19,0-0.38-0.01-0.57-0.03 c-0.18-0.03-0.36-0.06-0.53-0.11c-0.2-0.06-0.39-0.14-0.55-0.22c-0.18-0.09-0.34-0.2-0.49-0.33l-0.01-0.02 c-0.14-0.12-0.27-0.26-0.37-0.41c-0.11-0.15-0.21-0.31-0.29-0.49c-0.07-0.17-0.13-0.35-0.17-0.53c-0.03-0.19-0.05-0.37-0.05-0.57 c0-0.19,0.02-0.37,0.05-0.56c0.03-0.18,0.09-0.36,0.16-0.52c0.07-0.18,0.16-0.34,0.27-0.5c0.1-0.14,0.23-0.29,0.37-0.43l0.01-0.01 c0.14-0.13,0.3-0.25,0.48-0.35c0.17-0.09,0.36-0.17,0.57-0.23c0.17-0.05,0.35-0.1,0.54-0.12c0.19-0.03,0.38-0.03,0.58-0.03h9.69 c0.49,0,0.94,0.06,1.33,0.2c0.42,0.14,0.76,0.35,1.06,0.63c0.31,0.29,0.55,0.64,0.71,1.04c0.15,0.4,0.23,0.84,0.23,1.33 c0,0.39-0.04,0.75-0.12,1.08c-0.04,0.18-0.1,0.37-0.16,0.54c-0.07,0.17-0.16,0.33-0.25,0.48c-0.07,0.1-0.15,0.22-0.25,0.36 c-0.1,0.13-0.2,0.27-0.32,0.42l-0.4,0.48c-0.12,0.15-0.26,0.33-0.44,0.52l-6.19,7.36h5.93c0.38,0,0.74,0.05,1.08,0.14 c0.2,0.05,0.38,0.13,0.55,0.22c0.17,0.08,0.33,0.19,0.48,0.32h0.01c0.15,0.12,0.29,0.27,0.4,0.42c0.12,0.16,0.22,0.32,0.3,0.5 l0.03,0.09c0.06,0.15,0.1,0.32,0.14,0.49c0.03,0.17,0.05,0.35,0.05,0.52c0,0.19-0.02,0.37-0.05,0.56 c-0.04,0.18-0.09,0.36-0.16,0.53c-0.06,0.18-0.16,0.35-0.27,0.51c-0.11,0.16-0.24,0.31-0.39,0.44l-0.01,0.02 c-0.15,0.14-0.31,0.25-0.48,0.34c-0.17,0.1-0.35,0.17-0.55,0.23l-0.07,0.01c-0.16,0.05-0.33,0.08-0.5,0.11 c-0.17,0.01-0.35,0.03-0.54,0.03H37.94c-0.25,0-0.49-0.01-0.73-0.05c-0.23-0.03-0.46-0.07-0.67-0.14h-0.01 c-0.23-0.07-0.46-0.16-0.67-0.27c-0.2-0.12-0.4-0.25-0.57-0.41c-0.18-0.15-0.33-0.32-0.47-0.5c-0.14-0.19-0.25-0.39-0.33-0.61 c-0.09-0.2-0.16-0.42-0.2-0.64c-0.04-0.22-0.06-0.45-0.06-0.68c0-0.18,0.01-0.36,0.05-0.54c0.03-0.18,0.08-0.35,0.15-0.52 c0.01-0.06,0.07-0.16,0.09-0.22l0.1-0.18c0.03-0.06,0.07-0.12,0.11-0.18c0.05-0.07,0.1-0.14,0.15-0.2l-0.02-0.01L35.84,31.08 L35.84,31.08z"/></g></svg>