<?xml version="1.0" encoding="utf-8"?><svg version="1.1" id="Layer_1" xmlns="http://www.w3.org/2000/svg" xmlns:xlink="http://www.w3.org/1999/xlink" x="0px" y="0px" viewBox="0 0 122.88 104.99" style="enable-background:new 0 0 122.88 104.99" xml:space="preserve"><g><path d="M0.06,60.72c-0.16-0.76,0.03-1.58,0.6-2.19l17.39-18.7c0.48-0.52,1.14-0.78,1.8-0.78v-0.01h8.59c1.36,0,2.46,1.1,2.46,2.46 s-1.1,2.46-2.46,2.46h-7.53L8.02,57.82h106.8l-12.99-13.86h-5.91c-1.36,0-2.46-1.1-2.46-2.46s1.1-2.46,2.46-2.46h6.97 c0.77,0,1.45,0.35,1.91,0.9l17.42,18.59c0.58,0.61,0.78,1.45,0.61,2.21v41.78c0,1.36-1.1,2.46-2.46,2.46H2.51 c-1.36,0-2.46-1.1-2.46-2.46V60.72L0.06,60.72z M64.93,47.17l5.19-14.15c0.47-1.27,1.88-1.93,3.15-1.46 c1.27,0.47,1.93,1.88,1.46,3.15l-4.57,12.45h10.88l21.41-36.46c-1.61-0.12-2.98-0.76-4.4-1.9c-6.65-5.33-8.94-3.66-11.51-1.79 c-3.16,2.3-6.58,4.79-13.61,2.44c-2.08-0.7-3.67-1.38-5.05-1.97c-3.83-1.64-5.67-2.43-11.76,0.97 c-10.18,5.68-13.05,3.02-16.43-0.11c-1.64-1.52-3.47-3.22-7.78-2.81c-2.21,0.21-3.98,1.43-5.61,2.56 c-1.85,1.28-3.56,2.46-5.57,2.78l22.73,36.29h9.75l-4.57-12.45c-0.47-1.27,0.19-2.68,1.46-3.15c1.27-0.47,2.68,0.19,3.15,1.46 l5.19,14.15H64.93L64.93,47.17z M82.44,52.09H42.12v-0.01c-0.81,0-1.61-0.41-2.07-1.15L13.3,8.24c-0.61-0.82-0.66-1.96-0.06-2.85 c0.76-1.12,2.29-1.41,3.41-0.64c2.94,2.02,4.76,0.76,6.86-0.69c2.12-1.47,4.44-3.07,7.93-3.4c6.51-0.62,9.19,1.87,11.59,4.1 c1.96,1.82,3.63,3.37,10.7-0.58c8.19-4.57,10.74-3.48,16.06-1.2c1.32,0.57,2.85,1.22,4.69,1.84c4.63,1.55,6.99-0.16,9.17-1.75 c4.16-3.03,7.89-5.75,17.46,1.92c0.7,0.56,1.3,0.85,1.92,0.85c0.81-0.01,1.88-0.4,3.4-1.22l0,0c0.73-0.39,1.63-0.4,2.4,0.04 c1.17,0.68,1.56,2.19,0.88,3.35L84.67,50.68C84.27,51.51,83.42,52.09,82.44,52.09L82.44,52.09z M117.9,62.73H4.97v37.33H117.9 V62.73L117.9,62.73z"/></g></svg>