<?xml version="1.0" encoding="utf-8"?><svg version="1.1" id="Layer_1" xmlns="http://www.w3.org/2000/svg" xmlns:xlink="http://www.w3.org/1999/xlink" x="0px" y="0px" viewBox="0 0 83.35 122.88" style="enable-background:new 0 0 83.35 122.88" xml:space="preserve"><g><path d="M11.29,25.24h57.97h2.8c3.11,0,5.93,1.27,7.98,3.32c2.05,2.05,3.32,4.87,3.32,7.98v69.02c0,3.11-1.27,5.93-3.32,7.98 c-2.03,2.02-4.81,3.29-7.88,3.31v2.01c0,2.22-1.81,4.03-4.03,4.03l0,0c-2.22,0-4.03-1.81-4.03-4.03v-2H19.26v2 c0,2.22-1.81,4.03-4.03,4.03l0,0c-2.22,0-4.03-1.81-4.03-4.03v-2.01c-3.07-0.03-5.86-1.29-7.88-3.31C1.27,111.48,0,108.66,0,105.55 V36.53c0-3.11,1.27-5.93,3.32-7.98C5.36,26.51,8.19,25.24,11.29,25.24L11.29,25.24z M17.63,0h48.44c0.56,0,1.02,0.46,1.02,1.02 v6.56c0,0.56-0.46,1.02-1.02,1.02H58.8V22h-4.28V8.59H29.65V22h-4.28V8.59h-7.74c-0.56,0-1.02-0.46-1.02-1.02V1.02 C16.62,0.46,17.08,0,17.63,0L17.63,0z M49.58,45.9v5.11c0,0.49-0.2,0.94-0.52,1.26c-0.33,0.32-0.77,0.53-1.26,0.53H36.7 c-0.49,0-0.94-0.2-1.26-0.52c-0.32-0.32-0.52-0.77-0.52-1.26V45.9h-9.24c-2.55,0-4.59-0.99-6.18-2.58 c-1.74-1.74-2.89-4.19-3.58-6.78l-2.05-7.77h-2.58c-2.13,0-4.07,0.87-5.48,2.28c-1.41,1.41-2.28,3.35-2.28,5.48v69.02 c0,2.13,0.87,4.07,2.28,5.48c1.41,1.41,3.35,2.28,5.48,2.28h60.77c2.13,0,4.07-0.87,5.48-2.28c1.41-1.41,2.28-3.35,2.28-5.48V36.53 c0-2.13-0.87-4.07-2.28-5.48c-1.41-1.41-3.35-2.28-5.48-2.28h-1.37l-1.64,7.69c-0.56,2.62-1.71,5.07-3.45,6.81 c-1.63,1.63-3.74,2.64-6.32,2.64H49.58L49.58,45.9z M18.34,100.41c-0.97,0-1.76-0.79-1.76-1.76c0-0.97,0.79-1.76,1.76-1.76h46.94 c0.97,0,1.76,0.79,1.76,1.76c0,0.97-0.79,1.76-1.76,1.76H18.34L18.34,100.41z M18.34,83.37c-0.97,0-1.76-0.79-1.76-1.76 s0.79-1.76,1.76-1.76h46.94c0.97,0,1.76,0.79,1.76,1.76s-0.79,1.76-1.76,1.76H18.34L18.34,83.37z M18.34,66.33 c-0.97,0-1.76-0.79-1.76-1.76c0-0.97,0.79-1.76,1.76-1.76h46.94c0.97,0,1.76,0.79,1.76,1.76c0,0.97-0.79,1.76-1.76,1.76H18.34 L18.34,66.33z M17.52,28.77l1.81,6.87c0.54,2.04,1.4,3.92,2.67,5.18c0.95,0.95,2.17,1.55,3.68,1.55h33.61 c1.56,0,2.84-0.62,3.83-1.61c1.24-1.24,2.08-3.06,2.5-5.04l1.48-6.96H17.52L17.52,28.77z"/></g></svg>