<?xml version="1.0" encoding="utf-8"?><svg version="1.1" id="Layer_1" xmlns="http://www.w3.org/2000/svg" xmlns:xlink="http://www.w3.org/1999/xlink" x="0px" y="0px" viewBox="0 0 122.88 73.49" style="enable-background:new 0 0 122.88 73.49" xml:space="preserve"><style type="text/css"><![CDATA[
	.st0{fill-rule:evenodd;clip-rule:evenodd;}
]]></style><g><path class="st0" d="M122.88,62.83h-3.37v6.53c0,2.27-1.86,4.13-4.13,4.13h-4.22c-2.27,0-4.13-1.86-4.13-4.13v-6.53H78.6v6.53 c0,2.27-1.86,4.13-4.13,4.13h-4.22c-2.27,0-4.13-1.86-4.13-4.13v-6.53h-3.26V13.76c0-4.77,2.78-8.24,8.38-10.39 c11.52-4.49,31.75-4.49,43.26,0c5.6,2.16,8.38,5.62,8.38,10.4V62.83L122.88,62.83L122.88,62.83z M53.18,45.88v18.86v4.48v4.27 h-6.45v-4.27H8.68v4.27H2.22v-4.27v-4.48V45.88H0v-4.24h5.43l3.03-9.42c0.89-2.77,2.38-5.29,5.29-5.29h6.66V23.2 c0-1.67-0.35-1.53,1.23-1.53h12.32c1.32,0,1.03-0.13,1.03,1.28v3.98h7.79c2.91,0,4.59,2.47,5.29,5.29l2.34,9.42h4.99v4.24 L53.18,45.88L53.18,45.88L53.18,45.88z M18.04,60.71H37.1v4.5H18.04V60.71L18.04,60.71L18.04,60.71z M4.38,50.24 c4.86,0.15,7.83,2.19,8.59,6.43H4.38V50.24L4.38,50.24L4.38,50.24z M50.41,50.24c-4.86,0.15-7.83,2.19-8.59,6.43h8.59V50.24 L50.41,50.24L50.41,50.24z M7.75,41.64h39.91l-1.71-7.9c-0.47-2.16-1.82-4.04-4.04-4.04h-27.6c-2.22,0-3.35,1.92-4.04,4.04 L7.75,41.64L7.75,41.64L7.75,41.64z M79.75,50.63h26.24c0.23,0,0.41,0.3,0.41,0.66v1.98c0,0.37-0.19,0.66-0.41,0.66H79.75 c-0.23,0-0.41-0.3-0.41-0.66v-1.98C79.33,50.93,79.52,50.63,79.75,50.63L79.75,50.63L79.75,50.63L79.75,50.63z M79.75,55.63h26.24 c0.23,0,0.41,0.3,0.41,0.66v1.98c0,0.36-0.19,0.66-0.41,0.66H79.75c-0.23,0-0.41-0.3-0.41-0.66v-1.98 C79.33,55.93,79.52,55.63,79.75,55.63L79.75,55.63L79.75,55.63z M68.27,14.04h21.4c0.66,0,1.21,0.54,1.21,1.21v17.68 c0,0.66-0.54,1.21-1.21,1.21h-21.4c-0.66,0-1.21-0.54-1.21-1.21V15.24C67.06,14.58,67.61,14.04,68.27,14.04L68.27,14.04 L68.27,14.04L68.27,14.04z M95.97,14.04h21.4c0.66,0,1.21,0.54,1.21,1.21v17.68c0,0.66-0.54,1.21-1.21,1.21h-21.4 c-0.66,0-1.21-0.54-1.21-1.21V15.24C94.77,14.58,95.31,14.04,95.97,14.04L95.97,14.04L95.97,14.04L95.97,14.04z M119.47,55.33 c0-1.23-0.42-2.26-1.27-3.1c-0.85-0.85-1.89-1.27-3.11-1.27c-1.19,0-2.21,0.43-3.08,1.27c-0.87,0.85-1.29,1.87-1.29,3.1 c0,1.19,0.43,2.2,1.29,3.04c0.87,0.85,1.89,1.27,3.08,1.27c1.21,0,2.26-0.42,3.11-1.27C119.05,57.53,119.47,56.53,119.47,55.33 L119.47,55.33L119.47,55.33L119.47,55.33z M75.01,55.33c0-1.23-0.43-2.26-1.27-3.1c-0.85-0.85-1.88-1.27-3.11-1.27 c-1.21,0-2.26,0.43-3.11,1.27c-0.85,0.85-1.25,1.87-1.25,3.1c0,1.19,0.4,2.2,1.25,3.04c0.85,0.85,1.89,1.27,3.11,1.27 c1.23,0,2.26-0.42,3.11-1.27C74.58,57.53,75.01,56.53,75.01,55.33L75.01,55.33L75.01,55.33L75.01,55.33z"/></g></svg>