<?xml version="1.0" encoding="utf-8"?><svg version="1.1" id="Layer_1" xmlns="http://www.w3.org/2000/svg" xmlns:xlink="http://www.w3.org/1999/xlink" x="0px" y="0px" viewBox="0 0 79.82 122.88" style="enable-background:new 0 0 79.82 122.88" xml:space="preserve"><style type="text/css">.st0{fill-rule:evenodd;clip-rule:evenodd;}</style><g><path class="st0" d="M9.53,27h2.18c0,0.15,0.02,0.3,0.06,0.45l2.39,9.09c0.68,2.6,1.84,5.05,3.58,6.78 c1.59,1.59,3.63,2.58,6.18,2.58h9.56v5.11c0,0.81,0.66,1.47,1.46,1.47h11.1c0.81,0,1.46-0.66,1.46-1.46V45.9h10.02 c2.58,0,4.69-1.01,6.32-2.64c1.74-1.74,2.89-4.19,3.45-6.81l1.91-8.98c0.04-0.15,0.06-0.31,0.06-0.47h1.03 c5.24,0,9.53,4.29,9.53,9.53v69.02c0,5.21-4.24,9.48-9.43,9.53v3.77c0,2.22-1.81,4.03-4.03,4.03l0,0c-2.22,0-4.03-1.81-4.03-4.03 v-3.77H17.49v3.77c0,2.22-1.81,4.03-4.03,4.03l0,0c-2.22,0-4.03-1.81-4.03-4.03v-3.77c-5.2-0.05-9.43-4.32-9.43-9.53V36.53 C0,31.29,4.29,27,9.53,27L9.53,27z M16.57,100.41c-0.97,0-1.76-0.79-1.76-1.76c0-0.97,0.79-1.76,1.76-1.76h46.94 c0.97,0,1.76,0.79,1.76,1.76c0,0.97-0.79,1.76-1.76,1.76H16.57L16.57,100.41z M16.57,83.37c-0.97,0-1.76-0.79-1.76-1.76 s0.79-1.76,1.76-1.76h46.94c0.97,0,1.76,0.79,1.76,1.76s-0.79,1.76-1.76,1.76H16.57L16.57,83.37z M16.57,66.33 c-0.97,0-1.76-0.79-1.76-1.76c0-0.97,0.79-1.76,1.76-1.76h46.94c0.97,0,1.76,0.79,1.76,1.76c0,0.97-0.79,1.76-1.76,1.76H16.57 L16.57,66.33z M65.32,28.77H15.75l1.81,6.87c0.54,2.04,1.4,3.92,2.67,5.18c0.95,0.95,2.17,1.55,3.68,1.55h33.61 c1.56,0,2.84-0.62,3.83-1.61c1.24-1.24,2.08-3.06,2.5-5.04L65.32,28.77L65.32,28.77z M15.87,0h48.44c0.56,0,1.02,0.46,1.02,1.02 v6.56c0,0.56-0.46,1.02-1.02,1.02h-7.28v16.48h-4.28V8.59H27.89v16.48h-4.28V8.59h-7.74c-0.56,0-1.02-0.46-1.02-1.02V1.02 C14.85,0.46,15.31,0,15.87,0L15.87,0z"/></g></svg>