<?xml version="1.0" encoding="utf-8"?><svg version="1.1" id="Layer_1" xmlns="http://www.w3.org/2000/svg" xmlns:xlink="http://www.w3.org/1999/xlink" x="0px" y="0px" viewBox="0 0 122.88 122.84" style="enable-background:new 0 0 122.88 122.84" xml:space="preserve"><style type="text/css">.st0{fill-rule:evenodd;clip-rule:evenodd;}</style><g><path class="st0" d="M64.7,4.88c28.42,1.45,51.88,21.7,58.18,48.56h-0.01l-8.13,9.59l-7.82-9.59h-1.06l-8.17,9.64l-7.86-9.64h-1.95 l-8.13,9.59l-7.82-9.59h-1.03c0,0.05,0,0.1,0,0.15c0,2.26-1.92,4.22-4.7,5.14v45c0,5.26-2.15,10.04-5.61,13.5 c-3.46,3.46-8.24,5.61-13.5,5.61h0c-5.24,0-10.01-2.15-13.48-5.61l-0.01-0.01l-0.01-0.01c-3.46-3.47-5.61-8.24-5.61-13.48v-1.77 h8.18v1.77c0,3.01,1.23,5.75,3.2,7.72l0.02,0.02c1.97,1.97,4.71,3.2,7.72,3.2h0c3,0,5.73-1.23,7.72-3.22 c1.98-1.98,3.22-4.72,3.22-7.72V58.35c-2.25-1.02-3.74-2.77-3.74-4.76c0-0.05,0-0.1,0-0.15H51l-7.82,9.59l-8.13-9.59H33.1 l-7.86,9.64l-8.17-9.64H16l-7.82,9.59l-8.13-9.59H0C6.25,26.79,29.39,6.64,57.52,4.92L61.27,0L64.7,4.88L64.7,4.88z"/></g></svg>