<?xml version="1.0" encoding="iso-8859-1"?>
<!-- Generator: Adobe Illustrator 19.0.0, SVG Export Plug-In . SVG Version: 6.00 Build 0)  -->
<svg version="1.1" id="Capa_1" xmlns="http://www.w3.org/2000/svg" xmlns:xlink="http://www.w3.org/1999/xlink" x="0px" y="0px"
	 viewBox="0 0 384 384" style="enable-background:new 0 0 384 384;" xml:space="preserve">
<g>
	<g>
		<path d="M208,32.72V16c0-8.832-7.168-16-16-16c-8.832,0-16,7.168-16,16v16.72C77.592,40.88,0,123.52,0,224v16
			c0,8.832,7.168,16,16,16c8.832,0,16-7.168,16-16c0-13.232,12.56-24,28-24s28,10.768,28,24c0,8.832,7.168,16,16,16
			c8.832,0,16-7.168,16-16c0-13.232,12.56-24,28-24s28,10.768,28,24v104c0,4.408-3.592,8-8,8s-8-3.592-8-8v-8
			c0-8.832-7.168-16-16-16c-8.832,0-16,7.168-16,16v8c0,22.056,17.944,40,40,40c22.056,0,40-17.944,40-40V240
			c0-13.232,12.56-24,28-24s28,10.768,28,24c0,8.832,7.168,16,16,16c8.832,0,16-7.168,16-16c0-13.232,12.56-24,28-24
			s28,10.768,28,24c0,8.832,7.168,16,16,16c8.832,0,16-7.168,16-16v-16C384,123.52,306.408,40.88,208,32.72z M324,184
			c-17.368,0-33.032,6.92-44,17.968C269.032,190.92,253.368,184,236,184c-17.368,0-33.032,6.92-44,17.968
			C181.032,190.92,165.368,184,148,184s-33.032,6.92-44,17.968C93.032,190.92,77.368,184,60,184c-8.56,0-16.704,1.68-24.08,4.704
			C52.032,117.408,115.896,64,192,64s139.968,53.408,156.08,124.704C340.704,185.68,332.56,184,324,184z"/>
	</g>
</g>
<g>
</g>
<g>
</g>
<g>
</g>
<g>
</g>
<g>
</g>
<g>
</g>
<g>
</g>
<g>
</g>
<g>
</g>
<g>
</g>
<g>
</g>
<g>
</g>
<g>
</g>
<g>
</g>
<g>
</g>
</svg>
