<?xml version="1.0" encoding="utf-8"?><svg version="1.1" id="Layer_1" xmlns="http://www.w3.org/2000/svg" xmlns:xlink="http://www.w3.org/1999/xlink" x="0px" y="0px" viewBox="0 0 121.14 122.88" style="enable-background:new 0 0 121.14 122.88" xml:space="preserve"><g><path d="M56.62,3.95c0-1.09,0.44-2.08,1.16-2.79C58.5,0.44,59.48,0,60.57,0c1.09,0,2.07,0.44,2.79,1.16l0,0 c0.71,0.71,1.16,1.7,1.16,2.79v5.5c6.89,0.39,13.48,1.77,19.55,3.99c6.73,2.46,12.83,5.93,18.05,10.2 c5.6,4.58,10.21,10.09,13.49,16.25c3.18,5.97,5.11,12.54,5.52,19.47l0,0.04c0.05,1.07-0.34,2.06-1,2.8 c-0.67,0.75-1.63,1.25-2.72,1.31l-0.01,0c-0.07,0.01-0.14,0.02-0.21,0.02H64.51v39.12c-0.01,0.1-0.01,0.21-0.02,0.31 c-0.01,4.36-1.03,8.03-2.73,10.99c-1.93,3.35-4.72,5.78-7.9,7.26c-1.22,0.57-2.5,0.99-3.82,1.27c-1.31,0.28-2.67,0.42-4.04,0.41 c-1.36-0.01-2.72-0.16-4.05-0.46c-1.31-0.3-2.61-0.74-3.85-1.32c-3.43-1.61-6.47-4.28-8.58-8.02c-1.85-3.29-2.97-7.4-2.97-12.32 c0-1.08,0.44-2.07,1.15-2.78v-0.01c0.71-0.71,1.7-1.15,2.78-1.15s2.07,0.44,2.78,1.15l0.09,0.1c0.66,0.7,1.06,1.65,1.06,2.69 c0,3.36,0.7,6.11,1.86,8.26c1.27,2.36,3.1,4.01,5.14,4.97c0.73,0.34,1.48,0.6,2.25,0.77c0.78,0.18,1.58,0.27,2.36,0.27 c0.77,0,1.55-0.08,2.32-0.24c0.75-0.16,1.49-0.41,2.18-0.73c1.81-0.84,3.39-2.25,4.49-4.23c1.01-1.82,1.62-4.14,1.62-6.97 c0-0.07-0.01-0.15-0.01-0.23V63.52H3.95c-1.09,0-2.08-0.44-2.79-1.16C0.44,61.65,0,60.66,0,59.57c0-0.07,0-0.16,0.01-0.27 l0.02-0.18c0.43-6.88,2.38-13.4,5.55-19.33c3.28-6.12,7.86-11.6,13.44-16.16c5.22-4.27,11.33-7.74,18.05-10.2 c6.07-2.22,12.66-3.61,19.55-3.99V3.95L56.62,3.95z M97.13,29.74c-4.83-3.95-10.54-7.12-16.85-9.29 c-6.09-2.09-12.74-3.23-19.71-3.23c-6.97,0-13.62,1.15-19.71,3.23c-6.31,2.16-12.02,5.34-16.85,9.29 c-4.43,3.62-8.12,7.89-10.85,12.61v0.01c-2.37,4.11-4.02,8.57-4.82,13.26h104.44c-0.79-4.69-2.44-9.16-4.82-13.26l-0.04-0.08 C105.22,37.59,101.54,33.35,97.13,29.74L97.13,29.74z"/></g></svg>