<svg id="Layer_1" data-name="Layer 1" xmlns="http://www.w3.org/2000/svg" viewBox="0 0 122.88 107.29"><defs><style>.cls-1{fill-rule:evenodd;}</style></defs><title>workplace</title><path class="cls-1" d="M28,18.22a1,1,0,0,0-.36.42,1.54,1.54,0,0,0-.12.67,5.83,5.83,0,0,0,1.2,2.91h0l2.51,4a21.61,21.61,0,0,0,3.37,4.45,6.91,6.91,0,0,0,4.82,1.94,7.12,7.12,0,0,0,5.1-2A22.16,22.16,0,0,0,48,25.85l2.83-4.66a10.13,10.13,0,0,0,.53-1.48c.45-1.8-.72-1.4-2.08-1.43a4.23,4.23,0,0,1-.5-.05l1-3.69c-7.2,1.14-12.58-4.21-20.18-1.07l.55,4.46c-.77,0-1.41-.21-2.13.29ZM74.68,10H114.3a3.25,3.25,0,0,1,3.23,3.23V39.48a3.25,3.25,0,0,1-3.23,3.23H99.54l2.52,6.35H118a4.89,4.89,0,0,1,4.88,4.88V65.08A4.91,4.91,0,0,1,118,70h-2.47V103.6a3.69,3.69,0,0,1-3.69,3.69H11.59a3.73,3.73,0,0,1-3.71-3.72V70h-3A4.9,4.9,0,0,1,0,65.07V53.93a4.88,4.88,0,0,1,4.88-4.87h7.59c0-1.35,0-2.11,0-3.46,0-8.5,14.26-7.89,19.18-11.1a27.65,27.65,0,0,0,1.29-3.38L33,31A26.54,26.54,0,0,1,30,27l-2.51-4a7.27,7.27,0,0,1-1.43-3.64,3,3,0,0,1,.25-1.32,2.42,2.42,0,0,1,.86-1,3.07,3.07,0,0,1,.6-.31,55.24,55.24,0,0,1-.12-6.59A10.62,10.62,0,0,1,28,8.52a10.53,10.53,0,0,1,7-6.76c1.57-.54,1-1.83,2.56-1.76,3.74.21,9.53,2.63,11.76,5.18C52.4,8.78,51.6,12.6,51.49,17h0a1.78,1.78,0,0,1,1.32,1.36,5.73,5.73,0,0,1-.68,3.43h0a.14.14,0,0,1-.05.08l-2.86,4.71a23,23,0,0,1-3.73,5l-.06.09.46.67c.5.73,1.06,1.56,1.59,2.21,3.94,2.45,17.81,3,18.05,9.13l.21,5.35H87l3-6.35H74.68a3.25,3.25,0,0,1-3.23-3.23V13.2A3.24,3.24,0,0,1,74.68,10Zm-70,43.76a.3.3,0,0,0-.08.2V65.07a.27.27,0,0,0,.27.29H118a.27.27,0,0,0,.28-.29V53.93a.27.27,0,0,0-.09-.2.29.29,0,0,0-.2-.09c-10.48,0-113-.14-113.28.09ZM12.47,70v32.73H111V70ZM34.92,39a3.1,3.1,0,0,1,0-4.55,10.66,10.66,0,0,1,3.78,2,2.21,2.21,0,0,1,1-.16,24.37,24.37,0,0,1,4.13-2.12c1.85,1.8,1.66,3.47-.16,5a8.27,8.27,0,0,1-2.32-1.07,3.27,3.27,0,0,1-.2.79l2,7.81c1.54-3.24,3.14-6.6,3.54-10.79a30.66,30.66,0,0,1-2-2.71c-.15-.21-.28-.4-.4-.59A8.33,8.33,0,0,1,39.44,34a8.08,8.08,0,0,1-5.29-1.9,16.7,16.7,0,0,1-1.53,3.59,1.07,1.07,0,0,1-.14.16A38.16,38.16,0,0,0,36.26,46.7l2-7.81a2.4,2.4,0,0,1-.4-1.29,8.88,8.88,0,0,1-3,1.36Z"/></svg>