<?xml version="1.0" encoding="utf-8"?><svg version="1.1" id="Layer_1" xmlns="http://www.w3.org/2000/svg" xmlns:xlink="http://www.w3.org/1999/xlink" x="0px" y="0px" viewBox="0 0 122.88 122.88" style="enable-background:new 0 0 122.88 122.88" xml:space="preserve"><g><path d="M54.38,36.39L36.9,20.42c-2.88-2.62-3.06-7.08-0.44-9.95c2.62-2.88,7.08-3.06,9.95-0.44l7.96,7.26l0-10.21 c0-3.91,3.17-7.08,7.08-7.08c3.91,0,7.08,3.17,7.08,7.08v10.88L77.9,9.4c2.88-2.62,7.34-2.43,9.95,0.44 c2.62,2.88,2.43,7.34-0.44,9.95L68.54,37.05v17.29h17.18l16.81-18.4c2.62-2.88,7.08-3.06,9.95-0.44c2.88,2.62,3.06,7.08,0.44,9.95 l-8.11,8.89h10.99c3.91,0,7.08,3.17,7.08,7.08s-3.17,7.08-7.08,7.08h-9.99l7.74,8.44c2.62,2.88,2.43,7.34-0.44,9.95 c-2.88,2.62-7.34,2.43-9.95-0.44L86.71,68.5l-18.18,0v17.59l18.88,17.25c2.88,2.62,3.06,7.08,0.44,9.95 c-2.62,2.88-7.08,3.06-9.95,0.44l-9.36-8.55v10.62c0,3.91-3.17,7.08-7.08,7.08c-3.91,0-7.08-3.17-7.08-7.08v-9.95l-7.96,7.26 c-2.88,2.62-7.34,2.43-9.95-0.44c-2.62-2.88-2.43-7.34,0.44-9.95l17.48-15.96V68.5H36.9L20.46,86.45 c-2.62,2.88-7.08,3.06-9.95,0.44s-3.06-7.08-0.44-9.95l7.74-8.44l-10.73,0C3.17,68.5,0,65.33,0,61.42s3.17-7.08,7.08-7.08H18.8 l-8.11-8.89c-2.62-2.88-2.43-7.34,0.44-9.95c2.88-2.62,7.34-2.43,9.95,0.44l16.81,18.4h16.48V36.39L54.38,36.39z"/></g></svg>