<?xml version="1.0" encoding="iso-8859-1"?>
<!-- Generator: Adobe Illustrator 19.0.0, SVG Export Plug-In . SVG Version: 6.00 Build 0)  -->
<svg version="1.1" id="Capa_1" xmlns="http://www.w3.org/2000/svg" xmlns:xlink="http://www.w3.org/1999/xlink" x="0px" y="0px"
	 viewBox="0 0 384 384" style="enable-background:new 0 0 384 384;" xml:space="preserve">
<g>
	<g>
		<path d="M384,186.8c0-55.76-46.656-101.12-104-101.12c-4.36,0-8.664,0.256-12.912,0.776C253.568,45.32,213.632,16,168,16
			C110.656,16,64,61.4,64,117.2c0,0.896,0.008,1.784,0.032,2.672C26.592,130.024,0,163.096,0,202.32C0,249.56,39.48,288,88,288
			c8.832,0,16-7.168,16-16c0-8.832-7.168-16-16-16c-30.88,0-56-24.08-56-53.68c0-27.928,21.888-50.888,50.912-53.416
			c4.536-0.4,8.696-2.712,11.424-6.36c2.728-3.656,3.768-8.296,2.864-12.76c-0.8-3.928-1.2-8.16-1.2-12.584
			C96,79.04,128.304,48,168,48c35.72,0,66.368,25.576,71.288,59.496c0.664,4.592,3.296,8.672,7.208,11.176
			c3.92,2.504,8.712,3.176,13.168,1.864c6.416-1.896,13.256-2.856,20.336-2.856c39.696,0,72,31.008,72,69.12
			c0,38.16-32.304,69.2-72,69.2h-4.208c-15.304-31.416-40.344-64.936-47.088-73.736c-6.056-7.896-19.344-7.896-25.4,0
			C193.4,195.184,144,261.4,144,296c0,39.696,32.304,72,72,72s72-32.304,72-72c0-2.6-0.36-5.432-0.88-8.352
			C341.144,284.064,384,240.264,384,186.8z M216,336c-22.056,0-40-17.944-40-40c0-14.336,20.544-49.064,40-76.88
			c13.32,19.04,27.136,41.312,34.536,58.072c0.232,0.68,0.512,1.336,0.832,1.968C254.256,286.024,256,291.872,256,296
			C256,318.056,238.056,336,216,336z"/>
	</g>
</g>
<g>
</g>
<g>
</g>
<g>
</g>
<g>
</g>
<g>
</g>
<g>
</g>
<g>
</g>
<g>
</g>
<g>
</g>
<g>
</g>
<g>
</g>
<g>
</g>
<g>
</g>
<g>
</g>
<g>
</g>
</svg>
