<?xml version="1.0" encoding="iso-8859-1"?>
<!-- Generator: Adobe Illustrator 19.0.0, SVG Export Plug-In . SVG Version: 6.00 Build 0)  -->
<svg version="1.1" id="Capa_1" xmlns="http://www.w3.org/2000/svg" xmlns:xlink="http://www.w3.org/1999/xlink" x="0px" y="0px"
	 viewBox="0 0 384 384" style="enable-background:new 0 0 384 384;" xml:space="preserve">
<g>
	<g>
		<path d="M368,176h-14.112l4.424-8.84c3.952-7.904,0.752-17.512-7.16-21.472c-7.92-3.968-17.512-0.736-21.472,7.16L318.112,176
			h-87.488l61.864-61.856l24.56,8.184c1.68,0.56,3.392,0.824,5.064,0.824c6.704,0,12.944-4.24,15.176-10.944
			c2.8-8.384-1.736-17.44-10.12-20.24l-9.384-3.128l9.976-9.976c6.248-6.248,6.248-16.376,0-22.624s-16.376-6.248-22.624,0
			l-9.984,9.984l-3.128-9.384c-2.792-8.376-11.824-12.92-20.24-10.12c-8.384,2.792-12.912,11.856-10.12,20.24l8.192,24.568
			L208,153.376V65.888l23.16-11.576c7.904-3.952,11.112-13.56,7.16-21.472c-3.952-7.896-13.544-11.112-21.472-7.16L208,30.112V16
			c0-8.832-7.168-16-16-16c-8.832,0-16,7.168-16,16v14.112l-8.84-4.424c-7.888-3.952-17.512-0.752-21.472,7.16
			c-3.952,7.904-0.744,17.512,7.16,21.472L176,65.888v87.488l-61.864-61.864l8.192-24.56c2.792-8.384-1.736-17.448-10.12-20.24
			c-8.36-2.784-17.448,1.736-20.24,10.12l-3.128,9.384l-9.976-9.976c-6.24-6.248-16.384-6.248-22.624,0
			c-6.248,6.248-6.248,16.376,0,22.624l9.976,9.976l-9.384,3.128c-8.384,2.8-12.912,11.856-10.12,20.24
			c2.24,6.704,8.48,10.944,15.176,10.944c1.68,0,3.384-0.264,5.064-0.824l24.56-8.192L153.376,176H65.888l-11.576-23.16
			c-3.96-7.904-13.584-11.104-21.472-7.16c-7.904,3.952-11.104,13.56-7.16,21.472L30.112,176H16c-8.832,0-16,7.168-16,16
			c0,8.832,7.168,16,16,16h14.112l-4.424,8.84c-3.952,7.904-0.744,17.512,7.16,21.472c2.296,1.152,4.736,1.688,7.144,1.688
			c5.864,0,11.52-3.24,14.328-8.848L65.888,208h87.488l-61.864,61.864l-24.56-8.192c-8.36-2.776-17.448,1.736-20.24,10.12
			c-2.792,8.384,1.736,17.448,10.12,20.24l9.384,3.128l-9.976,9.976c-6.248,6.248-6.248,16.376,0,22.624
			c3.12,3.128,7.216,4.688,11.312,4.688c4.096,0,8.192-1.56,11.312-4.688l9.976-9.976l3.128,9.384
			c2.24,6.704,8.48,10.944,15.176,10.944c1.68,0,3.384-0.264,5.064-0.824c8.384-2.8,12.912-11.856,10.12-20.24l-8.192-24.56
			L176,230.624v87.488l-23.16,11.576c-7.904,3.952-11.104,13.56-7.16,21.472c2.816,5.6,8.464,8.84,14.328,8.84
			c2.408,0,4.848-0.544,7.144-1.688l8.848-4.424V368c0,8.832,7.168,16,16,16c8.832,0,16-7.168,16-16v-14.112l8.84,4.424
			c2.304,1.152,4.744,1.688,7.144,1.688c5.872,0,11.52-3.24,14.328-8.848c3.952-7.904,0.752-17.512-7.16-21.472L208,318.112v-87.488
			l61.864,61.856l-8.192,24.568c-2.8,8.384,1.736,17.448,10.12,20.24c1.68,0.56,3.392,0.824,5.064,0.824
			c6.704,0,12.944-4.24,15.176-10.944l3.128-9.384l9.984,9.984c3.128,3.128,7.216,4.688,11.312,4.688s8.184-1.56,11.312-4.688
			c6.248-6.248,6.248-16.376,0-22.624l-9.976-9.976l9.384-3.128c8.384-2.8,12.912-11.856,10.12-20.24
			c-2.792-8.384-11.824-12.928-20.24-10.12l-24.56,8.184L230.624,208h87.48l11.576,23.16c2.816,5.6,8.464,8.84,14.336,8.84
			c2.4,0,4.84-0.544,7.144-1.688c7.904-3.952,11.112-13.56,7.16-21.472l-4.432-8.84H368c8.832,0,16-7.168,16-16
			C384,183.168,376.832,176,368,176z"/>
	</g>
</g>
<g>
</g>
<g>
</g>
<g>
</g>
<g>
</g>
<g>
</g>
<g>
</g>
<g>
</g>
<g>
</g>
<g>
</g>
<g>
</g>
<g>
</g>
<g>
</g>
<g>
</g>
<g>
</g>
<g>
</g>
</svg>
