<?xml version="1.0" encoding="utf-8"?><svg version="1.1" id="Layer_1" xmlns="http://www.w3.org/2000/svg" xmlns:xlink="http://www.w3.org/1999/xlink" x="0px" y="0px" viewBox="0 0 93 122.88" style="enable-background:new 0 0 93 122.88" xml:space="preserve"><g><path d="M14.6,43.74h15.78c4.87,0,6.1,3.36,6.1,7.71c0,2.02-0.29,4.29-0.58,6.49c-0.47,3.64-0.91,7.06,0.09,8.3 c1.67,2.08,4.08,4.49,6.66,7.07c6.39,6.4,13.77,13.79,14.32,20.41c0.33,4.05,0.4,9.27-0.33,14.09c-0.56,3.72-1.61,7.23-3.38,9.85 c-0.91,1.34-1.97,2.54-3.33,3.46c-1.37,0.92-3.02,1.55-5.09,1.74c-0.03,0-0.07,0-0.1,0v0H18.08c-0.05,0-0.1,0-0.14-0.01 c-2.84-0.16-5.4-0.81-7.55-2.13c-2.21-1.36-3.95-3.41-5.1-6.34c-0.03-0.08-0.05-0.16-0.06-0.24c-2.42-11.87-3.41-23.7-2.25-35.36 c1.16-11.71,4.48-23.25,10.68-34.47C13.84,43.95,14.22,43.75,14.6,43.74L14.6,43.74L14.6,43.74z M4.75,84.84 c18.15,4.31,27.95-9.61,44.29-1.6c-2.41-2.85-5.26-5.71-7.92-8.38c-2.62-2.62-5.07-5.08-6.82-7.24c-1.59-1.97-1.09-5.84-0.56-9.95 c0.27-2.1,0.55-4.27,0.55-6.21c0-3.1-0.79-5.51-3.91-5.51H15.25C9.41,56.72,6.26,67.78,5.15,79C4.95,80.94,4.82,82.89,4.75,84.84 L4.75,84.84z M46.12,6.97L46,20.87c0,0.5-0.34,0.92-0.8,1.04l0,0c-3.35,0.95-6.3,2.23-8.56,4.22c-2.2,1.94-3.78,4.6-4.49,8.36v4.75 c0,0.61-0.49,1.1-1.1,1.1H15.12c-0.95,0.09-1.71-0.13-2.3-0.72c-0.54-0.55-0.83-1.39-0.84-2.57c0-0.04,0-0.08,0-0.11 c0.36-3.9-0.44-6.81-2.28-9.08c-1.89-2.32-4.93-4.05-8.98-5.52c-0.57-0.21-0.86-0.83-0.66-1.4l0-0.01h0c2.19-5.8,5.57-9.5,9.8-11.8 c4.18-2.27,9.16-3.13,14.62-3.28c3.41-0.09,6.84-0.16,10.28-0.17c3.44-0.01,6.87,0.03,10.29,0.16C45.67,5.85,46.14,6.36,46.12,6.97 L46.12,6.97L46.12,6.97z M43.82,20.04l0.1-12.05c-3.06-0.1-6.11-0.13-9.15-0.12c-3.4,0.01-6.81,0.08-10.23,0.17 c-5.14,0.14-9.79,0.94-13.63,3.02c-3.54,1.92-6.41,4.96-8.39,9.63c3.9,1.52,6.88,3.35,8.88,5.8c2.21,2.71,3.17,6.11,2.77,10.6 c0.01,0.55,0.09,0.88,0.22,1.02c0.07,0.07,0.25,0.09,0.52,0.07c0.06-0.01,0.12-0.02,0.18-0.02h14.87v-3.73h0 c0-0.06,0.01-0.13,0.02-0.19c0.8-4.36,2.63-7.45,5.21-9.73C37.56,22.41,40.5,21.04,43.82,20.04L43.82,20.04z M48.36,6.65 l0.09,13.36h6.53c0.92,0.03,1.39-0.74,1.17-2.73V8.9c-0.02-0.73-0.32-1.21-0.88-1.46L48.36,6.65L48.36,6.65z M70.11,10.99 c1.89,0,3.42,1.29,3.42,2.89c0,1.6-1.53,2.89-3.42,2.89c-1.89,0-3.42-1.29-3.42-2.89C66.69,12.28,68.22,10.99,70.11,10.99 L70.11,10.99z M89.58,10.7c1.89,0,3.42,1.29,3.42,2.89c0,1.6-1.53,2.89-3.42,2.89c-1.89,0-3.42-1.29-3.42-2.89 C86.16,11.99,87.69,10.7,89.58,10.7L89.58,10.7z M89.2,21.59c1.89,0,3.42,1.29,3.42,2.89c0,1.6-1.53,2.89-3.42,2.89 s-3.42-1.29-3.42-2.89C85.78,22.88,87.31,21.59,89.2,21.59L89.2,21.59z M79.75,16.48c1.89,0,3.42,1.29,3.42,2.89 c0,1.6-1.53,2.89-3.42,2.89c-1.89,0-3.42-1.29-3.42-2.89C76.33,17.78,77.86,16.48,79.75,16.48L79.75,16.48z M89.58,0 C91.47,0,93,1.29,93,2.89c0,1.6-1.53,2.89-3.42,2.89c-1.89,0-3.42-1.29-3.42-2.89C86.16,1.29,87.69,0,89.58,0L89.58,0z M79.85,5.49 c1.89,0,3.42,1.29,3.42,2.89c0,1.6-1.53,2.89-3.42,2.89c-1.89,0-3.42-1.29-3.42-2.89C76.42,6.79,77.96,5.49,79.85,5.49L79.85,5.49z M36.89,35.65c1.16-4.65,3.94-7.71,8.62-8.9c1.05,7.48,3.33,13.49,6.51,18.38c1.94,2.74-1.21,5.57-3.48,2.68l-7.36-12.04 L36.89,35.65L36.89,35.65z"/></g></svg>