<svg xmlns="http://www.w3.org/2000/svg" xmlns:xlink="http://www.w3.org/1999/xlink" viewBox="0 0 50 50"><path d="M8 8C7.449219 8 7 8.449219 7 9L7 12C7 12.550781 7.449219 13 8 13L42 13C42.554688 13 43 12.550781 43 12L43 9C43 8.449219 42.554688 8 42 8 Z M 8.34375 15L12.59375 37.5625L12.6875 38L13.40625 41.90625C13.90625 44.277344 15.984375 46 18.3125 46L31.6875 46C34.101563 46 36.226563 44.210938 36.59375 41.875L37.40625 37.5625L41.65625 15L39.40625 15L37.40625 17L38.9375 18.53125L38.5 20.90625L36 18.40625L31.90625 22.5L36 26.59375L37.59375 25C37.640625 24.953125 37.699219 24.941406 37.75 24.90625L36.75 30.15625L36 29.40625L31.90625 33.5L35.46875 37.03125L34.78125 40.625L31.40625 44L28.59375 44L25 40.40625L21.40625 44L18.59375 44L15.21875 40.625L14.53125 37.03125L18.09375 33.5L14 29.40625L13.25 30.15625L12.25 24.90625C12.300781 24.941406 12.359375 24.953125 12.40625 25L14 26.59375L18.09375 22.5L14 18.40625L11.5 20.90625L11.0625 18.53125L12.59375 17L10.59375 15 Z M 17.40625 15L15.40625 17L19.5 21.09375L23.59375 17L21.59375 15 Z M 28.40625 15L26.40625 17L30.5 21.09375L34.59375 17L32.59375 15 Z M 25 18.40625L20.90625 22.5L25 26.59375L29.09375 22.5 Z M 19.5 23.90625L15.40625 28L19.5 32.09375L23.59375 28 Z M 30.5 23.90625L26.40625 28L30.5 32.09375L34.59375 28 Z M 25 29.40625L20.90625 33.5L25 37.59375L29.09375 33.5 Z M 19.5 34.90625L15.90625 38.5L20 42.59375L23.59375 39 Z M 30.5 34.9375L26.40625 39L30 42.59375L34.09375 38.5Z"/></svg>