<svg xmlns="http://www.w3.org/2000/svg" xmlns:xlink="http://www.w3.org/1999/xlink" viewBox="0 0 50 50"><path d="M47.3125 0.0625C46.40625 0.125 45.570313 0.707031 45.28125 1.65625L45.28125 1.6875C45.273438 1.710938 45.265625 1.734375 45.25 1.75L34.125 30.65625C32.109375 31.519531 29.292969 32.976563 26.84375 35.03125C24.234375 37.21875 22 40.113281 22 43.6875C22 45.21875 22.566406 46.859375 23.875 48.0625C25.183594 49.265625 27.179688 50 29.90625 50L49 50C49.5 49.984375 49.910156 49.605469 49.964844 49.109375C50.019531 48.613281 49.703125 48.15625 49.21875 48.03125C49.21875 48.03125 45.65625 47.207031 42.75 44.9375C41.296875 43.804688 40.03125 42.339844 39.40625 40.46875C38.78125 38.597656 38.753906 36.285156 39.9375 33.28125C39.9375 33.261719 39.9375 33.238281 39.9375 33.21875L49.8125 3.28125L49.84375 3.21875L49.8125 3.21875C50.289063 2.007813 49.636719 0.675781 48.375 0.25L48.40625 0.1875C48.375 0.175781 48.34375 0.199219 48.3125 0.1875C48.28125 0.179688 48.28125 0.132813 48.25 0.125L48.21875 0.1875C47.917969 0.0898438 47.613281 0.0429688 47.3125 0.0625 Z M 47.59375 2.03125C47.644531 2.046875 47.695313 2.054688 47.75 2.0625C47.941406 2.109375 48.019531 2.382813 47.96875 2.5C47.957031 2.53125 47.945313 2.5625 47.9375 2.59375L38.375 31.625L36.1875 30.8125L47.125 2.34375C47.136719 2.3125 47.148438 2.28125 47.15625 2.25C47.203125 2.058594 47.476563 1.980469 47.59375 2.03125 Z M 16.09375 4.09375C12.992188 4.09375 10.199219 5.710938 8.5 8.3125C7.898438 8.3125 7.5 8.394531 7 8.59375L8.40625 10.1875C8.707031 10.085938 8.886719 10.101563 9.1875 10L9.6875 10L9.90625 9.59375C11.105469 7.394531 13.5 6 16 6C19.199219 6 22.011719 8.210938 22.8125 11.3125L23 12.09375L24 12.09375C25.898438 12.09375 27.40625 13.394531 27.90625 15.09375L30 15.09375C29.5 12.394531 27.292969 10.292969 24.59375 10.09375C23.292969 6.492188 19.992188 4.09375 16.09375 4.09375 Z M 1.90625 5.96875C1.863281 5.976563 1.820313 5.988281 1.78125 6C1.4375 6.070313 1.152344 6.320313 1.039063 6.652344C0.921875 6.984375 0.992188 7.355469 1.21875 7.625L3.9375 10.9375C2.980469 12.082031 2.304688 13.457031 2.09375 15L4.09375 15C4.269531 14.054688 4.652344 13.179688 5.1875 12.4375L8.125 16L1 16C0.699219 16 0.386719 16.113281 0.1875 16.3125C-0.0117188 16.613281 0 16.886719 0 17.1875L5 49.1875C5.101563 49.585938 5.5 50 6 50L25 50C23.898438 49.5 23.101563 48.800781 22.5 48L6.90625 48L2.1875 18L9.75 18L14.125 23.3125C14.039063 23.523438 14 23.75 14 24C14 25.101563 14.898438 26 16 26C17.101563 26 18 25.101563 18 24C18 22.898438 17.101563 22 16 22C15.894531 22 15.789063 22.011719 15.6875 22.03125L2.78125 6.375C2.761719 6.351563 2.742188 6.332031 2.71875 6.3125C2.699219 6.28125 2.679688 6.25 2.65625 6.21875C2.597656 6.179688 2.535156 6.148438 2.46875 6.125C2.449219 6.101563 2.429688 6.082031 2.40625 6.0625C2.347656 6.035156 2.28125 6.015625 2.21875 6C2.117188 5.972656 2.011719 5.960938 1.90625 5.96875 Z M 13.09375 16L14.6875 18L29.8125 18L27.40625 33.3125C28.207031 32.710938 28.886719 32.210938 29.6875 31.8125L32 17.1875C32 16.886719 32.011719 16.605469 31.8125 16.40625C31.613281 16.105469 31.300781 16 31 16 Z M 34.9375 32.46875L37.71875 33.5C36.757813 36.429688 36.796875 38.988281 37.5 41.09375C38.28125 43.433594 39.828125 45.195313 41.5 46.5C42.425781 47.222656 43.300781 47.527344 44.21875 48L39.34375 48C36.863281 47.679688 35.75 46.753906 35.1875 45.75C34.625 44.746094 34.625 43.519531 34.875 42.5625C34.96875 42.246094 34.902344 41.90625 34.695313 41.652344C34.488281 41.394531 34.171875 41.257813 33.84375 41.28125C33.402344 41.3125 33.035156 41.628906 32.9375 42.0625C32.585938 43.40625 32.546875 45.15625 33.4375 46.75C33.6875 47.203125 34.03125 47.613281 34.4375 48L33.8125 48C31.785156 48 30.578125 47.535156 29.90625 46.96875C29.234375 46.402344 28.949219 45.6875 28.9375 44.75C28.917969 42.871094 30.265625 40.308594 31.53125 39C31.839844 38.707031 31.925781 38.25 31.75 37.863281C31.574219 37.476563 31.171875 37.242188 30.75 37.28125C30.5 37.300781 30.265625 37.410156 30.09375 37.59375C28.457031 39.285156 26.90625 42.058594 26.9375 44.78125C26.949219 45.847656 27.269531 46.949219 27.96875 47.84375C26.695313 47.613281 25.820313 47.144531 25.21875 46.59375C24.355469 45.796875 24 44.757813 24 43.6875C24 40.960938 25.757813 38.550781 28.125 36.5625C30.363281 34.683594 33.0625 33.269531 34.9375 32.46875Z"/></svg>