<?xml version="1.0" encoding="utf-8"?><svg version="1.1" id="Layer_1" xmlns="http://www.w3.org/2000/svg" xmlns:xlink="http://www.w3.org/1999/xlink" x="0px" y="0px" viewBox="0 0 122.88 116.61" style="enable-background:new 0 0 122.88 116.61" xml:space="preserve"><g><path d="M3.55,35.25c-0.53-4.32,0.35-8.01,2.17-10.98c1.32-2.17,3.13-3.93,5.25-5.26c2.09-1.31,4.47-2.2,6.97-2.62 c3.96-0.67,8.26-0.19,12.14,1.57c1.38-2.64,3.34-4.89,5.88-6.57c2.93-1.93,6.6-3.07,11.01-3.07c4.78,0,9.3,2.03,12.61,5.3 c2.45,2.43,4.23,5.55,4.95,9.03c2.85-1.48,5.51-2.16,7.91-2.15c1.97,0,3.77,0.47,5.35,1.32c1.57,0.86,2.91,2.09,3.98,3.66 c1.8,2.62,2.84,6.19,2.96,10.38c0.51,0.74,0.81,1.63,0.89,2.67c0.03,0.41,0.02,0.83-0.01,1.27c-0.02,0.15-0.04,0.3-0.08,0.43 l-7.23,31.65c-2.63,2.23-5.4,4.17-8.26,5.89L81.3,39.3c0.02-0.18,0.02-0.35,0-0.48c-0.02-0.19-0.04-0.34-0.09-0.43 c-0.08-0.06-0.15-0.14-0.22-0.22c-0.16-0.07-0.4-0.12-0.71-0.15c-0.26-0.02-0.55-0.02-0.86-0.01c-0.09,0.01-0.17,0.02-0.26,0.02 H6.98c-0.1,0.02-0.16,0.05-0.18,0.08c-0.18,0.4-0.2,1.09-0.12,1.95l11.08,47.61c2.12,0.96,1.03,0.66,3.38,0.82 c4.68,0.32,9.67-0.83,14.4-3.19c10.47-5.24,19.59-16.36,21.29-30.74c-2.04-0.99-3.44-3.07-3.44-5.49c0.02-3.35,2.74-6.09,6.11-6.09 l0,0c3.37,0,6.1,2.73,6.1,6.1c0,2.8-1.89,5.16-4.46,5.87c-1.85,15.98-12,28.37-23.65,34.2c-5.42,2.71-11.19,4.02-16.62,3.64 c-1.8-0.13-0.19,0.41-1.89-0.09c2.63,9.89,4.85,9.85,12.96,9.7c1.51-0.02,3.17-0.06,4.32-0.06h0.49c0.07,0.13,0.13,0.26,0.2,0.39 c0.76,1.42,1.95,2.73,3.41,3.93h-4.1c-1.99,0-3.18,0.02-4.26,0.04c-11.52,0.22-14.07,0.26-17.79-15.33v-0.01H14.2l-0.18-0.78 c-1.68-0.97-3.27-2.18-4.74-3.64C1.12,78.81-2.98,62.84,2.5,36.84c0.11-0.54,0.42-1,0.83-1.3C3.4,35.43,3.47,35.34,3.55,35.25 L3.55,35.25L3.55,35.25z M12.5,84.07L4.69,50.55c-1.64,16.8,1.77,27.51,7.62,33.35C12.38,83.96,12.44,84.02,12.5,84.07L12.5,84.07 L12.5,84.07z M80.24,33.68c-0.32-2.33-1.01-4.29-2.04-5.79c-0.69-1-1.52-1.78-2.48-2.3c-0.95-0.52-2.06-0.79-3.3-0.79 c-2.38,0-5.25,1-8.5,3.23l0,0c-0.35,0.24-0.78,0.38-1.24,0.38c-1.18-0.02-2.13-0.98-2.13-2.16c-0.01-0.06-0.01-0.11-0.01-0.17 c0-3.66-1.56-6.99-4.01-9.41c-2.51-2.49-5.95-4.04-9.56-4.04c-3.53,0-6.41,0.87-8.65,2.34c-2.42,1.59-4.14,3.93-5.18,6.68 c-0.05,0.14-0.11,0.27-0.19,0.39c-0.62,1.02-1.95,1.34-2.96,0.71c-3.48-2.13-7.58-2.78-11.33-2.13c-1.95,0.33-3.79,1.01-5.39,2.01 c-1.56,0.99-2.9,2.28-3.87,3.86c-1.19,1.95-1.82,4.36-1.65,7.2h71.4C79.52,33.68,79.88,33.67,80.24,33.68L80.24,33.68L80.24,33.68z M89.67,59.75c0.76-0.8,1.83-1.28,3.25-1.4l12.23,1.75c2.66,0.38,5.25,1.19,5.43,4.47c0.06,1.11-0.2,2.38-0.37,3.98l-0.09,0.87 c-0.35,3.22-1.25,2.85-3.89,4.14c6.6,10.82,14.21,22.26,16.56,35.09c0.52,2.64-1.17,4.37-4.52,5.43l-5.99,1.12 c0.59-6.97-1.25-14.3-5.16-21.93c1.07,8.7,2.14,17.18,0.72,22.19l-6.16,1.16c-0.89-2.81-1.62-4.98-2.88-5.88l-1.43,5.38L87,115.61 c3.73-5.7,6.02-11.85,6.63-18.54c-3.25,7.22-6.86,12.57-10.91,15.77c-1.9,1.95-3.56,2.35-4.98,1.1c-1.01-0.89-0.85-1.44-0.64-2.74 c0.27-1.68,0.94-3.41,1.87-5.14c-2.09,2.35-3.41,2.92-4.59,4.17c-3.33,3.57-9.09,3.02-10.01-1.93c-0.59-3.17,1.52-4.19,3.66-6.43 l3.72-3.89c-4.17,2.61-8.35,5.11-12.56,6.68c-4.84,1.81-4.86,1.62-9.3-0.68c-5.98-3.09-10.43-6.62-2.11-8.75 c15.32-5.04,30.26-10.97,42.03-24.32c-1.24-0.75-1.92-1.72-2.13-2.86C87.35,66.35,88.47,61.01,89.67,59.75L89.67,59.75L89.67,59.75 z M106.27,4.71l-9.08,46c-0.84,7.7,8.12,8.4,9.54,0.83l8.88-46.07C115.4-0.95,108.13-2.36,106.27,4.71L106.27,4.71L106.27,4.71z"/></g></svg>