<svg xmlns="http://www.w3.org/2000/svg" xmlns:xlink="http://www.w3.org/1999/xlink" viewBox="0 0 50 50"><path d="M47.5 0C46.398438 0 45.488281 0.6875 45.1875 1.6875L34.6875 29.1875L40.59375 31.3125L50 2.8125C50.101563 2.3125 50.011719 1.804688 49.8125 1.40625C49.511719 0.804688 49.007813 0.386719 48.40625 0.1875C48.105469 0.0859375 47.800781 0 47.5 0 Z M 16.09375 4.09375C12.992188 4.09375 10.199219 5.710938 8.5 8.3125C7.898438 8.3125 7.5 8.394531 7 8.59375L8.40625 10.1875C8.707031 10.085938 8.886719 10.101563 9.1875 10L9.6875 10L9.90625 9.59375C11.105469 7.394531 13.5 6 16 6C19.199219 6 22.011719 8.210938 22.8125 11.3125L23 12.09375L24 12.09375C25.898438 12.09375 27.40625 13.394531 27.90625 15.09375L30 15.09375C29.5 12.394531 27.292969 10.292969 24.59375 10.09375C23.292969 6.492188 19.992188 4.09375 16.09375 4.09375 Z M 2.1875 5.9375C1.9375 5.914063 1.65625 5.988281 1.40625 6.1875C0.90625 6.585938 0.886719 7.195313 1.1875 7.59375L3.9375 10.9375C2.980469 12.082031 2.304688 13.457031 2.09375 15L4.09375 15C4.269531 14.066406 4.660156 13.207031 5.1875 12.46875L14.125 23.3125C14.039063 23.523438 14 23.75 14 24C14 25.101563 14.898438 26 16 26C17.101563 26 18 25.101563 18 24C18 22.898438 17.101563 22 16 22C15.914063 22 15.832031 22.019531 15.75 22.03125L2.8125 6.3125C2.664063 6.113281 2.4375 5.960938 2.1875 5.9375 Z M 1 16C0.699219 16 0.386719 16.113281 0.1875 16.3125C-0.0117188 16.613281 0 16.886719 0 17.1875L5 49.1875C5.101563 49.585938 5.5 50 6 50L23 50C20.800781 48.300781 20 45.886719 20 43.6875C20 37.289063 25.707031 32.898438 29.90625 30.5L32 17.1875C32 16.886719 32.011719 16.605469 31.8125 16.40625C31.613281 16.105469 31.300781 16 31 16L13.3125 16L16.59375 20.09375C18.492188 20.394531 20 22.101563 20 24C20 26.199219 18.199219 28 16 28C13.800781 28 12 26.199219 12 24L12 23.90625L5.5 16 Z M 33.5 30.90625C30.199219 32.40625 22 36.886719 22 43.6875C22 43.875 22.015625 44.0625 22.03125 44.25C22.042969 44.382813 22.042969 44.523438 22.0625 44.65625C22.070313 44.714844 22.082031 44.785156 22.09375 44.84375C22.117188 44.964844 22.15625 45.097656 22.1875 45.21875C22.308594 45.703125 22.496094 46.167969 22.75 46.625C22.773438 46.667969 22.789063 46.710938 22.8125 46.75C22.890625 46.878906 22.972656 47 23.0625 47.125C23.125 47.210938 23.183594 47.292969 23.25 47.375C23.28125 47.414063 23.308594 47.460938 23.34375 47.5C23.472656 47.652344 23.628906 47.796875 23.78125 47.9375C25.03125 49.144531 26.992188 50 29.90625 50C28.804688 49.199219 27.898438 48.199219 27.5 47C26 43.300781 28.59375 39.195313 30.09375 37.59375C30.492188 37.195313 31.101563 37.195313 31.5 37.59375C31.898438 37.992188 31.898438 38.601563 31.5 39C30 40.5 28.210938 43.710938 29.3125 46.3125C30.011719 48.011719 31.792969 49.199219 34.59375 50L37 50C35.398438 49.101563 34.414063 48.085938 33.8125 47.1875C32.8125 45.585938 32.5 43.800781 33 42C33.199219 41.5 33.6875 41.210938 34.1875 41.3125C34.6875 41.414063 35.007813 42 34.90625 42.5C34.707031 43.199219 34.5 44.5 35.5 46C36.5 47.398438 38.8125 49.304688 44.3125 49.90625L49 49.90625C49.5 49.90625 49.898438 49.5 50 49C50 48.601563 49.6875 48.101563 49.1875 48C49.085938 48 42.40625 46.394531 39.90625 41.59375C38.605469 39.195313 39.90625 33.1875 39.90625 33.1875L39.8125 33.1875L33.8125 31Z"/></svg>