<?xml version="1.0" encoding="utf-8"?><svg version="1.1" id="Layer_1" xmlns="http://www.w3.org/2000/svg" xmlns:xlink="http://www.w3.org/1999/xlink" x="0px" y="0px" viewBox="0 0 109.86 122.88" style="enable-background:new 0 0 109.86 122.88" xml:space="preserve"><style type="text/css">.st0{fill-rule:evenodd;clip-rule:evenodd;}</style><g><path class="st0" d="M50.04,48.8l11.91-0.04c2.15-0.01,3.62,0.38,5.03,2.24L70.35,57l3.41-2.11l-5.87,10.27L56,65.11l3.63-2.11 l-6.12-10.36c-0.58-0.98-1-1.76-1.84-2.58C51.18,49.58,50.62,49.16,50.04,48.8L50.04,48.8z M52.91,98.61l-11.43,0.02 c-2.53-0.39-4.15-1.76-4.63-3.67c-0.42-1.65-0.01-2.41,0.71-3.83c0.85-1.69,1.86-3.32,2.83-4.97l12.65,0.04L52.91,98.61 L52.91,98.61z M34.71,94.16l-5.99-10.29c-1.08-1.86-1.48-3.33-0.58-5.48l3.52-5.91l-3.53-1.9l11.83-0.05l5.9,10.31l-3.64-2.09 l-5.91,10.48c-0.56,0.99-1.03,1.75-1.31,2.88C34.83,92.79,34.74,93.47,34.71,94.16L34.71,94.16z M75.98,67.25l5.73,9.88 c0.93,2.38,0.55,4.47-0.86,5.84c-1.22,1.18-2.08,1.21-3.67,1.3c-1.89,0.11-3.81,0.05-5.72,0.03l-6.29-10.98L75.98,67.25 L75.98,67.25z M81.22,85.24L75.3,95.57c-1.07,1.87-2.14,2.95-4.45,3.24l-6.88-0.09l0.12,4l-5.95-10.22l5.98-10.27l0.01,4.2 l12.03-0.12c1.14-0.01,2.03,0.01,3.15-0.3C79.98,85.83,80.61,85.56,81.22,85.24L81.22,85.24z M37.09,62.33l5.69-9.91 c1.6-2,3.6-2.71,5.49-2.18c1.63,0.46,2.09,1.2,2.96,2.53c1.04,1.59,1.95,3.28,2.89,4.94l-6.37,10.94L37.09,62.33L37.09,62.33z M4.02,9.36h35.47V5.4c0-1.49,0.61-2.84,1.58-3.81l0,0C42.06,0.61,43.41,0,44.89,0h20.54c1.49,0,2.83,0.61,3.81,1.58 c0.98,0.98,1.58,2.33,1.58,3.81v3.97h35.02c1.1,0,2.11,0.45,2.84,1.19c0.73,0.73,1.18,1.73,1.18,2.84v11.19v1.74h-1.74H1.74H0 v-1.74V13.38c0-1.1,0.45-2.11,1.18-2.84C1.91,9.82,2.92,9.36,4.02,9.36L4.02,9.36z M41.23,12.84H4.02c-0.15,0-0.29,0.06-0.38,0.15 c-0.1,0.1-0.16,0.24-0.16,0.39v9.45h102.9v-9.45c0-0.15-0.06-0.29-0.16-0.39c-0.09-0.09-0.23-0.15-0.38-0.15H69.08h-1.74V11.1V5.39 c0-0.52-0.22-1-0.56-1.35c-0.35-0.35-0.82-0.56-1.35-0.56H44.89c-0.53,0-1.01,0.21-1.35,0.56v0.01c-0.35,0.35-0.56,0.83-0.56,1.35 v5.71v1.74H41.23L41.23,12.84z M10.18,28.77h90.29c0.11,0,0.27,0.01,0.47,0.03c1.24,0.11,2.4,0.67,3.25,1.5 c0.89,0.88,1.46,2.06,1.46,3.38c0,0.09-0.01,0.23-0.03,0.41l-7.64,83.78c-0.12,1.37-0.71,2.62-1.62,3.53 c-0.91,0.91-2.13,1.47-3.53,1.47v-0.01l-75.11,0v0.01c-1.4,0-2.62-0.56-3.54-1.47c-0.91-0.91-1.49-2.17-1.62-3.54L5.03,34.08 c-0.02-0.19-0.02-0.32-0.02-0.4c0-1.32,0.57-2.5,1.46-3.38c0.85-0.83,2.01-1.39,3.26-1.5C9.93,28.78,10.08,28.77,10.18,28.77 L10.18,28.77L10.18,28.77z M100.47,32.25H10.19l0,0l-0.16,0C9.6,32.29,9.2,32.48,8.9,32.77c-0.25,0.25-0.41,0.57-0.41,0.91 c0,0.09,0,0.09,0,0.11l7.54,83.79c0.05,0.55,0.27,1.04,0.61,1.38c0.28,0.28,0.66,0.45,1.09,0.45v0.01l75.11,0v-0.01 c0.43,0,0.8-0.17,1.08-0.45c0.34-0.34,0.56-0.83,0.61-1.38l7.64-83.78c0-0.01,0-0.02,0-0.1c0-0.34-0.16-0.65-0.41-0.9 c-0.3-0.29-0.7-0.49-1.13-0.52C100.62,32.25,100.57,32.25,100.47,32.25L100.47,32.25z"/></g></svg>