<?xml version="1.0" encoding="utf-8"?><svg version="1.1" id="Layer_1" xmlns="http://www.w3.org/2000/svg" xmlns:xlink="http://www.w3.org/1999/xlink" x="0px" y="0px" viewBox="0 0 70.41 122.88" style="enable-background:new 0 0 70.41 122.88" xml:space="preserve"><g><path d="M16.44,56.35l37.97,0c0.32,0,0.59,0.26,0.59,0.59l-4.54,46.96c-0.03,0.3-0.28,0.53-0.58,0.53l-28.9,0 c-0.32,0-0.58-0.26-0.59-0.58l-4.52-46.85c-0.03-0.32,0.21-0.61,0.53-0.64L16.44,56.35L16.44,56.35z M16.63,5.28 c-1.46,0-2.64-1.18-2.64-2.64c0-1.46,1.18-2.64,2.64-2.64c13.58,0,27.16,0,40.73,0c0.73,0,1.39,0.3,1.87,0.77l6.79,6.79 c1.03,1.03,1.03,2.7,0,3.73c-1.03,1.03-2.7,1.03-3.73,0l-6.02-6.02h-9.13V19.4c0.6,0.02,1.15,0.27,1.54,0.67 c0.41,0.42,0.67,0.98,0.67,1.61v12.08c0.24,0.01,0.47,0.02,0.7,0.04c0.43,0.03,0.88,0.08,1.34,0.14c2.49,0.33,4.91,1.07,7.13,2.15 c2.26,1.1,4.33,2.55,6.08,4.27c1.82,1.79,3.3,3.88,4.31,6.17c0.96,2.18,1.5,4.54,1.5,7.01c0,0.35-0.01,0.73-0.04,1.13 c-0.02,0.36-0.06,0.74-0.11,1.13c-3.23,21.51-6,43.8-9.75,65.15c-0.08,0.55-0.36,1.02-0.75,1.37c-0.4,0.36-0.93,0.57-1.5,0.57 H11.97c-0.6,0-1.16-0.24-1.57-0.63c-0.4-0.38-0.66-0.9-0.71-1.48L0.17,58c-0.06-0.43-0.1-0.84-0.13-1.24 C0.02,56.34,0,55.93,0,55.54c0-2.72,0.59-5.32,1.65-7.71c1.11-2.52,2.74-4.81,4.74-6.77c1.93-1.9,4.21-3.5,6.69-4.71 c2.45-1.19,5.11-2.01,7.86-2.37l0.04-0.01V21.68c0-0.62,0.26-1.19,0.67-1.6c0.41-0.41,0.98-0.67,1.61-0.67h0.27V5.28H16.63 L16.63,5.28z M42.6,5.28H28.1v14.09h14.5V5.28L42.6,5.28z M48.52,38.3H24.15c-0.47,0-0.92,0.01-1.34,0.04 c-0.43,0.03-0.86,0.07-1.27,0.13l-0.04,0c-2.23,0.3-4.41,0.98-6.42,1.95c-2.05,1-3.92,2.31-5.5,3.86C8,45.85,6.72,47.64,5.84,49.6 c-0.82,1.85-1.28,3.85-1.28,5.94c0,0.33,0.01,0.65,0.03,0.95l0,0.01c0.02,0.31,0.05,0.62,0.09,0.94l9.27,60.88h42.32l9.48-63.15 c0.03-0.26,0.06-0.52,0.08-0.78c0.02-0.26,0.02-0.55,0.02-0.86c0-1.85-0.41-3.62-1.13-5.25c-0.77-1.73-1.91-3.32-3.31-4.7 c-1.4-1.38-3.05-2.54-4.87-3.43c-1.79-0.87-3.73-1.47-5.73-1.73c-0.37-0.04-0.75-0.08-1.13-0.1C49.32,38.32,48.93,38.3,48.52,38.3 L48.52,38.3z M44.8,23.96H25.54v9.73H44.8V23.96L44.8,23.96z"/></g></svg>