<svg xmlns="http://www.w3.org/2000/svg" xmlns:xlink="http://www.w3.org/1999/xlink" width="50" height="50" viewBox="0 0 50 50"><path d="M6 3C5.0833335 3 4.268559 3.3797556 3.7519531 3.9609375C3.2353472 4.5421194 3 5.2777779 3 6C3 6.7222221 3.2353472 7.4578806 3.7519531 8.0390625C4.268559 8.6202444 5.0833335 9 6 9C6.9166665 9 7.731441 8.6202444 8.2480469 8.0390625C8.7646528 7.4578806 9 6.7222221 9 6C9 5.2777779 8.7646528 4.5421194 8.2480469 3.9609375C7.731441 3.3797556 6.9166665 3 6 3 z M 43 4C41.75 4 40.685226 4.5047556 40.001953 5.2734375C39.318681 6.0421194 39 7.0277779 39 8C39 8.9722221 39.318681 9.9578811 40.001953 10.726562C40.685226 11.495245 41.75 12 43 12C44.25 12 45.314774 11.495244 45.998047 10.726562C46.681319 9.9578811 47 8.9722221 47 8C47 7.0277779 46.681319 6.0421194 45.998047 5.2734375C45.314774 4.5047556 44.25 4 43 4 z M 6 5C6.4166663 5 6.6018927 5.1202444 6.7519531 5.2890625C6.9020136 5.4578806 7 5.7222221 7 6C7 6.2777779 6.9020136 6.5421194 6.7519531 6.7109375C6.6018927 6.8797556 6.4166663 7 6 7C5.5833337 7 5.3981073 6.8797556 5.2480469 6.7109375C5.0979864 6.5421194 5 6.2777779 5 6C5 5.7222221 5.0979864 5.4578806 5.2480469 5.2890625C5.3981073 5.1202444 5.5833337 5 6 5 z M 43 6C43.749999 6 44.185226 6.2452444 44.501953 6.6015625C44.81868 6.9578806 45 7.4722221 45 8C45 8.5277779 44.81868 9.0421194 44.501953 9.3984375C44.185226 9.7547556 43.749999 10 43 10C42.250001 10 41.814774 9.7547556 41.498047 9.3984375C41.18132 9.0421194 41 8.5277779 41 8C41 7.4722221 41.18132 6.9578806 41.498047 6.6015625C41.814774 6.2452444 42.250001 6 43 6 z M 25 7C21.145031 7 17.571399 8.1764938 14.574219 10.160156C13.811896 9.4598343 12.754098 9 11.5 9C10.083334 9 8.8935589 9.5672551 8.1269531 10.429688C7.3603473 11.292118 7 12.402778 7 13.5C7 14.597222 7.3603473 15.707881 8.1269531 16.570312C8.2070541 16.660426 8.3093204 16.733048 8.3984375 16.816406C6.8810114 19.541524 6 22.665769 6 26C6 34.932 12.204437 42.424312 20.523438 44.445312C20.189438 43.611312 20 42.703 20 41.75L20 35.835938L20 35.785156C16.444 33.960156 14 30.265 14 26C14 19.935 18.935 15 25 15C31.065 15 36 19.935 36 26C36 27.226 35.789969 28.401906 35.417969 29.503906C36.160969 29.401906 36.844781 29.185859 37.425781 28.880859C37.425781 28.880859 40.163 27.5 41.75 27.5C42.501 27.5 43.22525 27.614172 43.90625 27.826172C43.96425 27.225172 44 26.617 44 26C44 15.523 35.477 7 25 7 z M 11.5 11C12.416666 11 12.976893 11.307744 13.376953 11.757812C13.777013 12.207882 14 12.847222 14 13.5C14 14.152778 13.777013 14.792119 13.376953 15.242188C12.976893 15.692255 12.416666 16 11.5 16C10.583334 16 10.023107 15.692256 9.6230469 15.242188C9.2229865 14.792118 9 14.152778 9 13.5C9 12.847222 9.2229865 12.207881 9.6230469 11.757812C10.023107 11.307745 10.583334 11 11.5 11 z M 25 17C20.037 17 16 21.038 16 26C16 29.159 17.638422 31.938922 20.107422 33.544922C20.683422 30.115922 23.658 27.5 27.25 27.5C28.837 27.5 31.574219 28.880859 31.574219 28.880859C32.082219 29.147859 32.672594 29.340078 33.308594 29.455078C33.752594 28.390078 34 27.224 34 26C34 21.038 29.963 17 25 17 z M 41.75 29.5C41.025 29.5 39.296172 30.178969 38.326172 30.667969C37.207172 31.254969 35.874 31.572266 34.5 31.572266C33.126 31.572266 31.793484 31.253344 30.646484 30.652344C29.558484 30.106344 27.931 29.501953 27.25 29.501953C24.355 29.501953 22 31.856953 22 34.751953C22 37.646953 24.355 40.001953 27.25 40.001953C27.975 40.001953 29.703828 39.323984 30.673828 38.833984C31.792828 38.246984 33.126 37.929688 34.5 37.929688C35.874 37.929688 37.206516 38.246656 38.353516 38.847656C39.441516 39.393656 41.069 40 41.75 40C44.645 40 47 37.645 47 34.75C47 31.855 44.645 29.5 41.75 29.5 z M 29 31.460938C29.552 31.460938 30 31.908938 30 32.460938C30 33.012937 29.552 33.460938 29 33.460938C28.448 33.460938 28 33.012937 28 32.460938C28 31.908938 28.448 31.460938 29 31.460938 z M 40 31.460938C40.552 31.460938 41 31.908938 41 32.460938C41 33.012937 40.552 33.460938 40 33.460938C39.448 33.460938 39 33.012937 39 32.460938C39 31.908938 39.448 31.460938 40 31.460938 z M 44 32.460938C44.552 32.460938 45 32.908938 45 33.460938C45 34.012937 44.552 34.460938 44 34.460938C43.448 34.460938 43 34.012937 43 33.460938C43 32.908938 43.448 32.460938 44 32.460938 z M 25 33.460938C25.552 33.460938 26 33.908938 26 34.460938C26 35.012937 25.552 35.460938 25 35.460938C24.448 35.460938 24 35.012937 24 34.460938C24 33.908938 24.448 33.460938 25 33.460938 z M 32 34.460938C32.552 34.460938 33 34.908938 33 35.460938C33 36.012937 32.552 36.460938 32 36.460938C31.448 36.460938 31 36.012937 31 35.460938C31 34.908938 31.448 34.460938 32 34.460938 z M 36 34.460938C36.552 34.460938 37 34.908938 37 35.460938C37 36.012937 36.552 36.460938 36 36.460938C35.448 36.460938 35 36.012937 35 35.460938C35 34.908938 35.448 34.460938 36 34.460938 z M 27 36.460938C27.552 36.460938 28 36.908938 28 37.460938C28 38.012937 27.552 38.460938 27 38.460938C26.448 38.460938 26 38.012937 26 37.460938C26 36.908938 26.448 36.460938 27 36.460938 z M 42 36.460938C42.552 36.460938 43 36.908938 43 37.460938C43 38.012937 42.552 38.460938 42 38.460938C41.448 38.460938 41 38.012937 41 37.460938C41 36.908938 41.448 36.460938 42 36.460938 z M 22 39.740234L22 41.75C22 44.645 24.355 47 27.25 47C27.975 47 29.703828 46.322031 30.673828 45.832031C31.792828 45.245031 33.126 44.927734 34.5 44.927734C35.874 44.927734 37.206516 45.246656 38.353516 45.847656C39.441516 46.394656 41.069 47 41.75 47C44.645 47 47 44.645 47 41.75L47 39.740234C45.679 41.129234 43.818 42 41.75 42C40.163 42 37.425781 40.619141 37.425781 40.619141C36.611781 40.192141 35.605 39.929688 34.5 39.929688C33.395 39.929688 32.388219 40.193141 31.574219 40.619141C31.574219 40.619141 28.837 42 27.25 42C25.182 42 23.321 41.129234 22 39.740234 z M 32 42.460938C32.552 42.460938 33 42.908938 33 43.460938C33 44.012937 32.552 44.460938 32 44.460938C31.448 44.460938 31 44.012937 31 43.460938C31 42.908938 31.448 42.460937 32 42.460938 z M 38 42.460938C38.552 42.460938 39 42.908938 39 43.460938C39 44.012937 38.552 44.460938 38 44.460938C37.448 44.460938 37 44.012937 37 43.460938C37 42.908938 37.448 42.460937 38 42.460938 z M 44 42.460938C44.552 42.460938 45 42.908938 45 43.460938C45 44.012937 44.552 44.460938 44 44.460938C43.448 44.460938 43 44.012937 43 43.460938C43 42.908938 43.448 42.460937 44 42.460938 z M 27 43.460938C27.552 43.460938 28 43.908938 28 44.460938C28 45.012937 27.552 45.460938 27 45.460938C26.448 45.460938 26 45.012937 26 44.460938C26 43.908938 26.448 43.460937 27 43.460938 z"/></svg>