<svg xmlns="http://www.w3.org/2000/svg" xmlns:xlink="http://www.w3.org/1999/xlink" viewBox="0 0 50 50"><path d="M21 0C19.355469 0 18 1.355469 18 3L18 4L9.6875 4C8.464844 4 7.644531 4.894531 7.21875 6L7.09375 6C4.84375 6 3 7.867188 3 10.1875L3 11C3 11.550781 3.449219 12 4 12L5.125 12L10.21875 46.75C10.488281 48.636719 12.125 50 14 50L36 50C37.875 50 39.398438 48.605469 39.78125 46.8125C39.78125 46.792969 39.78125 46.769531 39.78125 46.75L44.875 12L46 12C46.550781 12 47 11.550781 47 11L47 10.1875C47 7.867188 45.15625 6 42.90625 6L42.78125 6C42.355469 4.894531 41.535156 4 40.3125 4L32 4L32 3C32 1.355469 30.644531 0 29 0 Z M 21 2L29 2C29.554688 2 30 2.445313 30 3L30 4L20 4L20 3C20 2.445313 20.445313 2 21 2 Z M 9.6875 6L40.3125 6C40.710938 6 41.1875 6.445313 41.1875 7C41.1875 7.550781 41.636719 8 42.1875 8L42.90625 8C43.988281 8 44.835938 8.835938 44.9375 10L5.0625 10C5.164063 8.835938 6.011719 8 7.09375 8L7.8125 8C8.363281 8 8.8125 7.550781 8.8125 7C8.8125 6.445313 9.289063 6 9.6875 6 Z M 7.15625 12L42.84375 12L37.8125 46.375C37.597656 47.378906 36.921875 48 36 48L14 48C13.078125 48 12.316406 47.378906 12.1875 46.46875 Z M 12.25 16.28125C11.984375 16.320313 11.742188 16.464844 11.585938 16.679688C11.425781 16.898438 11.363281 17.171875 11.40625 17.4375L14.71875 42.34375C14.730469 42.726563 14.960938 43.066406 15.3125 43.222656C15.664063 43.378906 16.070313 43.320313 16.363281 43.074219C16.65625 42.824219 16.78125 42.433594 16.6875 42.0625L13.40625 17.15625C13.375 16.882813 13.234375 16.636719 13.015625 16.46875C12.796875 16.304688 12.519531 16.238281 12.25 16.28125 Z M 20.65625 16.28125C20.140625 16.359375 19.773438 16.824219 19.8125 17.34375L20.90625 42.25C20.933594 42.800781 21.402344 43.230469 21.953125 43.203125C22.503906 43.175781 22.933594 42.707031 22.90625 42.15625L21.8125 17.25C21.804688 16.980469 21.6875 16.722656 21.488281 16.539063C21.285156 16.359375 21.019531 16.265625 20.75 16.28125C20.71875 16.28125 20.6875 16.28125 20.65625 16.28125 Z M 29.03125 16.28125C28.550781 16.355469 28.195313 16.765625 28.1875 17.25L27.09375 42.15625C27.066406 42.707031 27.496094 43.175781 28.046875 43.203125C28.597656 43.230469 29.066406 42.800781 29.09375 42.25L30.1875 17.34375C30.207031 17.058594 30.101563 16.777344 29.898438 16.570313C29.691406 16.367188 29.410156 16.261719 29.125 16.28125C29.09375 16.28125 29.0625 16.28125 29.03125 16.28125 Z M 37.4375 16.28125C36.992188 16.347656 36.644531 16.707031 36.59375 17.15625L33.3125 42.0625C33.21875 42.433594 33.34375 42.824219 33.636719 43.074219C33.929688 43.320313 34.335938 43.378906 34.6875 43.222656C35.039063 43.066406 35.269531 42.726563 35.28125 42.34375L38.59375 17.4375C38.640625 17.136719 38.550781 16.828125 38.34375 16.601563C38.136719 16.375 37.835938 16.257813 37.53125 16.28125C37.5 16.28125 37.46875 16.28125 37.4375 16.28125Z"/></svg>