<svg xmlns="http://www.w3.org/2000/svg" xmlns:xlink="http://www.w3.org/1999/xlink" viewBox="0 0 50 50"><path d="M45,6H5C4.448,6,4,6.448,4,7v2c0,0.552,0.448,1,1,1h13c0.553,0,1,0.448,1,1s-0.447,1-1,1H5.813l3.933,28H16c0.553,0,1,0.447,1,1s-0.447,1-1,1h-5.972l0.441,3.139C10.538,45.633,10.961,46,11.459,46h27.082c0.498,0,0.921-0.367,0.99-0.861L39.972,42H21c-0.553,0-1-0.447-1-1s0.447-1,1-1h19.253l2.21-15.734l-16.657-9.643C25.426,14.858,24.981,15,24.5,15c-1.381,0-2.5-1.119-2.5-2.5s1.119-2.5,2.5-2.5s2.5,1.119,2.5,2.5c0,0.163-0.018,0.321-0.048,0.475l15.798,9.146l-0.004-0.002l-0.3,2.137l1.623,0.91c0.157,0.091,0.33,0.135,0.5,0.135c0.345,0,0.681-0.179,0.866-0.499c0.277-0.478,0.113-1.09-0.364-1.366l-2.307-1.307L44.187,12H32c-0.553,0-1-0.448-1-1s0.447-1,1-1h13c0.552,0,1-0.448,1-1V7C46,6.448,45.552,6,45,6z"/></svg>