<svg xmlns="http://www.w3.org/2000/svg" xmlns:xlink="http://www.w3.org/1999/xlink" viewBox="0 0 50 50"><path d="M5 6 A 1.0001 1.0001 0 0 0 4 7L4 11 A 1.0001 1.0001 0 0 0 5 12L5.8125 12L10.46875 45.138672 A 1.0001 1.0001 0 0 0 11.458984 46L38.541016 46 A 1.0001 1.0001 0 0 0 39.53125 45.138672L42.464844 24.265625L43.498047 24.865234 A 1.0002933 1.0002933 0 1 0 44.501953 23.134766L42.763672 22.128906L44.1875 12L45 12 A 1.0001 1.0001 0 0 0 46 11L46 7 A 1.0001 1.0001 0 0 0 45 6L44 6L6 6L5 6 z M 6 8L44 8L44 10L43.318359 10 A 1.0001 1.0001 0 0 0 43.171875 10.011719 A 1.0001 1.0001 0 0 0 43.169922 10.011719 A 1.0001 1.0001 0 0 0 43 10L32 10 A 1.0001 1.0001 0 1 0 32 12L42.167969 12L40.896484 21.046875L26.951172 12.974609 A 2.5 2.5 0 0 0 24.5 10 A 2.5 2.5 0 0 0 24.5 15 A 2.5 2.5 0 0 0 25.810547 14.625L40.595703 23.185547L38.234375 40L21 40 A 1.0001 1.0001 0 1 0 21 42L37.953125 42L37.671875 44L12.328125 44L12.046875 42L16 42 A 1.0001 1.0001 0 1 0 16 40L11.765625 40L7.8320312 12L18 12 A 1.0001 1.0001 0 1 0 18 10L7 10 A 1.0001 1.0001 0 0 0 6.8359375 10.011719 A 1.0001 1.0001 0 0 0 6.6816406 10L6 10L6 8 z"/></svg>