<?xml version="1.0" encoding="utf-8"?><svg version="1.1" id="Layer_1" xmlns="http://www.w3.org/2000/svg" xmlns:xlink="http://www.w3.org/1999/xlink" x="0px" y="0px" viewBox="0 0 122.88 86.5" style="enable-background:new 0 0 122.88 86.5" xml:space="preserve"><style type="text/css">.st0{fill-rule:evenodd;clip-rule:evenodd;}</style><g><path class="st0" d="M1.59,30.87c-2.14-4.55-2.15-8.59,0.2-12.08c2.53-3.26,7.11-5.49,13.86-6.63 C27.26,12.06,28.52,2.07,40.08,0.24C52.98-1.8,52.26,9.97,66.14,7.6c4.86-0.51,11.95,4.81,14,12.94c2.02,8-1.28,10.01-2.96,16.86 c-1.25,5.09-1.16,10.19-0.44,15.26c0.37,4.45-1.59,7.56-6.24,9.11c-1.53,0.66-3.07,1.29-4.6,1.88c0.05-1.69,0.03-3.3-0.03-4.79 l-0.01,0c-0.01-0.23-0.03-0.47-0.07-0.7V47.61c0-2.7-1.11-5.16-2.89-6.94c-1.78-1.78-4.24-2.89-6.94-2.89H55.7 c-1.14,0-2.23,0.21-3.25,0.58l-0.08-0.08c-1.78-1.78-4.24-2.89-6.94-2.89h-0.27c-1.09,0-2.13,0.18-3.1,0.52 c-0.17-0.19-0.35-0.37-0.54-0.54c-1.85-1.73-4.36-2.71-7.03-2.71c-0.57,0-1.12,0.05-1.66,0.15c-0.42-0.69-0.91-1.32-1.48-1.88 c-1.62-1.62-3.8-2.68-6.21-2.86c-0.31-0.05-0.63-0.08-0.96-0.08c-2.35,0-4.52,0.88-6.2,2.32c-0.19,0.15-0.37,0.31-0.55,0.48 c-1.73,1.73-2.8,4.12-2.8,6.75v3.94c-2.79-1.81-5.51-2.8-8.11-2.67C4.83,35.98,2.97,33.64,1.59,30.87L1.59,30.87z M85.23,59.02 c-1.36,0.02-2.48-1.07-2.49-2.44c-0.02-1.36,1.07-2.48,2.44-2.5c2.52-0.04,5.65,0.07,8.97,0.73c3.41,0.68,7.04,1.94,10.52,4.22 c1.14,0.75,1.45,2.28,0.71,3.41c-0.75,1.14-2.28,1.45-3.41,0.71c-2.85-1.87-5.89-2.92-8.76-3.49 C90.23,59.08,87.46,58.99,85.23,59.02L85.23,59.02z M84.34,39.44c-1.35-0.23-2.25-1.52-2.01-2.86c0.23-1.35,1.52-2.25,2.86-2.01 c6.67,1.18,11.61,2.7,15.97,4.99c4.36,2.28,8.03,5.27,12.18,9.4c0.97,0.96,0.97,2.52,0.01,3.49c-0.96,0.97-2.52,0.97-3.49,0.01 c-3.82-3.79-7.14-6.51-10.98-8.53C95.02,41.91,90.52,40.54,84.34,39.44L84.34,39.44z M87.73,20.23c-1.35-0.22-2.26-1.49-2.04-2.83 c0.22-1.35,1.49-2.26,2.83-2.04c6.7,1.09,12.87,3.48,18.44,6.93c5.82,3.6,10.97,8.35,15.39,13.98c0.84,1.07,0.66,2.63-0.42,3.47 c-1.07,0.84-2.63,0.66-3.47-0.42c-4.08-5.2-8.8-9.56-14.09-12.84C99.35,23.37,93.78,21.22,87.73,20.23L87.73,20.23z M24.13,33.96 h0.27c2.14,0,3.91,1.77,3.91,3.91v14.87h2.54V42.22c0-1.99,1.64-3.63,3.63-3.63c2.28,0,4.18,1.53,4.18,3.91v10.5l0.12-0.05h2.74 v-7.99c0-1.99,1.64-3.63,3.63-3.63h0.27c2.14,0,3.91,1.77,3.91,3.91v7.31h0.02l2.71-0.02v-5.17c0-1.99,1.64-3.63,3.63-3.63h0.27 c2.14,0,3.91,1.77,3.91,3.91v10.95c0,0.12,0,0.27-0.02,0.4l0.12,0.1c0.25,7.04-0.25,17.14-6.05,22.19 c-5.75,4.68-11.49,5.9-17.46,4.95c-8.14-1.29-12.39-5.7-16.25-12.71L4.94,49.28c-0.8-1.87-0.7-3.13,0.1-3.96 c3.43-2.24,9.06,2.51,15.28,9.23l0.22-0.05V37.54c0-1.99,1.64-3.63,3.63-3.63L24.13,33.96L24.13,33.96z"/></g></svg>