<svg xmlns="http://www.w3.org/2000/svg" xmlns:xlink="http://www.w3.org/1999/xlink" viewBox="0 0 50 50"><path d="M20 2L20 3C20 5.40625 21.726563 7.429688 24 7.898438L24 20.09375C21.171875 20.570313 19 23.039063 19 26C19 28.953125 21.160156 31.417969 23.980469 31.90625C23.769531 35.867188 20.515625 39 16.5 39C12.484375 39 9.230469 35.867188 9.023438 31.90625C11.839844 31.417969 14 28.953125 14 26C14 22.699219 11.300781 20 8 20C4.699219 20 2 22.699219 2 26C2 28.96875 4.183594 31.441406 7.023438 31.910156C7.238281 36.953125 11.40625 41 16.5 41C20.21875 41 23.441406 38.839844 25 35.714844C26.558594 38.839844 29.78125 41 33.5 41C38.59375 41 42.761719 36.953125 42.980469 31.910156C45.816406 31.441406 48 28.96875 48 26C48 22.699219 45.300781 20 42 20C38.699219 20 36 22.699219 36 26C36 28.953125 38.160156 31.417969 40.980469 31.90625C40.769531 35.867188 37.515625 39 33.5 39C29.484375 39 26.230469 35.867188 26.019531 31.90625C28.839844 31.417969 31 28.953125 31 26C31 23.039063 28.828125 20.570313 26 20.09375L26 7.898438C28.273438 7.429688 30 5.40625 30 3L30 2 Z M 22.410156 4L27.589844 4C27.152344 5.113281 26.277344 6 25 6C23.722656 6 22.847656 5.113281 22.410156 4 Z M 8 22C10.222656 22 12 23.777344 12 26C12 28.222656 10.222656 30 8 30C5.777344 30 4 28.222656 4 26C4 23.777344 5.777344 22 8 22 Z M 25 22C27.222656 22 29 23.777344 29 26C29 28.222656 27.222656 30 25 30C22.777344 30 21 28.222656 21 26C21 23.777344 22.777344 22 25 22 Z M 42 22C44.222656 22 46 23.777344 46 26C46 28.222656 44.222656 30 42 30C39.777344 30 38 28.222656 38 26C38 23.777344 39.777344 22 42 22 Z M 8 23C6.355469 23 5 24.355469 5 26L7 26C7 25.433594 7.433594 25 8 25 Z M 25 23C23.355469 23 22 24.355469 22 26L24 26C24 25.433594 24.433594 25 25 25 Z M 42 23C40.355469 23 39 24.355469 39 26L41 26C41 25.433594 41.433594 25 42 25 Z M 25 40C22.800781 40 21 41.800781 21 44C21 46.199219 22.800781 48 25 48C27.199219 48 29 46.199219 29 44C29 41.800781 27.199219 40 25 40 Z M 25 42C26.117188 42 27 42.882813 27 44C27 45.117188 26.117188 46 25 46C23.882813 46 23 45.117188 23 44C23 42.882813 23.882813 42 25 42Z"/></svg>