<svg xmlns="http://www.w3.org/2000/svg" xmlns:xlink="http://www.w3.org/1999/xlink" viewBox="0 0 50 50"><path d="M20 2L20 3C20 5.414063 21.722656 7.433594 24 7.898438L24 18L26 18L26 7.898438C28.277344 7.433594 30 5.414063 30 3L30 2 Z M 8 20C4.6875 20 2 22.6875 2 26C2 28.980469 4.175781 31.445313 7.023438 31.914063C7.242188 36.957031 11.40625 41 16.5 41C20.21875 41 23.441406 38.839844 25 35.714844C26.558594 38.839844 29.78125 41 33.5 41C38.59375 41 42.757813 36.957031 42.980469 31.914063C45.824219 31.445313 48 28.980469 48 26C48 22.6875 45.3125 20 42 20C38.6875 20 36 22.6875 36 26C36 28.964844 38.152344 31.421875 40.980469 31.90625C40.765625 35.871094 37.515625 39 33.5 39C29.484375 39 26.234375 35.871094 26.019531 31.90625C28.847656 31.421875 31 28.964844 31 26C31 22.6875 28.3125 20 25 20C21.6875 20 19 22.6875 19 26C19 28.964844 21.152344 31.421875 23.980469 31.90625C23.765625 35.871094 20.515625 39 16.5 39C12.484375 39 9.234375 35.871094 9.023438 31.90625C11.847656 31.421875 14 28.964844 14 26C14 22.6875 11.3125 20 8 20 Z M 8 23L8 25C7.449219 25 7 25.449219 7 26L5 26C5 24.347656 6.347656 23 8 23 Z M 25 23L25 25C24.449219 25 24 25.449219 24 26L22 26C22 24.347656 23.347656 23 25 23 Z M 42 23L42 25C41.449219 25 41 25.449219 41 26L39 26C39 24.347656 40.347656 23 42 23 Z M 25 40C22.789063 40 21 41.789063 21 44C21 46.210938 22.789063 48 25 48C27.210938 48 29 46.210938 29 44C29 41.789063 27.210938 40 25 40Z"/></svg>