<svg xmlns="http://www.w3.org/2000/svg" xmlns:xlink="http://www.w3.org/1999/xlink" viewBox="0 0 24 24"><path d="M7.5 2C6.672 2 6 2.672 6 3.5L6 5.2792969C4.221244 5.9358484 3 7.72182 3 9.6992188L3 10C3 10.552 3.448 11 4 11L11 11C11.552 11 12 10.552 12 10L12 9.5C12 8.0778893 11.323888 6.8251177 10.291016 6L14.271484 6 A 2 2 0 0 0 15.669922 6.9707031L17.455078 11.730469 A 2 2 0 0 0 17 13 A 2 2 0 0 0 17.162109 13.783203L12.5 20L10 20 A 1.0001 1.0001 0 1 0 10 22L12.986328 22L17 22 A 1.0001 1.0001 0 1 0 17 20L15 20L18.761719 14.984375 A 2 2 0 0 0 19 15 A 2 2 0 0 0 21 13 A 2 2 0 0 0 19.330078 11.029297L17.544922 6.2695312 A 2 2 0 0 0 18 5 A 2 2 0 0 0 16 3 A 2 2 0 0 0 14.269531 4L9 4L9 3.5C9 2.672 8.328 2 7.5 2 z"/></svg>