<svg xmlns="http://www.w3.org/2000/svg" xmlns:xlink="http://www.w3.org/1999/xlink" viewBox="0 0 50 50"><path d="M12.25 0.03125C9.300781 0.160156 7 2.554688 7 5.5L7 10.5C6.980469 10.511719 6.957031 10.519531 6.9375 10.53125C8.867188 11.011719 11.511719 11 12.5 11C14.671875 11 16.730469 10.789063 18 10.5L18 5.5C18 2.554688 15.683594 0.160156 12.75 0.03125C12.585938 0.0078125 12.382813 0.0078125 12.25 0.03125 Z M 31 1C28.242188 1 26 3.242188 26 6C26 8.757813 28.242188 11 31 11C33.757813 11 36 8.757813 36 6C36 3.242188 33.757813 1 31 1 Z M 24.59375 3.21875L19.75 3.65625C19.898438 4.246094 20 4.863281 20 5.5L20 9.40625C20.097656 9.476563 20.183594 9.550781 20.28125 9.625L24.78125 9.21875C24.273438 8.25 24 7.164063 24 6C24 5.011719 24.222656 4.070313 24.59375 3.21875 Z M 37.5625 8.4375C36.832031 10.402344 35.238281 11.945313 33.25 12.625L39.0625 19.34375C40.15625 17.574219 41.996094 16.324219 44.15625 16.0625 Z M 19.9375 11.9375C18.054688 12.902344 13.839844 13 12.5 13C10.246094 13 7.046875 12.886719 5.03125 11.96875C1.972656 14.734375 0 18.96875 0 23.125C0 23.367188 0.0898438 23.597656 0.25 23.78125C0.539063 24.109375 3.328125 27 12.5 27C21.753906 27 24.46875 24.082031 24.75 23.75C24.902344 23.570313 25 23.363281 25 23.125C25 18.960938 23.003906 14.703125 19.9375 11.9375 Z M 45 18C42.242188 18 40 20.242188 40 23C40 25.757813 42.242188 28 45 28C47.757813 28 50 25.757813 50 23C50 20.242188 47.757813 18 45 18 Z M 39.5 27.3125L31.15625 40L38.3125 40L44.8125 30C42.648438 29.945313 40.746094 28.90625 39.5 27.3125 Z M 22.84375 42C20.164063 42 18 44.242188 18 47L18 49C18 49.554688 18.449219 50 19 50L46 50C46.554688 50 47 49.554688 47 49L47 47C47 44.242188 44.835938 42 42.15625 42Z"/></svg>