<svg xmlns="http://www.w3.org/2000/svg" xmlns:xlink="http://www.w3.org/1999/xlink" viewBox="0 0 50 50"><path d="M12.5 0C12.273438 0 12.191406 0.0351563 12.25 0.03125C9.335938 0.15625 7 2.554688 7 5.5L7 10.59375C6.71875 10.636719 6.46875 10.792969 6.3125 11.03125C2.511719 13.710938 0 18.449219 0 23.125L2 23.125C2 23.125 0.238281 23.769531 0.25 23.78125C0.261719 23.792969 0.296875 23.828125 0.3125 23.84375C0.347656 23.878906 0.378906 23.914063 0.4375 23.96875C0.550781 24.074219 0.71875 24.214844 0.9375 24.375C1.375 24.691406 2.027344 25.078125 2.96875 25.46875C4.851563 26.25 7.867188 27 12.5 27C17.132813 27 20.148438 26.25 22.03125 25.46875C22.972656 25.078125 23.625 24.691406 24.0625 24.375C24.5 24.058594 24.75 23.75 24.75 23.75C24.902344 23.578125 24.992188 23.355469 25 23.125C25 18.476563 22.511719 13.78125 18.75 11.09375C18.59375 10.820313 18.3125 10.632813 18 10.59375L18 9.84375L27.03125 9.03125C27.949219 10.222656 29.390625 11 31 11C31.277344 11 31.546875 10.980469 31.8125 10.9375L40.4375 20.96875C40.160156 21.589844 40 22.277344 40 23C40 23.90625 40.226563 24.769531 40.65625 25.5L29.84375 42L22.84375 42C20.152344 42 18 44.269531 18 47L18 49C18 49.550781 18.449219 50 19 50L46 50C46.550781 50 47 49.550781 47 49L47 47C47 44.269531 44.847656 42 42.15625 42L37 42L46.21875 27.84375C48.378906 27.292969 50 25.328125 50 23C50 20.5625 48.222656 18.527344 45.90625 18.09375L35.96875 6.5625C35.992188 6.375 36 6.191406 36 6C36 3.25 33.75 1 31 1C29.390625 1 27.949219 1.777344 27.03125 2.96875L17.75 3.84375C17.070313 1.695313 15.097656 0.132813 12.75 0.03125C12.808594 0.0351563 12.726563 0 12.5 0 Z M 12.46875 2C12.488281 2.007813 12.53125 2.027344 12.625 2.03125C12.636719 2.03125 12.644531 2.03125 12.65625 2.03125C14.226563 2.097656 15.5 3.167969 15.875 4.625C15.777344 4.921875 15.824219 5.242188 16 5.5L16 8.75C15.984375 8.855469 15.984375 8.957031 16 9.0625L16 10.8125C14.96875 10.921875 13.820313 11 12.5 11C11.1875 11 10.035156 10.921875 9 10.8125L9 5.5C9 3.609375 10.46875 2.113281 12.34375 2.03125C12.355469 2.03125 12.363281 2.03125 12.375 2.03125C12.433594 2.027344 12.441406 2.003906 12.46875 2 Z M 31 3C32.667969 3 34 4.332031 34 6C34 6.199219 33.972656 6.375 33.9375 6.5625C33.921875 6.625 33.910156 6.6875 33.90625 6.75C33.664063 7.703125 32.972656 8.472656 32.0625 8.8125C32.054688 8.816406 32.039063 8.808594 32.03125 8.8125C32 8.820313 31.96875 8.832031 31.9375 8.84375C31.882813 8.851563 31.832031 8.859375 31.78125 8.875C31.769531 8.886719 31.761719 8.894531 31.75 8.90625C31.71875 8.914063 31.6875 8.929688 31.65625 8.9375C31.441406 8.984375 31.230469 9 31 9C29.957031 9 29.035156 8.484375 28.5 7.6875C28.492188 7.675781 28.476563 7.667969 28.46875 7.65625C28.460938 7.636719 28.449219 7.613281 28.4375 7.59375C28.433594 7.585938 28.441406 7.570313 28.4375 7.5625C28.414063 7.496094 28.382813 7.433594 28.34375 7.375C28.308594 7.320313 28.265625 7.265625 28.21875 7.21875C28.0625 6.851563 28 6.425781 28 6C28 5.480469 28.117188 4.984375 28.34375 4.5625C28.355469 4.550781 28.363281 4.542969 28.375 4.53125C28.382813 4.519531 28.398438 4.511719 28.40625 4.5C28.445313 4.441406 28.476563 4.378906 28.5 4.3125C29.035156 3.515625 29.957031 3 31 3 Z M 26.09375 5.09375C26.039063 5.390625 26 5.6875 26 6C26 6.378906 26.042969 6.738281 26.125 7.09375L18 7.84375L18 5.8125 Z M 35.1875 8.71875L43.40625 18.28125C42.75 18.503906 42.160156 18.855469 41.65625 19.3125L33.78125 10.15625C34.332031 9.78125 34.820313 9.277344 35.1875 8.71875 Z M 7.375 12.625C8.8125 12.847656 10.496094 13 12.5 13C14.503906 13 16.1875 12.875 17.625 12.65625C20.660156 14.878906 22.792969 18.914063 22.9375 22.71875C22.902344 22.746094 22.917969 22.71875 22.875 22.75C22.570313 22.972656 22.050781 23.292969 21.25 23.625C19.648438 24.289063 16.921875 25 12.5 25C8.078125 25 5.351563 24.289063 3.75 23.625C2.949219 23.292969 2.429688 22.972656 2.125 22.75C2.089844 22.726563 2.089844 22.710938 2.0625 22.6875C2.21875 18.886719 4.335938 14.839844 7.375 12.625 Z M 45 20C46.667969 20 48 21.332031 48 23C48 24.460938 46.964844 25.660156 45.59375 25.9375C45.550781 25.933594 45.511719 25.933594 45.46875 25.9375C45.4375 25.945313 45.40625 25.957031 45.375 25.96875C45.25 25.984375 45.132813 26 45 26C44.109375 26 43.328125 25.609375 42.78125 25C42.710938 24.878906 42.613281 24.769531 42.5 24.6875C42.179688 24.210938 42 23.625 42 23C42 22.457031 42.125 21.9375 42.375 21.5C42.386719 21.488281 42.394531 21.480469 42.40625 21.46875C42.421875 21.445313 42.453125 21.429688 42.46875 21.40625C42.507813 21.347656 42.539063 21.285156 42.5625 21.21875C43.105469 20.472656 43.996094 20 45 20 Z M 42.0625 27C42.589844 27.382813 43.191406 27.6875 43.84375 27.84375L34.625 42L32.25 42 Z M 22.84375 44L34.75 44C34.992188 44.097656 35.257813 44.097656 35.5 44L42.15625 44C43.726563 44 45 45.3125 45 47L45 48L20 48L20 47C20 45.3125 21.273438 44 22.84375 44Z"/></svg>