<svg xmlns="http://www.w3.org/2000/svg" xmlns:xlink="http://www.w3.org/1999/xlink" viewBox="0 0 50 50"><path d="M13 2C10.800781 2 9 3.800781 9 6L9 22C9 22.550781 9.449219 23 10 23L12.21875 23L12.8125 21L11 21L11 6C11 4.882813 11.882813 4 13 4L37 4C38.117188 4 39 4.882813 39 6L39 21L37.1875 21L37.78125 23L40 23C40.550781 23 41 22.550781 41 22L41 6C41 3.800781 39.199219 2 37 2 Z M 25 7C21.980469 7 19.3125 8.664063 18.65625 11.1875C18.679688 11.097656 18.589844 11.457031 18.46875 11.84375C18.347656 12.230469 18.1875 12.75 18 13.34375C17.65625 14.433594 17.234375 15.730469 16.875 16.875C15.589844 18.007813 14.667969 19.421875 14.25 21.03125C14.265625 20.972656 14.046875 21.632813 13.78125 22.46875C13.515625 23.304688 13.175781 24.410156 12.78125 25.65625C11.992188 28.144531 11.050781 31.132813 10.375 33.3125C10.347656 33.371094 10.328125 33.4375 10.3125 33.5C10.308594 33.507813 10.316406 33.523438 10.3125 33.53125C10.3125 33.550781 10.3125 33.574219 10.3125 33.59375C10.117188 34.371094 10 35.175781 10 36C10 39.382813 11.742188 42.417969 14.46875 44.5625C17.195313 46.707031 20.921875 48 25 48C29.078125 48 32.804688 46.707031 35.53125 44.5625C38.257813 42.417969 40 39.382813 40 36C40 35.164063 39.886719 34.347656 39.6875 33.5625C39.6875 33.550781 39.6875 33.542969 39.6875 33.53125C39.683594 33.507813 39.664063 33.492188 39.65625 33.46875C39.65625 33.457031 39.65625 33.449219 39.65625 33.4375C39.652344 33.417969 39.660156 33.394531 39.65625 33.375C39.648438 33.355469 39.636719 33.332031 39.625 33.3125C38.949219 31.132813 38.007813 28.144531 37.21875 25.65625C36.824219 24.410156 36.484375 23.304688 36.21875 22.46875C35.953125 21.632813 35.734375 20.972656 35.75 21.03125C35.335938 19.4375 34.425781 18.035156 33.15625 16.90625C32.789063 15.746094 32.347656 14.414063 32 13.3125C31.816406 12.730469 31.652344 12.191406 31.53125 11.8125C31.410156 11.433594 31.320313 11.089844 31.34375 11.1875C30.6875 8.664063 28.019531 7 25 7 Z M 25 9C27.277344 9 29.042969 10.285156 29.40625 11.6875C29.457031 11.886719 29.503906 12.023438 29.625 12.40625C29.746094 12.789063 29.910156 13.324219 30.09375 13.90625C30.21875 14.296875 30.359375 14.753906 30.5 15.1875C28.871094 14.433594 26.992188 14 25 14C23.023438 14 21.148438 14.410156 19.53125 15.15625C19.664063 14.742188 19.789063 14.3125 19.90625 13.9375C20.09375 13.34375 20.253906 12.828125 20.375 12.4375C20.496094 12.046875 20.542969 11.882813 20.59375 11.6875C20.957031 10.285156 22.722656 9 25 9 Z M 25 16C29.460938 16 33.058594 18.511719 33.84375 21.53125C33.914063 21.804688 34.046875 22.222656 34.3125 23.0625C34.578125 23.902344 34.917969 25.035156 35.3125 26.28125C35.449219 26.71875 35.574219 27.164063 35.71875 27.625C35.648438 27.570313 35.601563 27.492188 35.53125 27.4375C32.804688 25.292969 29.078125 24 25 24C20.921875 24 17.195313 25.292969 14.46875 27.4375C14.398438 27.492188 14.351563 27.570313 14.28125 27.625C14.425781 27.164063 14.550781 26.71875 14.6875 26.28125C15.082031 25.035156 15.421875 23.902344 15.6875 23.0625C15.953125 22.222656 16.085938 21.804688 16.15625 21.53125C16.453125 20.398438 17.140625 19.351563 18.125 18.46875C18.136719 18.457031 18.144531 18.449219 18.15625 18.4375C18.183594 18.414063 18.222656 18.398438 18.25 18.375C18.359375 18.308594 18.453125 18.226563 18.53125 18.125C18.542969 18.117188 18.550781 18.101563 18.5625 18.09375C18.574219 18.074219 18.585938 18.050781 18.59375 18.03125C20.210938 16.789063 22.480469 16 25 16 Z M 25 26C28.652344 26 31.941406 27.160156 34.28125 29C35.996094 30.347656 37.203125 32.039063 37.71875 33.90625C37.726563 33.9375 37.738281 33.96875 37.75 34C37.921875 34.648438 38 35.316406 38 36C38 38.695313 36.621094 41.160156 34.28125 43C31.941406 44.839844 28.652344 46 25 46C21.347656 46 18.058594 44.839844 15.71875 43C13.378906 41.160156 12 38.695313 12 36C12 35.304688 12.074219 34.625 12.25 33.96875C12.261719 33.949219 12.273438 33.925781 12.28125 33.90625C12.796875 32.039063 14.003906 30.347656 15.71875 29C18.058594 27.160156 21.347656 26 25 26 Z M 25 28C23.34375 28 22 29.121094 22 30.5C22 31.878906 23.34375 33 25 33C26.65625 33 28 31.878906 28 30.5C28 29.121094 26.65625 28 25 28Z"/></svg>