<svg xmlns="http://www.w3.org/2000/svg" xmlns:xlink="http://www.w3.org/1999/xlink" viewBox="0 0 50 50"><path d="M13 2C10.789063 2 9 3.789063 9 6L9 22C9 22.550781 9.449219 23 10 23L12.1875 23L12.8125 21L11 21L11 6C11 4.808594 11.808594 4 13 4L37 4C38.191406 4 39 4.808594 39 6L39 21L37.1875 21L37.8125 23L40 23C40.550781 23 41 22.550781 41 22L41 6C41 3.789063 39.210938 2 37 2 Z M 25 7C21.898438 7 19.289063 8.6875 18.6875 11.1875C18.6875 11.289063 18.398438 12.300781 18 13.5C18 13.601563 17.90625 13.707031 17.90625 13.90625C19.90625 12.707031 22.398438 12 25 12C27.601563 12 30.085938 12.710938 32.1875 13.8125C32.1875 13.710938 32.09375 13.601563 32.09375 13.5C31.695313 12.300781 31.40625 11.289063 31.40625 11.1875C30.707031 8.6875 28.101563 7 25 7 Z M 24.90625 14C19.707031 14 15.195313 17 14.09375 21C13.992188 21.199219 13.414063 23.085938 12.8125 25.1875C12.011719 27.789063 10.988281 31.011719 10.1875 33.3125L10.1875 33.40625C10.085938 34.304688 10 35.101563 10 36C10 42.601563 16.699219 48 25 48C33.300781 48 40 42.601563 40 36C40 35.101563 39.894531 34.304688 39.59375 33.40625C38.894531 31.007813 37.800781 27.695313 37 25.09375C36.398438 23.09375 35.789063 21.199219 35.6875 21C34.585938 16.898438 30.105469 14 24.90625 14 Z M 25 26C32.199219 26 38 30.5 38 36C38 41.5 32.199219 46 25 46C17.800781 46 12 41.5 12 36C12 30.5 17.800781 26 25 26 Z M 25 28C23.34375 28 22 29.121094 22 30.5C22 31.878906 23.34375 33 25 33C26.65625 33 28 31.878906 28 30.5C28 29.121094 26.65625 28 25 28Z"/></svg>