<svg xmlns="http://www.w3.org/2000/svg" xmlns:xlink="http://www.w3.org/1999/xlink" viewBox="0 0 24 24"><path d="M7.4003906 2C6.5103906 2 5.740375 2.5737813 5.484375 3.4257812L3.0859375 11.425781C2.9029375 12.037781 3.0154844 12.680359 3.3964844 13.193359C3.7774844 13.705359 4.361 14 5 14L9.1113281 14C9.3398475 15.133638 9.883569 16.337891 10.34375 17.353516C10.61275 17.946516 10.981 18.761 11 19L11 20L8 20 A 1.0001 1.0001 0 1 0 8 22L16 22 A 1.0001 1.0001 0 1 0 16 20L13 20L13 19.007812C13.02 18.757812 13.38825 17.945516 13.65625 17.353516C14.116431 16.337891 14.660152 15.133638 14.888672 14L19 14C19.638 14 20.222516 13.706312 20.603516 13.195312C20.984516 12.682312 21.097062 12.036781 20.914062 11.425781L18.515625 3.4257812C18.259625 2.5727812 17.489609 2 16.599609 2L7.4003906 2 z M 7.4003906 4L16.599609 4L19.001953 12L5.0019531 12L7.4003906 4 z"/></svg>