<?xml version="1.0" encoding="utf-8"?><svg version="1.1" id="Layer_1" xmlns="http://www.w3.org/2000/svg" xmlns:xlink="http://www.w3.org/1999/xlink" x="0px" y="0px" viewBox="0 0 95.3 122.88" style="enable-background:new 0 0 95.3 122.88" xml:space="preserve"><style type="text/css">.st0{fill-rule:evenodd;clip-rule:evenodd;}</style><g><path class="st0" d="M0.91,73.04h93.37c1.47-1.96,1.25-3.97,0-6L59.64,22.9H37.03L0.91,67.03C-0.1,69.08-0.5,71.1,0.91,73.04 L0.91,73.04z M45.38,97.3c0-1.25,1.02-2.27,2.27-2.27c1.25,0,2.27,1.02,2.27,2.27v23.32c0,1.25-1.02,2.27-2.27,2.27 c-1.25,0-2.27-1.02-2.27-2.27V97.3L45.38,97.3z M65.66,93.83c-0.91-0.85-0.97-2.27-0.12-3.19c0.85-0.91,2.27-0.97,3.19-0.12 l17.98,16.63c0.91,0.85,0.97,2.27,0.12,3.19c-0.85,0.91-2.28,0.97-3.19,0.12L65.66,93.83L65.66,93.83z M27.15,90.47 c0.94-0.82,2.37-0.73,3.19,0.21c0.82,0.94,0.73,2.37-0.21,3.19L12.15,109.6c-0.94,0.82-2.37,0.73-3.19-0.21 c-0.82-0.94-0.73-2.37,0.21-3.19L27.15,90.47L27.15,90.47z M45.09,0h5.13v8.9c4.88,1.17,8.53,5.58,8.53,10.8v0.72h-22.2v-0.72 c0-5.22,3.66-9.63,8.54-10.8V0L45.09,0z M47.82,88.58L47.82,88.58c5.99,0,10.9-4.9,10.9-10.9v-0.7H36.92v0.7 C36.92,83.68,41.82,88.58,47.82,88.58L47.82,88.58z"/></g></svg>