<svg xmlns="http://www.w3.org/2000/svg" xmlns:xlink="http://www.w3.org/1999/xlink" viewBox="0 0 50 50"><path d="M11.3125 0L11.0625 0.65625L3.0625 22.65625L2.5625 24L19.4375 24C18.644531 24.816406 18 25.941406 18 27.40625C18 30.445313 19.144531 32.34375 20.125 34.25C21.015625 35.980469 21.824219 37.8125 21.96875 41L17 41C15.90625 41 15 41.90625 15 43L15 44L12 44C10.90625 44 10 44.90625 10 46L10 50L40 50L40 46C40 44.90625 39.09375 44 38 44L35 44L35 43C35 41.90625 34.09375 41 33 41L28.03125 41C28.175781 37.8125 28.984375 35.980469 29.875 34.25C30.855469 32.34375 32 30.445313 32 27.40625C32 25.941406 31.355469 24.816406 30.5625 24L47.4375 24L46.9375 22.65625L38.9375 0.65625L38.6875 0 Z M 12.6875 2L37.3125 2L44.5625 22L23.25 22C23.144531 21.984375 23.042969 21.984375 22.9375 22L5.4375 22 Z M 23.1875 24L26.8125 24C26.945313 24.039063 27.664063 24.246094 28.4375 24.78125C29.285156 25.367188 30 26.15625 30 27.40625C30 29.96875 29.144531 31.363281 28.125 33.34375C27.191406 35.160156 26.191406 37.421875 26.03125 41L23.96875 41C23.808594 37.421875 22.808594 35.160156 21.875 33.34375C20.855469 31.363281 20 29.96875 20 27.40625C20 26.15625 20.714844 25.367188 21.5625 24.78125C22.335938 24.246094 23.054688 24.039063 23.1875 24 Z M 17 43L33 43L33 44L17 44 Z M 12 46L38 46L38 48L12 48Z"/></svg>