<svg xmlns="http://www.w3.org/2000/svg" xmlns:xlink="http://www.w3.org/1999/xlink" viewBox="0 0 50 50"><path d="M30 1C24.488281 1 20 5.488281 20 11C20 14.414063 21.730469 17.429688 24.355469 19.234375L16.503906 25.121094C16.503906 25.121094 16.5 25.121094 16.5 25.125C16.28125 25.246094 16.113281 25.449219 16.035156 25.6875L12.1875 33.390625C12.003906 33.625 11.933594 33.925781 11.996094 34.214844C12.054688 34.503906 12.242188 34.753906 12.503906 34.890625L19 40.460938L19 43.03125C16.148438 43.164063 14.046875 43.855469 12.628906 44.585938C11.835938 44.992188 11.257813 45.40625 10.859375 45.734375C10.664063 45.902344 10.511719 46.046875 10.402344 46.160156C10.34375 46.21875 10.300781 46.269531 10.253906 46.324219C10.234375 46.351563 10.210938 46.375 10.183594 46.421875C10.167969 46.445313 10.148438 46.46875 10.121094 46.527344C10.105469 46.554688 10.085938 46.585938 10.0625 46.648438C10.054688 46.679688 10.027344 46.769531 10.027344 46.769531C10.027344 46.773438 10 47 10 47L10 48C10 48.550781 10.449219 49 11 49L29 49C29.550781 49 30 48.550781 30 48L30 47C30 46.761719 29.914063 46.53125 29.761719 46.347656C29.761719 46.347656 28.953125 45.433594 27.375 44.613281C25.957031 43.878906 23.855469 43.167969 21 43.03125L21 40.535156L26.554688 36.832031C26.832031 36.648438 27 36.335938 27 36C27 35.664063 26.832031 35.351563 26.554688 35.167969L21.570313 31.84375L24.558594 28.859375C24.6875 28.777344 24.796875 28.667969 24.875 28.535156L27.707031 25.707031C27.894531 25.519531 28 25.265625 28 25L28 20.796875C28.648438 20.929688 29.316406 21 30 21C35.511719 21 40 16.511719 40 11C40 5.488281 35.511719 1 30 1 Z M 30 3C34.429688 3 38 6.570313 38 11C38 15.429688 34.429688 19 30 19C25.570313 19 22 15.429688 22 11C22 6.570313 25.570313 3 30 3 Z M 30 7C27.800781 7 26 8.800781 26 11C26 13.199219 27.800781 15 30 15C32.199219 15 34 13.199219 34 11C34 8.800781 32.199219 7 30 7 Z M 30 9C31.117188 9 32 9.882813 32 11C32 12.117188 31.117188 13 30 13C28.882813 13 28 12.117188 28 11C28 9.882813 28.882813 9 30 9 Z M 26 20.15625L26 24.585938L23.707031 26.875L19.210938 25.59375L25.597656 20.800781C25.8125 20.648438 25.953125 20.414063 26 20.15625 Z M 17.523438 27.1875L22.09375 28.496094L19.476563 31.109375L14.910156 32.414063 Z M 19.828125 33.089844L24.199219 36L20.078125 38.75L15.0625 34.449219 Z M 19.863281 45.003906C19.957031 45.015625 20.046875 45.015625 20.136719 45.003906C23.121094 45.023438 25.164063 45.71875 26.453125 46.386719C27.089844 46.714844 27.035156 46.773438 27.320313 47L12.5625 47C12.835938 46.800781 13.085938 46.601563 13.542969 46.363281C14.832031 45.703125 16.875 45.023438 19.863281 45.003906Z"/></svg>