<svg xmlns="http://www.w3.org/2000/svg" xmlns:xlink="http://www.w3.org/1999/xlink" viewBox="0 0 50 50"><path d="M27.257813 1.007813C26.824219 0.964844 26.378906 1.042969 25.976563 1.179688C25.175781 1.445313 24.390625 1.960938 23.675781 2.675781C22.960938 3.386719 22.445313 4.175781 22.179688 4.976563C21.914063 5.773438 21.867188 6.753906 22.558594 7.445313C23.460938 8.347656 23.996094 9.285156 24.339844 10.25C24.3125 10.273438 24.285156 10.296875 24.265625 10.324219L13.359375 22.222656C13.355469 22.222656 13.351563 22.226563 13.351563 22.226563C13.179688 22.371094 13.058594 22.566406 13.011719 22.785156L9.148438 32.445313C8.992188 32.671875 8.9375 32.949219 8.992188 33.214844C9.050781 33.480469 9.210938 33.714844 9.445313 33.859375L16 40.414063L16 43.03125C13.148438 43.164063 11.046875 43.855469 9.628906 44.585938C8.835938 44.992188 8.257813 45.40625 7.859375 45.734375C7.664063 45.902344 7.511719 46.046875 7.398438 46.160156C7.34375 46.21875 7.300781 46.269531 7.257813 46.324219C7.234375 46.351563 7.210938 46.375 7.179688 46.421875C7.167969 46.445313 7.148438 46.46875 7.117188 46.527344C7.105469 46.554688 7.085938 46.585938 7.0625 46.648438C7.054688 46.679688 7.027344 46.769531 7.027344 46.769531C7.027344 46.773438 7 47 7 47L7 48C7 48.550781 7.449219 49 8 49L26 49C26.550781 49 27 48.550781 27 48L27 47C27 46.761719 26.914063 46.53125 26.761719 46.347656C26.761719 46.347656 25.953125 45.433594 24.375 44.613281C22.957031 43.878906 20.855469 43.167969 18 43.03125L18 40.535156L23.554688 36.832031C23.816406 36.65625 23.980469 36.367188 24 36.054688C24.015625 35.738281 23.882813 35.433594 23.640625 35.234375L18.3125 30.792969L22.769531 23.65625C22.960938 23.429688 23.046875 23.132813 23 22.84375L23 15C23 14.898438 22.988281 14.800781 22.957031 14.703125L24.839844 12.65625C24.882813 13.082031 24.925781 13.511719 24.953125 13.953125C25.097656 16.300781 25.085938 18.914063 27.085938 20.914063C27.136719 20.96875 27.195313 21.015625 27.257813 21.054688C28.570313 22.207031 30.515625 22.207031 32.445313 21.5625C34.457031 20.890625 36.613281 19.507813 38.5625 17.5625C40.507813 15.613281 41.890625 13.457031 42.5625 11.445313C43.203125 9.523438 43.207031 7.589844 42.074219 6.28125C42.03125 6.214844 41.980469 6.152344 41.921875 6.097656C41.921875 6.09375 41.917969 6.089844 41.914063 6.085938C41.90625 6.078125 41.902344 6.074219 41.894531 6.070313C41.894531 6.066406 41.890625 6.066406 41.890625 6.0625C41.886719 6.0625 41.882813 6.058594 41.878906 6.054688C41.859375 6.039063 41.835938 6.023438 41.816406 6.007813C41.664063 5.863281 41.503906 5.734375 41.332031 5.625C39.164063 3.976563 36.804688 4.039063 34.769531 4C32.5625 3.957031 30.660156 3.851563 28.453125 1.570313C28.109375 1.214844 27.691406 1.050781 27.257813 1.007813 Z M 27.015625 2.960938C29.636719 5.667969 32.429688 5.957031 34.730469 6C34.882813 6.003906 35.015625 6.007813 35.164063 6.007813C34.398438 6.375 33.628906 6.839844 32.863281 7.382813C32.859375 7.386719 32.855469 7.386719 32.851563 7.390625C32.734375 7.445313 32.632813 7.523438 32.546875 7.621094C32.542969 7.621094 32.542969 7.621094 32.542969 7.625C31.828125 8.160156 31.121094 8.757813 30.4375 9.4375C29.734375 10.144531 29.113281 10.878906 28.566406 11.621094C28.527344 11.660156 28.492188 11.707031 28.457031 11.753906C27.863281 12.578125 27.363281 13.414063 26.972656 14.234375C26.964844 14.097656 26.957031 13.976563 26.949219 13.832031C26.800781 11.410156 26.453125 8.511719 23.96875 6.03125C24.042969 6.101563 23.941406 6.019531 24.078125 5.609375C24.214844 5.195313 24.566406 4.609375 25.089844 4.089844C25.613281 3.566406 26.195313 3.214844 26.609375 3.074219C27.027344 2.933594 27.09375 3.042969 27.015625 2.960938 Z M 38.808594 7.007813C39.417969 6.976563 39.898438 7.089844 40.246094 7.304688C40.332031 7.375 40.421875 7.4375 40.515625 7.515625C41.046875 8.066406 41.203125 9.199219 40.667969 10.8125C40.125 12.441406 38.902344 14.390625 37.144531 16.144531C35.390625 17.902344 33.441406 19.125 31.8125 19.667969C30.183594 20.207031 29.042969 20.042969 28.5 19.5C27.957031 18.957031 27.792969 17.816406 28.332031 16.1875C28.558594 15.511719 28.929688 14.769531 29.378906 14.019531C30.082031 14.628906 31 15 32 15C34.199219 15 36 13.199219 36 11C36 10 35.628906 9.082031 35.019531 8.378906C35.769531 7.929688 36.511719 7.558594 37.1875 7.335938C37.796875 7.128906 38.339844 7.027344 38.808594 7.007813 Z M 33.347656 9.53125C33.746094 9.894531 34 10.410156 34 11C34 12.117188 33.117188 13 32 13C31.410156 13 30.894531 12.746094 30.53125 12.347656C30.929688 11.84375 31.367188 11.339844 31.855469 10.855469C32.339844 10.367188 32.84375 9.929688 33.347656 9.53125 Z M 21 16.84375L21 22L16.273438 22 Z M 14.675781 24L20.195313 24L16.355469 30.144531L11.6875 31.480469 Z M 16.765625 32.105469L21.332031 35.910156L17.125 38.714844L11.90625 33.496094 Z M 16.863281 45.003906C16.957031 45.015625 17.046875 45.015625 17.136719 45.003906C20.121094 45.023438 22.164063 45.71875 23.453125 46.386719C24.089844 46.714844 24.035156 46.773438 24.320313 47L9.5625 47C9.835938 46.800781 10.085938 46.601563 10.542969 46.363281C11.832031 45.703125 13.875 45.023438 16.863281 45.003906Z"/></svg>