<svg xmlns="http://www.w3.org/2000/svg" xmlns:xlink="http://www.w3.org/1999/xlink" viewBox="0 0 50 50"><path d="M27.003906 0.996094C25.972656 0.996094 24.730469 1.621094 23.675781 2.675781C21.972656 4.378906 21.5 6.382813 22.558594 7.441406C23.457031 8.339844 23.992188 9.28125 24.332031 10.253906C24.308594 10.277344 24.285156 10.300781 24.265625 10.324219L13.359375 22.222656C13.179688 22.367188 13.058594 22.566406 13.011719 22.785156L9.148438 32.445313C8.992188 32.671875 8.9375 32.949219 8.992188 33.214844C9.050781 33.480469 9.210938 33.714844 9.445313 33.859375L16 40.414063L16 43.027344C10.09375 43.308594 7 46.027344 7 47L7 48C7 48.550781 7.445313 49 8 49L26 49C26.554688 49 27 48.550781 27 48L27 47C27 46.761719 26.914063 46.53125 26.761719 46.351563C26.652344 46.222656 24.09375 43.324219 18 43.03125L18 40.535156L23.554688 36.832031C23.816406 36.65625 23.980469 36.367188 24 36.054688C24.015625 35.738281 23.882813 35.433594 23.640625 35.234375L18.3125 30.792969L22.769531 23.65625C22.960938 23.429688 23.046875 23.132813 23 22.84375L23 15C23 14.898438 22.988281 14.800781 22.957031 14.703125L24.84375 12.644531C24.910156 13.242188 24.945313 13.847656 24.984375 14.464844C25.113281 16.734375 25.25 19.078125 27.089844 20.914063C27.8125 21.636719 28.816406 21.984375 29.980469 21.984375C32.480469 21.984375 35.726563 20.394531 38.5625 17.5625C42.71875 13.402344 44.191406 8.363281 41.914063 6.085938C41.90625 6.078125 41.898438 6.074219 41.890625 6.066406C41.886719 6.0625 41.886719 6.058594 41.882813 6.054688C41.839844 6.015625 41.796875 5.988281 41.75 5.949219C41.644531 5.851563 41.53125 5.757813 41.410156 5.679688C39.382813 4.085938 37.289063 4.035156 35.253906 4.007813C32.941406 3.972656 30.753906 3.945313 28.453125 1.570313C28.09375 1.199219 27.601563 1 27.027344 0.996094 Z M 39.195313 7C39.605469 7.027344 39.957031 7.121094 40.234375 7.289063C40.324219 7.367188 40.417969 7.429688 40.511719 7.515625C41.742188 8.78125 40.667969 12.625 37.144531 16.144531C33.613281 19.679688 29.75 20.75 28.5 19.5C27.621094 18.617188 27.914063 16.449219 29.375 14.015625C30.078125 14.625 31 15 32 15C34.199219 15 36 13.199219 36 11C36 9.996094 35.625 9.078125 35.011719 8.375C36.621094 7.40625 38.113281 6.9375 39.195313 7 Z M 33.347656 9.53125C33.746094 9.894531 34 10.410156 34 11C34 12.117188 33.117188 13 32 13C31.410156 13 30.890625 12.746094 30.527344 12.34375C30.925781 11.847656 31.359375 11.347656 31.855469 10.855469C32.347656 10.359375 32.851563 9.929688 33.347656 9.53125 Z M 21 16.84375L21 22L16.273438 22 Z M 14.675781 24L20.195313 24L16.355469 30.144531L11.6875 31.480469 Z M 16.765625 32.105469L21.332031 35.910156L17.125 38.714844L11.90625 33.496094Z"/></svg>