<svg xmlns="http://www.w3.org/2000/svg" xmlns:xlink="http://www.w3.org/1999/xlink" viewBox="0 0 50 50"><path d="M30 1C24.484375 1 20 5.484375 20 11C20 14.417969 21.722656 17.4375 24.34375 19.238281L16.503906 25.121094C16.285156 25.242188 16.117188 25.445313 16.035156 25.6875L12.1875 33.390625C12.003906 33.625 11.933594 33.925781 11.996094 34.214844C12.054688 34.503906 12.242188 34.753906 12.503906 34.890625L19 40.460938L19 43.027344C13.09375 43.308594 10 46.027344 10 47L10 48C10 48.550781 10.449219 49 11 49L29 49C29.550781 49 30 48.550781 30 48L30 47C30 46.761719 29.914063 46.53125 29.761719 46.351563C29.648438 46.222656 27.09375 43.324219 21 43.03125L21 40.535156L26.554688 36.832031C26.832031 36.648438 27 36.335938 27 36C27 35.664063 26.832031 35.351563 26.554688 35.167969L21.570313 31.84375L24.558594 28.859375C24.6875 28.777344 24.796875 28.667969 24.875 28.535156L27.707031 25.707031C27.894531 25.519531 28 25.265625 28 25L28 20.796875C28.644531 20.929688 29.316406 21 30 21C35.515625 21 40 16.515625 40 11C40 5.484375 35.515625 1 30 1 Z M 30 7C32.210938 7 34 8.789063 34 11C34 13.210938 32.210938 15 30 15C27.789063 15 26 13.210938 26 11C26 8.789063 27.789063 7 30 7 Z M 26 20.15625L26 24.585938L23.707031 26.875L19.210938 25.59375L25.597656 20.800781C25.8125 20.648438 25.953125 20.414063 26 20.15625 Z M 17.523438 27.1875L22.09375 28.496094L19.476563 31.109375L14.910156 32.414063 Z M 19.828125 33.089844L24.199219 36L20.078125 38.75L15.0625 34.449219Z"/></svg>