<svg xmlns="http://www.w3.org/2000/svg" xmlns:xlink="http://www.w3.org/1999/xlink" viewBox="0 0 50 50"><path d="M36.875 0C36.652344 0.0234375 36.441406 0.125 36.28125 0.28125L8.28125 28.28125C7.882813 28.679688 7.882813 29.320313 8.28125 29.71875C8.679688 30.117188 9.320313 30.117188 9.71875 29.71875L37.71875 1.71875C38.042969 1.417969 38.128906 0.941406 37.933594 0.546875C37.742188 0.148438 37.308594 -0.0703125 36.875 0 Z M 48.84375 12C48.695313 12.03125 48.558594 12.09375 48.4375 12.1875L15.4375 35.1875C15.082031 35.359375 14.863281 35.722656 14.875 36.117188C14.886719 36.511719 15.128906 36.863281 15.492188 37.011719C15.859375 37.164063 16.277344 37.085938 16.5625 36.8125L49.5625 13.8125C49.945313 13.546875 50.097656 13.054688 49.925781 12.621094C49.753906 12.1875 49.304688 11.929688 48.84375 12 Z M 5.25 29.90625C4.46875 29.90625 3.683594 30.191406 3.09375 30.78125L0.90625 33C-0.277344 34.183594 -0.277344 36.128906 0.90625 37.3125L6 42.4375L6 47L3 47L3 49L11 49L11 47L8 47L8 42.15625C8.027344 42.023438 8.027344 41.882813 8 41.75L8 37C8 36.449219 7.550781 36 7 36C6.449219 36 6 36.449219 6 37L6 39.5625L2.3125 35.90625C1.894531 35.488281 1.894531 34.824219 2.3125 34.40625L4.5 32.21875C4.917969 31.800781 5.582031 31.800781 6 32.21875L11.78125 38C12.1875 38.40625 12.199219 39.050781 11.8125 39.46875L9.59375 41.6875C9.296875 41.929688 9.160156 42.316406 9.246094 42.691406C9.332031 43.0625 9.625 43.355469 9.996094 43.441406C10.371094 43.527344 10.757813 43.390625 11 43.09375L13.21875 40.90625C14.402344 39.722656 14.402344 37.777344 13.21875 36.59375L7.40625 30.78125C6.816406 30.191406 6.03125 29.90625 5.25 29.90625Z"/></svg>