<svg xmlns="http://www.w3.org/2000/svg" xmlns:xlink="http://www.w3.org/1999/xlink" viewBox="0 0 50 50"><path d="M36.875 0C36.652344 0.0234375 36.441406 0.125 36.28125 0.28125L8.28125 28.28125C7.882813 28.679688 7.882813 29.320313 8.28125 29.71875C8.679688 30.117188 9.320313 30.117188 9.71875 29.71875L37.71875 1.71875C38.042969 1.417969 38.128906 0.941406 37.933594 0.546875C37.742188 0.148438 37.308594 -0.0703125 36.875 0 Z M 48.84375 12C48.695313 12.03125 48.558594 12.09375 48.4375 12.1875L15.4375 35.1875C15.082031 35.359375 14.863281 35.722656 14.875 36.117188C14.886719 36.511719 15.128906 36.863281 15.492188 37.011719C15.859375 37.164063 16.277344 37.085938 16.5625 36.8125L49.5625 13.8125C49.945313 13.546875 50.097656 13.054688 49.925781 12.621094C49.753906 12.1875 49.304688 11.929688 48.84375 12 Z M 5.25 29.9375C4.460938 29.9375 3.667969 30.207031 3.09375 30.78125L0.90625 33C0.332031 33.574219 0 34.34375 0 35.15625C0 35.972656 0.332031 36.738281 0.90625 37.3125L6 42.40625L6 37C6 36.445313 6.449219 36 7 36C7.550781 36 8 36.445313 8 37L8 43.84375C8.316406 43.957031 8.648438 44.03125 8.96875 44.03125C9.488281 44.03125 10.242188 43.851563 11 43.09375L13.21875 40.90625C14.40625 39.71875 14.40625 37.78125 13.21875 36.59375L7.40625 30.78125C6.832031 30.207031 6.039063 29.9375 5.25 29.9375 Z M 8 43.84375C7.425781 43.640625 6.84375 43.28125 6.28125 42.71875L6 42.40625L6 47L3 47L3 49L11 49L11 47L8 47Z"/></svg>