<svg xmlns="http://www.w3.org/2000/svg" xmlns:xlink="http://www.w3.org/1999/xlink" viewBox="0 0 50 50"><path d="M15 15h7.363C22.134 14.035 22 13.034 22 12s.134-2.035.363-3H15c-1.103 0-2 .897-2 2v2C13 14.103 13.897 15 15 15zM21.874 40.46C21.948 40.32 22 40.169 22 40c0-.553-.448-1-1-1h-1V19h1c.552 0 1-.447 1-1v-1h-6v1c0 .553.448 1 1 1h1v20h-1c-.552 0-1 .447-1 1 0 .169.052.32.126.46l-6.833 6.833c-.391.391-.391 1.023 0 1.414C9.488 48.902 9.744 49 10 49s.512-.098.707-.293L18 41.414V49c0 .553.448 1 1 1s1-.447 1-1v-7.586l7.293 7.293C27.488 48.902 27.744 49 28 49s.512-.098.707-.293c.391-.391.391-1.023 0-1.414L21.874 40.46zM24 12c0 6.065 4.935 11 11 11V1C28.935 1 24 5.935 24 12zM39 0h-2v24h2c.552 0 1-.447 1-1V1C40 .447 39.552 0 39 0z"/></svg>