<svg xmlns="http://www.w3.org/2000/svg" xmlns:xlink="http://www.w3.org/1999/xlink" viewBox="0 0 50 50"><path d="M36 0 A 1.0001 1.0001 0 0 0 35 1C29.999805 1 25.938502 4.4222835 24.607422 9L16 9C14.906937 9 14 9.9069372 14 11L14 13C14 14.093063 14.906937 15 16 15L17 15L17 18 A 1.0001 1.0001 0 0 0 18 19L19 19L19 38.990234 A 1.0001 1.0001 0 0 0 18.869141 39L18 39 A 1.0001 1.0001 0 0 0 17.107422 40.478516L10.292969 47.292969 A 1.0001 1.0001 0 1 0 11.707031 48.707031L19 41.414062L19 49 A 1.0001 1.0001 0 1 0 21 49L21 41.414062L28.292969 48.707031 A 1.0001 1.0001 0 1 0 29.707031 47.292969L22.892578 40.478516 A 1.0001 1.0001 0 0 0 22 39L21.126953 39 A 1.0001 1.0001 0 0 0 21 38.990234L21 19L22 19 A 1.0001 1.0001 0 0 0 23 18L23 15L24.607422 15C25.938502 19.577716 29.999805 23 35 23 A 1.0001 1.0001 0 0 0 36 24L39 24 A 1.0001 1.0001 0 0 0 40 23L40 1 A 1.0001 1.0001 0 0 0 39 0L36 0 z M 37 2L38 2L38 22L37 22L37 2 z M 35 3L35 21C30.017407 21 26 16.982593 26 12C26 7.0174068 30.017407 3 35 3 z M 16 11L24 11L24 12L24 13L22 13L18 13L16 13L16 11 z M 19 15L21 15L21 17L19 17L19 15 z"/></svg>