<svg xmlns="http://www.w3.org/2000/svg" xmlns:xlink="http://www.w3.org/1999/xlink" viewBox="0 0 50 50"><path d="M10 2C7.789063 2 6 3.789063 6 6L6 22C6 22.550781 6.449219 23 7 23L9.1875 23L9.8125 21L8 21L8 6C8 4.808594 8.808594 4 10 4L40 4C41.191406 4 42 4.808594 42 6L42 21L40.1875 21L40.8125 23L43 23C43.550781 23 44 22.550781 44 22L44 6C44 3.789063 42.210938 2 40 2 Z M 25 11C17.699219 11 13.386719 16.207031 13.1875 16.40625C13.1875 16.507813 13.09375 16.492188 13.09375 16.59375C12.992188 16.792969 10 22.90625 10 33.40625L10 34C10 41.699219 16.699219 48 25 48C33.300781 48 40 41.699219 40 34L40 33.40625C40 22.90625 37.007813 16.800781 36.90625 16.5C36.90625 16.398438 36.8125 16.414063 36.8125 16.3125C36.613281 16.210938 32.300781 11 25 11 Z M 21 22.5625L21 24L29 24L29 22.5625C32.851563 23.710938 35.871094 26.5 37.21875 30L36 30L36 38L37.21875 38C35.871094 41.5 32.851563 44.289063 29 45.4375L29 44L21 44L21 45.4375C17.148438 44.289063 14.128906 41.5 12.78125 38L14 38L14 30L12.78125 30C14.128906 26.5 17.148438 23.710938 21 22.5625 Z M 18 25L17 26L17 27L16 27L16 28L17 28L17 31L15 31L15 32L17 32L17 36L15 36L15 37L17 37L17 40L16 40L16 41L17 41L17 42L18 43L18 41L22 41L22 43L23 43L23 41L27 41L27 43L28 43L28 41L32 41L32 43L33 42L33 41L34 41L34 40L33 40L33 37L35 37L35 36L33 36L33 32L35 32L35 31L33 31L33 28L34 28L34 27L33 27L33 26L32 25L32 27L28 27L28 25L27 25L27 27L23 27L23 25L22 25L22 27L18 27 Z M 18 28L22 28L22 31L18 31 Z M 23 28L27 28L27 31L23 31 Z M 28 28L32 28L32 31L28 31 Z M 18 32L22 32L22 36L18 36 Z M 23 32L27 32L27 36L23 36 Z M 28 32L32 32L32 36L28 36 Z M 18 37L22 37L22 40L18 40 Z M 23 37L27 37L27 40L23 40 Z M 28 37L32 37L32 40L28 40Z"/></svg>