<svg xmlns="http://www.w3.org/2000/svg" xmlns:xlink="http://www.w3.org/1999/xlink" viewBox="0 0 50 50"><path d="M10 2C7.800781 2 6 3.800781 6 6L6 22C6 22.550781 6.449219 23 7 23L9.21875 23L9.8125 21L8 21L8 6C8 4.882813 8.882813 4 10 4L40 4C41.117188 4 42 4.882813 42 6L42 21L40.1875 21L40.78125 23L43 23C43.550781 23 44 22.550781 44 22L44 6C44 3.800781 42.199219 2 40 2 Z M 25 11C17.570313 11 13.21875 16.375 13.21875 16.375C13.171875 16.433594 13.128906 16.496094 13.09375 16.5625C13.09375 16.5625 10 22.839844 10 33.4375C10.007813 33.492188 10.015625 33.542969 10.03125 33.59375C10.03125 33.605469 10.03125 33.613281 10.03125 33.625C10.027344 33.75 10 33.875 10 34C10 41.761719 16.765625 48 25 48C33.234375 48 40 41.761719 40 34C40 33.882813 40.003906 33.769531 40 33.65625C40.007813 33.582031 40.007813 33.511719 40 33.4375C40 22.839844 36.90625 16.5625 36.90625 16.5625C36.871094 16.496094 36.828125 16.433594 36.78125 16.375C36.78125 16.375 32.429688 11 25 11 Z M 25 13C31.367188 13 35.007813 17.421875 35.125 17.5625C35.183594 17.683594 36.65625 20.71875 37.46875 26.21875C34.769531 22.464844 30.171875 20 25 20C19.828125 20 15.230469 22.464844 12.53125 26.21875C13.34375 20.71875 14.816406 17.683594 14.875 17.5625C14.992188 17.421875 18.632813 13 25 13 Z M 21 22.5625L21 24L29 24L29 22.5625C32.863281 23.710938 35.910156 26.496094 37.25 30L36 30L36 38L37.25 38C35.910156 41.503906 32.863281 44.289063 29 45.4375L29 44L21 44L21 45.4375C17.136719 44.289063 14.089844 41.503906 12.75 38L14 38L14 30L12.75 30C14.089844 26.496094 17.136719 23.710938 21 22.5625 Z M 18 25L17 26L17 27L16 27L16 28L17 28L17 31L15 31L15 32L17 32L17 36L15 36L15 37L17 37L17 40L16 40L16 41L17 41L17 42L18 43L18 41L22 41L22 43L23 43L23 41L27 41L27 43L28 43L28 41L32 41L32 43L33 42L33 41L34 41L34 40L33 40L33 37L35 37L35 36L33 36L33 32L35 32L35 31L33 31L33 28L34 28L34 27L33 27L33 26L32 25L32 27L28 27L28 25L27 25L27 27L23 27L23 25L22 25L22 27L18 27 Z M 18 28L22 28L22 31L18 31 Z M 23 28L27 28L27 31L23 31 Z M 28 28L32 28L32 31L28 31 Z M 18 32L22 32L22 36L18 36 Z M 23 32L27 32L27 36L23 36 Z M 28 32L32 32L32 36L28 36 Z M 18 37L22 37L22 40L18 40 Z M 23 37L27 37L27 40L23 40 Z M 28 37L32 37L32 40L28 40Z"/></svg>