<svg xmlns="http://www.w3.org/2000/svg" xmlns:xlink="http://www.w3.org/1999/xlink" viewBox="0 0 50 50"><path d="M25 3C24.5 3.800781 23.695313 4.300781 22.59375 4.5L13.59375 6.09375C12.492188 6.292969 11.800781 7.304688 12 8.40625C12.199219 9.304688 13.101563 10 14 10L14.40625 10L32.40625 6.8125C32.40625 5.613281 28.5 3.5 25 3 Z M 36 8.0625C35.867188 8.058594 35.730469 8.070313 35.59375 8.09375L13.59375 12.09375C12.492188 12.292969 11.800781 13.304688 12 14.40625C12.199219 15.304688 13.101563 16 14 16L14.3125 16L36.3125 12C37.414063 11.800781 38.105469 10.789063 37.90625 9.6875C37.730469 8.726563 36.929688 8.078125 36 8.0625 Z M 36 14.0625C35.867188 14.058594 35.730469 14.070313 35.59375 14.09375L13.59375 18.09375C12.492188 18.292969 11.800781 19.304688 12 20.40625C12.199219 21.304688 13.101563 22 14 22L14.3125 22L36.3125 18C37.414063 17.800781 38.105469 16.789063 37.90625 15.6875C37.730469 14.726563 36.929688 14.078125 36 14.0625 Z M 36 20.0625C35.867188 20.058594 35.730469 20.070313 35.59375 20.09375L13.59375 24.09375C12.492188 24.292969 11.800781 25.304688 12 26.40625C12.199219 27.304688 13.101563 28 14 28L14.3125 28L17 27.5L17 29L22 29L22 26.59375L36.3125 24C37.414063 23.800781 38.105469 22.789063 37.90625 21.6875C37.730469 20.726563 36.929688 20.078125 36 20.0625 Z M 33 26.59375L28 27.5L28 29L33 29 Z M 15 31C14.398438 31 14 31.398438 14 32L14 33.09375C14 36.09375 15.695313 38.699219 18.09375 40L31.90625 40C34.304688 38.601563 36 35.992188 36 33.09375L36 32C36 31.398438 35.601563 31 35 31 Z M 19 42L19 43C19 44.699219 20.300781 46 22 46L24 48L26 48L28 46C29.699219 46 31 44.699219 31 43L31 42Z"/></svg>