<svg xmlns="http://www.w3.org/2000/svg" xmlns:xlink="http://www.w3.org/1999/xlink" viewBox="0 0 50 50"><path d="M24.8125 3C24.589844 3.046875 24.394531 3.167969 24.25 3.34375C24.25 3.34375 22.675781 5 21.15625 5.21875C19.441406 5.464844 14.78125 6.3125 14.78125 6.3125C12.96875 6.617188 11.738281 8.339844 12.03125 10.15625C12.152344 10.914063 12.539063 11.617188 13.0625 12.15625C12.265625 12.894531 11.84375 14.003906 12.03125 15.15625C12.15625 15.921875 12.53125 16.621094 13.0625 17.15625C12.265625 17.894531 11.84375 19.003906 12.03125 20.15625C12.152344 20.914063 12.539063 21.589844 13.0625 22.125C12.265625 22.871094 11.84375 24.003906 12.03125 25.15625C12.328125 26.980469 14.085938 28.273438 15.90625 27.96875L17 27.78125L17 30L15 30C14.96875 30 14.9375 30 14.90625 30C14.390625 30.046875 13.996094 30.480469 14 31L14 33.0625C14 36.398438 16.074219 39.265625 19 40.4375L19 43C19 44.644531 20.355469 46 22 46L24 48L26 48L28 46C29.644531 46 31 44.644531 31 43L31 40.4375C33.925781 39.265625 36 36.398438 36 33.0625L36 31C36 30.449219 35.550781 30 35 30L33 30L33 25.0625L35.21875 24.6875C37.03125 24.382813 38.261719 22.660156 37.96875 20.84375C37.847656 20.105469 37.472656 19.460938 36.96875 18.96875C37.761719 18.179688 38.15625 17.003906 37.96875 15.84375C37.851563 15.113281 37.496094 14.460938 37 13.96875C37.773438 13.171875 38.152344 11.988281 37.96875 10.84375C37.671875 9.019531 35.914063 7.726563 34.09375 8.03125L32.96875 8.21875C32.976563 8.148438 33 8.074219 33 8C33 6.910156 32.277344 6.109375 31.5 5.53125C30.722656 4.953125 29.796875 4.519531 28.875 4.15625C27.03125 3.429688 25.21875 3.03125 25.21875 3.03125C25.117188 3.003906 25.011719 2.992188 24.90625 3C24.875 3 24.84375 3 24.8125 3 Z M 25.25 5.125C25.628906 5.214844 26.703125 5.441406 28.125 6C28.953125 6.324219 29.777344 6.726563 30.3125 7.125C30.847656 7.523438 31 7.855469 31 8C31 8.269531 30.90625 8.332031 30.71875 8.46875C30.53125 8.605469 30.34375 8.65625 30.34375 8.65625C30.3125 8.664063 30.28125 8.675781 30.25 8.6875L15.71875 11.15625L15.59375 11.15625C15.582031 11.15625 15.574219 11.15625 15.5625 11.15625C14.917969 11.265625 14.15625 10.625 14.03125 9.84375C13.90625 9.078125 14.390625 8.40625 15.125 8.28125C15.125 8.28125 19.84375 7.445313 21.4375 7.21875C23.480469 6.925781 24.703125 5.710938 25.25 5.125 Z M 34.71875 10C35.34375 10.019531 35.859375 10.484375 35.96875 11.15625C36.089844 11.90625 35.515625 12.828125 34.875 12.9375L34.34375 13.03125C34.261719 13.039063 34.175781 13.015625 34.09375 13.03125L15.78125 16.125C15.707031 16.128906 15.632813 16.136719 15.5625 16.15625C14.914063 16.265625 14.15625 15.625 14.03125 14.84375C13.90625 14.078125 14.390625 13.40625 15.125 13.28125L15.84375 13.15625L15.90625 13.15625C15.9375 13.148438 15.96875 13.136719 16 13.125L34.4375 10.03125C34.53125 10.015625 34.628906 9.996094 34.71875 10 Z M 34.71875 15C35.34375 15.019531 35.859375 15.484375 35.96875 16.15625C36.089844 16.90625 35.519531 17.796875 34.875 17.90625L34.125 18.03125C34.113281 18.03125 34.105469 18.03125 34.09375 18.03125L15.6875 21.125C15.675781 21.125 15.667969 21.125 15.65625 21.125L15.53125 21.15625C14.890625 21.242188 14.15625 20.613281 14.03125 19.84375C13.90625 19.078125 14.390625 18.40625 15.125 18.28125L34.28125 15.0625C34.3125 15.054688 34.34375 15.042969 34.375 15.03125L34.4375 15.03125C34.53125 15.015625 34.628906 14.996094 34.71875 15 Z M 34.71875 20C35.34375 20.019531 35.859375 20.484375 35.96875 21.15625C36.09375 21.921875 35.613281 22.59375 34.875 22.71875L21.84375 24.9375L21 25.0625L21 30L19 30L19 25.40625L17.84375 25.59375L15.5625 25.96875C14.824219 26.09375 14.15625 25.613281 14.03125 24.84375C13.90625 24.078125 14.386719 23.40625 15.125 23.28125L34.4375 20.03125C34.53125 20.015625 34.628906 19.996094 34.71875 20 Z M 31 25.40625L31 30L29 30L29 25.75 Z M 27 26.0625L27 30L23 30L23 26.75 Z M 16 32L34 32L34 33.0625C34 36.355469 31.355469 39 28.0625 39L21.9375 39C18.644531 39 16 36.355469 16 33.0625 Z M 21 41L29 41L29 43C29 43.566406 28.566406 44 28 44L22 44C21.433594 44 21 43.566406 21 43Z"/></svg>