<svg xmlns="http://www.w3.org/2000/svg" xmlns:xlink="http://www.w3.org/1999/xlink" viewBox="0 0 50 50"><path d="M4.46875 -0.03125C3.886719 -0.03125 3.367188 0.148438 2.9375 0.46875L1.1875 1.6875C-0.113281 2.664063 -0.417969 4.382813 0.46875 5.5625L2.21875 8.0625C2.226563 8.050781 2.210938 8.011719 2.21875 8C2.253906 7.921875 2.320313 7.828125 2.40625 7.71875C2.488281 7.609375 2.578125 7.507813 2.65625 7.4375C2.699219 7.386719 2.769531 7.324219 2.875 7.25L7.5625 4.0625C7.691406 3.976563 7.832031 3.933594 7.90625 3.90625C7.996094 3.863281 8.078125 3.8125 8.1875 3.78125C8.335938 3.742188 8.457031 3.722656 8.5625 3.71875C8.566406 3.71875 8.589844 3.71875 8.59375 3.71875L6.90625 1.1875C6.34375 0.4375 5.398438 -0.03125 4.46875 -0.03125 Z M 8.65625 4.71875C8.578125 4.722656 8.511719 4.730469 8.4375 4.75C8.382813 4.765625 8.332031 4.789063 8.28125 4.8125C8.230469 4.835938 8.171875 4.84375 8.125 4.875L7.09375 5.59375C7.0625 5.613281 7.03125 5.632813 7 5.65625L4.46875 7.375C4.4375 7.394531 4.40625 7.414063 4.375 7.4375L3.4375 8.0625C3.402344 8.085938 3.375 8.128906 3.34375 8.15625C3.289063 8.203125 3.261719 8.253906 3.21875 8.3125C3.175781 8.367188 3.121094 8.40625 3.09375 8.46875C3.074219 8.507813 3.078125 8.550781 3.0625 8.59375L2.0625 11.6875C1.894531 12.214844 2.160156 12.765625 2.6875 12.9375C2.789063 12.96875 2.898438 13 3 13C3.421875 13 3.800781 12.734375 3.9375 12.3125L4.625 10.1875L5.28125 11.6875C5.398438 11.957031 5.628906 12.164063 5.914063 12.25C6.195313 12.332031 6.503906 12.289063 6.75 12.125L10.5625 9.625C10.816406 9.453125 10.976563 9.179688 11.003906 8.875C11.027344 8.570313 10.910156 8.269531 10.6875 8.0625L9.3125 6.75L11.90625 7C11.9375 7.003906 11.96875 7 12 7C12.511719 7 12.953125 6.613281 13 6.09375C13.050781 5.542969 12.644531 5.050781 12.09375 5L8.78125 4.71875C8.738281 4.714844 8.699219 4.714844 8.65625 4.71875 Z M 7.46875 7.75L8.40625 8.65625L6.65625 9.8125L6.125 8.65625 Z M 12.6875 11.375C12.625 11.378906 12.5625 11.390625 12.5 11.40625C12.121094 11.484375 11.824219 11.769531 11.730469 12.144531C11.636719 12.515625 11.765625 12.910156 12.0625 13.15625L42.59375 39.03125C39.609375 38.355469 36.058594 38 32.5 38C25.847656 38 19.132813 39.203125 16.34375 41.53125L8.75 15.03125C8.628906 14.554688 8.179688 14.234375 7.6875 14.28125C7.394531 14.316406 7.128906 14.476563 6.964844 14.726563C6.804688 14.972656 6.757813 15.277344 6.84375 15.5625L15.03125 44.28125C15.429688 48.042969 24.007813 50 32.5 50C41.195313 50 50 47.9375 50 44C50 43.304688 49.6875 42.671875 49.1875 42.09375C49.167969 42.050781 49.148438 42.007813 49.125 41.96875C49.105469 41.949219 49.082031 41.925781 49.0625 41.90625C49.015625 41.859375 48.960938 41.816406 48.90625 41.78125C48.699219 41.582031 48.476563 41.402344 48.21875 41.21875L13.34375 11.625C13.164063 11.464844 12.929688 11.375 12.6875 11.375Z"/></svg>