<svg xmlns="http://www.w3.org/2000/svg" xmlns:xlink="http://www.w3.org/1999/xlink" viewBox="0 0 50 50"><path d="M25 2C19.09375 2 14.199219 6.28125 14.03125 11.71875C14.03125 11.742188 14 11.757813 14 11.78125C13.992188 11.855469 13.992188 11.925781 14 12C14 19.625 16.25 23.90625 16.25 23.90625C16.285156 23.960938 16.328125 24.015625 16.375 24.0625C16.375 24.0625 19.554688 28 25 28C30.445313 28 33.625 24.0625 33.625 24.0625C33.671875 24.015625 33.714844 23.960938 33.75 23.90625C33.75 23.90625 36 19.625 36 12C36 11.96875 36 11.9375 36 11.90625C36 11.894531 36 11.886719 36 11.875C36 11.820313 35.96875 11.773438 35.96875 11.71875C35.800781 6.28125 30.90625 2 25 2 Z M 25 4C29.976563 4 33.90625 7.542969 34 11.84375C33.996094 11.894531 33.996094 11.949219 34 12C34 12.273438 34 12.546875 33.96875 12.8125C33.515625 16.8125 29.722656 20 25 20C20.277344 20 16.484375 16.8125 16.03125 12.8125C16 12.546875 16 12.273438 16 12C16.007813 11.9375 16.007813 11.875 16 11.8125C16.113281 7.527344 20.035156 4 25 4 Z M 25 9.8125C22.304688 9.8125 20 11.816406 20 14.40625C20 16.996094 22.304688 19 25 19C27.695313 19 30 16.996094 30 14.40625C30 11.816406 27.695313 9.8125 25 9.8125 Z M 25 11.8125C26.722656 11.8125 28 13.019531 28 14.40625C28 15.792969 26.722656 17 25 17C23.277344 17 22 15.792969 22 14.40625C22 13.019531 23.277344 11.8125 25 11.8125 Z M 5.8125 15C5.335938 15.089844 4.992188 15.511719 5 16L5 34C4.996094 34.449219 5.289063 34.84375 5.71875 34.96875L18.71875 38.96875C18.808594 38.992188 18.90625 39.003906 19 39L21.5625 39C21.300781 39.453125 21.128906 39.957031 21.0625 40.5L9.875 42C9.371094 42.0625 8.996094 42.492188 9 43L9 47C9 47.550781 9.449219 48 10 48L40 48C40.550781 48 41 47.550781 41 47L41 43C41.003906 42.492188 40.628906 42.0625 40.125 42L28.9375 40.5C28.871094 39.957031 28.699219 39.453125 28.4375 39L31 39C31.09375 39.003906 31.191406 38.992188 31.28125 38.96875L44.28125 34.96875C44.710938 34.84375 45.003906 34.449219 45 34L45 16C45 15.449219 44.550781 15 44 15L37.5 15C37.5 15.664063 37.25 17 37.25 17L39 17L39 28.3125L29.78125 32L20.21875 32L11 28.3125L11 17L12.75 17C12.75 17 12.5 15.664063 12.5 15L6 15C5.96875 15 5.9375 15 5.90625 15C5.875 15 5.84375 15 5.8125 15 Z M 7 17L9 17L9 29C8.996094 29.410156 9.242188 29.785156 9.625 29.9375L19.625 33.9375C19.746094 33.980469 19.871094 34.003906 20 34L30 34C30.128906 34.003906 30.253906 33.980469 30.375 33.9375L40.375 29.9375C40.757813 29.785156 41.003906 29.410156 41 29L41 17L43 17L43 33.25L30.8125 37L19.1875 37L7 33.25 Z M 16.59375 18.4375C18.621094 20.617188 21.652344 22 25 22C28.347656 22 31.378906 20.617188 33.40625 18.4375C32.828125 21.34375 32.03125 22.851563 32 22.90625C31.863281 23.070313 29.363281 26 25 26C20.636719 26 18.136719 23.070313 18 22.90625C17.96875 22.851563 17.171875 21.34375 16.59375 18.4375 Z M 25 42.03125L39 43.875L39 46L11 46L11 43.875Z"/></svg>