<svg xmlns="http://www.w3.org/2000/svg" xmlns:xlink="http://www.w3.org/1999/xlink" viewBox="0 0 50 50"><path d="M25 2C18.898438 2 14 6.5 14 12C14 19.601563 16.210938 23.707031 16.3125 23.90625C16.3125 24.007813 16.40625 23.992188 16.40625 24.09375C16.507813 24.292969 19.699219 28 25 28C30.300781 28 33.492188 24.195313 33.59375 24.09375C33.59375 24.09375 33.6875 24.007813 33.6875 23.90625C33.789063 23.707031 36 19.601563 36 12C36 6.5 31.101563 2 25 2 Z M 25 4C30 4 34 7.601563 34 12C34 16.398438 30 20 25 20C20 20 16 16.398438 16 12C16 7.601563 20 4 25 4 Z M 25 9.8125C22.304688 9.8125 20 11.816406 20 14.40625C20 16.996094 22.304688 19 25 19C27.695313 19 30 16.996094 30 14.40625C30 11.816406 27.695313 9.8125 25 9.8125 Z M 25 11.8125C26.722656 11.8125 28 13.019531 28 14.40625C28 15.792969 26.722656 17 25 17C23.277344 17 22 15.792969 22 14.40625C22 13.019531 23.277344 11.8125 25 11.8125 Z M 6 15C5.398438 15 5 15.398438 5 16L5 34C5 34.398438 5.289063 34.800781 5.6875 35L18.6875 39L22.40625 39C21.679688 39.632813 21.1875 40.5 21.0625 41.5L9.90625 43C9.40625 43.101563 9 43.5 9 44L9 47C9 47.601563 9.398438 48 10 48L40 48C40.601563 48 40.992188 47.601563 41.09375 47L41.09375 44C41.09375 43.5 40.6875 43.101563 40.1875 43L28.9375 41.5C28.8125 40.5 28.320313 39.632813 27.59375 39L31.3125 39L44.3125 35C44.710938 34.898438 45 34.5 45 34L45 16C45 15.398438 44.601563 15 44 15L37.5 15C37.5 15.699219 37.3125 17 37.3125 17L40 17L40 29.3125L29.8125 33L20.1875 33L10 29.3125L10 17L12.6875 17C12.6875 17 12.5 15.699219 12.5 15Z"/></svg>