<?xml version="1.0" encoding="iso-8859-1"?>
<!-- Generator: Adobe Illustrator 19.0.0, SVG Export Plug-In . SVG Version: 6.00 Build 0)  -->
<svg version="1.1" id="Capa_1" xmlns="http://www.w3.org/2000/svg" xmlns:xlink="http://www.w3.org/1999/xlink" x="0px" y="0px"
	 viewBox="0 0 384 384" style="enable-background:new 0 0 384 384;" xml:space="preserve">
<g>
	<g>
		<path d="M264,0H120C89.12,0,64,25.12,64,56v48c0,8.832,7.168,16,16,16h48v40c0,8.832,7.168,16,16,16h32v176h-32
			c-8.832,0-16,7.168-16,16c0,8.832,7.168,16,16,16h96c8.832,0,16-7.168,16-16c0-8.832-7.168-16-16-16h-32V176h32
			c8.832,0,16-7.168,16-16v-40h48c8.832,0,16-7.168,16-16V56C320,25.12,294.88,0,264,0z M224,144h-64v-24h64V144z M288,88h-48h-96
			H96V56c0-13.232,10.768-24,24-24h144c13.232,0,24,10.768,24,24V88z"/>
	</g>
</g>
<g>
</g>
<g>
</g>
<g>
</g>
<g>
</g>
<g>
</g>
<g>
</g>
<g>
</g>
<g>
</g>
<g>
</g>
<g>
</g>
<g>
</g>
<g>
</g>
<g>
</g>
<g>
</g>
<g>
</g>
</svg>
