<svg xmlns="http://www.w3.org/2000/svg" xmlns:xlink="http://www.w3.org/1999/xlink" viewBox="0 0 50 50"><path d="M11.113281 2L11.007813 2.882813L7.875 29L23 29C23 29.714844 23.382813 30.375 24 30.730469L24 32.269531C23.382813 32.628906 23 33.285156 23 34C23 34.714844 23.382813 35.375 24 35.730469L24 43L18 43C15.800781 43 14 44.800781 14 47L14 48L36 48L36 47C36 44.800781 34.199219 43 32 43L26 43L26 35.730469C26.617188 35.371094 27 34.714844 27 34C27 33.285156 26.617188 32.625 26 32.269531L26 30.730469C26.617188 30.371094 27 29.714844 27 29L42.125 29L38.886719 2 Z M 12.886719 4L37.113281 4L39.875 27L25.15625 27C25.097656 26.992188 25.042969 26.984375 24.984375 26.984375C24.9375 26.988281 24.886719 26.992188 24.839844 27L10.125 27 Z M 18 45L24.832031 45C24.941406 45.019531 25.050781 45.019531 25.15625 45L32 45C32.722656 45 33.238281 45.4375 33.589844 46L16.410156 46C16.761719 45.4375 17.277344 45 18 45Z"/></svg>