<svg xmlns="http://www.w3.org/2000/svg" xmlns:xlink="http://www.w3.org/1999/xlink" viewBox="0 0 50 50"><path d="M11.113281 2L7.875 29L23 29C23 29.714844 23.382813 30.375 24 30.730469L24 32.269531C23.382813 32.628906 23 33.285156 23 34C23 34.714844 23.382813 35.375 24 35.730469L24 43L18 43C15.792969 43 14 44.792969 14 47L14 48L36 48L36 47C36 44.792969 34.207031 43 32 43L26 43L26 35.730469C26.617188 35.371094 27 34.714844 27 34C27 33.285156 26.617188 32.625 26 32.269531L26 30.730469C26.617188 30.371094 27 29.714844 27 29L42.125 29L38.886719 2Z"/></svg>