<svg xmlns="http://www.w3.org/2000/svg" xmlns:xlink="http://www.w3.org/1999/xlink" viewBox="0 0 24 24"><path d="M6.953125 2C6.438125 2 6.0079844 2.3912969 5.9589844 2.9042969L5.0058594 12.904297C4.9498594 13.491297 5.411 14 6 14L11 14L11 16 A 1.0001 1.0001 0 1 0 11 18L11 20L9 20 A 1.0001 1.0001 0 1 0 9 22L15 22 A 1.0001 1.0001 0 1 0 15 20L13 20L13 18 A 1.0001 1.0001 0 1 0 13 16L13 14L18 14C18.592 14 19.053141 13.489391 18.994141 12.900391L17.994141 2.9003906C17.943141 2.3893906 17.514 2 17 2L6.953125 2 z"/></svg>