<svg xmlns="http://www.w3.org/2000/svg" xmlns:xlink="http://www.w3.org/1999/xlink" viewBox="0 0 50 50"><path d="M1 3C0.449219 3 0 3.449219 0 4L0 30C0 30.554688 0.449219 31 1 31L7 31C7.550781 31 8 30.554688 8 30L8 4C8 3.449219 7.550781 3 7 3 Z M 23.78125 4.96875C19.851563 4.980469 16.386719 7.355469 14.96875 11.0625C14.125 13.382813 12.234375 15.082031 10 15.71875L10 17.78125C13.078125 17.109375 15.714844 14.855469 16.84375 11.75C18.03125 8.644531 21.074219 6.75 24.40625 7C28.101563 7.34375 31 10.671875 31 14.59375L31 20L33 20L33 14.59375C33 9.652344 29.292969 5.441406 24.5625 5C24.296875 4.980469 24.042969 4.96875 23.78125 4.96875 Z M 27 21C26.445313 21 26 21.449219 26 22L26 27L38 27L38 22C38 21.449219 37.554688 21 37 21 Z M 23.96875 29L14.40625 36.1875C14.152344 36.378906 14 36.683594 14 37L14 40C14 40.558594 14.441406 41 15 41L49 41C49.558594 41 50 40.558594 50 40L50 37C50 36.683594 49.847656 36.378906 49.59375 36.1875L40.03125 29 Z M 28.0625 43.0625C28.976563 44.234375 30.402344 45 32 45C33.597656 45 35.023438 44.234375 35.9375 43.0625Z"/></svg>