<svg xmlns="http://www.w3.org/2000/svg" xmlns:xlink="http://www.w3.org/1999/xlink" viewBox="0 0 50 50"><path d="M0.8125 3C0.335938 3.089844 -0.0078125 3.511719 0 4L0 30C0 30.550781 0.449219 31 1 31L7 31C7.550781 31 8 30.550781 8 30L8 18L8.09375 18C12.03125 18 15.503906 15.429688 16.84375 11.75C17.984375 8.761719 20.953125 6.75 24.40625 7C24.417969 7 24.425781 7 24.4375 7C28.171875 7.363281 31 10.800781 31 14.59375L31 20L33 20L33 14.59375C33 9.796875 29.445313 5.453125 24.59375 5C24.582031 5 24.574219 5 24.5625 5C20.226563 4.667969 16.421875 7.226563 14.96875 11.03125C14.96875 11.042969 14.96875 11.050781 14.96875 11.0625C13.90625 13.984375 11.15625 16 8.09375 16L8 16L8 4C8 3.449219 7.550781 3 7 3L1 3C0.96875 3 0.9375 3 0.90625 3C0.875 3 0.84375 3 0.8125 3 Z M 2 5L6 5L6 29L2 29 Z M 26.8125 21C26.335938 21.089844 25.992188 21.511719 26 22L26 27.5L14.40625 36.1875C14.148438 36.378906 14 36.679688 14 37L14 40C14.003906 40.550781 14.449219 40.996094 15 41L27.09375 41C27.5625 43.269531 29.597656 45 32 45C34.402344 45 36.4375 43.269531 36.90625 41L49 41C49.550781 40.996094 49.996094 40.550781 50 40L50 37C50 36.679688 49.851563 36.378906 49.59375 36.1875L38 27.5L38 22C38 21.449219 37.550781 21 37 21L27 21C26.96875 21 26.9375 21 26.90625 21C26.875 21 26.84375 21 26.8125 21 Z M 28 23L36 23L36 27L28 27 Z M 27.34375 29L36.65625 29L48 37.5L48 39L16 39L16 37.5 Z M 29.1875 41L34.8125 41C34.394531 42.15625 33.300781 43 32 43C30.699219 43 29.605469 42.15625 29.1875 41Z"/></svg>