<svg xmlns="http://www.w3.org/2000/svg" xmlns:xlink="http://www.w3.org/1999/xlink" viewBox="0 0 50 50"><path d="M25 2C20.597656 2 16.496094 3.25 13 5.394531L13 5C13 3.347656 11.652344 2 10 2C8.347656 2 7 3.347656 7 5L7 11.035156L6 12.039063C3.476563 15.730469 2 20.191406 2 25C2 37.703125 12.296875 48 25 48C37.703125 48 48 37.703125 48 25C48 12.296875 37.703125 2 25 2 Z M 9 24C9.550781 24 10 24.449219 10 25C10 25.554688 9.550781 26 9 26C8.449219 26 8 25.554688 8 25C8 24.449219 8.449219 24 9 24 Z M 25 46C13.421875 46 4 36.578125 4 25C4 21.65625 4.804688 18.328125 6.332031 15.375L8.109375 16.292969C6.710938 19 6 21.929688 6 25C6 35.476563 14.523438 44 25 44C35.476563 44 44 35.476563 44 25C44 14.523438 35.476563 6 25 6C20.21875 6 15.671875 7.808594 12.1875 11L17 11C17.550781 11 18 11.449219 18 12C18 12.550781 17.550781 13 17 13L9 13L9 5C9 4.449219 9.449219 4 10 4C10.550781 4 11 4.449219 11 5L11 9.386719C14.832031 5.949219 19.789063 4 25 4C36.578125 4 46 13.421875 46 25C46 36.578125 36.578125 46 25 46 Z M 10.613281 32.070313C11.09375 31.796875 11.703125 31.964844 11.976563 32.441406C12.25 32.921875 12.085938 33.53125 11.605469 33.804688C11.125 34.078125 10.515625 33.914063 10.238281 33.433594C9.964844 32.953125 10.132813 32.34375 10.613281 32.070313 Z M 16.058594 38.304688C16.339844 37.828125 16.949219 37.667969 17.425781 37.949219C17.902344 38.226563 18.0625 38.839844 17.785156 39.316406C17.507813 39.792969 16.894531 39.953125 16.417969 39.675781C15.941406 39.394531 15.78125 38.78125 16.058594 38.304688 Z M 25.082031 17.25L27.261719 17.25L27.261719 31.339844L25.074219 31.339844L25.074219 19.601563L24.90625 19.601563L21.371094 22.101563L21.371094 19.867188 Z M 24 9C24 8.449219 24.449219 8 25 8C25.554688 8 26 8.449219 26 9C26 9.550781 25.554688 10 25 10C24.449219 10 24 9.550781 24 9 Z M 26 41C26 41.554688 25.554688 42 25 42C24.449219 42 24 41.554688 24 41C24 40.445313 24.449219 40 25 40C25.554688 40 26 40.445313 26 41 Z M 32.394531 38.050781C32.875 37.777344 33.488281 37.945313 33.757813 38.425781C34.03125 38.90625 33.863281 39.519531 33.382813 39.789063C32.902344 40.0625 32.289063 39.894531 32.019531 39.414063C31.746094 38.933594 31.914063 38.320313 32.394531 38.050781 Z M 32.214844 10.683594C32.492188 10.207031 33.105469 10.046875 33.582031 10.324219C34.0625 10.605469 34.21875 11.21875 33.941406 11.695313C33.660156 12.171875 33.050781 12.332031 32.574219 12.050781C32.097656 11.773438 31.9375 11.160156 32.214844 10.683594 Z M 37.949219 32.574219C38.226563 32.097656 38.839844 31.9375 39.316406 32.214844C39.792969 32.492188 39.953125 33.105469 39.671875 33.582031C39.394531 34.0625 38.78125 34.21875 38.304688 33.941406C37.828125 33.660156 37.667969 33.050781 37.949219 32.574219 Z M 38.394531 16.191406C38.875 15.917969 39.488281 16.085938 39.761719 16.566406C40.035156 17.046875 39.867188 17.65625 39.386719 17.929688C38.910156 18.203125 38.296875 18.035156 38.023438 17.558594C37.75 17.078125 37.914063 16.46875 38.394531 16.191406 Z M 40 25C40 24.449219 40.445313 24 41 24C41.554688 24 42 24.449219 42 25C42 25.554688 41.554688 26 41 26C40.445313 26 40 25.554688 40 25Z"/></svg>