<svg xmlns="http://www.w3.org/2000/svg" xmlns:xlink="http://www.w3.org/1999/xlink" viewBox="0 0 48 48"><path d="M24 4C12.972292 4 4 12.972292 4 24C4 35.027708 12.972292 44 24 44C35.027708 44 44 35.027708 44 24C44 23.829342 43.998541 23.658332 43.994141 23.488281 A 1.5004834 1.5004834 0 0 0 40.994141 23.564453C40.997849 23.708404 41 23.854658 41 24C41 33.406292 33.406292 41 24 41C14.593708 41 7 33.406292 7 24C7 14.593708 14.593708 7 24 7C29.380908 7 34.158525 9.4960454 37.271484 13.384766L35.964844 13.154297 A 1.5003693 1.5003693 0 0 0 35.443359 16.109375L40.367188 16.976562 A 1.50015 1.50015 0 0 0 42.105469 15.759766L42.972656 10.835938 A 1.50015 1.50015 0 0 0 41.439453 9.0566406 A 1.50015 1.50015 0 0 0 40.019531 10.316406L39.771484 11.720703C36.109299 7.0253275 30.404348 4 24 4 z M 29.5 17C27.019 17 25 19.019 25 21.5L25 26.5C25 28.981 27.019 31 29.5 31C31.981 31 34 28.981 34 26.5L34 21.5C34 19.019 31.981 17 29.5 17 z M 18.761719 17.029297C16.927997 17.029297 15.336391 17.735862 14.34375 18.919922 A 1.250125 1.250125 0 1 0 16.259766 20.525391C16.719124 19.97745 17.563441 19.529297 18.761719 19.529297C19.251105 19.529297 19.754035 19.679228 20.0625 19.921875C20.370965 20.164522 20.580078 20.448797 20.580078 21.175781C20.580078 21.921488 20.018539 22.714107 18.603516 22.755859C18.575316 22.755554 18.549744 22.746094 18.521484 22.746094 A 1.250125 1.250125 0 0 0 17.271484 23.996094L17.271484 24.033203 A 1.250125 1.250125 0 0 0 18.521484 25.283203C18.551074 25.283203 18.574106 25.268068 18.603516 25.267578C19.381606 25.285128 20.048363 25.475328 20.431641 25.75C20.832109 26.036991 21.003906 26.310502 21.003906 26.853516C21.003906 27.572166 20.812445 27.823976 20.462891 28.074219C20.113336 28.324462 19.491209 28.501953 18.763672 28.501953C17.761514 28.501953 16.512475 27.870893 16.265625 27.519531 A 1.250125 1.250125 0 1 0 14.220703 28.957031C15.239853 30.407669 17.019829 31.001953 18.763672 31.001953C19.856135 31.001953 20.977523 30.778726 21.917969 30.105469C22.858415 29.432212 23.503906 28.234865 23.503906 26.853516C23.503906 25.59514 22.863853 24.490868 21.960938 23.802734C22.640791 23.074229 23.080078 22.163548 23.080078 21.175781C23.080078 19.802765 22.47491 18.637884 21.609375 17.957031C20.74384 17.276178 19.712332 17.029297 18.761719 17.029297 z M 29.5 19.5C30.603 19.5 31.5 20.397 31.5 21.5L31.5 26.5C31.5 27.603 30.603 28.5 29.5 28.5C28.397 28.5 27.5 27.603 27.5 26.5L27.5 21.5C27.5 20.398 28.397 19.5 29.5 19.5 z"/></svg>