<svg xmlns="http://www.w3.org/2000/svg" xmlns:xlink="http://www.w3.org/1999/xlink" viewBox="0 0 50 50"><path d="M25 2C12.317 2 2 12.318 2 25C2 37.682 12.317 48 25 48C37.683 48 48 37.682 48 25C48 20.88 46.905 17.012063 45 13.664062L45 6C45 4.343 43.657 3 42 3C40.343 3 39 4.343 39 6L39 6.7695312C35.119 3.7815313 30.265 2 25 2 z M 25 4C31.218 4 37.032 6.7264375 41 11.398438L41 6C41 5.448 41.447 5 42 5C42.553 5 43 5.448 43 6L43 15L34 15C33.447 15 33 14.552 33 14C33 13.448 33.447 13 34 13L39.722656 13C36.128656 8.589 30.758 6 25 6C14.523 6 6 14.523 6 25C6 35.477 14.523 44 25 44C35.477 44 44 35.477 44 25C44 24.448 44.447 24 45 24C45.553 24 46 24.448 46 25C46 36.58 36.579 46 25 46C13.421 46 4 36.58 4 25C4 13.42 13.421 4 25 4 z M 18 17L20 17L20 33L18 33L18 22L13.96875 21.996094L13.96875 20.046875C17.21075 19.931875 17.968 19 18 17 z M 29.5 17C34.639 17 35 21.705969 35 25.042969C35 28.208969 34.64 33 29.5 33C23.82 33 24.001953 27.523969 24.001953 25.042969C24.000953 21.705969 24.27 17 29.5 17 z M 29.5 19C27.59 19 26.968328 19.806703 26.611328 20.595703C26.074328 21.782703 26.000953 23.433969 26.001953 25.042969L26.001953 25.269531C25.998953 26.705531 25.992281 29.109422 27.113281 30.232422C27.629281 30.749422 28.41 31 29.5 31C31.716 31 33 30.024969 33 25.042969C33 19.988969 31.717 19 29.5 19 z"/></svg>