<svg xmlns="http://www.w3.org/2000/svg" xmlns:xlink="http://www.w3.org/1999/xlink" viewBox="0 0 48 48"><path d="M24 4C12.972292 4 4 12.972292 4 24C4 35.027708 12.972292 44 24 44C35.027708 44 44 35.027708 44 24C44 23.829342 43.998541 23.658332 43.994141 23.488281 A 1.5004834 1.5004834 0 0 0 40.994141 23.564453C40.997849 23.708404 41 23.854658 41 24C41 33.406292 33.406292 41 24 41C14.593708 41 7 33.406292 7 24C7 14.593708 14.593708 7 24 7C29.380908 7 34.158525 9.4960454 37.271484 13.384766L35.964844 13.154297 A 1.5003693 1.5003693 0 0 0 35.443359 16.109375L40.367188 16.976562 A 1.50015 1.50015 0 0 0 42.105469 15.759766L42.972656 10.835938 A 1.50015 1.50015 0 0 0 41.439453 9.0566406 A 1.50015 1.50015 0 0 0 40.019531 10.316406L39.771484 11.720703C36.109299 7.0253275 30.404348 4 24 4 z M 21.701172 17.001953 A 1.250125 1.250125 0 0 0 20.46875 18.035156L19.636719 22.794922 A 1.250125 1.250125 0 0 0 20.869141 24.261719L24.363281 24.261719C25.528491 24.261719 26.455078 25.188305 26.455078 26.353516C26.455078 27.078286 26.236351 27.533935 25.875 27.869141C25.513649 28.204346 24.946329 28.445313 24.101562 28.445312C22.350236 28.445312 21.143493 27.622835 21.109375 27.597656 A 1.250125 1.250125 0 1 0 19.625 29.609375C20.048882 29.922196 21.62289 30.945312 24.101562 30.945312C25.445797 30.945312 26.68132 30.529466 27.574219 29.701172C28.467118 28.872878 28.955078 27.658746 28.955078 26.353516C28.955078 23.832726 26.884071 21.761719 24.363281 21.761719L22.355469 21.761719L22.751953 19.501953L27.300781 19.501953 A 1.250125 1.250125 0 1 0 27.300781 17.001953L21.701172 17.001953 z"/></svg>