<svg xmlns="http://www.w3.org/2000/svg" xmlns:xlink="http://www.w3.org/1999/xlink" viewBox="0 0 50 50"><path d="M43,12.358C43,9.764,43,6.047,43,5c0-1.657-1.343-3-3-3s-3,1.343-3,3c0,0.153,0,0.776,0,1.565C33.548,4.313,29.429,3,25,3 C12.85,3,3,12.85,3,25s9.85,22,22,22s22-9.85,22-22C47,20.293,45.517,15.936,43,12.358z M25,44.974c-11.028,0-20-8.972-20-20 s8.972-20,20-20c5.28,0,10.289,2.075,14,5.737V5c0-0.553,0.448-1,1-1s1,0.447,1,1v9h-9c-0.552,0-1-0.447-1-1s0.448-1,1-1h5.453 C34.129,8.792,29.685,6.974,25,6.974c-9.925,0-18,8.075-18,18s8.075,18,18,18s18-8.075,18-18c0-0.553,0.448-1,1-1s1,0.447,1,1 C45,36.002,36.028,44.974,25,44.974z M25,23.857c-1.6,0-2.6,0.994-2.9,1.491l-1.6-0.099L22,17h8v1.888h-6.7l-0.9,4.571l0.1,0.099 c0.3-0.398,1.1-1.093,2.9-1.093c4.8,0,5.2,4.571,5.2,5.366c0,4.273-3.7,5.168-5.5,5.168c-4.2,0-5.1-3.279-5.1-4.571h1.8 c0,1.888,1.9,2.783,3.4,2.783c3.2,0,3.4-3.081,3.4-3.776C28.6,24.255,25.8,23.857,25,23.857z"/></svg>