<svg xmlns="http://www.w3.org/2000/svg" xmlns:xlink="http://www.w3.org/1999/xlink" viewBox="0 0 32 32"><path d="M18 1.4882812L18 4.0234375L16 4.0234375C9.3845336 4.0234375 4 9.4079706 4 16.023438C4 22.638903 9.3845336 28.023437 16 28.023438C22.615466 28.023438 28 22.638903 28 16.023438C28 12.160438 26.158453 8.72825 23.314453 6.53125L21.785156 7.8828125C24.330156 9.6968125 26 12.666438 26 16.023438C26 21.55797 21.534534 26.023437 16 26.023438C10.465466 26.023438 6 21.55797 6 16.023438C6 10.488904 10.465466 6.0234375 16 6.0234375L18 6.0234375L18 8.5585938L22 5.0234375L18 1.4882812 z M 12 11C10.354545 11 9 12.354545 9 14L11 14C11 13.445455 11.445455 13 12 13C12.554545 13 13 13.445455 13 14C13 14.554545 12.554545 15 12 15L12 17C12.554545 17 13 17.500391 13 17.900391L13 18C13 18.554545 12.554545 19 12 19C11.445455 19 11 18.554545 11 18L9 18C9 19.645455 10.354545 21 12 21C13.645455 21 15 19.645455 15 18L15 17.900391C15 17.151483 14.658283 16.495377 14.173828 15.980469C14.657686 15.446958 15 14.76965 15 14C15 12.354545 13.645455 11 12 11 z M 20 11C18.354937 11 17 12.354937 17 14L17 18C17 19.645063 18.354937 21 20 21C21.645063 21 23 19.645063 23 18L23 14C23 12.354937 21.645063 11 20 11 z M 20 13C20.562937 13 21 13.437063 21 14L21 18C21 18.562937 20.562937 19 20 19C19.437063 19 19 18.562937 19 18L19 14C19 13.437063 19.437063 13 20 13 z"/></svg>