<svg xmlns="http://www.w3.org/2000/svg" xmlns:xlink="http://www.w3.org/1999/xlink" viewBox="0 0 80 80"><path d="M35 0L35.005859 7.3769531C30.992536 7.9915658 27.088489 9.3453581 23.46875 11.441406C15.84075 15.859406 10.389141 22.983 8.1191406 31.5C4.9751406 43.3 8.668 55.340391 16.75 63.400391C20.712 67.351391 25.727766 70.345719 31.509766 71.886719C40.026766 74.156719 48.918875 72.973687 56.546875 68.554688C64.173875 64.136688 69.624531 57.014094 71.894531 48.496094C75.125531 36.372094 71.137938 23.996359 62.585938 15.943359L61.164062 17.367188C61.395063 17.583188 61.632469 17.793625 61.855469 18.015625C69.447469 25.586625 72.915891 36.897469 69.962891 47.980469C67.830891 55.982469 62.708922 62.673219 55.544922 66.824219C48.377922 70.974219 40.026391 72.085125 32.025391 69.953125C15.506391 65.550125 5.6517344 48.531625 10.052734 32.015625C12.184734 24.013625 17.306703 17.322875 24.470703 13.171875C27.780266 11.255578 31.343811 9.9967959 35.007812 9.3984375L35.013672 16L47.023438 8L35 0 z M 29.677734 14.054688 A 1 1 0 0 0 28.677734 15.054688 A 1 1 0 0 0 29.677734 16.054688 A 1 1 0 0 0 30.677734 15.054688 A 1 1 0 0 0 29.677734 14.054688 z M 25.009766 16.550781 A 1 1 0 0 0 24.009766 17.550781 A 1 1 0 0 0 25.009766 18.550781 A 1 1 0 0 0 26.009766 17.550781 A 1 1 0 0 0 25.009766 16.550781 z M 20.916016 19.908203 A 1 1 0 0 0 19.916016 20.908203 A 1 1 0 0 0 20.916016 21.908203 A 1 1 0 0 0 21.916016 20.908203 A 1 1 0 0 0 20.916016 19.908203 z M 59.099609 19.908203 A 1 1 0 0 0 58.099609 20.908203 A 1 1 0 0 0 59.099609 21.908203 A 1 1 0 0 0 60.099609 20.908203 A 1 1 0 0 0 59.099609 19.908203 z M 17.560547 24 A 1 1 0 0 0 16.560547 25 A 1 1 0 0 0 17.560547 26 A 1 1 0 0 0 18.560547 25 A 1 1 0 0 0 17.560547 24 z M 62.455078 24 A 1 1 0 0 0 61.455078 25 A 1 1 0 0 0 62.455078 26 A 1 1 0 0 0 63.455078 25 A 1 1 0 0 0 62.455078 24 z M 15.064453 28.667969 A 1 1 0 0 0 14.064453 29.667969 A 1 1 0 0 0 15.064453 30.667969 A 1 1 0 0 0 16.064453 29.667969 A 1 1 0 0 0 15.064453 28.667969 z M 64.951172 28.667969 A 1 1 0 0 0 63.951172 29.667969 A 1 1 0 0 0 64.951172 30.667969 A 1 1 0 0 0 65.951172 29.667969 A 1 1 0 0 0 64.951172 28.667969 z M 46.806641 31.095703C42.880641 31.095703 40.548828 34.353359 40.548828 39.943359C40.548828 45.568359 42.856641 48.827172 46.806641 48.826172C50.743641 48.826172 53.041016 45.579797 53.041016 39.966797C53.041016 34.365797 50.708641 31.095703 46.806641 31.095703 z M 32.107422 31.505859L27.654297 34.646484L27.654297 37.330078L31.896484 34.330078L32.095703 34.330078L32.095703 48.416016L34.720703 48.416016L34.720703 31.505859L32.107422 31.505859 z M 46.806641 33.392578C49.080641 33.392578 50.392578 35.701359 50.392578 39.943359C50.392578 44.232359 49.103641 46.529297 46.806641 46.529297C44.509641 46.529297 43.197266 44.220359 43.197266 39.943359C43.197266 35.712359 44.532641 33.392578 46.806641 33.392578 z M 13.527344 33.732422 A 1 1 0 0 0 12.527344 34.732422 A 1 1 0 0 0 13.527344 35.732422 A 1 1 0 0 0 14.527344 34.732422 A 1 1 0 0 0 13.527344 33.732422 z M 66.488281 33.732422 A 1 1 0 0 0 65.488281 34.732422 A 1 1 0 0 0 66.488281 35.732422 A 1 1 0 0 0 67.488281 34.732422 A 1 1 0 0 0 66.488281 33.732422 z M 13.007812 39 A 1 1 0 0 0 12.007812 40 A 1 1 0 0 0 13.007812 41 A 1 1 0 0 0 14.007812 40 A 1 1 0 0 0 13.007812 39 z M 67.007812 39 A 1 1 0 0 0 66.007812 40 A 1 1 0 0 0 67.007812 41 A 1 1 0 0 0 68.007812 40 A 1 1 0 0 0 67.007812 39 z M 13.527344 44.267578 A 1 1 0 0 0 12.527344 45.267578 A 1 1 0 0 0 13.527344 46.267578 A 1 1 0 0 0 14.527344 45.267578 A 1 1 0 0 0 13.527344 44.267578 z M 66.490234 44.267578 A 1 1 0 0 0 65.490234 45.267578 A 1 1 0 0 0 66.490234 46.267578 A 1 1 0 0 0 67.490234 45.267578 A 1 1 0 0 0 66.490234 44.267578 z M 15.064453 49.332031 A 1 1 0 0 0 14.064453 50.332031 A 1 1 0 0 0 15.064453 51.332031 A 1 1 0 0 0 16.064453 50.332031 A 1 1 0 0 0 15.064453 49.332031 z M 64.955078 49.332031 A 1 1 0 0 0 63.955078 50.332031 A 1 1 0 0 0 64.955078 51.332031 A 1 1 0 0 0 65.955078 50.332031 A 1 1 0 0 0 64.955078 49.332031 z M 62.460938 54 A 1 1 0 0 0 61.460938 55 A 1 1 0 0 0 62.460938 56 A 1 1 0 0 0 63.460938 55 A 1 1 0 0 0 62.460938 54 z M 17.560547 54.001953 A 1 1 0 0 0 16.560547 55.001953 A 1 1 0 0 0 17.560547 56.001953 A 1 1 0 0 0 18.560547 55.001953 A 1 1 0 0 0 17.560547 54.001953 z M 20.916016 58.091797 A 1 1 0 0 0 19.916016 59.091797 A 1 1 0 0 0 20.916016 60.091797 A 1 1 0 0 0 21.916016 59.091797 A 1 1 0 0 0 20.916016 58.091797 z M 59.099609 58.091797 A 1 1 0 0 0 58.099609 59.091797 A 1 1 0 0 0 59.099609 60.091797 A 1 1 0 0 0 60.099609 59.091797 A 1 1 0 0 0 59.099609 58.091797 z M 55.011719 61.449219 A 1 1 0 0 0 54.011719 62.449219 A 1 1 0 0 0 55.011719 63.449219 A 1 1 0 0 0 56.011719 62.449219 A 1 1 0 0 0 55.011719 61.449219 z M 25.011719 61.451172 A 1 1 0 0 0 24.011719 62.451172 A 1 1 0 0 0 25.011719 63.451172 A 1 1 0 0 0 26.011719 62.451172 A 1 1 0 0 0 25.011719 61.451172 z M 29.677734 63.945312 A 1 1 0 0 0 28.677734 64.945312 A 1 1 0 0 0 29.677734 65.945312 A 1 1 0 0 0 30.677734 64.945312 A 1 1 0 0 0 29.677734 63.945312 z M 50.34375 63.945312 A 1 1 0 0 0 49.34375 64.945312 A 1 1 0 0 0 50.34375 65.945312 A 1 1 0 0 0 51.34375 64.945312 A 1 1 0 0 0 50.34375 63.945312 z M 34.742188 65.480469 A 1 1 0 0 0 33.742188 66.480469 A 1 1 0 0 0 34.742188 67.480469 A 1 1 0 0 0 35.742188 66.480469 A 1 1 0 0 0 34.742188 65.480469 z M 45.277344 65.482422 A 1 1 0 0 0 44.277344 66.482422 A 1 1 0 0 0 45.277344 67.482422 A 1 1 0 0 0 46.277344 66.482422 A 1 1 0 0 0 45.277344 65.482422 z M 40.007812 66 A 1 1 0 0 0 39.007812 67 A 1 1 0 0 0 40.007812 68 A 1 1 0 0 0 41.007812 67 A 1 1 0 0 0 40.007812 66 z"/></svg>