<svg xmlns="http://www.w3.org/2000/svg" xmlns:xlink="http://www.w3.org/1999/xlink" viewBox="0 0 50 50"><path d="M25 2C12.317 2 2 12.318 2 25C2 37.682 12.317 48 25 48C37.683 48 48 37.682 48 25C48 20.88 46.905 17.012063 45 13.664062L45 6C45 4.343 43.657 3 42 3C40.343 3 39 4.343 39 6L39 6.7695312C35.119 3.7815313 30.265 2 25 2 z M 25 4C31.218 4 37.032 6.7264375 41 11.398438L41 6C41 5.448 41.447 5 42 5C42.553 5 43 5.448 43 6L43 15L34 15C33.447 15 33 14.552 33 14C33 13.448 33.447 13 34 13L39.722656 13C36.128656 8.589 30.758 6 25 6C14.523 6 6 14.523 6 25C6 35.477 14.523 44 25 44C35.477 44 44 35.477 44 25C44 24.448 44.447 24 45 24C45.553 24 46 24.448 46 25C46 36.58 36.579 46 25 46C13.421 46 4 36.58 4 25C4 13.42 13.421 4 25 4 z M 18.5 17C20.939 17 23 18.832 23 21C23 22.282 22.530812 23.190172 21.882812 23.826172C23.392813 24.857172 24 26.648 24 28C24 30.757 21.533 33 18.5 33C15.467 33 13 30.757 13 28L15 28C15 29.654 16.57 31 18.5 31C20.43 31 22 29.654 22 28C22 27.877 21.966 25 19 25L18 25L18 23L19 23C19.334 23 21 22.904 21 21C21 19.935 19.832 19 18.5 19C17.122 19 16 20.122 16 21.5L16 22.111328L14 22.111328L14 21.5C14 19.019 16.019 17 18.5 17 z M 31.5 17C36.64 17 37 21.705969 37 25.042969C37 28.208969 36.64 33 31.5 33C25.82 33 26 27.523969 26 25.042969C26 21.705969 26.27 17 31.5 17 z M 31.5 19C29.59 19 28.968328 19.806703 28.611328 20.595703C28.074328 21.782703 28.000953 23.433969 28.001953 25.042969L28.001953 25.269531C27.998953 26.705531 27.992281 29.109422 29.113281 30.232422C29.629281 30.749422 30.41 31 31.5 31C33.716 31 35 30.024969 35 25.042969C35 19.988969 33.717 19 31.5 19 z"/></svg>