<svg xmlns="http://www.w3.org/2000/svg" xmlns:xlink="http://www.w3.org/1999/xlink" viewBox="0 0 32 32"><path d="M18 1.4648438L18 4L16 4C9.3845336 4 4 9.3845336 4 16C4 22.615466 9.3845336 28 16 28C22.615466 28 28 22.615466 28 16C28 12.137 26.158453 8.7038125 23.314453 6.5078125L21.785156 7.859375C24.330156 9.673375 26 12.643 26 16C26 21.534534 21.534534 26 16 26C10.465466 26 6 21.534534 6 16C6 10.465466 10.465466 6 16 6L18 6L18 8.5351562L22 5L18 1.4648438 z M 11.980469 11L11.746094 11.673828C11.746094 11.673828 11.333333 13 10 13L10 15C10.848319 15 11.471642 14.700942 12 14.332031L12 21L14 21L14 11L11.980469 11 z M 19 11C17.354937 11 16 12.354937 16 14L16 18C16 19.645063 17.354937 21 19 21C20.645063 21 22 19.645063 22 18L22 14C22 12.354937 20.645063 11 19 11 z M 19 13C19.562937 13 20 13.437063 20 14L20 18C20 18.562937 19.562937 19 19 19C18.437063 19 18 18.562937 18 18L18 14C18 13.437063 18.437063 13 19 13 z"/></svg>