<svg xmlns="http://www.w3.org/2000/svg" xmlns:xlink="http://www.w3.org/1999/xlink" viewBox="0 0 50 50"><path d="M7.90625 1.96875C7.863281 1.976563 7.820313 1.988281 7.78125 2C7.316406 2.105469 6.988281 2.523438 7 3L7 12L16 12C16.359375 12.003906 16.695313 11.816406 16.878906 11.503906C17.058594 11.191406 17.058594 10.808594 16.878906 10.496094C16.695313 10.183594 16.359375 9.996094 16 10L10.3125 10C14.101563 6.292969 19.277344 4 25 4C36.609375 4 46 13.390625 46 25C46 36.609375 36.609375 46 25 46C13.390625 46 4 36.609375 4 25C4 21.527344 4.855469 18.257813 6.34375 15.375L4.5625 14.46875C2.929688 17.625 2 21.207031 2 25C2 37.691406 12.308594 48 25 48C37.691406 48 48 37.691406 48 25C48 12.308594 37.691406 2 25 2C18.773438 2 13.140625 4.503906 9 8.53125L9 3C9.011719 2.710938 8.894531 2.433594 8.6875 2.238281C8.476563 2.039063 8.191406 1.941406 7.90625 1.96875 Z M 25 5C24.449219 5 24 5.449219 24 6C24 6.550781 24.449219 7 25 7C25.550781 7 26 6.550781 26 6C26 5.449219 25.550781 5 25 5 Z M 34.5 7.53125C33.949219 7.53125 33.5 7.980469 33.5 8.53125C33.5 9.082031 33.949219 9.53125 34.5 9.53125C35.050781 9.53125 35.5 9.082031 35.5 8.53125C35.5 7.980469 35.050781 7.53125 34.5 7.53125 Z M 41.46875 14.5C40.917969 14.5 40.46875 14.949219 40.46875 15.5C40.46875 16.050781 40.917969 16.5 41.46875 16.5C42.019531 16.5 42.46875 16.050781 42.46875 15.5C42.46875 14.949219 42.019531 14.5 41.46875 14.5 Z M 25.28125 16.90625C21.757813 16.90625 19.6875 19.695313 19.6875 24.46875C19.6875 26.1875 19.988281 27.617188 20.5625 28.75C21.480469 30.636719 23.097656 31.6875 25.1875 31.6875C28.175781 31.6875 30.3125 29.621094 30.3125 26.75C30.3125 24.027344 28.332031 22.0625 25.65625 22.0625C23.984375 22.0625 22.652344 22.832031 21.96875 24.1875L21.8125 24.1875C21.863281 20.796875 23.113281 18.84375 25.28125 18.84375C26.558594 18.84375 27.554688 19.535156 27.90625 20.6875L30.09375 20.6875C29.664063 18.382813 27.769531 16.90625 25.28125 16.90625 Z M 25.1875 23.90625C26.914063 23.90625 28.125 25.132813 28.125 26.84375C28.125 28.503906 26.835938 29.75 25.15625 29.75C23.476563 29.75 22.21875 28.460938 22.21875 26.78125C22.21875 25.109375 23.46875 23.90625 25.1875 23.90625 Z M 6 24C5.449219 24 5 24.449219 5 25C5 25.550781 5.449219 26 6 26C6.550781 26 7 25.550781 7 25C7 24.449219 6.550781 24 6 24 Z M 44 24C43.449219 24 43 24.449219 43 25C43 25.550781 43.449219 26 44 26C44.550781 26 45 25.550781 45 25C45 24.449219 44.550781 24 44 24 Z M 8.53125 33.5C7.980469 33.5 7.53125 33.949219 7.53125 34.5C7.53125 35.050781 7.980469 35.5 8.53125 35.5C9.082031 35.5 9.53125 35.050781 9.53125 34.5C9.53125 33.949219 9.082031 33.5 8.53125 33.5 Z M 41.46875 33.5C40.917969 33.5 40.46875 33.949219 40.46875 34.5C40.46875 35.050781 40.917969 35.5 41.46875 35.5C42.019531 35.5 42.46875 35.050781 42.46875 34.5C42.46875 33.949219 42.019531 33.5 41.46875 33.5 Z M 15.5 40.46875C14.949219 40.46875 14.5 40.917969 14.5 41.46875C14.5 42.019531 14.949219 42.46875 15.5 42.46875C16.050781 42.46875 16.5 42.019531 16.5 41.46875C16.5 40.917969 16.050781 40.46875 15.5 40.46875 Z M 34.5 40.46875C33.949219 40.46875 33.5 40.917969 33.5 41.46875C33.5 42.019531 33.949219 42.46875 34.5 42.46875C35.050781 42.46875 35.5 42.019531 35.5 41.46875C35.5 40.917969 35.050781 40.46875 34.5 40.46875 Z M 25 43C24.449219 43 24 43.449219 24 44C24 44.550781 24.449219 45 25 45C25.550781 45 26 44.550781 26 44C26 43.449219 25.550781 43 25 43Z"/></svg>