<svg xmlns="http://www.w3.org/2000/svg" xmlns:xlink="http://www.w3.org/1999/xlink" viewBox="0 0 50 50"><path d="M7.90625 1.96875C7.863281 1.976563 7.820313 1.988281 7.78125 2C7.316406 2.105469 6.988281 2.523438 7 3L7 12L16 12C16.359375 12.003906 16.695313 11.816406 16.878906 11.503906C17.058594 11.191406 17.058594 10.808594 16.878906 10.496094C16.695313 10.183594 16.359375 9.996094 16 10L10.3125 10C14.101563 6.292969 19.277344 4 25 4C36.609375 4 46 13.390625 46 25C46 36.609375 36.609375 46 25 46C13.390625 46 4 36.609375 4 25C4 21.527344 4.855469 18.257813 6.34375 15.375L4.5625 14.46875C2.929688 17.625 2 21.207031 2 25C2 37.691406 12.308594 48 25 48C37.691406 48 48 37.691406 48 25C48 12.308594 37.691406 2 25 2C18.773438 2 13.140625 4.503906 9 8.53125L9 3C9.011719 2.710938 8.894531 2.433594 8.6875 2.238281C8.476563 2.039063 8.191406 1.941406 7.90625 1.96875 Z M 25 5C24.449219 5 24 5.449219 24 6C24 6.550781 24.449219 7 25 7C25.550781 7 26 6.550781 26 6C26 5.449219 25.550781 5 25 5 Z M 34.5 7.53125C33.949219 7.53125 33.5 7.980469 33.5 8.53125C33.5 9.082031 33.949219 9.53125 34.5 9.53125C35.050781 9.53125 35.5 9.082031 35.5 8.53125C35.5 7.980469 35.050781 7.53125 34.5 7.53125 Z M 41.46875 14.5C40.917969 14.5 40.46875 14.949219 40.46875 15.5C40.46875 16.050781 40.917969 16.5 41.46875 16.5C42.019531 16.5 42.46875 16.050781 42.46875 15.5C42.46875 14.949219 42.019531 14.5 41.46875 14.5 Z M 30.78125 16.90625C28.007813 16.90625 26.0625 18.714844 26.0625 21.3125L26.0625 21.34375L28.125 21.34375L28.125 21.3125C28.125 19.808594 29.164063 18.8125 30.71875 18.8125C32.171875 18.8125 33.28125 19.773438 33.28125 21.0625C33.28125 22.097656 32.824219 22.847656 30.9375 24.8125L26.15625 29.75L26.15625 31.34375L35.65625 31.34375L35.65625 29.375L29.21875 29.375L29.21875 29.21875L32.34375 26.03125C34.707031 23.640625 35.4375 22.429688 35.4375 20.9375C35.4375 18.613281 33.457031 16.90625 30.78125 16.90625 Z M 14.125 17.25L14.125 19.1875L21.3125 19.1875L21.3125 19.34375L15.0625 31.34375L17.34375 31.34375L23.5 19.21875L23.5 17.25 Z M 6 24C5.449219 24 5 24.449219 5 25C5 25.550781 5.449219 26 6 26C6.550781 26 7 25.550781 7 25C7 24.449219 6.550781 24 6 24 Z M 44 24C43.449219 24 43 24.449219 43 25C43 25.550781 43.449219 26 44 26C44.550781 26 45 25.550781 45 25C45 24.449219 44.550781 24 44 24 Z M 8.53125 33.5C7.980469 33.5 7.53125 33.949219 7.53125 34.5C7.53125 35.050781 7.980469 35.5 8.53125 35.5C9.082031 35.5 9.53125 35.050781 9.53125 34.5C9.53125 33.949219 9.082031 33.5 8.53125 33.5 Z M 41.46875 33.5C40.917969 33.5 40.46875 33.949219 40.46875 34.5C40.46875 35.050781 40.917969 35.5 41.46875 35.5C42.019531 35.5 42.46875 35.050781 42.46875 34.5C42.46875 33.949219 42.019531 33.5 41.46875 33.5 Z M 15.5 40.46875C14.949219 40.46875 14.5 40.917969 14.5 41.46875C14.5 42.019531 14.949219 42.46875 15.5 42.46875C16.050781 42.46875 16.5 42.019531 16.5 41.46875C16.5 40.917969 16.050781 40.46875 15.5 40.46875 Z M 34.5 40.46875C33.949219 40.46875 33.5 40.917969 33.5 41.46875C33.5 42.019531 33.949219 42.46875 34.5 42.46875C35.050781 42.46875 35.5 42.019531 35.5 41.46875C35.5 40.917969 35.050781 40.46875 34.5 40.46875 Z M 25 43C24.449219 43 24 43.449219 24 44C24 44.550781 24.449219 45 25 45C25.550781 45 26 44.550781 26 44C26 43.449219 25.550781 43 25 43Z"/></svg>