<svg xmlns="http://www.w3.org/2000/svg" xmlns:xlink="http://www.w3.org/1999/xlink" viewBox="0 0 50 50"><path d="M10 2C8.347656 2 7 3.347656 7 5L7 11.03125L6 12.03125C3.476563 15.722656 2 20.191406 2 25C2 37.703125 12.296875 48 25 48C37.703125 48 48 37.703125 48 25C48 12.296875 37.703125 2 25 2C20.597656 2 16.496094 3.261719 13 5.40625L13 5C13 3.347656 11.652344 2 10 2 Z M 10 4C10.550781 4 11 4.449219 11 5L11 9.375C14.832031 5.9375 19.789063 4 25 4C36.578125 4 46 13.421875 46 25C46 36.578125 36.578125 46 25 46C13.421875 46 4 36.578125 4 25C4 21.65625 4.820313 18.328125 6.34375 15.375L8.09375 16.28125C6.695313 18.988281 6 21.929688 6 25C6 35.476563 14.523438 44 25 44C35.476563 44 44 35.476563 44 25C44 14.523438 35.476563 6 25 6C20.21875 6 15.671875 7.808594 12.1875 11L17 11C17.550781 11 18 11.449219 18 12C18 12.550781 17.550781 13 17 13L9 13L9 5C9 4.449219 9.449219 4 10 4 Z M 25 8C25.554688 8 26 8.449219 26 9C26 9.550781 25.554688 10 25 10C24.449219 10 24 9.550781 24 9C24 8.449219 24.449219 8 25 8 Z M 33.21875 10.1875C33.347656 10.203125 33.476563 10.242188 33.59375 10.3125C34.070313 10.589844 34.214844 11.210938 33.9375 11.6875C33.660156 12.164063 33.039063 12.339844 32.5625 12.0625C32.085938 11.785156 31.941406 11.164063 32.21875 10.6875C32.429688 10.328125 32.832031 10.136719 33.21875 10.1875 Z M 38.78125 16.0625C39.167969 16.015625 39.546875 16.203125 39.75 16.5625C40.023438 17.042969 39.855469 17.664063 39.375 17.9375C38.894531 18.210938 38.304688 18.042969 38.03125 17.5625C37.757813 17.082031 37.925781 16.460938 38.40625 16.1875C38.527344 16.117188 38.652344 16.078125 38.78125 16.0625 Z M 17 18.53125C19.082031 18.53125 20.671875 19.792969 21.03125 21.71875L19.1875 21.71875C18.894531 20.753906 18.070313 20.15625 17 20.15625C15.1875 20.15625 14.132813 21.792969 14.09375 24.625L14.25 24.625C14.820313 23.492188 15.949219 22.84375 17.34375 22.84375C19.578125 22.84375 21.1875 24.503906 21.1875 26.78125C21.1875 29.179688 19.433594 30.90625 16.9375 30.90625C15.191406 30.90625 13.828125 30.011719 13.0625 28.4375C12.582031 27.492188 12.34375 26.3125 12.34375 24.875C12.34375 20.882813 14.054688 18.53125 17 18.53125 Z M 27.6875 18.53125C30.40625 18.53125 32 20.816406 32 24.71875C32 28.628906 30.429688 30.875 27.6875 30.875C24.9375 30.875 23.3125 28.636719 23.3125 24.71875C23.3125 20.824219 24.953125 18.53125 27.6875 18.53125 Z M 27.6875 20.15625C26.105469 20.15625 25.15625 21.773438 25.15625 24.71875C25.15625 27.699219 26.085938 29.28125 27.6875 29.28125C29.289063 29.28125 30.15625 27.707031 30.15625 24.71875C30.15625 21.765625 29.269531 20.15625 27.6875 20.15625 Z M 36.59375 23.5625C38.148438 23.5625 39.179688 24.28125 39.3125 25.5L38 25.5C37.871094 24.992188 37.367188 24.65625 36.59375 24.65625C35.832031 24.65625 35.28125 25.023438 35.28125 25.5625C35.28125 25.976563 35.625 26.234375 36.375 26.40625L37.5 26.6875C38.8125 26.992188 39.4375 27.546875 39.4375 28.5625C39.4375 29.863281 38.246094 30.75 36.59375 30.75C34.949219 30.75 33.871094 30.007813 33.75 28.78125L35.09375 28.78125C35.265625 29.3125 35.800781 29.625 36.625 29.625C37.476563 29.625 38.0625 29.238281 38.0625 28.6875C38.0625 28.273438 37.753906 28.007813 37.0625 27.84375L35.84375 27.5625C34.53125 27.25 33.9375 26.683594 33.9375 25.65625C33.9375 24.433594 35.03125 23.5625 36.59375 23.5625 Z M 9 24C9.550781 24 10 24.449219 10 25C10 25.554688 9.550781 26 9 26C8.449219 26 8 25.554688 8 25C8 24.449219 8.449219 24 9 24 Z M 41 24C41.554688 24 42 24.449219 42 25C42 25.554688 41.554688 26 41 26C40.445313 26 40 25.554688 40 25C40 24.449219 40.445313 24 41 24 Z M 16.9375 24.40625C15.5 24.40625 14.4375 25.417969 14.4375 26.8125C14.4375 28.214844 15.503906 29.28125 16.90625 29.28125C18.308594 29.28125 19.375 28.230469 19.375 26.84375C19.375 25.414063 18.382813 24.40625 16.9375 24.40625 Z M 11 31.9375C11.386719 31.890625 11.761719 32.078125 11.96875 32.4375C12.242188 32.917969 12.074219 33.539063 11.59375 33.8125C11.113281 34.085938 10.523438 33.917969 10.25 33.4375C9.976563 32.957031 10.144531 32.335938 10.625 32.0625C10.746094 31.992188 10.871094 31.953125 11 31.9375 Z M 38.9375 32.09375C39.066406 32.109375 39.195313 32.148438 39.3125 32.21875C39.789063 32.496094 39.96875 33.117188 39.6875 33.59375C39.410156 34.070313 38.789063 34.214844 38.3125 33.9375C37.835938 33.660156 37.660156 33.039063 37.9375 32.5625C38.144531 32.203125 38.550781 32.042969 38.9375 32.09375 Z M 17.0625 37.8125C17.191406 37.828125 17.320313 37.867188 17.4375 37.9375C17.914063 38.214844 18.058594 38.835938 17.78125 39.3125C17.503906 39.789063 16.882813 39.96875 16.40625 39.6875C15.929688 39.410156 15.785156 38.789063 16.0625 38.3125C16.273438 37.953125 16.675781 37.761719 17.0625 37.8125 Z M 32.78125 37.9375C33.167969 37.890625 33.546875 38.078125 33.75 38.4375C34.019531 38.917969 33.855469 39.507813 33.375 39.78125C32.894531 40.054688 32.304688 39.886719 32.03125 39.40625C31.757813 38.925781 31.925781 38.335938 32.40625 38.0625C32.527344 37.996094 32.652344 37.953125 32.78125 37.9375 Z M 25 40C25.554688 40 26 40.445313 26 41C26 41.554688 25.554688 42 25 42C24.449219 42 24 41.554688 24 41C24 40.445313 24.449219 40 25 40Z"/></svg>