<svg xmlns="http://www.w3.org/2000/svg" xmlns:xlink="http://www.w3.org/1999/xlink" viewBox="0 0 50 50"><path d="M5 10C3.347656 10 2 11.347656 2 13L2 26.8125C3.296875 25.6875 4.9375 24.777344 7 24.0625L7 20C7 17.339844 11.542969 17 15.5 17C19.457031 17 24 17.339844 24 20L24 22C24.335938 21.996094 24.65625 22 25 22C25.34375 22 25.664063 21.996094 26 22L26 20C26 17.339844 30.542969 17 34.5 17C38.457031 17 43 17.339844 43 20L43 24.03125C45.058594 24.742188 46.691406 25.671875 48 26.8125L48 13C48 11.347656 46.652344 10 45 10 Z M 25 24C5.90625 24 -0.015625 27.53125 0 37L50 37C50.015625 27.46875 44.09375 24 25 24 Z M 0 39L0 50L7 50L7 46C7 44.5625 7.5625 44 9 44L41 44C42.4375 44 43 44.5625 43 46L43 50L50 50L50 39Z"/></svg>