<svg id="Layer_1" enable-background="new 0 0 512 512" height="512" viewBox="0 0 512 512" width="512" xmlns="http://www.w3.org/2000/svg"><g><path d="m496 320c0-13.1 0-239.28 0-248 0-8.836-7.164-16-16-16s-16 7.164-16 16v16h-416v-16c0-8.836-7.164-16-16-16s-16 7.164-16 16v248c-8.836 0-16 7.164-16 16v104c0 8.836 7.164 16 16 16h40c5.036 0 9.778-2.371 12.8-6.4l19.2-25.6h336l19.2 25.6c3.021 4.029 7.764 6.4 12.8 6.4h40c8.836 0 16-7.164 16-16v-104c0-8.836-7.164-16-16-16zm-32-71.39c-17.206-9.979-30.797-8.61-48-8.61v-32c0-26.467-21.533-48-48-48h-80c-12.284 0-23.501 4.644-32 12.261-8.499-7.617-19.716-12.261-32-12.261h-80c-26.467 0-48 21.533-48 48v32c-17.989 0-30.887-1.315-48 8.61v-128.61h416zm-336-8.61v-32c0-8.822 7.178-16 16-16h80c8.822 0 16 7.178 16 16v32zm144-32c0-8.822 7.178-16 16-16h80c8.822 0 16 7.178 16 16v32h-112zm-224 96c0-17.645 14.355-32 32-32h352c17.645 0 32 14.355 32 32v16h-416zm432 120h-16l-19.2-25.6c-3.021-4.029-7.764-6.4-12.8-6.4h-352c-5.036 0-9.778 2.371-12.8 6.4l-19.2 25.6h-16v-72h448z"/></g></svg>