<?xml version="1.0" encoding="utf-8"?><svg version="1.1" id="Layer_1" xmlns="http://www.w3.org/2000/svg" xmlns:xlink="http://www.w3.org/1999/xlink" x="0px" y="0px" viewBox="0 0 122.88 121.24" style="enable-background:new 0 0 122.88 121.24" xml:space="preserve"><style type="text/css">.st0{fill-rule:evenodd;clip-rule:evenodd;}</style><g><path class="st0" d="M3.48,89.22h115.8v-5.08c0-2.46-0.98-4.52-2.55-6.09c-0.99-0.99-2.22-1.8-3.6-2.42 c-3.53-0.77-7.06-1.46-10.59-2.06c-0.07-0.01-0.14-0.02-0.21-0.04c-1.72-0.3-3.45-0.57-5.17-0.83c-12.36-1.59-24.64-2.4-36.82-2.4 c-7.22-0.01-14.41,0.27-21.57,0.83c-6.75,0.64-13.49,1.55-20.22,2.74l-0.38,0.09C18.06,73.98,17.94,74,17.82,74 c-3.27,0.59-6.54,1.24-9.81,1.96C7.14,76.43,6.36,77,5.7,77.67c-1.37,1.37-2.22,3.15-2.22,5.29L3.48,89.22L3.48,89.22L3.48,89.22z M61.17,7.68c3.58-3.73,6.08-6.96,11.6-7.59C83.12-1.1,92.64,9.5,87.41,19.94c-0.24,0.49-0.53,0.99-0.85,1.5h20.91 c2.38,0,4.54,0.97,6.11,2.54c1.57,1.57,2.54,3.73,2.54,6.11v43.17c1.14,0.65,2.17,1.43,3.07,2.33c2.2,2.2,3.57,5.09,3.57,8.55v6.19 c0.08,0.2,0.12,0.41,0.12,0.63s-0.04,0.44-0.12,0.63v27.9c0,0.96-0.78,1.74-1.74,1.74h-4.38c-0.82,0-1.5-0.56-1.69-1.33 c-1.64-4.71-3.28-7.43-5.51-8.91c-2.26-1.5-5.33-1.88-9.77-1.87l-80.23,0.1l-0.03,0v0c-3.29-0.08-5.42,0.87-6.97,2.59 c-1.68,1.88-2.82,4.74-3.98,8.22c-0.24,0.73-0.92,1.19-1.65,1.19v0.01H1.74c-0.96,0-1.74-0.78-1.74-1.74V82.96 c0-3.15,1.24-5.76,3.24-7.75c0.61-0.61,1.28-1.15,2.02-1.64V30c0-2.38,0.97-4.51,2.54-6.06c1.57-1.55,3.73-2.5,6.11-2.5v0h22.3 c-1.29-2.56-2.11-5.24-2.21-8.06C33.71,5.25,40.12,0.04,47.5,0.14C54.1,0.22,56.87,3.5,61.17,7.68L61.17,7.68L61.17,7.68z M84.03,24.92c-1.33,1.63-2.87,3.32-4.48,4.99c-3.68,3.81-7.75,7.54-10.6,10.37l-7.78,7.71l-6.42-6.19 C49.76,37,42.75,31.4,38.29,24.92H13.91c-1.44,0-2.74,0.57-3.67,1.49C9.31,27.32,8.74,28.58,8.74,30v41.85 c0.92-0.32,1.87-0.57,2.85-0.75c1.48-0.26,2.97-0.52,4.46-0.76V59.48c0-3.14,1.28-6,3.35-8.06c2.07-2.07,4.92-3.35,8.06-3.35H47.4 c3.14,0,6,1.28,8.06,3.35c2.07,2.07,3.35,4.92,3.35,8.06v7.12c0.56-0.01,1.12-0.01,1.69-0.01c0.4,0,0.8,0,1.2,0v-7.1 c0-3.14,1.28-6,3.35-8.06c2.07-2.07,4.92-3.35,8.06-3.35h19.94c3.14,0,6,1.28,8.06,3.35c2.07,2.07,3.35,4.92,3.35,8.06v10.74 c1.83,0.28,3.67,0.57,5.51,0.88c0.91,0.15,1.8,0.37,2.66,0.64V30.09c0-1.42-0.58-2.71-1.52-3.65c-0.94-0.94-2.23-1.52-3.65-1.52 l0,0H84.03L84.03,24.92z M43.12,67.28c4.07-0.31,8.14-0.51,12.21-0.62v-7.18c0-2.18-0.89-4.16-2.33-5.6 c-1.44-1.44-3.42-2.33-5.6-2.33H27.46c-2.18,0-4.16,0.89-5.6,2.33c-1.44,1.44-2.33,3.42-2.33,5.6V69.8 c3.6-0.53,7.21-0.99,10.83-1.38c1.46-0.17,2.95-0.33,4.49-0.48C37.5,67.68,40.28,67.46,43.12,67.28L43.12,67.28L43.12,67.28z M65.19,66.61c2.68,0.04,5.36,0.12,8.05,0.25c4.34,0.15,8.56,0.4,12.53,0.74c5.61,0.49,10.79,1.18,15.23,2.08v-10.2 c0-2.18-0.89-4.16-2.33-5.6c-1.44-1.44-3.42-2.33-5.6-2.33H73.12c-2.18,0-4.16,0.89-5.6,2.33c-1.44,1.44-2.33,3.42-2.33,5.6 L65.19,66.61L65.19,66.61L65.19,66.61z M119.28,92.7H3.48v25.05h2.09c1.17-3.35,2.41-6.16,4.28-8.25c2.22-2.48,5.18-3.85,9.62-3.75 l80.2-0.1c5.12-0.01,8.75,0.48,11.69,2.44c2.73,1.82,4.7,4.79,6.51,9.66h1.42V92.7L119.28,92.7L119.28,92.7z"/></g></svg>