<?xml version="1.0" encoding="iso-8859-1"?>
<!-- Generator: Adobe Illustrator 19.0.0, SVG Export Plug-In . SVG Version: 6.00 Build 0)  -->
<svg version="1.1" id="Capa_1" xmlns="http://www.w3.org/2000/svg" xmlns:xlink="http://www.w3.org/1999/xlink" x="0px" y="0px"
	 viewBox="0 0 384 384" style="enable-background:new 0 0 384 384;" xml:space="preserve">
<g>
	<g>
		<path d="M319.664,24H64.336C28.856,24,0,52.856,0,88.336v118.416V296v48c0,8.832,7.168,16,16,16c8.832,0,16-7.168,16-16v-32h320
			v32c0,8.832,7.168,16,16,16c8.832,0,16-7.168,16-16v-48v-89.248V88.336C384,52.856,355.144,24,319.664,24z M352,216H120
			c-8.832,0-16,7.168-16,16c0,8.832,7.168,16,16,16h232v32H32v-32h24c8.832,0,16-7.168,16-16c0-8.832-7.168-16-16-16H32v-9.248
			C32,198.8,32,184,70.752,184H72h88h64h88h1.248C352,184,352,198.8,352,206.752V216z M88,152v-9c0-3.856,3.144-7,7-7h42
			c3.856,0,7,3.144,7,7v9H88z M240,152v-9c0-3.856,3.144-7,7-7h42c3.856,0,7,3.144,7,7v9H240z M352,158.432
			c-6.584-2.664-14.536-4.6-24-5.6V143c0-21.504-17.496-39-39-39h-42c-21.504,0-39,17.496-39,39v9h-32v-9c0-21.504-17.496-39-39-39
			H95c-21.504,0-39,17.496-39,39v9.832c-9.464,1-17.416,2.936-24,5.6V88.336C32,70.504,46.504,56,64.336,56h255.336
			C337.496,56,352,70.504,352,88.336V158.432z"/>
	</g>
</g>
<g>
</g>
<g>
</g>
<g>
</g>
<g>
</g>
<g>
</g>
<g>
</g>
<g>
</g>
<g>
</g>
<g>
</g>
<g>
</g>
<g>
</g>
<g>
</g>
<g>
</g>
<g>
</g>
<g>
</g>
</svg>
