<svg id="Layer_1" enable-background="new 0 0 512 512" height="512" viewBox="0 0 512 512" width="512" xmlns="http://www.w3.org/2000/svg"><g><path d="m496 320c0-15.581 0-282.497 0-296 0-8.836-7.163-16-16-16s-16 7.164-16 16v16h-416v-16c0-8.836-7.164-16-16-16s-16 7.164-16 16v296c-8.836 0-16 7.164-16 16v152c0 8.836 7.164 16 16 16h56c6.061 0 11.601-3.424 14.311-8.845l19.578-39.155h300.223l19.578 39.155c2.71 5.421 8.25 8.845 14.311 8.845h56c8.837 0 16-7.164 16-16v-152c-.001-8.836-7.164-16-16.001-16zm-32-91.833c-11.449-7.679-25.209-12.167-40-12.167h-56v-32c0-35.29-28.71-64-64-64h-96c-35.29 0-64 28.71-64 64v32h-56c-14.791 0-28.551 4.488-40 12.167v-156.167h416zm-128-12.167h-160v-32c0-17.645 14.355-32 32-32h96c17.645 0 32 14.355 32 32zm-288 72c0-22.056 17.944-40 40-40h336c22.056 0 40 17.944 40 40v32h-416zm432 184h-30.111l-19.578-39.155c-2.71-5.421-8.25-8.845-14.311-8.845h-320c-6.061 0-11.601 3.424-14.311 8.845l-19.578 39.155h-30.111v-120h448z"/></g></svg>