<?xml version="1.0" encoding="utf-8"?><svg version="1.1" id="Layer_1" xmlns="http://www.w3.org/2000/svg" xmlns:xlink="http://www.w3.org/1999/xlink" x="0px" y="0px" viewBox="0 0 122.88 121.47" style="enable-background:new 0 0 122.88 121.47" xml:space="preserve"><g><path d="M10.76,95.77l101.36,0.02l-11.52-45.63H22.25L10.76,95.77L10.76,95.77z M3.4,100.88l116.08,0.03l-18.18-70.24h-4.35v4.98 l1.93,7.66l-74.84-0.22l1.96-7.77v-4.65h-4.44L3.4,100.88L3.4,100.88z M64.57,34.09v-3.42h-6.21v3.42H64.57L64.57,34.09z M96.94,27.85h4.05l0.07-25.1H21.19l0.67,25.1h4.14v-8.44c0-0.64,0.26-1.23,0.68-1.65c0.42-0.42,1.01-0.68,1.65-0.68h27.7 c0.64,0,1.23,0.26,1.65,0.68c0.42,0.42,0.68,1.01,0.68,1.65v8.44h6.21v-7.97c0-0.64,0.26-1.23,0.68-1.65 c0.42-0.42,1.01-0.68,1.65-0.68h27.7c0.64,0,1.23,0.26,1.65,0.68c0.42,0.42,0.68,1.01,0.68,1.65V27.85L96.94,27.85z M94.06,20.44 h-26.6v16.08h26.6V20.44L94.06,20.44z M55.48,19.97h-26.6v16.55h26.6V19.97L55.48,19.97z M20.58,0h81.08l0,0.01 c0.59,0,1.13,0.24,1.51,0.63h0.01c0.39,0.39,0.63,0.93,0.63,1.52l-0.01,0l-0.08,26.96l18.85,72.83c0.01,0.05,0.02,0.11,0.03,0.17 l0,0l0,0.01l0,0.01l0,0.01l0,0.01c0.01,0.05,0.01,0.1,0.01,0.15l0.25,17.67l0.01,0.14c0,0.76-0.62,1.38-1.38,1.38H1.37v-0.01H1.36 c-0.76-0.01-1.36-0.63-1.36-1.39l0.25-17.8c0-0.06,0.01-0.12,0.01-0.18c0.01-0.06,0.02-0.12,0.03-0.18l18.84-72.86l0.01-0.05 c-0.24-8.87-0.71-18.04-0.71-26.88h-0.01c0-0.59,0.24-1.12,0.63-1.5c0.38-0.37,0.9-0.61,1.47-0.63L20.58,0L20.58,0L20.58,0z M2.97,103.63l-0.21,15.09h117.35l-0.21-15.06L2.97,103.63L2.97,103.63z"/></g></svg>