<svg xmlns="http://www.w3.org/2000/svg" xmlns:xlink="http://www.w3.org/1999/xlink" viewBox="0 0 50 50"><path d="M29.59375 0C28.3125 0 27.152344 0.367188 26.125 0.9375L20.53125 4L16 4C14.355469 4 13 5.355469 13 7C13 7.207031 13.023438 7.398438 13.0625 7.59375C13.0625 7.605469 13.0625 7.613281 13.0625 7.625C13.140625 8.023438 13.289063 8.367188 13.5 8.6875C13.710938 9.007813 13.996094 9.289063 14.3125 9.5C14.628906 9.710938 14.980469 9.859375 15.375 9.9375C15.382813 9.941406 15.398438 9.933594 15.40625 9.9375C15.59375 9.972656 15.796875 10 16 10L20.53125 10L26.21875 13.09375L26.21875 13.0625C27.246094 13.632813 28.394531 14 29.59375 14L43 14C46.84375 14 50 10.84375 50 7C50 3.15625 46.84375 0 43 0 Z M 29.59375 2L30 2L30 4L32 4L32 2L34 2L34 4L36 4L36 2L38 2L38 4L40 4L40 2L42 2L42 4L44 4L44 2.09375C46.273438 2.5625 48 4.589844 48 7C48 9.753906 45.753906 12 43 12L29.59375 12C28.792969 12 27.960938 11.742188 27.1875 11.3125L21.28125 8.125C21.191406 8.078125 21.097656 8.046875 21 8.03125L21 7L15 7C15 6.445313 15.445313 6 16 6L20.8125 6C20.976563 5.996094 21.136719 5.953125 21.28125 5.875L27.09375 2.6875C27.867188 2.257813 28.675781 2 29.59375 2 Z M 23 6L23 8L44 8L44 6 Z M 3 17C1.355469 17 0 18.355469 0 20L0 50L6 50L6 45L44 45L44 50L50 50L50 37.15625C50.003906 37.105469 50.003906 37.050781 50 37L50 31C50 28.253906 47.746094 26 45 26L19 26C18.96875 26 18.9375 26 18.90625 26C18.390625 26.046875 17.996094 26.480469 18 27L18 36L6 36L6 20C6 18.355469 4.644531 17 3 17 Z M 12 36C14.75 36 17 33.75 17 31C17 28.25 14.75 26 12 26C9.25 26 7 28.25 7 31C7 33.75 9.25 36 12 36 Z M 3 19C3.554688 19 4 19.445313 4 20L4 38L48 38L48 48L46 48L46 43L4 43L4 48L2 48L2 20C2 19.445313 2.445313 19 3 19 Z M 12 28C13.667969 28 15 29.332031 15 31C15 32.667969 13.667969 34 12 34C10.332031 34 9 32.667969 9 31C9 29.332031 10.332031 28 12 28 Z M 20 28L45 28C46.65625 28 48 29.34375 48 31L48 36L20 36Z"/></svg>