<svg xmlns="http://www.w3.org/2000/svg" xmlns:xlink="http://www.w3.org/1999/xlink" viewBox="0 0 50 50"><path d="M29.59375 0C28.386719 0 27.226563 0.324219 26.125 0.9375L21 3.75L20.53125 4L16 4C14.347656 4 13 5.347656 13 7C13 8.652344 14.347656 10 16 10L20.53125 10L21 10.25L26.21875 13.0625C27.308594 13.667969 28.46875 14 29.59375 14L43 14C46.859375 14 50 10.859375 50 7C50 3.480469 47.386719 0.582031 44 0.09375L44 3L42 3L42 0L40 0L40 3L38 3L38 0L36 0L36 3L34 3L34 0L32 0L32 3L30 3L30 0 Z M 16 6L19 6L19 8L16 8C15.449219 8 15 7.550781 15 7C15 6.449219 15.449219 6 16 6 Z M 21 6L44 6L44 8L21 8 Z M 3 17C1.347656 17 0 18.347656 0 20L0 50L6 50L6 45L44 45L44 50L50 50L50 38L6 38L6 20C6 18.347656 4.652344 17 3 17 Z M 12 26C9.242188 26 7 28.242188 7 31C7 33.757813 9.242188 36 12 36C14.757813 36 17 33.757813 17 31C17 28.242188 14.757813 26 12 26 Z M 19 26C18.449219 26 18 26.445313 18 27L18 36L50 36L50 31C50 28.242188 47.757813 26 45 26Z"/></svg>