<svg xmlns="http://www.w3.org/2000/svg" xmlns:xlink="http://www.w3.org/1999/xlink" viewBox="0 0 50 50"><path d="M49.27,23.27c0,3.91-2.35,7.37-5.99,8.81l-15.53,5.7c-0.13,0.05-0.24,0.12-0.34,0.22l-9.86,9.84 C16.79,48.59,15.8,49,14.75,49c-0.21,0-0.42-0.01-0.62-0.05c-1.27-0.19-2.34-0.95-2.93-2.09L1.36,28.04 c-1.24-1.7-1.65-3.8-1.17-5.93c0.54-2.34,2.1-4.33,4.28-5.46L5,16.38c0.03,2.61,1.33,5.04,3.48,6.52l12.47,8.53 c1.52,1.04,3.3,1.57,5.08,1.57c1.1,0,2.21-0.2,3.27-0.61l12.61-4.9C43.16,27,44,25.77,44,24.37c0-1.54-1.04-2.95-2.66-3.32 c-0.65-0.15-1.33-0.06-1.96,0.17l-9.77,3.49c-0.41,0.14-0.67,0.52-0.67,0.93c0,0.12,0.02,0.23,0.06,0.34 c0.19,0.53,0.76,0.8,1.28,0.61l9.88-3.53c0.43-0.15,0.88-0.09,1.25,0.17c0.39,0.27,0.61,0.71,0.59,1.27 c-0.02,0.5-0.35,0.94-0.81,1.12l-12.62,4.9c-2.15,0.84-4.58,0.56-6.49-0.74L9.61,21.25C7.98,20.13,7,18.27,7,16.29V14.5 c0-2.51,1.59-4.78,3.95-5.64l10.34-4.09C24.52,3.64,28.15,4.11,31,6l14.05,9.38C47.69,17.14,49.27,20.09,49.27,23.27z"/></svg>