<svg xmlns="http://www.w3.org/2000/svg" xmlns:xlink="http://www.w3.org/1999/xlink" viewBox="0 0 50 50"><path d="M26.410156 4.078125C26.095062 4.0831924 25.779503 4.1025253 25.464844 4.1347656C24.625752 4.2207396 23.791489 4.4031919 22.978516 4.6855469L10.962891 8.8574219 A 1.0001 1.0001 0 0 0 10.949219 8.8632812C8.581384 9.7248553 7 11.98289 7 14.501953L7 15.308594C7 15.331364 7.015431 15.350307 7.015625 15.373047L4.4824219 16.640625 A 1.0001 1.0001 0 0 0 4.4707031 16.646484C0.22862996 18.842091 -1.3659578 24.229144 1.3359375 27.986328L11.197266 46.857422C12.430626 49.218501 15.666201 49.71719 17.552734 47.835938L27.414062 37.998047 A 1.0001 1.0001 0 0 0 27.416016 37.998047C27.512536 37.901527 27.62577 37.827022 27.751953 37.777344L44.007812 31.349609C47.621665 29.920825 50 26.422432 50 22.537109C50 19.369776 48.414538 16.409171 45.779297 14.652344L32.689453 5.9238281C30.810148 4.6709584 28.615814 4.0426535 26.410156 4.078125 z M 26.701172 6.0761719C27.044563 6.0805072 27.386437 6.1050462 27.726562 6.1484375C29.087066 6.3220026 30.407929 6.8064581 31.580078 7.5878906L44.669922 16.316406C46.75068 17.703579 48 20.036443 48 22.537109C48 25.607787 46.127632 28.361019 43.271484 29.490234L27.017578 35.917969C26.636764 36.068299 26.288837 36.295147 26 36.583984L16.140625 46.417969C15.169159 47.386716 13.605343 47.146561 12.970703 45.931641L3.0996094 27.039062 A 1.0001 1.0001 0 0 0 3.0136719 26.904297C0.97630631 24.183612 2.1093508 20.122146 5.390625 18.423828L7.5078125 17.363281C8.0044361 19.16488 8.9036254 20.829753 10.482422 21.910156L22.951172 30.441406C25.402753 32.119277 28.526473 32.478463 31.294922 31.402344L43.908203 26.501953C45.165901 26.013806 46 24.794533 46 23.445312L46 23.382812C46 21.073836 43.661306 19.41137 41.488281 20.189453C37.358038 21.668182 30.664063 24.058594 30.664062 24.058594 A 1.0001 1.0001 0 1 0 31.335938 25.941406C31.335938 25.941406 38.030353 23.551536 42.162109 22.072266C43.089084 21.740349 44 22.38379 44 23.382812L44 23.445312C44 23.976094 43.679849 24.444866 43.185547 24.636719L30.570312 29.539062C28.414762 30.376943 25.988497 30.097145 24.080078 28.791016L11.611328 20.259766C9.9756547 19.14044 9 17.290732 9 15.308594L9 14.501953C9 12.817975 10.048202 11.321286 11.630859 10.744141C11.630859 10.744141 11.632812 10.742188 11.632812 10.742188L23.634766 6.5742188C24.633055 6.2275012 25.670999 6.063166 26.701172 6.0761719 z"/></svg>