<svg xmlns="http://www.w3.org/2000/svg" xmlns:xlink="http://www.w3.org/1999/xlink" viewBox="0 0 50 50"><path d="M47.068359 2.1269531C46.989531 2.1214063 46.908328 2.126625 46.830078 2.140625C45.709078 2.332625 43.006281 2.8765781 42.113281 3.7675781C41.653962 4.2260803 41.378753 4.8141079 41.294922 5.4492188C40.595975 5.1612462 39.830488 5 39.029297 5L38.929688 5.0097656C38.819688 5.0197656 28.43 6.1191406 25 6.1191406C21.57 6.1191406 11.180312 5.0197656 11.070312 5.0097656L10.970703 5C10.169512 5 9.4040247 5.1612462 8.7050781 5.4492188C8.6208005 4.8141732 8.3456731 4.2265324 7.8867188 3.7675781C6.9947187 2.8755781 4.2909219 2.332625 3.1699219 2.140625C2.8489219 2.085625 2.5219687 2.1889687 2.2929688 2.4179688C2.0629688 2.6469687 1.959625 2.9749219 2.015625 3.2949219C2.207625 4.4159219 2.7515781 7.1177656 3.6425781 8.0097656C4.132921 8.5001085 4.7576334 8.7656661 5.4023438 8.8339844C5.1464223 9.4982145 5 10.217763 5 10.970703L5.0097656 11.070312C5.0197656 11.180312 6.1191406 21.57 6.1191406 25C6.1191406 28.43 5.0197656 38.819688 5.0097656 38.929688L5 39.029297C5 39.872577 5.1788104 40.676026 5.4960938 41.404297C4.7945748 41.452513 4.1404926 41.739476 3.6425781 42.238281C2.7515781 43.131281 2.207625 45.834078 2.015625 46.955078C1.960625 47.274078 2.0639688 47.602031 2.2929688 47.832031C2.4819687 48.021031 2.737 48.125 3 48.125C3.056 48.125 3.1139219 48.119375 3.1699219 48.109375C4.2909219 47.917375 6.9927656 47.373422 7.8847656 46.482422C7.8847656 46.482422 7.8867188 46.482422 7.8867188 46.482422C8.4186754 45.950465 8.6892802 45.259667 8.7246094 44.556641C9.4184774 44.839751 10.176672 45 10.970703 45L11.070312 44.990234C11.180312 44.980234 21.57 43.880859 25 43.880859C28.43 43.880859 38.819688 44.980234 38.929688 44.990234L39.029297 45C39.823328 45 40.581523 44.839751 41.275391 44.556641C41.310864 45.260292 41.580846 45.949987 42.113281 46.482422C43.006281 47.373422 45.709078 47.917375 46.830078 48.109375C46.886078 48.119375 46.943 48.125 47 48.125C47.263 48.125 47.518031 48.021031 47.707031 47.832031C47.937031 47.603031 48.040375 47.274078 47.984375 46.955078C47.792375 45.834078 47.248422 43.131281 46.357422 42.238281C45.84378 41.724639 45.181698 41.457177 44.503906 41.40625C44.821634 40.677551 45 39.873201 45 39.029297L44.990234 38.929688C44.980234 38.819688 43.880859 28.43 43.880859 25C43.880859 21.57 44.980234 11.180312 44.990234 11.070312L45 10.970703C45 10.218408 44.853161 9.4996957 44.597656 8.8359375C45.242924 8.7674644 45.868388 8.501846 46.359375 8.0117188C47.250375 7.1187188 47.794328 4.416875 47.986328 3.296875C48.041328 2.974875 47.937031 2.6469688 47.707031 2.4179688C47.534531 2.2462187 47.304844 2.1435937 47.068359 2.1269531 z M 14.169922 9L14.300781 9.0097656C14.380781 9.0197656 22.38 10.070313 25 10.070312C27.63 10.070312 35.619219 9.0197656 35.699219 9.0097656L35.830078 9C38.680078 9 41 11.319922 41 14.169922L40.990234 14.300781C40.980234 14.380781 39.929688 22.38 39.929688 25C39.929688 27.63 40.980234 35.619219 40.990234 35.699219L41 35.830078C41 38.680078 38.680078 41 35.830078 41L35.699219 40.990234C35.619219 40.980234 27.62 39.929688 25 39.929688C22.37 39.929688 14.380781 40.980234 14.300781 40.990234L14.169922 41C11.319922 41 9 38.680078 9 35.830078L9.0097656 35.699219C9.0197656 35.619219 10.070313 27.62 10.070312 25C10.070312 22.37 9.0197656 14.380781 9.0097656 14.300781L9 14.169922C9 11.319922 11.319922 9 14.169922 9 z M 14.109375 11C12.409375 11.03 11.03 12.409375 11 14.109375C11.11 14.959375 12.070312 22.35 12.070312 25C12.070312 27.65 11.11 35.040625 11 35.890625C11.03 37.590625 12.409375 38.97 14.109375 39C14.959375 38.89 22.35 37.929688 25 37.929688C27.65 37.929688 35.040625 38.89 35.890625 39C37.590625 38.97 38.97 37.590625 39 35.890625C38.89 35.040625 37.929688 27.65 37.929688 25C37.929688 22.35 38.89 14.959375 39 14.109375C38.97 12.409375 37.590625 11.03 35.890625 11C35.040625 11.11 27.65 12.070312 25 12.070312C22.35 12.070312 14.959375 11.11 14.109375 11 z"/></svg>