<svg xmlns="http://www.w3.org/2000/svg" xmlns:xlink="http://www.w3.org/1999/xlink" viewBox="0 0 50 50"><path d="M2.9707031 2.125 A 1.0001 1.0001 0 0 0 2.0136719 3.2949219C2.0136719 3.2949219 2.1662229 4.1811558 2.4199219 5.1757812C2.5467713 5.673094 2.6990392 6.1995106 2.8828125 6.6835938C3.0665858 7.1676769 3.2339134 7.6005653 3.6425781 8.0097656 A 1.0001 1.0001 0 0 0 3.6425781 8.0117188C4.1436805 8.5128225 4.7866815 8.7769648 5.4472656 8.8359375C5.160554 9.5327774 5 10.294154 5 11.091797L5 11.144531L5.0058594 11.197266C5.0058594 11.197266 6.1171875 21.816742 6.1171875 25.125C6.1171875 28.433258 5.0058594 39.052734 5.0058594 39.052734L5 39.105469L5 39.158203C5 39.955651 5.1605722 40.717263 5.4472656 41.414062C4.7866777 41.473537 4.1435665 41.73859 3.6425781 42.240234C3.2339134 42.649435 3.0665858 43.082323 2.8828125 43.566406C2.6990392 44.050489 2.5467713 44.576906 2.4199219 45.074219C2.1662229 46.068844 2.0136719 46.955078 2.0136719 46.955078 A 1.0001 1.0001 0 0 0 3.1699219 48.111328C3.1699219 48.111328 4.0561558 47.958777 5.0507812 47.705078C5.548094 47.578229 6.0745106 47.425961 6.5585938 47.242188C7.0426769 47.058414 7.4755653 46.891087 7.8847656 46.482422 A 1.0001 1.0001 0 0 0 7.8867188 46.482422C8.3879566 45.981185 8.651948 45.338256 8.7109375 44.677734C9.4077374 44.964428 10.169349 45.125 10.966797 45.125L11.019531 45.125L11.072266 45.119141C11.072266 45.119141 21.691742 44.007813 25 44.007812C28.308258 44.007812 38.927734 45.119141 38.927734 45.119141L38.980469 45.125L39.033203 45.125C39.830594 45.125 40.592274 44.964368 41.289062 44.677734C41.348098 45.338302 41.612312 45.981453 42.113281 46.482422 A 1.0001 1.0001 0 0 0 42.115234 46.482422C42.524435 46.891087 42.957323 47.058414 43.441406 47.242188C43.925489 47.425961 44.451906 47.578229 44.949219 47.705078C45.943844 47.958777 46.830078 48.111328 46.830078 48.111328 A 1.0001 1.0001 0 0 0 47.986328 46.955078C47.986328 46.955078 47.833777 46.068844 47.580078 45.074219C47.453229 44.576906 47.300961 44.050489 47.117188 43.566406C46.933414 43.082323 46.766087 42.649435 46.357422 42.240234 A 1.0001 1.0001 0 0 0 46.357422 42.238281C45.856142 41.737086 45.213282 41.473116 44.552734 41.414062C44.839446 40.717223 45 39.955846 45 39.158203L45 39.105469L44.994141 39.052734C44.994141 39.052734 43.882813 28.433258 43.882812 25.125C43.882812 21.816742 44.994141 11.197266 44.994141 11.197266L45 11.144531L45 11.091797C45 10.294408 44.839368 9.5327252 44.552734 8.8359375C45.213302 8.7769026 45.856453 8.5126871 46.357422 8.0117188 A 1.0001 1.0001 0 0 0 46.357422 8.0097656C46.766087 7.6005653 46.933414 7.1676768 47.117188 6.6835938C47.300961 6.1995106 47.453229 5.673094 47.580078 5.1757812C47.833777 4.1811558 47.986328 3.2949219 47.986328 3.2949219 A 1.0001 1.0001 0 0 0 47.041016 2.125 A 1.0001 1.0001 0 0 0 46.830078 2.1386719C46.830078 2.1386719 45.943844 2.2912229 44.949219 2.5449219C44.451906 2.6717713 43.925489 2.8240392 43.441406 3.0078125C42.957323 3.1915858 42.524435 3.3589134 42.115234 3.7675781 A 1.0001 1.0001 0 0 0 42.113281 3.7675781C41.612045 4.2688146 41.348052 4.9117442 41.289062 5.5722656C40.592223 5.285554 39.830846 5.125 39.033203 5.125L38.980469 5.125L38.927734 5.1308594C38.927734 5.1308594 28.308258 6.2421875 25 6.2421875C21.691742 6.2421875 11.072266 5.1308594 11.072266 5.1308594L11.019531 5.125L10.966797 5.125C10.169408 5.125 9.4077252 5.2856324 8.7109375 5.5722656C8.6517041 4.9116452 8.3865446 4.2687003 7.8847656 3.7675781C7.4755653 3.3589134 7.0426768 3.1915858 6.5585938 3.0078125C6.0745106 2.8240392 5.548094 2.6717713 5.0507812 2.5449219C4.0561557 2.2912229 3.1699219 2.1386719 3.1699219 2.1386719 A 1.0001 1.0001 0 0 0 2.9707031 2.125 z M 4.3027344 4.4277344C4.4297499 4.4576324 4.4237056 4.4485149 4.5566406 4.4824219C5.0085779 4.5976974 5.478505 4.7360702 5.8496094 4.8769531C6.2207137 5.0178361 6.4998567 5.2088054 6.4726562 5.1816406C6.8447023 5.5531996 6.8474338 6.1564723 6.4394531 6.5644531C6.0317741 6.9721321 5.4282451 6.9692609 5.0566406 6.5976562C5.0838053 6.6248572 4.8928361 6.3457137 4.7519531 5.9746094C4.6110702 5.603505 4.4726974 5.1335779 4.3574219 4.6816406C4.3235142 4.5487056 4.3326322 4.5547499 4.3027344 4.4277344 z M 45.697266 4.4277344C45.667366 4.5547499 45.676488 4.5487056 45.642578 4.6816406C45.527303 5.1335779 45.38893 5.603505 45.248047 5.9746094C45.107164 6.3457137 44.916195 6.6248567 44.943359 6.5976562C44.571446 6.9695697 43.967924 6.9718302 43.560547 6.5644531C43.15317 6.1570759 43.156045 5.5529362 43.527344 5.1816406C43.500144 5.2088056 43.779286 5.0178361 44.150391 4.8769531C44.521495 4.7360702 44.991422 4.5976974 45.443359 4.4824219C45.576294 4.4485139 45.57025 4.4576314 45.697266 4.4277344 z M 10.957031 7.1269531C11.096246 7.1419616 21.293522 8.2421875 25 8.2421875C28.706478 8.2421875 38.903788 7.1419616 39.042969 7.1269531C41.238305 7.1324931 42.992509 8.8876404 42.998047 11.082031C42.983037 11.221212 41.882813 21.418522 41.882812 25.125C41.882812 28.831478 42.983038 39.028788 42.998047 39.167969C42.992547 41.363305 41.23736 43.117509 39.042969 43.123047C38.903788 43.108038 28.706478 42.007813 25 42.007812C21.293522 42.007812 11.096212 43.108038 10.957031 43.123047C8.7628812 43.117505 7.0074946 41.362119 7.0019531 39.167969C7.0169616 39.028788 8.1171875 28.831478 8.1171875 25.125C8.1171875 21.418522 7.0169616 11.221212 7.0019531 11.082031C7.0074931 8.8866954 8.7626404 7.1324908 10.957031 7.1269531 z M 14.167969 9.125C11.325569 9.125 9 11.451624 9 14.292969L9 14.357422L9.0078125 14.423828C9.0078125 14.423828 9.2744666 16.443278 9.5410156 18.800781C9.8075647 21.158285 10.070312 23.895702 10.070312 25.125C10.070312 26.354298 9.8075647 29.091715 9.5410156 31.449219C9.2744666 33.806722 9.0078125 35.826172 9.0078125 35.826172L9 35.892578L9 35.957031C9 38.799431 11.326624 41.125 14.167969 41.125L14.232422 41.125L14.298828 41.117188C14.298828 41.117188 16.318278 40.850533 18.675781 40.583984C21.033285 40.317435 23.770702 40.054687 25 40.054688C26.229298 40.054688 28.966715 40.317435 31.324219 40.583984C33.681722 40.850533 35.701172 41.117188 35.701172 41.117188L35.767578 41.125L35.832031 41.125C38.674429 41.125003 41 38.798376 41 35.957031L41 35.892578L40.992188 35.826172C40.992188 35.826172 40.725533 33.806722 40.458984 31.449219C40.192435 29.091715 39.929687 26.354298 39.929688 25.125C39.929688 23.895702 40.192435 21.158285 40.458984 18.800781C40.725533 16.443278 40.992188 14.423828 40.992188 14.423828L41 14.357422L41 14.292969C41 11.450569 38.673376 9.125 35.832031 9.125L35.767578 9.125L35.701172 9.1328125C35.701172 9.1328125 33.681722 9.3994666 31.324219 9.6660156C28.966716 9.9325672 26.229298 10.195312 25 10.195312C23.770702 10.195312 21.033285 9.9325647 18.675781 9.6660156C16.318278 9.3994666 14.298828 9.1328125 14.298828 9.1328125L14.232422 9.125L14.167969 9.125 z M 14.142578 11.130859C14.238298 11.143469 16.130329 11.391893 18.451172 11.654297C20.829919 11.923248 23.508298 12.195312 25 12.195312C26.491702 12.195312 29.170081 11.923248 31.548828 11.654297C33.869671 11.391893 35.761697 11.143473 35.857422 11.130859C37.596277 11.145179 38.979815 12.527807 38.994141 14.267578C38.981531 14.363298 38.733107 16.255329 38.470703 18.576172C38.201752 20.954919 37.929687 23.633298 37.929688 25.125C37.929688 26.616702 38.201752 29.295081 38.470703 31.673828C38.733107 33.994671 38.981527 35.886697 38.994141 35.982422C38.979821 37.721277 37.597193 39.104815 35.857422 39.119141C35.761692 39.106531 33.869671 38.858107 31.548828 38.595703C29.17008 38.326752 26.491702 38.054688 25 38.054688C23.508298 38.054688 20.829919 38.326752 18.451172 38.595703C16.130329 38.858107 14.238303 39.106527 14.142578 39.119141C12.403723 39.104821 11.020185 37.722193 11.005859 35.982422C11.018469 35.886692 11.266893 33.994671 11.529297 31.673828C11.798248 29.295081 12.070312 26.616702 12.070312 25.125C12.070312 23.633298 11.798248 20.954919 11.529297 18.576172C11.266893 16.255329 11.018473 14.363303 11.005859 14.267578C11.020179 12.528723 12.402807 11.145185 14.142578 11.130859 z M 5.734375 43.376953C5.9822626 43.380653 6.2356136 43.481707 6.4394531 43.685547C6.8468303 44.092924 6.8439519 44.697064 6.4726562 45.068359C6.4998562 45.041199 6.2207137 45.232164 5.8496094 45.373047C5.478505 45.51393 5.0085779 45.652303 4.5566406 45.767578C4.4237056 45.801488 4.4297499 45.792366 4.3027344 45.822266C4.3326324 45.69525 4.3235149 45.701294 4.3574219 45.568359C4.4726974 45.116422 4.6110702 44.646495 4.7519531 44.275391C4.8928361 43.904286 5.0838054 43.625143 5.0566406 43.652344C5.2425743 43.466166 5.4864874 43.373253 5.734375 43.376953 z M 44.265625 43.376953C44.513988 43.373253 44.757712 43.466693 44.943359 43.652344C44.916199 43.625144 45.107164 43.904286 45.248047 44.275391C45.38893 44.646495 45.527303 45.116422 45.642578 45.568359C45.676488 45.701294 45.667366 45.69525 45.697266 45.822266C45.57025 45.792366 45.576294 45.801488 45.443359 45.767578C44.991422 45.652303 44.521495 45.51393 44.150391 45.373047C43.779286 45.232164 43.500143 45.041195 43.527344 45.068359C43.15543 44.696446 43.153173 44.092924 43.560547 43.685547C43.764235 43.481858 44.017262 43.380693 44.265625 43.376953 z"/></svg>