<svg xmlns="http://www.w3.org/2000/svg" xmlns:xlink="http://www.w3.org/1999/xlink" viewBox="0 0 50 50"><path d="M25 5C18.226563 5 12.105469 6.246094 7.59375 8.3125C5.335938 9.347656 3.492188 10.578125 2.15625 12.03125C0.820313 13.484375 0 15.183594 0 17L0 45C0 45.550781 0.449219 46 1 46L5 46C5.550781 46 6 45.550781 6 45L6 43C6 42.445313 6.445313 42 7 42L43 42C43.554688 42 44 42.445313 44 43L44 45C44 45.550781 44.449219 46 45 46L49 46C49.550781 46 50 45.550781 50 45L50 17C50 15.183594 49.179688 13.484375 47.84375 12.03125C46.507813 10.578125 44.664063 9.347656 42.40625 8.3125C37.894531 6.246094 31.773438 5 25 5 Z M 25 7C31.527344 7 37.402344 8.21875 41.5625 10.125C43.644531 11.078125 45.289063 12.191406 46.375 13.375C47.460938 14.558594 48 15.765625 48 17L48 25.1875C47.683594 25.074219 47.351563 25 47 25L46 25L46 21C46 20.65625 45.820313 20.339844 45.53125 20.15625C45.53125 20.15625 44.5625 19.558594 42.8125 19.03125C41.0625 18.503906 38.449219 18 35 18C31.550781 18 28.9375 18.503906 27.1875 19.03125C26.109375 19.355469 25.441406 19.652344 25 19.875C24.558594 19.652344 23.890625 19.355469 22.8125 19.03125C21.0625 18.503906 18.449219 18 15 18C11.550781 18 8.9375 18.503906 7.1875 19.03125C5.4375 19.558594 4.46875 20.15625 4.46875 20.15625C4.179688 20.339844 4 20.65625 4 21L4 25L3 25C2.648438 25 2.316406 25.074219 2 25.1875L2 17C2 15.765625 2.539063 14.558594 3.625 13.375C4.710938 12.191406 6.355469 11.078125 8.4375 10.125C12.597656 8.21875 18.472656 7 25 7 Z M 23 10C21.898438 10 21 10.898438 21 12C21 14 25 17 25 17C25 17 29 14 29 12C29 10.898438 28.101563 10 27 10C25.898438 10 25 11 25 11C25 11 24.101563 10 23 10 Z M 15 20C18.25 20 20.644531 20.496094 22.21875 20.96875C23.464844 21.34375 23.765625 21.527344 24 21.65625L24 25L6 25L6 21.65625C6.234375 21.527344 6.535156 21.34375 7.78125 20.96875C9.355469 20.496094 11.75 20 15 20 Z M 35 20C38.25 20 40.644531 20.496094 42.21875 20.96875C43.464844 21.34375 43.765625 21.527344 44 21.65625L44 25L26 25L26 21.65625C26.234375 21.527344 26.535156 21.34375 27.78125 20.96875C29.355469 20.496094 31.75 20 35 20 Z M 3 27L47 27C47.554688 27 48 27.445313 48 28L48 44L46 44L46 43C46 41.355469 44.644531 40 43 40L7 40C5.355469 40 4 41.355469 4 43L4 44L2 44L2 28C2 27.445313 2.445313 27 3 27Z"/></svg>