<svg xmlns="http://www.w3.org/2000/svg" xmlns:xlink="http://www.w3.org/1999/xlink" viewBox="0 0 50 50"><path d="M25 5C10.980469 5 0 10.269531 0 17L0 26.03125C0.839844 25.398438 1.871094 25 3 25L4 25L4 21C4 20.710938 4.125 20.441406 4.34375 20.25C4.609375 20.019531 7.125 18 14 18C20.875 18 23.390625 20.019531 23.65625 20.25C23.875 20.441406 24 20.710938 24 21L24 25L26 25L26 21C26 20.710938 26.125 20.441406 26.34375 20.25C26.605469 20.019531 29.125 18 36 18C42.875 18 45.394531 20.019531 45.65625 20.25C45.875 20.441406 46 20.710938 46 21L46 25L47 25C48.128906 25 49.160156 25.398438 50 26.03125L50 17C50 10.269531 39.019531 5 25 5 Z M 23 10C24.101563 10 25 11 25 11C25 11 25.898438 10 27 10C28.101563 10 29 10.898438 29 12C29 14 25 17 25 17C25 17 21 14 21 12C21 10.898438 21.898438 10 23 10 Z M 3 27C1.347656 27 0 28.347656 0 30L0 45C0 45.554688 0.449219 46 1 46L5 46C5.550781 46 6 45.554688 6 45L6 43C6 42.449219 6.449219 42 7 42L43 42C43.550781 42 44 42.449219 44 43L44 45C44 45.554688 44.445313 46 45 46L49 46C49.554688 46 50 45.554688 50 45L50 30C50 28.347656 48.652344 27 47 27Z"/></svg>