<svg xmlns="http://www.w3.org/2000/svg" xmlns:xlink="http://www.w3.org/1999/xlink" viewBox="0 0 50 50"><path d="M3 9C1.3545455 9 0 10.354545 0 12L0 42L6 42L6 37L44 37L44 42L50 42L50 29L50 28L50 27C50 24.254545 47.745455 22 45 22L21 22 A 1.0001 1.0001 0 0 0 20 23L20 28L19.990234 28 A 1.0001 1.0001 0 0 0 19.962891 27.859375C19.962891 27.859375 18.686818 22.784509 14.527344 20.820312C13.489567 20.330251 12.413269 20.096215 11.382812 20.021484C8.9348293 19.843953 6.8055853 20.542355 6 20.849609L6 12C6 10.354545 4.6454545 9 3 9 z M 11.248047 22.056641C12.073841 22.103781 12.911605 22.268967 13.673828 22.628906C16.108224 23.778482 17.186298 26.305558 17.621094 27.457031C16.950797 27.670474 15.789901 27.987024 14.466797 28L14.037109 28C13.16748 27.961536 12.243376 27.777938 11.347656 27.330078 A 1.0001 1.0001 0 0 0 11.326172 27.320312C8.8947024 26.172155 7.8245508 23.727704 7.3847656 22.587891C8.1959031 22.328179 9.4291133 21.952797 11.248047 22.056641 z M 22 24L45 24C46.654545 24 48 25.345455 48 27L48 28L22 28L22 24 z M 6 24.53125C6.5802025 25.64641 7.4487205 26.945229 8.7265625 28L6 28L6 24.53125 z"/></svg>