<svg xmlns="http://www.w3.org/2000/svg" xmlns:xlink="http://www.w3.org/1999/xlink" viewBox="0 0 50 50"><path d="M26.15625 0.03125C25.394531 0.0976563 24.6875 0.5 24.3125 1.1875C23.210938 3.289063 25.40625 7.90625 25.40625 7.90625C25.40625 7.90625 30.585938 7.3125 31.6875 5.3125C32.289063 4.210938 31.914063 2.695313 30.8125 2.09375C30.113281 1.695313 29.386719 1.699219 28.6875 2C28.585938 1.300781 28.199219 0.710938 27.5 0.3125C27.085938 0.0859375 26.613281 -0.0078125 26.15625 0.03125 Z M 18.28125 4.9375C18.054688 4.941406 17.820313 4.992188 17.59375 5.09375C17.09375 5.292969 16.695313 5.8125 16.59375 6.3125C16.195313 6.011719 15.601563 5.988281 15 6.1875C14.101563 6.585938 13.695313 7.601563 14.09375 8.5C14.792969 10.101563 18.5 10.90625 18.5 10.90625C18.5 10.90625 20.507813 7.601563 19.90625 6C19.605469 5.324219 18.960938 4.921875 18.28125 4.9375 Z M 12 15C9.242188 15 7 17.242188 7 20C7 22.757813 9.242188 25 12 25C14.757813 25 17 22.757813 17 20C17 17.242188 14.757813 15 12 15 Z M 19 15C18.449219 15 18 15.445313 18 16L18 36L50 36L50 20C50 17.242188 47.757813 15 45 15 Z M 3 17C1.347656 17 0 18.347656 0 20L0 50L6 50L6 45L44 45L44 50L50 50L50 38L6 38L6 20C6 18.347656 4.652344 17 3 17 Z M 31.3125 21C32.414063 21 33.402344 21.507813 34 22.40625C34.601563 21.605469 35.585938 21 36.6875 21C38.488281 21 40 22.511719 40 24.3125C40 27.613281 34 31 34 31C34 31 28 27.710938 28 24.3125C28 22.511719 29.511719 21 31.3125 21 Z M 12 26C9.242188 26 7 28.242188 7 31C7 33.757813 9.242188 36 12 36C14.757813 36 17 33.757813 17 31C17 28.242188 14.757813 26 12 26Z"/></svg>