<svg xmlns="http://www.w3.org/2000/svg" xmlns:xlink="http://www.w3.org/1999/xlink" viewBox="0 0 50 50"><path d="M26.15625 0.03125C25.394531 0.0976563 24.6875 0.5 24.3125 1.1875C23.210938 3.289063 25.40625 7.90625 25.40625 7.90625C25.40625 7.90625 30.585938 7.3125 31.6875 5.3125C32.289063 4.210938 31.914063 2.695313 30.8125 2.09375C30.113281 1.695313 29.386719 1.699219 28.6875 2C28.585938 1.300781 28.199219 0.710938 27.5 0.3125C27.085938 0.0859375 26.613281 -0.0078125 26.15625 0.03125 Z M 18.28125 4.9375C18.054688 4.941406 17.820313 4.992188 17.59375 5.09375C17.09375 5.292969 16.695313 5.8125 16.59375 6.3125C16.195313 6.011719 15.601563 5.988281 15 6.1875C14.101563 6.585938 13.695313 7.601563 14.09375 8.5C14.792969 10.101563 18.5 10.90625 18.5 10.90625C18.5 10.90625 20.507813 7.601563 19.90625 6C19.605469 5.324219 18.960938 4.921875 18.28125 4.9375 Z M 12 15C9.25 15 7 17.25 7 20C7 22.75 9.25 25 12 25C14.75 25 17 22.75 17 20C17 17.25 14.75 15 12 15 Z M 18.8125 15C18.335938 15.089844 17.992188 15.511719 18 16L18 36L6 36L6 20C6 18.355469 4.644531 17 3 17C1.355469 17 0 18.355469 0 20L0 50L6 50L6 45L44 45L44 50L50 50L50 37.15625C50.003906 37.105469 50.003906 37.050781 50 37L50 20C50 17.253906 47.746094 15 45 15L19 15C18.96875 15 18.9375 15 18.90625 15C18.875 15 18.84375 15 18.8125 15 Z M 12 36C14.75 36 17 33.75 17 31C17 28.25 14.75 26 12 26C9.25 26 7 28.25 7 31C7 33.75 9.25 36 12 36 Z M 12 17C13.667969 17 15 18.332031 15 20C15 21.667969 13.667969 23 12 23C10.332031 23 9 21.667969 9 20C9 18.332031 10.332031 17 12 17 Z M 20 17L45 17C46.65625 17 48 18.34375 48 20L48 36L20 36 Z M 3 19C3.554688 19 4 19.445313 4 20L4 38L48 38L48 48L46 48L46 43L4 43L4 48L2 48L2 20C2 19.445313 2.445313 19 3 19 Z M 31.3125 20C28.957031 20 27 21.957031 27 24.3125C27 26.601563 28.789063 28.367188 30.375 29.6875C31.960938 31.007813 33.53125 31.875 33.53125 31.875L34 32.15625L34.5 31.875C34.5 31.875 36.074219 30.988281 37.65625 29.65625C39.238281 28.324219 41 26.570313 41 24.3125C41 21.957031 39.042969 20 36.6875 20C35.621094 20 34.742188 20.472656 34 21.09375C33.234375 20.445313 32.335938 20 31.3125 20 Z M 31.3125 22C32.109375 22 32.746094 22.351563 33.15625 22.96875L33.9375 24.125L34.8125 23C35.238281 22.433594 35.949219 22 36.6875 22C37.933594 22 39 23.066406 39 24.3125C39 25.355469 37.761719 26.929688 36.34375 28.125C35.164063 29.117188 34.332031 29.566406 33.96875 29.78125C33.59375 29.5625 32.792969 29.128906 31.625 28.15625C30.210938 26.976563 29 25.425781 29 24.3125C29 23.066406 30.066406 22 31.3125 22 Z M 12 28C13.667969 28 15 29.332031 15 31C15 32.667969 13.667969 34 12 34C10.332031 34 9 32.667969 9 31C9 29.332031 10.332031 28 12 28Z"/></svg>