<svg xmlns="http://www.w3.org/2000/svg" xmlns:xlink="http://www.w3.org/1999/xlink" viewBox="0 0 50 50"><path d="M3 9C1.3545455 9 0 10.354545 0 12L0 42L6 42L6 37L44 37L44 42L50 42L50 28L50 23C50 20.254545 47.745455 18 45 18L19 18 A 1.0001 1.0001 0 0 0 18 19L18 28L12 28L6 28L6 12C6 10.354545 4.6454545 9 3 9 z M 12 28C14.749579 28 17 25.749579 17 23C17 20.250421 14.749579 18 12 18C9.2504209 18 7 20.250421 7 23C7 25.749579 9.2504209 28 12 28 z M 12 20C13.668699 20 15 21.331301 15 23C15 24.668699 13.668699 26 12 26C10.331301 26 9 24.668699 9 23C9 21.331301 10.331301 20 12 20 z M 20 20L45 20C46.654545 20 48 21.345455 48 23L48 28L20 28L20 20 z"/></svg>