<svg xmlns="http://www.w3.org/2000/svg" xmlns:xlink="http://www.w3.org/1999/xlink" viewBox="0 0 50 50"><path d="M48.87,41.175c0.02,0.19,0.03,0.38,0.01,0.57v0.01c-0.03,0.4-0.12,0.8-0.34,1.15c-0.09,0.16-0.2,0.3-0.34,0.44 c-1.49,1.46-4.2,0.68-6.83-0.07l-0.64-0.19c-0.93-0.26-2.12-0.39-3.73-0.4c-0.73,0-1.5,0.02-2.3,0.05 c-0.81,0.03-1.66,0.07-2.54,0.12c-1.99,0.1-4.24,0.21-6.63,0.21h-1.06c-2.38,0-4.64-0.11-6.63-0.21c-3.51-0.18-6.55-0.34-8.57,0.23 l-0.64,0.19c-1.54,0.44-3.12,0.89-4.46,0.89c-0.94,0-1.76-0.22-2.37-0.82c-1.24-1.23-0.62-3.23-0.17-4.69 c0.1-0.34,0.2-0.65,0.25-0.9c0.12-0.59,0.3-1.19,0.47-1.76c0.05-0.16,0.09-0.31,0.14-0.47c1.06,1.33,2.39,2.55,4.01,3.47 c0.16,0.09,0.33,0.13,0.5,0.13c0.35,0,0.68-0.18,0.87-0.5c0.27-0.48,0.11-1.09-0.37-1.37c-2.54-1.45-4.27-3.76-5.3-5.9 c-0.01-0.02-0.01-0.03-0.02-0.04C1.06,28.395,1,25.635,1,25.125c0-3.06,0.37-5.7,0.67-7.81c0.25-1.76,0.45-3.15,0.34-4.07 c-0.08-0.63-0.26-1.32-0.43-1.99c-0.41-1.62-0.84-3.29,0.22-4.34c1.47-1.47,4.18-0.69,6.81,0.06l1.24,0.35 c0.64,0.19,1.49,0.43,2.38,0.64c-1.84,1.07-3.62,2.55-5.05,4.59c-0.32,0.45-0.21,1.07,0.25,1.39c0.17,0.12,0.37,0.18,0.57,0.18 c0.31,0,0.62-0.15,0.82-0.43c3.15-4.49,8.26-5.92,11.49-6.37c0.04,0,0.08-0.01,0.12-0.01c1.5-0.14,2.79-0.13,3.67-0.13h1.43 c2.38,0,4.64,0.11,6.63,0.21c3.51,0.18,6.55,0.33,8.57-0.23l0.66-0.19c2.63-0.75,5.34-1.53,6.81-0.06c1.06,1.05,0.63,2.72,0.22,4.34 c-0.17,0.67-0.35,1.36-0.43,1.99c-0.11,0.92,0.09,2.31,0.34,4.07c0.3,2.11,0.67,4.75,0.67,7.81c0,2.13-0.68,6.63-1.15,9.66 c-0.91-1.4-1.85-2.97-1.85-3.66c0-0.55-0.45-1-1-1s-1,0.45-1,1c0,1.39,1.21,3.33,2.93,5.91c0.68,1.02,1.695,2.715,1.94,4.13 C48.87,41.175,48.87,41.175,48.87,41.175z"/></svg>