<svg xmlns="http://www.w3.org/2000/svg" xmlns:xlink="http://www.w3.org/1999/xlink" viewBox="0 0 50 50"><path d="M4.4550781 6.0878906C4.1307314 6.0696775 3.8086337 6.0738 3.4960938 6.1152344C2.8716028 6.1980254 2.2863647 6.4277601 1.7988281 6.9121094C1.3352804 7.371365 1.1599955 7.9909111 1.1328125 8.5371094C1.1056295 9.0833076 1.1957605 9.6083488 1.3105469 10.140625C1.5401192 11.205177 1.8923635 12.313128 2.0078125 13.248047C2.115328 14.117805 1.9011917 15.707705 1.6152344 17.734375C1.3292771 19.761045 1 22.253246 1 25.125C1 26.513069 1.2216435 28.781904 2.0917969 31.136719C2.3127515 31.734668 2.5792485 32.339282 2.8945312 32.933594C2.9951944 34.246041 2.2452125 35.928234 1.8789062 37.759766C1.7974743 38.165295 1.4350895 39.132296 1.2207031 40.132812C1.113428 40.633454 1.0381572 41.159655 1.0859375 41.710938C1.1337175 42.26222 1.3302666 42.873787 1.7988281 43.337891L1.8007812 43.339844C2.7801118 44.305782 4.148877 44.255107 5.4355469 44.052734C6.7222167 43.850361 8.0776021 43.423378 9.2714844 43.087891C12.219761 42.258879 17.72846 43.066406 24.466797 43.066406L25 43.066406L25.533203 43.066406C28.972774 43.066406 32.073083 42.832326 34.695312 42.732422C35.5109 42.701742 36.279125 42.684603 36.994141 42.689453C38.487974 42.699153 39.752375 42.813488 40.728516 43.087891C41.922398 43.423378 43.277657 43.852316 44.564453 44.054688C45.851249 44.257058 47.219478 44.307314 48.199219 43.341797C48.90232 42.648688 48.95091 41.706532 48.869141 40.990234C48.787371 40.273937 48.578095 39.631715 48.488281 39.255859C48.352033 38.685547 48.072409 38.130872 47.71875 37.419922C47.656285 37.294349 47.57448 37.13724 47.507812 37.005859C47.660834 35.958533 48.005145 33.86431 48.335938 31.564453C48.683115 29.150677 49 26.671934 49 25.125C49 22.253246 48.670723 19.761045 48.384766 17.734375C48.098808 15.707705 47.884671 14.117805 47.992188 13.248047C48.107636 12.313128 48.459881 11.205177 48.689453 10.140625C48.804239 9.6083488 48.89437 9.0833076 48.867188 8.5371094C48.840007 7.9909111 48.66472 7.371365 48.201172 6.9121094C47.713635 6.4277601 47.128397 6.1980251 46.503906 6.1152344C45.878826 6.0323654 45.215693 6.0960396 44.572266 6.1972656C43.285411 6.3997184 41.927903 6.8272213 40.730469 7.1621094C37.779516 7.9881314 32.271139 7.1835938 25.533203 7.1835938L25 7.1835938L24.466797 7.1835938C22.858525 7.1835938 19.056754 7.0593241 15.248047 8.3808594C13.504171 8.4070292 10.70998 7.5655994 9.2695312 7.1621094C8.0720976 6.8272213 6.7145892 6.3997184 5.4277344 6.1972656C5.1060207 6.1466525 4.7794249 6.1061037 4.4550781 6.0878906 z M 4.3964844 8.1015625C4.6110037 8.1090861 4.8513387 8.1320038 5.1171875 8.1738281C6.1805827 8.3411254 7.4929024 8.7417787 8.7304688 9.0878906C9.4660022 9.2939239 10.656875 9.6623215 11.962891 9.9570312C10.569411 10.845201 9.2645575 12.003757 8.1816406 13.550781L9.8183594 14.699219C13.842904 8.9498692 21.621696 9.1835937 24.466797 9.1835938L25 9.1835938L25.533203 9.1835938C32.093267 9.1835938 37.468484 10.151869 41.269531 9.0878906C42.507097 8.7417787 43.819417 8.3411254 44.882812 8.1738281C45.946208 8.0065309 46.608591 8.1466541 46.792969 8.3300781L46.792969 8.3320312L46.794922 8.3320312C46.817372 8.3542753 46.857161 8.3961361 46.869141 8.6367188C46.881111 8.8773016 46.832461 9.2639012 46.734375 9.71875C46.538197 10.628448 46.157364 11.790872 46.007812 13.001953C45.836329 14.389195 46.120504 16.002342 46.404297 18.013672C46.688042 20.025004 47 22.405754 47 25.125C47 26.377066 46.698791 28.892323 46.355469 31.279297C46.197583 32.377006 46.10185 32.964372 45.955078 33.908203C45.759375 33.489676 45.579531 33.083297 45.431641 32.708984C45.148421 31.992153 45 31.360333 45 31.125L43 31.125C43 31.889667 43.249391 32.62616 43.572266 33.443359C43.89514 34.260559 44.312473 35.131524 44.736328 35.974609C45.160183 36.817695 45.59055 37.632716 45.927734 38.310547C46.264919 38.988378 46.509717 39.581515 46.542969 39.720703C46.664155 40.227847 46.832332 40.774595 46.882812 41.216797C46.933293 41.658999 46.867775 41.846124 46.796875 41.916016C46.605615 42.104499 45.937704 42.245254 44.875 42.078125C43.812296 41.910996 42.504602 41.510576 41.271484 41.164062C40.013625 40.810465 38.59198 40.699747 37.007812 40.689453C36.248829 40.684353 35.453506 40.703065 34.621094 40.734375L34.619141 40.734375C31.93937 40.836471 28.881633 41.066406 25.533203 41.066406L25 41.066406L24.466797 41.066406C17.907134 41.066406 12.530239 40.093124 8.7285156 41.162109C7.4954479 41.508627 6.1875802 41.909045 5.125 42.076172C4.0634933 42.24313 3.3984681 42.103791 3.2070312 41.916016L3.2050781 41.916016C3.1485691 41.859616 3.0987171 41.774698 3.078125 41.537109C3.057405 41.298048 3.0920562 40.941516 3.1757812 40.550781C3.343231 39.769313 3.685909 38.919409 3.8398438 38.150391C3.998987 37.354674 4.3575633 36.430943 4.6191406 35.416016C5.3274841 36.19704 6.1697708 36.900725 7.1699219 37.472656L8.1640625 35.736328C6.0174469 34.508798 4.7298466 32.503044 3.96875 30.443359C3.2076534 28.383674 3 26.288931 3 25.125C3 22.405754 3.3119104 20.025001 3.5957031 18.013672C3.8794958 16.002342 4.163672 14.389195 3.9921875 13.001953C3.8426365 11.790872 3.4618027 10.628448 3.265625 9.71875C3.1675362 9.2639012 3.1188861 8.8773016 3.1308594 8.6367188C3.1428326 8.3961357 3.1826259 8.3542757 3.2050781 8.3320312L3.2070312 8.3320312L3.2070312 8.3300781C3.345317 8.1925077 3.7529264 8.0789918 4.3964844 8.1015625 z"/></svg>