<?xml version="1.0" encoding="utf-8"?><svg version="1.1" id="Layer_1" xmlns="http://www.w3.org/2000/svg" xmlns:xlink="http://www.w3.org/1999/xlink" x="0px" y="0px" viewBox="0 0 122.88 101.22" style="enable-background:new 0 0 122.88 101.22" xml:space="preserve"><g><path d="M75.94,23.86l-0.01-0.15l-0.01-0.17h-0.01c0-2.78,0.06-6.16,0.12-9.52c0.06-3.13,0.11-6.25,0.11-9.32 c0-0.18-0.01-0.37-0.04-0.58C76.08,4,76.05,3.88,76.01,3.78c-0.03-0.08-0.05-0.12-0.06-0.12l0,0.01c0,0,0,0.01,0,0.01 c-0.41-0.06-1.08,0.51-1.7,1.04c-0.19,0.17-0.39,0.33-0.63,0.52c-1.24,1.16-2.69,2.02-4.28,2.68c-1.52,0.64-3.17,1.1-4.86,1.49 L64.4,9.42c-3.23,0.73-6.23,1.4-9,2c-2.71,0.59-5.81,1.24-9.27,1.96c-2.05,0.42-4.04,0.76-6.03,1.1c-3.09,0.53-6.19,1.05-8.88,1.76 c-0.07,0.02-0.13,0.03-0.2,0.04l0,0c-2.83,0.41-4.03,0.27-5.26,0.12c-0.69-0.08-1.39-0.16-2.48-0.11 c-1.12,0.05-2.48,0.07-3.94,0.04c-1.54-0.02-3.14-0.08-4.66-0.17c-1.22,0.03-3.12-0.26-5.16-0.57c-8.38-1.62-5.37-0.63-5.16-0.21 c0.1,0.21,0.19,0.37,0.23,0.47L9.95,28.2c0.03,0.06,0.05,0.12,0.07,0.19l3.68,11.68c0.03,0.08,0.04,0.16,0.06,0.24l2.29,10.97 l0.03,0.16l0,0l0.12,0.99c0.96,8.16,1.91,16.13,3.43,18.85c0.44,0.79,0.24,1.76-0.43,2.31c-0.74,0.61-1.33,1.71-1.8,3.24 c-0.53,1.73-0.86,3.95-1.04,6.58l-0.01,0.1l-0.34,2.88c0,0.04-0.08,0.04-0.05,0.05c0.96,0.11,2.62-0.42,3.6-0.73l0.32-0.1 c0.06-0.02,0.13-0.04,0.19-0.05c1.6-0.32,3.44-0.8,5.42-1.39c1.98-0.59,4.13-1.3,6.33-2.06c2-0.69,3.52-1.19,5.11-1.61 c1.56-0.42,3.15-0.75,5.31-1.09l4.75-0.76l0,0l1.81-0.4c0.21,1.27,0.43,2.48,0.67,3.61l-1.69,0.37l0-0.01l-0.11,0.02l-4.85,0.77 c-1.98,0.31-3.46,0.62-4.94,1.02c-1.45,0.39-2.92,0.87-4.86,1.54c-2.21,0.76-4.39,1.48-6.47,2.1c-2.05,0.61-3.96,1.12-5.67,1.46 l-0.2,0.07c-1.26,0.4-3.39,1.08-5.14,0.87c-2.05-0.24-3.48-1.34-3.16-4.11l0.34-2.87c0.19-2.86,0.58-5.32,1.19-7.32 c0.49-1.61,1.13-2.94,1.95-3.96c-1.52-3.9-2.4-11.35-3.29-18.95l-0.11-0.94l-2.26-10.83L6.56,29.55l-5.3-12.19 c-0.04-0.08-0.09-0.19-0.16-0.33c-0.66-1.3-1.91-3.77-0.32-5.02c1.54-1.22,5.63-0.6,9.29-0.04c1.91,0.29,3.68,0.56,4.52,0.54 c0.08-0.01,0.15-0.01,0.23,0c1.58,0.09,3.16,0.15,4.59,0.18c1.35,0.02,2.63,0.01,3.71-0.04c1.42-0.07,2.25,0.03,3.06,0.13 c0.99,0.12,1.95,0.23,4.25-0.1c2.87-0.74,5.97-1.27,9.05-1.8c2.06-0.35,4.11-0.7,5.92-1.07c2.77-0.57,5.84-1.22,9.23-1.96 c3.28-0.71,6.28-1.37,8.97-1.98l0.07-0.02c1.51-0.35,2.96-0.75,4.27-1.3c1.22-0.51,2.32-1.15,3.21-2l0.14-0.11 c0.15-0.12,0.37-0.3,0.58-0.49c1.24-1.06,2.55-2.18,4.58-1.89c0.67,0.09,1.26,0.34,1.77,0.75l0,0c0.49,0.39,0.88,0.91,1.16,1.55 c0.18,0.42,0.29,0.84,0.35,1.25c0.05,0.35,0.07,0.72,0.07,1.11c0,3.13-0.06,6.25-0.11,9.38c-0.05,2.87-0.1,5.75-0.11,9.14 C78.43,23.44,77.19,23.65,75.94,23.86L75.94,23.86z M120.24,77.93c-0.95-4.29-1.31-9.16-2.25-13.45l-3.22-14.63 c-0.87-3.98-1.49-7.04-1.89-11.09c0-6.07,0.22-12.17,0.22-18.18c0-0.55-0.05-1.09-0.26-1.59c-0.3-0.7-0.79-1.07-1.44-1.16 c-1.46-0.21-2.57,1.08-3.66,1.94c-2.07,1.96-4.96,2.91-8.05,3.63c-5.76,1.31-11.66,2.58-17.67,3.83 c-4.71,0.98-10.02,1.61-14.48,2.78c-4.19,0.6-4.3-0.15-7.3,0c-2.2,0.11-5.26,0.04-8.19-0.13c-1.91,0.09-3.57-0.36-5.19-0.64 c-0.95-0.25-1.92-0.39-2.89-0.44c-0.63-0.03-3.97-0.03-4.28,0.22c-0.48,0.38,0.75,2.54,0.99,3.06l5.17,11.89 c1.18,3.76,2.37,7.52,3.55,11.28c0.74,3.55,1.48,7.11,2.22,10.66c0.99,8.38,1.93,16.76,3.64,19.8c-1.98,1.63-3.02,5.39-3.38,10.73 l-0.33,2.78c-0.4,3.35,4.32,1.67,6.02,1.14c3.21-0.63,7.31-1.93,11.57-3.39c3.81-1.31,5.77-1.91,9.76-2.54l4.68-0.75l5.7-1.26 c8.8-1.94,19.65-3.53,27.84-6.13l1.98-0.44C124.27,84.69,123.63,81.49,120.24,77.93L120.24,77.93z M53.31,34.28 c0.42,0.04,0.73,0.42,0.68,0.84c-0.04,0.42-0.42,0.73-0.84,0.68l-1.71-0.18l0.1,0.41c0.1,0.41-0.15,0.83-0.56,0.93 c-0.41,0.1-0.83-0.15-0.93-0.56l-0.37-1.47c-0.02-0.08-0.03-0.18-0.02-0.27c0.04-0.42,0.42-0.73,0.84-0.68L53.31,34.28L53.31,34.28 z M18.36,20.39c0.39,0.04,0.67,0.39,0.63,0.78c-0.04,0.39-0.39,0.67-0.78,0.63l-3.59-0.39l1.11,4.44c0.09,0.38-0.14,0.76-0.52,0.86 c-0.38,0.09-0.76-0.14-0.86-0.52L13,20.77c-0.02-0.08-0.03-0.16-0.02-0.25c0.04-0.39,0.39-0.67,0.78-0.63L18.36,20.39L18.36,20.39z M75.95,3.65L75.95,3.65C75.94,3.65,75.95,3.66,75.95,3.65L75.95,3.65L75.95,3.65z"/></g></svg>