<svg xmlns="http://www.w3.org/2000/svg" xmlns:xlink="http://www.w3.org/1999/xlink" viewBox="0 0 50 50"><path d="M10 9C8.347656 9 7 10.347656 7 12L7 23.03125C7.839844 22.398438 8.871094 22 10 22L12 22L12 20C12 19.789063 12.0625 19.578125 12.1875 19.40625C12.320313 19.226563 15.5 15 25 15C34.5 15 37.679688 19.226563 37.8125 19.40625C37.9375 19.578125 38 19.789063 38 20L38 22L40 22C41.128906 22 42.160156 22.398438 43 23.03125L43 12C43 10.347656 41.652344 9 40 9 Z M 10 24C8.347656 24 7 25.347656 7 27L7 42C7 42.554688 7.449219 43 8 43L12 43C12.550781 43 13 42.554688 13 42L13 40C13 39.449219 13.449219 39 14 39L36 39C36.550781 39 37 39.449219 37 40L37 42C37 42.554688 37.445313 43 38 43L42 43C42.554688 43 43 42.554688 43 42L43 27C43 25.347656 41.652344 24 40 24Z"/></svg>