<svg xmlns="http://www.w3.org/2000/svg" xmlns:xlink="http://www.w3.org/1999/xlink" viewBox="0 0 50 50"><path d="M10 9C8.355469 9 7 10.355469 7 12L7 42C7 42.550781 7.449219 43 8 43L12 43C12.550781 43 13 42.550781 13 42L13 40C13 39.445313 13.445313 39 14 39L36 39C36.554688 39 37 39.445313 37 40L37 42C37 42.550781 37.449219 43 38 43L42 43C42.550781 43 43 42.550781 43 42L43 12C43 10.355469 41.644531 9 40 9 Z M 10 11L40 11C40.554688 11 41 11.445313 41 12L41 22.1875C40.683594 22.074219 40.351563 22 40 22L38 22L38 20C38.003906 19.789063 37.9375 19.578125 37.8125 19.40625C37.8125 19.40625 36.886719 18.207031 34.875 17.125C32.863281 16.042969 29.695313 15 25 15C20.304688 15 17.136719 16.042969 15.125 17.125C13.113281 18.207031 12.1875 19.40625 12.1875 19.40625C12.0625 19.578125 11.996094 19.789063 12 20L12 22L10 22C9.648438 22 9.316406 22.074219 9 22.1875L9 12C9 11.445313 9.445313 11 10 11 Z M 25 17C29.402344 17 32.222656 17.957031 33.9375 18.875C35.503906 19.714844 35.910156 20.316406 36 20.4375L36 22L14 22L14 20.4375C14.089844 20.316406 14.496094 19.714844 16.0625 18.875C17.777344 17.957031 20.597656 17 25 17 Z M 10 24L40 24C40.554688 24 41 24.445313 41 25L41 41L39 41L39 40C39 38.355469 37.644531 37 36 37L14 37C12.355469 37 11 38.355469 11 40L11 41L9 41L9 25C9 24.445313 9.445313 24 10 24Z"/></svg>