<svg xmlns="http://www.w3.org/2000/svg" xmlns:xlink="http://www.w3.org/1999/xlink" viewBox="0 0 50 50"><path d="M28 0L28 2L32 2L28 6L28 8L35 8L35 6L30.5 6L34.5 2L34.5 0 Z M 16 10L16 12L21.5 12L16 18L16 20L25 20L25 18L18.5 18L24 12L24 10 Z M 3 17C1.355469 17 0 18.355469 0 20L0 50L6 50L6 45L44 45L44 50L50 50L50 37.15625C50.003906 37.105469 50.003906 37.050781 50 37L50 31C50 28.253906 47.746094 26 45 26L19 26C18.96875 26 18.9375 26 18.90625 26C18.390625 26.046875 17.996094 26.480469 18 27L18 36L6 36L6 20C6 18.355469 4.644531 17 3 17 Z M 12 36C14.75 36 17 33.75 17 31C17 28.25 14.75 26 12 26C9.25 26 7 28.25 7 31C7 33.75 9.25 36 12 36 Z M 3 19C3.554688 19 4 19.445313 4 20L4 38L48 38L48 48L46 48L46 43L4 43L4 48L2 48L2 20C2 19.445313 2.445313 19 3 19 Z M 12 28C13.667969 28 15 29.332031 15 31C15 32.667969 13.667969 34 12 34C10.332031 34 9 32.667969 9 31C9 29.332031 10.332031 28 12 28 Z M 20 28L45 28C46.65625 28 48 29.34375 48 31L48 36L20 36Z"/></svg>