<svg xmlns="http://www.w3.org/2000/svg" xmlns:xlink="http://www.w3.org/1999/xlink" viewBox="0 0 50 50"><path d="M28 0L28 2L32 2L28 6L28 8L35 8L35 6L30.5 6L34.5 2L34.5 0 Z M 16 10L16 12L21.5 12L16 18L16 20L25 20L25 18L18.5 18L24 12L24 10 Z M 3 17C1.347656 17 0 18.347656 0 20L0 50L6 50L6 45L44 45L44 50L50 50L50 38L6 38L6 20C6 18.347656 4.652344 17 3 17 Z M 12 26C9.242188 26 7 28.242188 7 31C7 33.757813 9.242188 36 12 36C14.757813 36 17 33.757813 17 31C17 28.242188 14.757813 26 12 26 Z M 19 26C18.449219 26 18 26.445313 18 27L18 36L50 36L50 31C50 28.242188 47.757813 26 45 26Z"/></svg>