<svg xmlns="http://www.w3.org/2000/svg" xmlns:xlink="http://www.w3.org/1999/xlink" viewBox="0 0 50 50"><path d="M24.8125 0C24.335938 0.0898438 23.992188 0.511719 24 1L24 15C24 15.550781 24.449219 16 25 16L47 16C47.550781 16 48 15.550781 48 15L48 1C48 0.449219 47.550781 0 47 0L25 0C24.96875 0 24.9375 0 24.90625 0C24.875 0 24.84375 0 24.8125 0 Z M 26 2L46 2L46 14L26 14 Z M 10 8C7.25 8 5 10.25 5 13C5 15.75 7.25 18 10 18C12.75 18 15 15.75 15 13C15 10.25 12.75 8 10 8 Z M 10 10C11.667969 10 13 11.332031 13 13C13 14.667969 11.667969 16 10 16C8.332031 16 7 14.667969 7 13C7 11.332031 8.332031 10 10 10 Z M 3 17C1.355469 17 0 18.355469 0 20L0 50L6 50L6 45L44 45L44 50L50 50L50 37.15625C50.003906 37.105469 50.003906 37.050781 50 37L50 31C50 28.253906 47.746094 26 45 26L17.3125 26L16.5625 22.875C16.0625 20.625 14.042969 19 11.6875 19L10 19C8.085938 19 6.703125 20.777344 7 22.5625C7.007813 22.582031 7.019531 22.605469 7.03125 22.625L9.53125 34C9.53125 34.011719 9.53125 34.019531 9.53125 34.03125C9.695313 34.769531 10.050781 35.433594 10.5 36L6 36L6 20C6 18.355469 4.644531 17 3 17 Z M 29 17L29 19L43 19L43 17 Z M 3 19C3.554688 19 4 19.445313 4 20L4 38L48 38L48 48L46 48L46 43L4 43L4 48L2 48L2 20C2 19.445313 2.445313 19 3 19 Z M 10 21L11.6875 21C13.132813 21 14.324219 21.964844 14.625 23.3125C14.625 23.324219 14.625 23.332031 14.625 23.34375L16 29.09375L16 36L14.875 36C14.730469 35.929688 14.566406 35.898438 14.40625 35.90625C12.960938 35.90625 11.769531 34.941406 11.46875 33.59375L9 22.25C8.898438 21.636719 9.316406 21 10 21 Z M 18 28L45 28C46.65625 28 48 29.34375 48 31L48 36L18 36L18 29.34375C18.042969 29.179688 18.042969 29.007813 18 28.84375Z"/></svg>