<svg xmlns="http://www.w3.org/2000/svg" xmlns:xlink="http://www.w3.org/1999/xlink" viewBox="0 0 50 50"><path d="M25 0C24.449219 0 24 0.449219 24 1L24 15C24 15.550781 24.449219 16 25 16L47 16C47.554688 16 48 15.550781 48 15L48 1C48 0.449219 47.554688 0 47 0 Z M 10 8C7.199219 8 5 10.199219 5 13C5 15.800781 7.199219 18 10 18C12.800781 18 15 15.800781 15 13C15 10.199219 12.800781 8 10 8 Z M 3 17C1.300781 17 0 18.300781 0 20L0 50L6 50L6 45L44 45L44 50L50 50L50 38L6 38L6 20C6 18.300781 4.699219 17 3 17 Z M 29 17L29 19L43 19L43 17 Z M 10 19C9.101563 19 8.289063 19.394531 7.6875 20.09375C7.085938 20.792969 6.898438 21.695313 7 22.59375L9.5 34C9.699219 34.800781 10 35.398438 10.5 36L17 36L17 24.8125L16.59375 22.90625C16.09375 20.605469 14.085938 19 11.6875 19 Z M 19 26L19 36L50 36L50 31C50 28.199219 47.800781 26 45 26Z"/></svg>