<svg xmlns="http://www.w3.org/2000/svg" xmlns:xlink="http://www.w3.org/1999/xlink" viewBox="0 0 50 50"><path d="M35 4C34.75 4 34 4.1015625 34 4.1015625L17.8125 6L3 6C1.382 6 0.055953125 7.2833906 0.001953125 8.9003906C-0.052046875 10.517391 1.1857813 11.884187 2.8007812 11.992188L17.800781 12.992188C17.866781 12.997187 17.934 13 18 13L29.837891 13L30.769531 10.634766C30.972531 10.120766 31.554406 9.8693125 32.066406 10.070312C32.581406 10.273312 32.833859 10.853188 32.630859 11.367188L31.166016 15.103516C30.902016 15.787516 30.952734 16.551312 31.302734 17.195312L34.302734 22.695312C34.756734 23.528312 35.616953 24.002953 36.501953 24.001953C36.905953 24.001953 37.313359 23.903266 37.693359 23.697266C38.526359 23.244266 38.997047 22.386953 38.998047 21.501953C38.998047 21.096953 38.902313 20.686641 38.695312 20.306641L36.248047 15.818359L38.761719 9.34375C38.920719 8.91175 39 8.46 39 8C39 5.794 37.206 4 35 4 z M 45.5 5 A 4.5 4.5 0 0 0 41 9.5 A 4.5 4.5 0 0 0 45.5 14 A 4.5 4.5 0 0 0 50 9.5 A 4.5 4.5 0 0 0 45.5 5 z M 19.994141 15C19.897141 15 19.799172 15.005625 19.701172 15.015625C18.155172 15.170625 17.003 16.471187 17 17.992188C17 18.093187 17.004625 18.195828 17.015625 18.298828L17.939453 27.546875L15.167969 35.513672C14.944969 36.154672 14 38.75 14 40C14 43.309 16.691 46 20 46L34 46C36.757 46 39 43.757 39 41L39 28.511719C39 27.130719 37.881 26.011719 36.5 26.011719C35.119 26.011719 34 27.130719 34 28.511719L34 37L22.996094 37L23.980469 28.339844C24.004469 28.127844 24.005375 27.913172 23.984375 27.701172L22.984375 17.701172C22.829375 16.152172 21.522141 15 19.994141 15 z M 45.5 37 A 4.5 4.5 0 0 0 41 41.5 A 4.5 4.5 0 0 0 45.5 46 A 4.5 4.5 0 0 0 50 41.5 A 4.5 4.5 0 0 0 45.5 37 z"/></svg>