<svg xmlns="http://www.w3.org/2000/svg" xmlns:xlink="http://www.w3.org/1999/xlink" viewBox="0 0 50 50"><path d="M34 4C33.191207 4 32.316406 4.125 32.316406 4.125L17.935547 6L3.7128906 6.0058594C1.7793477 5.8949408 0.1278813 7.3822308 0.0078125 9.28125C-0.10483044 11.094662 1.2029831 12.693137 2.9746094 12.960938C3.0392946 12.97082 13.970307 13.724195 16.412109 13.892578C16.070494 14.544331 15.917619 15.300634 16.046875 16.076172L16.035156 15.990234L16.917969 27.173828L13.714844 36.720703 A 1.0001 1.0001 0 0 0 13.710938 36.726562C13.680388 36.819693 13.488006 37.309245 13.322266 37.892578C13.156521 38.475872 13 39.203889 13 40C13 43.301625 15.698375 46 19 46L33 46C35.749516 46 38 43.749516 38 41L38 26C38 25.234311 37.698448 24.538472 37.21875 24.005859C38.017875 23.114345 38.249307 21.786866 37.685547 20.658203 A 1.0001 1.0001 0 0 0 37.683594 20.658203L35.271484 15.832031L37.755859 9.3574219 A 1.0001 1.0001 0 0 0 37.761719 9.34375C37.914204 8.9277775 38 8.4738687 38 8C38 5.8026661 36.197334 4 34 4 z M 45 5C42.250421 5 40 7.2504209 40 10C40 12.749579 42.250421 15 45 15C47.749579 15 50 12.749579 50 10C50 7.2504209 47.749579 5 45 5 z M 34 6C35.116666 6 36 6.8833339 36 8C36 8.2321313 35.95833 8.4502226 35.882812 8.65625L33.246094 15.527344 A 1.0001 1.0001 0 0 0 33.285156 16.332031L35.896484 21.552734L35.894531 21.552734C36.147247 22.058677 35.952201 22.642063 35.447266 22.894531C35.300932 22.967722 35.153064 23 35.001953 23C35.001292 23 35.000661 23 35 23C34.63472 23.000498 34.285155 22.806125 34.105469 22.447266L31.105469 16.449219L31.105469 16.447266C31.006869 16.248571 30.977157 16.023474 31.017578 15.8125 A 1.0001 1.0001 0 0 0 31.017578 15.810547C30.998578 15.910988 31.082438 15.497105 31.173828 15.058594C31.265218 14.620082 31.384609 14.045722 31.503906 13.474609C31.515416 13.419509 31.515874 13.420149 31.527344 13.365234 A 1.0001 1.0001 0 0 0 31.59375 13.046875C31.77984 12.156326 31.978516 11.205078 31.978516 11.205078 A 1.0001 1.0001 0 1 0 30.021484 10.794922C30.021484 10.794922 29.867544 11.531125 29.769531 12L18.039062 12C17.980992 11.996 3.3472481 10.995353 3.2753906 10.984375 A 1.0001 1.0001 0 0 0 3.2734375 10.982422C2.5099577 10.867561 1.954587 10.20023 2.0039062 9.40625C2.0578375 8.5532692 2.7091523 7.9528249 3.5996094 8.0039062 A 1.0001 1.0001 0 0 0 3.65625 8.0058594L18 8 A 1.0001 1.0001 0 0 0 18.128906 7.9921875L32.582031 6.1074219 A 1.0001 1.0001 0 0 0 32.587891 6.1074219C32.587851 6.1074219 33.412793 6 34 6 z M 45 7C46.668699 7 48 8.3313011 48 10C48 11.668699 46.668699 13 45 13C43.331301 13 42 11.668699 42 10C42 8.3313011 43.331301 7 45 7 z M 19.533203 14L19.576172 14C20.26702 14.028054 20.850947 14.53031 20.974609 15.248047C20.980909 15.322657 21.226841 18.237013 21.478516 21.232422C21.605954 22.749178 21.732076 24.267506 21.828125 25.410156C21.876145 25.981481 21.917025 26.458654 21.945312 26.794922C21.959463 26.963056 21.970786 27.097718 21.978516 27.189453C21.986216 27.281183 21.984517 27.259183 21.992188 27.341797 A 1.0001 1.0001 0 0 0 21.992188 27.357422C21.996827 27.400098 22 27.449129 22 27.5C22 27.361277 21.999003 27.48575 21.992188 27.5625C21.985388 27.63925 21.974438 27.749378 21.960938 27.886719C21.933927 28.161399 21.896388 28.543494 21.849609 28.994141C21.756059 29.895434 21.630806 31.073891 21.505859 32.244141C21.255966 34.584639 21.005859 36.892578 21.005859 36.892578 A 1.0001 1.0001 0 0 0 22 38L33 38 A 1.0001 1.0001 0 0 0 34 37L34 26C34 25.437063 34.437063 25 35 25C35.001307 25 35.002599 25.000002 35.003906 25C35.564899 25.002079 36 25.438406 36 26L36 41C36 42.668484 34.668484 44 33 44L19 44C16.779625 44 15 42.220375 15 40C15 39.476111 15.111584 38.910917 15.246094 38.4375C15.379879 37.966635 15.516928 37.638318 15.609375 37.357422L15.611328 37.351562L18.878906 27.617188 A 1.0001 1.0001 0 0 0 18.927734 27.220703L18.029297 15.832031 A 1.0001 1.0001 0 0 0 18.019531 15.746094C17.881448 14.917593 18.424211 14.15759 19.251953 14.019531 A 1.0001 1.0001 0 0 0 19.255859 14.019531C19.349584 14.003509 19.442114 13.998912 19.533203 14 z M 22.642578 14L29.351562 14C29.306313 14.216839 29.252482 14.471728 29.214844 14.652344C29.123554 15.090381 29.082227 15.281754 29.052734 15.4375C28.929277 16.081889 29.021724 16.750938 29.316406 17.341797L32.316406 23.341797C32.441166 23.59096 32.597762 23.81384 32.777344 24.011719C32.30042 24.543701 32 25.236807 32 26L32 36L23.113281 36C23.193211 35.260611 23.303593 34.241696 23.494141 32.457031C23.619194 31.285781 23.743944 30.106254 23.837891 29.201172C23.884861 28.748631 23.925451 28.363523 23.953125 28.082031C23.966965 27.941286 23.976555 27.828162 23.984375 27.740234C23.992196 27.652307 24 27.672223 24 27.5C24 27.384871 23.993799 27.265897 23.980469 27.142578C23.983269 27.172308 23.977603 27.102538 23.970703 27.021484C23.963003 26.929934 23.95164 26.796991 23.9375 26.628906C23.90922 26.292737 23.87029 25.815441 23.822266 25.244141C23.726216 24.101541 23.59814 22.58315 23.470703 21.066406C23.215829 18.032919 22.960938 15.005859 22.960938 15.005859 A 1.0001 1.0001 0 0 0 22.951172 14.923828C22.895804 14.593076 22.781846 14.289376 22.642578 14 z M 45 36C42.250421 36 40 38.250421 40 41C40 43.749579 42.250421 46 45 46C47.749579 46 50 43.749579 50 41C50 38.250421 47.749579 36 45 36 z M 45 38C46.668699 38 48 39.331301 48 41C48 42.668699 46.668699 44 45 44C43.331301 44 42 42.668699 42 41C42 39.331301 43.331301 38 45 38 z"/></svg>