<svg xmlns="http://www.w3.org/2000/svg" xmlns:xlink="http://www.w3.org/1999/xlink" viewBox="0 0 50 50"><path d="M43.101563 2.023438C42.507813 2.011719 41.925781 2.199219 41.402344 2.5L27.597656 11L6 11C4.300781 11 3 12.300781 3 14C3 15.699219 4.300781 17 6 17L20 17L20 44.5C20 45.898438 21.101563 47 22.5 47C23.898438 47 25 45.898438 25 44.5L25 30.699219L28.921875 28.347656L44.046875 24.9375C45.1875 24.679688 46 23.667969 46 22.5C46 21.121094 44.878906 20 43.5 20C43.316406 20 43.132813 20.023438 42.953125 20.0625L42.949219 20.058594L29 23.203125L29 17L44.699219 7.5C46.097656 6.699219 46.5 4.800781 45.597656 3.398438C45.199219 2.699219 44.5 2.300781 43.699219 2.101563C43.5 2.050781 43.300781 2.023438 43.101563 2.023438 Z M 33 30C30.199219 30 28 32.199219 28 35C28 37.800781 30.199219 40 33 40C35.800781 40 38 37.800781 38 35C38 32.199219 35.800781 30 33 30Z"/></svg>