<svg xmlns="http://www.w3.org/2000/svg" xmlns:xlink="http://www.w3.org/1999/xlink" viewBox="0 0 30 30"><path d="M25.029297 1.9785156 A 1.0001 1.0001 0 0 0 24.521484 2.1230469L14.023438 7.8476562L4.5136719 2.1425781 A 1.0001 1.0001 0 0 0 3.9433594 1.9941406 A 1.0001 1.0001 0 0 0 3.4863281 3.8574219L3.515625 3.875L12 10.722656L12 16.634766L12 20.992188L12 23L2 23L2 24L12 24L12 26L2 26L2 27L12 27 A 1.0001 1.0001 0 1 0 14 27L14.630859 19.072266L16.556641 15.580078L25.193359 11.986328L25.300781 11.953125 A 1.0001 1.0001 0 0 0 24.962891 9.9960938 A 1.0001 1.0001 0 0 0 24.699219 10.046875L17 12.482422L17 10.513672L25.472656 3.8808594L25.478516 3.8769531 A 1.0001 1.0001 0 0 0 25.029297 1.9785156 z M 18.5 17 A 2.5 2.5 0 0 0 16 19.5 A 2.5 2.5 0 0 0 18.5 22 A 2.5 2.5 0 0 0 21 19.5 A 2.5 2.5 0 0 0 18.5 17 z M 16 23L16 24L28 24L28 23L16 23 z M 16 26L16 27L28 27L28 26L16 26 z"/></svg>