<?xml version="1.0" encoding="utf-8"?><svg version="1.1" id="Layer_1" xmlns="http://www.w3.org/2000/svg" xmlns:xlink="http://www.w3.org/1999/xlink" x="0px" y="0px" viewBox="0 0 84.84 122.88" style="enable-background:new 0 0 84.84 122.88" xml:space="preserve"><g><path d="M60.21,89.08c0.7,0.3,1.03,1.11,0.73,1.82c-0.3,0.7-1.11,1.03-1.82,0.73c-4.63-1.98-7.74-6.1-9.8-11.7 c-4.91-3.04-9.55-4.56-13.93-4.61c-4.16-0.05-8.12,1.23-11.89,3.81c2.2,1.91,4.01,4.28,5.39,7.12c0.34,0.69,0.05,1.52-0.64,1.86 c-0.69,0.34-1.52,0.05-1.86-0.64c-2.04-4.2-5.12-7.2-9.14-9.11c-4.11-1.96-9.24-2.8-15.27-2.63c-0.76,0.02-1.4-0.58-1.42-1.35 c-0.02-0.77,0.58-1.4,1.35-1.42c6.48-0.18,12.02,0.74,16.53,2.89c0.96,0.46,1.87,0.97,2.74,1.53c4.47-3.26,9.22-4.88,14.23-4.83 c4.08,0.05,8.31,1.21,12.7,3.5c-0.21-0.8-0.4-1.61-0.58-2.45c-1.34-6.35-1.85-13.91-1.96-22.05c0.96-0.57,1.88-1.21,2.75-1.9 c0.05,8.69,0.52,16.75,1.93,23.39C51.93,80.98,54.94,86.82,60.21,89.08L60.21,89.08L60.21,89.08z M27.85,19.88 c1.55,0,2.96,0.63,3.97,1.65c1.02,1.02,1.65,2.42,1.65,3.97c0,1.55-0.63,2.96-1.65,3.97c-1.02,1.02-2.42,1.65-3.97,1.65 c-1.55,0-2.96-0.63-3.97-1.65c-1.02-1.02-1.65-2.42-1.65-3.97c0-1.55,0.63-2.96,1.65-3.97C24.89,20.51,26.3,19.88,27.85,19.88 L27.85,19.88z M27.85,9.21c4.5,0,8.57,1.82,11.52,4.77c2.95,2.95,4.77,7.02,4.77,11.52c0,4.5-1.82,8.57-4.77,11.52 c-2.95,2.95-7.02,4.77-11.52,4.77s-8.57-1.82-11.52-4.77c-2.95-2.95-4.77-7.02-4.77-11.52c0-4.5,1.82-8.57,4.77-11.52 S23.35,9.21,27.85,9.21L27.85,9.21z M37.53,15.82c-2.48-2.48-5.9-4.01-9.68-4.01c-3.78,0-7.2,1.53-9.68,4.01 c-2.48,2.48-4.01,5.9-4.01,9.68c0,3.78,1.53,7.2,4.01,9.68c2.48,2.48,5.9,4.01,9.68,4.01c3.78,0,7.2-1.53,9.68-4.01 c2.48-2.48,4.01-5.9,4.01-9.68C41.54,21.72,40.01,18.3,37.53,15.82L37.53,15.82z M27.85,0c14.08,0,25.5,11.42,25.5,25.5 c0,14.08-11.42,25.5-25.5,25.5S2.35,39.59,2.35,25.5c0-7.04,2.86-13.42,7.47-18.03C14.43,2.85,20.81,0,27.85,0L27.85,0z M49.16,25.5c0-11.77-9.54-21.31-21.31-21.31c-5.88,0-11.21,2.38-15.07,6.24c-3.86,3.86-6.24,9.18-6.24,15.07 c0,11.77,9.54,21.31,21.31,21.31S49.16,37.27,49.16,25.5L49.16,25.5z M29.85,23.5c-0.51-0.51-1.22-0.83-2-0.83s-1.49,0.32-2,0.83 c-0.51,0.51-0.83,1.22-0.83,2c0,0.78,0.32,1.49,0.83,2c0.51,0.51,1.22,0.83,2,0.83s1.49-0.32,2-0.83c0.51-0.51,0.83-1.22,0.83-2 C30.68,24.72,30.37,24.01,29.85,23.5L29.85,23.5z M57.19,29.9c6.92,5.86,12.21,13.55,16.14,22.76c4.89,11.46,7.69,25.25,8.94,40.75 c2.2,6.3,3.22,11.4,2.15,15.12c-1.16,4.03-4.5,6.35-10.99,6.72c-16.08,4.09-30.36,6.65-42.5,7.4c-12.28,0.76-22.41-0.33-30.06-3.54 c-0.71-0.29-1.04-1.11-0.75-1.81c0.29-0.71,1.11-1.04,1.81-0.75c7.26,3.04,16.97,4.07,28.84,3.33c11.97-0.74,26.11-3.28,42.09-7.35 l0,0c0.09-0.02,0.18-0.04,0.28-0.04c5.19-0.26,7.8-1.9,8.62-4.72c0.89-3.11-0.09-7.71-2.13-13.53c-0.06-0.14-0.1-0.29-0.11-0.44 c-1.22-15.28-3.95-28.85-8.74-40.05c-3.43-8.04-7.92-14.86-13.67-20.22c0.08-0.78,0.12-1.57,0.12-2.38 C57.22,30.73,57.21,30.31,57.19,29.9L57.19,29.9z"/></g></svg>