<?xml version="1.0" encoding="utf-8"?><svg version="1.1" id="Layer_1" xmlns="http://www.w3.org/2000/svg" xmlns:xlink="http://www.w3.org/1999/xlink" x="0px" y="0px" viewBox="0 0 122.88 122.76" style="enable-background:new 0 0 122.88 122.76" xml:space="preserve"><style type="text/css">.st0{fill-rule:evenodd;clip-rule:evenodd;}</style><g><path class="st0" d="M10.99,81.78l30.24,30.24l-5.69,5.69c-17.18,14.97-47.9-5.82-30.24-30.24L10.99,81.78L10.99,81.78z M22.02,74.87l7.22,7.22l42.75-54.35c0.04-0.07,0.09-0.13,0.14-0.19l0.07-0.08c0.41-0.56,0.83-1.08,1.27-1.56 c3.81-5.19,3.87-10.62,1.87-14.93c-0.96-2.07-2.39-3.88-4.1-5.29c-1.7-1.4-3.68-2.39-5.75-2.82c-4.21-0.88-8.85,0.59-12.36,5.7 L22.02,74.87L22.02,74.87z M31.19,84.04l7.65,7.65l54.59-43.25c0.05-0.04,0.1-0.07,0.15-0.1c4.81-5.55,5.04-11.53,2.85-16.21 c-0.97-2.08-2.42-3.9-4.16-5.33c-1.72-1.41-3.72-2.41-5.81-2.86c-3.68-0.78-7.67,0.2-10.95,3.8c-0.36,0.48-0.75,0.95-1.16,1.43 c-0.13,0.18-0.26,0.36-0.38,0.54c-0.08,0.11-0.17,0.2-0.27,0.28L31.19,84.04L31.19,84.04z M40.8,93.65l7.35,7.35l66.2-30.33 c5.17-3.55,6.59-8.36,5.63-12.76c-0.47-2.15-1.51-4.22-2.95-6c-1.45-1.79-3.31-3.28-5.41-4.29c-4.75-2.27-10.82-2.02-16.39,3.02 l-0.01,0c-0.05,0.04-0.09,0.08-0.14,0.11l-0.01,0l-0.02,0.01l-0.01,0.01l-0.02,0.01l-0.01,0l-0.02,0.01l-0.01,0.01l-0.01,0.01 l-0.02,0.01l-0.01,0l-0.02,0.01l-0.01,0l-0.02,0.01l-0.01,0l-0.02,0.01l-0.01,0c-0.03,0.01-0.05,0.02-0.08,0.03L40.8,93.65 L40.8,93.65z M48.62,103.76l-4.11,5.07L13.99,78.32l5.65-4.78L50.69,7.34c0.03-0.09,0.07-0.18,0.13-0.26 c0.04-0.07,0.08-0.13,0.12-0.18c4.13-5.98,9.71-7.66,14.84-6.59c2.53,0.53,4.94,1.73,7,3.42c2.05,1.68,3.77,3.86,4.91,6.33 c1.68,3.61,2.16,7.86,0.75,12.16c2.71-1.21,5.58-1.41,8.33-0.83c2.54,0.54,4.97,1.75,7.05,3.46c2.07,1.69,3.79,3.88,4.96,6.36 c1.9,4.06,2.3,8.91,0.2,13.73c4.75-2.03,9.53-1.59,13.56,0.33c2.51,1.2,4.72,2.98,6.44,5.1c1.73,2.13,2.97,4.61,3.54,7.21 c1.15,5.23-0.41,10.88-6.19,15.04c-0.11,0.13-0.24,0.24-0.41,0.32l-0.13,0.06c-0.08,0.05-0.17,0.09-0.26,0.12L48.62,103.76 L48.62,103.76z"/></g></svg>