<?xml version="1.0" encoding="utf-8"?><svg version="1.1" id="Layer_1" xmlns="http://www.w3.org/2000/svg" xmlns:xlink="http://www.w3.org/1999/xlink" x="0px" y="0px" viewBox="0 0 122.88 118.71" style="enable-background:new 0 0 122.88 118.71" xml:space="preserve"><g><path d="M51.31,31.23c2.55-4.65,5.15-8.64,7.79-12c0.1-0.13,0.2-0.25,0.3-0.38c3.19-5.52,5.43-11.01,2.84-12.81l0,0 c-1.68-1.16-4.12-1.2-6.67-0.64c-3.81,0.83-7.67,2.93-9.99,4.82c-3.04,2.47-5.75,5.62-8.07,8.98c-2.76,4.01-4.93,8.28-6.38,12.04 c-1.48,3.85-2.54,7.96-3.15,12.36c-0.59,4.29-0.75,8.85-0.44,13.69c2.83,7.42,6.63,14,11.44,19.69c0.36,0.41,0.72,0.81,1.09,1.21 c5.54,5.96,12.31,10.72,20.21,14.36l0,0c0.09,0.04,0.18,0.09,0.27,0.15c0.95-0.07,1.92-0.16,2.9-0.28c1.7-0.21,3.35-0.48,4.96-0.81 c5.3-1.09,9.78-2.69,14.01-4.83c4.28-2.16,8.34-4.88,12.77-8.15c2.16-1.6,4.31-3.32,6.44-5.17c2.12-1.84,4.14-3.75,6.05-5.74l0,0 c4.16-4.7,7.01-9.24,8.61-13.63c1.55-4.26,1.91-8.38,1.11-12.38c-0.74-3.73-3.16-8.11-6.22-12.32c-3.91-5.38-8.82-10.38-12.66-13.4 c-1.65-1.3-3.28-2.39-4.88-3.27c-5.18-2.83-10.31-3.58-15.3-2.11c-5.09,1.5-10.16,5.29-15.11,11.53c-2.06,3.59-4.37,6.95-6.13,9.51 c-0.48,0.7-0.9,1.31-1.55,2.3c-0.77,1.16-2.34,1.48-3.5,0.71C50.93,33.91,50.6,32.38,51.31,31.23L51.31,31.23z M19.5,66.5 c-0.17,6.41,0.83,9.06,5.6,15.25c1.68,2.18,3.51,4.36,5.5,6.54c3.73,2.86,4.32,5.71,1.4,8.57l-1.4,1.56 c-2.52,1.56-5.31,1.85-9.04-2.34l-5.54-7.03c-2.49-3.16-5.72-6.19-5.96-10.43c-0.04-0.79-0.01-1.6,0.09-2.44l-2.43,2.51 c-0.79,1-1.43,2.03-1.88,3.1C5.39,82.82,5.12,83.89,5.06,85c-0.21,3.71,3.45,9.41,8.27,14.78c5.86,6.53,13.25,12.32,17.65,13.58 c6.96,2.01,14.64-6.88,21.08-14.32c0.88-1.02,1.74-2.01,2.58-2.96c-7.18-3.96-13.31-8.84-18.42-14.59 c-0.42-0.47-0.83-0.94-1.23-1.42c-4.53-5.21-8.26-11.21-11.14-18.04L19.5,66.5L19.5,66.5z M59.89,97.79 c-1.27,1.37-2.62,2.93-4.03,4.56c-7.4,8.56-16.22,18.76-26.28,15.87c-5.24-1.51-13.61-7.92-20.02-15.07 C3.96,96.9-0.28,89.91,0.01,84.72c0.1-1.74,0.51-3.39,1.18-4.95c0.65-1.51,1.54-2.95,2.64-4.32l0,0c0.05-0.06,0.1-0.12,0.16-0.18 l18.43-19.06c-0.22-4.66-0.02-9.1,0.56-13.31c0.66-4.75,1.82-9.23,3.44-13.46c1.59-4.12,3.95-8.78,6.93-13.11 c2.57-3.72,5.61-7.24,9.04-10.03c2.82-2.29,7.5-4.84,12.11-5.84c3.79-0.83,7.62-0.64,10.61,1.44l0.01,0l0,0 c2.78,1.93,3.45,4.96,2.9,8.44c2.92-2.16,5.89-3.68,8.91-4.56c6.33-1.86,12.74-0.96,19.13,2.53c1.89,1.03,3.76,2.27,5.59,3.72 c4.15,3.27,9.43,8.64,13.63,14.41c3.44,4.73,6.19,9.79,7.09,14.31c0.97,4.89,0.55,9.91-1.33,15.06c-1.82,5-5.02,10.11-9.65,15.33 c-0.02,0.03-0.05,0.05-0.07,0.08l0,0c-2.09,2.16-4.21,4.17-6.37,6.05c-2.15,1.87-4.4,3.67-6.75,5.41c-4.65,3.44-8.94,6.3-13.5,8.6 c-4.61,2.33-9.49,4.08-15.27,5.27c-1.83,0.38-3.63,0.67-5.37,0.89C62.7,97.59,61.31,97.71,59.89,97.79L59.89,97.79z"/></g></svg>