<?xml version="1.0" encoding="utf-8"?><svg version="1.1" id="Layer_1" xmlns="http://www.w3.org/2000/svg" xmlns:xlink="http://www.w3.org/1999/xlink" x="0px" y="0px" viewBox="0 0 122.88 113.11" style="enable-background:new 0 0 122.88 113.11" xml:space="preserve"><style type="text/css"><![CDATA[
	.st0{fill-rule:evenodd;clip-rule:evenodd;}
]]></style><g><path class="st0" d="M99.83,67.01c12.72,0,23.05,10.32,23.05,23.05c0,12.72-10.32,23.05-23.05,23.05s-23.05-10.32-23.05-23.05 c0-8.21,3.56-14.68,10.02-18.76l-5.69-9.56h-15c1.52-3.28,2.47-6.09,2.28-7.7h15.32c0.63,0,1.22,0.17,1.74,0.47l1.61-3.35 l0.36-0.04l0,0c0.14-0.02,0.29-0.04,0.44-0.06c4.12-0.77,6.58-3.37,7.6-6.5c0.46-1.41,0.58-2.92,0.39-4.39 c-0.18-1.43-0.67-2.83-1.42-4.07c-0.33-0.54-0.71-1.05-1.13-1.53h3.83v0.02c0.49,0,0.99,0.11,1.47,0.33 c1.74,0.81,2.49,2.88,1.67,4.62L90.1,60.96l3.9,6.8C95.9,67.25,97.86,67.01,99.83,67.01L99.83,67.01z M34.14,30.59l21.03-15.38 c2.47-1.54,5.13-2.57,7.28-2.29c1.79,0.24,3.44,1.21,4.94,3.11c4.56,5.69,6.82,13.5,9.34,22.11l8.87-1.04 c5.07-0.23,6.4,7.22,1.19,8.2l-9.14,1.01c-4.08,0.46-7.06,1.59-9.28-3.01l-4.96-12.44l-14.27,9.92c-0.88,0.92-1.01,1.83-0.13,2.75 l10.71,7.79c1.41,0.95,2.6,1.62,2.89,3.51c0.44,2.84-11.58,21.71-13.68,25.35c-3.69,4.1-10.69,0.39-7.78-4.58l8.14-17.15 c-2.42-1.44-4.77-2.88-7.03-4.32C34.72,49.35,24.69,38.38,34.14,30.59L34.14,30.59z M81.6,0c5.49,0,9.94,4.45,9.94,9.94 c0,5.49-4.45,9.94-9.94,9.94c-5.49,0-9.94-4.45-9.94-9.94C71.66,4.45,76.11,0,81.6,0L81.6,0z M41.25,61.73h-4.77l-2.83,8.23 c1.03,0.49,2,1.04,2.91,1.64l-0.68,1.44c-1.09,2.03-1.45,4.03-1.24,5.88c-1.3-1.35-2.83-2.48-4.54-3.31l0,0l-5.76,13.02 c-0.77,1.76-2.83,2.56-4.59,1.79c-1.76-0.77-2.56-2.83-1.78-4.59l5.24-11.84c-0.05,0-0.11,0-0.16,0c-8.88,0-16.07,7.2-16.07,16.08 c0,8.87,7.2,16.07,16.07,16.07c8.88,0,16.07-7.2,16.07-16.07c0-1.56-0.22-3.06-0.63-4.49c0.15,0.11,0.3,0.22,0.46,0.33 c1.28,0.87,2.76,1.47,4.3,1.72c0.9,0.15,1.82,0.19,2.75,0.12c0.07,0.76,0.1,1.53,0.1,2.32c0,12.72-10.32,23.05-23.05,23.05 C10.32,113.11,0,102.78,0,90.06c0-12.73,10.32-23.05,23.05-23.05c1.07,0,2.12,0.07,3.16,0.21l4.09-11.11 c0.47-1.08,1.43-1.8,2.51-2.01c2.06,1.97,4.27,3.67,6.31,4.96c0.62,0.39,1.5,0.94,2.62,1.63L41.25,61.73L41.25,61.73z M22.13,38.32 h2.32c0.04,1.14,0.2,2.29,0.49,3.43c0.6,2.43,1.75,4.76,3.23,6.93h-6.03l0,0l0,0c-1.13,0-2.17-0.47-2.93-1.22 c-0.77-0.77-1.24-1.82-1.24-2.98l0,0l0,0v-1.94l0,0l0,0c0-1.17,0.47-2.23,1.24-2.98C19.95,38.79,20.99,38.33,22.13,38.32 L22.13,38.32L22.13,38.32L22.13,38.32L22.13,38.32z M98.1,74.07l5.59,8.61c1.05,1.61,0.59,3.76-1.02,4.81 c-1.61,1.05-3.76,0.59-4.81-1.02l-6.53-10.06c-4.55,2.84-7.58,7.89-7.58,13.65c0,8.87,7.2,16.07,16.08,16.07 c8.88,0,16.08-7.2,16.08-16.07c0-8.88-7.2-16.08-16.08-16.08C99.25,73.97,98.67,74.01,98.1,74.07L98.1,74.07L98.1,74.07z"/></g></svg>