<?xml version="1.0" encoding="utf-8"?><svg version="1.1" id="Layer_1" xmlns="http://www.w3.org/2000/svg" xmlns:xlink="http://www.w3.org/1999/xlink" x="0px" y="0px" viewBox="0 0 110.9 122.88" style="enable-background:new 0 0 110.9 122.88" xml:space="preserve"><style type="text/css"><![CDATA[
	.st0{fill-rule:evenodd;clip-rule:evenodd;}
]]></style><g><path class="st0" d="M39.99,37.79l16.32-11.94L39.36,14.86c-1.59-1.03-2.04-3.15-1.01-4.74c1.03-1.59,3.15-2.04,4.74-1.01 l19.14,12.41l3.74-2.74c3.05-1.9,6.34-3.18,8.99-2.83c2.21,0.3,4.25,1.5,6.1,3.84c4.31,5.38,6.96,12.29,9.36,20l9.89,6.41 l3.25-0.38c4.48-0.2,6.6,4.45,5.08,7.55c0.02,0.67-0.16,1.36-0.55,1.96c-1.03,1.59-3.15,2.04-4.74,1.01l-0.27-0.18l-9.34,1.03 c-5.04,0.57-8.72,1.96-11.46-3.72l-5.81-14.57l-0.76-0.49L58.52,50.38c-1.09,1.14-1.25,2.26-0.16,3.4l13.23,9.62 c1.74,1.17,3.21,2,3.57,4.34c0.49,3.15-10.32,22.66-14.43,29.9l23.12,11.7c3.87,1.68,7.09,2.38,9.6,2.03 c1.93-0.26,3.53-1.33,4.77-3.24c1.72-2.64,5.25-3.39,7.9-1.68c2.64,1.72,3.4,5.25,1.68,7.9c-3.16,4.87-7.46,7.61-12.82,8.34 c-4.61,0.63-9.85-0.37-15.7-2.91c-0.22-0.08-0.43-0.17-0.64-0.28L3.14,81.29c-2.82-1.42-3.95-4.86-2.53-7.67 c1.42-2.82,4.86-3.95,7.67-2.53l39.79,20.14l10.63-19.02c-2.99-1.78-5.89-3.56-8.68-5.34C40.71,60.96,28.32,47.41,39.99,37.79 L39.99,37.79L39.99,37.79z M98.62,0c6.78,0,12.28,5.5,12.28,12.28c0,6.78-5.5,12.28-12.28,12.28s-12.28-5.5-12.28-12.28 C86.34,5.5,91.84,0,98.62,0L98.62,0L98.62,0z"/></g></svg>