<?xml version="1.0" encoding="utf-8"?><svg version="1.1" id="Layer_1" xmlns="http://www.w3.org/2000/svg" xmlns:xlink="http://www.w3.org/1999/xlink" x="0px" y="0px" viewBox="0 0 122.88 118.77" style="enable-background:new 0 0 122.88 118.77" xml:space="preserve"><style type="text/css">.st0{fill-rule:evenodd;clip-rule:evenodd;}</style><g><path class="st0" d="M70.69,38.31l5.19,20.54l7.74,3.44c1.92,0.85,3.26,2.47,3.81,4.34l0.02,0L92.31,83 c0.06,0.21,0.11,0.41,0.15,0.62c6.48-1.42,12.89-2.88,19.22-4.38c0.94-0.22,3.34-1.02,3.9-0.01c0.24,0.43,0.18,1.15-0.31,2.21 c-3.41,4.84-10.45,14.56-46.52,27.36c-2.14,0.22-4.22,0.42-6.26,0.59c0.44,0.15,0.96,0.32,1.64,0.55c2.51,0.83,4.48,1.29,6.13,1.51 c1.6,0.21,3,0.21,4.39,0.1c2.92-0.22,5.49-1.14,8.14-2.09c4.66-1.66,9.52-3.4,17.35-2.62c3.84,0.38,6.7,1.53,9.52,2.67 c2.91,1.17,5.77,2.33,9.51,2.16c1.96-0.08,3.61,1.43,3.7,3.39c0.08,1.96-1.43,3.61-3.39,3.7c-5.27,0.25-8.83-1.19-12.46-2.66 c-2.37-0.95-4.76-1.92-7.58-2.2c-6.21-0.61-10.32,0.86-14.27,2.26c-3.1,1.1-6.11,2.18-10.01,2.48c-1.78,0.14-3.62,0.13-5.83-0.16 c-2.15-0.29-4.55-0.83-7.44-1.79c-0.6-0.2-1.86-0.64-3.08-1.06c-5.62-1.96-10.02-3.49-16.31-1.09 c-16.61,6.31-21.59,4.27-27.54,1.84c-2.81-1.15-5.9-2.42-11.44-2.41c-1.96,0-3.55-1.59-3.55-3.55s1.59-3.55,3.55-3.55 c6.91-0.01,10.68,1.53,14.11,2.93c3.76,1.54,7.01,2.87,15.98,0.25c-6.76-0.44-12.36-1.42-16.69-2.99 c-3.22-1.17-3.95-1.19-4.12-4.67c-0.06-1.14-0.01-2.34,0.03-3.29c0.04-0.89,2.82-1.3,3.45-1.39c8.87-1.35,17.61-2.78,26.23-4.28 c0.06-1.64,0.02-3.28-0.02-4.89c-0.13-5.26-0.26-10.3,2.08-15.23l5.03-10.6c0.24-0.51,0.54-0.97,0.87-1.39L46.76,41.1l-9.21,2.68 c-7.41,2.15-11.68-4.18-18.11-13.71l-0.45-0.67c-1.58-2.34-0.96-5.52,1.38-7.1c2.34-1.58,5.52-0.96,7.1,1.38l0.45,0.67 c3.93,5.83,6.55,9.71,6.8,9.63l14.68-4.27c3.56-2.26,9.05-3.29,13.27-2.9c5.39-0.2,10.33,1.12,14.89,3.35 c5.75,2.81,10.71,7,15.14,11.27c2.03,1.95,2.09,5.19,0.14,7.22c-1.95,2.03-5.19,2.09-7.22,0.14c-3.82-3.68-8.01-7.25-12.54-9.47 C72.3,38.95,71.5,38.6,70.69,38.31L70.69,38.31z M64.4,68.72c-0.91,0.23-1.82,0.46-2.74,0.7l-4.63,9.77 c-0.96,2.03-0.87,5.45-0.78,9.03c0.02,0.9,0.05,1.82,0.06,2.73c7.66-1.43,15.22-2.92,22.69-4.46l-3.84-12.94l-9.99-4.44 C64.89,68.99,64.64,68.86,64.4,68.72L64.4,68.72z M52.11,0.26c6.68-1.38,13.21,2.92,14.58,9.6c1.38,6.68-2.92,13.21-9.6,14.59 c-6.68,1.38-13.21-2.92-14.58-9.6C41.13,8.16,45.43,1.63,52.11,0.26L52.11,0.26z"/></g></svg>