<?xml version="1.0" encoding="utf-8"?><svg version="1.1" id="Layer_1" xmlns="http://www.w3.org/2000/svg" xmlns:xlink="http://www.w3.org/1999/xlink" x="0px" y="0px" viewBox="0 0 122.88 82.13" style="enable-background:new 0 0 122.88 82.13" xml:space="preserve"><g><path d="M0,66.24c7.11-2.74,13.1-0.95,21.42,1.55c2.17,0.65,4.53,1.36,6.66,1.92c1.9,0.5,4.82-0.58,7.88-1.71 c3.82-1.41,7.8-2.87,12.57-2.75c3.6,0.09,6.63,1.74,9.69,3.41c1.92,1.05,3.87,2.11,4.95,2.15c1.24,0.04,3.08-1.04,4.92-2.12 c3-1.77,6-3.54,10.17-3.68c4.48-0.15,7.95,1.39,11.39,2.92c1.96,0.87,3.91,1.74,5.54,1.86c1.54,0.12,3.6-1.2,5.6-2.47 c2.78-1.78,5.51-3.52,9.1-3.92c4.27-0.47,8.93,1.54,12.89,3.24l0.1,0.05c0,4.05,0,8.11,0,12.16c-0.85-0.25-1.73-0.59-2.64-0.96 c-0.63-0.26-1.28-0.54-1.94-0.82c-2.71-1.16-5.9-2.54-7.17-2.4c-1.02,0.11-2.63,1.14-4.27,2.19c-0.6,0.38-1.21,0.77-1.82,1.15 c-3.04,1.85-6.34,3.43-10.69,3.1c-3.54-0.27-6.42-1.55-9.31-2.84l-0.25-0.11c-2.16-0.96-4.33-1.89-6.17-1.83 c-1.13,0.04-2.75,0.95-4.39,1.91l-0.38,0.22c-3.25,1.92-6.51,3.84-11.08,3.67c-3.73-0.14-6.87-1.84-9.96-3.53l-0.39-0.21 c-1.72-0.94-3.37-1.8-4.16-1.82c-2.42-0.06-5.21,0.91-7.92,1.91l-0.47,0.17c-4.74,1.75-9.26,3.41-14.62,2.01 c-2.88-0.75-5.06-1.41-7.06-2.01l-0.06-0.02c-7.25-2.18-11.98-3.58-17.65,0.13c-0.15,0.1-0.31,0.2-0.47,0.31v-0.31V66.24L0,66.24z M87.91,17.06l14.16-2.15c8.81-1.32,6.16-17.18-5.13-14.64l-32.11,5.3c-3.48,0.57-9.45,1.01-12.05,3.33 c-1.49,1.33-2.11,3.18-1.77,5.49c0.48,3.27,3.21,7.37,4.85,10.34l3.97,7.14c2.89,5.19,4.44,5.69-0.91,8.56L22.45,59.99l2.67,0.79 l8.01,0.12c0.91-0.3,1.86-0.65,2.83-1.01c3.82-1.41,7.8-2.87,12.57-2.75c3.6,0.09,6.63,1.74,9.69,3.41l1.38,0.74l7.06,0.11 c0.47-0.26,0.95-0.54,1.42-0.82c3-1.77,6-3.54,10.17-3.68c4.48-0.15,7.95,1.39,11.39,2.92c1.96,0.87,3.91,1.74,5.54,1.86 c0.37,0.03,0.77-0.03,1.19-0.14L77.79,28.5c-1.58-2.81-4.42-6.36-4.01-8.5c0.14-0.72,1.1-1.01,2.27-1.19 C80.01,18.24,83.95,17.66,87.91,17.06L87.91,17.06z M103.21,24.42c7.77,0,14.07,6.3,14.07,14.07c0,7.77-6.3,14.07-14.07,14.07 c-7.77,0-14.07-6.3-14.07-14.07C89.15,30.71,95.44,24.42,103.21,24.42L103.21,24.42z"/></g></svg>