<?xml version="1.0" encoding="utf-8"?><svg version="1.1" id="Layer_1" xmlns="http://www.w3.org/2000/svg" xmlns:xlink="http://www.w3.org/1999/xlink" x="0px" y="0px" viewBox="0 0 122.88 117.02" style="enable-background:new 0 0 122.88 117.02" xml:space="preserve"><style type="text/css">.st0{fill-rule:evenodd;clip-rule:evenodd;}</style><g><path class="st0" d="M30.17,112.3H44.4v4.71H30.17V112.3L30.17,112.3z M115.05,2.48c-0.3-1.02,0.28-2.1,1.3-2.4 c1.02-0.3,2.1,0.28,2.4,1.3c0.39,1.31,0.79,2.52,1.2,3.75c1.98,5.92,4.1,12.27,2.15,18.36c-2.02,6.29-6.47,9.62-11.2,13.15 c-0.64,0.48-1.29,0.96-1.85,1.39c-0.16,2.96-0.4,5.9-0.72,8.83c-0.8,7.37-2.09,14.65-3.93,21.83c2.35,2.2,4.17,4.76,5.45,7.5 c1.53,3.26,2.29,6.78,2.28,10.28c-0.01,3.51-0.81,7-2.41,10.17c-3.76,7.48-11.92,13.2-24.64,13.33h-0.02v0.01H32.61 c-0.04,0-0.08,0-0.12,0c-3.28,0.07-6.35-0.4-9.19-1.42c-2.9-1.05-5.55-2.66-7.94-4.87c-4.32-4-7.38-9-8.89-14.27 c-1.51-5.25-1.5-10.79,0.29-15.93c1.96-5.61,5.33-9.64,9.57-12.38l0.71-6.17c0.05-0.57,0.16-1.11,0.35-1.61 c0.22-0.58,0.55-1.09,0.99-1.52c0.27-0.27,1.53-0.74,3.25-1.26L16.1,31.98H7.96c-0.03,0-0.06,0-0.09,0 c-1.28,0.03-2.43-0.22-3.42-0.68c-1.43-0.66-2.52-1.74-3.27-3.03c-0.72-1.24-1.11-2.68-1.17-4.14c-0.06-1.45,0.21-2.92,0.82-4.24 c1.67-3.61,4.81-4.71,8.22-4.66c2.99,0.04,6.12,1.01,8.49,1.81c2.28,0.77,3.57,1.56,4.71,2.26c1.43,0.88,2.56,1.57,5.78,1.61 l9.01,0.1l0.04,0v0c2.66,0.07,4.4,1.13,5.3,2.57c0.48,0.77,0.71,1.63,0.69,2.52c-0.01,0.84-0.24,1.68-0.66,2.46 c-0.97,1.77-3,3.28-5.86,3.55c-0.06,0.01-0.12,0.01-0.18,0.01v0.01h-7.44l4.59,15.97c1.51-0.12,2.72-0.07,3.36,0.23 c2.13,1,2.91,4.62,3.44,7.12c0.11,0.53,0.21,1,0.28,1.26l0.01,0.04l44.39,4.46c2.54,0.1,4.91,0.45,7.1,0.99 c0.42-2.06,0.84-3.97,1.24-5.79c1.72-7.83,3.1-14.13,2.91-22.99l-8.42,7.37c-0.38,0.33-0.96,0.29-1.3-0.09l-3.57-4.08 c-0.33-0.38-0.29-0.96,0.09-1.3l26.28-23.01c0.38-0.33,0.96-0.29,1.29,0.09l3.57,4.08c0.33,0.38,0.29,0.96-0.09,1.3l-5.09,4.45 c0.12,0.25,0.2,0.52,0.2,0.82c0.09,3.36,0.09,6.7,0,10.02c3.97-2.97,7.63-5.9,9.18-10.74c1.56-4.89-0.35-10.62-2.13-15.96 C115.85,4.99,115.4,3.65,115.05,2.48L115.05,2.48z M99.75,30.35c0.18,0.28,0.29,0.61,0.31,0.96c0.48,10.41-1.02,17.25-2.92,25.89 c-0.43,1.94-0.87,3.97-1.32,6.15c1.92,0.75,3.68,1.66,5.26,2.72c1.57-6.46,2.69-12.99,3.41-19.61c0.32-2.96,0.56-5.93,0.72-8.92 c-0.08-0.35-0.06-0.71,0.05-1.05c0.18-3.69,0.23-7.4,0.18-11.13L99.75,30.35L99.75,30.35z M101.74,71.49l-0.06-0.01 c-0.61-0.16-1.08-0.6-1.3-1.15c-3.82-3.01-9.02-5.03-15.56-5.28c-0.05,0-0.1,0-0.15-0.01l-44.87-4.51 c-0.06,0.02-0.11,0.04-0.17,0.05c-0.53,0.14-1.06,0.04-1.49-0.22l-1.27-0.13c-6.23-0.3-12.3,0.64-17.19,3.36 c-4.13,2.3-7.43,5.9-9.27,11.16c-1.52,4.35-1.52,9.08-0.22,13.6c1.33,4.62,4,9,7.79,12.5c2,1.85,4.21,3.2,6.63,4.07 c2.38,0.86,4.98,1.25,7.79,1.2c0.07-0.01,0.14-0.01,0.21-0.01h52.46v0.01c11.05-0.12,18.05-4.93,21.21-11.22 c1.33-2.63,1.99-5.53,2-8.44c0.01-2.93-0.63-5.89-1.91-8.63C105.29,75.51,103.74,73.35,101.74,71.49L101.74,71.49z M20.48,58.93 c4.86-2.04,10.44-2.78,16.1-2.57l-0.02-0.12c-0.37-1.73-0.91-4.25-1.29-4.43c-0.37-0.17-2.75,0.19-5.48,0.71 c-1.61,0.31-3.26,0.65-4.69,0.97c-0.15,0.09-0.31,0.17-0.48,0.22c-0.26,0.08-0.52,0.1-0.77,0.07c-1.55,0.37-2.63,0.66-2.74,0.77 c-0.04,0.04-0.07,0.09-0.1,0.16c-0.05,0.13-0.08,0.3-0.1,0.51c0,0.04-0.01,0.08-0.01,0.12L20.48,58.93L20.48,58.93z M30.18,71.07 c3.15,0,5.99,1.28,8.05,3.34c2.06,2.06,3.34,4.91,3.34,8.06c0,3.15-1.28,5.99-3.34,8.05c-0.04,0.04-0.09,0.08-0.13,0.13l3.69,5.78 h7.9c1.07,0,1.93,0.87,1.93,1.93c0,1.07-0.87,1.93-1.93,1.93h-8.95v-0.01c-0.64,0-1.26-0.32-1.62-0.89l-4.19-6.57 c-1.44,0.66-3.05,1.03-4.75,1.03c-3.15,0-5.99-1.28-8.06-3.34c-2.06-2.06-3.34-4.91-3.34-8.05c0-3.15,1.28-5.99,3.34-8.06 C24.19,72.35,27.04,71.07,30.18,71.07L30.18,71.07z M35.5,77.15c-1.36-1.36-3.24-2.2-5.32-2.2c-2.08,0-3.96,0.84-5.32,2.2 c-1.36,1.36-2.2,3.24-2.2,5.32s0.84,3.96,2.2,5.32c1.36,1.36,3.24,2.2,5.32,2.2c0.93,0,1.81-0.17,2.63-0.47l-3.45-5.41 c-0.57-0.9-0.31-2.09,0.59-2.66c0.9-0.57,2.09-0.31,2.66,0.59l3.35,5.25c1.09-1.3,1.74-2.98,1.74-4.82 C37.7,80.39,36.86,78.51,35.5,77.15L35.5,77.15z M25.38,49.54c1.22-0.3,2.48-0.58,3.69-0.81c0.2-0.04,0.4-0.07,0.59-0.11 l-5.12-17.81c-0.07-0.2-0.1-0.41-0.1-0.62c0-1.07,0.87-1.93,1.93-1.93h9.96c1.37-0.16,2.29-0.8,2.69-1.54 c0.13-0.23,0.19-0.46,0.2-0.67c0-0.16-0.04-0.31-0.12-0.44c-0.26-0.41-0.94-0.72-2.13-0.75v0l-8.97-0.1 c-4.34-0.05-5.85-0.98-7.78-2.17c-0.98-0.6-2.09-1.29-3.91-1.9c-2.12-0.71-4.89-1.58-7.31-1.61c-2-0.03-3.8,0.54-4.67,2.42 c-0.35,0.77-0.51,1.63-0.48,2.48c0.03,0.84,0.26,1.66,0.66,2.35c0.37,0.63,0.89,1.15,1.55,1.46c0.48,0.22,1.04,0.34,1.69,0.33 c0.07-0.01,0.14-0.01,0.21-0.01h9.57v0c0.83,0,1.6,0.54,1.85,1.38L25.38,49.54L25.38,49.54z M77.22,112.3h14.23v4.71H77.22V112.3 L77.22,112.3z"/></g></svg>