<svg xmlns="http://www.w3.org/2000/svg" xmlns:xlink="http://www.w3.org/1999/xlink" viewBox="0 0 46 46"><path d="M22.990234 0C18.589324 0 15 3.5893239 15 7.9902344L15 13C15 16.325553 12.325553 19 9 19C9 19 7.5412483 18.986212 6.0527344 19.730469C4.5642205 20.474726 3 22.166667 3 25C3 26.611111 3.2290795 29.033263 2.890625 30.951172C2.7213977 31.910126 2.4120604 32.704834 1.9785156 33.205078C1.5449708 33.705322 1.0166667 34 0 34L0 36C1.4833333 36 2.7050292 35.419678 3.4902344 34.513672C4.2754396 33.607666 4.6536023 32.464874 4.859375 31.298828C5.2709205 28.966737 5 26.388889 5 25C5 22.833333 5.9357795 22.025274 6.9472656 21.519531C7.3172651 21.334532 7.6744581 21.229093 8 21.152344L8 41C8 43.749579 10.250421 46 13 46L33 46C35.749579 46 38 43.749579 38 41L38 21.152344C38.325542 21.229093 38.682735 21.334532 39.052734 21.519531C40.06422 22.025274 41 22.833333 41 25C41 26.388889 40.72908 28.966737 41.140625 31.298828C41.346398 32.464874 41.72456 33.607666 42.509766 34.513672C43.294971 35.419678 44.516667 36 46 36L46 34C44.983333 34 44.455029 33.705322 44.021484 33.205078C43.58794 32.704834 43.278602 31.910126 43.109375 30.951172C42.77092 29.033263 43 26.611111 43 25C43 22.166667 41.43578 20.474726 39.947266 19.730469C38.577071 19.045371 37.28524 19.006378 37.080078 19.003906C37.077905 19.00388 37.072229 19.001971 37.070312 19.001953 A 1.0001 1.0001 0 0 0 37 19C33.674447 19 31 16.325553 31 13L31 7.9902344C31 3.5893239 27.410676 1.1842379e-15 23.009766 0L22.990234 0 z M 22.990234 2L23.009766 2C26.329798 2 29 4.6702041 29 7.9902344L29 12L17 12L17 7.9902344C17 4.6702041 19.670204 2 22.990234 2 z M 16.796875 14L29.203125 14C29.672994 17.573045 32.426955 20.327006 36 20.796875L36 41C36 42.668699 34.668699 44 33 44L13 44C11.331301 44 10 42.668699 10 41L10 20.796875C13.573045 20.327006 16.327006 17.573045 16.796875 14 z M 17 23 A 1.0001 1.0001 0 0 0 16 24L16 31C16 33.197294 17.802706 35 20 35L26 35C28.197294 35 30 33.197294 30 31L30 24 A 1.0001 1.0001 0 0 0 29 23L17 23 z M 18 25L28 25L28 31C28 32.116414 27.116414 33 26 33L20 33C18.883586 33 18 32.116414 18 31L18 25 z"/></svg>