<svg xmlns="http://www.w3.org/2000/svg" xmlns:xlink="http://www.w3.org/1999/xlink" viewBox="0 0 46 46"><path d="M22.990234 0C18.589324 0 15 3.5893239 15 7.9902344L15 13 A 6.006 6.006 0 0 1 9 19C9 19 7.5412483 18.986212 6.0527344 19.730469C4.5642205 20.474726 3 22.166667 3 25C3 26.611111 3.2290795 29.033263 2.890625 30.951172C2.7213977 31.910126 2.4120604 32.704834 1.9785156 33.205078C1.5449708 33.705322 1.0166667 34 0 34L0 36C1.4833333 36 2.7050292 35.419678 3.4902344 34.513672C4.2754396 33.607666 4.6536023 32.464874 4.859375 31.298828C5.2709205 28.966737 5 26.388889 5 25C5 22.833333 5.9357795 22.025274 6.9472656 21.519531C7.3172651 21.334532 7.6744581 21.229093 8 21.152344L8 41 A 5.006 5.006 0 0 0 13 46L33 46 A 5.006 5.006 0 0 0 38 41L38 21.152344C38.325542 21.229093 38.682735 21.334532 39.052734 21.519531C40.06422 22.025274 41 22.833333 41 25C41 26.388889 40.72908 28.966737 41.140625 31.298828C41.346398 32.464874 41.72456 33.607666 42.509766 34.513672C43.294971 35.419678 44.516667 36 46 36L46 34C44.983333 34 44.455029 33.705322 44.021484 33.205078C43.58794 32.704834 43.278602 31.910126 43.109375 30.951172C42.77092 29.033263 43 26.611111 43 25C43 22.166667 41.43578 20.474726 39.947266 19.730469C38.562557 19.038115 37.253119 19.003656 37.070312 19.001953 A 1 1 0 0 0 37 19 A 6.006 6.006 0 0 1 31 13L31 7.9902344C31 3.5893239 27.410676 1.1842379e-15 23.009766 0L22.990234 0 z M 22.990234 2L23.009766 2C26.329798 2 29 4.6702041 29 7.9902344L29 12L17 12L17 7.9902344C17 4.6702041 19.670204 2 22.990234 2 z M 17 23L29 23 A 1 1 0 0 1 30 24L30 31 A 4 4 0 0 1 26 35L20 35 A 4 4 0 0 1 16 31L16 24 A 1 1 0 0 1 17 23 z M 18 25L18 31 A 2 2 0 0 0 20 33L26 33 A 2 2 0 0 0 28 31L28 25L18 25 z"/></svg>