<svg xmlns="http://www.w3.org/2000/svg" xmlns:xlink="http://www.w3.org/1999/xlink" viewBox="0 0 50 50"><path d="M25 0.09375L24.21875 1.09375C23.515625 1.992188 20 6.578125 20 9C20 11.414063 21.722656 13.441406 24 13.90625L24 10C24 9.449219 24.449219 9 25 9C25.550781 9 26 9.449219 26 10L26 13.90625C28.277344 13.441406 30 11.414063 30 9C30 6.578125 26.484375 1.992188 25.78125 1.09375 Z M 23 15C21.347656 15 20 16.347656 20 18L20 26L30 26L30 18C30 16.347656 28.652344 15 27 15 Z M 11 28C8.179688 28 5.761719 29.683594 4.65625 32.09375C5.226563 33.597656 5.804688 34.398438 5.8125 34.40625C6.703125 35.59375 8.390625 37 11.40625 37C13.863281 37 15.6875 36.15625 17 34.40625L17.75 33.375L18.5625 34.375C20.042969 36.152344 22.152344 37 25 37C27.769531 37 30 36.101563 31.4375 34.375L32.25 33.375L33 34.40625C34.3125 36.15625 36.136719 37 38.59375 37C41.050781 37 42.875 36.15625 44.1875 34.40625C44.214844 34.371094 44.964844 33.414063 45.375 32.125C44.277344 29.691406 41.839844 28 39 28 Z M 4 35.3125L4 42L46 42L46 35.34375C45.875 35.523438 45.792969 35.609375 45.78125 35.625C44.113281 37.847656 41.679688 39 38.59375 39C35.941406 39 33.785156 38.167969 32.15625 36.5C30.753906 37.785156 28.5 39 25 39C22.039063 39 19.640625 38.164063 17.84375 36.5C16.214844 38.164063 14.054688 39 11.40625 39C7.5625 39 5.351563 37.144531 4.1875 35.59375C4.175781 35.578125 4.113281 35.484375 4 35.3125 Z M 0 44L0 45C0 50 4.890625 50 6.5 50L43.5 50C45.105469 50 50 50 50 45L50 44Z"/></svg>