<svg xmlns="http://www.w3.org/2000/svg" xmlns:xlink="http://www.w3.org/1999/xlink" viewBox="0 0 50 50"><path d="M25 1.4394531L24.232422 2.359375C24.232422 2.359375 23.204455 3.5874811 22.171875 5.109375C21.655585 5.8703219 21.135433 6.7067845 20.728516 7.53125C20.321598 8.3557155 20 9.1459543 20 10C20 12.407153 21.725423 14.431549 24 14.898438L24 16L23 16C21.35503 16 20 17.35503 20 19L20 28L11 28C7.6983746 28 5 30.698375 5 34L5 34.898438 A 1.0001 1.0001 0 0 0 5 35.087891L5 42L2 42L2 43C2 45.749516 4.2504839 48 7 48L43 48C45.749516 48 48 45.749516 48 43L48 42L45 42L45 35.148438 A 1.0001 1.0001 0 0 0 45 34.777344L45 34C45 30.698375 42.301625 28 39 28L30 28L30 19C30 17.35503 28.64497 16 27 16L26 16L26 14.898438C28.274577 14.431549 30 12.407153 30 10C30 9.1459543 29.678402 8.3557155 29.271484 7.53125C28.864567 6.7067845 28.344415 5.8703219 27.828125 5.109375C26.795545 3.5874811 25.767578 2.359375 25.767578 2.359375L25 1.4394531 z M 25 4.6660156C25.372648 5.137998 25.587244 5.3707484 26.171875 6.2324219C26.655585 6.9453499 27.135433 7.7208874 27.478516 8.4160156C27.821598 9.1111439 28 9.7495457 28 10C28 11.314849 27.167075 12.408769 26 12.818359L26 12 A 1.0001 1.0001 0 0 0 24.984375 10.986328 A 1.0001 1.0001 0 0 0 24 12L24 12.818359C22.832925 12.408769 22 11.314849 22 10C22 9.7495457 22.178402 9.1111439 22.521484 8.4160156C22.864567 7.7208874 23.344415 6.9453499 23.828125 6.2324219C24.412756 5.3707484 24.627352 5.137998 25 4.6660156 z M 23 18L24.832031 18 A 1.0001 1.0001 0 0 0 25.158203 18L27 18C27.56503 18 28 18.43497 28 19L28 28L22 28L22 19C22 18.43497 22.43497 18 23 18 z M 11 30L39 30C41.220375 30 43 31.779625 43 34L43 34.720703C42.734181 35.172458 41.519276 37 39 37C36.143734 37 33.759766 34.351563 33.759766 34.351562 A 1.0001 1.0001 0 0 0 32.292969 34.292969C32.292969 34.292966 29.6 37 25 37C20.4 37 17.707031 34.292969 17.707031 34.292969 A 1.0001 1.0001 0 0 0 16.240234 34.351562C16.240234 34.351565 13.856266 37 11 37C8.4807236 37 7.2658187 35.172458 7 34.720703L7 34C7 31.779625 8.7796254 30 11 30 z M 17.076172 36.259766C17.972525 37.025888 20.507672 39 25 39C29.492328 39 32.027475 37.025888 32.923828 36.259766C33.701654 37.076946 35.71365 39 39 39C40.734001 39 42.044236 38.336837 43 37.587891L43 42L7 42L7 37.587891C7.9557643 38.336837 9.265999 39 11 39C14.28635 39 16.298346 37.076946 17.076172 36.259766 z M 4.4121094 44L45.587891 44C45.150803 45.112465 44.275852 46 43 46L7 46C5.7241482 46 4.8491966 45.112465 4.4121094 44 z"/></svg>