<svg xmlns="http://www.w3.org/2000/svg" xmlns:xlink="http://www.w3.org/1999/xlink" viewBox="0 0 50 50"><path d="M22 0C20.347656 0 19 1.347656 19 3L19 5C19 6.160156 19.839844 7 21 7C21 7.640625 20.640625 8.101563 20 8.21875C15.296875 9.25 12 13.3125 12 18.09375L12 20.125C12 21.429688 12.835938 22.554688 14 22.96875L14 37.0625C12.835938 37.476563 12 38.601563 12 39.90625L12 45C12 47.757813 14.242188 50 17 50L33 50C35.757813 50 38 47.757813 38 45L38 39.90625C38 38.601563 37.164063 37.476563 36 37.0625L36 37L16 37L16 35L36 35L36 25L16 25L16 23L36 23L36 22.96875C37.164063 22.554688 38 21.429688 38 20.125L38 18.09375C38 13.3125 34.707031 9.257813 29.96875 8.21875C29.363281 8.109375 29 7.640625 29 7C30.160156 7 31 6.160156 31 5L31 3C31 1.347656 29.652344 0 28 0Z"/></svg>