<svg xmlns="http://www.w3.org/2000/svg" xmlns:xlink="http://www.w3.org/1999/xlink" viewBox="0 0 50 50"><path d="M22 0C20.355469 0 19 1.355469 19 3L19 6C19 6.523438 19.183594 7.058594 19.5625 7.4375C19.84375 7.71875 20.203125 7.898438 20.59375 7.96875C20.445313 8.085938 20.261719 8.175781 20.03125 8.21875L20 8.21875C15.457031 9.214844 12 13.222656 12 18.09375L12 21C12 22.257813 12.890625 23.152344 14 23.59375L14 36.40625C12.890625 36.847656 12 37.742188 12 39L12 45C12 47.746094 14.253906 50 17 50L33 50C35.746094 50 38 47.746094 38 45L38 39C38 37.742188 37.109375 36.847656 36 36.40625L36 23.59375C37.109375 23.152344 38 22.257813 38 21L38 18.09375C38 13.222656 34.542969 9.214844 30 8.21875L29.96875 8.21875C29.738281 8.175781 29.554688 8.085938 29.40625 7.96875C29.796875 7.898438 30.15625 7.71875 30.4375 7.4375C30.816406 7.058594 31 6.523438 31 6L31 3C31 1.355469 29.644531 0 28 0 Z M 22 2L28 2C28.554688 2 29 2.445313 29 3L29 6L21 6L21 3C21 2.445313 21.445313 2 22 2 Z M 22.65625 8L27.34375 8C27.707031 9.046875 28.445313 9.929688 29.59375 10.15625L29.59375 10.1875C29.601563 10.1875 29.617188 10.1875 29.625 10.1875C33.269531 11 36 14.175781 36 18.09375L36 21C36 21.554688 35.554688 22 35 22L18 22L18 24L34 24L34 36L18 36L18 38L35 38C35.554688 38 36 38.445313 36 39L36 45C36 46.65625 34.65625 48 33 48L17 48C15.34375 48 14 46.65625 14 45L14 39C14 38.445313 14.445313 38 15 38L16 38L16 22L15 22C14.445313 22 14 21.554688 14 21L14 18.09375C14 14.175781 16.730469 11 20.375 10.1875C20.390625 10.183594 20.390625 10.160156 20.40625 10.15625C21.554688 9.929688 22.292969 9.046875 22.65625 8Z"/></svg>