<?xml version="1.0" encoding="utf-8"?><svg version="1.1" id="Layer_1" xmlns="http://www.w3.org/2000/svg" xmlns:xlink="http://www.w3.org/1999/xlink" x="0px" y="0px" viewBox="0 0 40.1 122.88" style="enable-background:new 0 0 40.1 122.88" xml:space="preserve"><style type="text/css">.st0{fill-rule:evenodd;clip-rule:evenodd;}</style><g><path class="st0" d="M30.6,32.25c-0.99,0.01-1.71-0.43-2.23-1.22c-0.98-1.5-0.89-3.13-0.89-4.83V0.93c0-0.51-0.42-0.93-0.93-0.93 h-13.1c-0.51,0-0.93,0.42-0.93,0.93v23.19v2.4c0,1.54,0.09,2.67-0.74,4.08c-0.58,0.97-1.44,1.65-2.55,2.09 c-2.38,1-4.32,2.48-5.84,4.44c-1.57,2.02-2.68,4.55-3.37,7.55v45.87v24.9c-0.15,3.52,1.02,5.79,3.47,6.85 c1.43,0.61,2.32,0.56,3.81,0.56h22.3c1.65,0,3.19,0.07,4.82-0.22c4.11-0.73,5.6-2.9,5.68-6.64V45.87 C39.67,38.75,35.55,35.11,30.6,32.25L30.6,32.25z M9.07,52.98h21.96c1.59,0,2.89,1.3,2.89,2.89v35.44c0,1.59-1.3,2.89-2.89,2.89 H9.07c-1.59,0-2.89-1.3-2.89-2.89V55.87C6.18,54.28,7.48,52.98,9.07,52.98L9.07,52.98z"/></g></svg>