<?xml version="1.0" encoding="iso-8859-1"?>
<!-- Generator: Adobe Illustrator 19.0.0, SVG Export Plug-In . SVG Version: 6.00 Build 0)  -->
<svg version="1.1" id="Capa_1" xmlns="http://www.w3.org/2000/svg" xmlns:xlink="http://www.w3.org/1999/xlink" x="0px" y="0px"
	 viewBox="0 0 384 384" style="enable-background:new 0 0 384 384;" xml:space="preserve">
<g>
	<g>
		<path d="M368,72H16C7.168,72,0,79.168,0,88v18.752c0,41.504,17.032,81.472,46.72,109.64c18.712,17.752,41.136,29.816,65.4,35.68
			V296c0,8.832,7.168,16,16,16h128c8.832,0,16-7.168,16-16v-44.072c24.152-5.888,46.512-17.856,65.152-35.536
			C366.968,188.224,384,148.264,384,106.752V88C384,79.168,376.832,72,368,72z M240.128,280h-96v-23.992
			c3.168,0.04,6.336,0.16,9.536-0.008h76.68c2.496,0.128,4.968,0.184,7.448,0.184c0.784,0,1.552-0.096,2.336-0.112V280z
			 M352,106.752c0,7.184-0.752,14.272-2,21.248H160c-8.832,0-16,7.168-16,16c0,8.832,7.168,16,16,16h179.44
			c-6.08,12.336-14.152,23.656-24.192,33.176C295.496,211.912,270.472,222.6,243.704,224h-12.952h-77.504h-12.88
			c-26.76-1.4-51.856-12.072-71.624-30.832c-10.04-9.52-18.104-20.84-24.184-33.168H96c8.832,0,16-7.168,16-16
			c0-8.832-7.168-16-16-16H34.008C32.752,121.024,32,113.928,32,106.752V104h320V106.752z"/>
	</g>
</g>
<g>
</g>
<g>
</g>
<g>
</g>
<g>
</g>
<g>
</g>
<g>
</g>
<g>
</g>
<g>
</g>
<g>
</g>
<g>
</g>
<g>
</g>
<g>
</g>
<g>
</g>
<g>
</g>
<g>
</g>
</svg>
