<?xml version="1.0" encoding="utf-8"?><svg version="1.1" id="Layer_1" xmlns="http://www.w3.org/2000/svg" xmlns:xlink="http://www.w3.org/1999/xlink" x="0px" y="0px" viewBox="0 0 113.6 122.88" style="enable-background:new 0 0 113.6 122.88" xml:space="preserve"><style type="text/css"><![CDATA[
	.st0{fill-rule:evenodd;clip-rule:evenodd;}
]]></style><g><path class="st0" d="M0.76,73.63l-0.05-0.02c0.03-0.03,0.06-0.06,0.08-0.08c0.14-0.41,0.41-0.75,0.75-0.99l56.28-48.89 c0.24-0.59,0.53-1.18,0.86-1.75c2.19-3.8,5.86-6.22,9.86-6.96c-2.4-4.22-5.73-7.77-9.61-9.84l0,0l-0.16-0.08 c-1.3-0.68-1.81-2.29-1.12-3.6c0.68-1.3,2.29-1.81,3.6-1.12l0.17,0.09l0.01-0.01l0,0c1.15,0.59,2.26,1.29,3.32,2.08 c4.16,3.12,7.58,7.62,9.89,12.67c1.27,0.32,2.51,0.82,3.7,1.5c2.58,1.49,4.52,3.65,5.73,6.14l0,0.01l0.06,0.14l0,0 c0.93,2.04,1.38,4.27,1.3,6.52c8.46,4.32,15.36,10.75,20.69,19.01c0.2,0.2,0.37,0.45,0.47,0.74l0.01,0.02l0.06,0.09h-0.02 c4.89,10.76,7.03,21.15,6.94,31.22c-0.08,10.16-2.43,19.97-6.49,29.52c-0.29,0.68-0.92,1.12-1.61,1.19l0,0L2.2,122.87 c-1.09,0.12-2.07-0.67-2.19-1.76c0-0.07-0.01-0.14-0.01-0.21l0,0c0-27.1,0.32-33.94,0.68-46.79C0.68,73.96,0.71,73.79,0.76,73.63 L0.76,73.63L0.76,73.63z M62.26,23.3l-0.01,0.01l-0.01,0.02l-0.01,0.01l0,0l-0.01,0.01l-0.01,0.02l-0.01,0.01l-0.01,0.02 l-0.01,0.01l-0.01,0.02l-0.01,0.02l-0.01,0.01l-0.01,0.02l-0.01,0.01l0,0l-0.01,0.01l-0.01,0.02l-0.01,0.02l-0.01,0.01l-0.01,0.02 l-0.01,0.02l-0.01,0.02l-0.01,0.01l-0.01,0.02l0,0.01l-0.01,0.01l-0.01,0.02l-0.01,0.02l-0.01,0.02l-0.01,0.01L62,23.71l-0.01,0.02 l-0.01,0.02l-0.01,0.02l-0.01,0.02l-0.04,0.06l-0.02,0.04l-0.01,0.02l-0.03,0.06l-0.01,0.02l-0.02,0.04l-0.03,0.06l0,0l-0.03,0.06 l-0.02,0.05l-0.01,0.01l-0.03,0.06l-0.01,0.03l-0.02,0.03l-0.03,0.06l0,0.01l-0.03,0.05l-0.03,0.05l0,0.01l-0.03,0.06l-0.02,0.03 l-0.01,0.03l-0.03,0.06l-0.01,0.02l-0.02,0.05l-0.07,0.17l-0.01,0.02l-0.03,0.06l-0.01,0.02l-0.02,0.04l-0.03,0.06v0l-0.02,0.06 l-0.02,0.04l-0.01,0.02l-0.02,0.06l-0.01,0.03l-0.04,0.1l0,0.01l-0.02,0.06l-0.04,0.13l-0.01,0.03l-0.01,0.03l-0.02,0.06l0,0.01 l-0.02,0.05l-0.02,0.06l0,0.01L61,25.98l-0.01,0.04l-0.01,0.03l-0.02,0.06l0,0.02l-0.01,0.05l-0.02,0.06l0,0l-0.02,0.06l-0.01,0.04 l-0.02,0.09l0,0.02l-0.01,0.04l-0.02,0.06v0l-0.02,0.06l-0.01,0.05l0,0.02l-0.01,0.06l-0.01,0.03l-0.01,0.04l-0.01,0.06l0,0.01 l-0.01,0.06L60.74,27l0,0.01l-0.01,0.06l-0.01,0.03l-0.01,0.03l-0.01,0.06l0,0.01l-0.01,0.05l-0.01,0.06l0,0.01l-0.01,0.06l0,0.04 l0,0.03l-0.01,0.06l0,0.02l-0.01,0.05l-0.01,0.06v0l-0.01,0.07l0,0.04l0,0.02l-0.01,0.07c-0.11,0.97-0.09,1.95,0.07,2.9l0,0 c0.53,2.97,2.31,5.69,5.13,7.32c5.06,2.92,11.52,1.19,14.44-3.87c0.23-0.4,0.43-0.81,0.61-1.22l0.03-0.08l0.01-0.02l0.02-0.06 l0.03-0.08l0.01-0.01l0.03-0.07l0.03-0.08h0l0.03-0.08l0.03-0.07l0-0.01l0.03-0.08l0.02-0.06l0.01-0.02l0.03-0.08l0.02-0.05 l0.01-0.04l0.03-0.08l0.01-0.04l0.01-0.05l0.03-0.08l0.01-0.02l0.02-0.06l0.02-0.08l0-0.01l0.02-0.07l0.02-0.08v0l0.02-0.08 l0.02-0.07l0-0.01l0.02-0.08l0.01-0.06l0-0.02l0.02-0.08l0.01-0.05l0.01-0.04l0.02-0.08l0.01-0.03l0.01-0.05l0.02-0.08l0-0.02 l0.01-0.06l0.01-0.08l0-0.01l0.01-0.07l0.01-0.08v0l0.01-0.08l0.01-0.07l0-0.01l0.01-0.08l0.01-0.06l0-0.03l0.01-0.08l0-0.04 l0-0.04l0.01-0.08l0-0.03l0-0.05l0.01-0.08l0-0.02l0-0.06l0-0.08V29.5l0-0.08l0-0.08v0l0-0.08l0-0.07v-0.02l0-0.08l0-0.06v-0.03 v-0.08v-0.04v-0.04l0-0.08l0-0.03l0-0.14l0-0.02l0-0.06l0-0.08v-0.01l0-0.08l-0.01-0.08v0l-0.01-0.08l0-0.07l0-0.02l-0.01-0.08 l-0.01-0.06l0-0.03l-0.01-0.08l0-0.04l0-0.04l-0.01-0.08c-0.13-1.09-0.43-2.15-0.89-3.15l0,0l-0.05-0.1l0,0 c-0.9-1.83-2.32-3.43-4.22-4.52l-0.09-0.05l-0.09-0.05l-0.06-0.03l-0.04-0.02l-0.09-0.05l-0.09-0.05l-0.02-0.01l-0.07-0.04 l-0.09-0.04l-0.08-0.04l-0.01-0.01l-0.19-0.09l-0.05-0.02l-0.05-0.02l-0.09-0.04l-0.09-0.04l-0.01,0l-0.08-0.03l-0.09-0.04 l-0.07-0.03l-0.03-0.01l-0.1-0.04l-0.09-0.04l-0.03-0.01l-0.06-0.02l-0.1-0.03l-0.09-0.03l0,0l-0.1-0.03l-0.1-0.03l-0.06-0.02 l-0.04-0.01l-0.1-0.03L74,18.87l-0.02-0.01l-0.08-0.02l-0.1-0.03l-0.08-0.02l-0.02,0l-0.1-0.02l-0.1-0.02l-0.04-0.01l-0.05-0.01 l-0.1-0.02l-0.1-0.02l-0.01,0l-0.09-0.02l-0.1-0.02l-0.07-0.01l-0.03,0l-0.1-0.02l-0.1-0.02l-0.03,0l-0.17-0.02l-0.09-0.01l-0.01,0 l-0.1-0.01l-0.1-0.01l-0.06,0l-0.04,0l-0.1-0.01l-0.1-0.01l-0.02,0l-0.08-0.01l-0.18-0.01l-0.02,0l-0.1,0l-0.1,0l-0.04,0l-0.06,0 l-0.1,0h-0.1h0h-0.09l-0.1,0l-0.07,0h-0.03l-0.1,0l-0.1,0l-0.03,0l-0.07,0l-0.1,0.01L70.4,18.5h-0.01l-0.1,0.01 C67.12,18.77,64.11,20.45,62.26,23.3L62.26,23.3z M56.88,30.98L9.13,70.89l91.19-22.81c-4.56-4.35-10.06-9.2-16.2-13.12 c-0.18,0.39-0.38,0.77-0.59,1.14c-3.97,6.87-12.75,9.23-19.62,5.26c-3.83-2.21-6.25-5.91-6.97-9.94l0,0L56.88,30.98L56.88,30.98z M76.8,33.84c0.4-0.27,0.5-0.81,0.24-1.21c-0.26-0.4-0.81-0.51-1.2-0.24c-0.99,0.66-2.01,1.16-3.05,1.49 c-1.04,0.33-2.11,0.51-3.22,0.54c-0.48,0.01-0.86,0.4-0.85,0.88c0.01,0.48,0.4,0.86,0.88,0.85c1.27-0.03,2.51-0.23,3.71-0.62 C74.51,35.15,75.68,34.58,76.8,33.84L76.8,33.84L76.8,33.84L76.8,33.84z M4.88,84.32c0.7,0.35,1.4,0.73,2.09,1.1l0.02,0.01 c9.24,5.01,13.89,0.51,18.71-4.14c5.38-5.2,10.96-10.6,22.94-4.1c2.12,1.15,4.23,2.29,6.64,2.33c2.41,0.04,5.19-1,8.72-4.2 l0.26-0.31c10.29-10.49,16.1-7.34,22.02-4.14c9.25,5.02,13.9,0.52,18.71-4.14c0.76-0.74,1.53-1.48,2.31-2.19 c-0.97-3.97-2.33-8-4.11-12.09C45.4,66.22,62.4,62.18,5.03,75.84C5,76.65,4.95,79.92,4.88,84.32L4.88,84.32z M108.29,69.44 c-0.4,0.38-0.79,0.76-1.19,1.15c-5.38,5.2-10.96,10.6-22.94,4.1c-2.12-1.15-4.23-2.29-6.64-2.33c-2.41-0.04-5.19,1-8.71,4.19 l-0.27,0.32c-10.29,10.48-16.1,7.34-22.02,4.13l-0.02-0.01c-9.24-5-13.89-0.51-18.7,4.14c-5.38,5.21-10.96,10.6-22.95,4.1 L4.8,89.19L4.59,103.4c1.16,0.51,2.28,1.12,3.4,1.73l0.02,0.01c9.25,5.02,13.9,0.52,18.71-4.14c5.38-5.2,10.96-10.6,22.94-4.1 c2.12,1.15,4.23,2.29,6.65,2.33c2.41,0.04,5.19-1,8.72-4.2l0.25-0.29c10.3-10.5,16.11-7.35,22.03-4.14 c9.25,5.01,13.9,0.52,18.71-4.14c1-0.97,2.01-1.94,3.05-2.83c0.06-1.02,0.09-2.05,0.1-3.08C109.2,76.89,108.92,73.19,108.29,69.44 L108.29,69.44z M108.39,90.07l-0.24,0.23c-5.38,5.2-10.96,10.6-22.94,4.1c-2.12-1.15-4.23-2.29-6.64-2.33 c-2.41-0.04-5.19,1-8.72,4.2l-0.26,0.31c-10.29,10.49-16.1,7.34-22.01,4.14c-9.26-5.02-13.91-0.52-18.72,4.13 c-5.38,5.2-10.96,10.6-22.95,4.1l-0.02-0.01c-0.45-0.25-0.91-0.49-1.37-0.73c-0.06,4.89-0.11,8.78-0.11,10.19l99.07-11.14 C105.8,101.61,107.47,95.89,108.39,90.07L108.39,90.07z"/></g></svg>