<svg xmlns="http://www.w3.org/2000/svg" xmlns:xlink="http://www.w3.org/1999/xlink" viewBox="0 0 50 50"><path d="M37.779297 3.0039062C37.057703 2.9525781 36.596125 3.4697031 36.390625 3.8769531L27.945312 21L26.119141 21C26.227291 20.505506 26.401759 20.035894 26.640625 19.603516L28.78125 15.261719C28.20125 15.104719 27.608 15 27 15C26.30386 15 25.633233 15.104765 24.998047 15.294922C24.363097 15.106036 23.692554 15 23 15C22.30534 15 21.634355 15.106785 21 15.296875C20.364364 15.107541 19.693405 15 19 15C18.30534 15 17.634355 15.106785 17 15.296875C16.364364 15.107541 15.693405 15 15 15C11.486003 15 8.5692259 17.617426 8.0800781 21L7.8632812 21C7.7752812 21.009 7.691375 21.0215 7.609375 21.0625C7.559375 21.0825 7.5204687 21.112578 7.4804688 21.142578C7.4104687 21.182578 7.3392969 21.232969 7.2792969 21.292969C7.2592969 21.312969 7.2504687 21.312031 7.2304688 21.332031C7.2104688 21.362031 7.1996875 21.403594 7.1796875 21.433594C7.1496875 21.483594 7.1098438 21.5125 7.0898438 21.5625L3.0898438 30.5625C2.8598438 31.0725 3.0898438 31.662813 3.5898438 31.882812C3.7298438 31.942812 3.86 31.972656 4 31.972656C4.38 31.972656 4.7501562 31.752813 4.9101562 31.382812L7.5996094 25.34375L11.220703 46.179688C11.300703 46.649687 11.719219 47 12.199219 47L38 47C38.48 47 38.900469 46.649688 38.980469 46.179688L42.599609 25.34375L45.289062 31.382812C45.449062 31.752813 45.819219 31.972656 46.199219 31.972656C46.339219 31.972656 46.469375 31.942813 46.609375 31.882812C47.109375 31.662813 47.339375 31.0725 47.109375 30.5625L43.109375 21.5625C43.089375 21.5125 43.049531 21.483594 43.019531 21.433594C42.999531 21.403594 42.990703 21.362031 42.970703 21.332031C42.960703 21.312031 42.939922 21.312734 42.919922 21.302734C42.859922 21.232734 42.790937 21.182813 42.710938 21.132812C42.670938 21.112813 42.639844 21.0825 42.589844 21.0625C42.499844 21.0175 42.401734 21.004 42.302734 21L35.921875 21L44.726562 8.3398438C45.069563 7.8358437 45.279344 6.9323906 44.152344 6.1503906C43.025344 5.3683906 42.233203 6.0367344 41.908203 6.5527344L33.03125 21L30.535156 21L39.361328 5.3945312C39.656328 4.8625312 39.781891 3.9435312 38.587891 3.2695312C38.289391 3.1010313 38.019828 3.0210156 37.779297 3.0039062 z M 14.015625 17.097656C12.993524 18.13664 12.298073 19.492516 12.080078 21L10.099609 21C10.495481 19.027578 12.040983 17.487571 14.015625 17.097656 z M 18.015625 17.097656C16.993524 18.13664 16.298073 19.492516 16.080078 21L14.099609 21C14.495481 19.027578 16.040983 17.487571 18.015625 17.097656 z M 22.011719 17.097656C20.990941 18.136069 20.297453 19.491513 20.080078 21L18.099609 21C18.49523 19.028829 20.038873 17.488785 22.011719 17.097656 z M 26.009766 17.099609C24.990206 18.138065 24.297535 19.492976 24.080078 21L22.109375 21C22.509722 19.042205 24.050945 17.495149 26.009766 17.099609 z M 8.9980469 22.972656L41.199219 22.972656L38.199219 32L11.998047 32L8.9980469 22.972656 z"/></svg>