<svg xmlns="http://www.w3.org/2000/svg" xmlns:xlink="http://www.w3.org/1999/xlink" viewBox="0 0 50 50"><path d="M37.779297 3.0039062C37.057703 2.9525781 36.596125 3.4697031 36.390625 3.8769531L27.945312 21L10.269531 21C10.269531 19.346 11.615531 18 13.269531 18L14.269531 18L14.269531 17C14.269531 15.346 15.615531 14 17.269531 14C17.682531 14 18.090375 14.088672 18.484375 14.263672L18.925781 14.460938L19.351562 14.238281C20.328563 13.733281 21.407312 14.083969 21.945312 14.917969L22.386719 15.601562L23.146484 15.308594C23.839484 15.039594 24.58025 14.95025 25.28125 15.03125L26.15625 15.134766L26.367188 14.279297C26.700187 12.937297 27.892578 12 29.267578 12C29.552578 12 29.826844 12.050906 30.089844 12.128906L30.980469 10.324219C30.442469 10.122219 29.868531 10 29.269531 10C27.257531 10 25.479266 11.199 24.697266 13C24.169266 13.006 23.644812 13.077891 23.132812 13.212891C22.063813 12.107891 20.367281 11.684625 18.863281 12.265625C18.345281 12.088625 17.811531 12 17.269531 12C14.825531 12 12.785516 13.762984 12.353516 16.083984C10.031516 16.515984 8.2695312 18.556 8.2695312 21L8.1601562 21 A 1.0001 1.0001 0 0 0 8.0097656 20.986328 A 1.0001 1.0001 0 0 0 7.1582031 21.458984 A 1.0001 1.0001 0 0 0 7.1582031 21.460938 A 1.0001 1.0001 0 0 0 7.0859375 21.59375L3.0859375 30.59375 A 1.0002746 1.0002746 0 1 0 4.9140625 31.40625L7.5820312 25.404297L11.214844 46.171875 A 1.0001 1.0001 0 0 0 12.199219 47L37.800781 47 A 1.0001 1.0001 0 0 0 38.785156 46.171875L42.417969 25.404297L45.085938 31.40625 A 1.0002742 1.0002742 0 1 0 46.914062 30.59375L42.998047 21.785156C42.989467 20.346488 42.201908 19.037975 40.972656 18.341797C40.794656 18.261797 40.639953 18.19 40.501953 18.125L39.326172 19.816406L39.654297 19.931641C40.183809 20.115819 40.578556 20.515208 40.800781 21L36.068359 21L44.728516 8.546875C45.070516 8.043875 45.279344 7.1394219 44.152344 6.3574219C43.025344 5.5754219 42.233203 6.2437656 41.908203 6.7597656L33.160156 21L30.535156 21L39.361328 5.3945312C39.656328 4.8625312 39.781891 3.9435312 38.587891 3.2695312C38.289391 3.1010313 38.019828 3.0210156 37.779297 3.0039062 z M 18.269531 16C17.717531 16 17.269531 16.448 17.269531 17C17.269531 17.552 17.717531 18 18.269531 18C18.821531 18 19.269531 17.552 19.269531 17C19.269531 16.448 18.821531 16 18.269531 16 z M 21.269531 18C20.717531 18 20.269531 18.448 20.269531 19C20.269531 19.552 20.717531 20 21.269531 20C21.821531 20 22.269531 19.552 22.269531 19C22.269531 18.448 21.821531 18 21.269531 18 z M 9.8691406 23L40.130859 23L35.464844 30L14.535156 30L9.8691406 23 z M 9.8027344 26.507812L13.167969 31.554688 A 1.0001 1.0001 0 0 0 14 32L36 32 A 1.0001 1.0001 0 0 0 36.832031 31.554688L40.197266 26.507812L36.958984 45L13.041016 45L9.8027344 26.507812 z"/></svg>