<svg xmlns="http://www.w3.org/2000/svg" xmlns:xlink="http://www.w3.org/1999/xlink" viewBox="0 0 50 50"><path d="M13 -0.09375C6.328125 -0.09375 0.90625 5.328125 0.90625 12C0.90625 18.671875 6.328125 24.09375 13 24.09375C14.800781 24.09375 16.535156 23.71875 18.125 22.96875L12.1875 15.71875C11.589844 17.152344 10.75 18.503906 9.84375 17.875C8.261719 16.78125 11.660156 13.351563 12.3125 12.71875L28.03125 31.875C28.015625 31.941406 28 31.988281 28 32.0625L28 43.15625C23.824219 43.933594 16 45.820313 16 49C16 49.554688 16.449219 50 17 50L41 50C41.007813 50 41.027344 50 41.03125 50C41.585938 50 42.03125 49.554688 42.03125 49C42.03125 48.902344 41.996094 48.808594 41.96875 48.71875C41.519531 45.710938 34.050781 43.910156 30 43.15625L30 32.0625C30 31.988281 29.984375 31.945313 29.96875 31.875L45.78125 12.625C46.027344 12.324219 46.070313 11.910156 45.90625 11.5625C45.742188 11.210938 45.386719 11 45 11L25.03125 11C24.519531 4.738281 19.347656 -0.09375 13 -0.09375 Z M 12.34375 6.03125C14.066406 5.847656 13.683594 9.386719 13.4375 11L13.0625 11C12.820313 10.984375 12.578125 11.050781 12.375 11.21875C12.351563 11.238281 12.332031 11.261719 12.3125 11.28125C11.746094 9.820313 10.574219 6.222656 12.34375 6.03125 Z M 17.84375 9.21875C18.261719 9.21875 18.601563 9.378906 18.8125 9.78125C19.0625 10.265625 18.871094 10.65625 18.46875 11L14.34375 11C15.320313 10.234375 16.78125 9.222656 17.84375 9.21875 Z M 7.9375 10.25C9.21875 10.210938 11.191406 11.152344 12.09375 11.625C11.960938 11.953125 11.976563 12.332031 12.21875 12.625C11.203125 12.707031 6.277344 13.03125 6.78125 11.0625C6.925781 10.507813 7.355469 10.269531 7.9375 10.25 Z M 15.125 13L42.875 13L40.40625 16L17.59375 16Z"/></svg>