<?xml version="1.0" encoding="utf-8"?><svg version="1.1" id="Layer_1" xmlns="http://www.w3.org/2000/svg" xmlns:xlink="http://www.w3.org/1999/xlink" x="0px" y="0px" viewBox="0 0 117 122.88" style="enable-background:new 0 0 117 122.88" xml:space="preserve"><g><path d="M94.8,15.36c-1.18-0.34-1.86-1.56-1.53-2.74c0.34-1.18,1.56-1.86,2.74-1.53c3.15,0.9,5.79,2.39,7.82,4.59 c2.03,2.22,3.39,5.1,3.94,8.79c0.18,1.21-0.66,2.34-1.88,2.52c-1.21,0.18-2.34-0.66-2.52-1.88c-0.41-2.76-1.38-4.87-2.81-6.43 C99.13,17.12,97.17,16.04,94.8,15.36L94.8,15.36z M37.87,67.17L0.61,28.09c-0.84-0.89-0.81-2.29,0.08-3.13 c0.43-0.41,0.98-0.61,1.53-0.61v-0.01h14.53L2.27,9.86c-0.87-0.87-0.87-2.27,0-3.14c0.87-0.87,2.27-0.87,3.14,0l17.62,17.62h42.2 c0.46-6.48,3.24-12.31,7.52-16.64C77.44,2.94,83.92,0,91.08,0c7.16,0,13.64,2.94,18.34,7.7C114.1,12.45,117,19,117,26.23 c0,7.23-2.9,13.78-7.58,18.53c-4.7,4.76-11.18,7.7-18.34,7.7c-3.19,0-6.25-0.59-9.09-1.66c-2.33-0.88-4.51-2.1-6.48-3.6L56,67.18 v38.38l14.94,13.45c0.91,0.82,0.98,2.22,0.16,3.13c-0.44,0.49-1.04,0.73-1.65,0.73v0H24.77c-1.23,0-2.22-0.99-2.22-2.22 c0-0.7,0.32-1.32,0.82-1.73l14.5-13.36V67.17L37.87,67.17z M69.68,24.34h22.88c1.23,0,2.22,0.99,2.22,2.22 c0,0.66-0.29,1.26-0.75,1.67L78.64,44c1.5,1.08,3.15,1.98,4.92,2.65c2.33,0.88,4.87,1.37,7.52,1.37c5.93,0,11.3-2.43,15.18-6.36 c3.89-3.94,6.3-9.39,6.3-15.42c0-6.03-2.41-11.48-6.3-15.42c-3.88-3.93-9.25-6.36-15.18-6.36c-5.93,0-11.3,2.43-15.18,6.36 C72.42,14.33,70.13,19.06,69.68,24.34L69.68,24.34z M7.4,28.78l6.82,7.15c0.14-0.03,0.29-0.05,0.45-0.05h64.77 c0.28,0,0.54,0.05,0.79,0.14l7.08-7.25H7.4L7.4,28.78z M18.41,40.33l23.18,24.31c0.45,0.41,0.73,0.99,0.73,1.65v40.26h0 c0,0.6-0.24,1.2-0.72,1.63l-11.14,10.26h33.22l-11.29-10.16c-0.5-0.41-0.83-1.03-0.83-1.73V66.28h0.01c0-0.56,0.21-1.11,0.63-1.55 l23.83-24.41H18.41L18.41,40.33z"/></g></svg>