<svg xmlns="http://www.w3.org/2000/svg" xmlns:xlink="http://www.w3.org/1999/xlink" viewBox="0 0 50 50"><path d="M13 -0.09375C6.332031 -0.09375 0.90625 5.332031 0.90625 12C0.90625 18.667969 6.332031 24.09375 13 24.09375C15.546875 24.09375 17.921875 23.285156 19.875 21.9375L28.03125 31.84375C28.011719 31.914063 28.003906 31.988281 28 32.0625L28 43.15625C27.066406 43.332031 25.113281 43.730469 22.71875 44.4375C21.183594 44.890625 19.640625 45.429688 18.40625 46.09375C17.789063 46.425781 17.25 46.800781 16.8125 47.25C16.375 47.699219 16 48.292969 16 49C16 49.550781 16.449219 50 17 50L41 50C41.550781 50 42 49.550781 42 49C42 48.292969 41.625 47.699219 41.1875 47.25C40.75 46.800781 40.210938 46.425781 39.59375 46.09375C38.359375 45.429688 36.816406 44.890625 35.28125 44.4375C32.886719 43.730469 30.933594 43.332031 30 43.15625L30 32.0625C29.996094 32 29.984375 31.9375 29.96875 31.875L45.78125 12.625C46.023438 12.324219 46.070313 11.914063 45.902344 11.566406C45.734375 11.21875 45.382813 11 45 11L25.0625 11C24.550781 4.792969 19.332031 -0.09375 13 -0.09375 Z M 13 2.09375C18.140625 2.09375 22.335938 6 22.84375 11L18.46875 11C18.878906 10.65625 19.066406 10.269531 18.8125 9.78125C17.945313 8.113281 14.886719 10.496094 13.8125 11.40625L13.78125 11.375C13.6875 11.257813 13.570313 11.160156 13.4375 11.09375C13.679688 9.59375 14.140625 5.839844 12.34375 6.03125C10.523438 6.226563 11.773438 9.878906 12.3125 11.25C12.203125 11.355469 12.117188 11.484375 12.0625 11.625C10.902344 11.003906 7.257813 9.207031 6.78125 11.0625C6.25 13.132813 11.597656 12.679688 12.21875 12.625L12.3125 12.75C11.941406 13.101563 8.183594 16.726563 9.84375 17.875C11.355469 18.917969 12.613281 14.695313 12.9375 13.5L18.5 20.25C16.925781 21.304688 15.042969 21.90625 13 21.90625C7.519531 21.90625 3.09375 17.480469 3.09375 12C3.09375 6.519531 7.519531 2.09375 13 2.09375 Z M 15.125 13L42.875 13L40.40625 16L17.59375 16 Z M 19.25 18L38.75 18L29 29.875 Z M 29 45.03125C29.148438 45.058594 31.867188 45.535156 34.71875 46.375C36.183594 46.804688 37.640625 47.328125 38.65625 47.875C38.738281 47.921875 38.765625 47.953125 38.84375 48L19.15625 48C19.234375 47.953125 19.261719 47.921875 19.34375 47.875C20.359375 47.328125 21.816406 46.804688 23.28125 46.375C26.132813 45.535156 28.851563 45.058594 29 45.03125Z"/></svg>