<svg xmlns="http://www.w3.org/2000/svg" xmlns:xlink="http://www.w3.org/1999/xlink" viewBox="0 0 26 26"><path d="M6.5 0C2.921875 0 0 2.921875 0 6.5C0 10.078125 2.921875 13 6.5 13C7.671875 13 8.796875 12.699219 9.75 12.15625L14 17.34375L14 23.21875C12.117188 23.652344 8.0625 24.722656 8.0625 26L21.9375 26C21.9375 24.722656 17.882813 23.652344 16 23.21875L16 17.34375L24.78125 6.625C24.804688 6.59375 24.824219 6.5625 24.84375 6.53125C25.035156 6.222656 25.046875 5.835938 24.871094 5.515625C24.695313 5.199219 24.363281 5 24 5L12.8125 5C12.140625 2.128906 9.566406 0 6.5 0 Z M 6.5 2C7.25 2 7.945313 2.207031 8.5625 2.53125C7.933594 2.9375 7.3125 4.148438 6.9375 5L6.21875 5C5.84375 4.089844 5.222656 2.78125 4.53125 2.46875C5.128906 2.175781 5.785156 2 6.5 2 Z M 3.53125 3.125C3.53125 3.839844 4.445313 4.753906 5.1875 5.40625C5.011719 5.648438 4.953125 5.960938 5.03125 6.25C3.945313 6.34375 2.398438 6.605469 2.09375 7.28125C2.050781 7.023438 2 6.769531 2 6.5C2 5.148438 2.597656 3.949219 3.53125 3.125 Z M 9.5625 3.25C10.070313 3.734375 10.480469 4.320313 10.71875 5L8.375 5C8.925781 4.445313 9.457031 3.792969 9.5625 3.25 Z M 8.125 7L21.875 7L20.25 9L12 9L16.125 14.03125L15 15.40625 Z M 5.65625 7.15625L6.0625 7.65625C5.792969 8.792969 5.5 10.597656 6.28125 10.96875C4.449219 10.878906 2.929688 9.722656 2.3125 8.09375C2.996094 8.71875 4.714844 7.757813 5.65625 7.15625 Z M 7.34375 9.25L8.4375 10.5625C7.964844 10.785156 7.449219 10.921875 6.90625 10.96875C7.339844 10.738281 7.402344 10.023438 7.34375 9.25Z"/></svg>