<svg xmlns="http://www.w3.org/2000/svg" xmlns:xlink="http://www.w3.org/1999/xlink" viewBox="0 0 50 50"><path d="M47.15625 0C47.027344 -0.0195313 46.882813 -0.00390625 46.75 0.03125L38.75 2.03125C38.46875 2.101563 38.226563 2.300781 38.09375 2.5625L34.0625 10.59375L31.6875 15.34375L29.09375 20.5625C28.847656 21.054688 29.070313 21.660156 29.5625 21.90625C29.707031 21.976563 29.851563 22 30 22C30.367188 22 30.730469 21.789063 30.90625 21.4375L33.71875 15.78125C33.773438 15.792969 33.851563 15.800781 33.90625 15.8125C37.972656 16.964844 40.5625 18.976563 40.5625 21C40.5625 21.015625 40.59375 21.019531 40.59375 21.03125L40.5625 21.09375C42.945313 20 44.640625 18.671875 44.9375 17.375C44.503906 14.679688 41.269531 12.371094 36.09375 11.0625L39.6875 3.84375L47.25 1.96875C47.785156 1.835938 48.105469 1.285156 47.96875 0.75C47.867188 0.347656 47.539063 0.0585938 47.15625 0 Z M 12.5 5C6.75 5 2 9.75 2 15.5C2 19.515625 4.25 22.925781 7.53125 24.75C7.21875 26.609375 7 28.503906 7 30C7 41.027344 15.972656 50 27 50C38.027344 50 47 41.027344 47 30C47 26.742188 46.164063 22.632813 45.5625 20.09375C44.214844 21.523438 42.027344 22.796875 39.40625 23.78125C39.367188 30.835938 36.917969 36.75 36.8125 37C36.652344 37.382813 36.296875 37.59375 35.90625 37.59375C35.777344 37.59375 35.65625 37.585938 35.53125 37.53125C35.019531 37.320313 34.757813 36.730469 34.96875 36.21875C34.992188 36.164063 37.171875 30.828125 37.375 24.4375C34.105469 25.417969 30.421875 26 27 26C19.941406 26 11.746094 23.558594 8.46875 20.125C8.300781 20.867188 8.089844 21.757813 7.90625 22.6875C5.542969 21.132813 4 18.527344 4 15.5C4 10.851563 7.851563 7 12.5 7C17.148438 7 21 10.851563 21 15.5C21 16.265625 20.757813 16.910156 20.59375 17.59375L13.53125 13.1875C13.179688 12.976563 12.734375 13.003906 12.40625 13.25C12.398438 13.253906 12.382813 13.246094 12.375 13.25C12.351563 13.269531 12.332031 13.289063 12.3125 13.3125C10.433594 14.480469 9.300781 15.910156 9.0625 17.40625C9.386719 18.703125 11.097656 20 13.40625 21.0625C13.382813 21.050781 13.378906 21.046875 13.46875 21.09375C13.472656 21.066406 13.5 21.03125 13.5 21C13.5 19.757813 14.800781 18.003906 16.0625 17.53125C16.191406 17.484375 16.28125 17.402344 16.375 17.3125L20.78125 20.0625C21.027344 20.214844 21.324219 20.253906 21.597656 20.167969C21.875 20.085938 22.101563 19.886719 22.21875 19.625C22.800781 18.347656 23 16.902344 23 15.5C23 15.394531 22.972656 15.292969 22.96875 15.1875C24.128906 15 25.417969 14.9375 27 14.9375C27.898438 14.9375 28.742188 14.9375 29.59375 15.03125C29.597656 15.03125 29.621094 15.03125 29.625 15.03125L31.96875 10.3125C31.703125 10.285156 31.386719 10.269531 30.96875 10.21875C29.679688 10.0625 28.335938 10 27 10C24.90625 10 23.144531 10.128906 21.625 10.375C19.8125 7.1875 16.390625 5 12.5 5Z"/></svg>