<svg xmlns="http://www.w3.org/2000/svg" xmlns:xlink="http://www.w3.org/1999/xlink" viewBox="0 0 100 100"><path d="M35.923828 16.976562 A 1.0001 1.0001 0 0 0 35.021484 17.542969L33.371094 20.976562L31.832031 20.976562C30.228793 20.976562 29 22.376563 29 23.976562 A 1.0001 1.0001 0 0 0 29.261719 24.648438C29.527184 25.723173 30.229066 26.645746 31.259766 26.900391L37.171875 82.082031 A 1.0001 1.0001 0 0 0 38.167969 82.976562L62.832031 82.976562 A 1.0001 1.0001 0 0 0 63.828125 82.064453L68.753906 26.896484C69.776948 26.636925 70.474451 25.71833 70.738281 24.648438 A 1.0001 1.0001 0 0 0 70.998047 23.976562C70.998047 22.376563 69.769254 20.976562 68.166016 20.976562L66.632812 20.976562L64.984375 17.542969 A 1.0001 1.0001 0 0 0 64.082031 16.976562L35.923828 16.976562 z M 36.552734 18.976562L63.453125 18.976562L64.412109 20.976562L35.59375 20.976562L36.552734 18.976562 z M 31.832031 22.976562L68.166016 22.976562C68.578778 22.976562 68.998047 23.376563 68.998047 23.976562C68.998592 24.576068 68.580731 24.976562 68.167969 24.976562L68.136719 24.976562 A 1.0001 1.0001 0 0 0 67.537109 24.976562L42.572266 24.976562 A 0.50005 0.50005 0 0 0 42.470703 24.96875 A 0.50005 0.50005 0 0 0 42.394531 24.976562L32.328125 24.976562 A 1.0001 1.0001 0 0 0 32.144531 24.962891 A 1.0001 1.0001 0 0 0 32.007812 24.976562L31.832031 24.976562C31.419269 24.976562 31 24.576563 31 23.976562C31 23.376562 31.419269 22.976562 31.832031 22.976562 z M 33.28125 26.976562L42 26.976562L42.082031 34.962891C41.873602 35.169433 40.812507 36.224211 39.628906 37.541016C38.976638 38.266691 38.32228 39.035282 37.820312 39.722656C37.56933 40.066343 37.356217 40.388194 37.197266 40.6875C37.038314 40.986806 36.917969 41.250011 36.917969 41.578125L36.917969 50.837891C36.917969 52.436641 38.228329 53.75 39.828125 53.75L45.587891 53.75C47.186892 53.75 48.5 52.436892 48.5 50.837891L48.5 41.578125C48.5 41.242192 48.371966 40.979491 48.205078 40.679688C48.03819 40.379883 47.813826 40.056535 47.550781 39.712891C47.024691 39.025602 46.339834 38.258754 45.65625 37.533203C44.414311 36.215018 43.298543 35.157588 43.082031 34.953125L43 26.976562L66.740234 26.976562L66.115234 33.976562L47.484375 33.976562 A 0.50005 0.50005 0 1 0 47.484375 34.976562L66.025391 34.976562L63.435547 63.976562L37.244141 63.976562L34.138672 34.976562L38.484375 34.976562 A 0.50005 0.50005 0 1 0 38.484375 33.976562L34.03125 33.976562L33.28125 26.976562 z M 42.59375 35.882812C42.879717 36.153813 43.762366 36.981837 44.927734 38.21875C45.59815 38.930324 46.26645 39.680945 46.755859 40.320312C47.000564 40.639997 47.200779 40.933737 47.330078 41.166016C47.459378 41.398294 47.5 41.582308 47.5 41.578125L47.5 50.837891C47.500003 51.890889 46.640889 52.75 45.587891 52.75L39.828125 52.75C38.773921 52.75 37.917969 51.89114 37.917969 50.837891L37.917969 41.578125C37.917969 41.574525 37.956459 41.389026 38.080078 41.15625C38.203697 40.923474 38.395483 40.632141 38.628906 40.3125C39.095753 39.673218 39.733565 38.920434 40.373047 38.208984C41.481126 36.976201 42.31654 36.158231 42.59375 35.882812 z M 50.476562 36.96875 A 0.50005 0.50005 0 0 0 49.984375 37.476562L49.984375 61.476562 A 0.50005 0.50005 0 1 0 50.984375 61.476562L50.984375 37.476562 A 0.50005 0.50005 0 0 0 50.476562 36.96875 z M 56.380859 37.119141 A 0.50005 0.50005 0 0 0 55.873047 37.611328C55.626047 45.652328 55.378858 53.693416 55.130859 61.734375 A 0.50005 0.50005 0 1 0 56.128906 61.763672C56.376908 53.72263 56.624094 45.681625 56.871094 37.640625 A 0.50005 0.50005 0 0 0 56.380859 37.119141 z M 61.828125 37.146484 A 0.50005 0.50005 0 0 0 61.357422 37.623047C60.865422 45.636047 60.373857 53.650153 59.880859 61.662109 A 0.50005 0.50005 0 1 0 60.878906 61.722656C61.371909 53.710612 61.863469 45.698547 62.355469 37.685547 A 0.50005 0.50005 0 0 0 61.878906 37.146484 A 0.50005 0.50005 0 0 0 61.828125 37.146484 z M 42.707031 38.75C41.815491 38.75 41.082031 39.48346 41.082031 40.375C41.082031 41.26654 41.815491 42 42.707031 42C43.598572 42 44.332031 41.26654 44.332031 40.375C44.332031 39.48346 43.598572 38.75 42.707031 38.75 z M 42.707031 39.75C43.058132 39.75 43.332031 40.0239 43.332031 40.375C43.332031 40.7261 43.058132 41 42.707031 41C42.355931 41 42.082031 40.7261 42.082031 40.375C42.082031 40.0239 42.355931 39.75 42.707031 39.75 z M 40.138672 54.410156 A 0.50005 0.50005 0 0 0 39.662109 54.931641C39.722479 56.897095 39.749289 57.783129 39.761719 58.1875L39.761719 58.189453C39.76175 58.190437 39.761604 58.193566 39.761719 58.197266C39.761765 58.198766 39.76166 58.203178 39.761719 58.205078C39.761822 58.208478 39.763572 58.229152 39.763672 58.232422C39.763727 58.234222 39.763613 58.234428 39.763672 58.236328C39.763765 58.239328 39.763581 58.258759 39.763672 58.261719C39.76459 58.291749 39.764322 58.306606 39.765625 58.347656C39.766825 58.385456 39.768631 58.398154 39.769531 58.427734C39.769645 58.431434 39.769414 58.431747 39.769531 58.435547C39.769707 58.441247 39.769381 58.456067 39.769531 58.460938C39.77012 58.480047 39.771184 58.49245 39.771484 58.5C39.771514 58.500962 39.771455 58.506812 39.771484 58.507812C39.771507 58.508539 39.771462 58.512872 39.771484 58.513672C39.783944 58.918797 39.810794 59.800604 39.871094 61.763672 A 0.50021458 0.50021458 0 1 0 40.871094 61.734375C40.810724 59.76892 40.781964 58.882886 40.769531 58.478516L40.771484 58.478516L40.771484 58.476562C40.771389 58.473363 40.769931 58.442286 40.769531 58.429688C40.769358 58.424087 40.769739 58.407121 40.769531 58.400391C40.768628 58.370841 40.766825 58.357549 40.765625 58.318359C40.764325 58.276889 40.764672 58.260949 40.763672 58.230469C40.763447 58.223169 40.762019 58.175659 40.761719 58.167969L40.761719 58.166016C40.761602 58.162216 40.761766 58.159703 40.761719 58.158203C40.749299 57.75425 40.720569 56.868948 40.660156 54.902344 A 0.50005 0.50005 0 0 0 40.138672 54.410156 z M 45.503906 55.337891 A 0.50005 0.50005 0 0 0 45.455078 55.339844 A 0.50005 0.50005 0 0 0 44.994141 55.876953C45.093811 57.500276 45.12565 58.012813 45.152344 58.447266C45.1524 58.448202 45.152254 58.449672 45.152344 58.451172L45.152344 58.453125C45.152512 58.455825 45.153897 58.475159 45.154297 58.480469C45.154402 58.482169 45.154184 58.482575 45.154297 58.484375C45.158097 58.547135 45.167601 58.680828 45.175781 58.814453C45.177581 58.843073 45.188093 59.026633 45.189453 59.048828C45.192553 59.098538 45.194013 59.111562 45.195312 59.132812C45.195459 59.135213 45.195177 59.142311 45.195312 59.144531C45.196269 59.160181 45.196866 59.170301 45.197266 59.175781C45.197349 59.177181 45.197236 59.179187 45.197266 59.179688L45.197266 59.181641C45.19768 59.187341 45.199119 59.195272 45.199219 59.195312C45.226059 59.632095 45.256329 60.137252 45.355469 61.751953 A 0.50005 0.50005 0 1 0 46.353516 61.689453C46.239533 59.833061 46.195854 59.110307 46.173828 58.751953C46.168028 58.657303 46.164426 58.588941 46.160156 58.519531C46.156756 58.463761 46.155597 58.444208 46.154297 58.423828C46.15334 58.408188 46.152744 58.396095 46.152344 58.390625C46.152136 58.387225 46.150491 58.371154 46.150391 58.371094C46.123551 57.934315 46.09133 57.429169 45.992188 55.814453 A 0.50005 0.50005 0 0 0 45.503906 55.337891 z M 37.351562 64.976562L63.347656 64.976562L61.917969 80.976562L39.066406 80.976562L37.351562 64.976562 z"/></svg>