<svg xmlns="http://www.w3.org/2000/svg" xmlns:xlink="http://www.w3.org/1999/xlink" viewBox="0 0 80 80"><path d="M54.5 8 A 1.0001 1.0001 0 0 0 54.396484 8.0058594L26.359375 10.935547 A 1.0001 1.0001 0 0 0 26.320312 10.941406C24.556328 11.199081 23.384143 12.338639 22.71875 13.714844 A 1.0001 1.0001 0 0 0 22.666016 13.847656L22.300781 15L21.033203 15C19.849536 15 18.816311 15.415603 18.082031 16.111328C17.347751 16.807053 16.905992 17.721927 16.617188 18.701172C16.039575 20.659662 16.033203 22.968439 16.033203 25 A 1.0001 1.0001 0 0 0 17.033203 26L19.074219 26L24.777344 68.505859 A 1.0001 1.0001 0 0 0 24.78125 68.527344C25.012213 70.009734 26.350399 71 27.828125 71L53.119141 71C54.598407 71 55.936717 70.007958 56.166016 68.527344 A 1.0001 1.0001 0 0 0 56.169922 68.507812L61.875 26L64.033203 26 A 1.0001 1.0001 0 0 0 65.033203 25C65.033203 22.926236 64.89249 20.595268 64.171875 18.638672C63.811567 17.660374 63.296176 16.759769 62.521484 16.083984C61.746793 15.4082 60.705152 15 59.521484 15L59.099609 15L58.320312 11.011719 A 1.0001 1.0001 0 0 0 58.306641 10.957031C57.863763 9.221654 56.289918 8 54.5 8 z M 54.511719 10.003906C55.391265 10.009706 56.148211 10.596332 56.367188 11.449219C56.367188 11.449219 56.369141 11.451172 56.369141 11.451172L57.171875 15.560547C57.1013 15.697358 57.052734 15.845973 57.052734 16.009766C57.052734 16.559766 57.503734 17.009766 58.052734 17.009766C58.086776 17.009766 58.115245 16.993599 58.148438 16.990234 A 1.0001 1.0001 0 0 0 58.275391 17L59.521484 17C60.279817 17 60.771598 17.211956 61.207031 17.591797C61.642465 17.971637 62.012729 18.563876 62.294922 19.330078C62.765243 20.607081 62.927243 22.322434 62.980469 24L18.121094 24C18.144614 22.308243 18.162484 20.529225 18.535156 19.265625C18.76085 18.50037 19.077186 17.9224 19.457031 17.5625C19.836876 17.2026 20.27487 17 21.033203 17L23.033203 17 A 1.0001 1.0001 0 0 0 23.986328 16.302734L24.539062 14.556641C25.037226 13.536694 25.457928 13.08812 26.609375 12.919922L54.511719 10.003906 z M 26.052734 15.009766C25.502734 15.009766 25.052734 15.459766 25.052734 16.009766C25.052734 16.559766 25.503734 17.009766 26.052734 17.009766C26.602734 17.009766 27.052734 16.559766 27.052734 16.009766C27.052734 15.459766 26.602734 15.009766 26.052734 15.009766 z M 30.052734 15.009766C29.502734 15.009766 29.052734 15.459766 29.052734 16.009766C29.052734 16.559766 29.503734 17.009766 30.052734 17.009766C30.613734 17.009766 31.052734 16.559766 31.052734 16.009766C31.052734 15.459766 30.613734 15.009766 30.052734 15.009766 z M 34.052734 15.009766C33.502734 15.009766 33.052734 15.459766 33.052734 16.009766C33.052734 16.559766 33.503734 17.009766 34.052734 17.009766C34.613734 17.009766 35.052734 16.559766 35.052734 16.009766C35.052734 15.459766 34.613734 15.009766 34.052734 15.009766 z M 38.052734 15.009766C37.502734 15.009766 37.052734 15.459766 37.052734 16.009766C37.052734 16.559766 37.503734 17.009766 38.052734 17.009766C38.602734 17.009766 39.052734 16.559766 39.052734 16.009766C39.052734 15.459766 38.602734 15.009766 38.052734 15.009766 z M 42.052734 15.009766C41.502734 15.009766 41.052734 15.459766 41.052734 16.009766C41.052734 16.559766 41.503734 17.009766 42.052734 17.009766C42.602734 17.009766 43.052734 16.559766 43.052734 16.009766C43.052734 15.459766 42.602734 15.009766 42.052734 15.009766 z M 46.052734 15.009766C45.502734 15.009766 45.052734 15.459766 45.052734 16.009766C45.052734 16.559766 45.503734 17.009766 46.052734 17.009766C46.613734 17.009766 47.052734 16.559766 47.052734 16.009766C47.052734 15.459766 46.613734 15.009766 46.052734 15.009766 z M 50.052734 15.009766C49.502734 15.009766 49.052734 15.459766 49.052734 16.009766C49.052734 16.559766 49.503734 17.009766 50.052734 17.009766C50.613734 17.009766 51.052734 16.559766 51.052734 16.009766C51.052734 15.459766 50.613734 15.009766 50.052734 15.009766 z M 54.052734 15.009766C53.502734 15.009766 53.052734 15.459766 53.052734 16.009766C53.052734 16.559766 53.503734 17.009766 54.052734 17.009766C54.613734 17.009766 55.052734 16.559766 55.052734 16.009766C55.052734 15.459766 54.613734 15.009766 54.052734 15.009766 z M 21.091797 26L59.857422 26L57.767578 41.560547L57.302734 41.0625L56.955078 41L56.154297 41.402344L55.996094 42.283203L56.609375 42.9375L56.955078 43L57.619141 42.666016L54.189453 68.220703C54.138752 68.548089 53.631874 69 53.119141 69L27.828125 69C27.319851 69 26.808855 68.546365 26.757812 68.21875L24.292969 49.853516L24.800781 49.597656L24.958984 48.716797L24.347656 48.0625L24.044922 48.007812L23.349609 42.824219L23.800781 42.597656L23.958984 41.716797L23.347656 41.0625L23.107422 41.019531L21.091797 26 z M 39.978516 34.021484L39.177734 34.421875L39.019531 35.304688L39.630859 35.958984L39.978516 36.021484L40.779297 35.619141L40.9375 34.738281L40.326172 34.082031L39.978516 34.021484 z M 43.914062 34.572266L43.113281 34.974609L42.955078 35.855469L43.566406 36.509766L43.914062 36.572266L44.714844 36.171875L44.873047 35.289062L44.261719 34.634766L43.914062 34.572266 z M 36.119141 34.962891L35.316406 35.365234L35.160156 36.246094L35.771484 36.902344L36.119141 36.962891L36.919922 36.5625L37.078125 35.679688L36.464844 35.025391L36.119141 34.962891 z M 47.359375 36.556641L46.558594 36.957031L46.400391 37.839844L47.011719 38.494141L47.359375 38.556641L48.160156 38.154297L48.318359 37.271484L47.707031 36.617188L47.359375 36.556641 z M 32.888672 37.277344L32.085938 37.679688L31.929688 38.5625L32.541016 39.216797L32.888672 39.277344L33.689453 38.876953L33.847656 37.994141L33.234375 37.339844L32.888672 37.277344 z M 40.5 38C36.369707 38 33 41.36971 33 45.5C33 49.63029 36.369707 53 40.5 53C44.630293 53 48 49.63029 48 45.5C48 41.36971 44.630293 38 40.5 38 z M 49.822266 39.675781L49.021484 40.076172L48.863281 40.958984L49.476562 41.613281L49.822266 41.675781L50.625 41.273438L50.78125 40.392578L50.169922 39.738281L49.822266 39.675781 z M 40.5 40C43.549414 40 46 42.450588 46 45.5C46 48.549412 43.549414 51 40.5 51C37.450586 51 35 48.549412 35 45.5C35 42.450588 37.450586 40 40.5 40 z M 30.746094 40.625L29.945312 41.027344L29.787109 41.908203L30.398438 42.5625L30.746094 42.625L31.546875 42.224609L31.705078 41.341797L31.09375 40.6875L30.746094 40.625 z M 27 41L26.199219 41.402344L26.041016 42.283203L26.652344 42.9375L27 43L27.800781 42.597656L27.958984 41.716797L27.347656 41.0625L27 41 z M 52.955078 41L52.154297 41.402344L51.996094 42.283203L52.609375 42.9375L52.955078 43L53.757812 42.597656L53.914062 41.716797L53.302734 41.0625L52.955078 41 z M 28 48L27.199219 48.402344L27.041016 49.283203L27.652344 49.9375L28 50L28.800781 49.597656L28.958984 48.716797L28.347656 48.0625L28 48 z M 53.955078 48L53.154297 48.402344L52.996094 49.283203L53.609375 49.9375L53.955078 50L54.757812 49.597656L54.914062 48.716797L54.302734 48.0625L53.955078 48 z M 50.238281 48.416016L49.4375 48.816406L49.279297 49.699219L49.890625 50.353516L50.238281 50.416016L51.039062 50.013672L51.197266 49.132812L50.583984 48.476562L50.238281 48.416016 z M 31.158203 49.285156L30.355469 49.6875L30.199219 50.568359L30.810547 51.222656L31.158203 51.285156L31.958984 50.882812L32.117188 50.001953L31.503906 49.347656L31.158203 49.285156 z M 48.082031 51.753906L47.28125 52.154297L47.123047 53.037109L47.734375 53.691406L48.082031 53.753906L48.882812 53.351562L49.041016 52.470703L48.427734 51.816406L48.082031 51.753906 z M 33.607422 52.414062L32.806641 52.816406L32.648438 53.697266L33.261719 54.353516L33.607422 54.414062L34.408203 54.013672L34.566406 53.130859L33.955078 52.476562L33.607422 52.414062 z M 44.841797 54.054688L44.041016 54.457031L43.882812 55.337891L44.494141 55.992188L44.841797 56.054688L45.642578 55.654297L45.800781 54.771484L45.189453 54.117188L44.841797 54.054688 z M 37.044922 54.412109L36.242188 54.8125L36.085938 55.695312L36.697266 56.349609L37.044922 56.412109L37.845703 56.009766L38.003906 55.128906L37.390625 54.474609L37.044922 54.412109 z M 40.976562 54.980469L40.175781 55.382812L40.017578 56.263672L40.630859 56.917969L40.976562 56.980469L41.779297 56.580078L41.935547 55.697266L41.324219 55.042969L40.976562 54.980469 z"/></svg>