<?xml version="1.0" encoding="utf-8"?><svg version="1.1" id="Layer_1" xmlns="http://www.w3.org/2000/svg" xmlns:xlink="http://www.w3.org/1999/xlink" x="0px" y="0px" viewBox="0 0 123.65 96.97" style="enable-background:new 0 0 123.65 96.97" xml:space="preserve"><g><path d="M21.46,51.6c-0.57,3.12-0.83,5.95-0.84,8.53c-0.01,2.58,0.23,4.9,0.68,6.99c0.36,1.47,0.84,2.91,1.44,4.3 c0.58,1.36,1.28,2.67,2.1,3.92c1.37,2.09,3.07,4,5.13,5.69c1.94,1.59,4.19,2.97,6.78,4.09l0.17-0.01h47.31 c3.23-1.26,5.99-2.99,8.29-5.07c2.46-2.22,4.4-4.85,5.83-7.72c0.96-1.92,1.69-3.96,2.21-6.06c0.53-2.15,0.82-4.38,0.9-6.62 c0.07-2.24-0.08-4.5-0.44-6.74c-0.36-2.23-0.95-4.45-1.74-6.59c-1.41-3.82-3.48-7.42-6.18-10.54c-2.53-2.91-5.6-5.4-9.21-7.26 l-46.45,0.35c-0.07,0.02-0.15,0.04-0.22,0.05l-0.18,0.02c-3.07,2.09-5.75,4.61-8.02,7.41c-2.39,2.95-4.31,6.22-5.73,9.64 c-0.38,0.91-0.72,1.83-1.02,2.76c-0.3,0.93-0.57,1.86-0.8,2.8L21.46,51.6L21.46,51.6z M86.99,88.03v3.1c0,0.79-0.16,1.54-0.44,2.23 c-0.3,0.71-0.73,1.36-1.27,1.9l-0.02,0.02c-0.53,0.53-1.17,0.96-1.87,1.25c-0.69,0.29-1.44,0.44-2.23,0.44H40.43 c-0.73,0-1.42-0.15-2.06-0.41c-0.66-0.27-1.26-0.68-1.75-1.17l-0.09-0.1c-0.47-0.49-0.85-1.07-1.1-1.72 c-0.25-0.62-0.39-1.29-0.39-1.99v-3.1c-0.94-0.42-1.84-0.86-2.69-1.33c-0.91-0.5-1.78-1.04-2.61-1.6l-0.1-0.01 c-2.06-0.19-4.14-0.58-6.17-1.2c-1.92-0.58-3.8-1.37-5.57-2.37c-1.69-0.96-3.29-2.12-4.74-3.49c-1.37-1.3-2.61-2.79-3.69-4.49 c-2.63-4.16-3.97-7.38-4.69-10.51c-0.71-3.13-0.8-6.15-0.9-9.92l-0.05-1.84c-0.02-0.63-0.04-1.31-0.08-2.05 c-0.07-1.72-0.19-3.43-0.36-5.12C3.22,42.84,3,41.17,2.71,39.5c-0.29-1.64-0.64-3.26-1.06-4.84c-0.43-1.59-0.93-3.14-1.52-4.65 c-0.19-0.48-0.16-1,0.03-1.44c0.19-0.44,0.56-0.8,1.04-0.99c0.13-0.05,0.26-0.08,0.39-0.1c0.13-0.02,0.27-0.03,0.4-0.02l8.48,0.15 c0.39,0.01,0.74,0.13,1.04,0.33c0.3,0.21,0.54,0.51,0.68,0.86l7.16,16.96l0.06-0.15c0.13-0.33,0.27-0.69,0.42-1.06 c1.57-3.79,3.71-7.41,6.37-10.68c2.51-3.08,5.48-5.85,8.87-8.14v-3.36c0-0.6,0.12-1.17,0.34-1.7c0.23-0.55,0.56-1.04,0.97-1.45 l0.02-0.02c0.41-0.4,0.89-0.73,1.42-0.95c0.53-0.22,1.1-0.34,1.7-0.34h0.84c0.52-0.84,1.08-1.63,1.69-2.37 c0.65-0.8,1.36-1.54,2.12-2.22c0.87-0.78,1.81-1.48,2.82-2.11c1.01-0.62,2.1-1.16,3.27-1.6c0.5-0.19,1.02-0.37,1.55-0.52 c0.54-0.16,1.12-0.3,1.71-0.42l0.73-0.14c-0.09-0.26-0.16-0.52-0.22-0.8c-0.09-0.42-0.13-0.86-0.13-1.29c0-0.87,0.17-1.7,0.49-2.46 c0.33-0.79,0.81-1.5,1.4-2.09s1.3-1.07,2.09-1.4C58.63,0.17,59.46,0,60.33,0c0.87,0,1.7,0.17,2.46,0.49 c0.79,0.33,1.5,0.81,2.09,1.4c0.59,0.59,1.07,1.3,1.4,2.09c0.31,0.76,0.49,1.59,0.49,2.46c0,0.41-0.04,0.81-0.12,1.21 c-0.05,0.24-0.11,0.48-0.18,0.71c0.47,0.07,0.93,0.15,1.4,0.25c0.46,0.09,0.9,0.2,1.32,0.31c1.4,0.37,2.71,0.86,3.93,1.47 c1.23,0.61,2.38,1.34,3.43,2.17c0.94,0.74,1.8,1.58,2.6,2.5c0.75,0.87,1.44,1.82,2.07,2.85h0.79c0.6,0,1.17,0.12,1.7,0.34 c0.55,0.23,1.04,0.56,1.45,0.97l0.02,0.02c0.4,0.41,0.73,0.89,0.95,1.43c0.22,0.53,0.34,1.1,0.34,1.7v3.26 c1.36,0.75,2.65,1.59,3.87,2.49c1.24,0.92,2.4,1.91,3.49,2.97c4.24-1.94,8.2-2.52,11.76-2.05c4.01,0.53,7.52,2.38,10.36,5.1 c1.6,1.53,2.98,3.33,4.1,5.32c1.15,2.02,2.04,4.24,2.65,6.57c0.61,2.33,0.93,4.78,0.94,7.25c0.01,2.39-0.28,4.81-0.9,7.16 c-1.33,5.1-4.16,9.92-8.76,13.64c-4.03,3.25-9.42,5.66-16.34,6.65l-0.01,0c-0.12,0.02-0.24,0.02-0.36,0.01l-0.13-0.01 c-1.37,1.52-2.92,2.92-4.66,4.16C90.83,86.08,88.99,87.14,86.99,88.03L86.99,88.03z M38.8,88.96v2.61c0,0.21,0.04,0.41,0.11,0.59 c0.07,0.19,0.18,0.36,0.32,0.51l0.05,0.05c0.3,0.3,0.7,0.48,1.15,0.48h40.73c0.28,0,0.55-0.06,0.79-0.16 c0.25-0.1,0.48-0.26,0.67-0.45c0.19-0.19,0.35-0.42,0.45-0.67c0.1-0.24,0.16-0.51,0.16-0.79v-2.17H38.8L38.8,88.96z M82.71,24.76 v-2.39c0-0.09-0.02-0.18-0.05-0.26c-0.04-0.08-0.09-0.16-0.15-0.23c-0.06-0.06-0.14-0.12-0.22-0.15c-0.08-0.03-0.17-0.05-0.26-0.05 h-42.5c-0.09,0-0.18,0.02-0.26,0.05c-0.08,0.04-0.16,0.09-0.23,0.15c-0.12,0.13-0.2,0.3-0.2,0.48v2.73L82.71,24.76L82.71,24.76z M44.97,17.91h31.68c-0.29-0.35-0.58-0.69-0.89-1.01c-0.48-0.5-0.99-0.97-1.53-1.4c-0.85-0.68-1.78-1.26-2.78-1.75 c-1-0.49-2.07-0.89-3.22-1.2c-0.36-0.1-0.72-0.18-1.1-0.26l-0.01,0c-0.37-0.08-0.78-0.15-1.21-0.21c-0.45-0.07-0.9-0.13-1.34-0.17 c-0.45-0.05-0.91-0.09-1.38-0.11l-0.02,0c-0.24-0.02-0.48-0.08-0.7-0.19c-0.22-0.11-0.42-0.26-0.59-0.46 c-0.34-0.39-0.48-0.89-0.45-1.37c0.04-0.48,0.26-0.95,0.65-1.28c0.15-0.13,0.29-0.27,0.4-0.42c0.12-0.15,0.22-0.32,0.3-0.5 c0.08-0.17,0.14-0.35,0.18-0.54c0.04-0.18,0.06-0.38,0.06-0.58c0-0.37-0.07-0.71-0.2-1.03c-0.13-0.33-0.33-0.62-0.58-0.87 c-0.25-0.25-0.54-0.45-0.87-0.58c-0.31-0.13-0.66-0.2-1.03-0.2c-0.36,0-0.71,0.07-1.02,0.2c-0.33,0.14-0.62,0.34-0.87,0.58 c-0.25,0.25-0.45,0.54-0.58,0.87l-0.01,0.02c-0.12,0.31-0.19,0.65-0.19,1.01c0,0.21,0.02,0.42,0.06,0.6 c0.04,0.19,0.11,0.38,0.19,0.55l0.01,0.03C58,7.8,58.1,7.96,58.22,8.1c0.13,0.16,0.27,0.3,0.42,0.43l0.03,0.03 c0.18,0.15,0.33,0.34,0.44,0.55c0.12,0.22,0.19,0.46,0.21,0.72c0.04,0.52-0.12,1-0.43,1.37l-0.02,0.02 c-0.31,0.35-0.75,0.6-1.25,0.64l-0.03,0c-0.56,0.05-1.13,0.12-1.69,0.2c-0.56,0.08-1.1,0.18-1.63,0.29 c-0.5,0.1-0.98,0.22-1.44,0.35c-0.45,0.13-0.86,0.26-1.24,0.41l-0.02,0.01c-0.93,0.36-1.8,0.79-2.61,1.29 c-0.82,0.5-1.58,1.07-2.28,1.71c-0.4,0.36-0.78,0.74-1.15,1.14C45.34,17.47,45.15,17.69,44.97,17.91L44.97,17.91z M100.39,76.39 c4.99-1.17,8.92-3.22,11.9-5.82c3.56-3.1,5.77-6.99,6.83-11.08c0.53-2.04,0.78-4.14,0.78-6.22c-0.01-2.15-0.29-4.27-0.82-6.31 c-0.52-2-1.28-3.91-2.26-5.63l-0.01-0.03c-0.95-1.68-2.11-3.2-3.44-4.47c-2.19-2.09-4.88-3.54-7.97-4.01 c-2.68-0.41-5.66-0.08-8.87,1.19c1.29,1.56,2.44,3.23,3.44,4.97c1.12,1.93,2.06,3.95,2.83,6.03c0.87,2.36,1.51,4.81,1.91,7.28 c0.4,2.48,0.57,4.98,0.49,7.47c-0.08,2.52-0.41,5.01-1,7.43c-0.58,2.36-1.4,4.65-2.48,6.81c-0.27,0.54-0.56,1.08-0.87,1.62 C100.7,75.87,100.55,76.13,100.39,76.39L100.39,76.39z M17.65,68.01c-0.26-1.06-0.46-2.13-0.61-3.21c-0.15-1.1-0.26-2.21-0.31-3.33 c-0.07-1.68-0.03-3.37,0.13-5.07c0.16-1.67,0.42-3.35,0.8-5.01L9.18,31.34l-4.63-0.08c0.38,1.16,0.71,2.33,1,3.5 c0.34,1.36,0.62,2.72,0.86,4.1c0.3,1.72,0.53,3.47,0.71,5.25c0.18,1.77,0.3,3.57,0.38,5.38l0,0c0.03,0.67,0.05,1.35,0.07,2.02 l0.06,1.94c0.09,3.47,0.17,6.25,0.81,9.08c0.64,2.82,1.85,5.72,4.2,9.45c0.9,1.43,1.95,2.68,3.1,3.77c1.22,1.16,2.57,2.13,4,2.95 c0.82,0.46,1.66,0.87,2.53,1.23c0.47,0.19,0.94,0.37,1.42,0.54c-0.7-0.83-1.38-1.72-2.01-2.68c-0.91-1.38-1.74-2.92-2.44-4.61 c-0.32-0.78-0.62-1.61-0.89-2.46C18.08,69.84,17.85,68.95,17.65,68.01L17.65,68.01L17.65,68.01z"/></g></svg>