<svg xmlns="http://www.w3.org/2000/svg" xmlns:xlink="http://www.w3.org/1999/xlink" viewBox="0 0 48 48"><path d="M12.597656 4.0644531C10.66763 3.9727769 9.3584389 6.2503883 10.369141 7.8808594L13.859375 13.681641L7.3671875 33.191406 A 1.50015 1.50015 0 0 0 7.3632812 33.205078C5.82015 38.005532 9.4617177 43 14.503906 43L33.496094 43C38.538283 43 42.179854 38.00553 40.636719 33.205078 A 1.50015 1.50015 0 0 0 40.632812 33.191406L34.462891 14.650391 A 1.50015 1.50015 0 0 0 34.560547 14.560547L37.6875 11.433594C38.138623 11.785314 38.707718 12.286991 39.328125 13.0625C40.645287 14.708953 42 17.333333 42 21.5 A 1.50015 1.50015 0 1 0 45 21.5C45 16.666667 43.354713 13.291047 41.671875 11.1875C39.989037 9.083953 38.169922 8.1582031 38.169922 8.1582031 A 1.50015 1.50015 0 0 0 36.439453 8.4394531L34.011719 10.867188L34.011719 9.2695312C34.011719 7.5114839 32.681931 6.0079302 30.939453 5.7949219C21.065914 4.5881894 15.316239 4.1935705 12.597656 4.0644531 z M 13.431641 7.1523438C16.233238 7.2987804 21.292493 7.636844 30.576172 8.7714844C30.829694 8.8024764 31.011719 9.0035787 31.011719 9.2695312L31.011719 12L16.347656 12L13.431641 7.1523438 z M 16.582031 15L31.417969 15L34.412109 24L13.587891 24L16.582031 15 z M 12.589844 27L35.410156 27L37.78125 34.125C38.726516 37.06988 36.58921 40 33.496094 40L14.503906 40C11.41079 40 9.2734836 37.06988 10.21875 34.125C10.21875 34.125 10.21875 34.123047 10.21875 34.123047L12.589844 27 z"/></svg>