<svg xmlns="http://www.w3.org/2000/svg" xmlns:xlink="http://www.w3.org/1999/xlink" viewBox="0 0 50 50"><path d="M15.427734 3C14.056734 3 12.861484 3.9278594 12.521484 5.2558594L12.330078 6L37.65625 6L37.474609 5.2714844C37.139609 3.9354844 35.9415 3 34.5625 3L15.427734 3 z M 12 8C8.657 8 8.09 11.01 8 13C8 13.553 8.448 14 9 14L41 14C41.552 14 42 13.553 42 13C41.909 11.01 41.341 8 38 8L12 8 z M 10.248047 16L13.976562 45.044922C14.146562 46.141922 15.197141 47 16.369141 47L33.632812 47C34.803812 47 35.855297 46.141578 36.029297 45.017578L37.185547 36L39.751953 16L10.248047 16 z M 24.90625 20C24.95025 19.994 24.952609 20 24.974609 20C27.861609 20 30.297672 22.025 31.388672 25L31.490234 25L36.580078 25L35.683594 32L31.527344 32L31.390625 32C31.155625 32.655 30.874766 33.28375 30.509766 33.84375C29.216766 35.82575 27.241797 36.975047 25.091797 36.998047L25.023438 36.998047C22.901438 36.998047 20.929422 35.895891 19.607422 33.962891C19.203422 33.372891 18.893719 32.702 18.636719 32L18.521484 32L14.318359 32L13.419922 25L18.484375 25L18.589844 25C19.650844 22.056 22.03625 20.032 24.90625 20 z M 24.951172 24 A 4.5 3.0050001 89.375 0 0 21.996094 28.533203 A 4.5 3.0050001 89.375 0 0 25.048828 33 A 4.5 3.0050001 89.375 0 0 28.005859 28.466797 A 4.5 3.0050001 89.375 0 0 24.951172 24 z"/></svg>