<svg xmlns="http://www.w3.org/2000/svg" xmlns:xlink="http://www.w3.org/1999/xlink" viewBox="0 0 48 48"><path d="M25.478516 1.9277344 A 1.50015 1.50015 0 0 0 24.001953 3.4472656C24.001953 5.4472656 23.314453 5.7773438 22.064453 6.7773438C20.814453 7.7773438 19.001953 9.4472652 19.001953 12.447266 A 1.50015 1.50015 0 1 0 22.001953 12.447266C22.001953 10.447266 22.6875 10.119141 23.9375 9.1191406C25.1875 8.1191406 27.001953 6.4472656 27.001953 3.4472656 A 1.50015 1.50015 0 0 0 25.478516 1.9277344 z M 31.478516 3.9277344 A 1.50015 1.50015 0 0 0 30.001953 5.4472656C30.001953 6.1972656 29.854916 6.5110368 29.650391 6.8007812C29.445865 7.0905258 29.101563 7.3730469 28.601562 7.7480469C28.101562 8.1230469 27.445865 8.5905258 26.900391 9.3632812C26.354916 10.136037 26.001953 11.197266 26.001953 12.447266 A 1.50015 1.50015 0 1 0 29.001953 12.447266C29.001953 11.697266 29.147037 11.383494 29.351562 11.09375C29.556089 10.804006 29.900391 10.523438 30.400391 10.148438C30.900391 9.773437 31.556089 9.3040055 32.101562 8.53125C32.647038 7.7584945 33.001953 6.6972656 33.001953 5.4472656 A 1.50015 1.50015 0 0 0 31.478516 3.9277344 z M 14.615234 15.947266C13.643234 15.947266 12.708828 16.356359 12.048828 17.068359C11.388828 17.781359 11.052953 18.745844 11.126953 19.714844L12.533203 38.021484C12.832203 41.904484 16.117719 44.947266 20.011719 44.947266L27.900391 44.947266C31.795391 44.947266 35.080906 41.904484 35.378906 38.021484L35.384766 37.947266L37.501953 37.947266C41.626454 37.947266 45.001953 34.571767 45.001953 30.447266L45.001953 25.447266C45.001953 23.532311 43.416908 21.947266 41.501953 21.947266L36.613281 21.947266L36.785156 19.716797C36.859156 18.748797 36.524234 17.784313 35.865234 17.070312C35.204234 16.357312 34.268875 15.947266 33.296875 15.947266L14.615234 15.947266 z M 36.382812 24.947266L41.501953 24.947266C41.796998 24.947266 42.001953 25.15222 42.001953 25.447266L42.001953 30.447266C42.001953 32.950765 40.005452 34.947266 37.501953 34.947266L35.615234 34.947266L36.382812 24.947266 z"/></svg>