<svg xmlns="http://www.w3.org/2000/svg" xmlns:xlink="http://www.w3.org/1999/xlink" viewBox="0 0 50 50"><path d="M12 2C8.6983746 2 6 4.6983746 6 8L6 42.417969C6 45.591903 8.832306 48 12 48L44 48L44 46L12 46C9.841694 46 8 44.378035 8 42.417969C8 40.457903 9.8001368 39 12 39L44 39L44 2L12 2 z M 12 4L42 4L42 37L12 37C10.506931 37 9.0923623 37.537598 8 38.417969L8 8C8 5.7796254 9.7796254 4 12 4 z M 33.478516 9.0019531C32.914622 8.9755909 32.332592 9.0418369 31.765625 9.171875C30.26004 9.5171926 28.751763 10.337476 27.589844 11.529297C27.588744 11.530397 27.589023 11.532103 27.587891 11.533203C25.901011 13.203233 25.818961 15.532469 26.279297 17.273438C26.348697 17.536476 26.550206 17.715336 26.675781 17.947266L14.328125 30.292969 A 1.0001 1.0001 0 1 0 15.742188 31.707031L28.085938 19.365234C28.331281 19.50015 28.526599 19.707665 28.806641 19.779297C30.547872 20.225618 32.829086 20.071245 34.558594 18.363281 A 1.0001 1.0001 0 0 0 34.558594 18.361328C35.718428 17.2152 36.531401 15.740505 36.871094 14.251953C37.210787 12.763401 37.077901 11.158782 36.013672 10.044922 A 1.0001 1.0001 0 0 0 35.992188 10.023438C35.444365 9.4818665 34.765931 9.1816949 34.035156 9.0605469C33.852463 9.03026 33.66648 9.0107405 33.478516 9.0019531 z M 16.277344 9.0078125 A 1.0001 1.0001 0 0 0 15.591797 9.2871094C13.504574 11.296662 13.47351 14.65906 15.521484 16.707031L19.935547 21.212891 A 1.0001 1.0001 0 1 0 21.365234 19.814453L16.943359 15.300781 A 1.0001 1.0001 0 0 0 16.935547 15.292969C15.909751 14.267173 15.764492 12.761938 16.408203 11.554688L23.013672 18.242188 A 1.0001 1.0001 0 1 0 24.435547 16.835938L16.998047 9.3046875 A 1.0001 1.0001 0 0 0 16.277344 9.0078125 z M 32.992188 11.007812C33.234896 10.99477 33.459747 11.005623 33.662109 11.037109C34.059855 11.098999 34.369199 11.242464 34.572266 11.4375C35.002938 11.896636 35.165656 12.738379 34.921875 13.806641C34.676568 14.881588 34.02351 16.078582 33.152344 16.939453C31.991851 18.08549 30.565503 18.165476 29.302734 17.841797C29.05989 17.779817 28.823813 17.644173 28.623047 17.445312 A 1.0001 1.0001 0 0 0 28.621094 17.443359C28.418039 17.242851 28.27887 17.004906 28.214844 16.761719 A 1.0001 1.0001 0 0 0 28.212891 16.761719C27.875522 15.485807 27.950176 13.982917 28.994141 12.951172 A 1.0001 1.0001 0 0 0 29.009766 12.935547C29.876907 12.041508 31.108802 11.374325 32.212891 11.121094C32.488913 11.057786 32.749479 11.020855 32.992188 11.007812 z M 28.375 21.392578 A 1.0001 1.0001 0 0 0 27.683594 23.111328L28.574219 23.996094L27.011719 25.560547L26.220703 24.769531 A 1.0001 1.0001 0 1 0 24.806641 26.183594L26.304688 27.681641 A 1.0001 1.0001 0 0 0 27.71875 27.681641L29.992188 25.40625L36.330078 31.708984 A 1.0001 1.0001 0 1 0 37.740234 30.291016L29.09375 21.693359 A 1.0001 1.0001 0 0 0 28.375 21.392578 z"/></svg>