<?xml version="1.0" encoding="utf-8"?><svg version="1.1" id="Layer_1" xmlns="http://www.w3.org/2000/svg" xmlns:xlink="http://www.w3.org/1999/xlink" x="0px" y="0px" viewBox="0 0 122.88 60.72" style="enable-background:new 0 0 122.88 60.72" xml:space="preserve"><g><path d="M59.51,14.73h15.08c-0.09-0.16-0.17-0.33-0.24-0.5c-0.59-1.28-0.91-2.7-0.91-4.18c0-2.78,1.13-5.29,2.95-7.12 C78.2,1.13,80.72,0,83.5,0c2.78,0,5.29,1.13,7.11,2.95c1.82,1.82,2.95,4.34,2.95,7.11c0,1.48-0.33,2.89-0.91,4.18 c-0.08,0.17-0.16,0.33-0.24,0.5h15.84c4.03,0,7.69,1.65,10.34,4.3c2.65,2.65,4.3,6.31,4.3,10.34v16.71c0,4.03-1.65,7.69-4.3,10.34 c-2.65,2.65-6.31,4.3-10.34,4.3H59.51c-4.03,0-7.69-1.65-10.34-4.3c-2.65-2.65-4.3-6.31-4.3-10.34v-4.14h-9.27 c-1.13,2.35-3.53,3.98-6.29,3.98H6.97C3.15,45.93,0,42.79,0,38.95c0-3.84,3.14-6.97,6.97-6.97h22.34c2.77,0,5.17,1.63,6.29,3.98 h9.27v-6.59c0-4.03,1.65-7.69,4.3-10.34C51.83,16.38,55.48,14.73,59.51,14.73L59.51,14.73z M83.55,6.61c1.87,0,3.39,1.52,3.39,3.39 c0,1.87-1.52,3.39-3.39,3.39c-1.87,0-3.39-1.52-3.39-3.39C80.17,8.13,81.68,6.61,83.55,6.61L83.55,6.61z M48.22,32.2h71.32v-2.83 c0-3.1-1.27-5.93-3.32-7.97c-2.05-2.05-4.87-3.32-7.97-3.32H88.99v-0.01c-0.47,0-0.93-0.2-1.26-0.58c-0.6-0.7-0.53-1.75,0.17-2.35 c0.73-0.63,1.32-1.41,1.72-2.29c0.38-0.84,0.6-1.79,0.6-2.79c0-1.86-0.75-3.54-1.97-4.75c-1.22-1.22-2.9-1.97-4.75-1.97 c-1.86,0-3.54,0.75-4.75,1.97c-1.22,1.22-1.97,2.9-1.97,4.75c0,1.01,0.21,1.95,0.6,2.79c0.39,0.85,0.95,1.6,1.63,2.22 c0.41,0.3,0.67,0.79,0.67,1.34c0,0.92-0.75,1.67-1.67,1.67h-18.5c-3.1,0-5.93,1.27-7.97,3.32c-2.05,2.05-3.32,4.87-3.32,7.97V32.2 L48.22,32.2z"/></g></svg>