<svg xmlns="http://www.w3.org/2000/svg" xmlns:xlink="http://www.w3.org/1999/xlink" viewBox="0 0 50 50"><path d="M35.777344 19.71875L30.28125 14.222656C29.910156 13.847656 29.3125 13.828125 28.914063 14.175781L5.148438 35.050781C4.855469 35.308594 4.738281 35.71875 4.851563 36.089844 4.882813 36.195313 5.644531 38.652344 8.496094 41.503906 11.347656 44.355469 13.804688 45.117188 13.90625 45.148438 14.003906 45.179688 14.101563 45.191406 14.195313 45.191406 14.480469 45.191406 14.753906 45.070313 14.945313 44.851563L35.824219 21.085938C36.171875 20.6875 36.152344 20.089844 35.777344 19.71875zM26.828125 13.347656L4.929688 32.582031C1.863281 28.121094 1.066406 25.09375 1.03125 24.945313.925781 24.523438 1.101563 24.085938 1.46875 23.855469L22.867188 10.484375C23.265625 10.238281 23.777344 10.296875 24.105469 10.625zM39.375 25.894531L36.652344 23.171875 17.417969 45.070313C21.875 48.136719 24.90625 48.933594 25.054688 48.96875 25.136719 48.988281 25.21875 49 25.296875 49 25.636719 49 25.960938 48.828125 26.144531 48.53125L39.515625 27.128906C39.761719 26.734375 39.703125 26.222656 39.375 25.894531zM19.160156 7.929688L20.707031 9.476563 2.5 20.851563C1.125 15.980469 1.425781 12.664063 1.441406 12.503906 1.484375 12.082031 1.785156 11.730469 2.195313 11.632813L18.214844 7.667969C18.550781 7.582031 18.914063 7.683594 19.160156 7.929688zM42.070313 30.839844L40.519531 29.289063 29.152344 47.488281C32.460938 48.421875 35.066406 48.597656 36.429688 48.597656 37.074219 48.597656 37.445313 48.5625 37.496094 48.558594 37.917969 48.515625 38.265625 48.214844 38.367188 47.804688L42.332031 31.785156C42.417969 31.445313 42.316406 31.089844 42.070313 30.839844zM15.992188 6.15625L4.113281 9.097656C4.242188 5.601563 4.964844 0 9.074219 0 10.777344 0 12.757813 2.117188 15.992188 6.15625zM44.101563 32.972656L40.921875 45.808594C46.636719 45.21875 50 42.03125 50 38.925781 50 37.132813 47.800781 35.460938 44.101563 32.972656z"/></svg>