<?xml version="1.0" encoding="iso-8859-1"?>
<!-- Generator: Adobe Illustrator 19.0.0, SVG Export Plug-In . SVG Version: 6.00 Build 0)  -->
<svg version="1.1" id="Capa_1" xmlns="http://www.w3.org/2000/svg" xmlns:xlink="http://www.w3.org/1999/xlink" x="0px" y="0px"
	 viewBox="0 0 384 384" style="enable-background:new 0 0 384 384;" xml:space="preserve">
<g>
	<g>
		<path d="M384,128c0-61.76-50.24-112-112-112H32c-8.832,0-16,7.168-16,16v166.24c0,28.68,11.512,54.688,30.112,73.76H16
			c-8.832,0-16,7.168-16,16c0,44.112,35.888,80,80,80h144c44.112,0,80-35.888,80-80c0-8.832-7.168-16-16-16h-30.104
			c9.064-9.248,16.4-20.208,21.568-32.376C337.744,235.752,384,187.24,384,128z M287.696,206.224c0.2-2.64,0.304-5.304,0.304-7.984
			V49.608c36.472,7.44,64,39.76,64,78.392c0,38.744-27.688,71.152-64.312,78.456C287.696,206.384,287.688,206.304,287.696,206.224z
			 M48,128h112c8.832,0,16-7.168,16-16c0-8.832-7.168-16-16-16H48V48h208v48h-32c-8.832,0-16,7.168-16,16c0,8.832,7.168,16,16,16h32
			v70.24c0,7.264-1.032,14.296-3.104,21.072C243.736,250.336,214.68,272,182.24,272h-60.48C81.088,272,48,238.912,48,198.24V128z
			 M269.256,304c-6.6,18.624-24.4,32-45.256,32H80c-20.856,0-38.656-13.376-45.256-32h87.016h60.488H269.256z"/>
	</g>
</g>
<g>
</g>
<g>
</g>
<g>
</g>
<g>
</g>
<g>
</g>
<g>
</g>
<g>
</g>
<g>
</g>
<g>
</g>
<g>
</g>
<g>
</g>
<g>
</g>
<g>
</g>
<g>
</g>
<g>
</g>
</svg>
