<svg xmlns="http://www.w3.org/2000/svg" xmlns:xlink="http://www.w3.org/1999/xlink" viewBox="0 0 50 50"><path d="M25 0C23.429688 0 22.234375 1 21.5625 2.3125C16.480469 2.988281 11.09375 5.21875 6.90625 8.53125C6.832031 8.515625 6.765625 8.476563 6.6875 8.46875C6.273438 8.429688 5.871094 8.492188 5.5 8.625C4.757813 8.886719 4.085938 9.414063 3.46875 10.09375C2.851563 10.773438 2.378906 11.488281 2.1875 12.25C2.078125 12.691406 2.085938 13.1875 2.21875 13.65625C0.871094 15.8125 0 18.335938 0 21C0 22.621094 0.398438 24.058594 1.1875 25.15625C1.976563 26.253906 3.210938 27 4.59375 27L4.90625 27L12.25 47.4375C12.394531 47.832031 12.769531 48.09375 13.1875 48.09375L18.6875 48.09375C18.910156 48.175781 19.152344 48.175781 19.375 48.09375L30.65625 48.09375C30.878906 48.175781 31.121094 48.175781 31.34375 48.09375L36.8125 48.09375C37.230469 48.09375 37.605469 47.832031 37.75 47.4375L45.125 27C46.628906 26.96875 47.941406 26.40625 48.78125 25.34375C49.644531 24.25 50 22.78125 50 21C50 15.761719 45.816406 10.722656 40.34375 7.125C40.273438 6.800781 40.167969 6.492188 40 6.21875C39.589844 5.546875 38.949219 4.964844 38.15625 4.5C37.363281 4.035156 36.535156 3.78125 35.75 3.75C35.285156 3.734375 34.796875 3.832031 34.375 4.0625C32.414063 3.300781 30.414063 2.695313 28.4375 2.3125C27.765625 1 26.570313 0 25 0 Z M 25 2C25.972656 2 26.652344 2.570313 26.9375 3.5C27.046875 3.855469 27.351563 4.121094 27.71875 4.1875C29.5625 4.523438 31.492188 5.097656 33.375 5.8125C33.394531 6.28125 33.550781 6.746094 33.78125 7.125C34.191406 7.796875 34.863281 8.347656 35.65625 8.8125C36.449219 9.277344 37.214844 9.5625 38 9.59375C38.566406 9.613281 39.175781 9.46875 39.65625 9.09375C44.550781 12.445313 48 16.988281 48 21C48 22.519531 47.679688 23.542969 47.21875 24.125C46.757813 24.707031 46.140625 25 45 25L44.8125 25C44.683594 24.953125 44.542969 24.929688 44.40625 24.9375C44.308594 24.945313 44.214844 24.964844 44.125 25L4.59375 25C3.878906 25 3.300781 24.675781 2.8125 24C2.324219 23.324219 2 22.277344 2 21C2 18.902344 2.636719 16.835938 3.6875 15.03125C4.148438 15.113281 4.632813 15.058594 5.0625 14.90625C5.804688 14.644531 6.539063 14.117188 7.15625 13.4375C7.773438 12.757813 8.183594 12.042969 8.375 11.28125C8.484375 10.839844 8.5 10.335938 8.375 9.875C12.332031 6.832031 17.535156 4.726563 22.21875 4.1875C22.609375 4.144531 22.941406 3.875 23.0625 3.5C23.347656 2.570313 24.027344 2 25 2 Z M 35.53125 5.78125C35.582031 5.78125 35.597656 5.777344 35.6875 5.78125C36.050781 5.792969 36.613281 5.902344 37.15625 6.21875C37.699219 6.535156 38.089844 6.972656 38.28125 7.28125C38.375 7.4375 38.394531 7.523438 38.40625 7.5625C38.355469 7.578125 38.257813 7.601563 38.09375 7.59375C37.730469 7.582031 37.199219 7.410156 36.65625 7.09375C36.113281 6.777344 35.722656 6.371094 35.53125 6.0625C35.480469 5.980469 35.464844 5.953125 35.4375 5.90625C35.472656 5.867188 35.503906 5.824219 35.53125 5.78125 Z M 17 8C16.515625 8.011719 16.027344 8.121094 15.59375 8.40625C14.730469 8.972656 14.324219 9.988281 14.3125 10.96875C14.300781 11.949219 14.632813 12.96875 15.25 13.90625C15.867188 14.84375 16.660156 15.5625 17.5625 15.9375C18.464844 16.3125 19.574219 16.347656 20.4375 15.78125C21.300781 15.214844 21.675781 14.230469 21.6875 13.25C21.699219 12.269531 21.367188 11.25 20.75 10.3125C20.132813 9.375 19.308594 8.65625 18.40625 8.28125C17.953125 8.09375 17.484375 7.988281 17 8 Z M 16.84375 10C17.03125 9.949219 17.304688 9.980469 17.65625 10.125C18.125 10.320313 18.679688 10.773438 19.09375 11.40625C19.507813 12.039063 19.695313 12.710938 19.6875 13.21875C19.679688 13.726563 19.539063 13.996094 19.34375 14.125C19.148438 14.253906 18.8125 14.289063 18.34375 14.09375C17.875 13.898438 17.320313 13.445313 16.90625 12.8125C16.492188 12.179688 16.304688 11.507813 16.3125 11C16.320313 10.492188 16.492188 10.222656 16.6875 10.09375C16.738281 10.0625 16.78125 10.015625 16.84375 10 Z M 6.1875 10.53125C6.261719 10.605469 6.34375 10.667969 6.4375 10.71875C6.433594 10.734375 6.441406 10.734375 6.4375 10.75C6.347656 11.101563 6.109375 11.628906 5.6875 12.09375C5.265625 12.558594 4.75 12.878906 4.40625 13C4.25 13.054688 4.171875 13.058594 4.125 13.0625C4.113281 13.050781 4.105469 13.042969 4.09375 13.03125C4.089844 12.980469 4.089844 12.921875 4.125 12.78125C4.214844 12.429688 4.515625 11.902344 4.9375 11.4375C5.359375 10.972656 5.84375 10.652344 6.1875 10.53125 Z M 37.90625 13.90625C36.984375 13.90625 36.195313 14.453125 35.71875 15.15625C35.242188 15.859375 35 16.730469 35 17.6875C35 18.644531 35.242188 19.546875 35.71875 20.25C36.195313 20.953125 36.984375 21.5 37.90625 21.5C38.828125 21.5 39.585938 20.953125 40.0625 20.25C40.539063 19.546875 40.8125 18.644531 40.8125 17.6875C40.8125 16.730469 40.539063 15.859375 40.0625 15.15625C39.585938 14.453125 38.828125 13.90625 37.90625 13.90625 Z M 37.90625 15.90625C38.03125 15.90625 38.195313 15.96875 38.40625 16.28125C38.617188 16.59375 38.8125 17.097656 38.8125 17.6875C38.8125 18.277344 38.617188 18.8125 38.40625 19.125C38.195313 19.4375 38.03125 19.5 37.90625 19.5C37.78125 19.5 37.585938 19.4375 37.375 19.125C37.164063 18.8125 37 18.277344 37 17.6875C37 17.097656 37.164063 16.59375 37.375 16.28125C37.585938 15.96875 37.78125 15.90625 37.90625 15.90625 Z M 7.03125 27L42.96875 27L36.09375 46.09375L32.1875 46.09375L34.96875 32.1875C35.039063 31.855469 34.9375 31.511719 34.699219 31.269531C34.457031 31.03125 34.113281 30.929688 33.78125 31C33.390625 31.09375 33.09375 31.414063 33.03125 31.8125L30.1875 46.09375L26 46.09375L26 32C26.011719 31.710938 25.894531 31.433594 25.6875 31.238281C25.476563 31.039063 25.191406 30.941406 24.90625 30.96875C24.863281 30.976563 24.820313 30.988281 24.78125 31C24.316406 31.105469 23.988281 31.523438 24 32L24 46.09375L19.8125 46.09375L16.96875 31.8125C16.921875 31.546875 16.769531 31.308594 16.546875 31.152344C16.324219 31 16.046875 30.945313 15.78125 31C15.25 31.125 14.914063 31.652344 15.03125 32.1875L17.8125 46.09375L13.90625 46.09375Z"/></svg>