<svg xmlns="http://www.w3.org/2000/svg" xmlns:xlink="http://www.w3.org/1999/xlink" viewBox="0 0 50 50"><path d="M25 0C23.421875 0 22.050781 0.875 21.375 2.28125C16.675781 2.9375 11.804688 4.941406 7.875 7.78125C7.464844 7.574219 6.996094 7.46875 6.5 7.46875C5.234375 7.46875 3.828125 8.1875 2.71875 9.40625C1.078125 11.207031 0.667969 13.332031 1.59375 14.75C0.554688 16.753906 0 18.886719 0 21C0 24.476563 1.929688 27 4.59375 27L45 27C46.867188 27 50 26.222656 50 21C50 16.5625 46.835938 11.765625 41.40625 7.875C41.523438 6.382813 40.519531 4.746094 38.65625 3.65625C37.667969 3.078125 36.597656 2.78125 35.625 2.78125C34.671875 2.78125 33.839844 3.070313 33.25 3.625C31.691406 3.070313 30.117188 2.613281 28.625 2.3125C27.953125 0.882813 26.59375 0 25 0 Z M 35.625 4.78125C35.65625 4.78125 35.6875 4.78125 35.71875 4.78125C35.839844 4.785156 35.964844 4.792969 36.09375 4.8125C36.117188 4.816406 36.132813 4.808594 36.15625 4.8125C36.464844 4.867188 36.792969 4.980469 37.125 5.125C37.300781 5.203125 37.480469 5.273438 37.65625 5.375C38.992188 6.15625 39.730469 7.378906 39.3125 8.09375C39.261719 8.179688 39.199219 8.25 39.125 8.3125C39.113281 8.320313 39.105469 8.335938 39.09375 8.34375C39.027344 8.394531 38.957031 8.433594 38.875 8.46875C38.851563 8.480469 38.835938 8.492188 38.8125 8.5C38.628906 8.570313 38.394531 8.59375 38.15625 8.59375C38.125 8.59375 38.09375 8.59375 38.0625 8.59375C37.9375 8.589844 37.820313 8.585938 37.6875 8.5625C37.667969 8.558594 37.644531 8.566406 37.625 8.5625C37.488281 8.539063 37.332031 8.480469 37.1875 8.4375C37.007813 8.382813 36.808594 8.332031 36.625 8.25C36.457031 8.175781 36.292969 8.066406 36.125 7.96875C35.957031 7.871094 35.804688 7.765625 35.65625 7.65625C35.507813 7.546875 35.375 7.429688 35.25 7.3125C34.496094 6.609375 34.15625 5.816406 34.46875 5.28125C34.566406 5.113281 34.746094 4.988281 34.9375 4.90625C35.132813 4.824219 35.363281 4.78125 35.625 4.78125 Z M 17.03125 9C18.003906 8.980469 19.132813 9.667969 19.90625 10.84375C20.9375 12.414063 20.9375 14.242188 19.875 14.9375C18.8125 15.632813 17.09375 14.945313 16.0625 13.375C15.03125 11.804688 15.0625 9.945313 16.125 9.25C16.390625 9.074219 16.707031 9.007813 17.03125 9 Z M 6.5 9.46875C6.632813 9.46875 6.761719 9.492188 6.875 9.53125C6.984375 9.570313 7.105469 9.609375 7.1875 9.6875C7.800781 10.246094 7.445313 11.636719 6.40625 12.78125C6.21875 12.984375 6.011719 13.152344 5.8125 13.3125C5.625 13.460938 5.4375 13.582031 5.25 13.6875C5.238281 13.695313 5.230469 13.710938 5.21875 13.71875C5.199219 13.730469 5.175781 13.738281 5.15625 13.75C5.113281 13.773438 5.074219 13.792969 5.03125 13.8125C4.9375 13.859375 4.84375 13.90625 4.75 13.9375C4.667969 13.964844 4.578125 13.980469 4.5 14C4.355469 14.035156 4.222656 14.0625 4.09375 14.0625C4.0625 14.0625 4.03125 14.066406 4 14.0625C3.90625 14.054688 3.800781 14.027344 3.71875 14C3.605469 13.960938 3.492188 13.921875 3.40625 13.84375C3.253906 13.703125 3.164063 13.507813 3.125 13.28125C3.105469 13.167969 3.117188 13.035156 3.125 12.90625C3.167969 12.265625 3.535156 11.464844 4.1875 10.75C4.378906 10.542969 4.578125 10.378906 4.78125 10.21875C4.96875 10.070313 5.15625 9.949219 5.34375 9.84375C5.355469 9.835938 5.363281 9.820313 5.375 9.8125C5.675781 9.648438 5.980469 9.542969 6.25 9.5C6.335938 9.488281 6.421875 9.46875 6.5 9.46875 Z M 37.90625 14.90625C38.957031 14.90625 39.8125 16.140625 39.8125 17.6875C39.8125 19.234375 38.957031 20.5 37.90625 20.5C36.855469 20.5 36 19.234375 36 17.6875C36 16.140625 36.855469 14.90625 37.90625 14.90625 Z M 5.625 29L12.25 47.4375C12.394531 47.832031 12.765625 48.09375 13.1875 48.09375L18.125 48.09375L15.03125 32.1875C14.925781 31.644531 15.269531 31.136719 15.8125 31.03125C16.351563 30.925781 16.863281 31.269531 16.96875 31.8125L20.1875 48.09375L24 48.09375L24 32C24 31.445313 24.449219 31 25 31C25.550781 31 26 31.445313 26 32L26 48.09375L29.75 48.09375L33.03125 31.8125C33.140625 31.273438 33.648438 30.921875 34.1875 31.03125C34.726563 31.140625 35.078125 31.648438 34.96875 32.1875L31.78125 48.09375L36.8125 48.09375C37.234375 48.09375 37.609375 47.832031 37.75 47.4375L44.375 29Z"/></svg>