<svg xmlns="http://www.w3.org/2000/svg" xmlns:xlink="http://www.w3.org/1999/xlink" viewBox="0 0 50 50"><path d="M33 8L33 12.414062C31.827712 13.422963 31 14.837464 31 16.5C31 16.669182 31.017988 16.833951 31.033203 17L24 17L24 20C24 20.388348 24.278986 20.657986 24.416016 21L19 21 A 1.0001 1.0001 0 1 0 19 23L20 23L20 25L20 26L20 27L20 43L26 43L26 27L39 27L39 43L45 43L45 27L45 25L45 23L46 23 A 1.0001 1.0001 0 1 0 46 21L45 21L40.185547 21C40.318607 20.632565 40.516936 20.278255 40.78125 19.951172C41.541424 19.009191 42 17.803022 42 16.5C42 14.837464 41.172288 13.422963 40 12.414062L40 8L33 8 z M 35 10L38 10L38 13.292969L38.443359 13.591797C39.381601 14.220146 40 15.279744 40 16.5C40 17.336978 39.710435 18.093294 39.224609 18.695312C38.693152 19.35298 38.3727 20.153547 38.189453 21L34.583984 21C34.721014 20.657986 35 20.388348 35 20L35 17L33.035156 17C33.011975 16.837088 33 16.670825 33 16.5C33 15.279744 33.618399 14.220146 34.556641 13.591797L35 13.292969L35 10 z M 4.0292969 16.986328 A 1.0001 1.0001 0 0 0 3.0117188 18.152344L4.4902344 27.759766C4.7759356 29.618728 6.0789221 31.096043 7.7734375 31.697266L5.0351562 41.736328 A 1.0002232 1.0002232 0 0 0 6.9648438 42.263672L9.7636719 32L13.236328 32L16.035156 42.263672 A 1.0002234 1.0002234 0 0 0 17.964844 41.736328L15.308594 32L16 32 A 1.0001 1.0001 0 1 0 16 30L14.152344 30 A 1.0001 1.0001 0 0 0 13.832031 30L9.4316406 30C7.9427166 30 6.6929169 28.928319 6.4667969 27.457031L6.4667969 27.455078L4.9882812 17.847656 A 1.0001 1.0001 0 0 0 4.0292969 16.986328 z M 26 19L33 19L33 20C33 20.56503 32.56503 21 32 21L27 21C26.43497 21 26 20.56503 26 20L26 19 z M 22 23L27 23L34 23L40 23L43 23L43 25L39 25L26 25L22 25L22 23 z M 22 27L24 27L24 41L22 41L22 27 z M 41 27L43 27L43 41L41 41L41 27 z"/></svg>