<svg xmlns="http://www.w3.org/2000/svg" xmlns:xlink="http://www.w3.org/1999/xlink" viewBox="0 0 50 50"><path d="M17.965 41.737L15.309 32H16c.552 0 1-.447 1-1s-.448-1-1-1H9.432c-1.491 0-2.738-1.069-2.965-2.544l-1.478-9.608c-.084-.546-.601-.919-1.14-.836-.546.084-.92.595-.836 1.141l1.478 9.608c.289 1.88 1.578 3.357 3.28 3.951L5.035 41.737c-.145.532.169 1.082.702 1.228C5.825 42.989 5.914 43 6 43c.44 0 .843-.292.964-.737L9.764 32h3.473l2.799 10.263C16.157 42.708 16.56 43 17 43c.087 0 .176-.011.264-.035C17.796 42.819 18.11 42.27 17.965 41.737zM40 28H45V43H40zM20 28H25V43H20zM46 22h-1-4.953c.099-.651.38-1.287.845-1.862C41.606 19.253 42 18.139 42 17c0-1.579-.743-3.055-2-3.998V9h-6v4.002c-1.257.943-2 2.419-2 3.998h3v3.5c0 .54-.135 1.044-.354 1.5H31.5c.827 0 1.5-.673 1.5-1.5V19h-8v1.5c0 .827.673 1.5 1.5 1.5H20h-1c-.552 0-1 .447-1 1s.448 1 1 1h1v2h25v-2h1c.552 0 1-.447 1-1S46.552 22 46 22z"/></svg>