<?xml version="1.0" encoding="utf-8"?><svg version="1.1" id="Layer_1" xmlns="http://www.w3.org/2000/svg" xmlns:xlink="http://www.w3.org/1999/xlink" x="0px" y="0px" viewBox="0 0 122.88 91.14" style="enable-background:new 0 0 122.88 91.14" xml:space="preserve"><g><path d="M59.78,88.76h53.35l5.79-6.09H54.89L59.78,88.76L59.78,88.76z M26.48,51.68c-0.17-0.56-0.76-0.88-1.31-0.71 c-0.56,0.17-0.88,0.76-0.71,1.32c0.95,3.15,2.53,5.75,4.45,7.76c2.1,2.2,4.63,3.67,7.2,4.34c0.56,0.15,1.14-0.2,1.29-0.76 c0.15-0.56-0.2-1.14-0.76-1.29c-2.21-0.57-4.38-1.85-6.2-3.76C28.73,56.82,27.33,54.49,26.48,51.68L26.48,51.68L26.48,51.68 L26.48,51.68z M82.74,17.67h-0.28c0-2.32-0.87-4.35-2.6-6.09c-1.73-1.73-3.76-2.6-6.09-2.6V8.69c2.32,0,4.35-0.87,6.09-2.61 c1.73-1.74,2.6-3.77,2.6-6.09h0.28c0,2.32,0.87,4.35,2.6,6.09s3.76,2.6,6.09,2.6v0.28c-2.32,0-4.35,0.87-6.09,2.6 C83.61,13.31,82.74,15.34,82.74,17.67L82.74,17.67L82.74,17.67z M95.66,36.21h-0.13c0-1.06-0.4-2-1.2-2.79s-1.73-1.19-2.79-1.19 v-0.13c1.06,0,2-0.4,2.79-1.19c0.8-0.8,1.2-1.73,1.2-2.79h0.13c0,1.06,0.4,2,1.2,2.79c0.79,0.8,1.72,1.2,2.79,1.2v0.13 c-1.06,0-2,0.4-2.79,1.19C96.06,34.22,95.66,35.15,95.66,36.21L95.66,36.21L95.66,36.21z M107.32,23.78h-0.24 c0-1.95-0.73-3.65-2.18-5.11c-1.46-1.46-3.16-2.19-5.11-2.19v-0.24c1.95,0,3.65-0.73,5.11-2.19c1.46-1.46,2.18-3.16,2.18-5.11h0.24 c0,1.95,0.73,3.65,2.19,5.11s3.16,2.19,5.11,2.19v0.24c-1.95,0-3.65,0.73-5.11,2.19C108.04,20.13,107.32,21.83,107.32,23.78 L107.32,23.78L107.32,23.78z M42.77,17.99c7.94,0,15.14,3.22,20.35,8.43c5.21,5.21,8.43,12.4,8.43,20.35c0,2.67-0.36,5.25-1.04,7.7 H82c0.49-2.49,0.74-5.07,0.74-7.7c0-11.04-4.47-21.03-11.71-28.26l0,0l0,0C63.8,11.26,53.81,6.79,42.77,6.79 c-11.04,0-21.03,4.48-28.26,11.71C7.27,25.73,2.8,35.72,2.8,46.76c0,11.04,4.48,21.03,11.71,28.26s17.23,11.71,28.26,11.71 c3.85,0,7.57-0.54,11.09-1.56l-2.32-2.89c-0.2-0.21-0.32-0.5-0.32-0.81c0-0.66,0.53-1.19,1.19-1.19h4.44l-4.99-6.21 c-2.86,0.95-5.91,1.47-9.09,1.47c-7.94,0-15.14-3.22-20.35-8.43s-8.43-12.4-8.43-20.35c0-7.94,3.22-15.14,8.43-20.35 C27.63,21.21,34.83,17.99,42.77,17.99L42.77,17.99L42.77,17.99z M68,54.47c0.74-2.44,1.14-5.02,1.14-7.7 c0-7.28-2.95-13.88-7.73-18.65l0,0c-4.78-4.77-11.37-7.73-18.65-7.73c-7.28,0-13.88,2.95-18.65,7.73 c-4.78,4.78-7.73,11.37-7.73,18.65s2.95,13.88,7.73,18.65c4.77,4.77,11.37,7.73,18.65,7.73c4.59,0,8.9-1.17,12.66-3.23L51.49,65 c-0.41-0.51-0.33-1.26,0.18-1.67c0.22-0.18,0.48-0.26,0.74-0.26v0h4.44l-5.36-6.68c-0.41-0.51-0.33-1.26,0.18-1.67 c0.22-0.18,0.48-0.26,0.74-0.26v0H68L68,54.47z M57.47,68.66l0.15-0.1l0.16,0.49l2.12,2.64H113l5.92-6.23H54.89L57.47,68.66 L57.47,68.66z M42.77,4c11.81,0,22.5,4.79,30.24,12.53c7.74,7.74,12.53,18.43,12.53,30.24c0,2.63-0.24,5.2-0.69,7.7h36.85 c0.66,0,1.19,0.53,1.19,1.19c0,0.35-0.15,0.66-0.39,0.88l-6.22,6.54h5.42c0.66,0,1.19,0.53,1.19,1.19c0,0.35-0.15,0.66-0.39,0.88 l-6.22,6.54h5.42c0.66,0,1.19,0.53,1.19,1.19c0,0.35-0.15,0.66-0.39,0.88l-6.22,6.54h5.42v0c0.29,0,0.59,0.11,0.82,0.33 c0.47,0.45,0.49,1.2,0.04,1.68l-7.99,8.41c-0.22,0.27-0.55,0.43-0.92,0.43H59.22v0c-0.35,0-0.69-0.15-0.92-0.44l-2.54-3.17 c-4.09,1.3-8.46,2.01-12.98,2.01c-11.81,0-22.5-4.79-30.24-12.53C4.79,69.27,0,58.58,0,46.76c0-11.81,4.79-22.5,12.53-30.24 C20.26,8.78,30.96,4,42.77,4L42.77,4L42.77,4z M113,80.29l5.92-6.23H54.89l5,6.23H113L113,80.29z M113,63.07l5.92-6.23H54.89 l5,6.23H113L113,63.07z"/></g></svg>