<?xml version="1.0" encoding="utf-8"?><svg version="1.1" id="Layer_1" xmlns="http://www.w3.org/2000/svg" xmlns:xlink="http://www.w3.org/1999/xlink" x="0px" y="0px" viewBox="0 0 122.88 110.78" style="enable-background:new 0 0 122.88 110.78" xml:space="preserve"><g><path d="M54.04,20.39c10.04,0,19.13,4.07,25.71,10.65c6.58,6.58,10.65,15.67,10.65,25.71c0,10.04-4.07,19.13-10.65,25.71 S64.07,93.1,54.04,93.1c-10.04,0-19.13-4.07-25.71-10.65S17.68,66.78,17.68,56.74c0-10.04,4.07-19.13,10.65-25.71 C34.91,24.46,44,20.39,54.04,20.39L54.04,20.39z M106.77,26.49h-0.43c0-3.48-1.3-6.52-3.9-9.13c-2.6-2.6-5.64-3.9-9.13-3.9v-0.43 c3.48,0,6.52-1.3,9.13-3.91c2.6-2.61,3.9-5.65,3.9-9.12h0.43c0,3.48,1.3,6.52,3.9,9.13c2.6,2.6,5.65,3.9,9.13,3.9v0.43 c-3.48,0-6.52,1.3-9.13,3.9C108.07,19.97,106.77,23.01,106.77,26.49L106.77,26.49z M114.86,48.29h-0.26c0-2.14-0.8-4.02-2.4-5.62 c-1.6-1.6-3.48-2.4-5.62-2.4V40c2.14,0,4.02-0.8,5.62-2.41c1.6-1.61,2.4-3.48,2.4-5.62h0.26c0,2.14,0.8,4.02,2.4,5.62 c1.6,1.6,3.48,2.4,5.62,2.4v0.26c-2.14,0-4.02,0.8-5.62,2.4C115.66,44.27,114.86,46.14,114.86,48.29L114.86,48.29L114.86,48.29z M91.73,40.44h-0.2c0-1.6-0.6-2.99-1.79-4.19c-1.19-1.19-2.59-1.79-4.19-1.79v-0.2c1.6,0,2.99-0.6,4.19-1.79 c1.19-1.2,1.79-2.59,1.79-4.18h0.2c0,1.6,0.6,2.99,1.79,4.19c1.19,1.19,2.59,1.79,4.19,1.79v0.2c-1.6,0-2.99,0.6-4.19,1.79 C92.33,37.45,91.73,38.84,91.73,40.44L91.73,40.44L91.73,40.44z M73.93,62.95c0.21-0.71,0.95-1.11,1.66-0.9 c0.71,0.21,1.11,0.95,0.9,1.66c-1.2,3.97-3.19,7.27-5.62,9.81c-2.66,2.78-5.84,4.65-9.09,5.49c-0.71,0.18-1.44-0.24-1.62-0.96 c-0.18-0.71,0.24-1.44,0.96-1.62c2.79-0.73,5.53-2.34,7.84-4.75C71.1,69.44,72.86,66.51,73.93,62.95L73.93,62.95z M54.04,2.71 c14.92,0,28.43,6.05,38.21,15.83c9.78,9.78,15.83,23.29,15.83,38.21c0,14.92-6.05,28.43-15.83,38.21 c-9.78,9.78-23.29,15.83-38.21,15.83c-14.92,0-28.43-6.05-38.21-15.83C6.05,85.17,0,71.66,0,56.74c0-14.92,6.05-28.43,15.83-38.21 C25.61,8.75,39.11,2.71,54.04,2.71L54.04,2.71z M89.75,21.03C80.61,11.89,67.98,6.24,54.04,6.24c-13.95,0-26.57,5.65-35.71,14.79 C9.19,30.17,3.53,42.8,3.53,56.74c0,13.95,5.65,26.57,14.79,35.71c9.14,9.14,21.76,14.79,35.71,14.79 c13.95,0,26.57-5.65,35.71-14.79c9.14-9.14,14.79-21.76,14.79-35.71C104.54,42.8,98.88,30.17,89.75,21.03L89.75,21.03z M77.6,33.18 c-6.03-6.03-14.36-9.76-23.56-9.76c-9.2,0-17.53,3.73-23.56,9.76c-6.03,6.03-9.76,14.36-9.76,23.56c0,9.2,3.73,17.53,9.76,23.57 c6.03,6.03,14.36,9.76,23.56,9.76c9.2,0,17.53-3.73,23.56-9.76c6.03-6.03,9.76-14.36,9.76-23.57 C87.36,47.54,83.63,39.21,77.6,33.18L77.6,33.18z"/></g></svg>