<svg xmlns="http://www.w3.org/2000/svg" xmlns:xlink="http://www.w3.org/1999/xlink" viewBox="0 0 100 100"><path d="M22 20 A 1.0001 1.0001 0 0 0 21 21.003906C21.04583 36.096903 23.540259 48.55793 26.171875 57.570312C28.257171 64.711736 30.404904 69.63177 31.496094 72L22 72 A 1.0001 1.0001 0 0 0 21.001953 73.054688C21.228972 77.227664 24.358747 80.828412 28.525391 81.619141L28.427734 81.435547C28.466434 81.506997 28.549413 81.568411 28.591797 81.640625C28.677957 81.656265 28.746949 81.711439 28.833984 81.724609L28.632812 81.695312C29.309204 82.823658 30.386419 84 32 84L65 84C66.614094 84 67.690274 82.822416 68.367188 81.695312L68.162109 81.726562C68.251249 81.713122 68.321936 81.656645 68.410156 81.640625C68.452126 81.569225 68.533901 81.508133 68.572266 81.4375L68.474609 81.619141C72.641496 80.829044 75.770995 77.228274 75.998047 73.054688 A 1.0001 1.0001 0 0 0 75 72L65.603516 72C65.924244 71.404699 66.306809 70.680092 66.748047 69.744141C67.683286 67.760313 68.835809 64.927241 69.998047 61L74.75 61C81.46575 61 87 55.46575 87 48.75C87 42.113313 81.592974 36.639896 74.984375 36.511719C75.62903 31.155269 75.983416 26.407586 76 21.003906 A 1.0001 1.0001 0 0 0 75 20L22 20 z M 23.042969 22L73.962891 22C73.944033 23.714048 73.88252 25.362958 73.800781 27L69.5 27 A 0.50005 0.50005 0 1 0 69.5 28L73.744141 28C73.647967 29.653183 73.524218 31.312227 73.359375 33L23.611328 33C23.462727 31.374314 23.342807 29.707471 23.25 28L56.5 28 A 0.50005 0.50005 0 1 0 56.5 27L23.189453 27C23.112815 25.367525 23.06115 23.702447 23.042969 22 z M 59.5 27 A 0.50005 0.50005 0 1 0 59.5 28L66.5 28 A 0.50005 0.50005 0 1 0 66.5 27L59.5 27 z M 23.714844 34L73.261719 34C73.133886 35.21981 72.992964 36.457372 72.828125 37.746094L72.21875 42.039062C71.483827 46.689932 70.514654 51.34724 69.34375 55.878906L68.160156 60.175781C66.99837 64.153121 65.855015 66.950493 64.939453 68.892578C64.168239 70.528475 63.69737 71.291613 63.328125 72L33.712891 72C32.909333 70.284866 30.527572 65.351462 28.091797 57.009766C26.306549 50.895904 24.616727 43.107846 23.714844 34 z M 74.869141 37.505859C80.981024 37.571514 86 42.623932 86 48.75C86 54.91625 80.91625 60 74.75 60L70.283203 60L71.109375 57L74.75 57C79.301108 57 83 53.301108 83 48.75C83 44.198892 79.301108 40.5 74.75 40.5C74.650668 40.5 74.55356 40.508184 74.455078 40.511719L74.810547 38.013672 A 1.0001 1.0001 0 0 0 74.8125 38C74.834263 37.829853 74.847966 37.674579 74.869141 37.505859 z M 74.75 41.5C78.760892 41.5 82 44.739108 82 48.75C82 52.760892 78.760892 56 74.75 56L71.373047 56C72.516549 51.525254 73.468748 46.937178 74.193359 42.351562 A 1.0001 1.0001 0 0 0 74.195312 42.335938L74.308594 41.535156C74.4566 41.526162 74.599316 41.5 74.75 41.5 z M 23.246094 74L73.753906 74C73.136905 76.86703 70.850494 79.30011 67.861328 79.75 A 1.0001 1.0001 0 0 0 67.859375 79.75L67.644531 79.783203 A 1.0001 1.0001 0 0 0 66.914062 80.298828L66.814453 80.484375C66.39787 81.251446 65.480106 82 65 82L32 82C31.519894 82 30.600996 81.251477 30.185547 80.484375L30.085938 80.296875 A 1.0001 1.0001 0 0 0 29.357422 79.78125L29.142578 79.748047 A 1.0001 1.0001 0 0 0 29.138672 79.748047C26.148373 79.298101 23.863056 76.86684 23.246094 74 z"/></svg>