<svg xmlns="http://www.w3.org/2000/svg" xmlns:xlink="http://www.w3.org/1999/xlink" viewBox="0 0 50 50"><path d="M6.8125 7C6.335938 7.089844 5.992188 7.511719 6 8C6 19.152344 11.382813 34.644531 12.59375 38L3 38C2.96875 38 2.9375 38 2.90625 38C2.511719 38.027344 2.167969 38.285156 2.035156 38.65625C1.898438 39.027344 1.996094 39.445313 2.28125 39.71875L4.5625 41.96875C6.496094 43.902344 9.136719 45 11.875 45L33.125 45C35.863281 45 38.503906 43.902344 40.4375 41.96875L42.71875 39.71875C43.015625 39.433594 43.105469 38.992188 42.945313 38.613281C42.789063 38.234375 42.410156 37.992188 42 38L32.40625 38C32.753906 37.023438 33.246094 35.628906 34.09375 32.90625C34.769531 32.777344 37.65625 32.179688 40.71875 30.8125C42.457031 30.035156 44.242188 29.042969 45.625 27.6875C47.007813 26.332031 48 24.5625 48 22.46875C48 18.910156 45.089844 16 41.53125 16C40.300781 16 39.109375 16.34375 38.09375 16.9375C38.640625 13.820313 39 10.746094 39 8C39 7.449219 38.550781 7 38 7L7 7C6.96875 7 6.9375 7 6.90625 7C6.875 7 6.84375 7 6.8125 7 Z M 8.125 9L36.875 9C36.710938 14.652344 35.179688 21.820313 33.53125 27.71875C31.898438 33.5625 30.472656 37.476563 30.28125 38L14.71875 38C14.335938 36.945313 8.453125 20.402344 8.125 9 Z M 41.53125 18C44.011719 18 46 19.988281 46 22.46875C46 23.9375 45.339844 25.148438 44.21875 26.25C43.097656 27.351563 41.507813 28.285156 39.90625 29C37.894531 29.898438 35.976563 30.449219 34.75 30.75C34.996094 29.921875 35.21875 29.148438 35.46875 28.25C36.148438 25.824219 36.828125 23.160156 37.40625 20.46875C37.410156 20.445313 37.433594 20.429688 37.4375 20.40625C38.167969 19.015625 39.800781 18 41.53125 18 Z M 5.40625 40L39.59375 40L39.03125 40.5625C37.472656 42.121094 35.332031 43 33.125 43L11.875 43C9.667969 43 7.527344 42.121094 5.96875 40.5625Z"/></svg>