<svg xmlns="http://www.w3.org/2000/svg" xmlns:xlink="http://www.w3.org/1999/xlink" viewBox="0 0 50 50"><path d="M7 7C6.453125 7 6 7.421875 6 7.96875C5.996094 17.171875 9.894531 29.988281 11.90625 36L33.09375 36C33.386719 35.117188 33.738281 34.050781 34.09375 32.90625C34.769531 32.777344 37.65625 32.179688 40.71875 30.8125C42.457031 30.035156 44.242188 29.042969 45.625 27.6875C47.007813 26.332031 48 24.5625 48 22.46875C48 18.910156 45.089844 16 41.53125 16C40.300781 16 39.109375 16.34375 38.09375 16.9375C38.640625 13.804688 39 10.703125 39 7.96875C39 7.421875 38.546875 7 38 7 Z M 41.53125 18C44.011719 18 46 19.988281 46 22.46875C46 23.9375 45.339844 25.148438 44.21875 26.25C43.097656 27.351563 41.507813 28.285156 39.90625 29C37.894531 29.898438 35.976563 30.449219 34.75 30.75C35.652344 27.710938 36.589844 24.152344 37.375 20.5C37.378906 20.488281 37.402344 20.480469 37.40625 20.46875C37.40625 20.457031 37.40625 20.449219 37.40625 20.4375C38.125 19.027344 39.785156 18 41.53125 18 Z M 3 38C2.59375 38 2.21875 38.25 2.0625 38.625C1.90625 39 1.996094 39.433594 2.28125 39.71875L4.5625 41.96875C6.511719 43.917969 9.121094 45 11.875 45L33.125 45C35.882813 45 38.488281 43.917969 40.4375 41.96875L42.71875 39.71875C43.003906 39.433594 43.09375 39 42.9375 38.625C42.785156 38.25 42.402344 38 42 38Z"/></svg>