<svg xmlns="http://www.w3.org/2000/svg" xmlns:xlink="http://www.w3.org/1999/xlink" viewBox="0 0 48 48"><path d="M12.546875 5C11.584875 5 10.688484 5.3821719 10.021484 6.0761719C9.3614844 6.7631719 9.0059219 7.7032969 9.0449219 8.6542969C9.5179219 20.122297 13.593219 31.693719 15.324219 36.136719C16.004219 37.876719 17.649578 39 19.517578 39L28.482422 39C30.349422 39 31.996781 37.875766 32.675781 36.134766C33.157957 34.897431 33.825353 33.066126 34.542969 30.878906C35.212953 30.744268 35.910559 30.503422 36.722656 30.167969C37.960455 29.656672 39.354416 28.923149 40.695312 27.974609C43.377106 26.07753 46 23.232583 46 19.5C46 16.480226 43.519774 14 40.5 14C39.736275 14 39.044301 14.182913 38.423828 14.478516C38.683525 12.557109 38.874774 10.605404 38.955078 8.6542969C38.994078 7.7032969 38.638516 6.7631719 37.978516 6.0761719C37.312516 5.3821719 36.415125 5 35.453125 5L12.546875 5 z M 40.5 17C41.898226 17 43 18.101774 43 19.5C43 21.767417 41.228847 23.92247 38.962891 25.525391C37.845081 26.31612 36.643997 26.948826 35.621094 27.375C36.126814 25.636639 36.622954 23.77297 37.078125 21.785156L37.089844 21.787109C37.282994 20.799607 37.728062 19.438739 38.359375 18.466797C38.990688 17.494855 39.621667 17 40.5 17 z M 7.5 41 A 1.50015 1.50015 0 1 0 7.5 44L40.5 44 A 1.50015 1.50015 0 1 0 40.5 41L7.5 41 z"/></svg>