<svg xmlns="http://www.w3.org/2000/svg" xmlns:xlink="http://www.w3.org/1999/xlink" viewBox="0 0 50 50"><path d="M29.09375 0C28.824219 -0.03125 28.554688 0.046875 28.34375 0.21875C28.132813 0.390625 28.023438 0.636719 28 0.90625L27.8125 3.15625L21.71875 3.15625L21.5 0.9375C21.445313 0.410156 21.015625 0.0351563 20.46875 0.0625L13.125 0.375C12.851563 0.386719 12.617188 0.511719 12.4375 0.71875C12.257813 0.925781 12.160156 1.226563 12.1875 1.5L12.40625 3.5625L5.6875 4.78125C5.15625 4.878906 4.792969 5.371094 4.875 5.90625L6.6875 18L4 18C3.6875 18 3.375 18.15625 3.1875 18.40625C3 18.65625 2.945313 18.980469 3.03125 19.28125L11.4375 49.28125C11.558594 49.710938 11.957031 50 12.40625 50L37.59375 50C38.042969 50 38.441406 49.710938 38.5625 49.28125L46.96875 19.28125C47.054688 18.980469 47 18.65625 46.8125 18.40625C46.621094 18.15625 46.3125 18 46 18L42.90625 18L44.5625 9C44.613281 8.726563 44.539063 8.441406 44.375 8.21875C44.210938 7.996094 43.960938 7.84375 43.6875 7.8125L36.78125 7.0625L37.25 1.90625C37.300781 1.363281 36.914063 0.90625 36.375 0.84375 Z M 19.59375 2.09375L22.15625 26.71875C19.609375 26.199219 17.765625 25.023438 16.4375 23.71875L14.28125 2.34375 Z M 29.90625 2.09375L35.1875 2.71875L33.1875 24.0625C31.910156 25.210938 30.207031 26.207031 27.9375 26.6875 Z M 21.9375 5.15625L27.65625 5.15625L25.90625 26.9375C25.605469 26.957031 25.316406 27 25 27C24.714844 27 24.457031 26.984375 24.1875 26.96875 Z M 12.59375 5.5625L14.09375 20.53125C13.601563 19.566406 13.402344 18.84375 13.375 18.75C13.257813 18.3125 12.859375 18 12.40625 18L8.71875 18L7 6.5625 Z M 36.59375 9.03125L42.40625 9.6875L40.875 18L37.59375 18C37.144531 18 36.742188 18.316406 36.625 18.75C36.589844 18.871094 36.265625 19.976563 35.4375 21.34375Z"/></svg>