<svg xmlns="http://www.w3.org/2000/svg" xmlns:xlink="http://www.w3.org/1999/xlink" viewBox="0 0 80 80"><path d="M37 6C35.343 6 34 7.343 34 9C34 9.7720844 34.300231 10.46836 34.779297 11L24.033203 11C19.891562 11 16.443521 14.054293 15.9375 18L14 18 A 1.0001 1.0001 0 0 0 13.064453 19.351562L16 27.181641L16 67C16 69.029309 17.615173 70.794922 19.732422 70.794922L54.132812 70.794922C56.237856 70.794922 58 69.11707 58 67.029297L58 56L62.332031 56 A 1.0001 1.0001 0 0 0 62.363281 56C62.922086 55.98289 65.592199 55.844067 67.746094 53.652344C69.855755 51.505315 69.96061 49.045381 69.962891 48.279297 A 1.0001 1.0001 0 0 0 70 48L70 47.998047L70 47.982422L70 47.953125L70 47L70 31.044922 A 1.0001 1.0001 0 0 0 69.925781 30.654297 A 1.0001 1.0001 0 0 0 69.923828 30.650391C69.716909 26.4376 66.450519 23 62.332031 23L58 23L58 19 A 1.0001 1.0001 0 0 0 57.994141 18.900391C57.938711 14.528301 54.285031 11 49.833984 11L39.220703 11C39.699769 10.46836 40 9.7720844 40 9C40 7.343 38.657 6 37 6 z M 24.033203 13L49.833984 13C52.895592 13 55.292376 15.183462 55.794922 18L18.072266 18C18.574801 15.183462 20.970584 13 24.033203 13 z M 15.441406 20L16.867188 20L35.933594 20L35.933594 49L23.378906 49C21.591906 49 20.0035 50.100375 19.4375 51.734375L19 53L20 53 A 1 1 0 0 0 21 54 A 1 1 0 0 0 22 53L26 53 A 1 1 0 0 0 27 54 A 1 1 0 0 0 28 53L32 53 A 1 1 0 0 0 33 54 A 1 1 0 0 0 34 53L38 53 A 1 1 0 0 0 39 54 A 1 1 0 0 0 40 53L44 53 A 1 1 0 0 0 45 54 A 1 1 0 0 0 46 53L50 53 A 1 1 0 0 0 51 54 A 1 1 0 0 0 52 53L55 53L54.560547 51.734375C53.995547 50.100375 52.407141 49 50.619141 49L37.933594 49L37.933594 20L56 20L56 23.832031 A 1.0001 1.0001 0 0 0 56 24.158203L56 54.832031 A 1.0001 1.0001 0 0 0 56 55.158203L56 67.029297C56 67.810018 55.472697 68.471084 54.712891 68.701172 A 1 1 0 0 0 54 67 A 1 1 0 0 0 53.394531 68.794922L48.605469 68.794922 A 1 1 0 0 0 48 67 A 1 1 0 0 0 47.394531 68.794922L42.605469 68.794922 A 1 1 0 0 0 42 67 A 1 1 0 0 0 41.394531 68.794922L36.605469 68.794922 A 1 1 0 0 0 36 67 A 1 1 0 0 0 35.394531 68.794922L30.605469 68.794922 A 1 1 0 0 0 30 67 A 1 1 0 0 0 29.394531 68.794922L24.605469 68.794922 A 1 1 0 0 0 24 67 A 1 1 0 0 0 23.394531 68.794922L19.732422 68.794922C18.681671 68.794922 18 68.026691 18 67L18 27 A 1.0001 1.0001 0 0 0 17.935547 26.648438L15.441406 20 z M 58 25L62.332031 25C65.442784 25 68 27.66649 68 31.044922L68 47L68 47.953125L68 47.998047L68 48 A 1.0001 1.0001 0 0 0 68 48.017578C68.0069 48.407443 68.0073 50.533115 66.320312 52.25C64.716208 53.882277 62.723929 53.987106 62.302734 54L58 54L58 25 z M 24 55 A 1 1 0 0 0 24 57 A 1 1 0 0 0 24 55 z M 30 55 A 1 1 0 0 0 30 57 A 1 1 0 0 0 30 55 z M 36 55 A 1 1 0 0 0 36 57 A 1 1 0 0 0 36 55 z M 42 55 A 1 1 0 0 0 42 57 A 1 1 0 0 0 42 55 z M 48 55 A 1 1 0 0 0 48 57 A 1 1 0 0 0 48 55 z M 54 55 A 1 1 0 0 0 54 57 A 1 1 0 0 0 54 55 z M 21 58 A 1 1 0 0 0 21 60 A 1 1 0 0 0 21 58 z M 27 58 A 1 1 0 0 0 27 60 A 1 1 0 0 0 27 58 z M 33 58 A 1 1 0 0 0 33 60 A 1 1 0 0 0 33 58 z M 39 58 A 1 1 0 0 0 39 60 A 1 1 0 0 0 39 58 z M 45 58 A 1 1 0 0 0 45 60 A 1 1 0 0 0 45 58 z M 51 58 A 1 1 0 0 0 51 60 A 1 1 0 0 0 51 58 z M 24 61 A 1 1 0 0 0 24 63 A 1 1 0 0 0 24 61 z M 30 61 A 1 1 0 0 0 30 63 A 1 1 0 0 0 30 61 z M 36 61 A 1 1 0 0 0 36 63 A 1 1 0 0 0 36 61 z M 42 61 A 1 1 0 0 0 42 63 A 1 1 0 0 0 42 61 z M 48 61 A 1 1 0 0 0 48 63 A 1 1 0 0 0 48 61 z M 54 61 A 1 1 0 0 0 54 63 A 1 1 0 0 0 54 61 z M 21 64 A 1 1 0 0 0 21 66 A 1 1 0 0 0 21 64 z M 27 64 A 1 1 0 0 0 27 66 A 1 1 0 0 0 27 64 z M 33 64 A 1 1 0 0 0 33 66 A 1 1 0 0 0 33 64 z M 39 64 A 1 1 0 0 0 39 66 A 1 1 0 0 0 39 64 z M 45 64 A 1 1 0 0 0 45 66 A 1 1 0 0 0 45 64 z M 51 64 A 1 1 0 0 0 51 66 A 1 1 0 0 0 51 64 z"/></svg>