<svg xmlns="http://www.w3.org/2000/svg" xmlns:xlink="http://www.w3.org/1999/xlink" viewBox="0 0 48 48"><path d="M23.5 3C21.657 3 20.205203 4.8473438 20.033203 7.2773438C16.097028 7.9336487 13.180097 9.7006202 12.289062 12L8.5 12 A 1.50015 1.50015 0 0 0 7.2285156 14.294922L12 21.929688L12 41.5C12 43.414955 13.585045 45 15.5 45L31.5 45C33.414955 45 35 43.414955 35 41.5L35 34L36.5 34C39.519774 34 42 31.519774 42 28.5L42 17.5C42 14.480226 39.519774 12 36.5 12L34.710938 12C33.819903 9.7006202 30.902972 7.9336487 26.966797 7.2773438C26.794797 4.8473438 25.343 3 23.5 3 z M 11.205078 15L13.5 15L17.5 15L32 15L32 30L25 30L25 18.5 A 1.50015 1.50015 0 0 0 23.476562 16.978516 A 1.50015 1.50015 0 0 0 22 18.5L22 30L20 30C18.895 30 18 30.895 18 32L18 40.5C18 41.329 17.328 42 16.5 42C15.672 42 15 41.329 15 40.5L15 30L15 21.5 A 1.50015 1.50015 0 0 0 14.771484 20.705078L11.205078 15 z M 35 15L36.5 15C37.898226 15 39 16.101774 39 17.5L39 28.5C39 29.898226 37.898226 31 36.5 31L35 31L35 15 z"/></svg>