<svg xmlns="http://www.w3.org/2000/svg" xmlns:xlink="http://www.w3.org/1999/xlink" viewBox="0 0 48 48"><path d="M23.5 2C20.827952 2 19 4.532657 19 7.25C19 7.3308944 19.016391 7.4096563 19.019531 7.4902344C17.82626 7.7632193 16.724604 8.1406275 15.759766 8.6230469C14.183366 9.4112466 12.843515 10.54524 12.283203 12L8.5 12 A 1.50015 1.50015 0 0 0 7.2285156 14.294922L12 21.929688L12 31.253906 A 1.50015 1.50015 0 0 0 12 31.740234L12 41.5C12 43.414955 13.585045 45 15.5 45L31.5 45C33.414955 45 35 43.414955 35 41.5L35 34L36.5 34C39.519774 34 42 31.519774 42 28.5L42 17.5C42 14.480226 39.519774 12 36.5 12L34.712891 12C34.152447 10.54594 32.816173 9.4110159 31.240234 8.6230469C30.275396 8.1406275 29.17374 7.7632193 27.980469 7.4902344C27.983609 7.4096563 28 7.3308944 28 7.25C28 4.532657 26.172048 2 23.5 2 z M 23.5 5C24.116999 5 24.911106 5.7566092 24.986328 7.0566406C24.498521 7.023436 24.005105 7 23.5 7C22.994895 7 22.501479 7.023436 22.013672 7.0566406C22.088894 5.7566092 22.883001 5 23.5 5 z M 23.5 10C26.057101 10 28.361212 10.538028 29.898438 11.306641C30.35206 11.533452 30.697503 11.767563 30.992188 12L17.5 12L16.007812 12C16.302497 11.767563 16.64794 11.533452 17.101562 11.306641C18.638787 10.538028 20.942899 10 23.5 10 z M 11.205078 15L13.253906 15 A 1.50015 1.50015 0 0 0 13.740234 15L17.5 15L32 15L32 30L25 30L25 18.5 A 1.50015 1.50015 0 0 0 23.476562 16.978516 A 1.50015 1.50015 0 0 0 22 18.5L22 30L15 30L15 21.5 A 1.50015 1.50015 0 0 0 14.771484 20.705078L11.205078 15 z M 35 15L36.5 15C37.898226 15 39 16.101774 39 17.5L39 28.5C39 29.898226 37.898226 31 36.5 31L35 31L35 15 z M 15 33L23.253906 33 A 1.50015 1.50015 0 0 0 23.740234 33L32 33L32 41.5C32 41.795045 31.795045 42 31.5 42L15.5 42C15.204955 42 15 41.795045 15 41.5L15 33 z"/></svg>