<svg xmlns="http://www.w3.org/2000/svg" xmlns:xlink="http://www.w3.org/1999/xlink" viewBox="0 0 100 100"><path d="M44 6 A 1.0001 1.0001 0 1 0 44 8L46 8L46 14.085938C40.504697 14.199143 35.489701 15.117469 31.757812 16.716797C29.773046 17.567383 28.130056 18.588511 26.939453 19.794922C26.008526 20.738209 25.353363 21.826179 25.109375 23L25 23C22.366667 23 20.46936 23.530111 19.21875 24.085938C17.96814 24.641763 17.292969 25.292969 17.292969 25.292969 A 1.0001 1.0001 0 0 0 17.470703 26.847656C17.470703 26.847656 19.397297 28.056304 21.316406 29.855469C23.235515 31.654633 25 34.033333 25 36L25 78L24 78 A 1.0001 1.0001 0 0 0 23 79L23 85 A 1.0001 1.0001 0 0 0 24 86L70 86 A 1.0001 1.0001 0 0 0 71 85L71 79 A 1.0001 1.0001 0 0 0 70 78L69 78L69 46L74 46C74.56503 46 75 46.43497 75 47L75 62C75 65.301625 77.698375 68 81 68L82 68 A 1.0001 1.0001 0 0 0 83 67L83 42.5C83 38.921732 80.078268 36 76.5 36L69 36L69 24C69 23.96645 68.994832 23.933831 68.994141 23.900391 A 1.0001 1.0001 0 0 0 68.994141 23.898438C68.962125 22.379758 68.22501 20.974846 67.060547 19.794922C65.869944 18.588511 64.226954 17.567383 62.242188 16.716797C58.510299 15.117469 53.495303 14.199143 48 14.085938L48 8L50 8 A 1.0001 1.0001 0 1 0 50 6L44 6 z M 47 16C52.683204 16 57.824111 16.99861 61.455078 18.554688C63.270562 19.332725 64.703962 20.252099 65.638672 21.199219C66.237695 21.806196 66.607434 22.404371 66.810547 23L47.169922 23 A 1.0001 1.0001 0 0 0 46.984375 22.984375 A 1.0001 1.0001 0 0 0 46.830078 23L27.189453 23C27.392566 22.404371 27.762305 21.806196 28.361328 21.199219C29.296038 20.252099 30.729438 19.332726 32.544922 18.554688C36.175889 16.99861 41.316796 16 47 16 z M 25 25L46 25L46 35L26.916016 35C26.498723 32.39031 24.531944 30.12736 22.683594 28.394531C21.206075 27.009357 20.464697 26.586182 19.734375 26.091797C19.894539 26.004637 19.807215 26.013637 20.03125 25.914062C21.03064 25.469889 22.633333 25 25 25 z M 48 25L67 25L67 46L47.154297 46 A 1.0001 1.0001 0 0 0 46.984375 45.986328 A 1.0001 1.0001 0 0 0 46.839844 46L27 46L27 36L46.832031 36 A 1.0001 1.0001 0 0 0 47.158203 36L54.5 36 A 0.50005 0.50005 0 1 0 54.5 35L48 35L48 25 z M 57.5 35 A 0.50005 0.50005 0 1 0 57.5 36L60.5 36 A 0.50005 0.50005 0 1 0 60.5 35L57.5 35 z M 63.5 35 A 0.50005 0.50005 0 1 0 63.5 36L64.5 36 A 0.50005 0.50005 0 1 0 64.5 35L63.5 35 z M 69 38L76.5 38C78.997732 38 81 40.002268 81 42.5L81 66C78.779625 66 77 64.220375 77 62L77 47C77 45.35503 75.64497 44 74 44L69 44L69 38 z M 27 47L46 47L46 58 A 1.0001 1.0001 0 0 0 46.001953 58.050781C44.86363 58.283458 44 59.295564 44 60.5L44 64L27 64L27 47 z M 48 47L67 47L67 64L50 64L50 60.5C50 59.295564 49.13637 58.283458 47.998047 58.050781 A 1.0001 1.0001 0 0 0 48 58L48 47 z M 46.5 59L46.832031 59 A 1.0001 1.0001 0 0 0 47.158203 59L47.5 59C48.335015 59 49 59.664985 49 60.5L49 64L45 64L45 60.5C45 59.664985 45.664985 59 46.5 59 z M 27 65L44.5 65L49.5 65L67 65L67 65.5C67 66.745344 66.530555 67.560303 65.742188 68.130859C64.953819 68.701416 63.805708 69 62.5 69L31.5 69C30.194292 69 29.04618 68.701416 28.257812 68.130859C27.469445 67.560303 27 66.745344 27 65.5L27 65 z M 27 68.322266C27.200168 68.552447 27.424037 68.760088 27.671875 68.939453C28.693258 69.678647 30.044708 70 31.5 70L62.5 70C63.955292 70 65.306742 69.678647 66.328125 68.939453C66.575963 68.760088 66.799832 68.552447 67 68.322266L67 78L27 78L27 68.322266 z M 25 80L69 80L69 84L25 84L25 80 z"/></svg>