<svg xmlns="http://www.w3.org/2000/svg" xmlns:xlink="http://www.w3.org/1999/xlink" viewBox="0 0 50 50"><path d="M15.984375 7.984375C15.433594 7.996094 14.992188 8.449219 15 9C15 13.777344 12.957031 15.464844 10.859375 17.339844C8.96875 19.027344 7 20.945313 7 25C6.996094 25.363281 7.183594 25.699219 7.496094 25.878906C7.808594 26.0625 8.191406 26.0625 8.503906 25.878906C8.816406 25.699219 9.003906 25.363281 9 25C9 21.523438 10.300781 20.519531 12.191406 18.828125C14.289063 16.957031 17 14.398438 17 9C17.003906 8.730469 16.898438 8.46875 16.707031 8.277344C16.515625 8.085938 16.253906 7.980469 15.984375 7.984375 Z M 22 12C21.449219 12 21 12.449219 21 13C21 15.921875 19.757813 17.035156 18.316406 18.324219C16.769531 19.710938 15.015625 21.28125 15.015625 25C15.015625 25.550781 15.464844 26 16.015625 26C16.566406 26 17.015625 25.554688 17.015625 25C17.015625 22.175781 18.238281 21.082031 19.652344 19.8125C21.222656 18.40625 23 16.816406 23 13C23 12.449219 22.550781 12 22 12 Z M 27 16C26.445313 16 26 16.449219 26 17C26 18.816406 25.253906 19.484375 24.308594 20.324219C23.277344 21.242188 21.992188 22.386719 21.992188 25C21.992188 25.550781 22.441406 26 22.992188 26C23.542969 26 23.992188 25.550781 23.992188 25C23.992188 23.28125 24.683594 22.667969 25.640625 21.816406C26.691406 20.882813 28 19.714844 28 17C28 16.449219 27.554688 16 27 16 Z M 45.84375 25.9375C43.523438 25.910156 38.273438 26.277344 31.925781 29.402344L31.964844 29.265625C32.046875 28.964844 31.984375 28.640625 31.796875 28.394531C31.605469 28.144531 31.3125 28 31 28L2.65625 28C2.34375 28 2.046875 28.144531 1.859375 28.394531C1.671875 28.640625 1.605469 28.964844 1.6875 29.265625L3.683594 36.578125C4.394531 39.183594 6.773438 41 9.472656 41L24.183594 41C26.730469 41 28.972656 39.371094 29.816406 37L31.0625 37C32.824219 37 34.578125 36.390625 35.898438 35.144531C36.996094 34.109375 39.214844 32.691406 43.597656 32.1875C46.105469 31.898438 48 29.746094 48 27.226563L48 27C48 26.5 47.628906 26.078125 47.136719 26.011719C47.136719 26.011719 46.675781 25.949219 45.84375 25.9375 Z M 44.984375 27.988281C45.277344 28 45.515625 28.011719 45.699219 28.027344C45.359375 29.136719 44.570313 30.0625 43.371094 30.203125C38.636719 30.746094 35.953125 32.347656 34.527344 33.691406C33.617188 34.546875 32.359375 35 31.0625 35L30.402344 35L31.21875 32.011719L31.449219 31.894531C31.457031 31.890625 31.46875 31.882813 31.480469 31.878906C38.171875 28.230469 42.929688 27.933594 44.984375 27.988281 Z M 3.960938 30L29.691406 30L29.417969 31.003906C29.414063 31.019531 29.40625 31.035156 29.402344 31.050781L28.125 35.734375C28.125 35.738281 28.125 35.738281 28.125 35.742188L28.042969 36.050781C27.566406 37.796875 25.992188 39 24.183594 39L9.472656 39C7.664063 39 6.089844 37.796875 5.613281 36.050781Z"/></svg>