<svg xmlns="http://www.w3.org/2000/svg" xmlns:xlink="http://www.w3.org/1999/xlink" viewBox="0 0 50 50"><path d="M15.984375 7.984375C15.433594 7.996094 14.992188 8.449219 15 9C15 13.777344 12.957031 15.464844 10.859375 17.339844C8.96875 19.027344 7 20.945313 7 25C6.996094 25.363281 7.183594 25.699219 7.496094 25.878906C7.808594 26.0625 8.191406 26.0625 8.503906 25.878906C8.816406 25.699219 9.003906 25.363281 9 25C9 21.523438 10.300781 20.519531 12.191406 18.828125C14.289063 16.957031 17 14.398438 17 9C17.003906 8.730469 16.898438 8.46875 16.707031 8.277344C16.515625 8.085938 16.253906 7.980469 15.984375 7.984375 Z M 22 12C21.449219 12 21 12.449219 21 13C21 15.921875 19.757813 17.035156 18.316406 18.324219C16.769531 19.710938 15.015625 21.28125 15.015625 25C15.015625 25.550781 15.464844 26 16.015625 26C16.566406 26 17.015625 25.554688 17.015625 25C17.015625 22.175781 18.238281 21.082031 19.652344 19.8125C21.222656 18.40625 23 16.816406 23 13C23 12.449219 22.550781 12 22 12 Z M 27 16C26.445313 16 26 16.449219 26 17C26 18.816406 25.253906 19.484375 24.308594 20.324219C23.277344 21.242188 21.992188 22.386719 21.992188 25C21.992188 25.550781 22.441406 26 22.992188 26C23.542969 26 23.992188 25.550781 23.992188 25C23.992188 23.28125 24.683594 22.667969 25.640625 21.816406C26.691406 20.882813 28 19.714844 28 17C28 16.449219 27.554688 16 27 16 Z M 46.933594 26.933594C44.855469 26.886719 39.933594 27.160156 33.816406 30.078125L32.203125 35.984375C33.683594 35.953125 35.132813 35.4375 36.214844 34.417969C37.472656 33.230469 39.925781 31.71875 44.484375 31.191406C46.488281 30.960938 48 29.246094 48 27.226563L48 27C48 27 47.625 26.949219 46.933594 26.933594 Z M 2.65625 28C2.34375 28 2.050781 28.144531 1.859375 28.390625C1.671875 28.640625 1.609375 28.964844 1.6875 29.265625L3.683594 36.578125C4.394531 39.179688 6.773438 41 9.472656 41L24.183594 41C26.878906 41 29.257813 39.183594 29.96875 36.578125L31.964844 29.265625C32.046875 28.964844 31.984375 28.640625 31.796875 28.390625C31.605469 28.144531 31.3125 28 31 28Z"/></svg>