<svg xmlns="http://www.w3.org/2000/svg" xmlns:xlink="http://www.w3.org/1999/xlink" viewBox="0 0 50 50"><path d="M25 4.53125L24.28125 5.3125C24.105469 5.496094 20 9.867188 20 14.1875C20 15.554688 20.570313 17.03125 21.5 18.15625C20.441406 18.265625 19.445313 18.417969 18.46875 18.625C18.980469 17.042969 18.835938 15.160156 18.09375 13.71875C16.054688 9.761719 13.816406 7.769531 13.71875 7.6875L13 7.125L12.34375 7.75C12.199219 7.886719 8.867188 11.179688 9.4375 15.96875C9.660156 17.824219 10.539063 19.097656 10.90625 19.5625C11.246094 19.992188 11.738281 20.464844 12.3125 20.84375C11.683594 21.191406 11.09375 21.542969 10.5625 21.9375C10.542969 21.773438 10.5625 21.605469 10.53125 21.4375C10.214844 19.832031 9.292969 18.433594 8.0625 17.6875C4.738281 15.671875 2.863281 14.386719 2.84375 14.375L1.96875 13.78125L1.4375 14.6875C1.324219 14.871094 -1.371094 19.21875 1.21875 23.4375C2.195313 25.023438 3.535156 25.824219 4.0625 26.09375C4.355469 26.242188 5.417969 26.71875 6.6875 26.71875C6.839844 26.71875 7.007813 26.703125 7.15625 26.6875C7.058594 27.121094 7 27.550781 7 28L7.03125 28C7.03125 32.320313 15.257813 35.96875 25 35.96875C34.742188 35.96875 42.96875 32.320313 42.96875 28L43 28C43 27.550781 42.941406 27.121094 42.84375 26.6875C42.992188 26.703125 43.160156 26.71875 43.3125 26.71875C44.582031 26.71875 45.640625 26.246094 45.9375 26.09375C46.46875 25.824219 47.808594 25.023438 48.78125 23.4375C51.371094 19.21875 48.679688 14.871094 48.5625 14.6875L48 13.78125L47.15625 14.375C47.136719 14.386719 45.261719 15.671875 41.9375 17.6875C40.707031 18.433594 39.785156 19.832031 39.46875 21.4375C39.4375 21.605469 39.457031 21.773438 39.4375 21.9375C38.90625 21.542969 38.316406 21.191406 37.6875 20.84375C38.261719 20.464844 38.753906 19.992188 39.09375 19.5625C39.460938 19.097656 40.339844 17.824219 40.5625 15.96875C41.128906 11.179688 37.796875 7.886719 37.65625 7.75L37 7.125L36.3125 7.6875C36.214844 7.769531 33.945313 9.761719 31.90625 13.71875C31.164063 15.160156 31.019531 17.042969 31.53125 18.625C30.554688 18.417969 29.558594 18.265625 28.5 18.15625C29.429688 17.03125 30 15.554688 30 14.1875C30 9.867188 25.890625 5.496094 25.71875 5.3125 Z M 25 14.09375C25 14.09375 26.5 15.6875 26.5 17.1875C26.5 17.457031 26.4375 17.738281 26.3125 18C25.878906 17.984375 25.441406 17.96875 25 17.96875C24.558594 17.96875 24.121094 17.984375 23.6875 18C23.5625 17.738281 23.5 17.457031 23.5 17.1875C23.5 15.6875 25 14.09375 25 14.09375 Z M 13.90625 14.84375C13.90625 14.84375 15.371094 16.65625 16.46875 18C16.695313 18.277344 16.789063 18.671875 16.75 19.0625C15.847656 19.316406 14.992188 19.605469 14.1875 19.9375C14.039063 19.796875 13.890625 19.613281 13.8125 19.4375C12.875 17.355469 13.90625 14.84375 13.90625 14.84375 Z M 36.09375 14.84375C36.09375 14.84375 37.125 17.355469 36.1875 19.4375C36.109375 19.613281 35.960938 19.796875 35.8125 19.9375C35.007813 19.605469 34.152344 19.316406 33.25 19.0625C33.210938 18.671875 33.304688 18.277344 33.53125 18C34.628906 16.65625 36.09375 14.84375 36.09375 14.84375 Z M 4.8125 20.53125C4.8125 20.53125 6.910156 21.550781 8.46875 22.3125C8.789063 22.46875 9.027344 22.789063 9.15625 23.15625C8.558594 23.769531 8.078125 24.4375 7.71875 25.125C7.324219 25.109375 6.929688 24.988281 6.65625 24.75C4.933594 23.25 4.8125 20.53125 4.8125 20.53125 Z M 45.1875 20.53125C45.1875 20.53125 45.066406 23.25 43.34375 24.75C43.070313 24.988281 42.675781 25.109375 42.28125 25.125C41.929688 24.449219 41.457031 23.792969 40.875 23.1875C41.003906 22.8125 41.203125 22.472656 41.53125 22.3125C43.089844 21.550781 45.1875 20.53125 45.1875 20.53125 Z M 9 34.09375L9 37C9 42.605469 16.027344 47 25 47C33.972656 47 41 42.605469 41 37L41 34.09375C39.503906 35.085938 37.640625 35.914063 35.5 36.5625C35.367188 37.554688 34.664063 38.503906 33.78125 38.75C32.855469 39.011719 32.070313 38.414063 32 37.40625C30.414063 37.695313 28.757813 37.882813 27 37.96875C27 37.976563 27 37.992188 27 38C27 39.105469 26.105469 40 25 40C23.894531 40 23 39.105469 23 38C23 37.992188 23 37.976563 23 37.96875C21.242188 37.882813 19.585938 37.695313 18 37.40625C17.929688 38.414063 17.148438 39.011719 16.21875 38.75C15.335938 38.503906 14.632813 37.558594 14.5 36.5625C12.363281 35.914063 10.496094 35.085938 9 34.09375Z"/></svg>