<svg xmlns="http://www.w3.org/2000/svg" xmlns:xlink="http://www.w3.org/1999/xlink" viewBox="0 0 50 50"><path d="M25 4.53125L24.28125 5.3125C24.28125 5.3125 23.207031 6.425781 22.15625 8.0625C21.105469 9.699219 20 11.867188 20 14.1875C20 15.5625 20.515625 16.933594 21.375 18.03125C21.40625 18.070313 21.4375 18.117188 21.46875 18.15625C20.445313 18.265625 19.453125 18.425781 18.5 18.625C18.59375 18.332031 18.671875 18.019531 18.71875 17.71875C18.9375 16.347656 18.714844 14.921875 18.09375 13.71875C16.042969 9.738281 13.71875 7.6875 13.71875 7.6875L13 7.125L12.34375 7.75C12.34375 7.75 8.855469 11.089844 9.4375 15.96875C9.625 17.53125 10.277344 18.769531 10.90625 19.5625C11.183594 19.914063 11.652344 20.421875 12.28125 20.84375C11.679688 21.171875 11.113281 21.523438 10.59375 21.90625C10.5625 21.636719 10.503906 21.355469 10.4375 21.09375C10.082031 19.722656 9.292969 18.433594 8.0625 17.6875C4.6875 15.640625 2.84375 14.375 2.84375 14.375L1.96875 13.78125L1.4375 14.6875C1.4375 14.6875 -1.40625 19.15625 1.21875 23.4375C2.042969 24.777344 3.160156 25.636719 4.0625 26.09375C4.585938 26.359375 5.488281 26.6875 6.5625 26.71875C6.742188 26.722656 6.9375 26.707031 7.125 26.6875C7.027344 27.117188 6.96875 27.546875 6.96875 28C6.96875 29.734375 7.738281 31.296875 9 32.65625L9 37C9 39.9375 10.96875 42.476563 13.875 44.21875C16.78125 45.960938 20.695313 47 25 47C29.304688 47 33.21875 45.960938 36.125 44.21875C39.03125 42.476563 41 39.9375 41 37L41 32.65625C42.261719 31.296875 43.03125 29.734375 43.03125 28C43.03125 27.546875 42.972656 27.117188 42.875 26.6875C43.0625 26.707031 43.257813 26.722656 43.4375 26.71875C44.511719 26.6875 45.414063 26.359375 45.9375 26.09375C46.839844 25.636719 47.960938 24.777344 48.78125 23.4375C51.40625 19.15625 48.5625 14.6875 48.5625 14.6875L48.03125 13.78125L47.15625 14.375C47.15625 14.375 45.3125 15.640625 41.9375 17.6875C40.707031 18.433594 39.917969 19.722656 39.5625 21.09375C39.496094 21.355469 39.4375 21.636719 39.40625 21.90625C38.886719 21.523438 38.320313 21.171875 37.71875 20.84375C38.347656 20.421875 38.816406 19.914063 39.09375 19.5625C39.722656 18.769531 40.375 17.53125 40.5625 15.96875C41.144531 11.089844 37.65625 7.75 37.65625 7.75L37 7.125L36.28125 7.6875C36.28125 7.6875 33.957031 9.738281 31.90625 13.71875C31.285156 14.921875 31.0625 16.347656 31.28125 17.71875C31.328125 18.019531 31.40625 18.332031 31.5 18.625C30.546875 18.425781 29.554688 18.265625 28.53125 18.15625C28.5625 18.117188 28.59375 18.070313 28.625 18.03125C29.484375 16.933594 30 15.5625 30 14.1875C30 11.867188 28.894531 9.699219 27.84375 8.0625C26.792969 6.425781 25.71875 5.3125 25.71875 5.3125 Z M 25 7.625C25.359375 8.046875 25.570313 8.246094 26.15625 9.15625C27.105469 10.628906 28 12.539063 28 14.1875C28 15.023438 27.621094 16.0625 27.03125 16.8125C26.859375 17.035156 26.664063 17.210938 26.46875 17.375C26.476563 17.3125 26.5 17.25 26.5 17.1875C26.5 15.6875 25 14.09375 25 14.09375C25 14.09375 23.5 15.6875 23.5 17.1875C23.5 17.25 23.523438 17.3125 23.53125 17.375C23.335938 17.210938 23.140625 17.035156 22.96875 16.8125C22.378906 16.0625 22 15.023438 22 14.1875C22 12.539063 22.894531 10.628906 23.84375 9.15625C24.429688 8.246094 24.640625 8.046875 25 7.625 Z M 13.15625 10C13.871094 10.738281 15.011719 12.042969 16.34375 14.625C16.734375 15.382813 16.898438 16.464844 16.75 17.40625C16.707031 17.675781 16.652344 17.921875 16.5625 18.15625C16.53125 18.097656 16.507813 18.050781 16.46875 18C15.371094 16.65625 13.90625 14.84375 13.90625 14.84375C13.90625 14.84375 12.894531 17.328125 13.8125 19.40625C13.804688 19.402344 13.789063 19.410156 13.78125 19.40625C13.203125 19.117188 12.664063 18.589844 12.46875 18.34375C12.066406 17.835938 11.570313 16.867188 11.4375 15.75C11.082031 12.765625 12.429688 10.875 13.15625 10 Z M 36.84375 10C37.570313 10.875 38.917969 12.765625 38.5625 15.75C38.429688 16.867188 37.933594 17.835938 37.53125 18.34375C37.335938 18.589844 36.796875 19.117188 36.21875 19.40625C36.210938 19.410156 36.195313 19.402344 36.1875 19.40625C37.105469 17.328125 36.09375 14.84375 36.09375 14.84375C36.09375 14.84375 34.628906 16.65625 33.53125 18C33.492188 18.050781 33.46875 18.097656 33.4375 18.15625C33.347656 17.921875 33.292969 17.675781 33.25 17.40625C33.101563 16.464844 33.265625 15.382813 33.65625 14.625C34.988281 12.042969 36.128906 10.738281 36.84375 10 Z M 2.75 16.6875C3.332031 17.078125 4.28125 17.738281 7.03125 19.40625C7.6875 19.804688 8.257813 20.664063 8.5 21.59375C8.574219 21.882813 8.613281 22.164063 8.625 22.4375C8.570313 22.398438 8.527344 22.34375 8.46875 22.3125C6.910156 21.550781 4.8125 20.53125 4.8125 20.53125C4.8125 20.53125 4.933594 23.214844 6.625 24.71875C6.613281 24.71875 6.605469 24.71875 6.59375 24.71875C5.945313 24.699219 5.246094 24.453125 4.96875 24.3125C4.390625 24.019531 3.527344 23.335938 2.9375 22.375C1.410156 19.886719 2.246094 17.734375 2.75 16.6875 Z M 47.25 16.6875C47.753906 17.734375 48.589844 19.886719 47.0625 22.375C46.472656 23.335938 45.609375 24.019531 45.03125 24.3125C44.753906 24.453125 44.054688 24.699219 43.40625 24.71875C43.394531 24.71875 43.386719 24.71875 43.375 24.71875C45.066406 23.214844 45.1875 20.53125 45.1875 20.53125C45.1875 20.53125 43.089844 21.550781 41.53125 22.3125C41.472656 22.34375 41.429688 22.398438 41.375 22.4375C41.386719 22.164063 41.425781 21.882813 41.5 21.59375C41.742188 20.664063 42.3125 19.804688 42.96875 19.40625C45.71875 17.738281 46.667969 17.078125 47.25 16.6875 Z M 25 20.03125C29.546875 20.03125 33.644531 21.003906 36.53125 22.53125C39.417969 24.058594 40.96875 26.039063 40.96875 28C40.96875 29.960938 39.417969 31.941406 36.53125 33.46875C33.644531 34.996094 29.546875 35.96875 25 35.96875C20.453125 35.96875 16.355469 34.996094 13.46875 33.46875C10.582031 31.941406 9.03125 29.960938 9.03125 28C9.03125 26.039063 10.582031 24.058594 13.46875 22.53125C16.355469 21.003906 20.453125 20.03125 25 20.03125 Z M 11 34.375C11.46875 34.695313 11.972656 35 12.5 35.28125C13.113281 35.605469 13.78125 35.914063 14.46875 36.1875C14.46875 36.210938 14.46875 36.226563 14.46875 36.25C14.46875 37.355469 15.242188 38.476563 16.21875 38.75C17.183594 39.023438 17.984375 38.367188 18 37.28125C19.5625 37.640625 21.25 37.863281 23 37.96875C23 37.980469 23 37.988281 23 38C23 39.105469 23.894531 40 25 40C26.105469 40 27 39.105469 27 38C27 37.988281 27 37.980469 27 37.96875C28.75 37.863281 30.4375 37.640625 32 37.28125C32.015625 38.367188 32.816406 39.023438 33.78125 38.75C34.757813 38.476563 35.53125 37.355469 35.53125 36.25C35.53125 36.226563 35.53125 36.210938 35.53125 36.1875C36.21875 35.914063 36.886719 35.605469 37.5 35.28125C38.027344 35 38.53125 34.695313 39 34.375L39 37C39 39.035156 37.617188 40.988281 35.09375 42.5C32.570313 44.011719 28.980469 45 25 45C21.019531 45 17.429688 44.011719 14.90625 42.5C12.382813 40.988281 11 39.035156 11 37Z"/></svg>