<svg xmlns="http://www.w3.org/2000/svg" xmlns:xlink="http://www.w3.org/1999/xlink" viewBox="0 0 50 50"><path d="M6 5 A 1.0001 1.0001 0 0 0 5.0058594 6.1054688L8.8183594 42.314453C8.9779516 43.832817 10.273526 45 11.800781 45L38.199219 45C39.726474 45 41.024002 43.832817 41.183594 42.314453L44.994141 6.1054688 A 1.0001 1.0001 0 0 0 44 5L6 5 z M 7.1113281 7L42.888672 7L40.189453 32.654297L40.189453 32.589844C39.879453 35.579844 36.94 38 33 38L25 38L17 38C13.06 38 10.120547 35.579844 9.8105469 32.589844L9.8105469 32.640625L7.1113281 7 z M 28.978516 20.9375 A 1.0001 1.0001 0 0 0 28.054688 21.544922L26.144531 26L24 26L24 23 A 1.0001 1.0001 0 0 0 23 22L15 22 A 1.0001 1.0001 0 0 0 14 23L14 26L11.119141 26L11.800781 32.410156C12.010781 34.460156 14.25 36 17 36L33 36C35.75 36 37.989219 34.460156 38.199219 32.410156L38.880859 26L36.710938 26L36.980469 25.369141 A 1.0001 1.0001 0 0 0 36.455078 24.056641L29.367188 21.019531 A 1.0001 1.0001 0 0 0 28.978516 20.9375 z M 29.5 23.251953L34.748047 25.5L32.498047 30.75L27.25 28.5L29.5 23.251953 z M 16 24L22 24L22 30L16 30L16 24 z"/></svg>