<svg xmlns="http://www.w3.org/2000/svg" xmlns:xlink="http://www.w3.org/1999/xlink" viewBox="0 0 50 50"><path d="M6 5 A 1.0001 1.0001 0 0 0 5.0058594 6.1054688L7.8046875 32.697266C7.8051752 32.7019 7.8061398 32.706307 7.8066406 32.710938L8.8183594 42.314453C8.9779516 43.832817 10.273526 45 11.800781 45L38.199219 45C39.726474 45 41.024002 43.832817 41.183594 42.314453L42.195312 32.697266L44.994141 6.1054688 A 1.0001 1.0001 0 0 0 44 5L6 5 z M 7.1113281 7L42.888672 7L40.888672 26L36.660156 26L36.919922 25.394531 A 1.0001 1.0001 0 0 0 36.394531 24.080078L29.394531 21.080078 A 1.0001 1.0001 0 0 0 29.003906 21 A 1.0001 1.0001 0 0 0 28.080078 21.605469L26.197266 26L23 26L23 23 A 1.0001 1.0001 0 0 0 22 22L14 22 A 1.0001 1.0001 0 0 0 13 23L13 26L9.1113281 26L7.1113281 7 z M 29.525391 23.3125L34.6875 25.525391L34.484375 26L28.373047 26L29.525391 23.3125 z M 15 24L21 24L21 26L15 26L15 24 z M 9.3222656 28L40.679688 28L40.207031 32.488281C40.092741 33.574404 39.263388 34.706949 37.917969 35.574219C36.572549 36.441488 34.76382 37 33 37L17 37C15.23618 37 13.427451 36.441488 12.082031 35.574219C10.743901 34.711647 9.918246 33.58659 9.796875 32.505859L9.3222656 28 z M 13 30L13 31C13 31.552 13.448 32 14 32L22 32C22.552 32 23 31.552 23 31L23 30L13 30 z M 25.800781 30L32.609375 32.919922C32.729375 32.969922 32.87 33 33 33C33.39 33 33.759922 32.770625 33.919922 32.390625L34.939453 30L32.769531 30L32.470703 30.689453L30.869141 30L25.800781 30 z M 10.238281 36.703125C10.481607 36.897087 10.732786 37.08487 10.998047 37.255859C12.690127 38.34659 14.82582 39 17 39L33 39C35.17418 39 37.309873 38.34659 39.001953 37.255859C39.267642 37.084594 39.519993 36.897436 39.763672 36.703125L39.195312 42.103516C39.140905 42.621152 38.719964 43 38.199219 43L11.800781 43C11.280036 43 10.861048 42.621152 10.806641 42.103516L10.238281 36.703125 z"/></svg>