<svg xmlns="http://www.w3.org/2000/svg" xmlns:xlink="http://www.w3.org/1999/xlink" viewBox="0 0 50 50"><path d="M48 26.539063L48 22.582031C48.632813 22.335938 49.242188 22.019531 49.800781 21.597656C50.015625 21.4375 50.15625 21.195313 50.191406 20.929688C50.226563 20.664063 50.152344 20.394531 49.988281 20.183594L47.980469 17.632813C47.78125 11.1875 42.492188 6 36 6L14 6C7.5 6 2.203125 11.199219 2.019531 17.65625L0.1875 20.21875C-0.128906 20.660156 -0.0351563 21.273438 0.398438 21.601563C0.898438 21.972656 1.441406 22.257813 2 22.496094L2 26.539063C0.800781 27.222656 0 28.492188 0 30C0 31.507813 0.800781 32.777344 2 33.460938L2 39C2 41.757813 4.242188 44 7 44L43 44C45.757813 44 48 41.757813 48 39L48 33.460938C49.199219 32.777344 50 31.507813 50 30C50 28.492188 49.199219 27.222656 48 26.539063 Z M 17.5 9C18.328125 9 19 9.671875 19 10.5C19 11.328125 18.328125 12 17.5 12C16.671875 12 16 11.328125 16 10.5C16 9.671875 16.671875 9 17.5 9 Z M 15.5 13C16.328125 13 17 13.671875 17 14.5C17 15.328125 16.328125 16 15.5 16C14.671875 16 14 15.328125 14 14.5C14 13.671875 14.671875 13 15.5 13 Z M 12.5 10C13.328125 10 14 10.671875 14 11.5C14 12.328125 13.328125 13 12.5 13C11.671875 13 11 12.328125 11 11.5C11 10.671875 11.671875 10 12.5 10 Z M 4.25 18L45.769531 18.019531L47.726563 20.542969C45.847656 21.492188 43.527344 21.296875 41.800781 20C41.480469 19.761719 41.054688 19.734375 40.710938 19.929688L39.089844 20.839844C37.25 21.929688 35.015625 21.953125 33.191406 20.828125L31.589844 19.929688C31.300781 19.765625 30.949219 19.757813 30.652344 19.90625L27.671875 21.394531C26.074219 22.152344 24.109375 22.144531 22.546875 21.40625L19.546875 19.90625C19.40625 19.835938 19.253906 19.800781 19.101563 19.800781C18.929688 19.800781 18.761719 19.84375 18.609375 19.929688L16.992188 20.839844C15.148438 21.929688 12.910156 21.953125 11.089844 20.828125L9.488281 19.929688C9.144531 19.734375 8.71875 19.761719 8.398438 20C6.660156 21.304688 4.3125 21.496094 2.429688 20.519531 Z M 46 32L4 32C2.859375 32 2 31.140625 2 30C2 28.859375 2.859375 28 4 28L46 28C47.140625 28 48 28.859375 48 30C48 31.140625 47.140625 32 46 32Z"/></svg>