<svg xmlns="http://www.w3.org/2000/svg" xmlns:xlink="http://www.w3.org/1999/xlink" viewBox="0 0 50 50"><path d="M41.53125 1.09375C38.515625 1.09375 36.679688 2.308594 35.28125 4.25C32.121094 3.917969 29.441406 5.933594 28.28125 8.0625C27.996094 8.585938 27.683594 9.25 27.3125 10C25.101563 14.449219 21.386719 21.898438 14.75 24.9375C10.363281 26.945313 7.574219 29.515625 6.40625 32.5625C3.632813 33.636719 1.460938 34.902344 0.5 37.03125C-0.308594 38.828125 -0.144531 41.007813 1.03125 43.6875C1.753906 45.332031 3.492188 47.28125 7.5625 47.28125C8.796875 47.28125 10.097656 47.09375 11.4375 46.78125C13.226563 48.210938 15.214844 48.9375 17.4375 48.9375C22.605469 48.9375 29.082031 45.011719 37.53125 36.9375C50.03125 24.988281 50.328125 16.507813 49.875 13.40625C49.574219 11.34375 48.738281 9.722656 47.59375 8.9375C48.3125 7.308594 48.164063 5.9375 47.8125 4.96875C46.976563 2.660156 44.582031 1.367188 43.15625 1.1875C42.589844 1.117188 42.039063 1.09375 41.53125 1.09375 Z M 34.09375 6.25C33.484375 7.457031 32.925781 8.804688 32.34375 10.25C30.765625 14.167969 28.792969 19.066406 24.5 23.8125C20.839844 27.859375 15.390625 29.585938 10.59375 31.125C10.101563 31.28125 9.628906 31.4375 9.15625 31.59375C10.429688 29.753906 12.582031 28.125 15.59375 26.75C22.875 23.414063 26.917969 15.285156 29.09375 10.90625C29.453125 10.183594 29.789063 9.539063 30.0625 9.03125C30.800781 7.679688 32.324219 6.464844 34.09375 6.25 Z M 46.5625 10.625C47.089844 11.0625 47.675781 12.128906 47.90625 13.6875C48.316406 16.480469 47.984375 24.195313 36.15625 35.5C23.492188 47.605469 17.527344 48.023438 13.96875 46.0625C16.199219 45.308594 18.28125 44.3125 19.84375 43.34375L20.71875 42.8125L20.1875 41.96875C18.34375 39.097656 18.402344 39.027344 22.40625 35.625C24.105469 34.179688 26.441406 32.199219 29.375 29.28125C32.179688 26.484375 34.121094 22.957031 35.84375 19.84375C38.613281 14.851563 40.769531 11.039063 44.875 11.8125L45.4375 11.9375L45.8125 11.53125C46.09375 11.226563 46.339844 10.914063 46.5625 10.625Z"/></svg>