<svg xmlns="http://www.w3.org/2000/svg" xmlns:xlink="http://www.w3.org/1999/xlink" viewBox="0 0 50 50"><path d="M26 3C25.45 3 25 3.45 25 4L25 7L27 7L41 7L41.380859 7L43 7L43 4C43 3.93 42.990469 3.8607813 42.980469 3.8007812C42.890469 3.3407813 42.48 3 42 3L26 3 z M 43.119141 8L43 8.2304688L42.619141 9L42 10.230469L40 14.240234L40 45L40 47L45 47C45.55 47 46 46.55 46 46L46 14C46 13.84 45.960625 13.690781 45.890625 13.550781L43.619141 9L43.119141 8 z M 24.140625 9L21.460938 13L23.869141 13L38.380859 13L40.380859 9L26.539062 9L24.140625 9 z M 21 15L21 20L21 21L21 25.960938C21.17 25.900938 21.339766 25.850547 21.509766 25.810547C21.619766 25.780547 21.739609 25.750469 21.849609 25.730469C21.899609 25.710469 21.95 25.699219 22 25.699219L22.009766 25.689453C22.069766 25.679453 22.119688 25.670156 22.179688 25.660156C22.369688 25.630156 22.56 25.600078 22.75 25.580078C22.83 25.570078 22.92 25.560781 23 25.550781L23 25.539062C23.1 25.529062 23.199063 25.519531 23.289062 25.519531C23.469062 25.499531 23.640547 25.5 23.810547 25.5C24.900547 25.5 25.929609 25.720625 26.849609 26.140625C27.049609 26.230625 27.249453 26.329453 27.439453 26.439453C27.479453 26.459453 27.509063 26.48 27.539062 26.5C27.709063 26.6 27.880781 26.710078 28.050781 26.830078C28.070781 26.840078 28.089609 26.849141 28.099609 26.869141C28.279609 26.989141 28.459141 27.129297 28.619141 27.279297C28.858141 27.488297 29.081922 27.718031 29.294922 27.957031C29.458922 28.141031 29.615672 28.329297 29.763672 28.529297C29.825672 28.613297 29.883359 28.703062 29.943359 28.789062C30.063359 28.963062 30.180063 29.140219 30.289062 29.324219C30.345063 29.418219 30.398172 29.513375 30.451172 29.609375C30.556172 29.801375 30.656953 29.998219 30.751953 30.199219C30.796953 30.295219 30.843719 30.388328 30.886719 30.486328C30.981719 30.705328 31.066391 30.931156 31.150391 31.160156C31.373391 31.775156 31.557406 32.419844 31.691406 33.089844C31.781406 33.539844 31.840625 34.010469 31.890625 34.480469C31.911625 34.656469 31.925453 34.831813 31.939453 35.007812C31.945453 35.081812 31.955938 35.154516 31.960938 35.228516C31.975938 35.459516 31.982281 35.692781 31.988281 35.925781C31.997281 36.359781 32.004469 36.794469 31.980469 37.230469C31.980469 37.290469 31.980703 37.359922 31.970703 37.419922C31.940703 37.969922 31.880781 38.520547 31.800781 39.060547C31.740781 39.420547 31.681328 39.780625 31.611328 40.140625C31.481328 40.760625 31.311094 41.380469 31.121094 41.980469C30.921094 42.580469 30.701406 43.170234 30.441406 43.740234C30.251406 44.170234 30.030781 44.59 29.800781 45C29.582781 45.373 29.351563 45.726078 29.101562 46.080078C28.870562 46.401078 28.627094 46.71 28.371094 47L28.380859 47L38 47L38 45L38 15L23 15L22.539062 15L21.689453 15L21 15 z M 5 20C4.45 20 4 20.45 4 21L4 45C4 45.55 4.45 46 5 46L11.75 46C11.54 45.68 11.359219 45.35 11.199219 45C11.169219 44.96 11.150859 44.909141 11.130859 44.869141C11.010859 44.629141 10.900547 44.390625 10.810547 44.140625C10.790547 44.090625 10.769766 44.05 10.759766 44C10.139766 42.32 9.9707031 40.549766 10.220703 38.759766C10.320703 37.939766 10.509062 37.119844 10.789062 36.339844C10.919063 35.969844 11.069297 35.579844 11.279297 35.089844C12.269297 32.899844 13.830859 30.790156 15.630859 29.160156C16.240859 28.600156 16.909141 28.069609 17.619141 27.599609L17.800781 27.480469L17.890625 27.429688C17.990625 27.359687 18.080391 27.299531 18.150391 27.269531C18.440391 27.089531 18.72 26.929297 19 26.779297L19 22L19 21L19 20L5 20 z M 23.810547 27.5C23.550547 27.5 23.28 27.520547 23 27.560547C22.67 27.600547 22.34 27.66 22 27.75C21.74 27.81 21.480937 27.9 21.210938 28C21.140937 28.02 21.079766 28.040312 21.009766 28.070312L21 28.070312C20.38 28.300313 19.760859 28.619766 19.130859 29.009766C19.090859 29.029766 19.049766 29.050078 19.009766 29.080078C18.919766 29.140078 18.820469 29.199766 18.730469 29.259766C18.130469 29.659766 17.540234 30.120859 16.990234 30.630859C15.360234 32.100859 13.989609 33.959922 13.099609 35.919922C12.939609 36.289922 12.799687 36.640234 12.679688 36.990234C12.429688 37.700234 12.279219 38.379766 12.199219 39.009766C11.939219 40.849766 12.269688 42.349922 12.679688 43.419922C12.749688 43.609922 12.829687 43.800234 12.929688 43.990234C13.010687 44.169234 13.118891 44.332906 13.212891 44.503906C13.301891 44.668906 13.376469 44.841 13.480469 45C13.485469 45.007 13.491094 45.013484 13.496094 45.021484C13.716094 45.359484 13.961469 45.681469 14.230469 45.980469L14.25 46C14.99 46.87 15.930703 47.559063 16.970703 48.039062C18.000703 48.499063 19.140547 48.75 20.310547 48.75C22.100547 48.75 23.970078 48.170156 25.580078 46.910156C26.240078 46.400156 26.859922 45.76 27.419922 45C27.859922 44.39 28.269141 43.699922 28.619141 42.919922C31.009141 37.619922 30.399297 29.930937 26.029297 27.960938C25.349297 27.650938 24.600547 27.5 23.810547 27.5 z"/></svg>