<?xml version="1.0" encoding="utf-8"?><svg version="1.1" id="Layer_1" xmlns="http://www.w3.org/2000/svg" xmlns:xlink="http://www.w3.org/1999/xlink" x="0px" y="0px" viewBox="0 0 122.88 102.18" style="enable-background:new 0 0 122.88 102.18" xml:space="preserve"><g><path d="M0,0h119.01c0.47,0,0.92,0.09,1.33,0.27c0.58,0.25,1.67,1.34,1.9,1.91c0.17,0.41,0.27,0.86,0.27,1.33v23.72 c0,0.47-0.09,0.92-0.27,1.34c-0.18,0.43-0.44,0.81-0.76,1.14l-0.04,0.03c-0.32,0.31-0.69,0.56-1.1,0.73 c-0.41,0.17-0.86,0.27-1.33,0.27H70.58c-0.15,0-0.26-0.12-0.26-0.26V4.13H32.58v6.89L44.87,25c0.35,0.4,0.51,0.9,0.48,1.4 c-0.03,0.49-0.25,0.97-0.65,1.33l-0.02,0.01c-0.18,0.15-0.37,0.27-0.58,0.34c-0.21,0.08-0.44,0.12-0.66,0.12H6.52 c-0.53,0-1.02-0.22-1.36-0.57c-0.35-0.35-0.57-0.83-0.57-1.36c0-0.28,0.06-0.54,0.17-0.78c0.11-0.25,0.27-0.47,0.47-0.65 l12.65-13.83V4.13H0V0L0,0z M31.55,58.58c1.14,0,2.07,0.93,2.07,2.07s-0.93,2.07-2.07,2.07c-1.14,0-2.07-0.93-2.07-2.07 S30.41,58.58,31.55,58.58L31.55,58.58z M18.35,58.58c1.14,0,2.07,0.93,2.07,2.07s-0.93,2.07-2.07,2.07s-2.07-0.93-2.07-2.07 S17.21,58.58,18.35,58.58L18.35,58.58z M32.62,47.47v2.19h0v2.9h86.77c1.92,0,3.5,1.58,3.5,3.5v42.62c0,1.92-1.57,3.5-3.49,3.5 c-38.6,0-77.18,0-115.79,0c-1.91,0-3.5-1.59-3.5-3.5V56.06c0-1.93,1.57-3.5,3.5-3.5h13.68c0-1.7,0-3.39,0-5.09h4.55v2.19h-2.08v2.9 h10.4v-2.9h-2.08v-2.19H32.62L32.62,47.47z M119.02,56.42H89.4v41.9h29.63V56.42L119.02,56.42L119.02,56.42z M85.54,56.42H46.77 v9.33h38.77V56.42L85.54,56.42L85.54,56.42z M42.91,56.42H3.96v41.9h38.95V56.42L42.91,56.42L42.91,56.42z M46.77,98.31h38.77 v-28.7H46.77V98.31L46.77,98.31L46.77,98.31z M94,58.58c0.28,0,0.55,0.06,0.79,0.16l0.01,0.01c0.25,0.1,0.47,0.26,0.66,0.44 c0.19,0.19,0.34,0.42,0.45,0.67c0.1,0.24,0.16,0.51,0.16,0.79s-0.06,0.54-0.16,0.79c-0.11,0.25-0.26,0.48-0.45,0.67l-0.02,0.01 c-0.19,0.18-0.41,0.33-0.66,0.43c-0.24,0.1-0.51,0.16-0.79,0.16c-0.28,0-0.55-0.06-0.79-0.16c-0.24-0.1-0.46-0.25-0.65-0.43 l-0.03-0.02c-0.19-0.19-0.34-0.42-0.44-0.67l-0.01-0.01c-0.1-0.24-0.15-0.5-0.15-0.78c0-0.28,0.06-0.55,0.16-0.79 c0.1-0.25,0.26-0.48,0.45-0.67s0.42-0.34,0.67-0.45l0.01-0.01C93.47,58.63,93.73,58.58,94,58.58L94,58.58L94,58.58z M74.31,4.13 h-0.13v22.73h44.49V4.13H74.31L74.31,4.13L74.31,4.13z M78.11,6.66c0.19-0.18,0.41-0.33,0.66-0.43c0.24-0.1,0.51-0.16,0.79-0.16 c0.28,0,0.55,0.06,0.79,0.16l0.01,0.01c0.25,0.1,0.47,0.26,0.66,0.44c0.19,0.19,0.34,0.42,0.45,0.67c0.1,0.24,0.16,0.51,0.16,0.79 s-0.06,0.55-0.16,0.79l-0.01,0.01c-0.1,0.24-0.25,0.46-0.43,0.64l-0.03,0.03c-0.19,0.18-0.41,0.33-0.65,0.43 c-0.24,0.1-0.51,0.16-0.79,0.16c-0.28,0-0.55-0.06-0.79-0.16c-0.25-0.1-0.48-0.26-0.67-0.45l0,0c-0.19-0.19-0.34-0.42-0.45-0.67 c-0.1-0.24-0.16-0.51-0.16-0.79s0.06-0.54,0.16-0.79c0.11-0.25,0.26-0.48,0.45-0.67L78.11,6.66L78.11,6.66L78.11,6.66z"/></g></svg>