<?xml version="1.0" encoding="utf-8"?><svg version="1.1" id="Layer_1" xmlns="http://www.w3.org/2000/svg" xmlns:xlink="http://www.w3.org/1999/xlink" x="0px" y="0px" viewBox="0 0 122.88 102.06" style="enable-background:new 0 0 122.88 102.06" xml:space="preserve"><g><path d="M33.5,3.86H3.86v22.75h29.65L33.5,3.86L33.5,3.86L33.5,3.86z M37.1,0h81.91c0.47,0,0.92,0.09,1.33,0.27 c0.42,0.18,0.81,0.44,1.13,0.76l0.02,0.02c0.32,0.32,0.58,0.71,0.75,1.13c0.17,0.41,0.27,0.86,0.27,1.33v23.47 c0,0.47-0.09,0.92-0.27,1.34c-0.18,0.43-0.44,0.81-0.76,1.14l-0.04,0.03c-0.32,0.31-0.69,0.56-1.1,0.73 c-0.41,0.17-0.86,0.27-1.33,0.27H86.05c-0.15,0-0.26-0.12-0.26-0.26V3.86H69.05v6.9l12.3,13.99c0.35,0.4,0.51,0.9,0.48,1.4 c-0.03,0.49-0.25,0.97-0.65,1.33l-0.02,0.01c-0.18,0.15-0.37,0.27-0.58,0.34c-0.21,0.08-0.44,0.12-0.66,0.12l-36.95,0 c-0.53,0-1.02-0.22-1.36-0.57c-0.35-0.35-0.57-0.83-0.57-1.36c0-0.28,0.06-0.54,0.17-0.78c0.11-0.25,0.27-0.47,0.47-0.65 l12.66-13.84V3.86H37.37V30.2c0,0.15-0.12,0.26-0.26,0.26H3.5c-0.47,0-0.92-0.09-1.33-0.27c-0.43-0.18-0.81-0.44-1.14-0.76 c-0.32-0.32-0.58-0.71-0.76-1.14C0.09,27.89,0,27.44,0,26.97V3.5c0-0.47,0.09-0.92,0.27-1.34C0.44,1.73,0.7,1.35,1.03,1.03 C1.04,1.01,1.05,1,1.06,1c0.32-0.31,0.69-0.56,1.1-0.73C2.58,0.09,3.03,0,3.5,0H37.1L37.1,0z M3.5,52.33h115.88 c0.47,0,0.92,0.1,1.33,0.27c0.43,0.18,0.81,0.44,1.14,0.76l0.01,0.01c0.32,0.32,0.57,0.7,0.75,1.12c0.17,0.41,0.27,0.86,0.27,1.34 v42.66c0,0.47-0.1,0.92-0.27,1.33c-0.17,0.41-0.42,0.78-0.72,1.1c-0.01,0.01-0.02,0.03-0.03,0.04l-0.01,0.01 c-0.32,0.32-0.7,0.58-1.13,0.75c-0.41,0.17-0.86,0.27-1.33,0.27H87.99c-0.08,0.02-0.16,0.04-0.25,0.06c-0.1,0.02-0.2,0.02-0.3,0.02 c-0.1,0-0.2-0.01-0.3-0.02c-0.09-0.01-0.17-0.03-0.25-0.06h-50.9c-0.08,0.02-0.16,0.04-0.25,0.06c-0.1,0.02-0.2,0.02-0.3,0.02 c-0.1,0-0.2-0.01-0.3-0.02c-0.09-0.01-0.17-0.03-0.25-0.06H3.5c-0.47,0-0.92-0.09-1.33-0.27c-0.41-0.17-0.79-0.42-1.1-0.73 c-0.02-0.01-0.03-0.02-0.04-0.04c-0.32-0.32-0.58-0.71-0.76-1.13C0.09,99.41,0,98.96,0,98.49V55.83c0-0.47,0.09-0.92,0.27-1.34 c0.18-0.43,0.44-0.81,0.76-1.14c0.01-0.01,0.02-0.02,0.04-0.03c0.32-0.31,0.69-0.56,1.1-0.73C2.58,52.42,3.03,52.33,3.5,52.33 L3.5,52.33z M119.02,56.19H89.37v41.94h29.65V56.19L119.02,56.19z M85.51,56.19H37.37v9.34h48.14V56.19L85.51,56.19z M33.51,56.19 H3.86v41.94h29.65V56.19L33.51,56.19z M37.37,98.12h48.14V69.4H37.37V98.12L37.37,98.12z M65.19,3.86H58.2v7.62 c0,0.02,0,0.04-0.01,0.07c-0.01,0.21-0.05,0.43-0.13,0.63c-0.08,0.22-0.21,0.42-0.37,0.6L47.34,24.09h28.3L65.71,12.8 c-0.16-0.17-0.3-0.38-0.39-0.6c-0.09-0.22-0.14-0.47-0.14-0.72V3.86L65.19,3.86z M93.98,58.35c0.28,0,0.55,0.06,0.79,0.16 l0.01,0.01c0.25,0.1,0.47,0.26,0.66,0.44c0.19,0.19,0.34,0.42,0.45,0.67c0.1,0.24,0.16,0.51,0.16,0.79c0,0.28-0.06,0.54-0.16,0.79 c-0.11,0.25-0.26,0.48-0.45,0.67l-0.02,0.01c-0.19,0.18-0.41,0.33-0.66,0.43c-0.24,0.1-0.51,0.16-0.79,0.16 c-0.28,0-0.55-0.06-0.79-0.16c-0.24-0.1-0.46-0.25-0.65-0.43l-0.03-0.02c-0.19-0.19-0.34-0.42-0.44-0.67l-0.01-0.01 c-0.1-0.24-0.15-0.5-0.15-0.78c0-0.28,0.06-0.55,0.16-0.79c0.1-0.25,0.26-0.48,0.45-0.67c0.19-0.19,0.42-0.34,0.67-0.45l0.01-0.01 C93.45,58.4,93.71,58.35,93.98,58.35L93.98,58.35z M22.09,5.8c0.28,0,0.55,0.06,0.79,0.16c0.25,0.1,0.48,0.26,0.67,0.45 C23.74,6.6,23.9,6.83,24,7.08c0.1,0.24,0.16,0.51,0.16,0.79c0,0.28-0.06,0.55-0.16,0.79c-0.1,0.25-0.25,0.47-0.43,0.65l-0.03,0.03 c-0.19,0.18-0.41,0.33-0.66,0.43c-0.24,0.1-0.51,0.16-0.79,0.16c-0.28,0-0.54-0.06-0.79-0.16c-0.25-0.1-0.48-0.26-0.67-0.45 l-0.02-0.02c-0.18-0.19-0.33-0.41-0.43-0.65c-0.1-0.24-0.16-0.51-0.16-0.79s0.06-0.55,0.16-0.79l0.01-0.01 c0.1-0.25,0.26-0.47,0.44-0.66c0.19-0.19,0.42-0.34,0.67-0.45l0.01-0.01C21.56,5.86,21.82,5.8,22.09,5.8L22.09,5.8z M89.78,3.86 h-0.13v22.75h29.01V3.86H89.78L89.78,3.86z M98.98,6.39c0.19-0.18,0.41-0.33,0.66-0.43c0.24-0.1,0.51-0.16,0.79-0.16 c0.28,0,0.55,0.06,0.79,0.16l0.01,0.01c0.25,0.1,0.47,0.26,0.66,0.44c0.19,0.19,0.34,0.42,0.45,0.67c0.1,0.24,0.16,0.51,0.16,0.79 c0,0.28-0.06,0.55-0.16,0.79l-0.01,0.01c-0.1,0.24-0.25,0.46-0.43,0.64l-0.03,0.03c-0.19,0.18-0.41,0.33-0.65,0.43 c-0.24,0.1-0.51,0.16-0.79,0.16c-0.28,0-0.55-0.06-0.79-0.16c-0.25-0.1-0.48-0.26-0.67-0.45l0,0c-0.19-0.19-0.34-0.42-0.45-0.67 c-0.1-0.24-0.16-0.51-0.16-0.79s0.06-0.54,0.16-0.79c0.11-0.25,0.26-0.48,0.45-0.67L98.98,6.39L98.98,6.39z M28.45,58.35 c0.28,0,0.55,0.06,0.79,0.16l0.01,0.01c0.25,0.11,0.47,0.26,0.66,0.44l0.01,0.02c0.18,0.19,0.33,0.41,0.43,0.65l0.01,0.01 c0.1,0.24,0.15,0.5,0.15,0.78c0,0.28-0.06,0.54-0.16,0.79c-0.11,0.25-0.26,0.48-0.45,0.67l-0.02,0.01 c-0.19,0.18-0.41,0.33-0.66,0.43c-0.24,0.1-0.51,0.16-0.79,0.16c-0.28,0-0.55-0.06-0.79-0.16c-0.25-0.1-0.48-0.26-0.67-0.45l0,0 c-0.19-0.19-0.34-0.42-0.45-0.67l-0.01-0.01c-0.1-0.24-0.15-0.5-0.15-0.78c0-0.28,0.06-0.55,0.16-0.79 c0.1-0.25,0.26-0.48,0.45-0.67c0.19-0.19,0.42-0.34,0.67-0.45C27.91,58.41,28.17,58.35,28.45,58.35L28.45,58.35z"/></g></svg>