<svg xmlns="http://www.w3.org/2000/svg" xmlns:xlink="http://www.w3.org/1999/xlink" viewBox="0 0 50 50"><path d="M14.28125 0C14.125 0.00390625 13.984375 0.046875 13.84375 0.125C9.332031 2.644531 0 12.992188 0 28.90625C0 35.382813 3.101563 44.703125 9.9375 49.8125C10.066406 49.910156 10.226563 49.945313 10.375 49.96875C10.4375 49.980469 10.496094 50 10.5625 50C11.113281 50 11.5625 49.554688 11.5625 49C11.5625 48.71875 11.4375 48.464844 11.25 48.28125C10.496094 47.382813 2.765625 33.1875 9.4375 21.9375C12.34375 34.269531 17.585938 27.046875 14.09375 15.84375C18.25 19.378906 20.679688 26.8125 15.625 33.75C15.398438 34.085938 15.171875 34.421875 14.90625 34.75C14.625 35.101563 14.609375 35.605469 14.875 35.96875C15.140625 36.332031 15.609375 36.472656 16.03125 36.3125C19.128906 35.144531 24.90625 32.972656 24.90625 24.84375C24.90625 20.480469 21.8125 14.582031 19.09375 9.375C17.320313 5.976563 15.652344 2.738281 15.3125 0.8125C15.257813 0.492188 15.042969 0.234375 14.75 0.09375C14.605469 0.0234375 14.4375 -0.00390625 14.28125 0 Z M 46.6875 24.03125C46.300781 24.070313 45.925781 24.179688 45.5625 24.375L19.34375 38.59375C18.988281 38.519531 18.605469 38.46875 18.21875 38.46875C17.160156 38.46875 16.074219 38.753906 15.0625 39.28125C13.765625 39.960938 12.730469 41.007813 12.15625 42.1875C11.53125 43.46875 11.515625 44.769531 12.09375 45.875C12.792969 47.203125 14.253906 48 16.03125 48C17.089844 48 18.179688 47.714844 19.1875 47.1875C20.746094 46.371094 21.835938 45.140625 22.3125 43.8125L48.4375 29.625C49.886719 28.839844 50.410156 27.007813 49.625 25.5625C49.234375 24.839844 48.582031 24.34375 47.84375 24.125C47.472656 24.015625 47.074219 23.992188 46.6875 24.03125 Z M 46.90625 26C47.292969 25.960938 47.671875 26.160156 47.875 26.53125C48.144531 27.027344 47.964844 27.605469 47.46875 27.875L22.5 41.46875C22.429688 41.175781 22.300781 40.871094 22.15625 40.59375C21.988281 40.273438 21.78125 40.003906 21.53125 39.75L46.53125 26.125C46.65625 26.058594 46.777344 26.011719 46.90625 26Z"/></svg>