<svg xmlns="http://www.w3.org/2000/svg" xmlns:xlink="http://www.w3.org/1999/xlink" viewBox="0 0 100 100"><path d="M78.503906 3 A 0.50005 0.50005 0 0 0 78.371094 3.0175781C67.233392 5.9657932 62.011149 14.187697 59.693359 19.675781C57.098393 19.269086 53.864283 19 50 19C40.885 19 35.102906 20.465969 33.628906 21.792969C33.442906 21.941969 29.166906 25.469031 29.003906 32.582031C22.824906 38.872031 19 48.377 19 57.5C19 74.869 32.907 89 50 89C67.093 89 81 74.869 81 57.5C81 48.377 77.174141 38.872031 70.994141 32.582031C70.831141 25.469031 66.557109 21.941172 66.412109 21.826172C66.218685 21.65216 65.929682 21.476926 65.597656 21.302734C67.068678 15.321481 70.204837 11.610717 73.144531 9.3261719C76.528122 6.696659 79.613281 5.9863281 79.613281 5.9863281 A 0.50005 0.50005 0 0 0 79.947266 5.2773438L78.947266 3.2773438 A 0.50005 0.50005 0 0 0 78.503906 3 z M 78.253906 4.1269531L78.800781 5.2167969C78.056863 5.4215611 75.584043 6.164672 72.53125 8.5371094C69.11812 11.189578 65.45898 15.723482 64.205078 23.140625C63.621408 23.389741 62.819209 23.663455 61.714844 23.917969C60.977279 24.087949 60.10115 24.243401 59.146484 24.386719C59.908727 21.246222 63.901892 8.1541479 78.253906 4.1269531 z M 50 21C53.69524 21 56.641258 21.244628 58.955078 21.582031C58.422399 23.106126 58.187757 24.074692 58.09375 24.521484C55.867908 24.803259 53.202704 25 50 25C44.810008 25 40.87267 24.514291 38.285156 23.917969C36.991399 23.619808 36.032342 23.287557 35.460938 23.009766C35.447325 23.003148 35.44871 23.000709 35.435547 22.994141C37.050879 22.189984 41.747314 21 50 21 z M 66.107422 24.400391C67.26016 25.799061 69 28.612211 69 33C69 33.555556 68.666924 34.213936 67.880859 34.90625C67.094795 35.598564 65.87822 36.29625 64.261719 36.90625C61.028716 38.126251 56.203333 39 50 39C43.796667 39 38.971284 38.126251 35.738281 36.90625C34.12178 36.29625 32.905205 35.598564 32.119141 34.90625C31.333076 34.213936 31 33.555556 31 33C31 28.625509 32.729201 25.816092 33.894531 24.402344C34.102186 24.547242 34.324433 24.681462 34.585938 24.808594C35.373281 25.191365 36.442693 25.546098 37.835938 25.867188C40.622424 26.509365 44.685992 27 50 27C55.314008 27 59.377576 26.509365 62.164062 25.867188C63.557307 25.546098 64.626718 25.191365 65.414062 24.808594C65.676511 24.681003 65.899187 24.545939 66.107422 24.400391 z M 30.287109 34.146484C30.533369 34.674247 30.922039 35.183344 31.458984 35.65625C32.376045 36.463936 33.69072 37.20375 35.386719 37.84375C38.778716 39.123749 43.703333 40 50 40C56.296667 40 61.221284 39.123749 64.613281 37.84375C66.30928 37.20375 67.623955 36.463936 68.541016 35.65625C69.077961 35.183344 69.466631 34.674247 69.712891 34.146484C75.450678 40.074874 79 48.9569 79 57.5C79 73.767 65.991 87 50 87C34.009 87 21 73.767 21 57.5C21 48.9569 24.549322 40.074874 30.287109 34.146484 z M 33.013672 74.994141 A 0.50005 0.50005 0 0 0 32.673828 75.857422C37.168872 80.272907 43.278814 83 50 83C51.931817 83 53.810181 82.769249 55.615234 82.34375 A 0.50005 0.50005 0 1 0 55.384766 81.371094C53.651819 81.779595 51.852183 82 50 82C43.549186 82 37.693956 79.385093 33.375 75.142578 A 0.50005 0.50005 0 0 0 33.013672 74.994141 z M 66.970703 74.994141 A 0.50005 0.50005 0 0 0 66.626953 75.142578C66.284177 75.478537 65.924895 75.803151 65.558594 76.123047 A 0.5004012 0.5004012 0 1 0 66.216797 76.876953C66.592496 76.548849 66.964948 76.211463 67.326172 75.857422 A 0.50005 0.50005 0 0 0 66.970703 74.994141 z M 63.255859 77.996094 A 0.50005 0.50005 0 0 0 62.990234 78.082031C61.831411 78.848066 60.591653 79.504922 59.300781 80.0625 A 0.50035486 0.50035486 0 1 0 59.699219 80.980469C61.038347 80.402047 62.327839 79.719934 63.541016 78.917969 A 0.50005 0.50005 0 0 0 63.255859 77.996094 z"/></svg>