<svg xmlns="http://www.w3.org/2000/svg" xmlns:xlink="http://www.w3.org/1999/xlink" viewBox="0 0 50 50"><path d="M6 4C4.901333 4 3.7716955 4.3969048 2.8144531 5.0527344C1.8572108 5.7085639 1.0019531 6.7005686 1.0019531 8C1.0019531 8.9677525 1.5059741 9.8686979 2.3300781 10.375L3.3984375 11.029297 A 1.0001 1.0001 0 0 0 3.3984375 11.03125C3.9582504 11.373802 4.3135538 11.968655 4.3496094 12.625 A 1.0001 1.0001 0 0 0 4.3535156 12.675781L7.2363281 39.740234C7.614571 43.291062 10.626441 46 14.197266 46L28.833984 46C32.401431 46 35.411965 43.297502 35.794922 39.751953L38.679688 13L39.591797 13C40.602901 13 41.448099 13.74783 41.568359 14.75 A 1.0001 1.0001 0 0 0 41.570312 14.753906L43.029297 26.367188C43.208539 27.876213 44.50862 29 46.001953 29C46.067563 29 46.223232 28.990104 46.384766 28.964844C48.007793 28.761863 49.179778 27.256562 48.974609 25.626953L48.974609 25.625L47.523438 14.005859L47.525391 14.007812C47.034029 10.02017 43.611797 7 39.591797 7L21.628906 7C19.349678 7 17.090608 6.5898664 14.957031 5.7890625L14.097656 5.4667969C11.508503 4.4967791 8.7649748 4 6 4 z M 6 6C8.5250252 6 11.031637 6.4538615 13.396484 7.3398438L14.253906 7.6621094C16.612329 8.5473055 19.110134 9 21.628906 9L39.591797 9C42.611797 9 45.170378 11.2596 45.539062 14.251953 A 1.0001 1.0001 0 0 0 45.539062 14.253906L46.990234 25.873047 A 1.0001 1.0001 0 0 0 46.990234 25.876953C47.061924 26.440186 46.679719 26.921101 46.132812 26.986328 A 1.0001 1.0001 0 0 0 46.035156 27.003906C46.067656 26.996706 46.081953 27 46.001953 27C45.495286 27 45.076336 26.643794 45.015625 26.132812 A 1.0001 1.0001 0 0 0 45.013672 26.125L43.554688 14.511719C43.314948 12.513888 41.600693 11 39.591797 11L37.78125 11 A 1.0001 1.0001 0 0 0 36.787109 11.892578L33.806641 39.537109C33.531597 42.083561 31.396537 44 28.833984 44L14.197266 44C11.63209 44 9.4963665 42.080469 9.2246094 39.529297L6.3417969 12.464844L6.3457031 12.515625C6.2737811 11.206447 5.5628425 10.011741 4.4433594 9.3261719L3.3769531 8.6699219C3.1439842 8.5260594 3.0019531 8.2736396 3.0019531 8C3.0019531 7.6424314 3.3178048 7.1330455 3.9453125 6.703125C4.5728202 6.2732045 5.441667 6 6 6 z M 15 17 A 1.0001 1.0001 0 1 0 15 19L28 19 A 1.0001 1.0001 0 1 0 28 17L15 17 z M 18 22 A 1.0001 1.0001 0 1 0 18 24L25 24 A 1.0001 1.0001 0 1 0 25 22L18 22 z M 15 27 A 1.0001 1.0001 0 1 0 15 29L28 29 A 1.0001 1.0001 0 1 0 28 27L15 27 z M 18 32 A 1.0001 1.0001 0 1 0 18 34L25 34 A 1.0001 1.0001 0 1 0 25 32L18 32 z M 15 37 A 1.0001 1.0001 0 1 0 15 39L28 39 A 1.0001 1.0001 0 1 0 28 37L15 37 z"/></svg>