<svg xmlns="http://www.w3.org/2000/svg" xmlns:xlink="http://www.w3.org/1999/xlink" viewBox="0 0 50 50"><path d="M48.983,26.208l-1.48-12.584C47.058,9.848,43.855,7,40.054,7h-0.462H36.5H21.628c-2.287,0-4.531-0.407-6.671-1.209l-0.859-0.323C11.5,4.494,8.776,4,6,4C4.01,4,1.002,5.595,1.002,8c0,0.962,0.509,1.873,1.329,2.375l1.067,0.654c0.56,0.344,0.915,0.94,0.956,1.646L7.236,39.74c0.38,3.569,3.372,6.26,6.961,6.26h14.638c3.583,0,6.575-2.687,6.959-6.249l2.982-27.644c0.004-0.037-0.01-0.071-0.01-0.107h0.826c1.51,0,2.79,1.13,2.97,2.63l0.383,3.047l1.072,9.115c0.15,1.272,1.229,2.208,2.48,2.208c0.097,0,0.196-0.005,0.295-0.017C48.164,28.822,49.144,27.579,48.983,26.208z M28,39H15c-0.552,0-1-0.448-1-1s0.448-1,1-1h13c0.552,0,1,0.448,1,1S28.552,39,28,39z M17,33c0-0.552,0.448-1,1-1h7c0.552,0,1,0.448,1,1s-0.448,1-1,1h-7C17.448,34,17,33.552,17,33z M28,29H15c-0.552,0-1-0.448-1-1s0.448-1,1-1h13c0.552,0,1,0.448,1,1S28.552,29,28,29z M17,23c0-0.552,0.448-1,1-1h7c0.552,0,1,0.448,1,1s-0.448,1-1,1h-7C17.448,24,17,23.552,17,23z M28,19H15c-0.552,0-1-0.448-1-1s0.448-1,1-1h13c0.552,0,1,0.448,1,1S28.552,19,28,19z"/></svg>