<svg xmlns="http://www.w3.org/2000/svg" xmlns:xlink="http://www.w3.org/1999/xlink" viewBox="0 0 50 50"><path d="M6 2L6 3C6 7.0521353 9.0846057 10.281986 13 10.796875L13 24L9 24L9 21L1 21L1 22L1 37L9 37L9 34L19.640625 34L14.533203 47L49 47L49 46L49 17L26.318359 17L23.568359 24L22 24L22 11L25 11C29.406438 11 33 7.406438 33 3L33 2L6 2 z M 8.2011719 4L30.798828 4C30.30902 6.8253408 27.970243 9 25 9L22 9L14 9C11.029757 9 8.6909798 6.8253408 8.2011719 4 z M 15 11L20 11L20 24L15 24L15 11 z M 27.681641 19L47 19L47 45L17.46875 45L27.681641 19 z M 39 22C37.416667 22 36.101892 22.629756 35.251953 23.585938C34.402014 24.542119 34 25.777778 34 27C34 28.222222 34.402014 29.457882 35.251953 30.414062C36.101892 31.370244 37.416667 32 39 32C40.583333 32 41.898108 31.370244 42.748047 30.414062C43.597986 29.457881 44 28.222222 44 27C44 25.777778 43.597986 24.542118 42.748047 23.585938C41.898108 22.629756 40.583333 22 39 22 z M 3 23L7 23L7 24L7 34L7 35L3 35L3 23 z M 39 24C39.535334 24 39.971189 24.09284 40.335938 24.25L36.417969 28.167969C36.260332 27.777407 36 27.435393 36 27C36 26.222222 36.264653 25.457882 36.748047 24.914062C37.231441 24.370244 37.916667 24 39 24 z M 40.892578 24.650391C41.006757 24.743571 41.155461 24.805509 41.251953 24.914062C41.286313 24.952723 41.272558 25.021691 41.304688 25.0625L40.892578 24.650391 z M 41.582031 25.832031C41.739668 26.222593 42 26.564607 42 27C42 27.777778 41.735347 28.542118 41.251953 29.085938C40.768559 29.629756 40.083333 30 39 30C38.464666 30 38.028811 29.90716 37.664062 29.75L41.582031 25.832031 z M 9 26L13 26L22 26L22.783203 26L20.425781 32L9 32L9 26 z M 36.695312 28.9375L37.107422 29.349609C36.993243 29.256429 36.844539 29.194491 36.748047 29.085938C36.713687 29.047277 36.727442 28.978309 36.695312 28.9375 z"/></svg>