<svg xmlns="http://www.w3.org/2000/svg" xmlns:xlink="http://www.w3.org/1999/xlink" viewBox="0 0 80 80"><path d="M20.195312 10C16.603644 10 14.571615 10.740496 13.400391 11.636719C12.814778 12.08483 12.458758 12.570931 12.259766 12.966797C12.060773 13.362662 12.005859 13.763672 12.005859 13.763672 A 1.0001 1.0001 0 0 0 12.429688 14.685547C17.306986 18.06649 18.376014 24.455763 18.095703 31.082031C17.815392 37.7083 16.171472 44.273231 16.001953 47.953125C15.587442 56.954154 18.111804 63.257341 20.769531 67.28125C23.363414 71.208496 26.067032 72.961789 26.199219 73.046875C27.343729 74.024865 28.315356 74.534069 29.037109 74.773438C29.768177 75.015895 30.378906 74.980469 30.378906 74.980469L30.269531 74.986328L46.097656 74.986328L45.882812 74.962891C45.882812 74.962891 46.12135 75.005057 46.363281 74.998047C46.605213 74.991047 46.924531 74.950567 47.304688 74.835938C48.058805 74.608542 49.051349 74.083602 50.208984 73.015625C50.360782 72.910535 52.350379 71.515898 54.496094 68.376953C56.645044 65.233274 58.890219 60.311633 59.644531 53.333984C64.117992 52.03919 67.409161 48.163529 69.599609 43.859375C71.850411 39.436587 73 34.569163 73 31.183594C73 28.689573 72.525449 25.968826 71.070312 23.777344C69.642314 21.626731 67.173074 20.09801 63.695312 20.041016 A 1.0001 1.0001 0 0 0 63.509766 20.019531L63.402344 20.019531C63.402344 20.019531 63.402341 20.03111 63.402344 20.03125C61.905398 20.04228 60.508753 20.326503 59.166016 20.726562C59.385577 19.103973 59.582715 17.319205 59.939453 16.34375 A 1.0001 1.0001 0 0 0 59.412109 15.087891C55.936701 13.516492 51.993073 13.820281 48.462891 14.441406C44.932709 15.062531 41.6949 16 40 16C36.295185 16 33.243227 14.594977 30.154297 13.099609C27.065367 11.604242 23.938375 10 20.195312 10 z M 20.195312 12C23.359251 12 26.175133 13.395758 29.283203 14.900391C32.391273 16.405023 35.789815 18 40 18C42.3341 18 45.430979 17.006734 48.810547 16.412109C51.922534 15.864565 55.147556 15.708929 57.873047 16.6875C57.427854 18.391141 57.143608 20.380522 56.908203 22.023438 A 1.0001 1.0001 0 0 0 58.28125 23.087891C59.902878 22.415577 61.636701 22.019531 63.509766 22.019531C66.545307 22.019531 68.269183 23.173295 69.404297 24.882812C70.53941 26.59233 71 28.953615 71 31.183594C71 34.097025 69.918355 38.820918 67.816406 42.951172C65.72763 47.055543 62.663814 50.521202 58.873047 51.513672L58.761719 51.513672 A 1.0001 1.0001 0 0 0 57.765625 52.423828C57.133307 59.483328 54.898429 64.245134 52.845703 67.248047C50.792978 70.25096 48.996094 71.4375 48.996094 71.4375 A 1.0001 1.0001 0 0 0 48.871094 71.535156C47.882046 72.453198 47.1535 72.793138 46.726562 72.921875C46.513095 72.986245 46.373036 72.99801 46.304688 73C46.273404 73.000915 46.2766 73.003818 46.285156 73.005859 A 1.0001 1.0001 0 0 0 46.283203 73.005859 A 1.0001 1.0001 0 0 0 46.097656 72.986328L30.269531 72.986328 A 1.0001 1.0001 0 0 0 30.160156 72.992188C30.160156 72.992188 30.122196 73.026288 29.666016 72.875C29.209833 72.723708 28.463762 72.367439 27.46875 71.509766 A 1.0001 1.0001 0 0 0 27.347656 71.421875C27.347656 71.421875 24.889772 69.892528 22.4375 66.179688C19.985228 62.466845 17.602558 56.634846 17.998047 48.046875C18.130623 45.168904 19.508466 39.240969 19.974609 32.994141C19.983588 32.994382 19.990966 33 20 33C20.55 33 21 32.55 21 32C21 31.483877 20.59902 31.070306 20.095703 31.019531C20.351593 24.484499 19.233956 17.724808 14.205078 13.6875C14.294188 13.552728 14.362816 13.419714 14.615234 13.226562C15.31476 12.691203 16.879982 12 20.195312 12 z M 63 26C60.657166 26 59.106349 26.174732 57.488281 27.140625 A 1.0001 1.0001 0 0 0 57.050781 27.6875C56.651458 28.901751 56.395027 30.023331 56.230469 31.046875C56.154439 31.028221 56.08157 31 56 31C55.45 31 55 31.45 55 32C55 32.55 55.45 33 56 33C56.010362 33 56.019008 32.994458 56.029297 32.994141C55.984874 33.757429 55.971398 34.46788 56.001953 35.052734C56.093973 36.821136 56.403417 37.880242 57.017578 41.183594C57.491636 43.730783 57.813019 45.806055 58.009766 47.144531 A 1.0001 1.0001 0 0 0 59.601562 47.798828C61.954847 46.023009 63.726385 42.932577 64.994141 39.746094C66.261896 36.559611 67 33.302514 67 31C67 29.582151 66.73904 28.367264 66.054688 27.439453C65.370334 26.511642 64.237167 26 63 26 z M 63 28C63.762833 28 64.129665 28.199014 64.445312 28.626953C64.76096 29.054892 65 29.840849 65 31C65 32.848486 64.32376 36.017342 63.134766 39.005859C62.22975 41.2806 60.975281 43.251855 59.642578 44.771484C59.452361 43.566993 59.296745 42.505319 58.982422 40.816406C58.360583 37.471758 58.080031 36.522864 57.998047 34.947266C57.922297 33.49734 58.053877 31.362703 58.855469 28.728516C59.962745 28.149199 60.946708 28 63 28 z M 24 31C23.45 31 23 31.45 23 32C23 32.55 23.45 33 24 33C24.55 33 25 32.55 25 32C25 31.45 24.55 31 24 31 z M 28 31C27.45 31 27 31.45 27 32C27 32.55 27.45 33 28 33C28.55 33 29 32.55 29 32C29 31.45 28.55 31 28 31 z M 32 31C31.45 31 31 31.45 31 32C31 32.55 31.45 33 32 33C32.55 33 33 32.55 33 32C33 31.45 32.55 31 32 31 z M 36 31C35.45 31 35 31.45 35 32C35 32.55 35.45 33 36 33C36.55 33 37 32.55 37 32C37 31.45 36.55 31 36 31 z M 40 31C39.45 31 39 31.45 39 32C39 32.55 39.45 33 40 33C40.55 33 41 32.55 41 32C41 31.45 40.55 31 40 31 z M 44 31C43.45 31 43 31.45 43 32C43 32.55 43.45 33 44 33C44.55 33 45 32.55 45 32C45 31.45 44.55 31 44 31 z M 48 31C47.45 31 47 31.45 47 32C47 32.55 47.45 33 48 33C48.55 33 49 32.55 49 32C49 31.45 48.55 31 48 31 z M 52 31C51.45 31 51 31.45 51 32C51 32.55 51.45 33 52 33C52.55 33 53 32.55 53 32C53 31.45 52.55 31 52 31 z"/></svg>