<svg xmlns="http://www.w3.org/2000/svg" xmlns:xlink="http://www.w3.org/1999/xlink" viewBox="0 0 50 50"><path d="M7 2C5.347656 2 4 3.347656 4 5L4 44C4 45.652344 5.347656 47 7 47L8 47L8 48L14 48L14 47L36 47L36 48L42 48L42 47L43 47C44.652344 47 46 45.652344 46 44L46 5C46 3.347656 44.652344 2 43 2 Z M 32 8L35 8C35.550781 8 36 8.449219 36 9L36 15L31 15L31 9C31 8.449219 31.449219 8 32 8 Z M 14 17L19 17C19.550781 17 20 17.449219 20 18L20 21L13 21L13 18C13 17.449219 13.449219 17 14 17 Z M 31 17L36 17L36 18L37.449219 19.929688C38.453125 21.273438 39 22.910156 39 24.589844L39 26L30 26L30 28L39 28L39 34L30 34L30 36L39 36L39 40C39 40.550781 38.550781 41 38 41L29 41C28.449219 41 28 40.550781 28 40L28 24.589844C28 22.910156 28.546875 21.273438 29.550781 19.929688L31 18 Z M 13 23L20 23C21.105469 23 22 23.894531 22 25L22 27C22 27.367188 21.894531 27.703125 21.71875 28L15 28L15 30L21.722656 30C21.894531 30.296875 22 30.632813 22 31L22 33C22 33.367188 21.894531 33.703125 21.71875 34L15 34L15 36L21.722656 36C21.894531 36.296875 22 36.632813 22 37L22 39C22 40.105469 21.105469 41 20 41L13 41C11.894531 41 11 40.105469 11 39L11 37C11 36.632813 11.105469 36.296875 11.277344 36L13 36L13 34L11.28125 34C11.105469 33.703125 11 33.367188 11 33L11 31C11 30.632813 11.105469 30.296875 11.277344 30L13 30L13 28L11.28125 28C11.105469 27.703125 11 27.367188 11 27L11 25C11 23.894531 11.894531 23 13 23Z"/></svg>