<svg xmlns="http://www.w3.org/2000/svg" xmlns:xlink="http://www.w3.org/1999/xlink" viewBox="0 0 50 50"><path d="M7 2C5.355469 2 4 3.355469 4 5L4 44C4 45.644531 5.355469 47 7 47L8 47L8 48L14 48L14 47L36 47L36 48L42 48L42 47L43 47C44.644531 47 46 45.644531 46 44L46 5C46 3.355469 44.644531 2 43 2 Z M 7 4L43 4C43.566406 4 44 4.433594 44 5L44 44C44 44.566406 43.566406 45 43 45L7 45C6.433594 45 6 44.566406 6 44L6 5C6 4.433594 6.433594 4 7 4 Z M 32 7C30.90625 7 30 7.90625 30 9L30 15.832031C29.980469 15.941406 29.980469 16.050781 30 16.15625L30 17.667969L28.75 19.328125C27.617188 20.847656 27 22.691406 27 24.589844L27 40C27 41.09375 27.90625 42 29 42L38 42C39.09375 42 40 41.09375 40 40L40 24.589844C40 22.691406 39.386719 20.847656 38.25 19.328125L37 17.667969L37 16.167969C37.019531 16.058594 37.019531 15.949219 37 15.84375L37 9C37 7.90625 36.09375 7 35 7 Z M 32 9L35 9L35 15L32 15 Z M 14 16C12.90625 16 12 16.90625 12 18L12 21C12 21.386719 12.226563 21.742188 12.578125 21.90625L12.542969 22L13 22C11.355469 22 10 23.355469 10 25L10 27C10 27.777344 10.339844 28.464844 10.832031 29C10.339844 29.535156 10 30.222656 10 31L10 33C10 33.777344 10.339844 34.464844 10.832031 35C10.339844 35.535156 10 36.222656 10 37L10 39C10 40.644531 11.355469 42 13 42L20 42C21.644531 42 23 40.644531 23 39L23 37C23 36.222656 22.660156 35.535156 22.167969 35C22.660156 34.464844 23 33.777344 23 33L23 31C23 30.222656 22.660156 29.535156 22.167969 29C22.660156 28.464844 23 27.777344 23 27L23 25C23 23.355469 21.644531 22 20 22L20.457031 22L20.421875 21.90625C20.773438 21.742188 21 21.386719 21 21L21 18C21 16.90625 20.09375 16 19 16 Z M 32 17L35 17L35 18C35 18.214844 35.070313 18.425781 35.199219 18.597656L36.648438 20.53125C37.527344 21.699219 38 23.125 38 24.589844L38 26L31 26L31 28L38 28L38 34L31 34L31 36L38 36L38 40L29 40L29 24.589844C29 23.125 29.472656 21.699219 30.351563 20.53125L31.800781 18.597656C31.929688 18.425781 32 18.214844 32 18 Z M 14 18L19 18L19 20L14 20 Z M 14.6875 22L18.3125 22L18.84375 23.359375C18.992188 23.746094 19.363281 24 19.777344 24L20 24C20.566406 24 21 24.433594 21 25L21 27C21 27.566406 20.566406 28 20 28L16 28L16 30L20 30C20.566406 30 21 30.433594 21 31L21 33C21 33.566406 20.566406 34 20 34L16 34L16 36L20 36C20.566406 36 21 36.433594 21 37L21 39C21 39.566406 20.566406 40 20 40L13 40C12.433594 40 12 39.566406 12 39L12 37C12 36.433594 12.433594 36 13 36L14 36L14 34L13 34C12.433594 34 12 33.566406 12 33L12 31C12 30.433594 12.433594 30 13 30L14 30L14 28L13 28C12.433594 28 12 27.566406 12 27L12 25C12 24.433594 12.433594 24 13 24L13.222656 24C13.636719 24 14.007813 23.746094 14.15625 23.359375Z"/></svg>