<svg xmlns="http://www.w3.org/2000/svg" xmlns:xlink="http://www.w3.org/1999/xlink" viewBox="0 0 48 48"><path d="M22.722656 1C22.096656 1 21.538422 1.2847187 21.232422 1.7617188C20.975422 2.1587188 20.941766 2.6315938 21.134766 3.0585938L21.982422 4.9257812L12.951172 10.085938L8 11.058594C6.1714218 11.418982 5.3857051 13.774823 6.6152344 15.167969L13.646484 23.138672L13.769531 23.994141C13.954124 25.279536 14.838983 26.328197 16 26.771484L16 29.189453C14.858 29.578749 13.955276 30.543519 13.693359 31.767578L11.810547 40.556641C11.524547 41.892641 11.852938 43.266125 12.710938 44.328125C13.568938 45.390125 14.844938 46 16.210938 46L31.787109 46C33.153109 46 34.429109 45.390125 35.287109 44.328125C36.146109 43.266125 36.476453 41.892641 36.189453 40.556641L34.304688 31.767578C34.043692 30.543493 33.14081 29.581207 32 29.191406L32 26.771484C33.161249 26.328196 34.046627 25.279534 34.230469 23.994141L35.800781 13L39.5 13C39.795045 13 40 13.204955 40 13.5L40 15.833984C40 16.052806 39.9527 16.269938 39.859375 16.470703L36.640625 23.365234 A 1.5002761 1.5002761 0 1 0 39.359375 24.634766L42.578125 17.738281 A 1.50015 1.50015 0 0 0 42.580078 17.734375C42.856711 17.139134 43 16.491162 43 15.833984L43 13.5C43 11.585045 41.414955 10 39.5 10L34.898438 10L26.023438 4.9277344L26.871094 3.0585938C27.064094 2.6315938 27.030438 2.1587188 26.773438 1.7617188C26.467437 1.2847188 25.909203 1 25.283203 1L22.722656 1 z M 24 7.2285156L28.849609 10L19.148438 10L24 7.2285156 z M 12.238281 13.283203L12.873047 17.728516L9.4375 13.833984L12.238281 13.283203 z M 19 27L29 27L29 29L19 29L19 27 z"/></svg>