<svg xmlns="http://www.w3.org/2000/svg" xmlns:xlink="http://www.w3.org/1999/xlink" viewBox="0 0 100 100"><path d="M47.705078 16.019531 A 0.50005 0.50005 0 0 0 47.503906 16.070312L42.728516 18.382812 A 0.50005 0.50005 0 0 0 42.457031 18.935547L43.392578 23.408203L30.441406 27.658203 A 1.0001 1.0001 0 0 0 29.878906 29.128906L29.648438 29.128906 A 0.50005 0.50005 0 0 0 29.515625 29.146484L22.890625 30.982422 A 0.50005 0.50005 0 0 0 22.736328 31.056641L18.117188 34.322266 A 0.50005 0.50005 0 0 0 18.40625 35.230469L23.761719 35.230469L33.564453 49.761719L33.966797 52.142578 A 1.0001 1.0001 0 0 0 34.951172 52.976562L35.568359 52.976562L35.568359 58.625L34.701172 58.625 A 1.0001 1.0001 0 0 0 33.714844 59.464844L29.765625 83.748047 A 1.0001 1.0001 0 0 0 30.753906 84.908203L65.726562 84.908203 A 1.0001 1.0001 0 0 0 66.708984 83.716797L61.966797 59.433594 A 1.0001 1.0001 0 0 0 60.986328 58.625L59.927734 58.625L59.927734 52.976562L61.126953 52.976562 A 1.0001 1.0001 0 0 0 62.111328 52.144531L64.619141 37.419922C65.078313 37.218388 65.784724 36.915126 66.769531 36.539062C68.228106 35.982085 69.982948 35.42796 70.873047 35.390625C71.739136 35.354285 72.149853 35.749439 72.431641 36.279297C72.713428 36.809155 72.74857 37.531933 72.714844 37.683594 A 0.50005 0.50005 0 0 0 72.712891 37.685547C72.621721 38.097563 71.99206 38.989177 71.289062 39.933594C70.586067 40.87801 69.81821 41.919823 69.529297 43.03125C69.24412 44.127766 69.357394 45.761655 69.503906 47.191406C69.617696 48.30184 69.717634 48.85178 69.779297 49.228516L66.658203 49.228516 A 0.50005 0.50005 0 0 0 66.25 49.439453L64.347656 52.128906 A 0.50005 0.50005 0 0 0 64.414062 52.783203L66.652344 54.869141 A 0.50005 0.50005 0 0 0 66.992188 55.003906L72.697266 55.003906 A 0.50005 0.50005 0 0 0 73.099609 54.800781L74.777344 52.533203 A 0.50005 0.50005 0 0 0 74.855469 52.375L79.21875 37.455078 A 0.50005 0.50005 0 0 0 79.109375 36.978516L71.408203 28.486328 A 0.50005 0.50005 0 0 0 71.005859 28.322266 A 0.50005 0.50005 0 0 0 70.978516 28.326172L66.351562 28.886719 A 1.0001 1.0001 0 0 0 65.666016 27.654297L52.128906 23.367188L53.039062 19.072266 A 0.50005 0.50005 0 0 0 52.775391 18.523438L47.947266 16.074219 A 0.50005 0.50005 0 0 0 47.705078 16.019531 z M 47.716797 17.078125L51.980469 19.240234L51.169922 23.064453L48.050781 22.076172 A 1.0001 1.0001 0 0 0 47.753906 22.029297 A 1.0001 1.0001 0 0 0 47.435547 22.080078L44.347656 23.09375L43.515625 19.113281L47.716797 17.078125 z M 47.753906 24.080078L60.060547 27.976562L35.884766 27.976562L47.753906 24.080078 z M 70.841797 29.349609L78.179688 37.443359L73.921875 52.009766L72.445312 54.003906L67.189453 54.003906L65.416016 52.349609L66.916016 50.228516L70.349609 50.228516 A 0.50005 0.50005 0 0 0 70.841797 49.642578C70.841797 49.642578 70.640536 48.480342 70.498047 47.089844C70.355558 45.699345 70.299223 44.047687 70.498047 43.283203C70.712133 42.45963 71.397794 41.463583 72.091797 40.53125C72.785423 39.599422 73.495165 38.777794 73.689453 37.902344L73.689453 37.900391C73.812228 37.346161 73.721793 36.574543 73.314453 35.808594C72.90674 35.041952 72.062942 34.33897 70.832031 34.390625C69.62413 34.441295 67.905487 35.035947 66.414062 35.605469C65.535832 35.940834 65.203696 36.096673 64.814453 36.269531L65.890625 29.949219L70.841797 29.349609 z M 32.259766 29.976562L35.324219 29.976562L38.177734 50.976562L35.796875 50.976562L32.259766 29.976562 z M 36.333984 29.976562L60.162109 29.976562L59.738281 32.255859 A 0.50005 0.50005 0 1 0 60.720703 32.439453L61.177734 29.976562L63.855469 29.976562L60.28125 50.976562L57.267578 50.976562L59.642578 38.222656 A 0.50005 0.50005 0 0 0 59.138672 37.625 A 0.50005 0.50005 0 0 0 58.660156 38.041016L56.25 50.976562L48.177734 50.976562L48 38.46875 A 0.50005 0.50005 0 0 0 47.484375 37.96875 A 0.50005 0.50005 0 0 0 47 38.482422L47.177734 50.976562L39.1875 50.976562L36.333984 29.976562 z M 29.716797 30.128906L30.255859 30.128906L33.164062 47.380859L24.443359 34.451172 A 0.50005 0.50005 0 0 0 24.027344 34.230469L19.980469 34.230469L23.242188 31.923828L29.716797 30.128906 z M 59.652344 34.863281 A 0.50005 0.50005 0 0 0 59.173828 35.279297L59.054688 35.923828 A 0.50005 0.50005 0 1 0 60.037109 36.107422L60.158203 35.462891 A 0.50005 0.50005 0 0 0 59.652344 34.863281 z M 36.568359 52.976562L58.927734 52.976562L58.927734 58.625L36.568359 58.625L36.568359 52.976562 z M 35.552734 60.625L38.658203 60.625L35.617188 76.964844 A 0.50005 0.50005 0 1 0 36.599609 77.148438L39.675781 60.625L47.847656 60.625L48 71.482422 A 0.50005 0.50005 0 1 0 49 71.46875L48.847656 60.625L56.535156 60.625L60.59375 82.908203L35.527344 82.908203L35.841797 81.212891 A 0.50005 0.50005 0 0 0 35.335938 80.613281 A 0.50005 0.50005 0 0 0 34.859375 81.029297L34.509766 82.908203L31.929688 82.908203L35.552734 60.625 z M 57.552734 60.625L60.162109 60.625L64.513672 82.908203L61.607422 82.908203L57.552734 60.625 z M 35.767578 78.300781 A 0.50005 0.50005 0 0 0 35.289062 78.716797L35.162109 79.400391 A 0.50049656 0.50049656 0 0 0 36.146484 79.582031L36.273438 78.898438 A 0.50005 0.50005 0 0 0 35.767578 78.300781 z"/></svg>