<svg xmlns="http://www.w3.org/2000/svg" xmlns:xlink="http://www.w3.org/1999/xlink" viewBox="0 0 48 48"><path d="M22.722656 1C22.096656 1 21.538422 1.2847187 21.232422 1.7617188C20.975422 2.1587188 20.941766 2.6315938 21.134766 3.0585938L21.982422 4.9257812L12.951172 10.085938L8 11.058594C6.1714218 11.418982 5.3857051 13.774823 6.6152344 15.167969L13.646484 23.138672L13.769531 23.996094C13.95353 25.281475 14.838748 26.3285 16 26.771484L16 29.189453C14.858544 29.577976 13.958457 30.540277 13.695312 31.765625 A 1.50015 1.50015 0 0 0 13.693359 31.767578L11.810547 40.556641C11.217666 43.325565 13.378948 46 16.210938 46L31.787109 46C34.619099 46 36.782055 43.326287 36.1875 40.556641L34.302734 31.767578C34.041211 30.542264 33.140226 29.580715 32 29.191406L32 26.771484C33.161392 26.328534 34.047073 25.281585 34.230469 23.996094L34.230469 23.994141L35.800781 13L39.5 13C39.795045 13 40 13.204955 40 13.5L40 15.833984C40 16.052806 39.9527 16.269938 39.859375 16.470703L36.640625 23.365234 A 1.5002761 1.5002761 0 1 0 39.359375 24.634766L42.578125 17.738281 A 1.50015 1.50015 0 0 0 42.580078 17.734375C42.856711 17.139134 43 16.491162 43 15.833984L43 13.5C43 11.585045 41.414955 10 39.5 10L34.898438 10L26.023438 4.9277344L26.871094 3.0585938C27.064094 2.6315938 27.030438 2.1587188 26.773438 1.7617188C26.467437 1.2847188 25.909203 1 25.283203 1L22.722656 1 z M 24 7.2285156L28.849609 10L19.148438 10L24 7.2285156 z M 15.228516 13L32.771484 13L31.259766 23.570312 A 1.50015 1.50015 0 0 0 31.259766 23.572266C31.223383 23.828194 31.026685 24 30.765625 24L29 24L19 24L17.234375 24C16.975053 24 16.777026 23.827329 16.740234 23.570312L16.595703 22.5625 A 1.50015 1.50015 0 0 0 16.595703 22.558594 A 1.50015 1.50015 0 0 0 16.523438 22.060547L15.228516 13 z M 12.240234 13.283203L12.875 17.728516L9.4375 13.833984L12.240234 13.283203 z M 19 27L29 27L29 29L19 29L19 27 z M 17.117188 32L30.882812 32C31.12698 32 31.318769 32.155626 31.369141 32.392578 A 1.50015 1.50015 0 0 0 31.371094 32.394531L33.253906 41.185547C33.461304 42.151853 32.77512 43 31.787109 43L16.210938 43C15.222926 43 14.537068 42.152576 14.744141 41.185547L16.626953 32.396484C16.678345 32.157173 16.873021 32 17.117188 32 z"/></svg>