<?xml version="1.0" encoding="utf-8"?><svg version="1.1" id="Layer_1" xmlns="http://www.w3.org/2000/svg" xmlns:xlink="http://www.w3.org/1999/xlink" x="0px" y="0px" viewBox="0 0 122.88 122.88" style="enable-background:new 0 0 122.88 122.88" xml:space="preserve"><g><path d="M48.54,65.67c0.02-0.43,0.2-0.82,0.49-1.11c0.3-0.3,0.72-0.49,1.18-0.49s0.87,0.19,1.18,0.49c0.3,0.3,0.49,0.72,0.49,1.18 v0.33l-3.38,3.38c0.02-1.28,0.04-2.53,0.04-3.71L48.54,65.67L48.54,65.67z M61.44,0c16.97,0,32.33,6.88,43.44,18 c11.12,11.12,18,26.48,18,43.44c0,16.97-6.88,32.33-18,43.44c-11.12,11.12-26.48,18-43.44,18c-16.97,0-32.33-6.88-43.44-18 C6.88,93.77,0,78.41,0,61.44C0,44.47,6.88,29.11,18,18C29.11,6.88,44.48,0,61.44,0L61.44,0L61.44,0z M103.65,27.79l-75.86,75.86 c9.23,7.37,20.93,11.77,33.65,11.77c14.91,0,28.4-6.04,38.17-15.81c9.77-9.77,15.81-23.27,15.81-38.17 C115.42,48.71,111.02,37.02,103.65,27.79L103.65,27.79L103.65,27.79z M22.29,98.61l76.32-76.32C88.93,13.1,75.84,7.46,61.44,7.46 c-14.91,0-28.4,6.04-38.17,15.81C13.5,33.04,7.46,46.53,7.46,61.44C7.46,75.84,13.1,88.93,22.29,98.61L22.29,98.61L22.29,98.61z M51.88,82.53c0,0.19,0.01,0.39,0.02,0.59v0.01c0.04,1.89,0.08,3.79,0.04,5.69c-0.04,1.92-0.17,3.83-0.47,5.76 c-0.04,0.29-0.08,0.58-0.12,0.88l-0.04,0.31c-0.42,3.67-1.72,5.7-3.29,6.61c-0.8,0.46-1.66,0.63-2.52,0.58 c-0.85-0.05-1.7-0.32-2.47-0.74c-1.76-0.96-3.12-2.74-3.23-4.54c-0.07-0.96-0.13-1.92-0.19-2.88l3.18-3.18 c0.07,1.86,0.18,3.72,0.31,5.59c0.49,0.99,1.07,1.68,1.64,2.05c0.38,0.24,0.75,0.35,1.1,0.32c0.35-0.03,0.68-0.19,0.97-0.48 c0.4-0.4,0.74-1.05,0.95-1.94c0.48-2,0.7-4.46,0.79-6.94c0.06-1.51,0.06-3.02,0.05-4.43L51.88,82.53L51.88,82.53z M39.48,78.45 l0-17.68c-1.4-0.49-2.62-1.15-3.69-1.98c-1.11-0.86-2.05-1.91-2.83-3.13c-0.83-1.32-1.46-2.84-1.91-4.56 c-0.44-1.71-0.7-3.63-0.79-5.75l0-0.08c-0.05-1.62-0.01-3.16,0.11-4.6c0.12-1.46,0.33-2.83,0.63-4.12c0.31-1.33,0.71-2.57,1.2-3.72 c0.49-1.15,1.08-2.22,1.75-3.19c0.72-1.03,1.51-1.94,2.35-2.74c0.87-0.82,1.8-1.51,2.77-2.08c1.12-0.65,2.28-1.13,3.48-1.43 c1.21-0.31,2.44-0.44,3.67-0.4c1.23,0.05,2.46,0.27,3.64,0.67c1.16,0.39,2.29,0.96,3.35,1.7l0.02,0.01 c0.9,0.63,1.75,1.38,2.53,2.25c0.76,0.85,1.46,1.81,2.09,2.88c0.88,1.51,1.6,3.42,2.1,5.53c0.51,2.11,0.8,4.43,0.85,6.79 c0.04,1.79-0.07,3.6-0.33,5.35c-0.25,1.66-0.65,3.28-1.2,4.78c-0.62,1.67-1.44,3.22-2.47,4.54c-0.97,1.24-2.13,2.29-3.49,3.08 c-0.86,0.5-1.79,0.89-2.81,1.17c-0.97,0.26-2.02,0.41-3.15,0.43c-0.46,0.01-0.88-0.17-1.18-0.46c-0.3-0.29-0.5-0.71-0.51-1.17 v-0.03c0-0.45,0.17-0.86,0.46-1.15c0.29-0.31,0.71-0.5,1.16-0.51l0.03,0c0.82-0.02,1.59-0.13,2.3-0.32 c0.74-0.2,1.42-0.48,2.04-0.84c1.01-0.59,1.87-1.38,2.6-2.33c0.79-1.03,1.42-2.24,1.91-3.57l0-0.01c0.48-1.3,0.83-2.71,1.04-4.17 c0.23-1.55,0.33-3.16,0.29-4.73c-0.04-2.08-0.3-4.12-0.74-5.97c-0.43-1.84-1.04-3.47-1.78-4.75c-0.5-0.86-1.06-1.63-1.67-2.3 c-0.63-0.69-1.3-1.29-2-1.78c-0.8-0.56-1.64-0.98-2.51-1.28c-0.88-0.3-1.79-0.47-2.7-0.5c-0.91-0.03-1.83,0.07-2.74,0.3 c-0.89,0.23-1.77,0.59-2.62,1.08c-0.75,0.44-1.49,0.99-2.18,1.64c-0.67,0.63-1.3,1.36-1.88,2.19c-0.55,0.8-1.03,1.67-1.44,2.63 c-0.41,0.96-0.74,2-1,3.11l0,0.02c-0.26,1.15-0.44,2.38-0.55,3.7c-0.11,1.33-0.14,2.73-0.1,4.21l0,0.04 c0.08,1.83,0.29,3.46,0.65,4.9c0.36,1.44,0.87,2.69,1.53,3.74c0.63,0.99,1.41,1.82,2.36,2.49c0.95,0.67,2.07,1.18,3.37,1.54l0,0 c0.37,0.08,0.7,0.29,0.93,0.58c0.23,0.29,0.37,0.65,0.37,1.05v15.58L39.48,78.45L39.48,78.45z M77.23,24.59 c0-0.46,0.19-0.87,0.49-1.17c0.3-0.3,0.72-0.49,1.18-0.49c0.46,0,0.88,0.19,1.18,0.49c0.3,0.3,0.49,0.72,0.49,1.18v12.77 l-3.33,3.33V24.59L77.23,24.59z M83.16,24.59c0-0.46,0.19-0.87,0.49-1.17c0.3-0.3,0.72-0.49,1.18-0.49c0.46,0,0.88,0.19,1.18,0.49 c0.3,0.3,0.49,0.72,0.49,1.18v6.85l-3.33,3.33V24.59L83.16,24.59z M86.48,47.93v0.37c0,0.46-0.19,0.87-0.49,1.18 c-0.3,0.3-0.72,0.49-1.18,0.49c-0.12,0-0.23-0.01-0.34-0.04L86.48,47.93L86.48,47.93z M89.31,24.51c0.02-0.42,0.2-0.8,0.48-1.08 c0.3-0.3,0.72-0.49,1.18-0.49s0.87,0.19,1.18,0.49c0.3,0.3,0.49,0.72,0.49,1.18v0.69l-3.34,3.34V24.6 C89.29,24.57,89.3,24.54,89.31,24.51L89.31,24.51z M92.63,41.78v8.62l-0.02,0.21c-0.11,1.82-0.38,3.42-0.8,4.82 c-0.43,1.41-1.03,2.61-1.78,3.6c-0.82,1.07-1.81,1.89-2.97,2.44c-1.15,0.55-2.47,0.85-3.95,0.89c-0.46,0.01-0.88-0.16-1.19-0.45 s-0.51-0.7-0.52-1.16c-0.01-0.46,0.16-0.88,0.45-1.19c0.29-0.31,0.7-0.51,1.16-0.52c0.96-0.03,1.81-0.21,2.54-0.55 c0.72-0.34,1.33-0.83,1.83-1.48L87.39,57c0.54-0.71,0.97-1.61,1.29-2.7c0.32-1.1,0.52-2.4,0.61-3.89v-5.29L92.63,41.78L92.63,41.78 z M71.26,24.44c0.02-0.42,0.21-0.8,0.48-1.08c0.3-0.3,0.72-0.49,1.18-0.49s0.87,0.19,1.17,0.49c0.3,0.3,0.49,0.72,0.49,1.18v18.81 l-3.34,3.34V24.53C71.24,24.5,71.25,24.47,71.26,24.44L71.26,24.44z M77.08,57.33c0.29,0.21,0.61,0.37,0.95,0.48 c0.35,0.11,0.63,0.33,0.83,0.6c0.21,0.28,0.32,0.63,0.32,0.98v37.33c0,0.05,0,0.11-0.01,0.18c0.01,1.15,0.63,1.9,1.46,2.27 c0.38,0.17,0.81,0.25,1.24,0.26c0.43,0.01,0.88-0.07,1.29-0.22l0.01,0c1-0.38,1.81-1.23,1.9-2.56l0-30.22 c0-0.46,0.19-0.87,0.49-1.18c0.3-0.3,0.72-0.49,1.18-0.49c0.46,0,0.88,0.19,1.18,0.49c0.3,0.3,0.49,0.72,0.49,1.18v30.31 c0,0.06,0,0.12-0.01,0.2c-0.09,0.69-0.23,1.32-0.43,1.89c-0.2,0.58-0.46,1.1-0.78,1.56c-0.33,0.48-0.72,0.89-1.17,1.23 c-0.45,0.33-0.95,0.58-1.51,0.76c-0.09,0.04-0.19,0.07-0.29,0.09l-0.01,0c-0.1,0.02-0.21,0.03-0.32,0.03h-3.36 c-0.06,0-0.12,0-0.19-0.01c-0.76-0.08-1.44-0.28-2.03-0.58c-0.59-0.3-1.08-0.71-1.48-1.23c-0.38-0.5-0.65-1.08-0.81-1.75 c-0.16-0.66-0.21-1.4-0.15-2.22V60.49c-0.41-0.22-0.79-0.48-1.15-0.78L77.08,57.33L77.08,57.33z"/></g></svg>