<?xml version="1.0" encoding="utf-8"?><svg version="1.1" id="Layer_1" xmlns="http://www.w3.org/2000/svg" xmlns:xlink="http://www.w3.org/1999/xlink" x="0px" y="0px" viewBox="0 0 122.879 122.008" enable-background="new 0 0 122.879 122.008" xml:space="preserve"><g><path d="M29.685,94.403l-2.592-2.593L8.568,103.48c-3.009,2.088-3.81,4.737-3.286,7.086c0.338,1.516,1.197,2.949,2.364,4.08 c1.147,1.111,2.571,1.9,4.062,2.15c2.296,0.385,4.863-0.61,6.917-3.869L29.685,94.403L29.685,94.403z M80.951,22.773L23.054,80.67 l5.616,5.616c0.219,0.117,0.424,0.268,0.609,0.452l5.443,5.443l-0.005,0.005c0.174,0.175,0.321,0.371,0.436,0.582l6.287,6.287 l57.896-57.896L80.951,22.773L80.951,22.773z M33.617,97.799L22.96,115.647c-3.356,5.335-7.894,6.906-12.095,6.202 c-2.542-0.426-4.92-1.721-6.79-3.534c-1.85-1.793-3.226-4.125-3.788-6.646c-0.947-4.247,0.339-8.923,5.377-12.404l0.128-0.087 L23.71,87.893l-4.045-4.046c-0.875-0.875-1.313-2.027-1.313-3.177h0.009c0.001-1.154,0.436-2.308,1.304-3.177l58.108-58.108 l0.006,0.004l0.004-0.004c0.867-0.867,2.016-1.303,3.166-1.304c1.154-0.001,2.309,0.433,3.178,1.304l4.518,4.517l11.406-18.107 l0.086-0.129c3.482-5.038,8.156-6.324,12.404-5.377c2.521,0.563,4.854,1.938,6.646,3.788c1.813,1.869,3.109,4.247,3.533,6.789 c0.705,4.201-0.867,8.738-6.201,12.095L98.477,33.732l4.248,4.25c0.877,0.875,1.314,2.027,1.314,3.177s-0.438,2.302-1.314,3.177 l-58.107,58.109c-0.876,0.875-2.028,1.313-3.177,1.313c-1.15,0-2.302-0.438-3.177-1.313L33.617,97.799L33.617,97.799z M92.684,27.093l2.59,2.592l18.525-11.061c3.26-2.053,4.254-4.619,3.869-6.916c-0.25-1.49-1.039-2.915-2.15-4.063 c-1.131-1.166-2.564-2.026-4.08-2.364c-2.348-0.523-4.998,0.278-7.086,3.287L92.684,27.093L92.684,27.093z"/></g></svg>