<svg xmlns="http://www.w3.org/2000/svg" xmlns:xlink="http://www.w3.org/1999/xlink" viewBox="0 0 50 50"><path d="M20.90625 0C20.757813 0.0117188 20.613281 0.0351563 20.4375 0.09375C20.085938 0.210938 19.804688 0.464844 19.625 0.71875C19.445313 0.972656 19.335938 1.230469 19.21875 1.53125C18.835938 2.507813 17.878906 5.390625 17.40625 6.75C17.386719 6.800781 17.390625 6.855469 17.375 6.90625C17.363281 6.925781 17.351563 6.949219 17.34375 6.96875L13.53125 16.21875L13.46875 16.3125C13.441406 16.371094 13.421875 16.4375 13.40625 16.5L5.09375 36.53125C5.082031 36.5625 5.070313 36.59375 5.0625 36.625L0.0625 48.625C-0.0976563 49 -0.015625 49.4375 0.273438 49.726563C0.5625 50.015625 1 50.097656 1.375 49.9375L42.71875 32.84375C42.75 32.835938 42.78125 32.824219 42.8125 32.8125C43.796875 32.496094 47.25 31.304688 48.15625 31C48.738281 30.804688 49.34375 30.507813 49.71875 29.875C50.09375 29.242188 50.0625 28.417969 49.75 27.6875C48.625 25.042969 45.8125 16.691406 39.59375 10.46875C33.566406 4.441406 25.753906 1.203125 22.125 0.21875C21.722656 0.109375 21.355469 -0.03125 20.90625 0 Z M 21.21875 2C21.199219 2.023438 21.214844 2.046875 21.625 2.15625C24.863281 3.03125 32.523438 6.210938 38.1875 11.875C43.984375 17.675781 46.667969 25.558594 47.90625 28.46875C48.070313 28.855469 47.996094 28.847656 48 28.84375C48.003906 28.839844 47.890625 28.972656 47.53125 29.09375C46.574219 29.414063 43.09375 30.625 42.21875 30.90625C42.199219 30.914063 42.175781 30.925781 42.15625 30.9375C42.160156 30.9375 42.164063 30.910156 42.09375 30.71875C41.152344 28.175781 38.511719 22.011719 33.28125 16.78125C28.222656 11.722656 22.28125 9.082031 19.59375 8.0625C19.34375 7.96875 19.21875 7.898438 19.15625 7.875C19.160156 7.851563 19.207031 7.761719 19.21875 7.71875C19.265625 7.621094 19.296875 7.515625 19.3125 7.40625C19.800781 6.003906 20.800781 3.027344 21.09375 2.28125C21.15625 2.121094 21.183594 2.0625 21.21875 2 Z M 18.375 9.75C18.546875 9.820313 18.722656 9.878906 18.875 9.9375C21.402344 10.894531 27.128906 13.441406 31.875 18.1875C36.78125 23.09375 39.335938 29.054688 40.21875 31.4375C40.246094 31.507813 40.28125 31.585938 40.3125 31.65625L25.65625 37.71875C25.859375 37.179688 26 36.609375 26 36C26 33.25 23.75 31 21 31C18.25 31 16 33.25 16 36C16 37.996094 17.203125 39.699219 18.90625 40.5L2.875 47.125L6 39.59375C6.734375 40.441406 7.800781 41 9 41C11.195313 41 13 39.199219 13 37C13 34.800781 11.195313 33 9 33C8.90625 33 8.8125 33.023438 8.71875 33.03125L12.21875 24.59375C13.316406 26.046875 15.046875 27 17 27C20.300781 27 23 24.304688 23 21C23 17.695313 20.300781 15 17 15C16.726563 15 16.453125 15.027344 16.1875 15.0625 Z M 17 17C19.222656 17 21 18.777344 21 21C21 23.222656 19.222656 25 17 25C15.199219 25 13.699219 23.835938 13.1875 22.21875L15.1875 17.4375C15.730469 17.160156 16.347656 17 17 17 Z M 31 21C28.804688 21 27 22.800781 27 25C27 25.324219 27.019531 25.636719 27.09375 25.9375C25.835938 26.847656 25 28.335938 25 30C25 32.75 27.25 35 30 35C32.75 35 35 32.75 35 30C35 29.03125 34.703125 28.144531 34.21875 27.375C34.710938 26.703125 35 25.886719 35 25C35 22.800781 33.195313 21 31 21 Z M 31 23C32.117188 23 33 23.882813 33 25C33 25.308594 32.9375 25.617188 32.8125 25.875C32.007813 25.320313 31.046875 25 30 25C29.65625 25 29.324219 25.027344 29 25.09375C29 25.0625 29 25.03125 29 25C29 23.882813 29.882813 23 31 23 Z M 30 27C30.808594 27 31.523438 27.332031 32.0625 27.84375C32.136719 27.957031 32.230469 28.050781 32.34375 28.125C32.753906 28.636719 33 29.285156 33 30C33 31.667969 31.667969 33 30 33C28.332031 33 27 31.667969 27 30C27 28.882813 27.601563 27.921875 28.5 27.40625C28.699219 27.378906 28.882813 27.289063 29.03125 27.15625C29.335938 27.054688 29.660156 27 30 27 Z M 21 33C22.667969 33 24 34.332031 24 36C24 37.667969 22.667969 39 21 39C19.332031 39 18 37.667969 18 36C18 34.332031 19.332031 33 21 33 Z M 9 35C10.117188 35 11 35.882813 11 37C11 38.117188 10.117188 39 9 39C7.9375 39 7.078125 38.195313 7 37.15625L7.6875 35.5C8.039063 35.191406 8.492188 35 9 35Z"/></svg>