<svg xmlns="http://www.w3.org/2000/svg" xmlns:xlink="http://www.w3.org/1999/xlink" viewBox="0 0 50 50"><path d="M27.697266 2 A 1.0001 1.0001 0 0 0 26.919922 2.375C26.662129 2.6972412 26.319048 2.9003906 26 2.9003906C25.92222 2.9003906 25.641341 2.8253476 25.554688 2.7675781 A 1.0001 1.0001 0 0 0 24.292969 2.8925781C23.981694 3.2038529 23.722422 3.5755995 23.507812 3.9765625C23.321785 3.6696809 23.09009 3.3822823 22.804688 3.1308594C22.143642 2.4813639 21.3181 2.1121598 20.460938 2.0273438C20.243972 2.0058749 20.024664 2.0023974 19.806641 2.015625C19.15257 2.0553077 18.504738 2.2490267 17.923828 2.5878906 A 1.0001 1.0001 0 0 0 17.441406 3.6152344C17.502896 3.9841871 17.437906 4.3258114 17.220703 4.5429688C17.138553 4.6251178 16.994932 4.728806 16.785156 4.78125 A 1.0001 1.0001 0 0 0 16.035156 5.6269531C15.90904 6.6358839 16.091073 7.7862575 16.658203 8.7988281C16.622014 8.7846784 16.574851 8.7810204 16.554688 8.7675781 A 1.0001 1.0001 0 0 0 15.292969 8.8925781C14.535834 9.649713 14 10.704094 14 11.900391C14 12.826412 14.151313 13.545227 14.357422 14.101562C14.279377 14.035372 14.20571 13.955047 14.132812 13.845703 A 1.0001 1.0001 0 0 0 13.283203 13.400391 A 1.0001 1.0001 0 0 0 13.103516 13.419922C12.326942 13.575237 11.800391 14.000781 11.400391 14.300781 A 1.0001 1.0001 0 0 0 11 15.099609L11 15.300781C11 15.619829 10.831967 15.9102 10.445312 16.167969 A 1.0001 1.0001 0 0 0 10 17L10 17.300781C10 17.831773 10.099597 18.430184 10.408203 18.984375C9.5548555 19.719818 9 20.793928 9 22 A 1.0001 1.0001 0 0 0 9.0117188 22.158203L13.011719 47.158203 A 1.0001 1.0001 0 0 0 14 48L18.451172 48L22.714844 48 A 1.0001 1.0001 0 0 0 23.289062 48L31.222656 48 A 1.0001 1.0001 0 0 0 31.771484 48L36 48 A 1.0001 1.0001 0 0 0 36.988281 47.158203L40.980469 22.201172 A 1.0001 1.0001 0 0 0 40.998047 22.070312 A 1.0008634 1.0008634 0 0 0 40.980469 21.800781C40.906518 20.346781 40.048847 19.101168 38.820312 18.462891C38.947874 18.067726 39 17.66782 39 17.300781L39 17 A 1.0001 1.0001 0 0 0 38.554688 16.167969C38.168033 15.9102 38 15.619829 38 15.300781L38 15.099609 A 1.0001 1.0001 0 0 0 37.599609 14.300781C37.595729 14.297871 37.589841 14.29395 37.585938 14.291016C37.898366 13.734491 38 13.13329 38 12.599609L38 12.300781 A 1.0001 1.0001 0 0 0 37.554688 11.46875C37.168033 11.210981 37 10.918657 37 10.599609L37 10.400391 A 1.0001 1.0001 0 0 0 36.599609 9.5996094C36.199609 9.2996094 35.673058 8.8740648 34.896484 8.71875 A 1.0001 1.0001 0 0 0 34.697266 8.6992188 A 1.0001 1.0001 0 0 0 33.867188 9.1445312C33.637864 9.488516 33.414286 9.5996094 33 9.5996094 A 1.0001 1.0001 0 0 0 32.447266 8.7050781C32.244789 8.6038397 32 8.2194382 32 7.9003906L32 7.6992188 A 1.0001 1.0001 0 0 0 31.599609 6.9003906C31.416131 6.7627819 31.195913 6.5995076 30.947266 6.4472656C30.972427 6.2669881 31 6.087242 31 5.9003906L31 5.5996094 A 1.0001 1.0001 0 0 0 30.447266 4.7050781C30.244789 4.6038397 30 4.2194382 30 3.9003906L30 3.6992188 A 1.0001 1.0001 0 0 0 29.599609 2.9003906C29.199609 2.6003906 28.673058 2.1748462 27.896484 2.0195312 A 1.0001 1.0001 0 0 0 27.697266 2 z M 19.929688 4.078125C20.474933 4.0119112 21.003749 4.1424213 21.419922 4.5585938 A 1.0001 1.0001 0 0 0 21.476562 4.609375C21.816755 4.9009681 21.997502 5.3231848 22.033203 5.7167969C22.021165 5.7169983 22.012373 5.71875 22 5.71875C21.92222 5.71875 21.641341 5.643707 21.554688 5.5859375 A 1.0001 1.0001 0 0 0 20.292969 5.7109375C19.676606 6.3272999 19.223667 7.1457254 19.070312 8.0722656C19.010608 8.0563438 18.959406 8.0321155 18.896484 8.0195312 A 1.0001 1.0001 0 0 0 18.697266 8 A 1.0001 1.0001 0 0 0 18.513672 8.0175781C18.494958 7.9874007 18.441406 7.9082031 18.441406 7.9082031 A 1.0001 1.0001 0 0 0 18.433594 7.8964844C18.166307 7.4495295 18.108905 6.7959409 18.097656 6.2578125C18.265183 6.1469903 18.509801 6.0839492 18.634766 5.9589844C19.15157 5.4421795 19.323003 4.8190963 19.382812 4.2070312C19.564789 4.1447435 19.747939 4.1001963 19.929688 4.078125 z M 27.839844 4.1757812C27.923014 4.2191712 28.015055 4.2666322 28.115234 4.3339844C28.210974 4.9778248 28.515148 5.5215266 28.988281 5.9648438C28.983971 6.0966233 28.966819 6.2245795 28.941406 6.3496094 A 1.0001 1.0001 0 0 0 28.919922 6.375C28.662129 6.6972412 28.319048 6.9003906 28 6.9003906C27.92222 6.9003906 27.641341 6.8253476 27.554688 6.7675781 A 1.0001 1.0001 0 0 0 26.292969 6.8925781C26.225029 6.9605175 26.169617 7.0426204 26.105469 7.1152344C26.038701 6.9884499 26 6.8565498 26 6.71875L26 6.5175781 A 1.0001 1.0001 0 0 0 25.599609 5.71875C25.466437 5.6188709 25.292736 5.5017772 25.126953 5.3886719C25.227293 5.1673346 25.369472 4.9592592 25.509766 4.7519531C25.673795 4.7798212 25.835271 4.9003906 26 4.9003906C26.746934 4.9003906 27.336535 4.5757231 27.839844 4.1757812 z M 23.839844 6.9941406C23.926004 7.0390856 24.020511 7.0875516 24.125 7.1582031C24.237286 7.8004846 24.541644 8.3370275 24.986328 8.7734375C24.977708 9.0688171 24.921787 9.2975112 24.828125 9.4550781C24.388353 9.2250885 23.918036 9.0752793 23.433594 9.0273438C22.682018 8.9529751 21.916537 9.1050457 21.220703 9.4375C21.093553 9.1169285 21 8.8084968 21 8.71875C21 8.2836879 21.267345 7.9285292 21.509766 7.5703125C21.673795 7.5981806 21.835271 7.71875 22 7.71875C22.678214 7.71875 23.299787 7.4174798 23.839844 6.9941406 z M 29.839844 8.1757812C29.923014 8.2191713 30.015055 8.2666332 30.115234 8.3339844C30.210154 8.9722944 30.510489 9.5110398 30.976562 9.953125C30.959816 10.529915 30.722594 11.057413 30.298828 11.484375 A 1.0001 1.0001 0 0 0 29.867188 11.845703C29.637864 12.189688 29.414286 12.300781 29 12.300781C28.92222 12.300781 28.641341 12.225741 28.554688 12.167969 A 1.0001 1.0001 0 0 0 27.292969 12.292969C27.151896 12.434041 27.027969 12.595153 26.904297 12.755859C26.872339 12.520942 26.843177 12.286336 26.787109 12.046875C26.692407 11.642409 26.554091 11.234756 26.337891 10.853516 A 1.0001 1.0001 0 0 0 27 9.9003906C27 9.4653285 27.267345 9.1101698 27.509766 8.7519531C27.673795 8.7798212 27.835271 8.9003906 28 8.9003906C28.746934 8.9003906 29.336535 8.575723 29.839844 8.1757812 z M 18.839844 10.175781C19.009431 10.264251 19.150404 10.31251 19.400391 10.5 A 1.0001 1.0001 0 0 0 19.443359 10.53125C19.622766 10.894292 19.849832 11.246839 20.160156 11.568359C20.075159 11.645669 19.947147 11.733916 19.757812 11.78125 A 1.0001 1.0001 0 0 0 19.021484 12.548828C19.021484 12.548828 18.941634 12.891267 18.730469 13.210938C18.674922 13.295025 18.621242 13.369822 18.564453 13.435547 A 1.0001 1.0001 0 0 0 18.283203 13.400391 A 1.0001 1.0001 0 0 0 18.103516 13.419922C17.46156 13.548313 17.016481 13.854762 16.646484 14.128906C16.53084 13.966289 16.425201 13.837437 16.330078 13.644531C16.16708 13.313977 16 12.819597 16 11.900391C16 11.465329 16.267345 11.11017 16.509766 10.751953C16.673795 10.779823 16.835271 10.900391 17 10.900391C17.678214 10.900391 18.299787 10.59912 18.839844 10.175781 z M 34.839844 10.875C34.926004 10.91995 35.020511 10.968412 35.125 11.039062C35.237188 11.681579 35.541513 12.219712 35.986328 12.65625C35.976528 12.984058 35.916028 13.246731 35.800781 13.400391 A 1.0001 1.0001 0 0 0 35.796875 13.404297 A 1.0001 1.0001 0 0 0 35.697266 13.400391 A 1.0001 1.0001 0 0 0 34.867188 13.845703C34.637864 14.189688 34.414286 14.300781 34 14.300781C33.92222 14.300781 33.64134 14.225741 33.554688 14.167969C33.168033 13.9102 33 13.619829 33 13.300781L33 13.099609 A 1.0001 1.0001 0 0 0 32.599609 12.300781C32.523136 12.243426 32.414712 12.175095 32.328125 12.111328C32.445045 11.927582 32.557143 11.741173 32.646484 11.539062 A 1.0001 1.0001 0 0 0 33 11.599609C33.678214 11.599609 34.299787 11.298339 34.839844 10.875 z M 22.902344 11.078125C23.447589 11.011911 23.976406 11.142421 24.392578 11.558594 A 1.0001 1.0001 0 0 0 24.449219 11.609375C24.512099 11.663275 24.724732 12.020615 24.837891 12.503906C24.927844 12.888086 24.967905 13.317161 24.984375 13.701172 A 1.0001 1.0001 0 0 0 24.867188 13.845703C24.637864 14.189688 24.414286 14.300781 24 14.300781C23.92222 14.300781 23.641341 14.225741 23.554688 14.167969 A 1.0001 1.0001 0 0 0 22.292969 14.292969C22.186508 14.39943 22.096836 14.524795 22 14.642578C21.903164 14.524795 21.813492 14.39943 21.707031 14.292969 A 1.0001 1.0001 0 0 0 20.490234 14.140625C20.665332 13.832592 20.717701 13.633933 20.779297 13.421875C21.073199 13.272902 21.414536 13.151871 21.607422 12.958984C22.124227 12.44218 22.29566 11.819096 22.355469 11.207031C22.537445 11.144744 22.720595 11.100196 22.902344 11.078125 z M 30.839844 13.576172C30.926004 13.621122 31.020511 13.669582 31.125 13.740234C31.211373 14.234295 31.411548 14.665457 31.701172 15.037109C31.276511 15.686202 31 16.454836 31 17.300781C31 17.530658 31.025526 17.767284 31.066406 18.003906C31.044083 18.003525 31.022416 18 31 18C30.144722 18 29.361963 18.287474 28.712891 18.753906C28.929672 18.267008 29 17.758742 29 17.300781L29 17 A 1.0001 1.0001 0 0 0 28.554688 16.167969C28.168033 15.9102 28 15.619829 28 15.300781C28 14.865719 28.267345 14.51056 28.509766 14.152344C28.673795 14.180214 28.835271 14.300781 29 14.300781C29.678214 14.300781 30.299787 13.999511 30.839844 13.576172 z M 13.160156 15.576172C13.700213 15.999511 14.321786 16.300781 15 16.300781C15.102477 16.300781 15.204422 16.291668 15.306641 16.28125 A 1.0001 1.0001 0 0 0 15 17L15 17.300781C15 17.748961 15.069485 18.245254 15.275391 18.722656C14.627288 18.269768 13.844785 18 13 18C12.723175 18 12.452888 18.029577 12.191406 18.083984C12.081706 17.92857 12.022994 17.67584 12.013672 17.355469C12.458356 16.919059 12.762714 16.382516 12.875 15.740234C12.979489 15.669584 13.074 15.621117 13.160156 15.576172 z M 25.839844 15.576172C25.91433 15.615032 25.997918 15.662573 26.085938 15.71875 A 1.0001 1.0001 0 0 0 26.150391 15.841797C26.276264 16.437982 26.565993 16.942954 26.986328 17.355469C26.976728 17.684426 26.916288 17.945596 26.800781 18.099609 A 1.0001 1.0001 0 0 0 26.720703 18.222656C26.720703 18.222656 26.663591 18.308155 26.628906 18.363281C26.131541 18.133931 25.58184 18 25 18C24.395804 18 23.824639 18.140595 23.3125 18.386719C23.124811 18.041258 23 17.646486 23 17.300781C23 16.865719 23.267345 16.51056 23.509766 16.152344C23.673795 16.180214 23.835271 16.300781 24 16.300781C24.678214 16.300781 25.299787 15.999511 25.839844 15.576172 z M 35.839844 15.576172C35.926004 15.621122 36.020511 15.669582 36.125 15.740234C36.237286 16.382516 36.541644 16.919059 36.986328 17.355469C36.978135 17.636205 36.924719 17.85224 36.839844 18.009766C35.708321 18.056388 34.701953 18.584254 34 19.388672C33.992416 19.379981 33.982264 19.373862 33.974609 19.365234 A 1.0005381 1.0005381 0 0 0 33.681641 18.849609C33.37054 18.559912 33 17.484115 33 17.300781C33 16.874859 33.257867 16.526382 33.496094 16.175781 A 1.0001 1.0001 0 0 0 33.525391 16.158203C33.683967 16.190753 33.840593 16.300781 34 16.300781C34.678214 16.300781 35.299787 15.999511 35.839844 15.576172 z M 18.294922 15.669922C18.803492 16.040154 19.376268 16.300781 20 16.300781C20.164729 16.300781 20.326205 16.180212 20.490234 16.152344C20.732657 16.51056 21 16.865719 21 17.300781C21 17.646486 20.875189 18.041258 20.6875 18.386719C20.175361 18.140594 19.604196 18 19 18C18.418934 18 17.868972 18.133294 17.369141 18.359375C17.335794 18.306679 17.279297 18.222656 17.279297 18.222656 A 1.0001 1.0001 0 0 0 17.199219 18.099609C17.083709 17.945596 17.023244 17.684426 17.013672 17.355469C17.458356 16.919059 17.762714 16.382516 17.875 15.740234C17.903623 15.720881 17.925966 15.71172 17.953125 15.695312C18.06977 15.692357 18.184597 15.686032 18.294922 15.669922 z M 13 20C14.116666 20 15 20.883334 15 22 A 1.0001 1.0001 0 1 0 17 22C17 21.34457 17.309907 20.775329 17.787109 20.412109 A 1.0007361 1.0007361 0 0 0 17.894531 20.328125C18.210116 20.120774 18.588533 20 19 20C20.116666 20 21 20.883334 21 22 A 1.0001 1.0001 0 0 0 21.916016 23.009766 A 1.0001 1.0001 0 0 0 22.015625 23.013672 A 1.0001 1.0001 0 0 0 23 22C23 20.883334 23.883334 20 25 20C25.40356 20 25.774009 20.1183 26.085938 20.318359 A 1.0001 1.0001 0 0 0 26.234375 20.429688C26.698922 20.793708 27 21.35469 27 22 A 1.0001 1.0001 0 0 0 27.916016 23.009766 A 1.0001 1.0001 0 0 0 28.015625 23.013672 A 1.0001 1.0001 0 0 0 29 22C29 20.883334 29.883334 20 31 20C32.116666 20 33 20.883334 33 22 A 1.0001 1.0001 0 0 0 33.916016 23.009766 A 1.0001 1.0001 0 0 0 34.015625 23.013672 A 1.0001 1.0001 0 0 0 35 22C35 20.883334 35.883334 20 37 20C38.098529 20 38.96608 20.856362 38.994141 21.947266L35.146484 46L32.605469 46L34.630859 26.101562 A 1.0001 1.0001 0 0 0 33.623047 24.986328 A 1.0001 1.0001 0 0 0 32.640625 25.898438L30.597656 46L28.041016 46L28.816406 26.039062 A 1.0001 1.0001 0 0 0 27.841797 24.986328 A 1.0001 1.0001 0 0 0 26.818359 25.960938L26.037109 46L23.953125 46L22.998047 25.953125 A 1.0001 1.0001 0 0 0 22.037109 24.986328 A 1.0001 1.0001 0 0 0 21.001953 26.046875L21.951172 46L19.316406 46L17.175781 25.894531 A 1.0001 1.0001 0 0 0 16.160156 24.986328 A 1.0001 1.0001 0 0 0 15.1875 26.105469L17.304688 46L14.853516 46L11.009766 21.976562C11.024233 20.873023 11.892583 20 13 20 z"/></svg>