<svg xmlns="http://www.w3.org/2000/svg" xmlns:xlink="http://www.w3.org/1999/xlink" viewBox="0 0 50 50"><path d="M27.697266 2 A 1.0001 1.0001 0 0 0 26.919922 2.375C26.662129 2.6972412 26.319048 2.9003906 26 2.9003906C25.92222 2.9003906 25.641341 2.8253476 25.554688 2.7675781 A 1.0001 1.0001 0 0 0 24.292969 2.8925781C23.981305 3.2042418 23.722542 3.576953 23.507812 3.9785156C23.320006 3.6715688 23.090432 3.3825832 22.804688 3.1308594C22.143642 2.4813639 21.3181 2.1121599 20.460938 2.0273438C19.593076 1.9414688 18.698374 2.1360721 17.923828 2.5878906 A 1.0001 1.0001 0 0 0 17.441406 3.6152344C17.502896 3.9841871 17.437906 4.3258115 17.220703 4.5429688C17.138553 4.6251178 16.994932 4.728806 16.785156 4.78125 A 1.0001 1.0001 0 0 0 16.035156 5.6269531C15.90904 6.6358839 16.091073 7.7862575 16.658203 8.7988281C16.622014 8.7846784 16.574851 8.7810204 16.554688 8.7675781 A 1.0001 1.0001 0 0 0 15.292969 8.8925781C14.535834 9.649713 14 10.704094 14 11.900391C14 12.816264 14.148937 13.530085 14.351562 14.083984C14.271641 14.018497 14.197935 13.943229 14.132812 13.845703C13.906812 13.509703 13.504469 13.335922 13.105469 13.419922C12.384469 13.563922 11.863391 13.952828 11.400391 14.298828C11.147391 14.487828 11 14.783609 11 15.099609L11 15.300781C11 15.733781 10.651359 16.029969 10.443359 16.167969C10.166359 16.353969 10 16.666 10 17L10 17.300781C10 17.471781 10.01325 17.633969 10.03125 17.792969C10.74525 17.384969 11.54925 17.114297 12.40625 17.029297C12.72225 16.608297 12.921469 16.130047 12.980469 15.623047C12.996469 15.612047 13.012297 15.60375 13.029297 15.59375C13.565297 16.05475 14.242 16.300781 15 16.300781C15.106 16.300781 15.212312 16.288391 15.320312 16.275391C15.120313 16.462391 15 16.721 15 17L15 17.300781C15 17.322781 15.003906 17.343234 15.003906 17.365234C15.346906 17.489234 15.684 17.632359 16 17.818359C16.367 17.603359 16.759109 17.440594 17.162109 17.308594C17.599733 16.845001 17.882599 16.291143 17.96875 15.695312C18.036266 15.693238 18.106472 15.696043 18.171875 15.689453C18.855692 16.211983 19.758339 16.449166 20.6875 16.212891C20.8915 16.552891 21 16.925781 21 17.300781C21 17.319781 20.990234 17.340375 20.990234 17.359375C21.338234 17.484375 21.68 17.631359 22 17.818359C22.32 17.630359 22.661766 17.484375 23.009766 17.359375C23.009766 17.339375 23 17.319781 23 17.300781C23 16.925781 23.1075 16.551937 23.3125 16.210938C24.3035 16.461938 25.275703 16.19075 25.970703 15.59375C25.987703 15.60375 26.003531 15.613047 26.019531 15.623047C26.092531 16.247047 26.382891 16.824641 26.837891 17.306641C27.240891 17.438641 27.633953 17.603359 28.001953 17.818359C28.317953 17.633359 28.653094 17.488281 28.996094 17.363281C28.996094 17.341281 29.001953 17.321828 29.001953 17.298828L29.001953 17C29.001953 16.666 28.833641 16.353969 28.556641 16.167969C28.347641 16.029969 28 15.732781 28 15.300781C28 14.865719 28.267345 14.51056 28.509766 14.152344C28.673795 14.180214 28.835271 14.300781 29 14.300781C29.678214 14.300781 30.299787 13.999511 30.839844 13.576172C30.926004 13.621122 31.020511 13.669582 31.125 13.740234C31.211708 14.236207 31.413635 14.668397 31.705078 15.041016C31.318742 15.641427 31.083421 16.308432 31.03125 17.001953C31.71325 17.005953 32.378766 17.138188 33.009766 17.367188C33.007766 17.347188 33 17.318781 33 17.300781C33 16.945019 33.104049 16.592171 33.289062 16.265625 A 1.0001 1.0001 0 0 0 33.402344 16.222656C34.361745 16.43523 35.296912 16.172532 35.970703 15.59375C35.987703 15.60375 36.003531 15.613047 36.019531 15.623047C36.078531 16.129047 36.27875 16.607344 36.59375 17.027344C36.72875 17.017344 36.863 17 37 17C37.701 17 38.370094 17.127609 38.996094 17.349609C38.996094 17.332609 39 17.317781 39 17.300781L39 17C39 16.666 38.833641 16.353969 38.556641 16.167969C38.348641 16.029969 38 15.732781 38 15.300781L38 15.099609C38 14.784609 37.849656 14.485875 37.597656 14.296875C37.594512 14.294524 37.59104 14.291418 37.587891 14.289062C37.899262 13.733181 38 13.132548 38 12.599609L38 12.300781 A 1.0001 1.0001 0 0 0 37.554688 11.46875C37.168033 11.210981 37 10.918657 37 10.599609L37 10.400391 A 1.0001 1.0001 0 0 0 36.599609 9.5996094C36.199609 9.2996094 35.673058 8.8740648 34.896484 8.71875 A 1.0001 1.0001 0 0 0 34.697266 8.6992188 A 1.0001 1.0001 0 0 0 33.867188 9.1445312C33.637864 9.4885159 33.414286 9.5996094 33 9.5996094 A 1.0001 1.0001 0 0 0 32.447266 8.7050781C32.244789 8.6038397 32 8.2194382 32 7.9003906L32 7.6992188 A 1.0001 1.0001 0 0 0 31.599609 6.9003906C31.416131 6.7627819 31.195913 6.5995076 30.947266 6.4472656C30.972427 6.2669881 31 6.087242 31 5.9003906L31 5.5996094 A 1.0001 1.0001 0 0 0 30.447266 4.7050781C30.244789 4.6038397 30 4.2194382 30 3.9003906L30 3.6992188 A 1.0001 1.0001 0 0 0 29.599609 2.9003906C29.199609 2.6003906 28.673058 2.1748462 27.896484 2.0195312 A 1.0001 1.0001 0 0 0 27.697266 2 z M 19.929688 4.078125C20.474932 4.0119112 21.003749 4.1424213 21.419922 4.5585938 A 1.0001 1.0001 0 0 0 21.476562 4.609375C21.816755 4.9009681 21.997502 5.3231848 22.033203 5.7167969C22.021165 5.7169983 22.012373 5.71875 22 5.71875C21.92222 5.71875 21.641341 5.643707 21.554688 5.5859375 A 1.0001 1.0001 0 0 0 20.292969 5.7109375C19.676606 6.3272999 19.223667 7.1457254 19.070312 8.0722656C19.010608 8.0563438 18.959406 8.0321155 18.896484 8.0195312 A 1.0001 1.0001 0 0 0 18.697266 8 A 1.0001 1.0001 0 0 0 18.513672 8.0175781C18.494958 7.9874007 18.441406 7.9082031 18.441406 7.9082031 A 1.0001 1.0001 0 0 0 18.433594 7.8964844C18.166307 7.4495295 18.108905 6.7959409 18.097656 6.2578125C18.265183 6.1469903 18.509801 6.0839492 18.634766 5.9589844C19.15157 5.4421795 19.323003 4.8190963 19.382812 4.2070312C19.564789 4.1447435 19.747939 4.1001963 19.929688 4.078125 z M 27.839844 4.1757812C27.923014 4.2191712 28.015055 4.2666322 28.115234 4.3339844C28.210974 4.9778248 28.515148 5.5215266 28.988281 5.9648438C28.983971 6.0966233 28.966819 6.2245795 28.941406 6.3496094 A 1.0001 1.0001 0 0 0 28.919922 6.375C28.662129 6.6972412 28.319048 6.9003906 28 6.9003906C27.92222 6.9003906 27.641341 6.8253476 27.554688 6.7675781 A 1.0001 1.0001 0 0 0 26.292969 6.8925781C26.225029 6.9605175 26.169617 7.0426204 26.105469 7.1152344C26.038701 6.9884499 26 6.8565498 26 6.71875L26 6.5175781 A 1.0001 1.0001 0 0 0 25.599609 5.71875C25.466437 5.6188709 25.292736 5.5017772 25.126953 5.3886719C25.227293 5.1673346 25.369472 4.9592592 25.509766 4.7519531C25.673795 4.7798212 25.835271 4.9003906 26 4.9003906C26.746934 4.9003906 27.336535 4.5757231 27.839844 4.1757812 z M 23.839844 6.9941406C23.926004 7.0390856 24.020511 7.0875516 24.125 7.1582031C24.237286 7.8004846 24.541644 8.3370275 24.986328 8.7734375C24.977708 9.0688171 24.921787 9.2975112 24.828125 9.4550781C24.388353 9.2250885 23.918036 9.0752793 23.433594 9.0273438C22.682014 8.9529747 21.915117 9.1004119 21.21875 9.4316406C21.093272 9.1139911 21 8.8077598 21 8.71875C21 8.2836879 21.267345 7.9285292 21.509766 7.5703125C21.673795 7.5981806 21.835271 7.71875 22 7.71875C22.678214 7.71875 23.299787 7.4174798 23.839844 6.9941406 z M 29.839844 8.1757812C29.923014 8.2191713 30.015055 8.2666332 30.115234 8.3339844C30.210154 8.9722944 30.510489 9.5110398 30.976562 9.953125C30.959815 10.529915 30.722594 11.057414 30.298828 11.484375 A 1.0001 1.0001 0 0 0 29.867188 11.845703C29.637864 12.189688 29.414286 12.300781 29 12.300781C28.92222 12.300781 28.641341 12.225741 28.554688 12.167969 A 1.0001 1.0001 0 0 0 27.292969 12.292969C27.151896 12.434041 27.027969 12.595153 26.904297 12.755859C26.872339 12.520942 26.843177 12.286336 26.787109 12.046875C26.692407 11.642409 26.554091 11.234756 26.337891 10.853516 A 1.0001 1.0001 0 0 0 27 9.9003906C27 9.4653285 27.267345 9.1101698 27.509766 8.7519531C27.673795 8.7798212 27.835271 8.9003906 28 8.9003906C28.746934 8.9003906 29.336535 8.575723 29.839844 8.1757812 z M 18.839844 10.175781C19.009431 10.264251 19.150404 10.31251 19.400391 10.5 A 1.0001 1.0001 0 0 0 19.443359 10.53125C19.622766 10.894292 19.849832 11.246839 20.160156 11.568359C20.075159 11.645669 19.947147 11.733916 19.757812 11.78125 A 1.0001 1.0001 0 0 0 19.021484 12.548828C19.021484 12.548828 18.941634 12.891268 18.730469 13.210938C18.672488 13.29871 18.616314 13.37569 18.556641 13.443359C18.41166 13.404265 18.260371 13.387392 18.105469 13.419922C17.504297 13.539591 17.05138 13.834677 16.646484 14.128906C16.53084 13.966289 16.425201 13.837437 16.330078 13.644531C16.16708 13.313977 16 12.819597 16 11.900391C16 11.465329 16.267345 11.11017 16.509766 10.751953C16.673795 10.779823 16.835271 10.900391 17 10.900391C17.678214 10.900391 18.299787 10.59912 18.839844 10.175781 z M 34.839844 10.875C34.926004 10.91995 35.020511 10.968411 35.125 11.039062C35.237188 11.681579 35.541513 12.219712 35.986328 12.65625C35.976528 12.984058 35.916028 13.246731 35.800781 13.400391 A 1.0001 1.0001 0 0 0 35.791016 13.414062C35.425278 13.377539 35.07338 13.539345 34.869141 13.845703C34.661141 14.155703 34.386 14.300781 34 14.300781C33.881 14.300781 33.677641 14.249969 33.556641 14.167969C33.556129 14.16763 33.5552 14.168307 33.554688 14.167969C33.553858 14.167415 33.553562 14.166569 33.552734 14.166016C33.167847 13.90866 33 13.619144 33 13.300781L33 13.099609 A 1.0001 1.0001 0 0 0 32.599609 12.300781C32.523136 12.243426 32.414712 12.175095 32.328125 12.111328C32.445045 11.927582 32.557143 11.741173 32.646484 11.539062 A 1.0001 1.0001 0 0 0 33 11.599609C33.678214 11.599609 34.299787 11.298339 34.839844 10.875 z M 22.902344 11.078125C23.447589 11.011911 23.976406 11.142421 24.392578 11.558594 A 1.0001 1.0001 0 0 0 24.449219 11.609375C24.512099 11.663275 24.724732 12.020615 24.837891 12.503906C24.929054 12.893254 24.968579 13.329304 24.984375 13.716797C24.944731 13.7585 24.901852 13.796854 24.869141 13.845703C24.661141 14.155703 24.386 14.300781 24 14.300781C23.881 14.300781 23.677641 14.249969 23.556641 14.167969C23.159641 13.904969 22.630969 13.954969 22.292969 14.292969C22.182969 14.402969 22.097 14.526531 22 14.644531C21.903 14.526531 21.817031 14.402969 21.707031 14.292969C21.37989 13.965827 20.877293 13.914433 20.484375 14.150391C20.66522 13.835436 20.716983 13.636404 20.779297 13.421875C21.073199 13.272902 21.414536 13.151871 21.607422 12.958984C22.124227 12.44218 22.29566 11.819096 22.355469 11.207031C22.537445 11.144744 22.720595 11.100196 22.902344 11.078125 z M 13 19C10.794 19 9 20.794 9 23C9 23.053 9.0046719 23.105203 9.0136719 23.158203L13.013672 47.158203C13.090672 47.644203 13.509 48 14 48L36 48C36.491 48 36.909328 47.644203 36.986328 47.158203L40.986328 23.158203C40.990328 23.131203 40.982375 23.105125 40.984375 23.078125C40.986375 23.051125 41 23.028 41 23C41 20.794 39.206 19 37 19C35.799 19 34.734 19.542812 34 20.382812C33.266 19.542813 32.201 19 31 19C29.799 19 28.734 19.542812 28 20.382812C27.266 19.542813 26.201 19 25 19C23.799 19 22.734 19.542812 22 20.382812C21.266 19.542813 20.201 19 19 19C17.799 19 16.734 19.542812 16 20.382812C15.266 19.542813 14.201 19 13 19 z M 20.951172 25.001953C21.490172 24.965953 21.972047 25.398172 21.998047 25.951172L23.601562 46L21.597656 46L20.001953 26.048828C19.975953 25.496828 20.399172 25.027953 20.951172 25.001953 z M 28.857422 25.001953C29.409422 25.022953 29.839359 25.487063 29.818359 26.039062L28.609375 46L26.609375 46L27.820312 25.960938C27.841313 25.408938 28.313422 24.983953 28.857422 25.001953 z M 34.738281 25.003906C35.287281 25.060906 35.687813 25.551563 35.632812 26.101562L33.607422 46L31.595703 46L33.640625 25.898438C33.697625 25.349438 34.171281 24.963906 34.738281 25.003906 z M 15.076172 25.005859C15.617172 24.944859 16.116781 25.345531 16.175781 25.894531L18.316406 46L16.304688 46L14.1875 26.105469C14.1285 25.556469 14.526172 25.064859 15.076172 25.005859 z"/></svg>