<svg id="Layer_1" enable-background="new 0 0 512 512" height="512" viewBox="0 0 512 512" width="512" xmlns="http://www.w3.org/2000/svg"><g><path d="m496 160h-56.242c-3.844-65.944-54.886-119.416-119.758-127.054v-16.946c0-8.836-7.163-16-16-16s-16 7.164-16 16v16.946c-64.872 7.638-115.914 61.11-119.758 127.054h-45.844l-27.777-62.498c-2.568-5.778-8.298-9.502-14.621-9.502h-64c-8.837 0-16 7.164-16 16s7.163 16 16 16h53.602l26.398 59.396v136.604c0 8.836 7.163 16 16 16 7.199 0 11.773 1.2 16 3.229v83.523c-31.188-11.061-64 12.221-64 45.248 0 26.467 21.532 48 48 48s48-21.533 48-48v-64h288v18.752c-31.188-11.061-64 12.221-64 45.248 0 26.467 21.532 48 48 48s48-21.533 48-48v-128.771c4.227-2.029 8.801-3.229 16-3.229 8.837 0 16-7.164 16-16v-140c0-8.836-7.163-16-16-16zm-192-96c54.654 0 99.597 42.378 103.695 96h-207.39c4.098-53.622 49.041-96 103.695-96zm-192 416c-8.822 0-16-7.178-16-16s7.178-16 16-16 16 7.178 16 16-7.178 16-16 16zm48-112v-17.62c4.624 1.001 9.882 1.62 16 1.62 20.591 0 31.619-6.894 40.481-12.434 7.289-4.557 12.104-7.566 23.509-7.566 11.411 0 16.229 3.011 23.521 7.568 8.861 5.539 19.89 12.432 40.479 12.432s31.618-6.893 40.479-12.432c7.292-4.557 12.109-7.568 23.521-7.568s16.229 3.01 23.521 7.567c8.863 5.539 19.894 12.433 40.489 12.433 6.118 0 11.376-.619 16-1.62v17.62zm272 112c-8.822 0-16-7.178-16-16s7.178-16 16-16 16 7.178 16 16-7.178 16-16 16zm48-178.394c-23.955 5.179-26.413 18.394-48 18.394-11.418 0-16.237-3.011-23.531-7.57-8.862-5.538-19.892-12.43-40.479-12.43-20.589 0-31.618 6.893-40.479 12.432-7.292 4.557-12.109 7.568-23.521 7.568s-16.229-3.011-23.521-7.568c-8.861-5.539-19.89-12.432-40.479-12.432-20.583 0-31.61 6.893-40.471 12.432-7.29 4.557-12.107 7.568-23.519 7.568-21.518 0-24.06-13.218-48-18.394v-53.606h320c8.837 0 16-7.164 16-16s-7.163-16-16-16h-320v-24h352z"/></g></svg>