<svg xmlns="http://www.w3.org/2000/svg" xmlns:xlink="http://www.w3.org/1999/xlink" viewBox="0 0 50 50"><path d="M33.3125 0C33.117188 0.0234375 32.9375 0.0820313 32.75 0.15625L7.34375 10.46875C6.703125 10.726563 6.246094 11.285156 6.125 11.96875L2.03125 35.25C1.980469 35.527344 1.996094 35.796875 2.0625 36.0625C2.066406 36.070313 2.058594 36.085938 2.0625 36.09375C2.097656 36.222656 2.15625 36.347656 2.21875 36.46875C2.234375 36.5 2.234375 36.535156 2.25 36.5625C2.339844 36.71875 2.460938 36.867188 2.59375 37C2.65625 37.074219 2.730469 37.136719 2.8125 37.1875L7.09375 41.5C7.339844 40.898438 7.589844 40.304688 7.71875 40.0625C8.152344 39.261719 8.945313 38.910156 9.5625 38.625C9.882813 38.476563 10.183594 38.351563 10.375 38.1875C10.59375 37.992188 10.898438 36.980469 11.125 36.25C11.695313 34.402344 12.453125 31.875 14.4375 30.34375C15.027344 29.890625 15.714844 29.507813 16.375 29.15625C17.066406 28.789063 17.734375 28.441406 18.21875 28.03125C19.535156 26.90625 20.085938 25.367188 20.6875 23.71875C21.332031 21.953125 22.007813 20.125 23.625 18.65625C24.648438 17.726563 25.878906 17.195313 27.0625 16.6875C28.027344 16.273438 28.945313 15.894531 29.6875 15.3125C30.351563 14.792969 30.886719 14.101563 31.46875 13.375C32.199219 12.464844 32.953125 11.507813 34 10.8125C34.308594 10.609375 34.640625 10.460938 34.96875 10.28125C35.523438 9.984375 36.039063 9.703125 36.34375 9.3125C36.667969 8.898438 36.789063 8.300781 36.9375 7.625C37.058594 7.078125 37.1875 6.496094 37.4375 5.9375C37.527344 5.679688 37.855469 4.917969 38.59375 4.21875L35.0625 0.6875C35.023438 0.652344 34.980469 0.621094 34.9375 0.59375C34.652344 0.308594 34.289063 0.109375 33.90625 0.03125C33.714844 -0.0078125 33.507813 -0.0234375 33.3125 0 Z M 31.53125 2.8125L4.3125 33.8125L8.09375 12.3125 Z M 40 5.625C39.492188 6.078125 39.347656 6.585938 39.34375 6.59375L39.28125 6.75C39.105469 7.128906 39.015625 7.582031 38.90625 8.0625C38.730469 8.859375 38.539063 9.761719 37.9375 10.53125C37.375 11.253906 36.582031 11.667969 35.90625 12.03125C35.632813 12.179688 35.382813 12.328125 35.125 12.5C34.335938 13.023438 33.691406 13.796875 33.03125 14.625C32.402344 15.410156 31.753906 16.214844 30.90625 16.875C29.957031 17.617188 28.882813 18.085938 27.84375 18.53125C26.765625 18.992188 25.742188 19.421875 24.96875 20.125C23.714844 21.265625 23.152344 22.796875 22.5625 24.40625C21.898438 26.222656 21.21875 28.097656 19.5 29.5625C18.851563 30.117188 18.070313 30.535156 17.3125 30.9375C16.699219 31.261719 16.140625 31.554688 15.6875 31.90625C14.203125 33.054688 13.550781 35.164063 13.03125 36.84375C12.636719 38.121094 12.328125 39.128906 11.6875 39.6875C11.28125 40.042969 10.789063 40.246094 10.375 40.4375C9.972656 40.621094 9.613281 40.789063 9.5 41C9.378906 41.226563 9.003906 42.160156 8.65625 43.03125L11.34375 45.71875L11.4375 45.28125C12.621094 40.839844 14.53125 39.914063 16.375 39C17.671875 38.355469 18.996094 37.699219 20.53125 35.5C20.695313 35.246094 21.058594 34.152344 21.3125 33.375C21.914063 31.519531 22.667969 29.214844 23.78125 27.8125C24.707031 26.648438 26.890625 24.957031 29.65625 22.875C30.628906 22.144531 31.542969 21.476563 32.03125 21.0625C33.320313 19.964844 34.074219 18.675781 34.9375 17.1875C36.425781 14.625 38.117188 11.710938 42.9375 9.28125L43.09375 9.21875L43.46875 9.0625 Z M 22 8C21.449219 8 21 8.449219 21 9C21 9.550781 21.449219 10 22 10C22.550781 10 23 9.550781 23 9C23 8.449219 22.550781 8 22 8 Z M 16 11C15.449219 11 15 11.449219 15 12C15 12.550781 15.449219 13 16 13C16.550781 13 17 12.550781 17 12C17 11.449219 16.550781 11 16 11 Z M 45.84375 11.4375L44.1875 12C40.226563 14.019531 38.925781 16.289063 37.53125 18.6875C36.613281 20.269531 35.652344 21.914063 33.96875 23.34375C33.410156 23.816406 32.492188 24.488281 31.4375 25.28125C29.617188 26.652344 26.886719 28.734375 26.125 29.6875C25.347656 30.667969 24.65625 32.773438 24.15625 34.3125C23.679688 35.78125 23.394531 36.625 23 37.1875C21.023438 40.019531 19.171875 40.953125 17.6875 41.6875C16.109375 42.46875 15.15625 42.929688 14.34375 45.96875L13.90625 48.25L15.09375 49.40625C15.472656 49.78125 15.96875 50 16.5 50C16.523438 50 16.539063 50 16.5625 50C17.117188 49.980469 17.667969 49.730469 18.03125 49.3125L47.5 15.71875C48.199219 14.921875 48.15625 13.746094 47.40625 13 Z M 11 14C10.449219 14 10 14.449219 10 15C10 15.550781 10.449219 16 11 16C11.550781 16 12 15.550781 12 15C12 14.449219 11.550781 14 11 14 Z M 15 16C14.449219 16 14 16.449219 14 17C14 17.550781 14.449219 18 15 18C15.550781 18 16 17.550781 16 17C16 16.449219 15.550781 16 15 16 Z M 9 22C8.449219 22 8 22.449219 8 23C8 23.550781 8.449219 24 9 24C9.550781 24 10 23.550781 10 23C10 22.449219 9.550781 22 9 22Z"/></svg>