<svg xmlns="http://www.w3.org/2000/svg" xmlns:xlink="http://www.w3.org/1999/xlink" viewBox="0 0 50 50"><path d="M36.890625 2.007813L27.890625 3.007813C27.472656 3.050781 27.128906 3.351563 27.03125 3.757813L24.488281 14L15 14C12.792969 14 11 15.792969 11 18C11 18.550781 11.445313 19 12 19L38 19C38.554688 19 39 18.550781 39 18C39 15.792969 37.207031 14 35 14L26.550781 14L28.800781 4.914063L37.109375 3.992188 Z M 13.207031 21L16.003906 47.105469C16.0625 47.613281 16.488281 48 17 48L33 48C33.511719 48 33.9375 47.613281 33.996094 47.105469L36.792969 21Z"/></svg>