<svg xmlns="http://www.w3.org/2000/svg" xmlns:xlink="http://www.w3.org/1999/xlink" viewBox="0 0 50 50"><path d="M36.890625 2.007813L27.890625 3.007813C27.472656 3.050781 27.128906 3.351563 27.03125 3.757813L24.488281 14L15 14C12.800781 14 11 15.800781 11 18L11 19C11 19.550781 11.449219 20 12 20L13.101563 20L16.003906 47.109375C16.0625 47.613281 16.488281 48 17 48L33 48C33.511719 48 33.9375 47.613281 33.996094 47.109375L36.898438 20L38 20C38.550781 20 39 19.550781 39 19L39 18C39 15.800781 37.199219 14 35 14L26.550781 14L28.800781 4.914063L37.109375 3.992188 Z M 15 16L35 16C36.117188 16 37 16.882813 37 18L13 18C13 16.882813 13.882813 16 15 16 Z M 15.113281 20L34.886719 20L32.101563 46L17.898438 46Z"/></svg>