<svg xmlns="http://www.w3.org/2000/svg" xmlns:xlink="http://www.w3.org/1999/xlink" viewBox="0 0 50 50"><path d="M11.003906 3.9863281 A 1.0001 1.0001 0 0 0 10.048828 4.6894531L9.4101562 6.6503906C8.6545081 8.9644197 8.910072 11.627244 10.162109 13.546875C10.988072 14.813244 11.247852 17.014498 10.6875 18.730469L10.048828 20.689453 A 1.0005836 1.0005836 0 1 0 11.951172 21.310547L12.589844 19.349609C13.345492 17.03558 13.089928 14.372756 11.837891 12.453125C11.011928 11.186756 10.752148 8.9855023 11.3125 7.2695312L11.951172 5.3105469 A 1.0001 1.0001 0 0 0 11.003906 3.9863281 z M 18.003906 3.9863281 A 1.0001 1.0001 0 0 0 17.048828 4.6894531L16.410156 6.6503906C15.654508 8.9644197 15.910072 11.627244 17.162109 13.546875C17.988072 14.813244 18.247852 17.014498 17.6875 18.730469L17.048828 20.689453 A 1.0005836 1.0005836 0 1 0 18.951172 21.310547L19.589844 19.349609C20.345492 17.03558 20.089928 14.372756 18.837891 12.453125C18.011928 11.186756 17.752148 8.9855023 18.3125 7.2695312L18.951172 5.3105469 A 1.0001 1.0001 0 0 0 18.003906 3.9863281 z M 25.003906 3.9863281 A 1.0001 1.0001 0 0 0 24.048828 4.6894531L23.410156 6.6503906C22.654508 8.9644197 22.910072 11.627244 24.162109 13.546875C24.988072 14.813244 25.247852 17.014498 24.6875 18.730469L24.048828 20.689453 A 1.0005836 1.0005836 0 1 0 25.951172 21.310547L26.589844 19.349609C27.345492 17.03558 27.089928 14.372756 25.837891 12.453125C25.011928 11.186756 24.752148 8.9855023 25.3125 7.2695312L25.951172 5.3105469 A 1.0001 1.0001 0 0 0 25.003906 3.9863281 z M 43.947266 9.9980469C43.739953 9.9964219 43.529062 10.015391 43.320312 10.056641C42.504312 10.215641 41.80475 10.680141 41.34375 11.369141L30.871094 24L36.722656 24L46.253906 15.089844C46.288906 15.056844 46.321562 15.020422 46.351562 14.982422C46.873562 14.310422 47.091797 13.476766 46.966797 12.634766C46.841797 11.792766 46.388359 11.057406 45.693359 10.566406C45.172109 10.198156 44.569203 10.002922 43.947266 9.9980469 z M 4 26C3.448 26 3 26.448 3 27L3 30C3 39.7 13.616 47 20.5 47L29.5 47C36.384 47 47 39.7 47 30L47 27C47 26.448 46.552 26 46 26L4 26 z M 5 30L41 30C41.552 30 42 30.448 42 31C42 31.552 41.552 32 41 32L5.203125 32C5.084125 31.344 5 30.68 5 30 z"/></svg>