<svg xmlns="http://www.w3.org/2000/svg" xmlns:xlink="http://www.w3.org/1999/xlink" viewBox="0 0 50 50"><path d="M34 1.9160156C32.297889 1.9160156 30.916016 3.2989618 30.916016 5L30.916016 7 A 1.0836084 1.0836084 0 0 0 31.957031 8.0820312C31.751859 11.149643 30.706939 13.539746 29.585938 16.074219C28.335933 18.900354 27 21.912752 27 25.957031C27 31.92836 29 35.594576 29 38C29 39.153708 28.569565 40.318323 28.078125 41.482422C27.586685 42.646521 27 43.782898 27 45.087891C27 46.354201 27.726565 47.269726 28.416016 47.640625C29.105466 48.011524 29.777344 48 29.777344 48L43.222656 48C43.222656 48 43.894534 48.01152 44.583984 47.640625C45.273435 47.269726 46 46.354201 46 45.087891C46 43.782898 45.413315 42.646521 44.921875 41.482422C44.430435 40.318323 44 39.153708 44 38C44 35.595738 46 31.92836 46 25.957031C46 21.912752 44.664067 18.900354 43.414062 16.074219C42.293061 13.539746 41.248141 11.149643 41.042969 8.0820312 A 1.0836084 1.0836084 0 0 0 42.083984 7L42.083984 5C42.083984 3.2989618 40.702111 1.9160156 39 1.9160156L34 1.9160156 z M 34 4.0839844L39 4.0839844C39.411889 4.0839844 39.916016 4.5890382 39.916016 5L39.916016 5.9160156L33.083984 5.9160156L33.083984 5C33.083984 4.5890382 33.588111 4.0839844 34 4.0839844 z M 16.960938 8C8.8522837 8 4.0800137 13.445586 4.0078125 19.162109 A 1.0001 1.0001 0 0 0 4 19.292969 A 1.0001 1.0001 0 0 0 4.0039062 19.396484C4.0169035 22.175545 4.6698992 28.047434 5.3222656 33.376953C5.9787763 38.740329 6.6319294 43.424534 6.6367188 43.458984C6.843254 45.515245 8.4626833 47.191971 10.554688 47.587891 A 1.0001 1.0001 0 0 0 10.578125 47.591797C11.24157 47.701331 12.591836 47.781782 14.117188 47.861328C15.612445 47.939311 17.139852 47.995775 17.998047 47.998047C17.999341 47.99805 18.002615 47.998044 18.003906 47.998047 A 1.0001 1.0001 0 0 0 18.076172 48C20.077328 48 22.353424 47.773261 23.613281 47.505859C23.613281 47.505859 23.615234 47.505859 23.615234 47.505859C24.369731 47.355412 25.051896 47.02409 25.621094 46.572266 A 1.0001 1.0001 0 1 0 24.378906 45.005859C24.04656 45.269673 23.653441 45.459201 23.222656 45.544922 A 1.0001 1.0001 0 0 0 23.208984 45.546875C22.281584 45.744654 20.115276 45.956745 18.322266 45.978516C16.933359 45.377257 15.833772 43.937259 15.101562 41.933594C14.346801 39.868212 14 37.31724 14 35C14 29.011559 15.643201 25.593612 17.210938 23.443359 A 1.0001 1.0001 0 0 0 17.216797 23.433594C17.7173 22.73105 19.145764 22.128927 20.931641 21.652344C22.592617 21.209091 24.456327 20.785133 26.072266 20.035156 A 1.0001 1.0001 0 0 0 26.832031 19.589844 A 1.0001 1.0001 0 0 0 26.863281 19.542969 A 1.0001 1.0001 0 0 0 26.898438 19.478516 A 1.0001 1.0001 0 0 0 26.947266 18.666016C26.910906 18.261975 26.790399 17.403762 26.052734 16.414062C25.13432 15.181857 23.270011 14.088338 20.185547 14.035156C19.338516 13.160783 18.435911 12.540205 17.589844 12.267578C16.841682 12.026499 16.147909 11.963296 15.642578 11.960938C15.137247 11.958538 14.820314 12.015625 14.820312 12.015625 A 1.0001 1.0001 0 0 0 14.132812 13.5C14.132812 13.5 14.28304 13.889555 14.365234 14.066406C11.4688 14.239745 9.4636434 15.466701 8.2890625 16.746094C7.7298466 17.35521 7.355921 17.958097 7.0878906 18.460938C6.5801821 18.064792 6.3416885 17.690388 6.3183594 17.113281 A 1.0001 1.0001 0 0 0 6.3085938 17.003906C7.3169279 13.215256 10.866986 10 16.960938 10C23.510385 10 25.843604 12.789148 26.777344 14.482422 A 1.0001 1.0001 0 1 0 28.529297 13.517578C27.319036 11.322852 24.105489 8 16.960938 8 z M 33.955078 8.0839844L39.044922 8.0839844C39.257452 11.589271 40.451107 14.317075 41.585938 16.882812C41.900734 17.594537 42.209417 18.29545 42.496094 19.001953L40.677734 19.005859L38.927734 14.628906 A 1.0001 1.0001 0 0 0 38 13.986328 A 1.0001 1.0001 0 0 0 37.072266 15.371094L38.527344 19.009766L34.46875 19.015625L35.927734 15.371094 A 1.0001 1.0001 0 0 0 34.970703 13.988281 A 1.0001 1.0001 0 0 0 34.072266 14.628906L32.316406 19.019531L30.496094 19.023438C30.785178 18.309734 31.096118 17.601654 31.414062 16.882812C32.548893 14.317075 33.742548 11.589271 33.955078 8.0839844 z M 16.533203 14.125C16.746751 14.15812 16.72254 14.088702 16.974609 14.169922C17.999785 14.500263 19.214282 15.243777 20.072266 17.373047 A 1.0001 1.0001 0 1 0 21.927734 16.626953C21.868354 16.47958 21.766945 16.429865 21.703125 16.291016C23.098849 16.582459 24.044013 17.068344 24.447266 17.609375C24.751831 18.018001 24.686898 18.116555 24.748047 18.380859C23.494903 18.88605 21.998751 19.296377 20.416016 19.71875C18.664161 20.186254 16.917722 20.7038 15.816406 22.005859C14.21288 20.860189 11.995192 20.438938 10.087891 19.832031C9.6444627 19.690932 9.2428074 19.537033 8.8496094 19.382812C9.0452241 19.019901 9.3276325 18.572431 9.7617188 18.099609C10.692231 17.086065 12.219996 16.104267 14.792969 16.041016C14.89619 16.646519 15.066751 17.166616 15.003906 17.916016 A 1.0001 1.0001 0 1 0 16.996094 18.083984C17.128523 16.504802 16.846602 15.122069 16.533203 14.125 z M 6.0859375 20.203125C6.1049005 20.216725 6.1156566 20.240596 6.1347656 20.253906C7.1081254 20.932048 8.2825718 21.357109 9.4804688 21.738281C11.50434 22.38228 13.592722 22.985882 14.681641 23.6875C13.244527 26.155951 12 29.736701 12 35C12 37.51176 12.356168 40.248023 13.222656 42.619141C13.664068 43.827049 14.248242 44.956412 15.005859 45.890625C14.700057 45.876668 14.52841 45.879226 14.222656 45.863281C12.727129 45.78529 11.229987 45.670083 10.923828 45.621094C9.6681507 45.381418 8.7382826 44.368159 8.6269531 43.259766 A 1.0001 1.0001 0 0 0 8.6210938 43.220703C8.6210938 43.220703 7.9651744 38.496759 7.3085938 33.132812C6.6951923 28.12161 6.1633806 22.881269 6.0859375 20.203125 z M 43.21875 21.001953C43.688158 22.502839 44 24.100434 44 25.957031C44 27.064907 43.904723 28.058818 43.775391 29L29.224609 29C29.095277 28.058865 29 27.064907 29 25.957031C29 24.109466 29.307879 22.517986 29.773438 21.023438L32.78125 21.019531 A 1.0001 1.0001 0 0 0 33.185547 21.017578L39.769531 21.007812 A 1.0001 1.0001 0 0 0 40.269531 21.005859L43.21875 21.001953 z M 19.5 30 A 1.5 1.5 0 0 0 19.5 33 A 1.5 1.5 0 0 0 19.5 30 z M 29.572266 31L31.671875 31C31.817927 32.222725 32.142145 33.612425 32.435547 34.894531C32.744581 36.244948 33 37.525023 33 38C33 39.153708 32.573059 40.289878 32.082031 41.431641C31.591004 42.573403 31 43.695007 31 45C31 45.366664 31.070467 45.698169 31.181641 46L29.777344 46C29.777344 46 29.562831 45.98821 29.363281 45.880859C29.163731 45.773509 29 45.734581 29 45.087891C29 44.479883 29.413315 43.464417 29.921875 42.259766C30.430435 41.055115 31 39.632292 31 38C31 35.836287 30.163614 33.717842 29.572266 31 z M 33.703125 31L39.296875 31C39.157489 32.009873 38.888629 33.246002 38.613281 34.449219C38.303065 35.804802 38 37.014977 38 38C38 39.632292 38.573059 41.039168 39.082031 42.222656C39.591004 43.406144 40 44.391993 40 45C40 45.592848 39.812887 45.670705 39.509766 45.822266C39.206644 45.973827 38.871094 46 38.871094 46L34.128906 46C34.128906 46 33.793356 45.97383 33.490234 45.822266C33.187117 45.670705 33 45.592848 33 45C33 44.391993 33.408996 43.406144 33.917969 42.222656C34.426941 41.039168 35 39.632292 35 38C35 37.014977 34.696935 35.804802 34.386719 34.449219C34.111371 33.246002 33.842511 32.009873 33.703125 31 z M 41.328125 31L43.427734 31C42.836386 33.718023 42 35.836831 42 38C42 39.632292 42.569565 41.055115 43.078125 42.259766C43.586685 43.464417 44 44.479883 44 45.087891C44 45.734581 43.836269 45.773509 43.636719 45.880859C43.437169 45.98821 43.222656 46 43.222656 46L41.818359 46C41.929533 45.698169 42 45.366664 42 45C42 43.695007 41.408996 42.573403 40.917969 41.431641C40.426941 40.289878 40 39.153708 40 38C40 37.525023 40.255419 36.244948 40.564453 34.894531C40.857855 33.612425 41.182073 32.222725 41.328125 31 z M 22 34 A 1 1 0 0 0 22 36 A 1 1 0 0 0 22 34 z"/></svg>