<svg xmlns="http://www.w3.org/2000/svg" xmlns:xlink="http://www.w3.org/1999/xlink" viewBox="0 0 50 50"><path d="M34.5 2C33.125 2 32 3.0429688 32 4.4179688L32 5C32 5.598 32.484984 6 33.083984 6L39.917969 6C40.515969 6 41 5.598 41 5L41 4.4179688C41 3.0429688 39.875 2 38.5 2L34.5 2 z M 16.960938 8C8.4519375 8 4 13.680969 4 19.292969C4 24.448969 6.5327188 42.720984 6.6367188 43.458984C6.8427188 45.491984 8.4521719 47.188844 10.576172 47.589844C11.091172 47.674844 12.505906 47.774516 14.003906 47.853516C11.406906 44.647516 10 38.889 10 35C10 28.279 12.287766 23.759328 14.009766 21.111328C13.162766 20.773328 12.250844 20.488797 11.339844 20.216797C9.9448438 19.799797 8.7857813 19.422281 7.9257812 18.988281C8.5937812 17.716281 10.281594 15.433688 13.933594 15.054688C14.018594 15.618688 14.059906 16.243016 14.003906 16.916016C13.956906 17.466016 14.366016 17.950094 14.916016 17.996094C15.482016 18.047094 15.951094 17.633031 15.996094 17.082031C16.138094 15.401031 15.816469 13.9425 15.480469 12.9375C17.040469 13.0395 19.447672 13.764062 20.013672 17.164062C20.095672 17.653063 20.518047 18 20.998047 18C21.053047 18 21.108063 17.996328 21.164062 17.986328C21.709063 17.895328 22.077328 17.380937 21.986328 16.835938C21.876328 16.177937 21.699141 15.614703 21.494141 15.095703C24.424141 15.490703 25.449641 17.033453 25.806641 18.064453C25.716641 18.082453 25.625969 18.091766 25.542969 18.134766C24.461969 18.691766 23.029078 19.235922 21.580078 19.419922C16.999078 20.000922 15.804734 22.016625 15.802734 22.015625C14.159734 24.484625 12 28.621 12 35C12 39.885 14.306172 46.649328 17.201172 47.986328C17.545172 47.995328 17.848172 48 18.076172 48C20.091172 48 22.480281 47.746859 23.613281 47.505859C24.203281 47.388859 24.768391 47.148453 25.275391 46.814453C25.101391 46.297453 25 45.723891 25 45.087891C25 43.608891 25.558609 42.294391 26.099609 41.025391C26.561609 39.937391 27 38.912 27 38C27 37.205 26.701469 36.086969 26.355469 34.792969C25.751469 32.528969 25 29.712031 25 25.957031C25 19.593031 28.759 14.309469 29 13.730469C27.856 11.667469 24.358938 8 16.960938 8 z M 32.923828 8C32.923828 12.166 31.007937 14.02425 29.585938 16.53125C28.036937 19.26425 27 21.919031 27 25.957031C27 29.450031 27.715062 32.126344 28.289062 34.277344C28.670063 35.707344 29 36.942 29 38C29 39.32 28.461453 40.585547 27.939453 41.810547C27.456453 42.944547 27 44.016891 27 45.087891C27 47.224891 28.661344 48 29.777344 48L43.222656 48C44.339656 48 46 47.224891 46 45.087891C46 44.016891 45.543547 42.944547 45.060547 41.810547C44.538547 40.585547 44 39.32 44 38C44 36.942 44.329938 35.708344 44.710938 34.277344C45.284937 32.126344 46 29.450031 46 25.957031C46 21.919031 45.009062 19.23925 43.414062 16.53125C41.856063 13.88825 40.074219 12.492 40.074219 8L32.923828 8 z M 34.660156 14C34.789922 13.997375 34.921328 14.019562 35.048828 14.070312C35.561828 14.276312 35.812422 14.858094 35.607422 15.371094L34.154297 19L32 19L33.748047 14.628906C33.901797 14.244156 34.270859 14.007875 34.660156 14 z M 38.339844 14C38.728859 14.008016 39.098203 14.244156 39.251953 14.628906L41 19L38.845703 19L37.394531 15.371094C37.189531 14.857094 37.438172 14.276312 37.951172 14.070312C38.078172 14.019813 38.210172 13.997328 38.339844 14 z M 43.220703 20.976562C43.689703 22.475562 44 24.101031 44 25.957031C44 27.463031 43.856437 28.79 43.648438 30L29.351562 30C29.143562 28.79 29 27.463031 29 25.957031C29 24.111031 29.308437 22.493 29.773438 21L43.220703 20.976562 z M 18.5 30C19.328 30 20 30.672 20 31.5C20 32.328 19.328 33 18.5 33C17.672 33 17 32.328 17 31.5C17 30.672 17.672 30 18.5 30 z M 31.822266 32L33.857422 32C33.998422 32.738 34.173563 33.523781 34.351562 34.300781C34.698563 35.818781 35 37.13 35 38C35 39.731 34.351344 41.229781 33.777344 42.550781C33.378344 43.471781 33 44.341 33 45C33 45.316 33.093516 45.675 33.228516 46L31.177734 46C31.073734 45.701 31 45.378 31 45C31 43.925 31.457406 42.871906 31.941406 41.753906C32.461406 40.555906 33 39.316 33 38C33 37.356 32.696344 36.030047 32.402344 34.748047C32.190344 33.823047 31.977266 32.882 31.822266 32 z M 39.142578 32L41.177734 32C41.021734 32.882 40.808656 33.823047 40.597656 34.748047C40.303656 36.030047 40 37.356 40 38C40 39.316 40.538594 40.555906 41.058594 41.753906C41.542594 42.871906 42 43.925 42 45C42 45.378 41.925266 45.701 41.822266 46L39.771484 46C39.905484 45.674 40 45.315 40 45C40 44.341 39.621656 43.471781 39.222656 42.550781C38.648656 41.229781 38 39.731 38 38C38 37.13 38.301437 35.818781 38.648438 34.300781C38.826437 33.523781 39.001578 32.738 39.142578 32 z M 21 34C21.552 34 22 34.448 22 35C22 35.552 21.552 36 21 36C20.448 36 20 35.552 20 35C20 34.448 20.448 34 21 34 z"/></svg>