<svg xmlns="http://www.w3.org/2000/svg" xmlns:xlink="http://www.w3.org/1999/xlink" viewBox="0 0 100 100"><path d="M47.476562 39.976562C40.912475 39.976562 34.970423 40.704906 30.591797 41.916016C28.402484 42.52157 26.604219 43.240393 25.275391 44.109375C23.946562 44.978357 22.976563 46.090625 22.976562 47.476562C22.976562 47.493869 22.980167 47.510122 22.980469 47.527344 A 1.0001 1.0001 0 0 0 22.623047 48.220703C22.570697 48.91662 22.537109 49.624818 22.537109 50.347656C22.537109 60.017525 27.4661 68.494089 34.806641 73.044922C34.261092 73.548664 33.873047 74.157001 33.873047 74.917969C33.873047 75.886789 34.45694 76.649928 35.208984 77.291016C35.961029 77.932103 36.957902 78.492168 38.162109 78.982422C40.570525 79.962929 43.807144 80.642578 47.392578 80.642578C50.978013 80.642578 54.214632 79.962929 56.623047 78.982422C57.827254 78.492168 58.826081 77.932103 59.578125 77.291016C60.330169 76.649928 60.912109 75.886789 60.912109 74.917969C60.912109 74.062054 60.441935 73.390061 59.783203 72.855469C62.5684 71.070762 64.992547 68.715882 66.917969 65.943359C69.19367 63.80128 72.193269 62.159316 74.707031 60.380859C77.574031 58.351859 81.011422 56.3465 83.357422 53.6875C86.222422 50.4405 84.895281 46.144 81.238281 44.25C78.232353 42.693716 74.519095 44.498284 71.798828 46.474609C71.460313 45.542475 70.667471 44.757887 69.675781 44.109375C68.346953 43.240393 66.548688 42.52157 64.359375 41.916016C59.980749 40.704906 54.04065 39.976562 47.476562 39.976562 z M 47.476562 41.976562C53.891168 41.976562 59.69947 42.702322 63.826172 43.84375C65.889523 44.414464 67.53253 45.096886 68.582031 45.783203C69.631532 46.46952 69.976562 47.067575 69.976562 47.476562C69.976562 47.510645 69.958125 47.553194 69.953125 47.589844 A 1.0001 1.0001 0 0 0 69.722656 47.951172C69.688483 48.044432 69.52554 48.243294 69.244141 48.486328C69.144321 48.282171 69.008908 48.09041 68.84375 47.916016C68.497051 47.549926 68.027729 47.23206 67.447266 46.935547C66.286339 46.342521 64.669517 45.834856 62.685547 45.40625C58.717606 44.549039 53.283027 44.025391 47.277344 44.025391C41.839916 44.025391 36.867566 44.455156 33.03125 45.171875 A 0.50085473 0.50085473 0 1 0 33.216797 46.15625C36.970481 45.454969 41.892771 45.025391 47.277344 45.025391C53.22466 45.025391 58.6093 45.549727 62.474609 46.384766C64.407264 46.802285 65.962708 47.300292 66.992188 47.826172C67.506927 48.089112 67.887272 48.360742 68.117188 48.603516C68.295421 48.791718 68.361946 48.942092 68.390625 49.080078C68.225441 49.178778 68.068652 49.277158 67.871094 49.375C66.688626 49.960624 64.998423 50.543438 62.943359 51.044922C58.833232 52.047889 53.260489 52.738281 47.140625 52.738281C41.020788 52.738281 35.449985 52.048015 31.339844 51.044922C30.198532 50.766381 29.183315 50.461703 28.291016 50.146484C27.5274 49.829633 26.875696 49.501182 26.369141 49.169922C26.287598 49.116598 26.237246 49.067836 26.164062 49.015625C26.230457 48.817652 26.408165 48.582493 26.761719 48.314453C27.233123 47.957066 27.980784 47.585704 28.951172 47.242188 A 0.50005 0.50005 0 0 0 28.798828 46.267578 A 0.50005 0.50005 0 0 0 28.617188 46.298828C27.587574 46.663311 26.760845 47.059215 26.15625 47.517578C25.835325 47.760882 25.573967 48.036288 25.392578 48.337891C25.107257 48.003791 24.976562 47.707913 24.976562 47.476562C24.976562 47.067575 25.319639 46.46952 26.369141 45.783203C27.418642 45.096886 29.061649 44.414464 31.125 43.84375C35.251701 42.702322 41.061959 41.976562 47.476562 41.976562 z M 31.125 45.589844 A 0.50005 0.50005 0 0 0 30.990234 45.605469C30.754048 45.661219 30.749692 45.664609 30.533203 45.720703 A 0.50048898 0.50048898 0 1 0 30.785156 46.689453C31.008667 46.631543 30.99089 46.632373 31.220703 46.578125 A 0.50005 0.50005 0 0 0 31.125 45.589844 z M 78.582031 45.765625C80.039311 45.725072 81.402156 46.28225 82.410156 47.84375C84.521156 51.11475 80.457578 53.699703 78.267578 55.345703C75.617578 57.336703 72.886734 59.220859 70.177734 61.130859C69.901345 61.325741 69.60163 61.525042 69.314453 61.71875C70.871458 58.274956 71.744141 54.41644 71.744141 50.347656C71.744141 49.91233 71.714434 49.492913 71.693359 49.068359C71.694578 49.067326 71.696048 49.067446 71.697266 49.066406C73.460391 47.560781 76.153232 45.833213 78.582031 45.765625 z M 24.558594 50.576172C24.877006 50.772479 25.149174 50.982627 25.523438 51.167969C26.103229 51.455093 26.773674 51.726359 27.496094 51.986328C28.415985 52.369779 29.446752 52.718442 30.591797 53.035156C34.970423 54.246265 40.912475 54.976563 47.476562 54.976562C54.04065 54.976562 59.980749 54.246265 64.359375 53.035156C66.548688 52.429602 68.346953 51.712732 69.675781 50.84375C69.689834 50.83456 69.700872 50.823697 69.714844 50.814453C69.622588 55.994728 68.024166 60.764646 65.373047 64.652344C65.237847 64.779343 65.100576 64.904866 64.972656 65.037109C64.811794 65.203364 64.746944 65.384883 64.71875 65.566406C60.576634 71.071701 54.239324 74.585938 47.140625 74.585938C34.755159 74.585938 24.675966 63.900648 24.558594 50.576172 z M 57.875 73.958984 A 1.0001 1.0001 0 0 0 58.035156 74.072266C58.770835 74.50211 58.912109 74.840638 58.912109 74.917969C58.912109 74.984649 58.796237 75.330525 58.28125 75.769531C57.766263 76.208537 56.930558 76.698738 55.869141 77.130859C53.746306 77.995102 50.722144 78.642578 47.392578 78.642578C44.063013 78.642578 41.03885 77.995102 38.916016 77.130859C37.854598 76.698738 37.020846 76.208537 36.505859 75.769531C35.990872 75.330525 35.873047 74.984648 35.873047 74.917969C35.873047 74.840552 36.01694 74.518006 36.701172 74.105469C39.868958 75.692802 43.404726 76.585938 47.140625 76.585938C50.992297 76.585938 54.632892 75.639999 57.875 73.958984 z"/></svg>