<svg xmlns="http://www.w3.org/2000/svg" xmlns:xlink="http://www.w3.org/1999/xlink" viewBox="0 0 48 48"><path d="M25.476562 1.9785156 A 1.50015 1.50015 0 0 0 23.998047 3.5C23.998047 5.5 23.3125 5.828125 22.0625 6.828125C20.8125 7.828125 18.998047 9.5 18.998047 12.5 A 1.50015 1.50015 0 1 0 21.998047 12.5C21.998047 10.5 22.685547 10.171875 23.935547 9.171875C25.185547 8.171875 26.998047 6.5 26.998047 3.5 A 1.50015 1.50015 0 0 0 25.476562 1.9785156 z M 31.476562 3.9785156 A 1.50015 1.50015 0 0 0 29.998047 5.5C29.998047 6.25 29.852963 6.5637711 29.648438 6.8535156C29.443911 7.1432601 29.099609 7.4257812 28.599609 7.8007812C28.099609 8.1757812 27.443911 8.6432601 26.898438 9.4160156C26.352963 10.188771 25.998047 11.25 25.998047 12.5 A 1.50015 1.50015 0 1 0 28.998047 12.5C28.998047 11.75 29.145084 11.436229 29.349609 11.146484C29.554135 10.85674 29.898437 10.574219 30.398438 10.199219C30.898438 9.8242185 31.554135 9.3567399 32.099609 8.5839844C32.645084 7.8112289 32.998047 6.75 32.998047 5.5 A 1.50015 1.50015 0 0 0 31.476562 3.9785156 z M 14.544922 16C13.600922 16 12.713781 16.371875 12.050781 17.046875C11.383781 17.725875 11.026969 18.623219 11.042969 19.574219C11.274969 32.808219 13.724063 39.642109 15.164062 42.537109C15.907063 44.033109 17.482734 45 19.177734 45L28.783203 45C30.494203 45 32.028109 44.062688 32.787109 42.554688C33.390225 41.355497 34.166696 39.430316 34.888672 36.703125C35.077886 35.943081 35.473278 35.442934 36.160156 34.917969C36.881841 34.366401 37.908309 33.868125 39.005859 33.318359C40.10341 32.768594 41.285968 32.166276 42.279297 31.181641C43.272626 30.197005 44 28.741909 44 27C44 24.256343 41.743657 22 39 22C38.252002 22 37.533393 22.167194 36.865234 22.447266C36.906965 21.521462 36.939341 20.571674 36.957031 19.574219C36.974031 18.622219 36.616219 17.725875 35.949219 17.046875C35.286219 16.371875 34.399078 16 33.455078 16L23 16L23 27C24.105 27 25 27.895 25 29L25 32C25 33.105 24.105 34 23 34L20 34C18.895 34 18 33.105 18 32L18 29C18 27.895 18.895 27 20 27L20 16L14.544922 16 z M 39 25C40.122343 25 41 25.877657 41 27C41 28.008091 40.718718 28.502917 40.166016 29.050781C39.613314 29.598646 38.712684 30.110484 37.662109 30.636719C37.125301 30.905607 36.552771 31.179066 35.976562 31.492188C36.211268 30.021946 36.421371 28.420132 36.583984 26.640625C36.678427 26.308944 36.899632 25.972258 37.255859 25.671875C37.742062 25.261892 38.438829 25 39 25 z"/></svg>