<svg xmlns="http://www.w3.org/2000/svg" xmlns:xlink="http://www.w3.org/1999/xlink" viewBox="0 0 100 100"><path d="M54.8125 20.677734C50.289492 20.677734 45.93155 22.0326 43.162109 25.1875C41.130728 27.502854 40.29829 30.480713 39.976562 32.96875L32.298828 32.96875L21.96875 42.462891L21.96875 74.556641C21.96875 77.576966 24.628269 79.96875 27.769531 79.96875L54.169922 79.96875C57.311437 79.96875 59.96875 77.576966 59.96875 74.556641L59.96875 41.988281L49.007812 32.96875L41.015625 32.96875C41.333754 30.640147 42.107561 27.906694 43.914062 25.847656C46.432623 22.978556 50.489508 21.677734 54.8125 21.677734C63.243678 21.677734 70.021484 27.874595 70.021484 35.472656L70.021484 35.474609L70.072266 41.496094C69.840351 41.711543 68.335098 43.112814 66.691406 44.820312C65.804427 45.741724 64.915282 46.715331 64.236328 47.574219C63.896851 48.003663 63.610666 48.403297 63.398438 48.767578C63.186208 49.131859 63.026587 49.443294 63.025391 49.826172L62.976562 64.617188C62.969563 66.495091 64.533864 68.030131 66.435547 68.037109L74.533203 68.064453C76.435053 68.071453 78.011708 66.547525 78.017578 64.667969L78.066406 49.875C78.067606 49.492239 77.91098 49.180042 77.701172 48.814453C77.491364 48.448864 77.207672 48.046905 76.871094 47.615234C76.197937 46.751893 75.316225 45.77504 74.435547 44.847656C72.79943 43.12477 71.296272 41.705207 71.072266 41.494141L71.021484 35.472656C71.021484 27.280717 63.735322 20.677734 54.8125 20.677734 z M 33.078125 34.96875L39.808594 34.96875C39.762673 36.190581 39.808804 36.844394 39.847656 37.277344L38.130859 37.277344L38.130859 38.277344L42.638672 38.277344L42.638672 37.277344L40.855469 37.277344C40.825037 36.904935 40.780568 36.215893 40.835938 34.96875L48.179688 34.96875L45.392578 40.96875L35.574219 40.96875L32.949219 35.087891L33.078125 34.96875 z M 49.007812 35.558594L57.96875 42.933594L57.96875 64.085938C53.530729 63.741037 48.859942 61.57116 45.246094 59.771484C40.7198 57.518369 36.210415 55.546199 30.341797 55.082031C28.184477 54.911229 26.049981 54.947692 23.96875 55.152344L23.96875 43.341797L32.171875 35.800781L34.925781 41.96875L46.03125 41.96875L49.007812 35.558594 z M 70.572266 42.410156C70.864185 42.685857 72.142173 43.885251 73.708984 45.535156C74.577182 46.449398 75.444469 47.412778 76.082031 48.230469C76.400812 48.639314 76.662046 49.012898 76.833984 49.3125C77.005923 49.612102 77.066459 49.856058 77.066406 49.873047L77.017578 64.664062C77.013478 65.986507 75.90526 67.069474 74.537109 67.064453L66.439453 67.037109C65.071136 67.032109 63.971609 65.941191 63.976562 64.621094L64.025391 49.828125C64.025444 49.811005 64.087831 49.568008 64.261719 49.269531C64.435611 48.971054 64.699977 48.600072 65.021484 48.193359C65.664499 47.379935 66.537714 46.422011 67.412109 45.513672C68.990155 43.874368 70.27853 42.683788 70.572266 42.410156 z M 70.480469 46.296875C69.431353 46.293275 68.554334 47.137724 68.550781 48.181641C68.547181 49.225557 69.417681 50.072602 70.466797 50.076172C71.515912 50.079772 72.389025 49.237274 72.392578 48.193359C72.396178 47.149442 71.529584 46.300446 70.480469 46.296875 z M 70.476562 47.296875C70.99703 47.298675 71.39425 47.699979 71.392578 48.191406C71.390878 48.682832 70.991171 49.077944 70.470703 49.076172C69.950234 49.074372 69.549109 48.67502 69.550781 48.183594C69.552481 47.692167 69.956093 47.295104 70.476562 47.296875 z M 28.373047 55.980469C29.000762 55.996145 29.631715 56.028091 30.263672 56.078125C35.951054 56.527958 40.303075 58.427131 44.800781 60.666016C48.44967 62.48314 53.236867 64.746824 57.96875 65.091797L57.96875 74.556641C57.96875 76.390316 56.308407 77.96875 54.169922 77.96875L27.769531 77.96875C25.630794 77.96875 23.96875 76.390316 23.96875 74.556641L23.96875 56.158203C25.414164 56.011976 26.883708 55.943274 28.373047 55.980469 z"/></svg>