<svg xmlns="http://www.w3.org/2000/svg" xmlns:xlink="http://www.w3.org/1999/xlink" viewBox="0 0 50 50"><path d="M22 0C21.476563 0 20.941406 0.183594 20.5625 0.5625C20.183594 0.941406 20 1.476563 20 2L20 5.6875C19.941406 5.882813 19.941406 6.085938 20 6.28125L20 13.34375C19.257813 13.652344 18.3125 14.144531 17.34375 15.125C16.082031 16.398438 15 18.421875 15 21.3125L15 47.09375C15 48.628906 16.277344 49.90625 17.8125 49.90625L32.1875 49.90625C33.722656 49.90625 35 48.628906 35 47.09375L35 21.3125C35 18.46875 33.914063 16.441406 32.65625 15.15625C31.695313 14.171875 30.75 13.695313 30 13.375L30 6.1875C30.027344 6.054688 30.027344 5.914063 30 5.78125L30 2C30 1.476563 29.816406 0.941406 29.4375 0.5625C29.058594 0.183594 28.523438 0 28 0 Z M 22 2L28 2L28 5L22 5 Z M 22 7L28 7L28 14C28.003906 14.425781 28.28125 14.804688 28.6875 14.9375C29.183594 15.101563 30.304688 15.597656 31.25 16.5625C32.195313 17.527344 33 18.957031 33 21.3125L33 47.09375C33 47.558594 32.652344 47.90625 32.1875 47.90625L17.8125 47.90625C17.347656 47.90625 17 47.558594 17 47.09375L17 21.3125C17 18.902344 17.8125 17.449219 18.75 16.5C19.6875 15.550781 20.792969 15.109375 21.3125 14.9375C21.71875 14.804688 21.996094 14.425781 22 14 Z M 19.8125 25C19.335938 25.089844 18.992188 25.511719 19 26L19 42C19 42.550781 19.449219 43 20 43L30 43C30.550781 43 31 42.550781 31 42L31 26C31 25.449219 30.550781 25 30 25L20 25C19.96875 25 19.9375 25 19.90625 25C19.875 25 19.84375 25 19.8125 25 Z M 21 27L29 27L29 30L21 30 Z M 21 32L29 32L29 41L21 41Z"/></svg>