<svg xmlns="http://www.w3.org/2000/svg" viewBox="0 0 121.11 122.88"><defs><style>.a{fill-rule:evenodd;}</style></defs><title>yogurt</title><path class="a" d="M42.25,30.09a58,58,0,0,0,6.57-5.27c4.87-4.82,6.75-10,.4-17.33a38.42,38.42,0,0,1,14.49-.38A31.07,31.07,0,0,1,77,12.69a26,26,0,0,1,8.61,11L87,30.93a3.31,3.31,0,0,0,2.87,3.82H90A26.75,26.75,0,0,1,97.62,37a19.75,19.75,0,0,1,10.65,12H12.71a15.22,15.22,0,0,1,1.72-3.74c2.22-3.41,5.93-5.9,10.75-7.68,4.06-1.5,14.77-5.84,17.07-7.51ZM115.82,50a26.43,26.43,0,0,0-2.3-6.61,27,27,0,0,0-12.64-12.2,33.8,33.8,0,0,0-6.35-2.27l-2.21-7.55A32.55,32.55,0,0,0,81.51,7.55,38.61,38.61,0,0,0,65,.64,46.59,46.59,0,0,0,41.48,2.8a3.38,3.38,0,0,0-1.32.82,3.15,3.15,0,0,0,.17,4.67c6.73,5.84,6.19,9.2,3.33,12a60.22,60.22,0,0,1-5.82,4.58h0L23.89,31C17,33.33,11.62,36.82,8.31,41.93A21.62,21.62,0,0,0,5.16,50,9.42,9.42,0,0,0,0,58.43V69.84a9.4,9.4,0,0,0,2.76,6.65h0a9.4,9.4,0,0,0,5.51,2.7L13,102.7c2.19,10.87,9.08,20.18,20.18,20.18H87.91c11.1,0,18-9.3,20.18-20.18l4.74-23.52a9.39,9.39,0,0,0,5.5-2.69h0a9.38,9.38,0,0,0,2.77-6.64V58.43A9.4,9.4,0,0,0,118.53,52l-.19-.21a9.42,9.42,0,0,0-2.52-1.8Zm-4.13,5.17H9.42a3.31,3.31,0,0,0-2.32,1,3.27,3.27,0,0,0-1,2.32V69.84a3.23,3.23,0,0,0,1,2.31h0a3.26,3.26,0,0,0,2.32,1H111.69A3.28,3.28,0,0,0,115,69.84V58.43a3.28,3.28,0,0,0-.84-2.2l-.12-.12a3.31,3.31,0,0,0-2.32-1Z"/></svg>