<svg xmlns="http://www.w3.org/2000/svg" xmlns:xlink="http://www.w3.org/1999/xlink" viewBox="0 0 30 30"><path d="M8.5 3.9003906C6.25 3.9003906 4.8359375 5.5875156 4.8359375 8.4785156C4.8359375 11.369516 6.232 13.099609 8.5 13.099609C10.762 13.099609 12.164062 11.363375 12.164062 8.484375C12.164062 5.581375 10.744 3.9003906 8.5 3.9003906 z M 17.5 3.9003906C15.25 3.9003906 13.835938 5.5875156 13.835938 8.4785156C13.835938 11.369516 15.232 13.099609 17.5 13.099609C19.762 13.099609 21.164062 11.363375 21.164062 8.484375C21.164062 5.581375 19.744 3.9003906 17.5 3.9003906 z M 8.5 5.6054688C9.346 5.6054687 9.9140625 6.5615156 9.9140625 8.4785156C9.9140625 10.407516 9.346 11.394531 8.5 11.394531C7.654 11.394531 7.0917969 10.408516 7.0917969 8.4785156C7.0917969 6.5605156 7.654 5.6054688 8.5 5.6054688 z M 17.5 5.6054688C18.346 5.6054687 18.914062 6.5615156 18.914062 8.4785156C18.914062 10.407516 18.346 11.394531 17.5 11.394531C16.654 11.394531 16.091797 10.408516 16.091797 8.4785156C16.091797 6.5615156 16.654 5.6054688 17.5 5.6054688 z M 24.996094 6.8984375C23.583094 6.8984375 22.639625 7.6473906 22.640625 8.7753906C22.640625 9.6913906 23.173437 10.241141 24.273438 10.494141L25.302734 10.736328C25.800734 10.849328 26.015625 11.027359 26.015625 11.318359C26.015625 11.701359 25.614203 11.955078 25.033203 11.955078C24.437203 11.955078 24.073937 11.722359 23.960938 11.318359L22.501953 11.318359C22.604953 12.461359 23.508906 13.103516 25.003906 13.103516C26.488906 13.103516 27.501953 12.326625 27.501953 11.140625C27.501953 10.250625 27.008203 9.7666719 25.908203 9.5136719L24.84375 9.2695312C24.31975 9.1455312 24.078125 8.9687344 24.078125 8.6777344C24.078125 8.2997344 24.473813 8.046875 25.007812 8.046875C25.562812 8.046875 25.907375 8.2830156 25.984375 8.6660156L27.365234 8.6660156C27.283234 7.5290156 26.435094 6.8984375 24.996094 6.8984375 z M 3 15C3 21.627 8.373 27 15 27C21.627 27 27 21.627 27 15L20 15C20 17.757 17.757 20 15 20C12.243 20 10 17.757 10 15L3 15 z M 14 15C14 15.552 14.448 16 15 16C15.552 16 16 15.552 16 15L14 15 z"/></svg>