<svg xmlns="http://www.w3.org/2000/svg" xmlns:xlink="http://www.w3.org/1999/xlink" viewBox="0 0 50 50"><path d="M19.511719 3C16.034719 3 14 5.9531406 14 10.994141C14 16.076141 16.013719 19 19.511719 19C22.998719 19 25 16.099344 25 11.027344C25 5.9663438 22.966719 3 19.511719 3 z M 32.511719 3C29.034719 3 27 5.9531406 27 10.994141C27 16.076141 29.013719 19 32.511719 19C35.998719 19 38 16.099344 38 11.027344C38 5.9663438 35.966719 3 32.511719 3 z M 19.511719 4.6738281C21.782719 4.6738281 23.052734 6.9381406 23.052734 10.994141C23.052734 15.092141 21.803719 17.337891 19.511719 17.337891C17.219719 17.337891 15.949219 15.081141 15.949219 10.994141C15.949219 6.9601406 17.240719 4.6738281 19.511719 4.6738281 z M 32.511719 4.6738281C34.782719 4.6738281 36.052734 6.9381406 36.052734 10.994141C36.052734 15.092141 34.803719 17.337891 32.511719 17.337891C30.219719 17.337891 28.949219 15.081141 28.949219 10.994141C28.949219 6.9601406 30.240719 4.6738281 32.511719 4.6738281 z M 43.507812 9C41.565812 9 40.211938 10.084391 40.210938 11.650391C40.210938 12.955391 40.954156 13.721562 42.535156 14.101562L43.996094 14.457031C44.779094 14.640031 45.132812 14.9475 45.132812 15.4375C45.132812 16.0775 44.478109 16.513672 43.537109 16.513672C42.604109 16.513672 42.02475 16.135141 41.84375 15.494141L40 15.494141C40.143 17.067141 41.437188 18 43.492188 18C45.547188 18 47 16.893422 47 15.232422C47 13.958422 46.270266 13.247953 44.697266 12.876953L43.244141 12.527344C42.417141 12.330344 42.025391 12.029063 42.025391 11.539062C42.025391 10.914062 42.665625 10.486328 43.515625 10.486328C44.388625 10.486328 44.936266 10.875375 45.072266 11.484375L46.826172 11.484375C46.690172 9.909375 45.464813 9 43.507812 9 z M 2 23L2 25L2.0253906 25C2.550876 37.226842 12.645155 47 25 47C37.354845 47 47.449124 37.226842 47.974609 25L48 25L48 23L2 23 z M 4.0253906 25L15.050781 25C15.555209 30.043028 19.82722 34 25 34C30.17278 34 34.444791 30.043028 34.949219 25L45.974609 25C45.453672 36.143955 36.27424 45 25 45C13.72576 45 4.5463275 36.143955 4.0253906 25 z M 17.068359 25L21.671875 25C21.849184 25.486439 22.12699 25.930873 22.474609 26.298828C23.787608 27.688983 26.01122 27.688983 27.324219 26.298828C27.671839 25.930873 27.951033 25.486439 28.128906 25L32.931641 25C32.441066 28.953769 29.090008 32 25 32C20.909992 32 17.558934 28.953769 17.068359 25 z M 24.009766 25L25.791016 25C25.212454 25.556536 24.588327 25.556536 24.009766 25 z"/></svg>