<svg xmlns="http://www.w3.org/2000/svg" xmlns:xlink="http://www.w3.org/1999/xlink" viewBox="0 0 50 50"><path d="M25 2C12.317 2 2 12.317 2 25C2 37.683 12.317 48 25 48C37.683 48 48 40.349 48 25C48 12.317 37.683 2 25 2 z M 24.828125 17C29.363125 17 29.619141 20.251484 29.619141 21.021484C29.619141 22.989484 28.079469 24.015484 27.480469 24.271484C28.421469 24.528484 30.304688 25.469031 30.304688 28.207031C30.304688 32.228031 26.625937 32.998047 25.085938 32.998047C21.064937 32.998047 19.695312 30.431031 19.695312 28.207031C19.695312 25.555031 21.577594 24.613484 22.433594 24.271484C21.749594 24.014484 20.208984 22.989484 20.208984 21.021484C20.208984 19.567484 21.234125 17 24.828125 17 z M 15.5 17.25L17 17.25L17 32.75L15 32.75L15 21.75L11 21.740234L11 20.199219C13.399 20.113219 15.072 19.648 15.5 17.25 z M 24.914062 18.710938C22.347062 18.710938 22.177734 20.764422 22.177734 21.107422C22.176734 21.535422 22.348 23.673828 25 23.673828C27.139 23.673828 27.566406 21.963422 27.566406 21.107422C27.566406 20.337422 27.224062 18.710938 24.914062 18.710938 z M 36 21L38 21L38 24L41 24L41 26L38 26L38 29L36 29L36 26L33 26L33 24L36 24L36 21 z M 25 25.298828C22.519 25.298828 21.662109 27.010922 21.662109 28.294922C21.662109 30.519922 23.374 31.373047 25 31.373047C27.139 31.373047 28.251953 29.748922 28.251953 28.294922C28.251953 27.610922 27.567 25.298828 25 25.298828 z"/></svg>