<svg xmlns="http://www.w3.org/2000/svg" xmlns:xlink="http://www.w3.org/1999/xlink" viewBox="0 0 50 50"><path d="M44 9C42.343 9 41 10.343 41 12C41 13.657 42.343 15 44 15C45.657 15 47 13.657 47 12C47 10.343 45.657 9 44 9 z M 44 11C44.552 11 45 11.448 45 12C45 12.552 44.552 13 44 13C43.448 13 43 12.552 43 12C43 11.448 43.448 11 44 11 z M 14.207031 12.964844C11.784031 12.964844 10.223484 14.287719 10.146484 16.386719L12.292969 16.386719C12.353969 15.425719 13.067531 14.818359 14.144531 14.818359C15.229531 14.818359 15.921875 15.387297 15.921875 16.279297C15.921875 17.186297 15.206344 17.800781 14.152344 17.800781L12.798828 17.800781L12.798828 19.53125L14.175781 19.53125C15.421781 19.53125 16.183594 20.130609 16.183594 21.099609C16.183594 22.045609 15.375844 22.699219 14.214844 22.699219C13.022844 22.699219 12.229156 22.107922 12.160156 21.169922L9.9394531 21.169922C10.039453 23.260922 11.714406 24.630859 14.191406 24.630859C16.721406 24.630859 18.552734 23.223344 18.552734 21.277344C18.552734 19.817344 17.598172 18.801813 16.076172 18.632812L16.076172 18.494141C17.314172 18.240141 18.121094 17.239078 18.121094 15.955078C18.121094 14.210078 16.483031 12.964844 14.207031 12.964844 z M 25.019531 12.964844C22.127531 12.964844 20.390625 15.194906 20.390625 18.878906C20.390625 20.401906 20.705313 21.677047 21.320312 22.623047C22.082312 23.923047 23.374422 24.630859 24.982422 24.630859C27.466422 24.630859 29.226562 22.992547 29.226562 20.685547C29.226563 18.562547 27.681219 17.001953 25.574219 17.001953C24.282219 17.001953 23.251141 17.592672 22.744141 18.638672L22.605469 18.638672C22.559469 16.339672 23.481906 14.871094 25.003906 14.871094C25.872906 14.871094 26.56525 15.3315 26.78125 16.0625L29.080078 16.0625C28.764078 14.2095 27.126531 12.964844 25.019531 12.964844 z M 35.59375 12.964844C32.86375 12.964844 31.1875 15.101344 31.1875 18.777344C31.1875 22.461344 32.84875 24.630859 35.59375 24.630859C38.33875 24.630859 39.998047 22.453156 39.998047 18.785156C39.998047 15.102156 38.31575 12.964844 35.59375 12.964844 z M 35.59375 14.863281C36.86175 14.863281 37.646484 16.193344 37.646484 18.777344C37.646484 21.377344 36.86975 22.738281 35.59375 22.738281C34.32575 22.738281 33.541016 21.369344 33.541016 18.777344C33.541016 16.201344 34.33275 14.863281 35.59375 14.863281 z M 24.964844 18.792969C26.126844 18.792969 26.972656 19.622906 26.972656 20.753906C26.972656 21.869906 26.096031 22.723656 24.957031 22.722656C23.819031 22.722656 22.949219 21.861469 22.949219 20.730469C22.949219 19.623469 23.802844 18.792969 24.964844 18.792969 z M 42.800781 21.316406 A 1.0001 1.0001 0 0 0 42.443359 23.228516C44.268049 24.075795 45.698524 25.050491 46.632812 26.046875C47.567102 27.043259 48 28.017889 48 29C48 30.0565 47.49681 31.11112 46.412109 32.179688C45.327409 33.248255 43.674151 34.278354 41.585938 35.148438C37.409511 36.888604 31.514914 38 25 38C18.485086 38 12.590489 36.888604 8.4140625 35.148438C6.3258493 34.278354 4.6725909 33.248255 3.5878906 32.179688C2.5031903 31.11112 2 30.0565 2 29C2 28.047369 2.4052409 27.104226 3.2832031 26.136719C4.1611654 25.169211 5.5078474 24.218608 7.2324219 23.382812 A 1.0002021 1.0002021 0 1 0 6.3613281 21.582031C4.4729026 22.497236 2.9200221 23.559773 1.8027344 24.791016C0.68544659 26.022258 -1.4802974e-16 27.462631 0 29C0 30.705 0.83938775 32.281255 2.1835938 33.605469C3.5277996 34.929682 5.3896196 36.054599 7.6445312 36.994141C12.154355 38.873223 18.259914 40 25 40C31.740086 40 37.845645 38.873223 42.355469 36.994141C44.610381 36.054599 46.4722 34.929682 47.816406 33.605469C49.160612 32.281255 50 30.705 50 29C50 27.415111 49.271507 25.93585 48.091797 24.677734C46.912087 23.419619 45.27642 22.337784 43.287109 21.414062 A 1.0001 1.0001 0 0 0 42.800781 21.316406 z"/></svg>