<svg xmlns="http://www.w3.org/2000/svg" xmlns:xlink="http://www.w3.org/1999/xlink" viewBox="0 0 50 50"><path d="M44 9C42.3 9 41 10.3 41 12C41 13.7 42.3 15 44 15C45.7 15 47 13.7 47 12C47 10.3 45.7 9 44 9 z M 44 11C44.6 11 45 11.4 45 12C45 12.6 44.6 13 44 13C43.4 13 43 12.6 43 12C43 11.4 43.4 11 44 11 z M 14.300781 13C11.800781 13 10.299219 14.300391 10.199219 16.400391L12.300781 16.400391C12.400781 15.400391 13.099219 14.800781 14.199219 14.800781C15.299219 14.800781 16 15.400781 16 16.300781C16 17.200781 15.299219 17.800781 14.199219 17.800781L12.800781 17.800781C12.800781 17.800781 12.800391 19.500391 12.900391 19.400391L14.300781 19.400391C15.500781 19.400391 16.300781 20 16.300781 21C16.300781 21.9 15.500781 22.599609 14.300781 22.599609C13.100781 22.599609 12.299219 21.999609 12.199219 21.099609L10 21.099609C10.1 23.199609 11.800781 24.599609 14.300781 24.599609C16.900781 24.599609 18.699219 23.099219 18.699219 21.199219C18.699219 19.799219 17.699219 18.799609 16.199219 18.599609L16.199219 18.5C17.399219 18.3 18.199219 17.3 18.199219 16C18.199219 14.2 16.600781 13 14.300781 13 z M 25 13C22.1 13 20.400391 15.200391 20.400391 18.900391C20.400391 20.400391 20.700781 21.699609 21.300781 22.599609C22.100781 23.899609 23.4 24.599219 25 24.699219C27.4 24.699219 29.199219 23.100781 29.199219 20.800781C29.199219 18.700781 27.6 17.099609 25.5 17.099609C24.2 17.099609 23.199219 17.699219 22.699219 18.699219L22.599609 18.699219C22.599609 16.399219 23.5 14.900391 25 14.900391C25.9 14.900391 26.600781 15.399609 26.800781 16.099609L29.099609 16.099609C28.699609 14.199609 27.1 13 25 13 z M 35.599609 13C32.899609 13 31.199219 15.100781 31.199219 18.800781C31.199219 22.500781 32.899609 24.599609 35.599609 24.599609C38.299609 24.599609 40 22.500781 40 18.800781C40 15.100781 38.299609 13 35.599609 13 z M 35.5 14.900391C36.8 14.900391 37.599609 16.200781 37.599609 18.800781C37.599609 21.400781 36.9 22.700781 35.5 22.800781C34.2 22.800781 33.400391 21.400781 33.400391 18.800781C33.400391 16.200781 34.2 14.900391 35.5 14.900391 z M 25 18.800781C26.2 18.800781 27 19.700781 27 20.800781C27 21.900781 26.1 22.699219 25 22.699219C23.9 22.699219 23 21.799219 23 20.699219C23 19.599219 23.8 18.800781 25 18.800781 z M 43.507812 21.121094C42.883789 21.170898 42.275391 21.537109 41.900391 22.099609C41.300391 22.999609 41.699609 24.200781 42.599609 24.800781C43.899609 25.600781 46 27.2 46 29C46 32.8 37 37 25 37C13 37 4 32.8 4 29C4 27.2 5.9992187 25.699609 7.1992188 25.099609C8.0992187 24.499609 8.4007813 23.200781 7.8007812 22.300781C7.2007812 21.300781 6 20.999609 5 21.599609C0.9 24.199609 0 27.1 0 29C0 35.8 10.7 41 25 41C39.3 41 50 35.8 50 29C50 27 49.099609 24.100391 44.599609 21.400391C44.262109 21.175391 43.882227 21.091211 43.507812 21.121094 z"/></svg>