<svg xmlns="http://www.w3.org/2000/svg" xmlns:xlink="http://www.w3.org/1999/xlink" viewBox="0 0 50 50"><path d="M14 10C12.128906 10 8.585938 12.070313 2.3125 21.925781C1.996094 22.421875 1.929688 23.023438 2.097656 23.574219C2.035156 23.707031 2 23.851563 2 24L2 39C2 40.070313 2.863281 41 3.957031 41L19.992188 41C21.109375 41 22.125 40.332031 22.605469 39.324219C22.617188 39.300781 22.628906 39.277344 22.636719 39.25L24.523438 34.324219C24.648438 34.066406 24.8125 34 25 34C25.1875 34 25.351563 34.066406 25.476563 34.324219L27.363281 39.25C27.371094 39.277344 27.382813 39.300781 27.394531 39.324219C27.875 40.332031 28.890625 41 30.007813 41L46.042969 41C47.136719 41 48 40.070313 48 39L48 24C48 23.855469 47.96875 23.714844 47.90625 23.582031C48.0625 23.074219 48.015625 22.519531 47.753906 22.042969C44.757813 16.550781 40.460938 10 37 10C32 10 32 15.269531 32 17C32 17.027344 32 17.054688 32 17.082031C32.066406 18.65625 33.1875 21 36 21C36.496094 21 36.972656 20.851563 37.386719 20.578125C37.585938 21.382813 37.773438 22.203125 37.949219 23L28.828125 23C28.007813 23 27.441406 23.355469 26.941406 23.605469C26.445313 23.855469 26.007813 24 25.953125 24L24.042969 24C23.992188 24 23.554688 23.855469 23.058594 23.605469C22.558594 23.355469 21.992188 23 21.171875 23L12.121094 23C12.441406 22.0625 12.777344 21.097656 13.125 20.171875C13.5625 20.6875 14.164063 21 15 21C17.8125 21 18.933594 18.65625 19 17.082031C19 17.054688 19 17.027344 19 17C19 15.269531 19 10 14 10 Z M 14 12C17 12 17 15.082031 17 17C17 17 16.917969 19 15 19C14 19 14 15.582031 14 14C13.003906 14 10 23 10 23L4 23C4 23 11 12 14 12 Z M 37 12C40 12 46 23 46 23L40 23C40 23 38.082031 14 37 14C37 15.582031 37.082031 19 36 19C34.082031 19 34 17 34 17C34 15.082031 34 12 37 12 Z M 4 25L21.171875 25C21.226563 25 21.660156 25.144531 22.160156 25.394531C22.660156 25.644531 23.226563 26 24.042969 26L25.953125 26C26.773438 26 27.339844 25.644531 27.839844 25.394531C28.335938 25.144531 28.773438 25 28.828125 25L46 25L46 39L30.007813 39C29.679688 39 29.371094 38.808594 29.203125 38.464844L27.316406 33.535156C27.308594 33.511719 27.296875 33.484375 27.285156 33.460938C26.839844 32.53125 25.910156 32 25 32C24.089844 32 23.160156 32.53125 22.714844 33.460938C22.703125 33.484375 22.691406 33.511719 22.683594 33.535156L20.796875 38.464844C20.628906 38.808594 20.320313 39 19.992188 39L4 39 Z M 6.976563 27.03125C6.421875 27.03125 5.96875 27.464844 5.96875 28L5.96875 36.011719C5.96875 36.515625 6.476563 37.011719 7 37.011719L18 37.011719C18.503906 37.011719 18.839844 36.386719 19.03125 36.011719C19.960938 33.976563 20.230469 31.71875 21.21875 28.296875C21.414063 27.707031 21.261719 27.03125 19.988281 27.03125 Z M 29.972656 27.03125C28.699219 27.03125 28.550781 27.707031 28.746094 28.296875C29.734375 31.71875 29.996094 33.976563 30.925781 36.011719C31.121094 36.386719 31.457031 37.011719 31.964844 37.011719L42.964844 37.011719C43.484375 37.011719 43.996094 36.515625 43.996094 36.011719L43.996094 28C43.996094 27.464844 43.539063 27.03125 42.984375 27.03125 Z M 7.96875 29.03125L18.9375 29.03125C18.722656 29.859375 18.542969 30.609375 18.378906 31.300781C18.023438 32.785156 17.738281 33.972656 17.292969 35.011719L7.96875 35.011719 Z M 31.023438 29.03125L41.996094 29.03125L41.996094 35.011719L32.671875 35.011719C32.222656 33.972656 31.941406 32.785156 31.585938 31.300781C31.421875 30.609375 31.242188 29.859375 31.023438 29.03125Z"/></svg>