<svg xmlns="http://www.w3.org/2000/svg" xmlns:xlink="http://www.w3.org/1999/xlink" viewBox="0 0 50 50"><path d="M19.5 3C16.644 3 14.623047 4.6941719 14.623047 7.0761719C14.623047 8.7391719 15.618828 10.062328 17.173828 10.486328L17.173828 10.65625C15.259828 11.01525 14 12.561734 14 14.552734C14 17.167734 16.263 19 19.5 19C22.737 19 25 17.167734 25 14.552734C25 12.561734 23.741172 11.01425 21.826172 10.65625L21.826172 10.486328C23.402172 10.051328 24.375 8.7491719 24.375 7.0761719C24.375 4.6931719 22.355 3 19.5 3 z M 32.511719 3C29.034719 3 27 5.9531406 27 10.994141C27 16.076141 29.013719 19 32.511719 19C35.998719 19 38 16.099344 38 11.027344C38 5.9663438 35.966719 3 32.511719 3 z M 19.501953 4.6308594C21.309953 4.6308594 22.503906 5.6798125 22.503906 7.2578125C22.503906 8.8138125 21.299953 9.8515625 19.501953 9.8515625C17.703953 9.8515625 16.496094 8.8138125 16.496094 7.2578125C16.496094 5.6808125 17.693953 4.6308594 19.501953 4.6308594 z M 32.511719 4.6738281C34.782719 4.6738281 36.052734 6.9381406 36.052734 10.994141C36.052734 15.092141 34.803719 17.337891 32.511719 17.337891C30.219719 17.337891 28.949219 15.081141 28.949219 10.994141C28.949219 6.9601406 30.240719 4.6738281 32.511719 4.6738281 z M 43.507812 9C41.565812 9 40.211938 10.084391 40.210938 11.650391C40.210938 12.955391 40.954156 13.721562 42.535156 14.101562L43.996094 14.457031C44.779094 14.640031 45.132812 14.9475 45.132812 15.4375C45.132812 16.0775 44.478109 16.513672 43.537109 16.513672C42.604109 16.513672 42.02475 16.135141 41.84375 15.494141L40 15.494141C40.143 17.067141 41.437188 18 43.492188 18C45.547188 18 47 16.893422 47 15.232422C47 13.958422 46.270266 13.247953 44.697266 12.876953L43.244141 12.527344C42.417141 12.330344 42.025391 12.029063 42.025391 11.539062C42.025391 10.914062 42.665625 10.486328 43.515625 10.486328C44.388625 10.486328 44.936266 10.875375 45.072266 11.484375L46.826172 11.484375C46.690172 9.909375 45.464813 9 43.507812 9 z M 19.501953 11.460938C21.616953 11.460938 23.074219 12.668062 23.074219 14.414062C23.074219 16.162063 21.615953 17.368188 19.501953 17.367188C17.385953 17.367188 15.925781 16.161062 15.925781 14.414062C15.925781 12.668062 17.385953 11.460938 19.501953 11.460938 z M 2 23L2 25L2.0253906 25C2.5513906 37.22 12.653 47 25 47C37.347 47 47.448609 37.22 47.974609 25L48 25L48 23L35 23C35 28.514 30.514 33 25 33C19.486 33 15 28.514 15 23L2 23 z M 17 23C17 27.411 20.589 31 25 31C29.411 31 33 27.411 33 23L28.289062 23C28.199063 23.921 27.746172 24.555 27.326172 25C26.665172 25.699 25.804391 26 24.900391 26C23.997391 26 23.135562 25.699 22.476562 25C22.056562 24.556 21.600766 23.922 21.509766 23L17 23 z M 23.519531 23C23.571531 23.178 23.681687 23.364953 23.929688 23.626953C24.211688 23.926953 24.547391 24 24.900391 24C25.254391 24 25.589047 23.926953 25.873047 23.626953C26.121047 23.364953 26.22925 23.178 26.28125 23L23.519531 23 z"/></svg>