<svg xmlns="http://www.w3.org/2000/svg" xmlns:xlink="http://www.w3.org/1999/xlink" viewBox="0 0 50 50"><path d="M12 8C5.9365932 8 1 12.936593 1 19L1 41 A 1.0001 1.0001 0 0 0 2 42L38 42C44.063407 42 49 37.063407 49 31L49 9 A 1.0001 1.0001 0 0 0 48 8L12 8 z M 12 10L47 10L47 31C47 35.982593 42.982593 40 38 40L3 40L3 19C3 14.017407 7.0174068 10 12 10 z M 16.042969 18L10.882812 32L13.080078 32L14.484375 28L19.550781 28L20.955078 32L23.154297 32L17.994141 18L16.042969 18 z M 25 18L25 32L27 32L27 22.076172L31.181641 32L32.875 32L37 22.171875L37 32L39 32L39 18L36.703125 18L32.027344 29.224609L27.337891 18L25 18 z M 17.017578 20.765625L17.115234 21.037109L18.855469 26L15.181641 26L17.017578 20.765625 z"/></svg>