<svg xmlns="http://www.w3.org/2000/svg" xmlns:xlink="http://www.w3.org/1999/xlink" viewBox="0 0 50 50"><path d="M12 8C5.9365932 8 1 12.936593 1 19L1 41 A 1.0001 1.0001 0 0 0 2 42L38 42C44.063407 42 49 37.063407 49 31L49 9 A 1.0001 1.0001 0 0 0 48 8L12 8 z M 12 10L47 10L47 31C47 35.982593 42.982593 40 38 40L3 40L3 19C3 14.017407 7.0174068 10 12 10 z M 19.226562 17.689453C15.385562 17.689453 13.009766 20.498531 13.009766 25.019531C13.009766 29.535531 15.389328 32.339844 19.236328 32.339844C22.239328 32.339844 24.485031 30.662453 24.957031 28.064453L25 27.835938L22.882812 27.835938L22.84375 27.978516C22.43275 29.461516 21.049328 30.382812 19.236328 30.382812C16.713328 30.382812 15.15625 28.328531 15.15625 25.019531C15.15625 21.705531 16.710516 19.644531 19.228516 19.644531C21.023516 19.644531 22.407797 20.683422 22.841797 22.357422L22.880859 22.505859L24.994141 22.505859L24.960938 22.279297C24.539937 19.576297 22.181563 17.689453 19.226562 17.689453 z M 27 18L27 32L31.875 32C36.016 32 38.482422 29.383 38.482422 25C38.482422 20.623 36.016 18 31.875 18L27 18 z M 29 20L31.755859 20C34.681859 20 36.357422 21.826672 36.357422 25.013672C36.357422 28.182672 34.681859 30 31.755859 30L29 30L29 20 z"/></svg>