<svg xmlns="http://www.w3.org/2000/svg" xmlns:xlink="http://www.w3.org/1999/xlink" viewBox="0 0 50 50"><path d="M12 8C5.935 8 1 12.935 1 19L1 41C1 41.552 1.448 42 2 42L38 42C44.065 42 49 37.065 49 31L49 9C49 8.448 48.552 8 48 8L12 8 z M 19.226562 17.689453C22.181562 17.689453 24.538984 19.57725 24.958984 22.28125L24.994141 22.505859L22.880859 22.505859L22.841797 22.359375C22.407797 20.686375 21.023516 19.646484 19.228516 19.646484C16.711516 19.646484 15.15625 21.704531 15.15625 25.019531C15.15625 28.328531 16.713328 30.384766 19.236328 30.384766C21.049328 30.384766 22.43275 29.461516 22.84375 27.978516L22.882812 27.835938L25 27.835938L24.957031 28.064453C24.485031 30.661453 22.239328 32.339844 19.236328 32.339844C15.389328 32.339844 13.009766 29.535531 13.009766 25.019531C13.009766 20.498531 15.385563 17.689453 19.226562 17.689453 z M 27 18L31.875 18C36.016 18 38.482422 20.623 38.482422 25C38.482422 29.383 36.016 32 31.875 32L27 32L27 18 z M 29 20L29 30L31.755859 30C34.681859 30 36.357422 28.182672 36.357422 25.013672C36.357422 21.826672 34.681859 20 31.755859 20L29 20 z"/></svg>