<svg xmlns="http://www.w3.org/2000/svg" xmlns:xlink="http://www.w3.org/1999/xlink" viewBox="0 0 50 50"><path d="M25 2C12.309295 2 2 12.309295 2 25C2 37.690705 12.309295 48 25 48C37.690705 48 48 37.690705 48 25C48 12.309295 37.690705 2 25 2 z M 25 4C36.609824 4 46 13.390176 46 25C46 36.609824 36.609824 46 25 46C13.390176 46 4 36.609824 4 25C4 13.390176 13.390176 4 25 4 z M 21.53125 17C17.93725 17 16.912109 19.567484 16.912109 21.021484C16.912109 22.989484 18.452719 24.014484 19.136719 24.271484C18.280719 24.613484 16.398438 25.555031 16.398438 28.207031C16.398438 30.431031 17.768062 32.998047 21.789062 32.998047C23.329062 32.998047 27.007812 32.228031 27.007812 28.207031C27.007813 25.469031 25.124594 24.528484 24.183594 24.271484C24.782594 24.015484 26.322266 22.989484 26.322266 21.021484C26.322266 20.251484 26.06625 17 21.53125 17 z M 21.617188 18.710938C23.927188 18.710938 24.269531 20.337422 24.269531 21.107422C24.269531 21.963422 23.842125 23.673828 21.703125 23.673828C19.051125 23.673828 18.879859 21.535422 18.880859 21.107422C18.880859 20.764422 19.050187 18.710938 21.617188 18.710938 z M 32 21L32 24L29 24L29 26L32 26L32 29L34 29L34 26L37 26L37 24L34 24L34 21L32 21 z M 21.703125 25.298828C24.270125 25.298828 24.953125 27.610922 24.953125 28.294922C24.953125 29.748922 23.842125 31.373047 21.703125 31.373047C20.077125 31.373047 18.365234 30.519922 18.365234 28.294922C18.365234 27.010922 19.222125 25.298828 21.703125 25.298828 z"/></svg>