<svg xmlns="http://www.w3.org/2000/svg" xmlns:xlink="http://www.w3.org/1999/xlink" viewBox="0 0 50 50"><path d="M25,2C12.32,2,2,12.32,2,25s10.32,23,23,23s23-10.32,23-23S37.68,2,25,2z M21.79,33c-4.02,0-5.39-2.57-5.39-4.79 c0-2.65,1.88-3.6,2.74-3.94c-0.69-0.26-2.23-1.28-2.23-3.25c0-1.45,1.03-4.02,4.62-4.02c4.54,0,4.79,3.25,4.79,4.02 c0,1.97-1.54,3-2.14,3.25c0.95,0.26,2.83,1.2,2.83,3.94C27.01,32.23,23.33,33,21.79,33z M37,26h-3v3h-2v-3h-3v-2h3v-3h2v3h3V26z M21.7,25.3c-2.48,0-3.33,1.71-3.33,2.99c0,2.23,1.71,3.08,3.33,3.08c2.14,0,3.25-1.62,3.25-3.08C24.95,27.61,24.27,25.3,21.7,25.3z M21.7,23.67c2.14,0,2.57-1.71,2.57-2.56c0-0.77-0.34-2.4-2.65-2.4c-2.57,0-2.74,2.05-2.74,2.4C18.88,21.53,19.05,23.67,21.7,23.67z"/></svg>