<svg xmlns="http://www.w3.org/2000/svg" xmlns:xlink="http://www.w3.org/1999/xlink" viewBox="0 0 50 50"><path d="M12 8C5.9365932 8 1 12.936593 1 19L1 41 A 1.0001 1.0001 0 0 0 2 42L38 42C44.063407 42 49 37.063407 49 31L49 9 A 1.0001 1.0001 0 0 0 48 8L12 8 z M 12 10L47 10L47 31C47 35.982593 42.982593 40 38 40L3 40L3 19C3 14.017407 7.0174068 10 12 10 z M 13 18L13 32L15 32L15 26L21 26L21 24L15 24L15 20L21.625 20L21.625 18L13 18 z M 24 18L24 32L26 32L26 22.076172L30.181641 32L31.875 32L36 22.171875L36 32L38 32L38 18L35.703125 18L31.027344 29.224609L26.337891 18L24 18 z"/></svg>