<svg xmlns="http://www.w3.org/2000/svg" xmlns:xlink="http://www.w3.org/1999/xlink" viewBox="0 0 50 50"><path d="M12 8C5.935 8 1 12.935 1 19L1 41C1 41.552 1.448 42 2 42L38 42C44.065 42 49 37.065 49 31L49 9C49 8.448 48.552 8 48 8L12 8 z M 24.511719 18.75C27.896719 18.75 30 21.145 30 25C30 28.86 27.896719 31.257812 24.511719 31.257812C21.111719 31.257812 19 28.86 19 25C19 21.145 21.111719 18.75 24.511719 18.75 z M 9 19L13.607422 19C15.898422 19 17.5 20.614734 17.5 22.927734C17.5 25.174734 15.855797 26.806641 13.591797 26.806641L10.859375 26.806641L10.859375 31L9 31L9 19 z M 32 19L36.345703 19C39.886703 19 42 21.241094 42 24.996094C42 28.755094 39.886703 31 36.345703 31L32 31L32 19 z M 24.511719 20.345703C22.192719 20.345703 20.753906 22.129 20.753906 25C20.753906 27.876 22.193719 29.662109 24.511719 29.662109C26.815719 29.662109 28.246094 27.875 28.246094 25C28.246094 22.129 26.815719 20.345703 24.511719 20.345703 z M 10.857422 20.552734L10.857422 25.253906L13.224609 25.253906C14.823609 25.253906 15.740234 24.405734 15.740234 22.927734C15.741234 21.373734 14.870609 20.552734 13.224609 20.552734L10.857422 20.552734 z M 33.861328 20.568359L33.861328 29.431641L36.248047 29.431641C38.796047 29.431641 40.257813 27.819719 40.257812 25.011719C40.256813 22.188719 38.795047 20.568359 36.248047 20.568359L33.861328 20.568359 z"/></svg>