<svg xmlns="http://www.w3.org/2000/svg" xmlns:xlink="http://www.w3.org/1999/xlink" viewBox="0 0 50 50"><path d="M12 8C5.9365932 8 1 12.936593 1 19L1 41 A 1.0001 1.0001 0 0 0 2 42L38 42C44.063407 42 49 37.063407 49 31L49 9 A 1.0001 1.0001 0 0 0 48 8L12 8 z M 12 10L47 10L47 31C47 35.982593 42.982593 40 38 40L3 40L3 19C3 14.017407 7.0174068 10 12 10 z M 24.511719 18.75C21.111719 18.75 19 21.145 19 25C19 28.86 21.111719 31.257812 24.511719 31.257812C27.896719 31.257812 30 28.86 30 25C30 21.145 27.896719 18.75 24.511719 18.75 z M 9 19L9 31L10.859375 31L10.859375 26.806641L13.591797 26.806641C15.855797 26.806641 17.5 25.175734 17.5 22.927734C17.5 20.615734 15.899422 19 13.607422 19L9 19 z M 32 19L32 31L36.345703 31C39.886703 31 42 28.755094 42 24.996094C42 21.241094 39.886703 19 36.345703 19L32 19 z M 24.511719 20.345703C26.815719 20.345703 28.246094 22.129 28.246094 25C28.246094 27.876 26.815719 29.662109 24.511719 29.662109C22.192719 29.662109 20.753906 27.875 20.753906 25C20.753906 22.129 22.193719 20.345703 24.511719 20.345703 z M 10.859375 20.552734L13.226562 20.552734C14.871562 20.552734 15.742188 21.373734 15.742188 22.927734C15.742188 24.405734 14.825562 25.253906 13.226562 25.253906L10.859375 25.253906L10.859375 20.552734 z M 33.861328 20.568359L36.246094 20.568359C38.794094 20.568359 40.255859 22.188719 40.255859 25.011719C40.255859 27.819719 38.794094 29.431641 36.246094 29.431641L33.861328 29.431641L33.861328 20.568359 z"/></svg>