<svg xmlns="http://www.w3.org/2000/svg" xmlns:xlink="http://www.w3.org/1999/xlink" viewBox="0 0 50 50"><path d="M12 8C5.9365932 8 1 12.936593 1 19L1 41 A 1.0001 1.0001 0 0 0 2 42L38 42C44.063407 42 49 37.063407 49 31L49 9 A 1.0001 1.0001 0 0 0 48 8L12 8 z M 12 10L47 10L47 31C47 35.982593 42.982593 40 38 40L3 40L3 19C3 14.017407 7.0174068 10 12 10 z M 14.908203 18.734375C12.357203 18.734375 10.642578 20.125312 10.642578 22.195312C10.642578 23.915312 11.608438 24.926609 13.773438 25.474609L15.275391 25.863281C16.832391 26.254281 17.527344 26.84625 17.527344 27.78125C17.527344 28.87525 16.430969 29.669922 14.917969 29.669922C13.306969 29.669922 12.199297 28.942484 12.029297 27.771484L12.013672 27.664062L10.294922 27.664062L10.304688 27.798828C10.464688 29.895828 12.22225 31.251953 14.78125 31.251953C17.51525 31.251953 19.28125 29.819516 19.28125 27.603516C19.27925 25.815516 18.266156 24.832938 15.785156 24.210938L14.558594 23.884766C13.001594 23.485766 12.394531 22.998484 12.394531 22.146484C12.394531 21.028484 13.362375 20.306641 14.859375 20.306641C16.252375 20.306641 17.200578 20.984141 17.392578 22.119141L17.408203 22.222656L19.117188 22.222656L19.107422 22.089844C18.980422 20.113844 17.254203 18.734375 14.908203 18.734375 z M 24.892578 19L20.53125 30.832031L20.46875 31L22.275391 31L23.457031 27.636719L27.953125 27.636719L29.134766 31L30.941406 31L26.517578 19L24.892578 19 z M 30.224609 19L30.224609 20.720703L34 20.720703L34 31L35.828125 31L35.828125 20.720703L39.513672 20.720703L39.513672 19L30.224609 19 z M 25.705078 21.214844L27.384766 26L24.025391 26L25.705078 21.214844 z"/></svg>