<svg xmlns="http://www.w3.org/2000/svg" xmlns:xlink="http://www.w3.org/1999/xlink" viewBox="0 0 50 50"><path d="M12 8C5.935 8 1 12.935 1 19L1 41C1 41.552 1.447 42 2 42L38 42C44.065 42 49 37.065 49 31L49 9C49 8.448 48.553 8 48 8L12 8 z M 14.904297 18.732422C17.250297 18.732422 18.977469 20.113844 19.105469 22.089844L19.113281 22.222656L17.40625 22.222656L17.388672 22.117188C17.196672 20.982187 16.251422 20.306641 14.857422 20.306641C13.360422 20.306641 12.392578 21.028484 12.392578 22.146484C12.392578 22.998484 12.997687 23.485766 14.554688 23.884766L15.78125 24.208984C18.26225 24.830984 19.275391 25.814563 19.275391 27.601562C19.278391 29.818563 17.511344 31.25 14.777344 31.25C12.218344 31.25 10.462734 29.895828 10.302734 27.798828L10.291016 27.664062L12.011719 27.664062L12.025391 27.771484C12.195391 28.942484 13.303062 29.669922 14.914062 29.669922C16.427062 29.669922 17.525391 28.874297 17.525391 27.779297C17.525391 26.845297 16.830437 26.255281 15.273438 25.863281L13.769531 25.472656C11.605531 24.925656 10.640625 23.914359 10.640625 22.193359C10.640625 20.123359 12.353297 18.732422 14.904297 18.732422 z M 24.892578 19L26.517578 19L30.941406 31L29.134766 31L27.953125 27.636719L23.457031 27.636719L22.275391 31L20.46875 31L20.53125 30.832031L24.892578 19 z M 30.224609 19L39.513672 19L39.513672 20.720703L35.826172 20.720703L35.826172 31L34 31L34 20.720703L30.224609 20.720703L30.224609 19 z M 25.705078 21.214844L24.025391 26L27.384766 26L25.705078 21.214844 z"/></svg>