<svg xmlns="http://www.w3.org/2000/svg" xmlns:xlink="http://www.w3.org/1999/xlink" viewBox="0 0 50 50"><path d="M12.009766 8C5.9463584 8 1.0097656 12.936593 1.0097656 19L1.0097656 41 A 1.0001 1.0001 0 0 0 2.0097656 42L38 42C44.063407 42 49 37.063407 49 31L49 9 A 1.0001 1.0001 0 0 0 48 8L12.009766 8 z M 12.009766 10L47 10L47 31C47 35.982593 42.982593 40 38 40L3.0097656 40L3.0097656 19C3.0097656 14.017407 7.027172 10 12.009766 10 z M 14.365234 18.734375C11.814234 18.734375 10.101562 20.125312 10.101562 22.195312C10.101562 23.915312 11.066469 24.925656 13.230469 25.472656L14.732422 25.863281C16.289422 26.254281 16.984375 26.845297 16.984375 27.779297C16.984375 28.873297 15.886047 29.667969 14.373047 29.667969C12.762047 29.667969 11.656328 28.940531 11.486328 27.769531L11.470703 27.662109L9.7519531 27.662109L9.7617188 27.796875C9.9217188 29.893875 11.677328 31.246094 14.236328 31.246094C16.969328 31.246094 18.736328 29.815609 18.736328 27.599609C18.735328 25.813609 17.723188 24.830984 15.242188 24.208984L14.015625 23.884766C12.459625 23.485766 11.853516 22.998484 11.853516 22.146484C11.853516 21.028484 12.821359 20.306641 14.318359 20.306641C15.711359 20.306641 16.658609 20.982187 16.849609 22.117188L16.865234 22.222656L18.574219 22.222656L18.564453 22.089844C18.437453 20.113844 16.710234 18.734375 14.365234 18.734375 z M 20.234375 19L20.234375 20.720703L24 20.720703L24 31L25.837891 31L25.837891 20.720703L29.521484 20.720703L29.521484 19L20.234375 19 z M 31.189453 19L31.189453 31L33 31L33 26.349609L35.683594 26.349609L38.191406 31L40.189453 31L37.447266 26.068359C38.889266 25.550359 39.744141 24.275953 39.744141 22.626953C39.744141 20.457953 38.194719 19 35.886719 19L31.189453 19 z M 33 20.552734L35.691406 20.552734C37.128406 20.553734 37.986328 21.346781 37.986328 22.675781C37.986328 24.044781 37.194813 24.796875 35.757812 24.796875L33 24.796875L33 20.552734 z"/></svg>