<svg xmlns="http://www.w3.org/2000/svg" xmlns:xlink="http://www.w3.org/1999/xlink" viewBox="0 0 50 50"><path d="M12.009766 8C5.9447656 8 1.0097656 12.935 1.0097656 19L1.0097656 41C1.0097656 41.552 1.4567656 42 2.0097656 42L38 42C44.065 42 49 37.065 49 31L49 9C49 8.448 48.553 8 48 8L12.009766 8 z M 14.365234 18.734375C16.710234 18.734375 18.437453 20.113844 18.564453 22.089844L18.572266 22.222656L16.865234 22.222656L16.847656 22.119141C16.655656 20.985141 15.709406 20.306641 14.316406 20.306641C12.819406 20.306641 11.851563 21.028484 11.851562 22.146484C11.851562 22.998484 12.458625 23.485766 14.015625 23.884766L15.242188 24.210938C17.723188 24.832937 18.736328 25.814563 18.736328 27.601562C18.736328 29.816562 16.969328 31.248047 14.236328 31.248047C11.678328 31.248047 9.9217187 29.892875 9.7617188 27.796875L9.7519531 27.662109L11.470703 27.662109L11.486328 27.769531C11.656328 28.940531 12.762047 29.667969 14.373047 29.667969C15.886047 29.667969 16.984375 28.873297 16.984375 27.779297C16.984375 26.845297 16.290422 26.254281 14.732422 25.863281L13.230469 25.474609C11.066469 24.927609 10.101563 23.915312 10.101562 22.195312C10.101562 20.125312 11.815234 18.734375 14.365234 18.734375 z M 20.234375 19L29.521484 19L29.521484 20.720703L25.835938 20.720703L25.835938 31L24 31L24 20.720703L20.234375 20.720703L20.234375 19 z M 31.189453 19L35.886719 19C38.194719 19 39.744141 20.457953 39.744141 22.626953C39.744141 24.274953 38.889266 25.550359 37.447266 26.068359L40.189453 31L38.191406 31L35.683594 26.349609L33 26.349609L33 31L31.189453 31L31.189453 19 z M 33 20.552734L33 24.798828L35.757812 24.798828C37.195813 24.798828 37.986328 24.043781 37.986328 22.675781C37.986328 21.345781 37.128406 20.552734 35.691406 20.552734L33 20.552734 z"/></svg>