<svg xmlns="http://www.w3.org/2000/svg" xmlns:xlink="http://www.w3.org/1999/xlink" viewBox="0 0 50 50"><path d="M0 7L0 39L50 39L50 7 Z M 2 9L48 9L48 37L2 37 Z M 19 17C19 18.667969 18.3125 19.226563 17.550781 19.605469C16.792969 19.984375 16 20 16 20L16 22C16 22 17.207031 22.015625 18.449219 21.394531C18.632813 21.300781 18.816406 21.1875 19 21.058594L19 30L21 30L21 17 Z M 31 17L25 25L25 27L31 27L31 30L33 30L33 27L34 27L34 25L33 25L33 17 Z M 31 20.332031L31 25L27.5 25 Z M 11 41C10.640625 40.996094 10.304688 41.183594 10.121094 41.496094C9.941406 41.808594 9.941406 42.191406 10.121094 42.503906C10.304688 42.816406 10.640625 43.003906 11 43L39 43C39.359375 43.003906 39.695313 42.816406 39.878906 42.503906C40.058594 42.191406 40.058594 41.808594 39.878906 41.496094C39.695313 41.183594 39.359375 40.996094 39 41Z"/></svg>