<svg xmlns="http://www.w3.org/2000/svg" xmlns:xlink="http://www.w3.org/1999/xlink" viewBox="0 0 50 50"><path d="M0 7L0 39L50 39L50 7 Z M 19 17L21 17L21 30L19 30L19 21.089844C17.996094 21.765625 16.824219 22 16 22L15.996094 20C16.496094 19.992188 19 19.824219 19 17 Z M 31 17L33 17L33 25L34 25L34 27L33 27L33 30L31 30L31 27L25 27L25 25 Z M 31 20.332031L27.5 25L31 25 Z M 11 41C10.445313 41 10 41.445313 10 42C10 42.554688 10.445313 43 11 43L39 43C39.554688 43 40 42.554688 40 42C40 41.445313 39.554688 41 39 41Z"/></svg>