<svg xmlns="http://www.w3.org/2000/svg" xmlns:xlink="http://www.w3.org/1999/xlink" viewBox="0 0 50 50"><path d="M0 7L0 39L50 39L50 7 Z M 24 17C26.492188 17 28.632813 18.652344 29.535156 21L27.324219 21C26.601563 19.796875 25.382813 19 24 19C21.792969 19 20 21.019531 20 23.5C20 25.980469 21.792969 28 24 28C25.378906 28 26.574219 27.199219 27.289063 26L25 26L25 24L30 24L30 30L28 30L28 28.332031C26.9375 29.367188 25.539063 30 24 30C20.691406 30 18 27.085938 18 23.5C18 19.914063 20.691406 17 24 17 Z M 11 41C10.640625 40.996094 10.304688 41.183594 10.121094 41.496094C9.941406 41.808594 9.941406 42.191406 10.121094 42.503906C10.304688 42.816406 10.640625 43.003906 11 43L39 43C39.359375 43.003906 39.695313 42.816406 39.878906 42.503906C40.058594 42.191406 40.058594 41.808594 39.878906 41.496094C39.695313 41.183594 39.359375 40.996094 39 41Z"/></svg>