<svg xmlns="http://www.w3.org/2000/svg" xmlns:xlink="http://www.w3.org/1999/xlink" viewBox="0 0 50 50"><path d="M0 7L0 39L50 39L50 7 Z M 2 9L48 9L48 37L2 37 Z M 12 17L12 30L14 30L14 20.449219L18.28125 30L19.644531 30L24 20.417969L24 30L26 30L26 17L23.355469 17L18.96875 26.644531L14.648438 17 Z M 32.277344 17L28 29.964844L28 30L30.09375 30L31.082031 27L35.917969 27L36.90625 30L39 30L39 29.964844L34.722656 17 Z M 33.5 19.675781L35.253906 25L31.746094 25 Z M 11 41C10.640625 40.996094 10.304688 41.183594 10.121094 41.496094C9.941406 41.808594 9.941406 42.191406 10.121094 42.503906C10.304688 42.816406 10.640625 43.003906 11 43L39 43C39.359375 43.003906 39.695313 42.816406 39.878906 42.503906C40.058594 42.191406 40.058594 41.808594 39.878906 41.496094C39.695313 41.183594 39.359375 40.996094 39 41Z"/></svg>