<svg xmlns="http://www.w3.org/2000/svg" xmlns:xlink="http://www.w3.org/1999/xlink" viewBox="0 0 50 50"><path d="M0 7L0 39L50 39L50 7 Z M 12 17L14.644531 17L18.96875 26.644531L23.355469 17L26 17L26 30L24 30L24 20.417969L19.644531 30L18.355469 30L18.015625 29.40625L14 20.445313L14 30L12 30 Z M 32.277344 17L34.722656 17L39 29.964844L39 30L36.90625 30L35.917969 27L31.082031 27L30.09375 30L28 30L28 29.964844 Z M 33.5 19.675781L31.746094 25L35.253906 25 Z M 11 41C10.640625 40.996094 10.304688 41.183594 10.121094 41.496094C9.941406 41.808594 9.941406 42.191406 10.121094 42.503906C10.304688 42.816406 10.640625 43.003906 11 43L39 43C39.359375 43.003906 39.695313 42.816406 39.878906 42.503906C40.058594 42.191406 40.058594 41.808594 39.878906 41.496094C39.695313 41.183594 39.359375 40.996094 39 41Z"/></svg>