<svg xmlns="http://www.w3.org/2000/svg" xmlns:xlink="http://www.w3.org/1999/xlink" viewBox="0 0 50 50"><path d="M0 9L0 41L50 41L50 9 Z M 25 17C25.601563 17 26 17.398438 26 18L26 26C26 26.601563 25.601563 27 25 27C24.398438 27 24 26.601563 24 26L24 18C24 17.398438 24.398438 17 25 17 Z M 20.78125 18.25C21.175781 18.171875 21.585938 18.292969 21.8125 18.59375C22.113281 19.09375 21.992188 19.699219 21.59375 20C19.992188 21.199219 19 23 19 25C19 28.300781 21.699219 31 25 31C28.300781 31 31 28.300781 31 25C31 23 30.007813 21.195313 28.40625 20.09375C27.90625 19.792969 27.789063 19.1875 28.1875 18.6875C28.488281 18.1875 29.09375 18.101563 29.59375 18.5C31.695313 20 33 22.492188 33 25.09375C33 29.394531 29.398438 33 25 33C20.601563 33 17 29.398438 17 25C17 22.398438 18.304688 19.90625 20.40625 18.40625C20.53125 18.332031 20.648438 18.277344 20.78125 18.25 Z M 10.8125 43C10.261719 43.050781 9.855469 43.542969 9.90625 44.09375C9.957031 44.644531 10.449219 45.050781 11 45L39 45C39.359375 45.003906 39.695313 44.816406 39.878906 44.503906C40.058594 44.191406 40.058594 43.808594 39.878906 43.496094C39.695313 43.183594 39.359375 42.996094 39 43L11 43C10.96875 43 10.9375 43 10.90625 43C10.875 43 10.84375 43 10.8125 43Z"/></svg>