<svg xmlns="http://www.w3.org/2000/svg" xmlns:xlink="http://www.w3.org/1999/xlink" viewBox="0 0 50 50"><path d="M0 9L0 41L50 41L50 9 Z M 2 11L48 11L48 39L2 39 Z M 24.90625 16.96875C24.863281 16.976563 24.820313 16.988281 24.78125 17C24.316406 17.105469 23.988281 17.523438 24 18L24 26C23.996094 26.359375 24.183594 26.695313 24.496094 26.878906C24.808594 27.058594 25.191406 27.058594 25.503906 26.878906C25.816406 26.695313 26.003906 26.359375 26 26L26 18C26.011719 17.710938 25.894531 17.433594 25.6875 17.238281C25.476563 17.039063 25.191406 16.941406 24.90625 16.96875 Z M 21 18.21875C20.945313 18.226563 20.894531 18.234375 20.84375 18.25C20.695313 18.28125 20.558594 18.34375 20.4375 18.4375C18.367188 19.882813 17 22.289063 17 25C17 29.40625 20.59375 33 25 33C29.40625 33 33 29.40625 33 25C33 22.289063 31.632813 19.882813 29.5625 18.4375C29.105469 18.125 28.484375 18.246094 28.171875 18.703125C27.859375 19.160156 27.980469 19.78125 28.4375 20.09375C29.992188 21.179688 31 22.953125 31 25C31 28.324219 28.324219 31 25 31C21.675781 31 19 28.324219 19 25C19 22.953125 20.007813 21.179688 21.5625 20.09375C21.976563 19.867188 22.179688 19.382813 22.042969 18.929688C21.90625 18.476563 21.472656 18.179688 21 18.21875 Z M 10.8125 43C10.261719 43.050781 9.855469 43.542969 9.90625 44.09375C9.957031 44.644531 10.449219 45.050781 11 45L39 45C39.359375 45.003906 39.695313 44.816406 39.878906 44.503906C40.058594 44.191406 40.058594 43.808594 39.878906 43.496094C39.695313 43.183594 39.359375 42.996094 39 43L11 43C10.96875 43 10.9375 43 10.90625 43C10.875 43 10.84375 43 10.8125 43Z"/></svg>