<svg xmlns="http://www.w3.org/2000/svg" xmlns:xlink="http://www.w3.org/1999/xlink" viewBox="0 0 50 50"><path d="M0 7L0 39L50 39L50 7 Z M 2 9L48 9L48 37L2 37 Z M 14 17L14 30L16 30L16 26L18.5 26C20.617188 26 22.328125 24.480469 22.796875 22.5L23 22.5L23 21.5C23 19.03125 20.96875 17 18.5 17 Z M 31 17C27.691406 17 25 19.914063 25 23.5C25 27.085938 27.691406 30 31 30C32.539063 30 33.9375 29.367188 35 28.332031L35 30L37 30L37 24L32 24L32 26L34.289063 26C33.574219 27.199219 32.378906 28 31 28C28.792969 28 27 25.980469 27 23.5C27 21.019531 28.792969 19 31 19C32.382813 19 33.601563 19.796875 34.324219 21L36.535156 21C35.632813 18.652344 33.492188 17 31 17 Z M 16 19L18.5 19C19.878906 19 21 20.121094 21 21.5C21 22.878906 19.878906 24 18.5 24L16 24 Z M 11 41C10.640625 40.996094 10.304688 41.183594 10.121094 41.496094C9.941406 41.808594 9.941406 42.191406 10.121094 42.503906C10.304688 42.816406 10.640625 43.003906 11 43L39 43C39.359375 43.003906 39.695313 42.816406 39.878906 42.503906C40.058594 42.191406 40.058594 41.808594 39.878906 41.496094C39.695313 41.183594 39.359375 40.996094 39 41Z"/></svg>