<svg xmlns="http://www.w3.org/2000/svg" xmlns:xlink="http://www.w3.org/1999/xlink" viewBox="0 0 50 50"><path d="M0 7L0 39L50 39L50 7 Z M 14 17L18.5 17C20.980469 17 23 19.019531 23 21.5C23 23.980469 20.980469 26 18.5 26L16 26L16 30L14 30 Z M 31 17C33.492188 17 35.632813 18.652344 36.535156 21L34.324219 21C33.601563 19.796875 32.382813 19 31 19C28.792969 19 27 21.019531 27 23.5C27 25.980469 28.792969 28 31 28C32.378906 28 33.574219 27.199219 34.289063 26L32 26L32 24L37 24L37 30L35 30L35 28.332031C33.9375 29.367188 32.539063 30 31 30C27.691406 30 25 27.085938 25 23.5C25 19.914063 27.691406 17 31 17 Z M 16 19L16 24L18.5 24C19.878906 24 21 22.878906 21 21.5C21 20.121094 19.878906 19 18.5 19 Z M 11 41C10.640625 40.996094 10.304688 41.183594 10.121094 41.496094C9.941406 41.808594 9.941406 42.191406 10.121094 42.503906C10.304688 42.816406 10.640625 43.003906 11 43L39 43C39.359375 43.003906 39.695313 42.816406 39.878906 42.503906C40.058594 42.191406 40.058594 41.808594 39.878906 41.496094C39.695313 41.183594 39.359375 40.996094 39 41Z"/></svg>