<svg xmlns="http://www.w3.org/2000/svg" xmlns:xlink="http://www.w3.org/1999/xlink" viewBox="0 0 50 50"><path d="M0 7L0 39L50 39L50 7 Z M 20 17L22.285156 17L25.03125 21.9375L27.777344 17L30.066406 17L26.03125 24.261719L26.03125 30L24.03125 30L24.03125 24.261719 Z M 11 41C10.640625 40.996094 10.304688 41.183594 10.121094 41.496094C9.941406 41.808594 9.941406 42.191406 10.121094 42.503906C10.304688 42.816406 10.640625 43.003906 11 43L39 43C39.359375 43.003906 39.695313 42.816406 39.878906 42.503906C40.058594 42.191406 40.058594 41.808594 39.878906 41.496094C39.695313 41.183594 39.359375 40.996094 39 41Z"/></svg>