<svg xmlns="http://www.w3.org/2000/svg" xmlns:xlink="http://www.w3.org/1999/xlink" viewBox="0 0 50 50"><path d="M0 7L0 39L50 39L50 7 Z M 2 9L48 9L48 37L2 37 Z M 14 17L18.03125 24.261719L18.03125 30L20.03125 30L20.03125 24.261719L24.0625 17L21.777344 17L19.03125 21.9375L16.285156 17 Z M 26 17L26 19L32.714844 19C31.738281 19.933594 28 23.707031 28 30L30 30C30 23.878906 34.65625 19.75 34.65625 19.75L35 19.453125L35 17 Z M 11 41C10.640625 40.996094 10.304688 41.183594 10.121094 41.496094C9.941406 41.808594 9.941406 42.191406 10.121094 42.503906C10.304688 42.816406 10.640625 43.003906 11 43L39 43C39.359375 43.003906 39.695313 42.816406 39.878906 42.503906C40.058594 42.191406 40.058594 41.808594 39.878906 41.496094C39.695313 41.183594 39.359375 40.996094 39 41Z"/></svg>