<svg xmlns="http://www.w3.org/2000/svg" xmlns:xlink="http://www.w3.org/1999/xlink" viewBox="0 0 50 50"><path d="M25 11C24.363281 11 24.195313 11.289063 24.03125 11.46875C23.867188 11.648438 23.753906 11.839844 23.625 12.0625C23.371094 12.507813 23.113281 13.089844 22.875 13.78125C22.652344 14.429688 22.464844 15.179688 22.3125 16L20 16C19.96875 16 19.9375 16 19.90625 16C19.875 16 19.84375 16 19.8125 16C19.261719 16.050781 18.855469 16.542969 18.90625 17.09375C18.957031 17.644531 19.449219 18.050781 20 18L22.0625 18C22.050781 18.167969 22.035156 18.328125 22.03125 18.5C20.179688 19.152344 18.652344 20.410156 17.78125 22L2.0625 22C0.941406 22 0 22.941406 0 24.0625C0 25.109375 0.804688 25.992188 1.84375 26.09375L7.78125 26.65625C7.292969 27.320313 7 28.121094 7 29C7 31.199219 8.800781 33 11 33C13.199219 33 15 31.199219 15 29C15 28.410156 14.859375 27.851563 14.625 27.34375L17.5 27.625C18.621094 30.558594 21.511719 33 25 33C28.488281 33 31.378906 30.558594 32.5 27.625L35.375 27.34375C35.140625 27.851563 35 28.410156 35 29C35 31.199219 36.800781 33 39 33C41.199219 33 43 31.199219 43 29C43 28.121094 42.707031 27.320313 42.21875 26.65625L48.15625 26.09375C49.195313 25.992188 50 25.109375 50 24.0625C50 22.941406 49.058594 22 47.9375 22L32.21875 22C31.347656 20.410156 29.820313 19.152344 27.96875 18.5C27.964844 18.328125 27.945313 18.167969 27.9375 18L30 18C30.359375 18.003906 30.695313 17.816406 30.878906 17.503906C31.058594 17.191406 31.058594 16.808594 30.878906 16.496094C30.695313 16.183594 30.359375 15.996094 30 16L27.71875 16C27.566406 15.105469 27.363281 14.292969 27.125 13.625C26.886719 12.949219 26.636719 12.421875 26.375 12C26.242188 11.789063 26.105469 11.609375 25.9375 11.4375C25.769531 11.265625 25.578125 11 25 11 Z M 25.03125 13.84375C25.105469 14.015625 25.175781 14.101563 25.25 14.3125C25.585938 15.253906 25.878906 16.558594 25.96875 18.0625C25.652344 18.027344 25.324219 18 25 18C24.675781 18 24.347656 18.027344 24.03125 18.0625C24.132813 16.683594 24.449219 15.40625 24.78125 14.4375C24.871094 14.179688 24.941406 14.050781 25.03125 13.84375 Z M 25 20C28.402344 20 31 22.316406 31 25C31 27.683594 28.230469 31 25 31C21.769531 31 19 27.683594 19 25C19 22.316406 21.597656 20 25 20 Z M 22 22L21 24L24 24L24 22 Z M 26 22L26 24L29 24L28 22 Z M 2.0625 24L17.09375 24C17.039063 24.328125 17 24.65625 17 25C17 25.183594 17.015625 25.378906 17.03125 25.5625L2.03125 24.09375C1.996094 24.089844 2 24.097656 2 24.0625C2 24.023438 2.023438 24 2.0625 24 Z M 32.90625 24L47.9375 24C47.976563 24 48 24.023438 48 24.0625C48 24.097656 48.003906 24.089844 47.96875 24.09375L32.96875 25.5625C32.984375 25.378906 33 25.183594 33 25C33 24.65625 32.960938 24.328125 32.90625 24 Z M 25 26C23.894531 26 23 26.894531 23 28C23 29.105469 23.894531 30 25 30C26.105469 30 27 29.105469 27 28C27 26.894531 26.105469 26 25 26 Z M 11 27C12.117188 27 13 27.882813 13 29C13 30.117188 12.117188 31 11 31C9.882813 31 9 30.117188 9 29C9 27.882813 9.882813 27 11 27 Z M 39 27C40.117188 27 41 27.882813 41 29C41 30.117188 40.117188 31 39 31C37.882813 31 37 30.117188 37 29C37 28.023438 37.675781 27.214844 38.59375 27.03125C38.726563 27.003906 38.859375 27 39 27Z"/></svg>