<svg xmlns="http://www.w3.org/2000/svg" xmlns:xlink="http://www.w3.org/1999/xlink" viewBox="0 0 50 50"><path d="M25 11C23.792969 11 22.792969 13.460938 22.3125 16L20 16C19.96875 16 19.9375 16 19.90625 16C19.355469 16.027344 18.925781 16.496094 18.953125 17.046875C18.980469 17.597656 19.449219 18.027344 20 18L22.0625 18C22.050781 18.175781 22.039063 18.332031 22.03125 18.5C19.097656 19.527344 17 22.035156 17 25C17 28.699219 20.5 33 25 33C29.5 33 33 28.699219 33 25C33 22.035156 30.902344 19.527344 27.96875 18.5C27.964844 18.332031 27.980469 18.167969 27.96875 18L30 18C30.359375 18.003906 30.695313 17.816406 30.878906 17.503906C31.058594 17.191406 31.058594 16.808594 30.878906 16.496094C30.695313 16.183594 30.359375 15.996094 30 16L27.75 16C27.285156 13.332031 26.242188 11 25 11 Z M 2 22C0.898438 22 0 22.898438 0 24C0 25.101563 0.8125 25.898438 1.8125 26L15.3125 27.3125C15.113281 26.613281 15 25.800781 15 25C15 23.898438 15.195313 22.898438 15.59375 22 Z M 22 22L24 22L24 24L21 24 Z M 26 22L28 22L29 24L26 24 Z M 34.40625 22C34.804688 22.898438 35 23.898438 35 25C35 25.800781 34.894531 26.605469 34.59375 27.40625L48.09375 26.09375C49.195313 25.992188 49.90625 25.09375 49.90625 24.09375C50.007813 22.894531 49.101563 22 48 22 Z M 25 26C26.101563 26 27 26.898438 27 28C27 29.101563 26.101563 30 25 30C23.898438 30 23 29.101563 23 28C23 26.898438 23.898438 26 25 26 Z M 11 27C9.300781 27 8 28.300781 8 30C8 31.699219 9.300781 33 11 33C12.699219 33 14 31.699219 14 30C14 28.300781 12.699219 27 11 27 Z M 39 27C37.300781 27 36 28.300781 36 30C36 31.699219 37.300781 33 39 33C40.699219 33 42 31.699219 42 30C42 28.300781 40.699219 27 39 27Z"/></svg>