<svg xmlns="http://www.w3.org/2000/svg" xmlns:xlink="http://www.w3.org/1999/xlink" viewBox="0 0 50 50"><path d="M17 3L19.857422 7L26.304688 7L21.375 3L17 3 z M 9 5L9 11C9 14.208 17.712531 14.84375 20.769531 14.96875L16 22L20.375 22L27.84375 15L37 15L39 15C39 15 41 14 39 12C37 10 35 9 31 9L28.767578 9L21.285156 9L13 9L11 5L9 5 z M 9.0820312 25C7.3820312 25 6 26.382031 6 28.082031L6 42.917969C6 44.617969 7.3820312 46 9.0820312 46L11.275391 46C11.896577 47.742275 13.547301 49 15.5 49C17.452699 49 19.103423 47.742275 19.724609 46L30.275391 46C30.896577 47.742275 32.547301 49 34.5 49C36.452699 49 38.103423 47.742275 38.724609 46L41.917969 46C43.617969 46 45 44.617969 45 42.917969L45 37.427734C45 36.724734 44.787766 36.047703 44.384766 35.470703L38.792969 27.474609C37.725969 26.086609 35.584969 25 33.917969 25L9.0820312 25 z M 34 30L38.121094 30L41.613281 35L34 35L34 30 z M 15.5 42C16.879 42 18 43.121 18 44.5C18 44.608 17.980937 44.713516 17.960938 44.853516C17.959851 44.860794 17.963814 44.867718 17.962891 44.875C17.780535 46.075446 16.750744 47 15.5 47C14.231926 47 13.193907 46.04899 13.033203 44.824219C13.032839 44.821641 13.033587 44.81898 13.033203 44.816406C13.019203 44.712406 13 44.608 13 44.5C13 44.327625 13.017436 44.158721 13.050781 43.996094C13.284201 42.857705 14.293375 42 15.5 42 z M 34.5 42C35.879 42 37 43.121 37 44.5C37 44.608 36.980937 44.713516 36.960938 44.853516C36.959851 44.860794 36.963814 44.867718 36.962891 44.875C36.780535 46.075446 35.750744 47 34.5 47C33.231926 47 32.193907 46.04899 32.033203 44.824219C32.032839 44.821641 32.033587 44.81898 32.033203 44.816406C32.019203 44.712406 32 44.608 32 44.5C32 44.327625 32.017436 44.158721 32.050781 43.996094C32.284201 42.857705 33.293375 42 34.5 42 z"/></svg>