<svg xmlns="http://www.w3.org/2000/svg" xmlns:xlink="http://www.w3.org/1999/xlink" viewBox="0 0 50 50"><path d="M25.90625 -0.03125C25.863281 -0.0234375 25.820313 -0.0117188 25.78125 0C25.316406 0.105469 24.988281 0.523438 25 1L25 3C24.996094 3.359375 25.183594 3.695313 25.496094 3.878906C25.808594 4.058594 26.191406 4.058594 26.503906 3.878906C26.816406 3.695313 27.003906 3.359375 27 3L27 1C27.011719 0.710938 26.894531 0.433594 26.6875 0.238281C26.476563 0.0390625 26.191406 -0.0585938 25.90625 -0.03125 Z M 18.71875 2.90625C18.34375 2.972656 18.042969 3.246094 17.9375 3.609375C17.832031 3.976563 17.941406 4.367188 18.21875 4.625L19.625 6.0625C20.023438 6.460938 20.664063 6.460938 21.0625 6.0625C21.460938 5.664063 21.460938 5.023438 21.0625 4.625L19.625 3.21875C19.4375 3.019531 19.179688 2.910156 18.90625 2.90625C18.875 2.90625 18.84375 2.90625 18.8125 2.90625C18.78125 2.90625 18.75 2.90625 18.71875 2.90625 Z M 32.96875 2.90625C32.742188 2.9375 32.53125 3.050781 32.375 3.21875L30.9375 4.625C30.539063 5.023438 30.539063 5.664063 30.9375 6.0625C31.335938 6.460938 31.976563 6.460938 32.375 6.0625L33.78125 4.625C34.078125 4.339844 34.167969 3.898438 34.007813 3.519531C33.851563 3.140625 33.472656 2.898438 33.0625 2.90625C33.03125 2.90625 33 2.90625 32.96875 2.90625 Z M 26 6C23.800781 6 22 7.800781 22 10L22 13L2.78125 13C1.269531 13 0 14.234375 0 15.75L0 40.25C0 41.765625 1.269531 43 2.78125 43L7 43C7 46.300781 9.699219 49 13 49C16.300781 49 19 46.300781 19 43L33 43C33 46.300781 35.699219 49 39 49C42.300781 49 45 46.300781 45 43L47.21875 43C48.730469 43 50 41.765625 50 40.25L50 33.25C50 32.148438 49.59375 31.15625 49.21875 30.40625C48.859375 29.691406 48.535156 29.234375 48.5 29.1875L48.46875 29.125L39.46875 15.21875C39.441406 15.175781 39.410156 15.132813 39.375 15.09375C38.984375 14.628906 38.628906 14.144531 38.09375 13.71875C37.558594 13.292969 36.820313 13 35.96875 13L30 13L30 10C30 7.800781 28.195313 6 26 6 Z M 26 8C27.117188 8 28 8.882813 28 10L28 13L24 13L24 10C24 8.882813 24.882813 8 26 8 Z M 15.71875 9C15.167969 9.078125 14.78125 9.589844 14.859375 10.140625C14.9375 10.691406 15.449219 11.078125 16 11L18 11C18.359375 11.003906 18.695313 10.816406 18.878906 10.503906C19.058594 10.191406 19.058594 9.808594 18.878906 9.496094C18.695313 9.183594 18.359375 8.996094 18 9L16 9C15.96875 9 15.9375 9 15.90625 9C15.875 9 15.84375 9 15.8125 9C15.78125 9 15.75 9 15.71875 9 Z M 33.71875 9C33.167969 9.078125 32.78125 9.589844 32.859375 10.140625C32.9375 10.691406 33.449219 11.078125 34 11L36 11C36.359375 11.003906 36.695313 10.816406 36.878906 10.503906C37.058594 10.191406 37.058594 9.808594 36.878906 9.496094C36.695313 9.183594 36.359375 8.996094 36 9L34 9C33.96875 9 33.9375 9 33.90625 9C33.875 9 33.84375 9 33.8125 9C33.78125 9 33.75 9 33.71875 9 Z M 2.78125 15L35.96875 15C36.417969 15 36.578125 15.101563 36.84375 15.3125C37.109375 15.523438 37.425781 15.90625 37.84375 16.40625L38.21875 17L32 17C31.96875 17 31.9375 17 31.90625 17C31.875 17 31.84375 17 31.8125 17C31.335938 17.089844 30.992188 17.511719 31 18L31 29C31 29.550781 31.449219 30 32 30L46.15625 30C46.308594 30.003906 46.457031 29.96875 46.59375 29.90625L46.8125 30.25C46.820313 30.269531 46.832031 30.292969 46.84375 30.3125C46.84375 30.3125 47.136719 30.710938 47.4375 31.3125C47.738281 31.914063 48 32.691406 48 33.25L48 40.25C48 40.664063 47.65625 41 47.21875 41L44.65625 41C43.832031 38.671875 41.605469 37 39 37C36.394531 37 34.167969 38.671875 33.34375 41L18.65625 41C17.832031 38.671875 15.605469 37 13 37C10.394531 37 8.167969 38.671875 7.34375 41L2.78125 41C2.34375 41 2 40.664063 2 40.25L2 15.75C2 15.335938 2.34375 15 2.78125 15 Z M 33 19L39.53125 19L45.34375 28L33 28 Z M 14 21L14 25L10 25L10 27L14 27L14 31L16 31L16 27L20 27L20 25L16 25L16 21 Z M 13 39C15.222656 39 17 40.777344 17 43C17 45.222656 15.222656 47 13 47C10.777344 47 9 45.222656 9 43C9 40.777344 10.777344 39 13 39 Z M 39 39C41.222656 39 43 40.777344 43 43C43 45.222656 41.222656 47 39 47C36.777344 47 35 45.222656 35 43C35 40.777344 36.777344 39 39 39Z"/></svg>