<svg xmlns="http://www.w3.org/2000/svg" xmlns:xlink="http://www.w3.org/1999/xlink" viewBox="0 0 24 24"><path d="M12 4.0039062L12 6.0039062L14.279297 6.0039062L14.703125 7.2753906C13.863666 7.6269618 13.207505 8.2574327 12.660156 8.7792969C11.858252 9.5438644 11.222405 10.003906 11 10.003906L8.2714844 10.003906C7.9999184 9.8422652 7.4439364 9.5182711 6.6191406 9.1191406C5.547355 8.6004881 4.2789173 8.0341755 3.0234375 8.0039062 A 1.0001 1.0001 0 0 0 2.5527344 8.109375C-0.00061796383 9.3860511 0.005859375 12.322266 0.005859375 12.322266 A 1.0001 1.0001 0 0 0 0.36132812 13.083984L1.6484375 14.171875C1.2505421 14.681275 1.0019531 15.312162 1.0019531 16.001953C1.0019531 17.64641 2.3555427 19 4 19C5.6437966 19 6.9969598 17.647469 6.9980469 16.003906L8.1523438 16.003906C8.2460959 16.425583 8.3332078 16.773315 8.4238281 17.207031 A 1.0001 1.0001 0 0 0 9.4023438 18.003906L13.601562 18.003906 A 1.0001 1.0001 0 0 0 14.580078 17.214844C14.675784 16.771679 14.786416 16.392578 14.894531 16.003906L17.001953 16.003906C17.00304 17.647469 18.356204 19 20 19C21.643796 19 22.99696 17.647469 22.998047 16.003906L23 16.003906 A 1.0001 1.0001 0 0 0 24 15.003906L24 12.003906C24 10.358936 22.64497 9.0039063 21 9.0039062L18.820312 9.0039062C18.773059 8.8588545 18.721412 8.7104007 18.644531 8.5566406C18.349895 7.9673686 17.685666 7.3370969 16.753906 7.1035156L15.949219 4.6875 A 1.0001 1.0001 0 0 0 15 4.0039062L12 4.0039062 z M 16 9.0039062C16.287131 9.0039062 16.448684 9.0433858 16.564453 9.1035156 A 1.0001 1.0001 0 0 0 16.412109 9.1933594C16.412109 9.1933594 15.6725 9.7547994 14.898438 10.939453C14.210663 11.992045 13.453383 13.699515 12.863281 16.003906L10.197266 16.003906C9.7761878 14.097432 9.4723402 12.870701 9.2617188 12.003906L11 12.003906C12.431595 12.003906 13.26967 10.961996 14.041016 10.226562C14.812362 9.491131 15.460592 9.0039062 16 9.0039062 z M 3.2734375 10.099609C3.8990999 10.188089 4.8801265 10.499923 5.7480469 10.919922C6.5252642 11.296029 6.904316 11.53192 7.1289062 11.666016C7.184698 11.885467 7.4170983 12.819434 7.6992188 14.003906L6.2128906 14.003906C5.6625335 13.394506 4.8770922 13.001953 4 13.001953C3.8058077 13.001953 3.6159705 13.022544 3.4316406 13.058594L2.0820312 11.919922C2.1275492 11.488601 2.3713534 10.706892 3.2734375 10.099609 z M 17.429688 11.003906L17.832031 11.003906 A 1.0001 1.0001 0 0 0 18.158203 11.003906L21 11.003906C21.56503 11.003906 22 11.438876 22 12.003906L22 13.789062C21.466952 13.305568 20.768741 13.001953 20 13.001953C19.122908 13.001953 18.337467 13.394506 17.787109 14.003906L15.556641 14.003906C15.903674 13.161909 16.259324 12.515128 16.574219 12.033203C17.109576 11.213874 17.332109 11.07974 17.429688 11.003906 z M 4 15.001953C4.5635771 15.001953 4.9980469 15.438376 4.9980469 16.001953C4.9980469 16.56553 4.5635771 17 4 17C3.4364229 17 3.0019531 16.56553 3.0019531 16.001953C3.0019531 15.438376 3.4364229 15.001953 4 15.001953 z M 20 15.001953C20.563577 15.001953 20.998047 15.438376 20.998047 16.001953C20.998047 16.56553 20.563577 17 20 17C19.436423 17 19.001953 16.56553 19.001953 16.001953C19.001953 15.438376 19.436423 15.001953 20 15.001953 z"/></svg>