<svg xmlns="http://www.w3.org/2000/svg" xmlns:xlink="http://www.w3.org/1999/xlink" viewBox="0 0 50 50"><path d="M10.787109 4.0078125C10.211109 4.0078125 9.6573437 4.2623125 9.2773438 4.6953125L2.6425781 12.265625C2.2365781 12.728625 2.0675937 13.352031 2.1835938 13.957031L5.7148438 32.5C5.8838437 33.385 6.6234844 34.048141 7.5214844 34.119141L10.017578 34.316406L12.019531 34.474609C11.696531 35.430609 11.515625 36.450672 11.515625 37.513672C11.515625 42.775672 15.796594 47.056641 21.058594 47.056641C26.320594 47.056641 30.599609 42.775672 30.599609 37.513672C30.599609 36.972672 30.544031 36.446687 30.457031 35.929688L32.460938 36.087891L42.894531 36.912109C42.947531 36.916109 42.999734 36.917969 43.052734 36.917969C43.682734 36.917969 44.281156 36.619422 44.660156 36.107422L47.478516 32.302734C47.823516 31.837734 47.948219 31.250594 47.824219 30.683594C46.788219 25.947594 40.455406 4.4498125 10.816406 4.0078125L10.787109 4.0078125 z M 10.792969 6.0078125C13.202969 6.0438125 15.499359 6.2297813 17.693359 6.5507812L15.425781 10.189453C14.518781 12.003453 14.479359 14.105125 15.318359 15.953125C16.156359 17.801125 17.762797 19.154062 19.716797 19.664062L44.353516 26.337891C45.196516 28.396891 45.647141 30.100281 45.869141 31.113281L43.052734 34.919922L32.617188 34.095703L29.876953 33.878906C28.443953 30.415906 25.032594 27.972656 21.058594 27.972656C17.620594 27.972656 14.609688 29.806016 12.929688 32.541016L10.175781 32.322266L7.6796875 32.126953L4.1464844 13.583984L10.792969 6.0078125 z M 19.822266 6.9179688C27.554266 8.4309688 33.838547 11.823266 38.560547 17.072266C40.649547 19.394266 42.165531 21.790656 43.269531 23.972656L20.230469 17.732422C18.853469 17.373422 17.726672 16.424906 17.138672 15.128906C16.550672 13.832906 16.578922 12.357969 17.169922 11.167969L19.822266 6.9179688 z M 21.058594 29.972656C25.216594 29.972656 28.599609 33.356625 28.599609 37.515625C28.599609 41.674625 25.216594 45.058594 21.058594 45.058594C16.899594 45.058594 13.515625 41.674625 13.515625 37.515625C13.515625 33.356625 16.899594 29.972656 21.058594 29.972656 z M 21.056641 35.542969 A 1.971 1.971 0 0 0 19.085938 37.513672 A 1.971 1.971 0 0 0 21.056641 39.484375 A 1.971 1.971 0 0 0 23.027344 37.513672 A 1.971 1.971 0 0 0 21.056641 35.542969 z"/></svg>