<svg xmlns="http://www.w3.org/2000/svg" xmlns:xlink="http://www.w3.org/1999/xlink" viewBox="0 0 30 30"><path d="M19 4 A 1.0001 1.0001 0 0 0 18.058594 5.3359375L19.367188 9L10.414062 9L9.7949219 8L11 8 A 1.0001 1.0001 0 1 0 11 6L8.1425781 6 A 1.0001 1.0001 0 0 0 8.0234375 5.9882812 A 1.0001 1.0001 0 0 0 7.8398438 6L7 6 A 1.0001 1.0001 0 1 0 7 8L7.4433594 8L8.8125 10.210938L7.4863281 13.195312C7.0096806 13.072551 6.5137723 13 6 13C2.6981361 13 0 15.698136 0 19C0 22.301864 2.6981361 25 6 25C8.9603849 25 11.427922 22.82834 11.908203 20L15.416016 20 A 1.0007938 1.0007938 0 0 0 15.433594 20 A 1.0001 1.0001 0 0 0 15.441406 20 A 1.0007938 1.0007938 0 0 0 15.632812 19.980469 A 1.0001 1.0001 0 0 0 15.644531 19.976562 A 1.0007938 1.0007938 0 0 0 15.728516 19.955078 A 1.0001 1.0001 0 0 0 15.808594 19.927734 A 1.0007938 1.0007938 0 0 0 15.822266 19.921875 A 1.0001 1.0001 0 0 0 15.832031 19.917969 A 1.0007938 1.0007938 0 0 0 15.912109 19.876953 A 1.0001 1.0001 0 0 0 15.972656 19.841797 A 1.0007938 1.0007938 0 0 0 15.984375 19.833984 A 1.0001 1.0001 0 0 0 16.138672 19.708984 A 1.0007938 1.0007938 0 0 0 16.150391 19.697266 A 1.0001 1.0001 0 0 0 16.166016 19.677734 A 1.0007938 1.0007938 0 0 0 16.216797 19.621094 A 1.0001 1.0001 0 0 0 16.265625 19.554688 A 1.0007938 1.0007938 0 0 0 16.267578 19.552734 A 1.0001 1.0001 0 0 0 16.316406 19.46875 A 1.0007938 1.0007938 0 0 0 16.324219 19.453125 A 1.0001 1.0001 0 0 0 16.332031 19.439453L20.238281 11.441406L21.070312 13.771484C19.241926 14.802189 18 16.760917 18 19C18 22.301864 20.698136 25 24 25C27.301864 25 30 22.301864 30 19C30 15.698136 27.301864 13 24 13C23.642302 13 23.29399 13.036989 22.953125 13.097656L20.417969 6L22 6 A 1.0001 1.0001 0 1 0 22 4L19 4 z M 11.654297 11L18.226562 11L15.330078 16.933594L11.654297 11 z M 10.085938 12.267578L13.636719 18L11.908203 18C11.626418 16.340588 10.664706 14.906428 9.3144531 14.005859L10.085938 12.267578 z M 6 15C6.224635 15 6.4400877 15.029439 6.6542969 15.064453L5.0859375 18.59375 A 1.0001 1.0001 0 0 0 6 20L9.8613281 20C9.4188032 21.72841 7.8729191 23 6 23C3.7790164 23 2 21.220984 2 19C2 16.779016 3.7790164 15 6 15 z M 24 15C26.220984 15 28 16.779016 28 19C28 21.220984 26.220984 23 24 23C21.779016 23 20 21.220984 20 19C20 17.613879 20.693063 16.400396 21.753906 15.683594L23.058594 19.335938 A 1.0001 1.0001 0 1 0 24.941406 18.664062L23.644531 15.035156C23.763685 15.024634 23.877955 15 24 15 z M 8.4824219 15.878906C9.1509504 16.410155 9.6423248 17.144619 9.8613281 18L7.5390625 18L8.4824219 15.878906 z"/></svg>