<svg xmlns="http://www.w3.org/2000/svg" xmlns:xlink="http://www.w3.org/1999/xlink" viewBox="0 0 50 50"><path d="M28.990234 8.9902344 A 1.0001 1.0001 0 0 0 28.292969 10.707031C28.792969 11.207031 29.408209 11.706707 30.335938 11.861328C31.103608 11.989273 32.463831 11.976538 34.195312 11.976562C34.213152 12.051354 34.221738 12.094822 34.242188 12.179688C34.379933 12.751336 34.575892 13.54653 34.810547 14.492188C34.931761 14.980681 35.114476 15.707504 35.253906 16.265625L24.236328 22.199219L16.617188 13.986328C18.947358 13.915752 20 13.208649 20 12.546875C20 11.949875 19.5 12 18.625 12L12 12C11.448 12 11 12.448 11 13L11 13.443359C11 14.671359 11.375 15 12 15C12.577083 15 13.373767 14.66838 14.257812 14.384766L22.416016 23.177734L18.238281 25.427734C16.443355 22.770971 13.440142 21 10 21C4.486 21 0 25.486 0 31C0 36.514 4.486 41 10 41C13.186027 41 14.789435 40.254405 16.662109 39.292969C17.799395 40.948882 20.049728 41.4946 21.820312 40.480469L23.496094 39.521484 A 1.0001 1.0001 0 0 0 23.865234 38.150391L23.681641 37.833984L25.46875 36.882812 A 1.0001 1.0001 0 0 0 24.980469 34.994141 A 1.0001 1.0001 0 0 0 24.53125 35.117188L22.673828 36.103516L21.423828 33.955078L23.464844 32.886719 A 1.0001 1.0001 0 0 0 22.986328 30.994141 A 1.0001 1.0001 0 0 0 22.535156 31.113281L20.416016 32.222656L19.994141 31.498047 A 1.0001 1.0001 0 0 0 19.072266 31.001953 A 1.0001 1.0001 0 0 0 18.632812 31.132812L16.955078 32.091797C15.099242 33.155328 14.450068 35.552155 15.525391 37.398438L15.626953 37.574219C13.948153 38.432162 12.650634 39 10 39C5.589 39 2 35.411 2 31C2 26.589 5.589 23 10 23C12.680439 23 15.044549 24.335265 16.494141 26.367188L8.53125 30.654297 A 1.0005836 1.0005836 0 1 0 9.4804688 32.416016L35.755859 18.267578C36.023275 19.333097 36.249869 20.240341 36.53125 21.357422C36.563361 21.484902 36.563614 21.483981 36.595703 21.611328C32.757032 23.009653 30 26.685827 30 31C30 36.511003 34.488997 41 40 41C45.511003 41 50 36.511003 50 31C50 25.488997 45.511003 21 40 21C39.500265 21 39.013545 21.049855 38.533203 21.121094C38.501347 20.994677 38.500626 20.995688 38.46875 20.869141C37.843896 18.388469 37.220144 15.896576 36.751953 14.009766C36.517858 13.06636 36.32319 12.274051 36.1875 11.710938C36.11966 11.429379 36.066118 11.205805 36.03125 11.052734C36.01382 10.976204 36.001001 10.916205 35.994141 10.882812C35.990941 10.867422 35.988081 10.859728 35.988281 10.861328L35.988281 10.859375 A 1.0001 1.0001 0 0 0 35 10C32.5 10 31.236334 9.9840504 30.664062 9.8886719C30.091791 9.7932933 30.207031 9.7929688 29.707031 9.2929688 A 1.0001 1.0001 0 0 0 28.990234 8.9902344 z M 40 23C44.430123 23 48 26.569877 48 31C48 35.430123 44.430123 39 40 39C35.569877 39 32 35.430123 32 31C32 27.600329 34.105871 24.714665 37.085938 23.552734C38.010576 27.213785 39.03125 31.246094 39.03125 31.246094 A 1.0001 1.0001 0 1 0 40.96875 30.753906C40.96875 30.753906 39.947823 26.723454 39.023438 23.064453C39.343971 23.02566 39.668712 23 40 23 z M 18.765625 33.361328L21.628906 38.287109L20.826172 38.746094C19.905535 39.273404 18.751751 38.96378 18.222656 38.054688L17.253906 36.392578C16.725229 35.484861 17.029008 34.356593 17.951172 33.828125L18.765625 33.361328 z"/></svg>