<svg xmlns="http://www.w3.org/2000/svg" xmlns:xlink="http://www.w3.org/1999/xlink" viewBox="0 0 50 50"><path d="M35 9 A 1.0001 1.0001 0 0 0 34 10C34 10.185417 34.010494 10.176523 34.021484 10.269531C34.032484 10.362541 34.047479 10.480684 34.068359 10.628906C34.110129 10.92535 34.17252 11.338705 34.259766 11.857422C34.415602 12.783946 34.663504 14.095763 34.990234 15.640625L24.220703 28.207031L17.958984 15.681641 A 1.0001 1.0001 0 0 0 17.818359 15.402344L16.123047 12.009766C16.182204 12.007254 16.241501 12 16.300781 12C18.900781 12 20 11.299609 20 10.599609C20 9.9996094 19.499219 9.9996094 18.699219 10.099609L12.300781 10.099609C11.200781 10.099609 11 10.6 11 11.5C11 13.792963 12.355328 13.050886 14.105469 12.449219L15.880859 16L13.552734 20.658203C12.446943 20.237342 11.249801 20 10 20C4.4886661 20 0 24.488666 0 30C0 35.511334 4.4886661 40 10 40C15.174135 40 19.447699 36.044472 19.951172 31L23.992188 31 A 1.0001163 1.0001163 0 0 0 24 31 A 1.0001 1.0001 0 0 0 24.015625 31 A 1.0001163 1.0001163 0 0 0 24.099609 30.994141 A 1.0001 1.0001 0 0 0 24.191406 30.982422 A 1.0001163 1.0001163 0 0 0 24.199219 30.980469 A 1.0001 1.0001 0 0 0 24.289062 30.957031 A 1.0001163 1.0001163 0 0 0 24.294922 30.955078 A 1.0001 1.0001 0 0 0 24.382812 30.923828 A 1.0001163 1.0001163 0 0 0 24.388672 30.921875 A 1.0001 1.0001 0 0 0 24.472656 30.880859 A 1.0001163 1.0001163 0 0 0 24.478516 30.876953 A 1.0001 1.0001 0 0 0 24.558594 30.830078 A 1.0001163 1.0001163 0 0 0 24.560547 30.828125 A 1.0001163 1.0001163 0 0 0 24.564453 30.826172 A 1.0001 1.0001 0 0 0 24.638672 30.769531 A 1.0001163 1.0001163 0 0 0 24.644531 30.765625 A 1.0001 1.0001 0 0 0 24.669922 30.740234 A 1.0001163 1.0001163 0 0 0 24.716797 30.697266 A 1.0001 1.0001 0 0 0 24.742188 30.669922 A 1.0001163 1.0001163 0 0 0 24.759766 30.650391L35.539062 18.074219C35.73611 18.916936 35.958114 19.811381 36.201172 20.755859C32.568222 22.256057 30 25.83388 30 30C30 35.511003 34.488997 40 40 40C45.511003 40 50 35.511003 50 30C50 24.488997 45.511003 20 40 20C39.356537 20 38.72922 20.066717 38.119141 20.183594C37.703188 18.562099 37.333857 17.035071 37.052734 15.738281C36.668675 13.966651 36.40168 12.531708 36.232422 11.525391C36.194545 11.300193 36.178808 11.181048 36.150391 11L37.976562 11C39.026137 11.02538 39.909543 11.079931 40.330078 11.289062C40.750614 11.498197 41 11.714667 41 13 A 1.0001 1.0001 0 1 0 43 13C43 11.285333 42.283168 10.026413 41.220703 9.4980469C40.158239 8.9696804 39.041863 9.0246234 38.023438 9 A 1.0001 1.0001 0 0 0 38 9L35 9 z M 26.96875 9.9902344 A 1.0001 1.0001 0 0 0 26.21875 10.375L22.21875 15.375 A 1.0001 1.0001 0 0 0 23 17L26.917969 17L24.21875 20.375 A 1.0004882 1.0004882 0 1 0 25.78125 21.625L29.78125 16.625 A 1.0001 1.0001 0 0 0 29 15L25.082031 15L27.78125 11.625 A 1.0001 1.0001 0 0 0 26.96875 9.9902344 z M 17 18.236328L22.380859 29L19.945312 29C19.63313 25.869109 17.867454 23.169932 15.335938 21.564453L17 18.236328 z M 10 22C10.933334 22 11.824511 22.162683 12.654297 22.455078L9.1054688 29.552734 A 1.0001 1.0001 0 0 0 10 31L17.931641 31C17.441222 34.954585 14.091155 38 10 38C5.5693339 38 2 34.430666 2 30C2 25.569334 5.5693339 22 10 22 z M 40 22C44.430123 22 48 25.569877 48 30C48 34.430123 44.430123 38 40 38C35.569877 38 32 34.430123 32 30C32 26.744756 33.930999 23.960275 36.710938 22.708984C37.352517 25.045832 38.123941 27.605459 39.054688 30.324219 A 1.0001 1.0001 0 1 0 40.945312 29.675781C40.022554 26.980341 39.258861 24.439183 38.625 22.125C39.072455 22.047854 39.529938 22 40 22 z M 14.441406 23.351562C16.322519 24.609971 17.633441 26.641641 17.927734 29L11.617188 29L14.441406 23.351562 z"/></svg>