<svg xmlns="http://www.w3.org/2000/svg" xmlns:xlink="http://www.w3.org/1999/xlink" viewBox="0 0 50 50"><path d="M28.988281 8.992188C28.582031 8.992188 28.21875 9.238281 28.0625 9.613281C27.910156 9.992188 28 10.421875 28.292969 10.707031C28.792969 11.207031 29.410156 11.707031 30.335938 11.859375C31.089844 11.988281 32.453125 11.972656 34.125 11.972656C34.160156 12.234375 34.195313 12.484375 34.261719 12.859375C34.394531 13.648438 34.605469 14.753906 34.859375 16L17.617188 16L16.125 13.011719C16.183594 13.007813 16.242188 13 16.300781 13C18.902344 13 20 12.300781 20 11.597656C20 11 19.5 11 18.699219 11.097656L12.300781 11.097656C11.199219 11.097656 11 11.601563 11 12.5C11 14.792969 12.355469 14.050781 14.105469 13.449219L15.878906 17L13.546875 21.664063C12.445313 21.242188 11.25 21 10 21C4.488281 21 0 25.488281 0 31C0 36.511719 4.488281 41 10 41C15.171875 41 19.445313 37.042969 19.949219 32L23.992188 32C23.996094 32 23.996094 32 24 32C24.003906 32 24.011719 32 24.015625 32C24.042969 32 24.070313 31.996094 24.097656 31.996094C24.128906 31.992188 24.160156 31.988281 24.191406 31.984375C24.195313 31.980469 24.195313 31.980469 24.199219 31.980469C24.230469 31.972656 24.257813 31.964844 24.289063 31.957031C24.292969 31.957031 24.292969 31.957031 24.296875 31.953125C24.324219 31.945313 24.355469 31.9375 24.382813 31.921875C24.386719 31.921875 24.386719 31.921875 24.390625 31.921875C24.417969 31.910156 24.445313 31.894531 24.472656 31.878906C24.476563 31.878906 24.476563 31.878906 24.480469 31.875C24.507813 31.863281 24.53125 31.847656 24.558594 31.828125C24.558594 31.828125 24.558594 31.828125 24.5625 31.828125C24.589844 31.808594 24.613281 31.789063 24.640625 31.769531C24.640625 31.769531 24.644531 31.765625 24.644531 31.765625C24.652344 31.757813 24.660156 31.75 24.671875 31.738281C24.6875 31.726563 24.703125 31.710938 24.71875 31.699219C24.726563 31.6875 24.734375 31.679688 24.742188 31.671875C24.75 31.664063 24.753906 31.65625 24.761719 31.652344L35.539063 19.074219C35.734375 19.917969 35.957031 20.8125 36.203125 21.753906C32.566406 23.257813 30 26.832031 30 31C30 36.511719 34.488281 41 40 41C45.511719 41 50 36.511719 50 31C50 25.488281 45.511719 21 40 21C39.355469 21 38.730469 21.066406 38.121094 21.183594C37.703125 19.5625 37.332031 18.035156 37.050781 16.738281C36.667969 14.964844 36.402344 13.53125 36.234375 12.527344C36.148438 12.023438 36.085938 11.625 36.046875 11.351563C36.03125 11.214844 36.015625 11.105469 36.007813 11.035156C36 10.964844 36 10.851563 36 11C36 10.449219 35.550781 10 35 10C32.5 10 31.238281 9.984375 30.664063 9.890625C30.089844 9.792969 30.207031 9.792969 29.707031 9.292969C29.519531 9.097656 29.261719 8.992188 28.988281 8.992188 Z M 18.617188 18L33.828125 18L24.21875 29.207031 Z M 17 19.234375L22.378906 30L19.949219 30C19.636719 26.871094 17.867188 24.167969 15.339844 22.5625 Z M 10 23C10.933594 23 11.820313 23.167969 12.652344 23.457031L9.105469 30.550781C8.949219 30.863281 8.96875 31.230469 9.148438 31.527344C9.332031 31.820313 9.652344 32 10 32L17.933594 32C17.441406 35.953125 14.089844 39 10 39C5.570313 39 2 35.429688 2 31C2 26.570313 5.570313 23 10 23 Z M 40 23C44.429688 23 48 26.570313 48 31C48 35.429688 44.429688 39 40 39C35.570313 39 32 35.429688 32 31C32 27.746094 33.929688 24.960938 36.710938 23.707031C37.351563 26.046875 38.125 28.605469 39.054688 31.324219C39.160156 31.675781 39.449219 31.941406 39.808594 32.015625C40.167969 32.089844 40.539063 31.964844 40.773438 31.683594C41.011719 31.402344 41.078125 31.019531 40.945313 30.675781C40.023438 27.980469 39.257813 25.4375 38.625 23.125C39.074219 23.046875 39.53125 23 40 23 Z M 14.445313 24.34375C16.328125 25.601563 17.640625 27.636719 17.933594 30L11.617188 30Z"/></svg>