<svg xmlns="http://www.w3.org/2000/svg" xmlns:xlink="http://www.w3.org/1999/xlink" viewBox="0 0 50 50"><path d="M10.816406 4.0078125C10.230406 3.9988125 9.6633437 4.2543125 9.2773438 4.6953125L2.6425781 12.265625C2.2365781 12.728625 2.0675937 13.352031 2.1835938 13.957031L5.7148438 32.5C5.8838437 33.385 6.6234844 34.048141 7.5214844 34.119141L10.017578 34.316406L12.019531 34.474609C11.696531 35.430609 11.513672 36.450672 11.513672 37.513672C11.513672 42.775672 15.794641 47.056641 21.056641 47.056641C26.318641 47.056641 30.599609 42.775672 30.599609 37.513672C30.599609 36.972672 30.542078 36.446687 30.455078 35.929688L32.458984 36.087891L42.894531 36.912109C43.581531 36.966109 44.247203 36.663375 44.658203 36.109375L47.476562 32.304688C47.822563 31.838687 47.948219 31.250594 47.824219 30.683594C46.788219 25.947594 40.455406 4.4498125 10.816406 4.0078125 z M 16.263672 6.2617188C18.446672 6.5797188 20.578531 7.0004063 22.644531 7.5664062C22.990531 7.6594062 23.326016 7.7642344 23.666016 7.8652344C24.142016 8.0082344 24.614031 8.1622656 25.082031 8.3222656C25.626031 8.5082656 26.1615 8.7041094 26.6875 8.9121094C27.1465 9.0931094 27.600781 9.284375 28.050781 9.484375C28.466781 9.670375 28.87725 9.8605469 29.28125 10.060547C29.83325 10.333547 30.379969 10.622734 30.917969 10.927734C31.127969 11.047734 31.340875 11.161156 31.546875 11.285156C32.194875 11.673156 32.827125 12.096109 33.453125 12.537109C33.629125 12.662109 33.808422 12.783109 33.982422 12.912109C34.598422 13.367109 35.202922 13.854188 35.794922 14.367188C35.973922 14.522187 36.149219 14.680844 36.324219 14.839844C36.903219 15.365844 37.472344 15.913 38.027344 16.5C38.145344 16.625 38.257047 16.757766 38.373047 16.884766C38.621047 17.155766 38.872234 17.420125 39.115234 17.703125C40.161234 18.927125 40.785344 19.733297 41.652344 21.154297C42.184344 21.990297 42.653359 22.812328 43.068359 23.611328C43.273359 23.978328 43.490516 24.368781 43.728516 24.800781L16.841797 19.162109C15.181797 18.729109 13.822281 17.586438 13.113281 16.023438C12.404281 14.460437 12.438391 12.683047 13.150391 11.248047L16.263672 6.2617188 z M 21.056641 29.972656C25.215641 29.972656 28.599609 33.356625 28.599609 37.515625C28.599609 41.674625 25.215641 45.058594 21.056641 45.058594C16.897641 45.058594 13.513672 41.674625 13.513672 37.515625C13.513672 33.356625 16.897641 29.972656 21.056641 29.972656 z M 21.056641 35.542969 A 1.971 1.971 0 0 0 19.085938 37.513672 A 1.971 1.971 0 0 0 21.056641 39.484375 A 1.971 1.971 0 0 0 23.027344 37.513672 A 1.971 1.971 0 0 0 21.056641 35.542969 z"/></svg>