<svg xmlns="http://www.w3.org/2000/svg" xmlns:xlink="http://www.w3.org/1999/xlink" viewBox="0 0 50 50"><path d="M7 7C5.90625 7 5 7.90625 5 9L5 19L4.8125 19L4.625 19.09375C4.625 19.09375 1 20.71875 1 24.96875L1 30L1.09375 30C0.40625 31.179688 0 32.542969 0 34C0 38.40625 3.59375 42 8 42L30 42C33.710938 42 36.820313 39.4375 37.71875 36L39 36L39 41L50 41L50 39.4375L49.75 39.15625C49.75 39.15625 43.527344 32.40625 42.15625 20.875L42.0625 20L39 20L39 34L38 34L38 22C38 20.355469 36.644531 19 35 19L31 19L31 15L29 15L29 19L22 19L22 9C22 7.90625 21.09375 7 20 7 Z M 7 9L20 9L20 21L7 21 Z M 22 21L35 21C35.566406 21 36 21.433594 36 22L36 28.71875C34.53125 27.050781 32.390625 26 30 26L8 26C6.113281 26 4.371094 26.679688 3 27.78125L3 24.96875C3 22.210938 4.589844 21.347656 5.0625 21.125C5.140625 22.152344 5.957031 23 7 23L20 23C21.09375 23 22 22.09375 22 21 Z M 41 24.78125C42.539063 31.671875 45.390625 36.726563 47.0625 39L41 39L41 35.1875C41.027344 35.054688 41.027344 34.914063 41 34.78125 Z M 8 28L30 28C33.324219 28 36 30.675781 36 34C36 37.324219 33.324219 40 30 40L8 40C4.675781 40 2 37.324219 2 34C2 30.675781 4.675781 28 8 28 Z M 7 32C5.894531 32 5 32.894531 5 34C5 35.105469 5.894531 36 7 36C8.105469 36 9 35.105469 9 34C9 32.894531 8.105469 32 7 32 Z M 15 32C13.894531 32 13 32.894531 13 34C13 35.105469 13.894531 36 15 36C16.105469 36 17 35.105469 17 34C17 32.894531 16.105469 32 15 32 Z M 23 32C21.894531 32 21 32.894531 21 34C21 35.105469 21.894531 36 23 36C24.105469 36 25 35.105469 25 34C25 32.894531 24.105469 32 23 32 Z M 31 32C29.894531 32 29 32.894531 29 34C29 35.105469 29.894531 36 31 36C32.105469 36 33 35.105469 33 34C33 32.894531 32.105469 32 31 32Z"/></svg>