<svg xmlns="http://www.w3.org/2000/svg" xmlns:xlink="http://www.w3.org/1999/xlink" viewBox="0 0 50 50"><path d="M45.0625 1.875L20.40625 7.96875L4.4375 11.9375L4.9375 13.875L24.5 9.03125C25.335938 10.519531 27.46875 15.222656 24.46875 20L18 20L18 22L32 22L32 20L26.75 20C29.140625 15.222656 27.488281 10.605469 26.46875 8.53125L45.5625 3.8125 Z M 20.40625 7.96875C21.316406 7.78125 22 6.964844 22 6C22 4.894531 21.105469 4 20 4C18.894531 4 18 4.894531 18 6C18 7.105469 18.894531 8 20 8C20.136719 8 20.277344 7.996094 20.40625 7.96875 Z M 28 2C26.894531 2 26 2.894531 26 4C26 5.105469 26.894531 6 28 6C29.105469 6 30 5.105469 30 4C30 2.894531 29.105469 2 28 2 Z M 13.34375 24L13.0625 24.28125C12.898438 24.441406 9 28.335938 9 36C9 43.664063 12.898438 47.558594 13.0625 47.71875L13.34375 48L36.65625 48L36.96875 47.71875C37.132813 47.554688 41 43.550781 41 36C41 28.449219 37.132813 24.445313 36.96875 24.28125L36.65625 24 Z M 14.1875 26L24 26L24 35L11.0625 35C11.328125 29.9375 13.441406 26.898438 14.1875 26 Z M 26 26L35.78125 26C36.535156 26.925781 38.707031 29.996094 38.96875 35L26 35Z"/></svg>