<svg xmlns="http://www.w3.org/2000/svg" xmlns:xlink="http://www.w3.org/1999/xlink" viewBox="0 0 64 64"><path d="M9.1679688 9C5.2159688 9 2 12.215969 2 16.167969L2 39L2 42.183594C0.83874859 42.597861 0 43.698391 0 45C0 46.654 1.346 48 3 48L8 48C8 51.859 11.141 55 15 55C18.859 55 22 51.859 22 48L37 48L39 48L42 48C42 51.859 45.141 55 49 55C52.859 55 56 51.859 56 48L61 48C62.654 48 64 46.654 64 45C64 43.698391 63.161251 42.597861 62 42.183594L62 35.035156C62 33.419156 61.219328 31.815609 60.486328 30.849609L54.599609 22.71875C54.366455 22.443552 54.110884 22.193818 53.845703 21.957031C54.752847 21.81242 55.531451 21.272342 55.986328 20.443359C56.521328 19.468359 56.485672 18.326672 55.888672 17.388672L52.318359 11.777344C51.210359 10.038344 49.318859 9 47.255859 9L9.1679688 9 z M 9.1679688 10.998047L47.255859 10.998047C48.630859 10.998047 49.892859 11.691562 50.630859 12.851562L54.199219 18.462891C54.486219 18.913891 54.318422 19.324469 54.232422 19.480469C54.146422 19.636469 53.889469 20 53.355469 20L48.730469 20L40 20C38.346 20 37 21.346 37 23L37 37L4 37L4 16.167969C4 13.318969 6.3189687 10.999047 9.1679688 10.998047 z M 11 15C10.447 15 10 15.448 10 16L10 27C10 27.552 10.447 28 11 28L29 28C29.553 28 30 27.552 30 27L30 16C30 15.448 29.553 15 29 15L11 15 z M 39 15C38.447 15 38 15.448 38 16C38 16.552 38.447 17 39 17L47 17C47.553 17 48 16.552 48 16C48 15.448 47.553 15 47 15L39 15 z M 12 17L28 17L28 19.908203L12 19.994141L12 17 z M 28 21.908203L28 26L12 26L12 21.994141L28 21.908203 z M 40 22L48.730469 22C50.407469 22 51.991344 22.732172 53.027344 23.951172L58.873047 32.03125L58.888672 32.052734C59.086708 32.313194 59.27747 32.645493 59.451172 33L47 33L47 26L50 26C50.553 26 51 25.552 51 25C51 24.448 50.553 24 50 24L46 24C45.447 24 45 24.448 45 25L45 34C45 34.553 45.447 35 46 35L59.996094 35C59.996225 35.011481 60 35.023709 60 35.035156L60 42L52.585938 42C51.535403 41.369523 50.311511 41 49 41C45.83648 41 43.158525 43.113155 42.294922 46L39 46L39 39L50 39C50.553 39 51 38.553 51 38C51 37.447 50.553 37 50 37L39 37L39 23C39 22.86225 39.0275 22.730906 39.078125 22.611328C39.23 22.252594 39.586 22 40 22 z M 8 31C7.449 31 7 31.449 7 32L7 34C7 34.551 7.449 35 8 35C8.551 35 9 34.551 9 34L9 32C9 31.449 8.551 31 8 31 z M 13 31C12.449 31 12 31.449 12 32L12 34C12 34.551 12.449 35 13 35C13.551 35 14 34.551 14 34L14 32C14 31.449 13.551 31 13 31 z M 18 31C17.449 31 17 31.449 17 32L17 34C17 34.551 17.449 35 18 35C18.551 35 19 34.551 19 34L19 32C19 31.449 18.551 31 18 31 z M 23 31C22.449 31 22 31.449 22 32L22 34C22 34.551 22.449 35 23 35C23.551 35 24 34.551 24 34L24 32C24 31.449 23.551 31 23 31 z M 28 31C27.449 31 27 31.449 27 32L27 34C27 34.551 27.449 35 28 35C28.551 35 29 34.551 29 34L29 32C29 31.449 28.551 31 28 31 z M 33 31C32.449 31 32 31.449 32 32L32 34C32 34.551 32.449 35 33 35C33.551 35 34 34.551 34 34L34 32C34 31.449 33.551 31 33 31 z M 55 37C54.447 37 54 37.447 54 38C54 38.553 54.447 39 55 39L57 39C57.553 39 58 38.553 58 38C58 37.447 57.553 37 57 37L55 37 z M 4 39L37 39L37 46L21.705078 46C20.841475 43.113155 18.16352 41 15 41C13.688489 41 12.464597 41.369523 11.414062 42L4 42L4 39 z M 15 43C17.757 43 20 45.243 20 48C20 50.757 17.757 53 15 53C12.243 53 10 50.757 10 48C10 45.243 12.243 43 15 43 z M 49 43C51.757 43 54 45.243 54 48C54 50.757 51.757 53 49 53C46.243 53 44 50.757 44 48C44 45.243 46.243 43 49 43 z M 3 44L9.265625 44C8.8425059 44.604545 8.5111427 45.277219 8.2949219 46L3 46C2.448 46 2 45.552 2 45C2 44.448 2.448 44 3 44 z M 54.734375 44L61 44C61.552 44 62 44.448 62 45C62 45.552 61.552 46 61 46L55.705078 46C55.488857 45.277219 55.157494 44.604545 54.734375 44 z M 15 46C13.895 46 13 46.895 13 48C13 49.105 13.895 50 15 50C16.105 50 17 49.105 17 48C17 46.895 16.105 46 15 46 z M 49 46C47.895 46 47 46.895 47 48C47 49.105 47.895 50 49 50C50.105 50 51 49.105 51 48C51 46.895 50.105 46 49 46 z"/></svg>