<svg xmlns="http://www.w3.org/2000/svg" xmlns:xlink="http://www.w3.org/1999/xlink" viewBox="0 0 50 50"><path d="M7 6 A 1.0001 1.0001 0 0 0 6.2929688 6.2929688L3.2929688 9.2929688 A 1.0001 1.0001 0 0 0 3.0292969 10.242188L4.0292969 14.242188 A 1.0001 1.0001 0 0 0 5 15L10 15L10 17L8.5976562 17C6.7095541 17 4.9786821 18.068954 4.1308594 19.755859L4.1621094 19.697266L0.73828125 25.515625C0.25551192 26.302311 0 27.206624 0 28.128906L0 37.308594C0 38.783636 1.2163641 40 2.6914062 40L4.0917969 40C4.5721157 42.828207 7.039829 45 10 45C12.960171 45 15.427884 42.828207 15.908203 40L34.091797 40C34.572116 42.828207 37.039829 45 40 45C42.960171 45 45.427884 42.828207 45.908203 40L47 40C48.645455 40 50 38.645455 50 37L50 32.388672C50 29.951489 48.225687 27.858433 45.822266 27.457031L37.494141 26.068359L30.533203 18.777344C29.583575 17.650285 28.183972 17 26.710938 17L26 17L26 15L31 15 A 1.0001 1.0001 0 0 0 31.894531 14.447266L33.894531 10.447266 A 1.0001 1.0001 0 0 0 33.263672 9.0351562L22.263672 6.0351562 A 1.0001 1.0001 0 0 0 22 6L7 6 z M 7.4140625 8L21.865234 8L31.560547 10.644531L30.382812 13L5.78125 13L5.1074219 10.306641L7.4140625 8 z M 12 15L24 15L24 17L12 17L12 15 z M 8.5976562 19L17 19L17 26L2.7734375 26L5.9023438 20.683594L5.9179688 20.652344C6.4281453 19.637236 7.4617586 19 8.5976562 19 z M 19 19L26.710938 19C27.595903 19 28.433534 19.389465 29.003906 20.066406L29.023438 20.089844L34.662109 26L19 26L19 19 z M 2.0078125 28L36.916016 28L45.494141 29.429688C46.946721 29.672283 48 30.915854 48 32.388672L48 37C48 37.554545 47.554545 38 47 38L45.908203 38C45.427884 35.171793 42.960171 33 40 33C37.039829 33 34.572116 35.171793 34.091797 38L15.908203 38C15.427884 35.171793 12.960171 33 10 33C7.039829 33 4.5721157 35.171793 4.0917969 38L2.6914062 38C2.2984484 38 2 37.701552 2 37.308594L2 28.128906C2 28.085622 2.00596 28.043127 2.0078125 28 z M 10 35C12.220375 35 14 36.779625 14 39C14 41.220375 12.220375 43 10 43C7.7796254 43 6 41.220375 6 39C6 36.779625 7.7796254 35 10 35 z M 40 35C42.220375 35 44 36.779625 44 39C44 41.220375 42.220375 43 40 43C37.779625 43 36 41.220375 36 39C36 36.779625 37.779625 35 40 35 z"/></svg>