<?xml version="1.0" encoding="utf-8"?><svg version="1.1" id="Layer_1" xmlns="http://www.w3.org/2000/svg" xmlns:xlink="http://www.w3.org/1999/xlink" x="0px" y="0px" viewBox="0 0 122.88 103.26" style="enable-background:new 0 0 122.88 103.26" xml:space="preserve"><style type="text/css">.st0{fill-rule:evenodd;clip-rule:evenodd;}</style><g><path class="st0" d="M117.95,42.04v61.22h-14.31V93.8h-84.4v9.46l-14.31,0V42.04H0v-9.41h12.04l6.71-20.88 C20.73,5.59,24.03,0,30.49,0h64.39c6.46,0,10.18,5.48,11.74,11.74l5.19,20.88h11.06v9.41H117.95L117.95,42.04L117.95,42.04z M40.01,74.91h42.27v9.97l-42.27,0V74.91L40.01,74.91L40.01,74.91z M9.72,51.69c10.77,0.34,17.36,4.85,19.05,14.26H9.72V51.69 L9.72,51.69z M111.8,51.69c-10.77,0.34-17.36,4.85-19.05,14.26h19.05V51.69L111.8,51.69z M17.18,32.62h88.52l-3.79-17.51 c-1.04-4.8-4.03-8.95-8.95-8.95H31.74c-4.92,0-7.44,4.26-8.95,8.95L17.18,32.62L17.18,32.62L17.18,32.62z"/></g></svg>