<?xml version="1.0" encoding="utf-8"?><svg version="1.1" id="Layer_1" xmlns="http://www.w3.org/2000/svg" xmlns:xlink="http://www.w3.org/1999/xlink" x="0px" y="0px" viewBox="0 0 122.88 83.92" style="enable-background:new 0 0 122.88 83.92" xml:space="preserve"><style type="text/css">.st0{fill-rule:evenodd;clip-rule:evenodd;}</style><g><path class="st0" d="M42.41,68.89c-0.11,0.67-0.16,1.36-0.16,2.06c0,7.17,5.81,12.97,12.97,12.97c7.16,0,12.97-5.81,12.97-12.97 c0-0.7-0.06-1.39-0.16-2.06H89.1c-0.09,0.61-0.13,1.24-0.13,1.88c0,7.27,5.89,13.16,13.16,13.16c7.27,0,13.16-5.89,13.16-13.16 c0-0.8-0.07-1.58-0.21-2.34c4.35-0.29,7.81-3.54,7.81-7.97V34.65l-16.36-17.6H90.1c-1,0-1.7,0.91-1.81,1.9l-4.18,37.18H63.57v-3.25 h14.47c0.5,0,0.93-0.21,1.26-0.54h0c0.33-0.33,0.55-0.8,0.61-1.29l3.94-34.71c1.02-8.98,1.7-8.98,9.44-8.92 c0.78,0.01,1.59,0.01,2.12,0.01h0.5l-0.01-0.5l-0.2-6.4l-0.01-0.47h-0.47c-1.34,0-2.44-0.02-3.49-0.03 c-9.81-0.14-14.89-0.21-15.75,11.23L4.41,11.27v0c-0.51,0-0.96,0.21-1.29,0.54l0,0c-0.33,0.33-0.55,0.8-0.58,1.31L0,50.97v0.02 l0,0.08l0,0.02c0,0.48,0.21,0.92,0.54,1.25c0.32,0.31,0.76,0.52,1.22,0.55h0.02l0.09,0l0.02,0h17.16v3.25H4.87 c-1.83,0-3.35,1.44-3.35,3.19v6.38c0,1.75,1.51,3.19,3.35,3.19h3.65c-0.11,0.67-0.16,1.36-0.16,2.06c0,7.17,5.81,12.97,12.97,12.97 c7.17,0,12.97-5.81,12.97-12.97c0-0.7-0.06-1.39-0.16-2.06H42.41L42.41,68.89z M25.87,68.89l-0.04-0.08l-0.01-0.02l-0.03-0.06 l-0.02-0.05l-0.02-0.03l-0.04-0.08l0,0l-0.04-0.08l-0.01-0.03l-0.03-0.05l-0.03-0.05l-0.01-0.02l-0.05-0.08l0,0l-0.05-0.07 l-0.05-0.07l0,0l-0.04-0.06l-0.01-0.01l-0.05-0.07l-0.01-0.01l-0.05-0.06l-0.03-0.04l-0.03-0.03l-0.05-0.06l-0.01-0.01l0,0 l-0.07-0.08l-0.04-0.05l-0.04-0.04L25,67.57l-0.06-0.06l0,0l-0.06-0.06l-0.02-0.02l-0.04-0.04l-0.04-0.04l-0.02-0.02l-0.06-0.06 l0,0l-0.06-0.05l-0.03-0.03l-0.04-0.03L24.5,67.1l-0.01-0.01l-0.07-0.06l-0.01-0.01l-0.06-0.05l-0.04-0.03l-0.03-0.02l-0.06-0.05 l-0.01-0.01l-0.07-0.05l-0.02-0.01l-0.05-0.04l-0.05-0.03l0,0l-0.09-0.05l-0.01-0.01l0,0l-0.08-0.05l-0.03-0.02l-0.05-0.03 l-0.06-0.03l-0.02-0.01L23.6,66.5l-0.07-0.04l-0.04-0.02l-0.01,0l-0.1-0.05l-0.02-0.01l-0.08-0.04l-0.01-0.01l0,0L25.87,68.89 L25.87,68.89z M23.04,66.26L23.04,66.26l-0.09-0.03l-0.02-0.01l-0.06-0.02l-0.05-0.02l-0.03-0.01l-0.09-0.03l0,0l-0.09-0.02 l-0.03-0.01l-0.06-0.01l-0.06-0.02l-0.02-0.01l-0.09-0.02l-0.01,0l-0.08-0.02l-0.04-0.01l-0.05-0.01l-0.07-0.01l-0.02,0L21.98,66 l-0.02,0l-0.08-0.01l-0.05-0.01l-0.04,0l-0.08-0.01l-0.01,0l-0.09-0.01l-0.03,0l-0.11,0l-0.02,0l-0.03,0l-0.09,0l-0.09,0l-0.03,0 l-0.02,0l-0.11,0l-0.03,0l-0.09,0.01l-0.01,0l-0.08,0.01l-0.04,0l-0.05,0.01L20.69,66l-0.02,0l-0.09,0.01l-0.02,0l-0.07,0.01 l-0.05,0.01l-0.04,0.01l-0.08,0.02l-0.01,0l-0.09,0.02l-0.03,0.01l-0.06,0.02l-0.06,0.01l-0.03,0.01l-0.09,0.02l0,0l-0.09,0.03 l-0.03,0.01l-0.05,0.02l-0.06,0.02l-0.02,0.01l-0.08,0.03l-0.01,0l-0.08,0.03l-0.04,0.02l0,0l-0.11,0.04l0,0l-0.01,0.01l-0.08,0.04 l-0.02,0.01l-0.07,0.03l-0.05,0.02l-0.03,0.02l-0.07,0.04l-0.01,0l-0.08,0.04l-0.02,0.01l-0.05,0.03l-0.05,0.03l-0.03,0.02 l-0.08,0.05l0,0l-0.07,0.05l-0.03,0.02l-0.05,0.03l-0.05,0.04l-0.02,0.01l-0.07,0.05l-0.01,0.01l-0.06,0.05l-0.03,0.02l-0.04,0.03 l-0.06,0.05l-0.01,0.01l-0.07,0.06l-0.01,0.01l-0.05,0.04l-0.04,0.03l-0.03,0.03l-0.06,0.05l0,0l-0.06,0.06l-0.05,0.05l-0.01,0.01 l-0.04,0.04l-0.02,0.02l-0.06,0.06l0,0l-0.06,0.06l-0.06,0.07l-0.04,0.05l-0.01,0.02l-0.06,0.07l-0.01,0.01l-0.05,0.06l-0.03,0.03 l-0.03,0.04l-0.05,0.06l-0.01,0.01l-0.05,0.07l-0.01,0.01l-0.04,0.06l0,0l-0.05,0.07l-0.05,0.07l0,0l-0.05,0.08l-0.01,0.02 l-0.03,0.05l-0.03,0.05l-0.02,0.03l-0.01,0.02l-0.06,0.12l-0.01,0.01l-0.02,0.03l-0.02,0.05l-0.03,0.06l-0.01,0.02l-0.04,0.08 c-0.29,0.63-0.45,1.33-0.45,2.06c0,2.76,2.23,4.99,4.99,4.99c2.76,0,4.99-2.23,4.99-4.99c0-0.74-0.16-1.43-0.45-2.06L23.04,66.26 L23.04,66.26z M106.61,68.45l-0.04-0.08l-0.04-0.08l-0.02-0.05l-0.02-0.03l-0.04-0.07l0,0l-0.04-0.07l-0.02-0.03L106.35,68 c-0.05-0.07-0.1-0.14-0.15-0.21l-0.04-0.05l-0.01-0.02l-0.05-0.07l-0.04-0.05l-0.02-0.02l-0.03-0.04L106,67.53l-0.01-0.01 c-0.05-0.06-0.1-0.12-0.16-0.18l-0.05-0.05l-0.01-0.01l-0.06-0.06l-0.02-0.02l-0.04-0.04l-0.04-0.04l-0.02-0.02l-0.06-0.06 l-0.01-0.01l-0.05-0.05l-0.04-0.03l-0.03-0.02l-0.07-0.05l0,0l-0.06-0.05l-0.03-0.02l-0.04-0.03l-0.06-0.05l-0.01-0.01l-0.07-0.05 l-0.02-0.02L105,66.61l-0.05-0.04l-0.02-0.01l-0.07-0.05l-0.01-0.01l-0.06-0.04l-0.04-0.03l-0.03-0.02l-0.07-0.04l0,0l-0.07-0.04 l-0.03-0.02l-0.04-0.02l-0.07-0.03l-0.01-0.01l-0.08-0.04l-0.02-0.01l-0.05-0.03l-0.06-0.03l-0.02-0.01l-0.08-0.03l-0.01-0.01 l-0.07-0.03l-0.05-0.02l-0.03-0.01l-0.08-0.03l0,0l-0.08-0.03l-0.04-0.01l-0.05-0.02l-0.07-0.02l-0.01,0l-0.08-0.03l-0.02-0.01 l-0.06-0.02l-0.06-0.02l-0.02-0.01l-0.09-0.02l-0.01,0l-0.07-0.02l-0.05-0.01l-0.04-0.01l-0.09-0.02h0l-0.09-0.01l-0.04-0.01 l-0.05-0.01l-0.08-0.01l-0.01,0l-0.09-0.01l-0.03,0l-0.06-0.01l-0.06-0.01l-0.12-0.01l-0.01,0l-0.08,0l-0.05,0h0l-0.13,0l-0.13,0h0 l-0.05,0l-0.08,0l-0.01,0l-0.12,0.01l-0.06,0.01l-0.06,0.01l-0.03,0l-0.09,0.01l-0.01,0l-0.08,0.01l-0.05,0.01l-0.04,0.01 l-0.09,0.01h0l-0.12,0.02l-0.05,0.01l-0.07,0.02l-0.01,0l-0.09,0.02l-0.02,0.01l-0.01,0l-0.1,0.03l-0.01,0l-0.02,0.01l-0.08,0.03 l-0.01,0l-0.07,0.02l-0.05,0.02l-0.04,0.01l-0.08,0.03l0,0l-0.08,0.03l-0.03,0.01l-0.05,0.02l-0.07,0.03l-0.01,0.01l-0.08,0.03 l-0.02,0.01l-0.06,0.03l-0.05,0.03l-0.02,0.01l-0.08,0.04l-0.01,0.01l-0.07,0.03l-0.04,0.02l-0.01,0l-0.1,0.06l0,0l-0.07,0.04 l-0.03,0.02l-0.04,0.03l-0.06,0.04l-0.01,0.01l-0.07,0.05l-0.02,0.01l-0.05,0.04l-0.05,0.03l-0.02,0.02l-0.07,0.05l-0.01,0.01 l-0.06,0.05L99,66.79l-0.03,0.02l-0.06,0.05l0,0l-0.07,0.05l-0.03,0.02l-0.04,0.03l-0.05,0.05l-0.01,0.01l-0.06,0.06l-0.02,0.02 l-0.05,0.04l-0.04,0.04l-0.02,0.02l-0.06,0.06l-0.01,0.01l-0.05,0.05l-0.03,0.03l-0.03,0.03l-0.05,0.06l0,0l-0.05,0.06l-0.02,0.03 l-0.03,0.04l-0.04,0.05l-0.01,0.01l-0.05,0.07l-0.01,0.02l-0.04,0.05l-0.03,0.05l-0.02,0.02l-0.05,0.07L97.88,68l-0.03,0.04 l-0.02,0.03l-0.04,0.07l0,0l-0.04,0.07l-0.02,0.03l-0.03,0.05l-0.01,0.01l-0.03,0.06l-0.04,0.08c-0.36,0.69-0.56,1.48-0.56,2.32 c0,2.79,2.26,5.06,5.06,5.06c2.79,0,5.06-2.26,5.06-5.06C107.18,69.93,106.97,69.14,106.61,68.45L106.61,68.45z M106.45,24.65 l8.25,9.83v3.58H96.44V24.65H106.45L106.45,24.65z M34.15,32.91h11.29l-1.59,10.01H32.56L34.15,32.91L34.15,32.91z M15.82,17.45 h11.29l-1.59,10.01H14.24L15.82,17.45L15.82,17.45z M13.36,32.91h11.29l-1.59,10.01H11.77L13.36,32.91L13.36,32.91z M57.83,17.45 h11.29l-1.59,10.01H56.24L57.83,17.45L57.83,17.45z M55.36,32.91h11.29l-1.59,10.01H53.35L55.36,32.91L55.36,32.91z M36.61,17.45 H47.9l-1.59,10.01H35.03L36.61,17.45L36.61,17.45z M55.22,65.96l-0.09,0l-0.03,0l-0.02,0l-0.11,0l-0.03,0l-0.09,0.01l-0.01,0 l-0.08,0.01l-0.04,0l-0.05,0.01L54.59,66l-0.02,0l-0.09,0.01l-0.02,0l-0.07,0.01l-0.05,0.01l-0.04,0.01l-0.08,0.02l-0.01,0 l-0.09,0.02l-0.03,0.01l-0.06,0.02l-0.06,0.01l-0.03,0.01l-0.09,0.02l0,0l-0.09,0.03l-0.03,0.01l-0.05,0.02l-0.06,0.02l-0.02,0.01 l-0.08,0.03l-0.01,0l-0.08,0.03l-0.04,0.02l0,0l-0.11,0.04l0,0l-0.01,0.01l-0.08,0.04l-0.02,0.01l-0.07,0.03l-0.04,0.02l-0.04,0.02 l-0.07,0.04l-0.01,0l-0.08,0.04l-0.02,0.01l-0.05,0.03l-0.05,0.03l-0.03,0.02l-0.08,0.05l0,0l-0.07,0.05l-0.03,0.02l-0.05,0.03 l-0.05,0.04l-0.02,0.01l-0.07,0.05l-0.01,0.01l-0.06,0.05l-0.03,0.02l-0.04,0.03l-0.06,0.05l-0.01,0.01l-0.07,0.06l-0.01,0.01 l-0.05,0.04l-0.04,0.03l-0.03,0.03l-0.06,0.05l0,0l-0.06,0.06l-0.05,0.05l-0.01,0.01l-0.04,0.04l-0.02,0.02l-0.06,0.06l0,0 l-0.06,0.06l-0.06,0.07l-0.04,0.05l-0.01,0.02l-0.06,0.07l-0.01,0.01l-0.05,0.06l-0.03,0.03l-0.03,0.04l-0.05,0.06l-0.01,0.01 l-0.05,0.07l-0.01,0.01l-0.04,0.06l0,0l-0.05,0.07l-0.05,0.07l0,0l-0.05,0.08l-0.01,0.02l-0.03,0.05l-0.03,0.05l-0.01,0.03 l-0.01,0.02l-0.06,0.12l-0.01,0.01l-0.02,0.03l-0.02,0.05l-0.03,0.06l-0.01,0.02l-0.04,0.08c-0.29,0.63-0.45,1.33-0.45,2.06 c0,2.76,2.23,4.99,4.99,4.99c2.76,0,4.99-2.23,4.99-4.99c0-0.74-0.16-1.43-0.45-2.06l-0.04-0.08l-0.01-0.02l-0.03-0.06l-0.02-0.05 l-0.02-0.03l-0.04-0.08l0,0l-0.04-0.08l-0.01-0.03l-0.03-0.05l-0.03-0.05l-0.01-0.02l-0.05-0.08l0,0l-0.05-0.07l-0.05-0.07l0,0 l-0.04-0.06l-0.01-0.01l-0.05-0.07l-0.01-0.01l-0.05-0.06l-0.03-0.04l-0.03-0.03l-0.05-0.06l-0.01-0.01l0,0L59,67.68l-0.04-0.05 l-0.04-0.04l-0.02-0.02l-0.06-0.06l0,0l-0.06-0.06l-0.02-0.02l-0.04-0.04l-0.05-0.04l-0.02-0.02l-0.06-0.06l0,0l-0.06-0.05 l-0.03-0.03l-0.04-0.03L58.4,67.1l-0.01-0.01l-0.07-0.06l-0.01-0.01l-0.06-0.05l-0.04-0.03l-0.03-0.02l-0.06-0.05l-0.01-0.01 l-0.07-0.05l-0.02-0.01l-0.05-0.04l-0.05-0.03l0,0l-0.09-0.05l-0.01-0.01l0,0l-0.08-0.05l-0.03-0.02l-0.05-0.03l-0.06-0.03 l-0.02-0.01l-0.09-0.04l-0.07-0.04l-0.04-0.02l-0.01,0l-0.1-0.05l-0.02-0.01l-0.08-0.04l-0.01-0.01l0,0 c-0.07-0.03-0.15-0.06-0.22-0.09l-0.01,0l-0.08-0.03l-0.02-0.01l-0.06-0.02l-0.05-0.02l-0.03-0.01l-0.09-0.03l0,0l-0.09-0.02 l-0.03-0.01l-0.06-0.01l-0.06-0.02l-0.02-0.01l-0.09-0.02l-0.01,0l-0.08-0.02l-0.04-0.01l-0.05-0.01l-0.07-0.01l-0.02,0L55.87,66 l-0.02,0l-0.08-0.01l-0.05-0.01l-0.04,0l-0.08-0.01l-0.01,0l-0.09-0.01l-0.03,0l-0.11,0l-0.02,0l-0.03,0L55.22,65.96L55.22,65.96z"/></g></svg>