<svg xmlns="http://www.w3.org/2000/svg" xmlns:xlink="http://www.w3.org/1999/xlink" viewBox="0 0 50 50"><path d="M43.90625 1.96875C43.863281 1.976563 43.820313 1.988281 43.78125 2L40 2C39.730469 2 39.46875 2.121094 39.28125 2.3125L25.21875 16.59375L26.4375 18.15625L30.21875 14.34375L30.90625 20.875L29.8125 22.5L30.9375 23.96875C30.988281 24.035156 31.046875 24.089844 31.09375 24.15625L43 6.3125L43 28.28125C42.402344 28.628906 42 29.261719 42 30C42 30.738281 42.402344 31.371094 43 31.71875L43 32.96875C43 33.90625 43.609375 34.789063 44.5625 35.0625C45.503906 35.332031 46.164063 36.265625 45.96875 37.375C45.832031 38.148438 45.152344 38.832031 44.375 38.96875C43.0625 39.199219 42 38.238281 42 37C42.003906 36.640625 41.816406 36.304688 41.503906 36.121094C41.191406 35.941406 40.808594 35.941406 40.496094 36.121094C40.183594 36.304688 39.996094 36.640625 40 37C40 39.433594 42.238281 41.371094 44.71875 40.9375C46.355469 40.648438 47.652344 39.355469 47.9375 37.71875C48.304688 35.625 46.992188 33.695313 45.09375 33.15625C45.054688 33.144531 45 33.0625 45 32.96875L45 31.71875C45.597656 31.371094 46 30.738281 46 30C46 29.261719 45.597656 28.628906 45 28.28125L45 3.0625C45.003906 3.015625 45.003906 2.953125 45 2.90625C44.992188 2.863281 44.980469 2.820313 44.96875 2.78125C44.949219 2.695313 44.917969 2.609375 44.875 2.53125C44.832031 2.453125 44.78125 2.378906 44.71875 2.3125C44.691406 2.277344 44.660156 2.246094 44.625 2.21875C44.550781 2.15625 44.464844 2.101563 44.375 2.0625C44.34375 2.050781 44.316406 2.039063 44.28125 2.03125C44.160156 1.988281 44.035156 1.964844 43.90625 1.96875 Z M 40.40625 4L42.125 4L38.71875 9.125L38.4375 5.96875 Z M 36.59375 7.875L36.84375 10.9375L33.34375 11.15625 Z M 36.15625 12.96875L32.625 18.25L32.09375 13.25 Z M 8 16C6.347656 16 5 17.347656 5 19L5 31C5 32.652344 6.347656 34 8 34L11 34L11 36L8 36C4.691406 36 2 38.691406 2 42C2 45.308594 4.691406 48 8 48L30 48C33.308594 48 36 45.308594 36 42C36 38.691406 33.308594 36 30 36L27 36L27 34L28 34C29.652344 34 31 32.652344 31 31L31 27C30.992188 26.125 30.691406 25.253906 30.15625 24.5625L24.40625 17.15625C23.839844 16.433594 22.949219 16 22.03125 16 Z M 18.3125 18L22.03125 18C22.339844 18 22.625 18.132813 22.8125 18.375L28.59375 25.8125C28.859375 26.152344 28.992188 26.566406 29 27L20.75 27 Z M 13 34L25 34L25 36L13 36 Z M 8 40C9.105469 40 10 40.894531 10 42C10 43.105469 9.105469 44 8 44C6.894531 44 6 43.105469 6 42C6 40.894531 6.894531 40 8 40 Z M 14 40C15.105469 40 16 40.894531 16 42C16 43.105469 15.105469 44 14 44C12.894531 44 12 43.105469 12 42C12 40.894531 12.894531 40 14 40 Z M 24 40C25.105469 40 26 40.894531 26 42C26 43.105469 25.105469 44 24 44C22.894531 44 22 43.105469 22 42C22 40.894531 22.894531 40 24 40 Z M 30 40C31.105469 40 32 40.894531 32 42C32 43.105469 31.105469 44 30 44C28.894531 44 28 43.105469 28 42C28 40.894531 28.894531 40 30 40Z"/></svg>