<svg xmlns="http://www.w3.org/2000/svg" xmlns:xlink="http://www.w3.org/1999/xlink" viewBox="0 0 50 50"><path d="M8.21875 0C6.449219 0 5 1.449219 5 3.21875L5 12.03125L7 12.03125L7 3.21875C7 2.527344 7.527344 2 8.21875 2L41.78125 2C42.46875 2 43 2.527344 43 3.21875L43 12.03125L45 12.03125L45 3.21875C45 1.449219 43.550781 0 41.78125 0 Z M 24 9.21875C19.90625 9.21875 16.820313 9.554688 14.65625 10.15625C13.574219 10.457031 12.726563 10.835938 12.0625 11.3125C11.417969 11.777344 10.953125 12.414063 10.875 13.1875L10.84375 13.1875L10.84375 13.25L9.125 26L8.21875 26C7.796875 26 7.394531 26.03125 7 26.125L7 23.96875L5 23.96875L5 27.125C3.792969 28.070313 3 29.523438 3 31.1875L3 40C3 40.03125 3 40.0625 3 40.09375L3 44.8125C2.996094 44.855469 2.996094 44.894531 3 44.9375L3 47C3 48.644531 4.355469 50 6 50L10 50C11.644531 50 13 48.644531 13 47L13 45L29.78125 45C31.746094 48.011719 35.144531 50 39 50C39.230469 50 39.460938 49.984375 39.6875 49.96875C39.789063 49.996094 39.894531 50.007813 40 50L44 50C45.644531 50 47 48.644531 47 47C47.007813 46.863281 46.984375 46.722656 46.9375 46.59375C48.828125 44.617188 50 41.941406 50 39C50 36.089844 48.855469 33.4375 47 31.46875L47 31.1875C47 29.523438 46.207031 28.070313 45 27.125L45 23.96875L43 23.96875L43 26.125C42.605469 26.03125 42.203125 26 41.78125 26L40.875 26L39.15625 13.25L39.15625 13.1875L39.125 13.1875C39.027344 12.238281 38.3125 11.679688 37.5 11.25C36.667969 10.808594 35.59375 10.449219 34.28125 10.15625C31.65625 9.574219 28.09375 9.21875 24 9.21875 Z M 24 11.21875C27.980469 11.21875 31.433594 11.589844 33.84375 12.125C35.046875 12.394531 35.992188 12.699219 36.5625 13C36.992188 13.226563 37.125 13.414063 37.15625 13.4375C37.167969 13.449219 37.175781 13.457031 37.1875 13.46875L38.21875 21.125C36.96875 21.347656 32.75 22 25 22C17.25 22 13.03125 21.347656 11.78125 21.125L12.8125 13.46875C12.824219 13.449219 12.835938 13.425781 12.84375 13.40625C12.847656 13.347656 12.851563 13.203125 13.21875 12.9375C13.585938 12.671875 14.25 12.351563 15.1875 12.09375C17.058594 11.574219 20.019531 11.21875 24 11.21875 Z M 4.25 12.90625C2.980469 12.90625 1.90625 13.980469 1.90625 15.25L1.90625 20.75C1.90625 22.023438 2.980469 23.09375 4.25 23.09375L5.75 23.09375C7.023438 23.09375 8.09375 22.019531 8.09375 20.75L8.09375 15.25C8.09375 13.976563 7.019531 12.90625 5.75 12.90625 Z M 44.25 12.90625C42.980469 12.90625 41.90625 13.976563 41.90625 15.25L41.90625 20.75C41.90625 22.019531 42.976563 23.09375 44.25 23.09375L45.75 23.09375C47.019531 23.09375 48.09375 22.023438 48.09375 20.75L48.09375 15.25C48.09375 13.980469 47.023438 12.90625 45.75 12.90625 Z M 4.25 15.09375L5.75 15.09375C5.851563 15.09375 5.90625 15.148438 5.90625 15.25L5.90625 20.75C5.90625 20.851563 5.851563 20.90625 5.75 20.90625L4.25 20.90625C4.148438 20.90625 4.09375 20.851563 4.09375 20.75L4.09375 15.25C4.09375 15.148438 4.148438 15.09375 4.25 15.09375 Z M 44.25 15.09375L45.75 15.09375C45.851563 15.09375 45.90625 15.148438 45.90625 15.25L45.90625 20.75C45.90625 20.851563 45.851563 20.90625 45.75 20.90625L44.25 20.90625C44.148438 20.90625 44.09375 20.851563 44.09375 20.75L44.09375 15.25C44.09375 15.148438 44.148438 15.09375 44.25 15.09375 Z M 11.53125 23.09375C13.09375 23.363281 17.515625 24 25 24C32.484375 24 36.90625 23.363281 38.46875 23.09375L39 27.125C39.0625 27.628906 39.492188 28.003906 40 28L41.78125 28C42.960938 28 43.972656 28.585938 44.53125 29.5C42.90625 28.554688 41.011719 28 39 28C36.769531 28 34.699219 28.667969 32.96875 29.8125L32.96875 28.625C32.96875 27.207031 31.792969 26.03125 30.375 26.03125L19.625 26.03125C18.207031 26.03125 17.03125 27.207031 17.03125 28.625L17.03125 33.375C17.03125 34.792969 18.207031 35.96875 19.625 35.96875L28.4375 35.96875C28.25 36.625 28.125 37.300781 28.0625 38L5 38L5 31.1875C5 29.355469 6.417969 28 8.21875 28L10 28C10.507813 28.003906 10.9375 27.628906 11 27.125 Z M 19.625 27.96875L30.375 27.96875C30.746094 27.96875 31.03125 28.253906 31.03125 28.625L31.03125 31.4375C30.304688 32.207031 29.703125 33.078125 29.21875 34.03125L19.625 34.03125C19.253906 34.03125 18.96875 33.746094 18.96875 33.375L18.96875 28.625C18.96875 28.253906 19.253906 27.96875 19.625 27.96875 Z M 8.6875 30C7.761719 30 7 30.761719 7 31.6875L7 34.3125C7 35.238281 7.761719 36 8.6875 36L13.3125 36C14.238281 36 15 35.238281 15 34.3125L15 31.6875C15 30.761719 14.238281 30 13.3125 30 Z M 39 30C41.410156 30 43.605469 30.933594 45.21875 32.46875C45.238281 32.492188 45.257813 32.511719 45.28125 32.53125C46.964844 34.164063 48 36.460938 48 39C48 43.980469 43.980469 48 39 48C34.019531 48 30 43.980469 30 39C30 34.019531 34.019531 30 39 30 Z M 9 32L13 32L13 34L9 34 Z M 44 35.34375L38.3125 41.03125L34.75 37.46875L33.3125 38.875L37.625 43.15625L38.3125 43.875L39.03125 43.15625L45.4375 36.78125 Z M 5 40L28.0625 40C28.15625 41.050781 28.410156 42.054688 28.78125 43L5 43L5 40.15625C5.003906 40.105469 5.003906 40.050781 5 40 Z M 5 45L11 45L11 47C11 47.5625 10.5625 48 10 48L6 48C5.4375 48 5 47.5625 5 47Z"/></svg>