<svg xmlns="http://www.w3.org/2000/svg" xmlns:xlink="http://www.w3.org/1999/xlink" viewBox="0 0 50 50"><path d="M11 11C4.9375 11 0 15.9375 0 22C0 24.347656 0.746094 26.519531 2 28.308594L2 42.003906C2 43.664063 3.339844 45 5 45L7.09375 45C7.570313 47.828125 10.039063 50 13 50C15.960938 50 18.429688 47.828125 18.90625 45L28.15625 45C28.898438 45 29.574219 44.699219 30.082031 44.226563C30.59375 44.679688 31.246094 44.992188 31.992188 45L33.09375 45C33.570313 47.828125 36.039063 50 39 50C42.300781 50 45 47.300781 45 44C45 40.699219 42.300781 38 39 38C36.039063 38 33.570313 40.171875 33.09375 43L32.007813 43C31.820313 43 31.539063 42.882813 31.328125 42.671875C31.113281 42.457031 31 42.183594 31 42L31 23C31 22.625 31.625 22 32 22L40 22C40.792969 22 41.921875 22.867188 42.6875 23.785156L42.84375 24L38 24C36.40625 24 35 25.289063 35 27L35 31C35 31.832031 35.386719 32.550781 35.917969 33.082031C36.449219 33.613281 37.167969 34 38 34L48 34L48 42C48 42.375 47.375 43 47 43L45 43L45 45L47 45C48.660156 45 50 43.660156 50 42L50 32.386719C50 30.097656 48.402344 28.074219 48.402344 28.074219L48.390625 28.0625L44.246094 22.535156L44.230469 22.515625C43.308594 21.402344 41.914063 20 40 20L32 20C31.644531 20 31.3125 20.070313 31 20.183594L31 17.90625C31 16.371094 29.789063 15 28.1875 15L19.480469 15C17.457031 12.558594 14.40625 11 11 11 Z M 11 13C15.980469 13 20 17.019531 20 22C20 26.980469 15.980469 31 11 31C6.019531 31 2 26.980469 2 22C2 17.019531 6.019531 13 11 13 Z M 10.984375 13.984375C10.433594 13.996094 9.992188 14.449219 10 15L10 20.78125C9.632813 21.082031 9.421875 21.527344 9.421875 22C9.421875 22.050781 9.425781 22.101563 9.429688 22.15625L7.292969 24.292969C7.03125 24.542969 6.925781 24.917969 7.019531 25.265625C7.109375 25.617188 7.382813 25.890625 7.734375 25.980469C8.082031 26.074219 8.457031 25.96875 8.707031 25.707031L10.84375 23.570313C10.894531 23.574219 10.949219 23.578125 11 23.578125C11.871094 23.578125 12.578125 22.871094 12.578125 22C12.578125 21.527344 12.367188 21.082031 12 20.78125L12 15C12.003906 14.730469 11.898438 14.46875 11.707031 14.277344C11.515625 14.085938 11.253906 13.980469 10.984375 13.984375 Z M 20.785156 17L28.1875 17C28.617188 17 29 17.414063 29 17.90625L29 22.980469C29 22.988281 29 22.992188 29 23L29 42C29 42.007813 29 42.011719 29 42.015625L29 42.15625C29 42.628906 28.628906 43 28.15625 43L18.90625 43C18.429688 40.171875 15.960938 38 13 38C10.039063 38 7.570313 40.171875 7.09375 43L5 43C4.625 43 4 42.375 4 42.003906L4 30.472656C5.902344 32.050781 8.34375 33 11 33C17.0625 33 22 28.0625 22 22C22 20.199219 21.558594 18.5 20.785156 17 Z M 38 26L44.34375 26L46.773438 29.238281C46.777344 29.246094 47.691406 30.804688 47.882813 32L38 32C37.832031 32 37.550781 31.886719 37.332031 31.667969C37.113281 31.449219 37 31.167969 37 31L37 27C37 26.496094 37.59375 26 38 26 Z M 13 40C15.222656 40 17 41.777344 17 44C17 46.222656 15.222656 48 13 48C10.777344 48 9 46.222656 9 44C9 41.777344 10.777344 40 13 40 Z M 39 40C41.222656 40 43 41.777344 43 44C43 46.222656 41.222656 48 39 48C36.777344 48 35 46.222656 35 44C35 41.777344 36.777344 40 39 40Z"/></svg>