<svg xmlns="http://www.w3.org/2000/svg" xmlns:xlink="http://www.w3.org/1999/xlink" viewBox="0 0 50 50"><path d="M11 11C4.898438 11 0 15.898438 0 22C0 24.300781 0.699219 26.5 2 28.300781L2 42C2 43.601563 3.398438 45 5 45L7.09375 45C7.574219 47.828125 10.042969 50 13 50C15.957031 50 18.425781 47.828125 18.90625 45L28.097656 45C29.699219 45 30.902344 43.699219 30.902344 42.199219L30.902344 17.902344C31 16.300781 29.699219 15 28.199219 15L19.5 15C17.5 12.601563 14.398438 11 11 11 Z M 11 13C16 13 20 17 20 22C20 27 16 31 11 31C6 31 2 27 2 22C2 17 6 13 11 13 Z M 10.984375 13.984375C10.433594 13.996094 9.992188 14.449219 10 15L10 20.75C9.621094 21.054688 9.402344 21.515625 9.398438 22C9.402344 22.058594 9.40625 22.117188 9.414063 22.171875L7.292969 24.292969C7.03125 24.542969 6.925781 24.917969 7.019531 25.265625C7.109375 25.617188 7.382813 25.890625 7.734375 25.980469C8.082031 26.074219 8.457031 25.96875 8.707031 25.707031L10.824219 23.589844C10.882813 23.597656 10.941406 23.597656 11 23.597656C11.882813 23.597656 12.597656 22.882813 12.597656 22C12.597656 21.515625 12.378906 21.054688 12 20.75L12 15C12.003906 14.730469 11.898438 14.46875 11.707031 14.277344C11.515625 14.085938 11.253906 13.980469 10.984375 13.984375 Z M 34 20C32.898438 20 32 20.898438 32 22L32 43C32 43.839844 32.527344 44.5625 33.265625 44.855469C33.6875 47.753906 36.191406 50 39.199219 50C42.15625 50 44.628906 47.828125 45.109375 45L47 45C48.699219 45 50 43.699219 50 42L50 32.402344C50 30.402344 48.601563 28.300781 48.402344 28.097656L46.097656 25L44.199219 22.5C43.199219 21.398438 41.699219 20 40 20 Z M 38 25L43.597656 25L46.800781 29.199219C47.101563 29.699219 48 31.199219 48 32.300781L48 33L38 33C37 33 36 32 36 31L36 27C36 25.898438 37 25 38 25 Z M 13 40C15.199219 40 17 41.800781 17 44C17 46.199219 15.199219 48 13 48C10.800781 48 9 46.199219 9 44C9 41.800781 10.800781 40 13 40 Z M 39.199219 40C41.398438 40 43.199219 41.800781 43.199219 44C43.199219 46.199219 41.398438 48 39.199219 48C37 48 35.199219 46.199219 35.199219 44C35.199219 41.800781 37 40 39.199219 40Z"/></svg>