<svg xmlns="http://www.w3.org/2000/svg" xmlns:xlink="http://www.w3.org/1999/xlink" viewBox="0 0 50 50"><path d="M36 3C34.355469 3 33 4.355469 33 6C33 6.484375 33.136719 6.9375 33.34375 7.34375L26.03125 12.9375L27.25 14.53125L34.8125 8.75C35.179688 8.910156 35.578125 9 36 9C36.238281 9 36.464844 8.960938 36.6875 8.90625L43.6875 21.09375C43.257813 21.613281 43 22.28125 43 23C43 23.46875 43.117188 23.914063 43.3125 24.3125L37.1875 32.40625L36 34L45 34C46.644531 34 48 32.644531 48 31L48 25.21875C48.609375 24.667969 49 23.878906 49 23C49 21.355469 47.644531 20 46 20C45.792969 20 45.601563 20.023438 45.40625 20.0625L38.375 7.84375C38.769531 7.335938 39 6.6875 39 6C39 4.355469 37.644531 3 36 3 Z M 36 5C36.5625 5 37 5.4375 37 6C37 6.5625 36.5625 7 36 7C35.4375 7 35 6.5625 35 6C35 5.4375 35.4375 5 36 5 Z M 16 12C14.90625 12 14 12.90625 14 14L14 20L8 20C6.355469 20 5 21.355469 5 23L5 28C5 29.644531 6.355469 31 8 31L11 31L11 33L8 33C4.699219 33 2 35.699219 2 39C2 42.300781 4.699219 45 8 45L28 45C31.300781 45 34 42.300781 34 39C34 35.699219 31.300781 33 28 33L25 33L25 31L28 31C29.644531 31 31 29.644531 31 28L31 23.03125C31 22.140625 30.703125 21.265625 30.15625 20.5625L24.375 13.15625C23.808594 12.425781 22.957031 12 22.03125 12 Z M 16 14L22.03125 14C22.339844 14 22.621094 14.132813 22.8125 14.375L28.59375 21.8125C28.859375 22.15625 28.992188 22.566406 29 23L17.5625 23L16 20.65625 Z M 8 22L14.4375 22L16.15625 24.5625L16.46875 25L29 25L29 28C29 28.566406 28.566406 29 28 29L8 29C7.433594 29 7 28.566406 7 28L7 23C7 22.433594 7.433594 22 8 22 Z M 46 22C46.5625 22 47 22.4375 47 23C47 23.5625 46.5625 24 46 24C45.4375 24 45 23.5625 45 23C45 22.4375 45.4375 22 46 22 Z M 44.78125 25.71875C45.15625 25.890625 45.5625 26 46 26L46 31C46 31.566406 45.566406 32 45 32L40.03125 32 Z M 13 31L23 31L23 33L13 33 Z M 8 35L28 35C30.21875 35 32 36.78125 32 39C32 41.21875 30.21875 43 28 43L8 43C5.78125 43 4 41.21875 4 39C4 36.78125 5.78125 35 8 35 Z M 8 37C6.894531 37 6 37.894531 6 39C6 40.105469 6.894531 41 8 41C9.105469 41 10 40.105469 10 39C10 37.894531 9.105469 37 8 37 Z M 14 37C12.894531 37 12 37.894531 12 39C12 40.105469 12.894531 41 14 41C15.105469 41 16 40.105469 16 39C16 37.894531 15.105469 37 14 37 Z M 22 37C20.894531 37 20 37.894531 20 39C20 40.105469 20.894531 41 22 41C23.105469 41 24 40.105469 24 39C24 37.894531 23.105469 37 22 37 Z M 28 37C26.894531 37 26 37.894531 26 39C26 40.105469 26.894531 41 28 41C29.105469 41 30 40.105469 30 39C30 37.894531 29.105469 37 28 37Z"/></svg>