<svg xmlns="http://www.w3.org/2000/svg" xmlns:xlink="http://www.w3.org/1999/xlink" viewBox="0 0 50 50"><path d="M28 9C27.640625 8.996094 27.304688 9.183594 27.121094 9.496094C26.941406 9.808594 26.941406 10.191406 27.121094 10.503906C27.304688 10.816406 27.640625 11.003906 28 11L30.339844 11C30.367188 11.066406 30.699219 11.847656 30.761719 12L29.453125 12C28.320313 12 27.210938 12.308594 26.238281 12.890625L22.722656 15L6 15C5.640625 14.996094 5.304688 15.183594 5.121094 15.496094C4.941406 15.808594 4.941406 16.191406 5.121094 16.503906C5.304688 16.816406 5.640625 17.003906 6 17L9.667969 17L10.859375 18.785156L17 21L19.578125 20.761719L16.761719 25.503906L16.1875 25.761719C16.171875 25.734375 16.160156 25.703125 16.144531 25.675781L15.832031 25.863281C15.636719 25.539063 15.421875 25.222656 15.179688 24.929688L15.453125 24.703125C14.949219 24.089844 14.359375 23.550781 13.699219 23.101563L13.5 23.394531C13.1875 23.179688 12.855469 22.992188 12.511719 22.824219L12.671875 22.5C11.953125 22.152344 11.191406 21.90625 10.40625 21.769531L10.347656 22.125C9.976563 22.058594 9.597656 22.019531 9.210938 22.011719L9.21875 21.652344C8.429688 21.632813 7.636719 21.726563 6.863281 21.929688L6.953125 22.277344C6.585938 22.375 6.222656 22.492188 5.875 22.640625L5.734375 22.3125C5 22.625 4.3125 23.039063 3.695313 23.546875L3.925781 23.824219C3.632813 24.066406 3.359375 24.335938 3.101563 24.613281L2.832031 24.371094C2.296875 24.957031 1.847656 25.617188 1.496094 26.332031L1.820313 26.496094C1.65625 26.832031 1.507813 27.183594 1.390625 27.546875L1.050781 27.4375C0.804688 28.199219 0.671875 28.988281 0.648438 29.78125L1.007813 29.792969C1.007813 29.863281 1 29.929688 1 30C1 30.316406 1.023438 30.625 1.058594 30.933594L0.703125 30.972656C0.75 31.363281 0.824219 31.753906 0.925781 32.136719C1.027344 32.523438 1.160156 32.90625 1.3125 33.269531L1.640625 33.128906C1.792969 33.484375 1.972656 33.816406 2.171875 34.140625L1.859375 34.332031C2.269531 35.011719 2.777344 35.632813 3.367188 36.171875L3.617188 35.898438C3.898438 36.152344 4.191406 36.394531 4.507813 36.609375L4.304688 36.90625C4.964844 37.355469 5.679688 37.707031 6.4375 37.949219L6.546875 37.609375C6.90625 37.726563 7.277344 37.8125 7.65625 37.878906L7.59375 38.234375C8.382813 38.367188 9.183594 38.390625 9.976563 38.296875L9.929688 37.941406C10.3125 37.898438 10.6875 37.820313 11.050781 37.722656L11.140625 38.074219C11.914063 37.867188 12.652344 37.554688 13.328125 37.140625L13.140625 36.828125C13.46875 36.632813 13.785156 36.417969 14.078125 36.171875L14.304688 36.453125C14.917969 35.945313 15.457031 35.355469 15.90625 34.691406L15.609375 34.496094C15.824219 34.179688 16.007813 33.847656 16.175781 33.503906L16.503906 33.660156C16.855469 32.945313 17.097656 32.183594 17.234375 31.402344L16.878906 31.339844C16.941406 30.96875 16.980469 30.589844 16.988281 30.203125L17.347656 30.214844C17.355469 29.972656 17.328125 29.730469 17.3125 29.488281L20 29L25 31L26 31C27.65625 31 29 29.65625 29 28L29 23.964844C28.789063 23.984375 28.570313 24 28.34375 24C26.515625 24 25.003906 23.414063 24 22.890625L24 26L19.472656 24.859375L21.792969 20.953125C21.867188 20.828125 21.914063 20.6875 21.933594 20.542969L24 20.347656C24 20.347656 25.609375 22 28.34375 22C28.679688 22 28.984375 21.957031 29.265625 21.886719C29.953125 21.570313 31.851563 20.527344 33.363281 18.140625C33.542969 18.554688 33.542969 18.558594 33.726563 18.992188C34.417969 20.613281 35.058594 22.113281 35.6875 23.574219C35.332031 23.863281 34.996094 24.175781 34.691406 24.523438L34.96875 24.765625C34.71875 25.050781 34.492188 25.355469 34.28125 25.671875L33.980469 25.480469C33.546875 26.148438 33.214844 26.875 32.988281 27.640625L33.332031 27.738281C33.226563 28.101563 33.148438 28.476563 33.09375 28.859375L32.734375 28.804688C32.621094 29.59375 32.617188 30.394531 32.730469 31.183594L33.089844 31.128906C33.144531 31.511719 33.222656 31.882813 33.328125 32.246094L32.984375 32.347656C33.207031 33.109375 33.539063 33.835938 33.96875 34.507813L34.277344 34.3125C34.480469 34.632813 34.710938 34.9375 34.957031 35.222656L34.683594 35.464844C35.203125 36.070313 35.808594 36.59375 36.480469 37.027344L36.675781 36.71875C36.996094 36.921875 37.328125 37.105469 37.675781 37.265625L37.527344 37.59375C38.25 37.925781 39.015625 38.152344 39.804688 38.265625L39.859375 37.90625C40.230469 37.960938 40.605469 38 40.992188 38L40.992188 38.355469C41.792969 38.355469 42.582031 38.242188 43.347656 38.015625L43.246094 37.671875C43.613281 37.5625 43.972656 37.429688 44.316406 37.269531L44.46875 37.597656C44.824219 37.433594 45.171875 37.246094 45.503906 37.03125C45.839844 36.816406 46.164063 36.574219 46.464844 36.3125L46.226563 36.039063C46.515625 35.789063 46.785156 35.519531 47.03125 35.234375L47.308594 35.472656C47.832031 34.871094 48.261719 34.199219 48.59375 33.46875L48.265625 33.324219C48.425781 32.976563 48.5625 32.621094 48.671875 32.253906L49.011719 32.355469C49.234375 31.589844 49.347656 30.800781 49.347656 30.003906L49 30.003906C49 30.003906 49 30 49 30C49 29.613281 48.964844 29.238281 48.910156 28.863281L49.265625 28.8125C49.152344 28.027344 48.925781 27.257813 48.59375 26.53125L48.265625 26.683594C48.109375 26.335938 47.925781 26 47.71875 25.683594L48.023438 25.484375C47.589844 24.8125 47.066406 24.210938 46.46875 23.6875L46.230469 23.964844C45.941406 23.714844 45.640625 23.484375 45.316406 23.277344L45.511719 22.972656C44.839844 22.542969 44.113281 22.214844 43.347656 21.988281L43.25 22.328125C42.886719 22.222656 42.515625 22.144531 42.136719 22.089844L42.1875 21.734375C41.394531 21.621094 40.59375 21.621094 39.808594 21.734375L39.859375 22.089844C39.476563 22.144531 39.105469 22.222656 38.742188 22.328125L38.640625 21.988281C38.210938 22.113281 37.796875 22.285156 37.390625 22.480469C36.800781 21.097656 36.210938 19.722656 35.566406 18.207031C35.519531 18.101563 35.523438 18.105469 35.480469 18L41 18C41.359375 18.003906 41.695313 17.816406 41.878906 17.503906C42.058594 17.191406 42.058594 16.808594 41.878906 16.496094C41.695313 16.183594 41.359375 15.996094 41 16L34.628906 16C33.359375 13.007813 31.921875 9.609375 31.921875 9.609375C31.765625 9.242188 31.402344 9 31 9 Z M 9 24C11.117188 24 12.964844 25.085938 14.03125 26.734375L10.25 28.4375C9.894531 28.15625 9.453125 28 9 28C7.894531 28 7 28.894531 7 30C7 31.105469 7.894531 32 9 32C9.851563 32 10.609375 31.460938 10.886719 30.65625L14.996094 29.910156C14.996094 29.941406 15 29.96875 15 30C15 33.324219 12.324219 36 9 36C5.675781 36 3 33.324219 3 30C3 26.675781 5.675781 24 9 24 Z M 41 24C44.324219 24 47 26.675781 47 30C47 33.324219 44.324219 36 41 36C37.675781 36 35 33.324219 35 30C35 28.382813 35.636719 26.925781 36.667969 25.847656C37.203125 27.09375 37.703125 28.257813 37.882813 28.613281C38.179688 29.210938 38.585938 29.65625 39 30C39 31.105469 39.894531 32 41 32C42.105469 32 43 31.105469 43 30C43 28.894531 42.105469 28 41 28C40.671875 28 40.347656 28.082031 40.058594 28.234375C39.90625 28.082031 39.769531 27.914063 39.671875 27.71875C39.578125 27.53125 38.996094 26.207031 38.316406 24.636719C39.125 24.230469 40.03125 24 41 24Z"/></svg>