<svg xmlns="http://www.w3.org/2000/svg" xmlns:xlink="http://www.w3.org/1999/xlink" viewBox="0 0 50 50"><path d="M32 7 A 1.0001 1.0001 0 0 0 31.050781 7.6835938L29.273438 13L1 13C0.447 13 0 13.448 0 14L0 24C0 24.474 0.332875 24.881516 0.796875 24.978516L24.796875 29.978516C24.864875 29.993516 24.933953 30 25.001953 30C25.430953 30 25.821125 29.723828 25.953125 29.298828L30.953125 14.298828C30.955765 14.290495 30.956574 14.281811 30.958984 14.273438L32.720703 9L42 9 A 1.0001 1.0001 0 1 0 42 7L32 7 z M 34 14 A 1.0001 1.0001 0 0 0 33 15L33 21L33 25L43 25C43.553 25 44 25.448 44 26C44 26.553 43.553 27 43 27L28.832031 27C28.830031 27 28.830125 26.998047 28.828125 26.998047L27.863281 29.890625C27.472281 31.152625 26.322953 32 25.001953 32C24.791953 32 24.581672 31.977547 24.388672 31.935547L10 28.939453L10 31.144531C7.6304493 32.36261 6 34.829483 6 37.667969C6 41.706027 9.2939699 45 13.332031 45C17.258085 45 20.474528 41.884009 20.650391 38L31.015625 38C31.191385 41.884009 34.405978 45 38.332031 45C42.257428 45 45.473537 41.885054 45.650391 38.001953L49 38.001953C49.553 38.001953 50 37.554953 50 37.001953L50 21C50 20.448 49.553 20 49 20L42.720703 20L40.949219 14.683594 A 1.0001 1.0001 0 0 0 40 14L34 14 z M 5 16L24 16C24.553 16 25 16.448 25 17C25 17.552 24.553 18 24 18L5 18C4.447 18 4 17.552 4 17C4 16.448 4.447 16 5 16 z M 35 16L39.279297 16L40.611328 20L35 20L35 16 z M 11 21L23 21C23.553 21 24 21.448 24 22C24 22.552 23.553 23 23 23L11 23C10.447 23 10 22.552 10 22C10 21.448 10.447 21 11 21 z M 13.332031 32.333984C16.289213 32.333984 18.666016 34.710789 18.666016 37.667969C18.666016 40.625149 16.289213 43 13.332031 43C10.374849 43 8 40.625149 8 37.667969C8 34.710789 10.374849 32.333984 13.332031 32.333984 z M 38.332031 32.333984C41.289213 32.333984 43.666016 34.710789 43.666016 37.667969C43.666016 40.625149 41.289213 43 38.332031 43C35.374849 43 33 40.625149 33 37.667969C33 34.710789 35.374849 32.333984 38.332031 32.333984 z M 13.332031 35 A 2.667 2.667 0 0 0 13.332031 40.333984 A 2.667 2.667 0 0 0 13.332031 35 z M 38.332031 35 A 2.667 2.667 0 0 0 38.332031 40.333984 A 2.667 2.667 0 0 0 38.332031 35 z"/></svg>