<svg xmlns="http://www.w3.org/2000/svg" xmlns:xlink="http://www.w3.org/1999/xlink" viewBox="0 0 50 50"><path d="M38.800781 4C38.034115 4 37.270136 4.3158014 36.693359 4.8925781L33.59375 7.9921875C33.275899 8.3100386 33 8.8781684 33 9.4003906L33 10L13 10C5.8545455 10 0 15.854545 0 23L0 34C0 35.645455 1.3545455 37 3 37L4 37L4 39C4 40.64497 5.3550302 42 7 42L8.2148438 42C8.8723801 44.301307 10.994575 46 13.5 46C16.005425 46 18.12762 44.301307 18.785156 42L34.214844 42C34.87238 44.301307 36.994575 46 39.5 46C42.005425 46 44.12762 44.301307 44.785156 42L47 42C48.64497 42 50 40.64497 50 39L50 34.173828C50 31.980849 48.402054 30.094577 46.238281 29.734375L46.283203 29.742188L38.587891 28.103516L35.009766 23.09375C34.072343 21.780118 32.554637 21 30.941406 21L17.544922 21C16.25394 21 15.03917 21.623946 14.289062 22.673828L10.414062 28.101562L7.796875 28.646484L7.7949219 28.646484C5.2965424 29.167478 4 31.275398 4 33.367188L4 35L3 35C2.4454545 35 2 34.554545 2 34L2 23C2 16.945455 6.9454545 12 13 12L33 12L33 12.599609C33 13.121832 33.275899 13.689963 33.59375 14.007812L36.693359 17.107422C37.270136 17.684199 38.034115 18 38.800781 18L43 18C43.522222 18 44.05461 17.808671 44.431641 17.431641C44.808671 17.05461 45 16.522222 45 16L50 16L50 14L45 14L45 8L50 8L50 6L45 6C45 5.4777778 44.808671 4.9453899 44.431641 4.5683594C44.05461 4.1913289 43.522222 4 43 4L38.800781 4 z M 38.800781 6L43 6L43 16L38.800781 16C38.567448 16 38.330645 15.91658 38.107422 15.693359L35.007812 12.59375C35.003073 12.589011 35.003742 12.591074 35 12.587891L35 9.4121094C35.003742 9.4089261 35.003074 9.4109893 35.007812 9.40625L38.107422 6.3066406C38.330657 6.0834167 38.567448 6 38.800781 6 z M 17.544922 23L23 23L23 28L12.941406 28L15.916016 23.837891C16.29191 23.311772 16.897903 23 17.544922 23 z M 25 23L30.941406 23C31.910175 23 32.820238 23.467504 33.382812 24.255859L36.056641 28L25 28L25 23 z M 11.099609 30L37.898438 30L45.888672 31.703125L45.910156 31.707031C47.122387 31.908836 48 32.944807 48 34.173828L48 39C48 39.56503 47.56503 40 47 40L44.974609 40C44.719773 37.206642 42.357053 35 39.5 35C36.642947 35 34.280227 37.206642 34.025391 40L18.974609 40C18.719773 37.206642 16.357053 35 13.5 35C10.642947 35 8.2802274 37.206642 8.0253906 40L7 40C6.4349698 40 6 39.56503 6 39L6 33.367188C6 31.975568 6.5311826 30.952945 8.203125 30.603516L11.099609 30 z M 13.5 37C15.444841 37 17 38.555159 17 40.5C17 42.444841 15.444841 44 13.5 44C11.555159 44 10 42.444841 10 40.5C10 38.555159 11.555159 37 13.5 37 z M 39.5 37C41.444841 37 43 38.555159 43 40.5C43 42.444841 41.444841 44 39.5 44C37.555159 44 36 42.444841 36 40.5C36 38.555159 37.555159 37 39.5 37 z"/></svg>