<svg xmlns="http://www.w3.org/2000/svg" xmlns:xlink="http://www.w3.org/1999/xlink" viewBox="0 0 50 50"><path d="M8.21875 4C7.738281 4.003906 7.25 4.0625 6.757813 4.1875C6.496094 4.253906 6.269531 4.421875 6.132813 4.65625C6 4.886719 5.964844 5.167969 6.039063 5.429688L12.925781 29.984375C10.839844 31.050781 9.222656 32.90625 8.472656 35.160156C6.976563 36.253906 6 38.015625 6 40C6 43.300781 8.699219 46 12 46C14.960938 46 17.429688 43.828125 17.90625 41L28.09375 41C28.570313 43.828125 31.039063 46 34 46C37.300781 46 40 43.300781 40 40C40 39.425781 39.914063 38.875 39.761719 38.347656L45.25 36.96875C45.78125 36.832031 46.105469 36.285156 45.96875 35.75C45.832031 35.21875 45.285156 34.894531 44.753906 35.03125L38.882813 36.53125C38.507813 36.003906 38.050781 35.542969 37.527344 35.160156C36.761719 32.863281 35.101563 30.984375 32.957031 29.925781C32.957031 29.90625 32.964844 29.882813 32.964844 29.859375C32.953125 29.789063 31.902344 23 24 23C21.242188 23 19.265625 23.328125 18.046875 23.625C18.082031 22.457031 18.035156 21.234375 17.933594 20L27 20C27.550781 20 28 19.550781 28 19C28 18.449219 27.550781 18 27 18L25 18L25 17C25 16.449219 24.550781 16 24 16C23.449219 16 23 16.449219 23 17L23 18L11.640625 18L8.273438 6C9.230469 6 10.128906 6.367188 10.996094 7.101563C13.003906 8.8125 14.476563 12.242188 15.296875 16L17.371094 16C16.492188 11.699219 14.785156 7.699219 12.289063 5.578125C11.050781 4.527344 9.667969 3.992188 8.21875 4 Z M 12.203125 20L15.910156 20C16.070313 21.710938 16.101563 23.394531 15.972656 24.917969C15.945313 25.269531 16.101563 25.605469 16.386719 25.8125C16.667969 26.015625 17.042969 26.054688 17.363281 25.917969C17.386719 25.910156 19.570313 25 24 25C28.351563 25 30.027344 27.484375 30.644531 29L14.730469 29 Z M 17 31L29 31C31.402344 31 33.496094 32.214844 34.753906 34.050781C34.507813 34.019531 34.257813 34 34 34C33.804688 34 33.617188 34.011719 33.425781 34.03125C33.332031 34.039063 33.242188 34.054688 33.148438 34.066406C33.066406 34.082031 32.980469 34.089844 32.902344 34.109375C30.445313 34.566406 28.511719 36.53125 28.09375 39L17.90625 39C17.488281 36.53125 15.554688 34.566406 13.097656 34.109375C13.019531 34.089844 12.933594 34.082031 12.851563 34.066406C12.757813 34.054688 12.667969 34.039063 12.574219 34.03125C12.382813 34.011719 12.195313 34 12 34C11.742188 34 11.492188 34.019531 11.246094 34.050781C12.503906 32.214844 14.597656 31 17 31 Z M 12 36C14.222656 36 16 37.777344 16 40C16 42.222656 14.222656 44 12 44C9.777344 44 8 42.222656 8 40C8 38.65625 8.65625 37.484375 9.660156 36.761719L9.851563 36.636719C10.117188 36.46875 10.398438 36.339844 10.691406 36.234375C10.800781 36.199219 10.90625 36.160156 11.015625 36.132813C11.113281 36.109375 11.207031 36.085938 11.304688 36.066406C11.53125 36.027344 11.761719 36 12 36 Z M 34 36C34.238281 36 34.46875 36.027344 34.695313 36.066406C34.792969 36.085938 34.886719 36.109375 34.984375 36.132813C35.09375 36.160156 35.199219 36.199219 35.308594 36.234375C35.601563 36.339844 35.882813 36.46875 36.144531 36.636719L36.339844 36.761719C37.34375 37.484375 38 38.65625 38 40C38 42.222656 36.222656 44 34 44C31.777344 44 30 42.222656 30 40C30 39.722656 30.027344 39.453125 30.078125 39.191406C30.449219 37.363281 32.054688 36 34 36 Z M 12 39C11.449219 39 11 39.449219 11 40C11 40.550781 11.449219 41 12 41C12.550781 41 13 40.550781 13 40C13 39.449219 12.550781 39 12 39 Z M 34 39C33.449219 39 33 39.449219 33 40C33 40.550781 33.449219 41 34 41C34.550781 41 35 40.550781 35 40C35 39.449219 34.550781 39 34 39Z"/></svg>