<svg xmlns="http://www.w3.org/2000/svg" xmlns:xlink="http://www.w3.org/1999/xlink" viewBox="0 0 50 50"><path d="M36.90625 3C36.796875 3.015625 36.691406 3.046875 36.59375 3.09375L1.90625 18.5C1.609375 18.621094 1.390625 18.875 1.3125 19.1875L0.03125 24.78125C-0.046875 25.148438 0.0859375 25.527344 0.375 25.761719C0.664063 26 1.0625 26.054688 1.40625 25.90625L6 23.875L6 28L3 28C1.355469 28 0 29.355469 0 31L0 39C0 40.644531 1.355469 42 3 42L7.09375 42C7.570313 44.835938 10.035156 47 13 47C15.964844 47 18.429688 44.835938 18.90625 42L33.09375 42C33.570313 44.835938 36.035156 47 39 47C41.964844 47 44.429688 44.835938 44.90625 42L47 42C48.644531 42 50 40.644531 50 39L50 30.09375C50 29.460938 49.882813 28.960938 49.78125 28.5625L49.75 28.5L49.75 28.46875L46.9375 20.375L46.9375 20.34375C46.199219 18.371094 44.320313 17 42.1875 17L25 17C23.355469 17 22 18.355469 22 20L22 28L14 28L14 20.3125L42.40625 7.71875C42.75 7.566406 42.980469 7.234375 43 6.855469C43.019531 6.480469 42.828125 6.125 42.5 5.9375L37.5 3.125C37.320313 3.023438 37.113281 2.980469 36.90625 3 Z M 37.0625 5.1875L39.75 6.6875L35.78125 8.4375 Z M 35.8125 5.625L34.46875 9.03125L33.90625 9.28125L30.5625 7.96875 Z M 29.3125 8.5L32.625 9.84375L27.34375 12.1875L28.6875 8.78125 Z M 27.40625 9.34375L26.09375 12.75L25.53125 13L22.125 11.6875 Z M 20.84375 12.28125L24.25 13.59375L18.9375 15.9375L20.3125 12.5 Z M 19.0625 13.0625L17.6875 16.5L17.15625 16.71875L13.75 15.4375 Z M 12.4375 16L15.875 17.3125L10.5625 19.6875L11.84375 16.28125 Z M 10.53125 16.84375L9.28125 20.25L8.71875 20.5L5.3125 19.15625 Z M 25 19L42.1875 19C43.4375 19 44.589844 19.800781 45.0625 21L40 21C39.476563 21 38.941406 21.183594 38.5625 21.5625C38.183594 21.941406 38 22.476563 38 23L38 28C38 28.523438 38.183594 29.058594 38.5625 29.4375C38.941406 29.816406 39.476563 30 40 30L48 30C48 30.03125 48 30.058594 48 30.09375L48 39C48 39.554688 47.554688 40 47 40L44.90625 40C44.429688 37.164063 41.964844 35 39 35C36.035156 35 33.570313 37.164063 33.09375 40L18.90625 40C18.429688 37.164063 15.964844 35 13 35C10.035156 35 7.570313 37.164063 7.09375 40L3 40C2.445313 40 2 39.554688 2 39L2 31C2 30.445313 2.445313 30 3 30L24 30L24 20C24 19.445313 24.445313 19 25 19 Z M 4.03125 19.71875L7.4375 21.0625L6.90625 21.28125C6.894531 21.28125 6.886719 21.28125 6.875 21.28125C6.636719 21.308594 6.414063 21.417969 6.25 21.59375L2.4375 23.28125L3.15625 20.125 Z M 28 21C27.476563 21 26.941406 21.183594 26.5625 21.5625C26.183594 21.941406 26 22.476563 26 23L26 28C26 28.523438 26.183594 29.058594 26.5625 29.4375C26.941406 29.816406 27.476563 30 28 30L34 30C34.523438 30 35.058594 29.816406 35.4375 29.4375C35.816406 29.058594 36 28.523438 36 28L36 23C36 22.476563 35.816406 21.941406 35.4375 21.5625C35.058594 21.183594 34.523438 21 34 21 Z M 12 21.21875L12 28L8 28L8 22.96875 Z M 28 23L34 23L34 28L28 28 Z M 40 23L45.71875 23L47.46875 28L40 28 Z M 13 37C15.222656 37 17 38.777344 17 41C17 43.222656 15.222656 45 13 45C10.777344 45 9 43.222656 9 41C9 38.777344 10.777344 37 13 37 Z M 39 37C41.222656 37 43 38.777344 43 41C43 43.222656 41.222656 45 39 45C36.777344 45 35 43.222656 35 41C35 38.777344 36.777344 37 39 37Z"/></svg>