<svg xmlns="http://www.w3.org/2000/svg" xmlns:xlink="http://www.w3.org/1999/xlink" viewBox="0 0 50 50"><path d="M26.90625 1.96875C26.863281 1.976563 26.820313 1.988281 26.78125 2C26.503906 2.058594 26.265625 2.230469 26.121094 2.472656C25.980469 2.71875 25.945313 3.011719 26.03125 3.28125L38.03125 42.28125C38.183594 42.773438 38.683594 43.070313 39.1875 42.96875L49.1875 40.96875C49.582031 40.957031 49.9375 40.714844 50.085938 40.347656C50.234375 39.980469 50.15625 39.558594 49.878906 39.273438C49.601563 38.988281 49.183594 38.894531 48.8125 39.03125L39.6875 40.84375L27.96875 2.71875C27.847656 2.242188 27.398438 1.921875 26.90625 1.96875 Z M 4.90625 9C4.386719 9.042969 3.992188 9.480469 4 10L4 23.96875L2.875 23.96875C1.277344 23.96875 -0.03125 25.308594 -0.03125 26.90625L-0.03125 42.40625C-0.03125 43.175781 0.285156 43.867188 0.75 44.375C0.828125 44.476563 0.921875 44.558594 1.03125 44.625C1.339844 47.640625 3.90625 50 7 50C9.953125 50 12.417969 47.851563 12.90625 45.03125L18.96875 45.03125C20.453125 47.972656 23.492188 50 27 50C31.957031 50 36 45.957031 36 41C36 37.492188 33.972656 34.453125 31.03125 32.96875L31.03125 30.6875C31.03125 29.089844 29.722656 27.78125 28.125 27.78125L26.96875 27.78125C26.960938 27.75 26.949219 27.71875 26.9375 27.6875L20.9375 9.6875C20.808594 9.277344 20.429688 9 20 9L5 9C4.96875 9 4.9375 9 4.90625 9 Z M 6 11L19.28125 11L24.875 27.78125L20.21875 27.78125L18.71875 26.25C18.703125 26.230469 18.671875 26.207031 18.65625 26.1875C18.277344 25.734375 17.878906 25.210938 17.34375 24.78125C16.785156 24.332031 16.058594 23.96875 15.1875 23.96875L6 23.96875 Z M 2.875 26.03125L15.1875 26.03125C15.523438 26.03125 15.738281 26.144531 16.0625 26.40625C16.386719 26.667969 16.753906 27.082031 17.15625 27.5625C17.175781 27.585938 17.195313 27.605469 17.21875 27.625L19.09375 29.53125C19.289063 29.714844 19.546875 29.816406 19.8125 29.8125L28.125 29.8125C28.597656 29.8125 28.96875 30.191406 28.96875 30.6875L28.96875 32.21875C28.335938 32.078125 27.675781 32 27 32C22.042969 32 18 36.042969 18 41C18 41.675781 18.078125 42.335938 18.21875 42.96875L12.90625 42.96875C12.417969 40.148438 9.953125 38 7 38C4.9375 38 3.113281 39.058594 2.03125 40.65625L2.03125 26.90625C2.03125 26.410156 2.398438 26.03125 2.875 26.03125 Z M 27 34C30.875 34 34 37.125 34 41C34 44.875 30.875 48 27 48C23.125 48 20 44.875 20 41C20 37.125 23.125 34 27 34 Z M 7 40C9.101563 40 10.792969 41.601563 10.96875 43.65625C10.96875 43.667969 10.96875 43.675781 10.96875 43.6875C10.910156 43.882813 10.910156 44.085938 10.96875 44.28125C10.824219 46.363281 9.121094 48 7 48C4.78125 48 3 46.21875 3 44C3 41.78125 4.78125 40 7 40Z"/></svg>