<svg xmlns="http://www.w3.org/2000/svg" xmlns:xlink="http://www.w3.org/1999/xlink" viewBox="0 0 50 50"><path d="M9.0292969 3 A 1.0001 1.0001 0 0 0 8.375 3.21875L3.5996094 7.0390625C1.6082878 7.2369812 -2.9605947e-16 8.8569802 0 10.873047C0 12.027013 0.53936862 13.060831 1.3476562 13.757812 A 1.0001 1.0001 0 1 0 2.6523438 12.242188C2.2406313 11.887168 2 11.413081 2 10.873047C2 9.8502139 2.8604009 9 4 9C5.1395991 9 6 9.8502139 6 10.873047C6 11.413081 5.7593685 11.887169 5.3476562 12.242188 A 1.0001 1.0001 0 1 0 6.6523438 13.757812C7.4606313 13.06083 8 12.027013 8 10.873047C8 9.4828297 7.2317989 8.2803973 6.1054688 7.5976562L8.9765625 5.3007812L23 17.380859L23 31L11 31L11 29L21 29L21 27L11 27L11 25L21 25L21 23L11 23L11 21L21 21L21 19L11 19L11 17 A 1.0001 1.0001 0 0 0 9.984375 15.986328 A 1.0001 1.0001 0 0 0 9 17L9 31L0 31L0 32L0 33L0 42L7.0917969 42C7.5720783 44.82834 10.039615 47 13 47C15.960385 47 18.427922 44.82834 18.908203 42L33.089844 41.986328C33.564488 44.821313 36.034872 47 39 47C42.012002 47 44.514227 44.752147 44.931641 41.851562L46.800781 41.470703C48.654781 41.092703 50 39.443781 50 37.550781L50 33.978516C50 32.375516 49.048172 30.933734 47.576172 30.302734L42.769531 28.242188L39.9375 21.349609C39.1855 19.346609 37.281219 18 35.199219 18L29 18L29 17.414062C29 15.559591 27.968816 13.854282 26.328125 12.990234L26.369141 13.011719L9.5058594 3.1367188 A 1.0001 1.0001 0 0 0 9.0292969 3 z M 17.984375 10.421875L25.357422 14.738281 A 1.0001 1.0001 0 0 0 25.396484 14.759766C26.383796 15.279713 27 16.298535 27 17.414062L27 31L25 31L25 17.361328C25 16.89371 24.835903 16.440583 24.537109 16.082031 A 1.0001 1.0001 0 0 0 24.419922 15.964844L17.984375 10.421875 z M 0 19L0 21L7 21L7 19L0 19 z M 0 23L0 25L7 25L7 23L0 23 z M 32 23L38.453125 23L40.919922 29L32 29L32 23 z M 0 27L0 29L7 29L7 27L0 27 z M 13 37C15.220984 37 17 38.779016 17 41C17 43.220984 15.220984 45 13 45C10.779016 45 9 43.220984 9 41C9 38.779016 10.779016 37 13 37 z M 39 37C41.220984 37 43 38.779016 43 41C43 43.220984 41.220984 45 39 45C36.779016 45 35 43.220984 35 41C35 38.779016 36.779016 37 39 37 z"/></svg>