<svg xmlns="http://www.w3.org/2000/svg" xmlns:xlink="http://www.w3.org/1999/xlink" viewBox="0 0 50 50"><path d="M1 11 A 1.0001 1.0001 0 0 0 0 12L0 34 A 1.0001 1.0001 0 0 0 1 35L7 35 A 1.0001 1.0001 0 0 0 7.9804688 34.195312L8.8203125 30L11.171875 30C10.382978 31.010449 10 32.258951 10 33.5C10 34.847222 10.443681 36.207881 11.376953 37.257812C12.310226 38.307744 13.750001 39 15.5 39C17.249999 39 18.689774 38.307744 19.623047 37.257812C20.211245 36.59609 20.58418 35.805938 20.794922 34.978516C20.863205 34.985765 20.930001 35 21 35L31.210938 35C31.423003 35.819484 31.793876 36.60185 32.376953 37.257812C33.310226 38.307744 34.750001 39 36.5 39C38.249999 39 39.689774 38.307744 40.623047 37.257812C41.206124 36.60185 41.576997 35.819484 41.789062 35L49 35 A 1.0001 1.0001 0 0 0 50 34L50 28L50 21.064453C50 20.146135 49.683398 19.256157 49.103516 18.542969L44.175781 12.478516C43.416866 11.543542 42.275746 11 41.072266 11L35 11C33.35503 11 32 12.35503 32 14L32 28L30 28L30 13C30 11.906937 29.093063 11 28 11L1 11 z M 2 13L28 13L28 28L15.5 28L8 28 A 1.0001 1.0001 0 0 0 7.0195312 28.804688L6.1796875 33L2 33L2 13 z M 35 13L41.072266 13C41.674786 13 42.243963 13.271255 42.623047 13.738281L43.648438 15L39 15C37.906937 15 37 15.906937 37 17L37 21C37 22.093063 37.906937 23 39 23L48 23L48 29L39.789062 29C38.914163 28.379784 37.792239 28 36.5 28C35.567257 28 34.726763 28.200311 34 28.542969L34 14C34 13.43497 34.43497 13 35 13 z M 15.494141 16 A 1.0001 1.0001 0 0 0 14.71875 16.375C14.71875 16.375 14.069474 17.184878 13.414062 18.183594C13.086358 18.682952 12.754701 19.232164 12.490234 19.78125C12.225768 20.330336 12 20.853036 12 21.5C12 23.421188 13.578812 25 15.5 25C17.421188 25 19 23.421188 19 21.5C19 20.853036 18.774232 20.330336 18.509766 19.78125C18.245299 19.232164 17.913643 18.682952 17.585938 18.183594C16.930526 17.184878 16.28125 16.375 16.28125 16.375 A 1.0001 1.0001 0 0 0 15.494141 16 z M 39 17L45.273438 17L47.552734 19.804688C47.829091 20.144574 47.979992 20.563755 47.994141 21L39 21L39 17 z M 15.5 18.707031C15.682121 18.958735 15.707979 18.967221 15.914062 19.28125C16.211357 19.734267 16.504701 20.224304 16.708984 20.648438C16.913268 21.072571 17 21.456464 17 21.5C17 22.340812 16.340812 23 15.5 23C14.659188 23 14 22.340812 14 21.5C14 21.45646 14.08673 21.072571 14.291016 20.648438C14.495299 20.224304 14.788643 19.734267 15.085938 19.28125C15.29202 18.967221 15.317879 18.958735 15.5 18.707031 z M 15.5 30C16.749999 30 17.560226 30.432744 18.126953 31.070312C18.69368 31.707881 19 32.597222 19 33.5C19 34.402778 18.69368 35.292119 18.126953 35.929688C17.560226 36.567256 16.749999 37 15.5 37C14.250001 37 13.439774 36.567256 12.873047 35.929688C12.30632 35.292119 12 34.402778 12 33.5C12 32.597222 12.30632 31.707881 12.873047 31.070312C13.439774 30.432744 14.250001 30 15.5 30 z M 19.828125 30L28 30L32.171875 30C31.489185 30.874415 31.129306 31.927348 31.041016 33L21 33L20.958984 33C20.870694 31.927348 20.510815 30.874415 19.828125 30 z M 36.5 30C37.666184 30 38.439985 30.384889 39 30.953125L39 31L39.050781 31C39.074382 31.024972 39.104153 31.044662 39.126953 31.070312C39.69368 31.707881 40 32.597222 40 33.5C40 34.402778 39.69368 35.292119 39.126953 35.929688C38.560226 36.567256 37.749999 37 36.5 37C35.250001 37 34.439774 36.567256 33.873047 35.929688C33.30632 35.292119 33 34.402778 33 33.5C33 32.597222 33.30632 31.707881 33.873047 31.070312C34.439774 30.432744 35.250001 30 36.5 30 z M 41.425781 31L48 31L48 33L41.958984 33C41.902126 32.30922 41.725719 31.632812 41.425781 31 z"/></svg>