<svg xmlns="http://www.w3.org/2000/svg" xmlns:xlink="http://www.w3.org/1999/xlink" viewBox="0 0 50 50"><path d="M1 11C0.449219 11 0 11.445313 0 12L0 34C0 34.554688 0.449219 35 1 35L7 35C7.476563 35 7.886719 34.664063 7.980469 34.195313L8.820313 30L11.265625 30C10.476563 30.953125 10 32.171875 10 33.5C10 36.527344 12.472656 39 15.5 39C18.011719 39 20.140625 37.289063 20.792969 34.980469C20.859375 34.984375 20.929688 35 21 35L31.214844 35C31.871094 37.300781 33.996094 39 36.5 39C39.003906 39 41.128906 37.300781 41.785156 35L49 35C49.550781 35 50 34.550781 50 34L50 21.0625C50 20.148438 49.679688 19.253906 49.105469 18.542969L44.175781 12.480469C43.414063 11.539063 42.28125 11 41.074219 11L35 11C33.347656 11 32 12.347656 32 14L32 28L30 28L30 13C30 11.898438 29.101563 11 28 11 Z M 39 16L44.464844 16L47.550781 19.804688C47.839844 20.160156 48 20.605469 48 21.0625L48 22L39 22C38.449219 22 38 21.550781 38 21L38 17C38 16.449219 38.449219 16 39 16 Z M 15.5 17C15.5 17 18 20.117188 18 21.5C18 22.882813 16.882813 24 15.5 24C14.117188 24 13 22.882813 13 21.5C13 20.117188 15.5 17 15.5 17 Z M 15.5 30C17.445313 30 19 31.554688 19 33.5C19 35.445313 17.445313 37 15.5 37C13.554688 37 12 35.445313 12 33.5C12 31.554688 13.554688 30 15.5 30 Z M 19.734375 30L32.265625 30C31.578125 30.832031 31.128906 31.867188 31.027344 33L20.972656 33C20.871094 31.867188 20.421875 30.832031 19.734375 30 Z M 36.5 30C38.445313 30 40 31.554688 40 33.5C40 35.445313 38.445313 37 36.5 37C34.554688 37 33 35.445313 33 33.5C33 31.554688 34.554688 30 36.5 30 Z M 40.734375 30L48 30L48 33L41.972656 33C41.871094 31.867188 41.421875 30.832031 40.734375 30Z"/></svg>