<svg xmlns="http://www.w3.org/2000/svg" xmlns:xlink="http://www.w3.org/1999/xlink" viewBox="0 0 50 50"><path d="M23 7C14.523438 7 8.8125 8 8.8125 8C8.261719 8.101563 7.894531 8.636719 8 9.1875C8.101563 9.738281 8.636719 10.105469 9.1875 10C9.1875 10 9.945313 9.890625 11 9.75L11 18L6 18L6 20L11 20L11 24.03125C13.097656 24.128906 15.246094 24.363281 17.34375 24.75C16.949219 23.519531 16.421875 21.949219 15.9375 20.65625C15.296875 18.960938 13.949219 18.34375 13 18.125L13 9.5C15.410156 9.25 18.855469 9 23 9C26.136719 9 28.871094 9.136719 31.0625 9.3125C31.070313 9.34375 31.082031 9.375 31.09375 9.40625L37.90625 25L34.34375 33L26 33L26 31.28125C26 30.152344 25.277344 29.167969 24.125 28.71875C19.441406 26.882813 13.253906 25.835938 7.96875 26C6.21875 26.054688 5.015625 26.449219 4.28125 27.21875C2.273438 29.320313 2 32.839844 2 36C2 36.550781 2.449219 37 3 37L4.09375 37C4.027344 37.324219 4 37.65625 4 38C4 40.757813 6.242188 43 9 43C11.414063 43 13.441406 41.277344 13.90625 39L38.09375 39C38.558594 41.277344 40.585938 43 43 43C45.757813 43 48 40.757813 48 38C48 37.773438 47.964844 37.5625 47.9375 37.34375C47.972656 37.238281 48 37.117188 48 37L48 31C48 30.917969 47.988281 30.828125 47.96875 30.75C47.105469 27.292969 41.171875 24.78125 39.75 24.21875L33.3125 9.53125C35.503906 9.769531 36.8125 10 36.8125 10C37.363281 10.105469 37.898438 9.738281 38 9.1875C38.105469 8.636719 37.738281 8.101563 37.1875 8C37.1875 8 31.476563 7 23 7 Z M 30.875 16C30.652344 16.023438 30.441406 16.125 30.28125 16.28125L26.28125 20.28125C25.882813 20.679688 25.882813 21.320313 26.28125 21.71875C26.679688 22.117188 27.320313 22.117188 27.71875 21.71875L29 20.4375L35.0625 26.46875L35.9375 24.5L30.4375 19L31.71875 17.71875C32.042969 17.417969 32.128906 16.941406 31.933594 16.546875C31.742188 16.148438 31.308594 15.929688 30.875 16 Z M 9 35C10.652344 35 12 36.347656 12 38C12 39.652344 10.652344 41 9 41C7.347656 41 6 39.652344 6 38C6 36.347656 7.347656 35 9 35 Z M 43 35C44.652344 35 46 36.347656 46 38C46 39.652344 44.652344 41 43 41C41.347656 41 40 39.652344 40 38C40 36.347656 41.347656 35 43 35Z"/></svg>