<svg xmlns="http://www.w3.org/2000/svg" xmlns:xlink="http://www.w3.org/1999/xlink" viewBox="0 0 30 30"><path d="M9.8867188 6C8.9864156 6 8.1506582 6.4733014 7.6875 7.2441406 A 1.0001 1.0001 0 0 0 7.6855469 7.2460938L5.5566406 10.796875C4.4254064 10.405466 3.2159447 10.001953 3.0019531 10.001953C2.6229531 10.001953 1.1429531 11.175266 1.0019531 11.447266C0.85995313 11.718266 0.5 12.884 0.5 16C0.5 19.116 1 21 1 21L1 22C1 22.552 1.448 23 2 23L4 23C4.552 23 5 22.552 5 22L5 21L15 21L25 21L25 22C25 22.552 25.448 23 26 23L28 23C28.552 23 29 22.552 29 22L29 21C29 21 29.5 19.116 29.5 16C29.5 12.884 29.141 11.719266 29 11.447266C28.859 11.175266 27.379 10 27 10C26.786008 10 25.574594 10.405466 24.443359 10.796875L22.314453 7.2460938 A 1.0001 1.0001 0 0 0 22.314453 7.2441406C21.851295 6.4732982 21.013584 6 20.113281 6L9.8867188 6 z M 9.8867188 8L20.113281 8C20.312978 8 20.496768 8.1042299 20.599609 8.2753906L22.458984 11.375L20.421875 11.064453C20.156875 11.024453 19.888219 11.111781 19.699219 11.300781L19 12L15 12L11 12L10.302734 11.302734C10.112734 11.112734 9.843125 11.023453 9.578125 11.064453L7.5410156 11.375L9.4023438 8.2753906C9.5053599 8.1051587 9.6876291 8 9.8867188 8 z M 1.28125 12.179688C1.28125 12.179688 2.057625 12.267625 2.515625 12.390625C2.973625 12.513625 3.2206406 12.814016 3.4316406 13.166016C3.6426406 13.518016 4.9453125 15.720703 4.9453125 15.720703L3.8359375 15.685547C3.8369375 15.685547 3.1491875 14.734437 2.8671875 14.523438C2.5851875 14.312437 1.828125 14.294922 1.828125 14.294922L1.28125 12.179688 z M 28.716797 12.179688L28.171875 14.294922C28.171875 14.294922 27.414813 14.312438 27.132812 14.523438C26.850812 14.734438 26.162109 15.685547 26.162109 15.685547L25.052734 15.720703C25.052734 15.720703 26.357359 13.518016 26.568359 13.166016C26.779359 12.814016 27.026375 12.513625 27.484375 12.390625C27.942375 12.267625 28.716797 12.179688 28.716797 12.179688 z M 10.988281 17L19.011719 17C19.345719 17 19.664625 17.139766 19.890625 17.384766L21.380859 19L8.6191406 19L10.109375 17.384766C10.335375 17.139766 10.654281 17 10.988281 17 z M 4.4257812 17.060547L7.6191406 17.371094L6.4179688 19L3.65625 19C3.34225 19 3.1300469 18.682578 3.2480469 18.392578L3.5859375 17.566406C3.7229375 17.230406 4.0637812 17.024547 4.4257812 17.060547 z M 25.574219 17.060547C25.936219 17.025547 26.277062 17.230406 26.414062 17.566406L26.751953 18.392578C26.869953 18.682578 26.65775 19 26.34375 19L23.582031 19L22.380859 17.371094L25.574219 17.060547 z"/></svg>