<svg xmlns="http://www.w3.org/2000/svg" xmlns:xlink="http://www.w3.org/1999/xlink" viewBox="0 0 50 50"><path d="M2.7695312 9C1.2570955 9 2.9605947e-16 10.236207 0 11.75L0 36.25C0 37.763793 1.2570954 39 2.7695312 39L5 39C5 40.472222 5.4853474 41.957881 6.5019531 43.101562C7.5185588 44.245244 9.0833339 45 11 45C14.301865 45 17 42.301863 17 39L31 39C31 40.472222 31.485347 41.957881 32.501953 43.101562C33.518559 44.245244 35.083334 45 37 45C40.301865 45 43 42.301863 43 39L47.230469 39C48.742905 39 50.001953 37.763793 50.001953 36.25L50.001953 29.25C50.001953 28.148784 49.593823 27.163655 49.21875 26.414062C48.843677 25.664472 48.458984 25.130859 48.458984 25.130859L39.457031 11.207031 A 1.0001 1.0001 0 0 0 39.382812 11.105469C38.992467 10.641481 38.629613 10.154875 38.09375 9.7304688C37.557887 9.3060627 36.812821 9 35.960938 9L2.7695312 9 z M 2.7695312 11L35.960938 11C36.410053 11 36.586925 11.08728 36.851562 11.296875C37.108309 11.50022 37.420214 11.882834 37.822266 12.361328L38.234375 13L32 13 A 1.0001 1.0001 0 0 0 31 14L31 25 A 1.0001 1.0001 0 0 0 32 26L46.167969 26 A 1.0001 1.0001 0 0 0 46.583984 25.914062L46.806641 26.257812 A 1.0001 1.0001 0 0 0 46.835938 26.300781C46.835938 26.300781 47.127759 26.705186 47.429688 27.308594C47.731614 27.912002 48.001953 28.693216 48.001953 29.25L48.001953 36.25C48.001953 36.664207 47.668033 37 47.230469 37L42.802734 37 A 1.0001 1.0001 0 0 0 42.652344 37.011719C41.827024 34.682096 39.604482 33 37 33C35.083334 33 33.518559 33.754756 32.501953 34.898438C31.952451 35.516627 31.570537 36.238109 31.324219 37L16.703125 37 A 1.0001 1.0001 0 0 0 16.648438 37.001953C15.82031 34.677488 13.600782 33 11 33C9.0833339 33 7.5185588 33.754756 6.5019531 34.898438C5.9524513 35.516627 5.5705373 36.238109 5.3242188 37L2.7695312 37C2.3319672 37 2 36.664207 2 36.25L2 11.75C2 11.335793 2.3319672 11 2.7695312 11 z M 33 15L39.519531 15 A 1.0001 1.0001 0 0 0 39.527344 15L45.347656 24L33 24L33 15 z M 14 17L14 21L10 21L10 23L14 23L14 27L16 27L16 23L20 23L20 21L16 21L16 17L14 17 z M 11 35C13.220986 35 15 36.779015 15 39C15 41.220985 13.220986 43 11 43C9.5833342 43 8.6481071 42.504756 7.9980469 41.773438C7.3479866 41.042119 7 40.027778 7 39C7 37.972222 7.3479866 36.957881 7.9980469 36.226562C8.6481071 35.495244 9.5833342 35 11 35 z M 37 35C39.220986 35 41 36.779015 41 39C41 41.220985 39.220986 43 37 43C35.583334 43 34.648107 42.504756 33.998047 41.773438C33.347987 41.042119 33 40.027778 33 39C33 37.972222 33.347987 36.957881 33.998047 36.226562C34.648107 35.495244 35.583334 35 37 35 z"/></svg>