<svg xmlns="http://www.w3.org/2000/svg" xmlns:xlink="http://www.w3.org/1999/xlink" viewBox="0 0 50 50"><path d="M1 8L1 20C9.91 20 18.760547 22.679297 27.310547 25.279297C33.870547 27.269297 40.120078 29.159297 46.080078 29.779297C46.580078 29.839297 47.080312 29.880156 47.570312 29.910156C48.010312 29.950156 48.450625 29.970469 48.890625 29.980469C44.700625 24.420469 33.579531 19.770859 21.519531 15.130859C13.289531 8.0008594 5.9 8 1 8 z M 4.0898438 10.050781C8.5798438 10.260781 14.129844 11.32 20.339844 16.75C20.409844 16.81 20.490312 16.860391 20.570312 16.900391C17.930312 17.730391 13.099219 18.429609 7.4492188 15.349609C4.9692188 13.999609 3.6398438 11.720781 4.0898438 10.050781 z M 1 22L1 32L34 32L34 34L1 34L1 39L3.1015625 39C3.5684515 41.274577 5.5928465 43 8 43C10.407153 43 12.431549 41.274577 12.898438 39L15.101562 39C15.568451 41.274577 17.592847 43 20 43C22.407249 43 24.425799 41.282387 24.890625 39L35 39C35.55 39 36 38.55 36 38L36 36.960938C39.36 36.770938 50 35.85 50 32C49.66 32 49.330234 32.000469 48.990234 31.980469C48.600234 31.980469 48.210313 31.959688 47.820312 31.929688C41.080312 31.539688 34.090469 29.419453 26.730469 27.189453C18.320469 24.639453 9.62 22 1 22 z M 5.1816406 39L10.818359 39C10.408769 40.167075 9.3148489 41 8 41C6.6851511 41 5.5912309 40.167075 5.1816406 39 z M 17.181641 39L22.826172 39C22.41636 40.163336 21.315353 41 20 41C18.685151 41 17.591231 40.167075 17.181641 39 z"/></svg>