<svg xmlns="http://www.w3.org/2000/svg" xmlns:xlink="http://www.w3.org/1999/xlink" viewBox="0 0 50 50"><path d="M1 8L1 10C1.8142446 10 2.6845783 10.010262 3.5800781 10.037109C3.1416136 10.635912 2.9398522 11.37453 3.0195312 12.078125C3.2342082 13.9738 4.8979174 15.585478 7.2851562 16.634766C15.676243 20.32216 22.536361 18.680769 24.017578 18.25C29.264817 20.309199 34.223611 22.377454 38.285156 24.509766C41.656417 26.279677 44.354208 28.113238 46.154297 29.935547C39.894252 29.551444 33.10104 27.324115 25.927734 25.046875C18.044008 22.544105 9.6960784 20 1 20L1 22C9.3039216 22 17.455992 24.455895 25.322266 26.953125C33.114479 29.426844 40.618723 31.948765 47.794922 31.996094C47.825858 32.048165 47.8692 32.100345 47.898438 32.152344C47.872447 32.199824 47.896138 32.208894 47.792969 32.306641C47.588648 32.500145 47.199864 32.747205 46.685547 32.976562C45.656913 33.435277 44.144455 33.83798 42.560547 34.142578C39.392731 34.751773 35.833333 35 35 35 A 1.0001 1.0001 0 0 0 34 36L34 37L1 37L1 39L3.1015625 39C3.5684515 41.274577 5.5928465 43 8 43C10.407153 43 12.431549 41.274577 12.898438 39L15.101562 39C15.568451 41.274577 17.592847 43 20 43C22.407249 43 24.425799 41.282387 24.890625 39L35 39 A 1.0001 1.0001 0 0 0 36 38L36 36.886719C37.487262 36.829299 40.027008 36.667507 42.939453 36.107422C44.605545 35.78702 46.218087 35.377223 47.501953 34.804688C48.143886 34.51842 48.708227 34.195168 49.167969 33.759766C49.62771 33.324363 50 32.708333 50 32 A 1.0001 1.0001 0 0 0 49.894531 31.552734C48.205708 28.175087 44.287145 25.403192 39.214844 22.740234C34.166097 20.089642 27.922893 17.593062 21.447266 15.101562C16.365018 10.724532 11.582758 9.0447133 7.5019531 8.4003906L7.5019531 8.3867188C7.483336 8.3879477 7.467728 8.391268 7.4492188 8.3925781C5.0230981 8.0145054 2.8444134 8 1 8 z M 7.5449219 10.390625C11.305698 11.005671 15.594448 12.598023 20.341797 16.751953 A 1.0001 1.0001 0 0 0 20.523438 16.878906C17.725996 17.183235 13.301007 17.09469 8.0898438 14.804688C6.1270827 13.941974 5.0878856 12.56059 5.0078125 11.853516C4.9677759 11.499978 5.024128 11.309166 5.3691406 11.033203C5.7047858 10.764733 6.4098625 10.478567 7.5449219 10.390625 z M 1 32L1 34L34 34L34 32L1 32 z M 5.1816406 39L10.818359 39C10.408769 40.167075 9.3148489 41 8 41C6.6851511 41 5.5912309 40.167075 5.1816406 39 z M 17.181641 39L22.826172 39C22.41636 40.163336 21.315353 41 20 41C18.685151 41 17.591231 40.167075 17.181641 39 z"/></svg>