<svg xmlns="http://www.w3.org/2000/svg" xmlns:xlink="http://www.w3.org/1999/xlink" viewBox="0 0 50 50"><path d="M28 4 A 1.0001 1.0001 0 1 0 28 6L32.990234 6C33.472254 6 33.874347 6.3281303 33.970703 6.8007812 A 1.0001 1.0001 0 0 0 33.974609 6.8203125L38.082031 25.089844L38.775391 28.576172 A 1.0001 1.0001 0 0 0 38.673828 28.697266L33.345703 36.056641 A 1.0001 1.0001 0 0 0 33 36L17.166016 36C15.620584 32.466654 12.091116 30 8 30C6.3400073 30 4.7668059 30.407177 3.3867188 31.125 A 1.0001 1.0001 0 1 0 4.3105469 32.898438C5.4144598 32.324261 6.6659927 32 8 32C10.965372 32 13.531692 33.614661 14.914062 36L12.455078 36C11.354919 34.776469 9.7662491 34 8 34C6.0833339 34 4.5185588 34.754756 3.5019531 35.898438C2.4853474 37.042119 2 38.527778 2 40C2 41.472222 2.4853474 42.957881 3.5019531 44.101562C4.5185588 45.245244 6.0833339 46 8 46C10.619928 46 12.854536 44.298433 13.667969 41.947266 A 1.0001 1.0001 0 0 0 14 42L31 42 A 1.0001 1.0001 0 0 0 31.810547 41.585938L39.304688 31.236328L39.919922 34.330078C38.941673 34.655769 38.119568 35.203621 37.501953 35.898438C36.485347 37.042119 36 38.527778 36 40C36 41.472222 36.485347 42.957881 37.501953 44.101562C38.518559 45.245244 40.083334 46 42 46C45.301865 46 48 43.301863 48 40C48 36.698137 45.301865 34 42 34C41.963953 34 41.930328 34.005328 41.894531 34.005859L40.271484 25.845703 A 1.0001 1.0001 0 0 0 40.244141 25.587891L40.033203 24.652344L39.859375 23.775391 A 1.0001 1.0001 0 0 0 39.783203 23.541016L35.929688 6.3964844C35.644294 5.0074641 34.408679 4 32.990234 4L28 4 z M 8 36C9.302617 36 10.441118 36.622005 11.169922 37.576172 A 1.0001 1.0001 0 0 0 11.269531 37.695312C11.727387 38.34602 12 39.137935 12 40C12 42.220985 10.220986 44 8 44C6.5833342 44 5.6481071 43.504755 4.9980469 42.773438C4.3479866 42.042119 4 41.027778 4 40C4 38.972222 4.3479866 37.957881 4.9980469 37.226562C5.6481071 36.495244 6.5833342 36 8 36 z M 42.296875 36.029297C44.374544 36.182402 46 37.880941 46 40C46 42.220985 44.220986 44 42 44C40.583334 44 39.648107 43.504755 38.998047 42.773438C38.347987 42.042119 38 41.027778 38 40C38 38.972222 38.347987 37.957881 38.998047 37.226562C39.343333 36.838115 39.776892 36.524995 40.3125 36.308594L40.736328 38.4375C40.652452 38.503258 40.570725 38.571069 40.501953 38.648438C40.152014 39.042119 40 39.527778 40 40C40 40.472222 40.152014 40.957881 40.501953 41.351562C40.851892 41.745244 41.416667 42 42 42C42.583333 42 43.148108 41.745244 43.498047 41.351562C43.847986 40.957881 44 40.472222 44 40C44 39.527778 43.847986 39.042119 43.498047 38.648438C43.296846 38.422086 43.020779 38.249202 42.714844 38.136719L42.296875 36.029297 z M 8 38C7.4166667 38 6.8518924 38.254756 6.5019531 38.648438C6.1520138 39.042119 6 39.527778 6 40C6 40.472222 6.1520138 40.957881 6.5019531 41.351562C6.8518924 41.745244 7.4166667 42 8 42C8.5833333 42 9.1481076 41.745244 9.4980469 41.351562C9.8479862 40.957881 10 40.472222 10 40C10 39.527778 9.8479862 39.042119 9.4980469 38.648438C9.1481076 38.254756 8.5833333 38 8 38 z M 13.648438 38L16.457031 38L31.9375 38L30.490234 40L14 40C14 39.298272 13.872065 38.627087 13.648438 38 z"/></svg>