<?xml version="1.0" encoding="utf-8"?><svg version="1.1" id="Layer_1" xmlns="http://www.w3.org/2000/svg" xmlns:xlink="http://www.w3.org/1999/xlink" x="0px" y="0px" viewBox="0 0 122.88 108.8" style="enable-background:new 0 0 122.88 108.8" xml:space="preserve"><g><path d="M19.16,75.2c4.64,0,8.84,1.88,11.88,4.92c2.67,2.67,4.44,6.22,4.84,10.19h22.75c21.2,0,19.24-0.29,23.52-17.3 c0.21-0.85,0.43-1.72,1.16-4.52l5.14-19.92c0.06-0.25,0.16-0.47,0.3-0.68l-6.1-19.12c-0.4-1.23,0.27-2.55,1.5-2.95 c1.23-0.4,2.55,0.27,2.95,1.5l15.66,48.2c1.07-0.22,2.18-0.33,3.32-0.33c4.64,0,8.84,1.88,11.88,4.92 c3.04,3.04,4.92,7.24,4.92,11.88c0,4.64-1.88,8.84-4.92,11.88c-3.04,3.04-7.24,4.92-11.88,4.92c-4.64,0-8.84-1.88-11.88-4.92 c-3.04-3.04-4.92-7.24-4.92-11.88c0-4.64,1.88-8.84,4.92-11.88c1.21-1.21,2.6-2.24,4.14-3.03l-6.95-21.16l-3.55,13.73 c-0.11,0.44-0.65,2.56-1.14,4.49c-5.17,20.51-3.22,20.86-28.07,20.86H35.69c-0.62,3.44-2.29,6.51-4.65,8.88 c-3.04,3.04-7.24,4.92-11.88,4.92c-4.64,0-8.84-1.88-11.88-4.92C4.24,100.84,2.36,96.64,2.36,92c0-4.64,1.88-8.84,4.92-11.88 C10.32,77.08,14.52,75.2,19.16,75.2L19.16,75.2z M71.83,1.27c0.57,0,1.12,0.12,1.59,0.33c0.11-0.14,0.23-0.28,0.36-0.41 C74.51,0.45,75.53,0,76.65,0c1.12,0,2.14,0.45,2.87,1.19c0.74,0.74,1.19,1.75,1.19,2.87c0,0.8-0.23,1.55-0.64,2.18l3.74,11.05 c0.61,0.2,1.15,0.54,1.6,0.99c0.74,0.74,1.19,1.75,1.19,2.87c0,1.12-0.45,2.14-1.19,2.87l-0.01,0.01 c-0.73,0.73-1.75,1.18-2.86,1.18c-1.12,0-2.14-0.45-2.87-1.19c-0.74-0.74-1.19-1.75-1.19-2.87c0-0.94,0.32-1.8,0.85-2.49 l-3.6-10.64c-0.75-0.17-1.43-0.56-1.96-1.09c-0.11-0.11-0.22-0.23-0.31-0.35c-0.49,0.22-1.04,0.35-1.63,0.35 c-0.93,0-1.77-0.31-2.38-0.82c-0.62-0.51-1.01-1.23-1.01-2.02c0-0.79,0.39-1.5,1.01-2.02C70.06,1.58,70.9,1.27,71.83,1.27 L71.83,1.27z M48.47,81.41h22.31v3.84H48.47V81.41L48.47,81.41z M0,75.74c3.01-3.88,6.9-6.72,11.13-8.34 c3.57-1.37,7.39-1.86,11.15-1.39c3.77,0.48,7.45,1.93,10.72,4.47c3.64,2.82,6.76,6.97,8.91,12.59l-3.59,1.37 c-1.88-4.92-4.56-8.52-7.66-10.92c-2.71-2.11-5.76-3.31-8.86-3.71c-3.11-0.39-6.3,0.03-9.3,1.18c-3.59,1.37-6.9,3.79-9.46,7.09 L0,75.74L0,75.74z M104.1,79.63l1.29,3.94c0.4,1.23-0.27,2.55-1.5,2.95c-1.23,0.4-2.55-0.27-2.95-1.5l-1.25-3.8 c-0.9,0.54-1.74,1.18-2.47,1.92c-2.27,2.27-3.67,5.4-3.67,8.86c0,3.46,1.4,6.59,3.67,8.86c2.27,2.27,5.4,3.67,8.86,3.67 c3.46,0,6.59-1.4,8.86-3.67c2.27-2.27,3.67-5.4,3.67-8.86c0-3.46-1.4-6.59-3.67-8.86c-2.27-2.27-5.4-3.67-8.86-3.67 C105.41,79.47,104.75,79.52,104.1,79.63L104.1,79.63z M27.63,95.01c-1.3,0-2.35-1.05-2.35-2.35c0-1.3,1.05-2.35,2.35-2.35h3.95 c-0.38-2.78-1.67-5.28-3.56-7.17c-2.27-2.27-5.4-3.67-8.86-3.67c-3.46,0-6.59,1.4-8.86,3.67c-2.27,2.27-3.67,5.4-3.67,8.86 c0,3.46,1.4,6.59,3.67,8.86c2.27,2.27,5.4,3.67,8.86,3.67c3.46,0,6.59-1.4,8.86-3.67c1.59-1.59,2.75-3.6,3.31-5.86H27.63 L27.63,95.01z M106.08,87.63c1.21,0,2.3,0.49,3.09,1.28c0.79,0.79,1.28,1.89,1.28,3.09c0,1.21-0.49,2.3-1.28,3.09 c-0.79,0.79-1.89,1.28-3.09,1.28c-1.21,0-2.3-0.49-3.09-1.28c-0.79-0.79-1.28-1.89-1.28-3.09c0-1.21,0.49-2.3,1.28-3.09 C103.78,88.12,104.87,87.63,106.08,87.63L106.08,87.63z M19.16,87.63c1.21,0,2.3,0.49,3.09,1.28c0.79,0.79,1.28,1.89,1.28,3.09 c0,1.21-0.49,2.3-1.28,3.09s-1.89,1.28-3.09,1.28c-1.21,0-2.3-0.49-3.09-1.28s-1.28-1.89-1.28-3.09c0-1.21,0.49-2.3,1.28-3.09 C16.86,88.12,17.95,87.63,19.16,87.63L19.16,87.63z"/></g></svg>