<svg xmlns="http://www.w3.org/2000/svg" xmlns:xlink="http://www.w3.org/1999/xlink" viewBox="0 0 50 50"><path d="M28 4C27.448 4 27 4.448 27 5C27 5.552 27.448 6 28 6L32.990234 6C33.463234 6 33.877563 6.3373125 33.976562 6.8203125L38.0625 25L38.779297 28.601562C38.746026 28.635843 38.704577 28.657415 38.675781 28.697266L32.662109 37L17.478516 37C17.478712 36.888856 17.470781 36.776841 17.431641 36.666016C16.021641 32.679016 12.231 30 8 30C6.397 30 4.8026719 30.388047 3.3886719 31.123047C2.8986719 31.378047 2.7078906 31.982656 2.9628906 32.472656C3.2178906 32.963656 3.8195469 33.153438 4.3105469 32.898438C5.4575469 32.302437 6.699 32 8 32C11.262174 32 14.178222 34.000365 15.396484 37L13.189453 37C12.150252 35.209421 10.215593 34 8 34C4.691 34 2 36.691 2 40C2 43.309 4.691 46 8 46C10.631303 46 12.866462 44.296413 13.673828 41.935547C13.777247 41.971763 13.884267 42 14 42L31 42C31.321 42 31.622547 41.845938 31.810547 41.585938L39.302734 31.238281L39.927734 34.375C37.638269 35.220915 36 37.419839 36 40C36 43.309 38.691 46 42 46C45.309 46 48 43.309 48 40C48 36.691 45.309 34 42 34C41.964425 34 41.929961 34.00524 41.894531 34.005859L40.246094 25.724609C40.242319 25.678471 40.254571 25.634351 40.244141 25.587891L40.029297 24.634766L39.859375 23.777344C39.850753 23.734152 39.824271 23.70079 39.810547 23.660156L35.931641 6.4003906C35.647641 5.0093906 34.410234 4 32.990234 4L28 4 z M 8 36C10.206 36 12 37.794 12 40C12 42.206 10.206 44 8 44C5.794 44 4 42.206 4 40C4 37.794 5.794 36 8 36 z M 42.296875 36.029297C44.362137 36.184281 46 37.8957 46 40C46 42.206 44.206 44 42 44C39.794 44 38 42.206 38 40C38 38.393793 38.957475 37.014823 40.326172 36.378906L40.740234 38.458984C40.292202 38.826029 40 39.376827 40 40C40 41.103 40.897 42 42 42C43.103 42 44 41.103 44 40C44 39.150425 43.465364 38.42806 42.716797 38.138672L42.296875 36.029297 z M 8 38C6.897 38 6 38.897 6 40C6 41.103 6.897 42 8 42C9.103 42 10 41.103 10 40C10 38.897 9.103 38 8 38 z"/></svg>