<svg xmlns="http://www.w3.org/2000/svg" xmlns:xlink="http://www.w3.org/1999/xlink" viewBox="0 0 50 50"><path d="M14.984375 11.986328 A 1.0001 1.0001 0 0 0 14.839844 12L13.544922 12C9.7963285 12 6.4334117 14.330662 5.1171875 17.839844 A 1.0001 1.0001 0 0 0 5.0898438 17.923828L4.0625 21.642578C1.5521715 22.83874 0 25.629206 0 29.324219L0 33C0 33.489 0.3549375 33.906328 0.8359375 33.986328L6.2421875 34.886719C6.8333299 36.68364 8.5128543 38 10.5 38C12.445369 38 14.096752 36.738664 14.720703 35L37 35L37.279297 35C37.903248 36.738664 39.554631 38 41.5 38C43.445369 38 45.096752 36.738664 45.720703 35L49 35C49.552 35 50 34.553 50 34L50 27C50 25.696 49.164 24.584875 48 24.171875L48 23.896484C48 22.875484 47.234406 22.018297 46.191406 21.904297L35.683594 21.054688L33.025391 14.818359 A 1.0001 1.0001 0 0 0 33 14.763672C32.862951 14.489775 32.696134 14.239489 32.515625 14L33 14 A 1.0001 1.0001 0 1 0 33 12L29 12 A 1.0001 1.0001 0 0 0 28.796875 12.019531C28.706769 12.014629 28.618257 12 28.527344 12L24.154297 12 A 1.0001 1.0001 0 0 0 23.984375 11.986328 A 1.0001 1.0001 0 0 0 23.839844 12L15.154297 12 A 1.0001 1.0001 0 0 0 14.984375 11.986328 z M 13.544922 14L14 14L14 21L7 21C6.7635538 21 6.5321111 21.014124 6.3046875 21.035156L6.9980469 18.53125C8.0273237 15.803972 10.628316 14 13.544922 14 z M 16 14L23 14L23 21L16 21L16 14 z M 25 14L28.527344 14C29.66375 14 30.696572 14.638934 31.207031 15.654297L33.486328 21L25 21L25 14 z M 10.5 31C11.892557 31 13 32.107443 13 33.5C13 34.892557 11.892557 36 10.5 36C9.1074435 36 8 34.892557 8 33.5C8 32.107443 9.1074435 31 10.5 31 z M 41.5 31C42.892557 31 44 32.107443 44 33.5C44 34.892557 42.892557 36 41.5 36C40.107443 36 39 34.892557 39 33.5C39 32.107443 40.107443 31 41.5 31 z"/></svg>