<svg xmlns="http://www.w3.org/2000/svg" xmlns:xlink="http://www.w3.org/1999/xlink" viewBox="0 0 50 50"><path d="M6 5C5.67 5 5.3499219 5.1692187 5.1699219 5.4492188C3.8299219 7.4492188 2.9605469 8.53 2.5605469 9L1 9L1 16L11 16C11.55 16 12 16.45 12 17L12 23.220703C12 23.770703 11.55 24.220703 11 24.220703L1 24.220703L1 33L49 33C49.35 33 49.679375 32.819297 49.859375 32.529297C50.039375 32.229297 50.049141 31.870312 49.869141 31.570312C47.639141 27.750312 44.810938 23.240625 41.460938 20.140625C33.700938 12.960625 23.779531 9 13.519531 9L12.539062 9C12.109063 8.55 11.180078 7.4692188 9.8300781 5.4492188C9.6500781 5.1692187 9.33 5 9 5L6 5 z M 20.140625 16.359375C27.680625 17.419375 34.230078 20.589453 36.830078 24.439453C37.040078 24.749453 37.060859 25.140703 36.880859 25.470703C36.710859 25.800703 36.37 26 36 26L26 26C25.82 26 25.640234 25.949375 25.490234 25.859375C24.270234 25.139375 22.390391 24.650156 19.900391 24.410156C19.390391 24.360156 19 23.930156 19 23.410156L19 17.349609C19 17.059609 19.119844 16.789609 19.339844 16.599609C19.559844 16.409609 19.850625 16.319375 20.140625 16.359375 z M 1 35L1 41C1 41.55 1.45 42 2 42L9 42L9 38L11 38L11 42L19 42L19 38L21 38L21 42L29 42L29 38L31 38L31 42L38 42C38.34 42 38.669609 41.819297 38.849609 41.529297L40.433594 39L50 39L50 37L41.683594 37L42.929688 35L1 35 z"/></svg>