<?xml version="1.0" encoding="utf-8"?><svg version="1.1" id="Layer_1" xmlns="http://www.w3.org/2000/svg" xmlns:xlink="http://www.w3.org/1999/xlink" x="0px" y="0px" viewBox="0 0 88.72 122.88" style="enable-background:new 0 0 88.72 122.88" xml:space="preserve"><style type="text/css">.st0{fill-rule:evenodd;clip-rule:evenodd;}</style><g><path class="st0" d="M26.06,0h35.66c5.85,0,13.01,7.56,14.14,13.28l12.75,64.33c1.14,5.73-6.25,13.98-12.09,13.98H19.26 c-13.85,0-21.72-2.78-18.56-19.5l11-58.25C12.78,8.08,20.2,0,26.06,0L26.06,0z M8.97,122.88l9.88-22.91h12.19l-3.26,7.36h32.68 l-3.36-7.57h11.98l9.77,22.7H67.08l-3.47-7.57h-39.4l-3.26,7.99H8.97L8.97,122.88z M28.55,68.71c4.36,0,7.89,3.53,7.89,7.89 c0,4.36-3.53,7.89-7.89,7.89c-4.36,0-7.89-3.53-7.89-7.89C20.66,72.24,24.19,68.71,28.55,68.71L28.55,68.71z M36.93,7.43h14.22 c0.36,0,0.66,0.3,0.66,0.66v6.68c0,0.36-0.3,0.66-0.66,0.66H36.93c-0.36,0-0.66-0.3-0.66-0.66V8.09 C36.27,7.73,36.57,7.43,36.93,7.43L36.93,7.43z M10.27,61.36l7.79-38.39h52.48l7.28,38.39H10.27L10.27,61.36z M59.53,68.71 c4.36,0,7.89,3.53,7.89,7.89c0,4.36-3.53,7.89-7.89,7.89c-4.36,0-7.89-3.53-7.89-7.89C51.64,72.24,55.17,68.71,59.53,68.71 L59.53,68.71z"/></g></svg>