<svg xmlns="http://www.w3.org/2000/svg" xmlns:xlink="http://www.w3.org/1999/xlink" viewBox="0 0 50 50"><path d="M21.060547 0C20.937797 0 20.815203 0.048078125 20.720703 0.14257812C18.965703 1.8915781 18 4.2173125 18 6.6953125C18 11.801312 22.159484 15.957031 27.271484 15.957031C29.745484 15.957031 32.071312 14.996 33.820312 13.25C34.014313 13.056 34.015313 12.726203 33.820312 12.533203L28.345703 7.0703125L29.488281 5.9277344C29.652281 5.9697344 29.822 6 30 6C31.105 6 32 5.105 32 4C32 2.895 31.105 2 30 2C28.895 2 28 2.895 28 4C28 4.178 28.031219 4.3467187 28.074219 4.5117188L26.929688 5.65625L21.400391 0.14257812C21.305891 0.048078125 21.183297 0 21.060547 0 z M 18.921875 14.234375L15.566406 18L24 18L24 17.470703C22.02 16.869703 20.276875 15.731375 18.921875 14.234375 z M 4 20C1.793 20 0 21.793 0 24L0 42C0 44.207 1.793 46 4 46L7.1015625 46C7.5665625 48.277 9.586 50 12 50C14.414 50 16.434437 48.277 16.898438 46L36.101562 46C36.566563 48.277 38.584047 50 40.998047 50C43.412047 50 45.432484 48.277 45.896484 46L47 46C48.652 46 50 44.652 50 43L50 36.390625C50 35.269625 49.616875 34.164063 48.921875 33.289062L41.003906 22.730469C40.144906 21.047469 38.436875 20 36.546875 20L4 20 z M 33 25L40.716797 25L45.351562 32L33 32L33 25 z M 12 41.851562C13.652 41.851562 15 43.192891 15 44.837891C15 46.482891 13.652 47.822266 12 47.822266C10.348 47.822266 9 46.482891 9 44.837891C9 43.192891 10.348 41.851563 12 41.851562 z M 41 41.851562C42.652 41.851562 44 43.192891 44 44.837891C44 46.482891 42.652 47.822266 41 47.822266C39.348 47.822266 38 46.482891 38 44.837891C38 43.192891 39.348 41.851563 41 41.851562 z"/></svg>