<svg xmlns="http://www.w3.org/2000/svg" xmlns:xlink="http://www.w3.org/1999/xlink" viewBox="0 0 50 50"><path d="M31 8C31 8 27.636719 7.925781 25.28125 10.28125C24.882813 10.679688 24.882813 11.320313 25.28125 11.71875C25.679688 12.117188 26.320313 12.117188 26.71875 11.71875C28.03125 10.40625 29.636719 10.164063 30.375 10.09375C30.578125 10.523438 30.804688 11 30.90625 11.5C30.917969 11.574219 30.941406 11.648438 30.96875 11.71875C30.894531 12.175781 30.664063 12.851563 30.1875 13.40625C29.789063 13.804688 29.398438 14 29 14C22.898438 14 21.695313 16.90625 21.09375 18.40625C20.992188 18.605469 20.90625 18.800781 20.90625 19C17.707031 19 15.304688 18.101563 14.90625 17.5C13.507813 15.101563 12.398438 15 8 15C1.101563 15 0.101563 18.414063 0 18.8125C-0.101563 19.113281 -0.0117188 19.386719 0.1875 19.6875C0.289063 19.789063 1.507813 21 3.90625 21L4.40625 21C5.804688 20.398438 7.304688 20 8.90625 20C15.007813 20 19.90625 24.898438 19.90625 31C19.90625 31.800781 19.792969 32.605469 19.59375 33.40625C21.394531 33.90625 23.414063 34 24.3125 34L24.5 34C26.300781 34 28.898438 33.507813 30 32.40625C30.5 31.90625 30.59375 31.40625 30.59375 30.90625C29.722656 24.886719 32.734375 22.15625 34.125 21.21875C34.523438 22.128906 34.929688 23.042969 35.375 23.9375C33.296875 25.539063 32 28.121094 32 30.90625C32 35.90625 36 39.90625 41 39.90625C46 39.90625 50 35.90625 50 30.90625C50 25.90625 46 22 41 22C39.601563 22 38.292969 22.304688 37.09375 22.90625C37.695313 24.105469 38.394531 25.304688 39.09375 26.40625C39.695313 26.207031 40.300781 26 41 26C43.800781 26 46 28.199219 46 31C46 33.800781 43.800781 36 41 36C38.199219 36 36 33.800781 36 31C36 29.601563 36.507813 28.398438 37.40625 27.5C36.71875 26.417969 36.03125 25.242188 35.4375 23.96875C35.929688 23.578125 36.507813 23.199219 37.09375 22.90625C36.195313 21.105469 35.289063 19.210938 34.6875 17.3125C34.652344 17.222656 34.617188 17.136719 34.5625 17.0625C33.757813 14.425781 32.980469 11.167969 32.90625 11.09375C32.894531 11.039063 32.863281 10.988281 32.84375 10.9375C32.5625 9.714844 31.875 8.53125 31.875 8.53125C31.703125 8.207031 31.367188 8.003906 31 8 Z M 37.40625 27.5C38.605469 29.5 40.011719 31.289063 41.3125 32.6875C41.511719 32.886719 41.800781 33 42 33C42.199219 33 42.488281 32.886719 42.6875 32.6875C43.085938 32.289063 43.085938 31.710938 42.6875 31.3125C41.488281 30.011719 40.199219 28.304688 39 26.40625C38.398438 26.707031 37.90625 27 37.40625 27.5 Z M 37.59375 12C36.792969 12 36.011719 12.113281 35.3125 12.3125C35.914063 14.511719 36.6875 17.386719 37.1875 18.6875C37.1875 18.789063 37.3125 18.898438 37.3125 19L37.59375 19C38.894531 19 39.710938 18.6875 40.3125 18.1875C41.011719 17.488281 41 16.488281 41 15.6875L41 15.3125C41 14.511719 41.011719 13.511719 40.3125 12.8125C39.710938 12.3125 38.894531 12 37.59375 12 Z M 9 22C4 22 0 26 0 31C0 36 4 40 9 40C13.601563 40 17.40625 36.5 17.90625 32L13.90625 32C13.40625 34.300781 11.398438 36 9 36C6.199219 36 4 33.800781 4 31C4 28.199219 6.199219 26 9 26C11.398438 26 13.40625 27.699219 13.90625 30L17.90625 30C17.40625 25.5 13.601563 22 9 22 Z M 13.90625 30L11.84375 30C11.445313 28.816406 10.347656 28 9 28C7.300781 28 6 29.300781 6 31C6 32.699219 7.300781 34 9 34C10.347656 34 11.445313 33.183594 11.84375 32L13.90625 32C14.007813 31.699219 14 31.300781 14 31C14 30.699219 14.007813 30.300781 13.90625 30Z"/></svg>