<svg xmlns="http://www.w3.org/2000/svg" xmlns:xlink="http://www.w3.org/1999/xlink" viewBox="0 0 50 50"><path d="M31 8C31 8 27.636719 7.925781 25.28125 10.28125C24.882813 10.679688 24.882813 11.320313 25.28125 11.71875C25.679688 12.117188 26.320313 12.117188 26.71875 11.71875C28.03125 10.40625 29.636719 10.164063 30.375 10.09375C30.578125 10.523438 30.804688 11 30.90625 11.5C30.921875 11.5625 30.941406 11.628906 30.96875 11.6875C30.921875 12.039063 30.785156 12.570313 30.5 13.03125C30.132813 13.625 29.707031 14 29 14C24.792969 14 22.730469 15.464844 21.78125 16.96875C21.308594 17.722656 21.105469 18.425781 20.9375 18.8125C20.890625 18.921875 20.871094 18.925781 20.84375 18.96875C19.46875 18.957031 18.035156 18.828125 16.90625 18.53125C15.730469 18.222656 14.949219 17.667969 14.875 17.53125C14.875 17.519531 14.875 17.511719 14.875 17.5C14.296875 16.5 13.605469 15.691406 12.53125 15.34375C11.457031 14.996094 10.207031 15 8 15C4.691406 15 2.703125 15.804688 1.53125 16.71875C0.945313 17.175781 0.566406 17.648438 0.34375 18.03125C0.121094 18.414063 0.03125 18.78125 0.03125 18.78125C-0.0390625 19.089844 0.0429688 19.414063 0.25 19.65625C0.25 19.65625 0.632813 20.058594 1.25 20.375C1.867188 20.691406 2.792969 21 4 21C5.730469 21 7.410156 20.835938 8.96875 21.3125C9.550781 21.492188 10.136719 21.75 10.71875 22.15625C10.160156 22.050781 9.589844 22 9 22C4 22 0 26 0 31C0 36 4 40 9 40C13.386719 40 16.988281 36.910156 17.8125 32.78125C18.5 33.101563 19.273438 33.316406 20.09375 33.5C21.636719 33.84375 23.308594 34 24.59375 34C26.054688 34 27.4375 33.765625 28.53125 33.34375C29.078125 33.132813 29.539063 32.890625 29.9375 32.53125C30.335938 32.171875 30.6875 31.636719 30.6875 31C30.691406 30.957031 30.691406 30.917969 30.6875 30.875C30.121094 26.867188 31.234375 24.402344 32.4375 22.875C33.058594 22.085938 33.683594 21.574219 34.15625 21.25C34.546875 22.128906 34.953125 23.023438 35.40625 23.90625C33.320313 25.550781 32 28.117188 32 31C32 36 36 40 41 40C46 40 50 36 50 31C50 26 46 22 41 22C39.605469 22 38.296875 22.316406 37.125 22.875C36.421875 21.492188 35.808594 20.101563 35.28125 18.78125C36.019531 18.929688 36.785156 19 37.5 19C38.199219 19 38.777344 18.933594 39.28125 18.75C39.785156 18.566406 40.203125 18.226563 40.46875 17.8125C40.996094 16.984375 40.90625 16.175781 40.90625 15.5C40.90625 14.824219 40.996094 14.015625 40.46875 13.1875C40.203125 12.773438 39.785156 12.433594 39.28125 12.25C38.777344 12.066406 38.199219 12 37.5 12C36.0625 12 34.628906 12.335938 33.5 13.0625C33.3125 12.351563 33.015625 11.277344 33 11.21875C33 11.214844 32.96875 11.0625 32.96875 11.0625C32.933594 10.902344 32.859375 10.75 32.75 10.625C32.4375 9.523438 31.875 8.53125 31.875 8.53125C31.703125 8.207031 31.367188 8.003906 31 8 Z M 37.5 14C38.050781 14 38.414063 14.058594 38.59375 14.125C38.773438 14.191406 38.757813 14.214844 38.78125 14.25C38.828125 14.324219 38.90625 14.777344 38.90625 15.5C38.90625 16.222656 38.828125 16.675781 38.78125 16.75C38.757813 16.785156 38.773438 16.808594 38.59375 16.875C38.414063 16.941406 38.050781 17 37.5 17C36.511719 17 35.003906 16.683594 34.4375 16.4375C34.308594 16 34.183594 15.5625 34.0625 15.125C34.074219 15.113281 34.082031 15.105469 34.09375 15.09375C34.707031 14.480469 36.109375 14 37.5 14 Z M 31.875 14.4375C32.167969 15.578125 32.449219 16.636719 32.78125 17.75C32.789063 17.847656 32.808594 17.941406 32.84375 18.03125C32.886719 18.152344 32.953125 18.28125 33 18.40625C33.109375 18.75 33.183594 19.066406 33.3125 19.4375C32.671875 19.824219 31.820313 20.460938 30.875 21.65625C29.394531 23.535156 28.128906 26.582031 28.71875 31L28.6875 31C28.675781 31.015625 28.660156 31 28.625 31.03125C28.492188 31.152344 28.203125 31.316406 27.8125 31.46875C27.03125 31.769531 25.832031 32 24.59375 32C23.476563 32 21.890625 31.867188 20.53125 31.5625C19.253906 31.277344 18.222656 30.726563 17.96875 30.46875C17.835938 28.117188 16.832031 26.019531 15.25 24.5C13.539063 21.492188 11.523438 20.015625 9.53125 19.40625C7.488281 18.78125 5.570313 19 4 19C3.230469 19 2.769531 18.847656 2.40625 18.6875C2.519531 18.554688 2.554688 18.433594 2.75 18.28125C3.503906 17.695313 5.007813 17 8 17C10.191406 17 11.386719 17.070313 11.9375 17.25C12.480469 17.425781 12.621094 17.597656 13.125 18.46875C13.132813 18.484375 13.148438 18.488281 13.15625 18.5C13.789063 19.632813 14.992188 20.105469 16.375 20.46875C17.773438 20.835938 19.421875 21 21 21C21.457031 21 21.941406 20.757813 22.21875 20.46875C22.496094 20.179688 22.628906 19.902344 22.75 19.625C22.992188 19.074219 23.15625 18.527344 23.46875 18.03125C24.097656 17.035156 25.207031 16 29 16C30.296875 16 31.234375 15.261719 31.875 14.4375 Z M 9 24C10.828125 24 12.480469 24.6875 13.71875 25.8125C13.785156 25.910156 13.871094 25.996094 13.96875 26.0625C15 27.101563 15.691406 28.46875 15.90625 30L13.90625 30C13.457031 27.6875 11.460938 26 9 26C6.199219 26 4 28.199219 4 31C4 33.800781 6.199219 36 9 36C11.460938 36 13.457031 34.3125 13.90625 32L15.90625 32C15.421875 35.410156 12.554688 38 9 38C5.101563 38 2 34.898438 2 31C2 27.101563 5.101563 24 9 24 Z M 41 24C44.898438 24 48 27.101563 48 31C48 34.898438 44.898438 38 41 38C37.101563 38 34 34.898438 34 31C34 28.886719 34.921875 27.027344 36.375 25.75C36.703125 26.335938 37.058594 26.90625 37.40625 27.46875C36.523438 28.367188 36 29.617188 36 31C36 33.800781 38.199219 36 41 36C43.800781 36 46 33.800781 46 31C46 28.199219 43.800781 26 41 26C40.324219 26 39.675781 26.109375 39.09375 26.34375C38.753906 25.785156 38.417969 25.207031 38.09375 24.625C38.976563 24.226563 39.957031 24 41 24 Z M 9 28C10.347656 28 11.445313 28.816406 11.84375 30L9 30C8.96875 30 8.9375 30 8.90625 30C8.355469 30.027344 7.925781 30.496094 7.953125 31.046875C7.980469 31.597656 8.449219 32.027344 9 32L11.84375 32C11.445313 33.183594 10.347656 34 9 34C7.300781 34 6 32.699219 6 31C6 29.300781 7.300781 28 9 28 Z M 41 28C42.699219 28 44 29.300781 44 31C44 32.699219 42.699219 34 41 34C39.300781 34 38 32.699219 38 31C38 30.328125 38.214844 29.742188 38.5625 29.25C39.445313 30.535156 40.359375 31.707031 41.28125 32.6875C41.515625 32.988281 41.902344 33.132813 42.277344 33.054688C42.648438 32.976563 42.949219 32.691406 43.042969 32.320313C43.136719 31.953125 43.011719 31.558594 42.71875 31.3125C41.886719 30.429688 41.050781 29.320313 40.21875 28.09375C40.464844 28.03125 40.730469 28 41 28Z"/></svg>