<svg xmlns="http://www.w3.org/2000/svg" xmlns:xlink="http://www.w3.org/1999/xlink" viewBox="0 0 50 50"><path d="M37.164062 9.5C35.289759 9.5 33.707216 10.100433 32.857422 11L27 11 A 1.0001 1.0001 0 1 0 27 13L32.259766 13C32.645045 14.435874 34.65739 15.5 37.164062 15.5C38.270063 15.5 38.997172 15.287031 39.451172 14.832031C40.016172 14.264031 40.014719 13.463453 40.011719 12.689453L40.009766 12.498047L40.011719 12.308594C40.014719 11.535594 40.017172 10.735969 39.451172 10.167969C38.997172 9.7119687 38.272922 9.5 37.169922 9.5L37.164062 9.5 z M 2 13C1.447 13 1 13.448 1 14L1 22C1 22.552 1.447 23 2 23L11.015625 23C11.141625 21.347 12.102 19.217484 14 19.021484L14 14C14 13.448 13.553 13 13 13L2 13 z M 33.248047 16.685547C34.111047 23.246547 32.823125 29.604359 29.828125 33.193359C28.272125 35.056359 26.401578 36 24.267578 36C23.280578 36 22.695906 35.350687 22.378906 34.804688C21.522906 33.329687 21.375734 30.4365 23.302734 26.5625C22.012734 26.8515 20.394547 27 18.435547 27C17.257114 27 14.548266 26.991755 12.748047 26.035156C12.564418 25.937694 12.392472 25.829279 12.230469 25.710938C11.915435 25.480918 11.640065 25.214349 11.435547 24.894531C11.363467 24.927922 11.299313 24.965842 11.228516 25L1 25C0.447 25 0 25.448 0 26C0 26.553 0.447 27 1 27L8.140625 27C5.1303891 29.545041 4.0970005 32.516944 4.0371094 32.726562C3.9621094 32.992562 3.9995781 33.278625 4.1425781 33.515625C4.2855781 33.752625 4.5190625 33.920516 4.7890625 33.978516L19.869141 38L31.058594 38C31.023594 37.69 31 37.362 31 37C31 31.673 36.14 27 42 27C42.181 27 42.352391 27.009578 42.525391 27.017578C42.167391 23.010578 40.234813 19.650906 38.507812 17.378906C38.093812 17.451906 37.653062 17.5 37.164062 17.5C35.690063 17.5 34.351047 17.202547 33.248047 16.685547 z M 14.28125 21C14.184077 21 14.090938 21.029755 14 21.076172C13.998509 21.076936 13.997583 21.079303 13.996094 21.080078C13.882067 21.139256 13.775918 21.234863 13.675781 21.351562C13.662059 21.367468 13.648179 21.381642 13.634766 21.398438C13.535952 21.522709 13.444734 21.665208 13.365234 21.828125C13.265172 22.032233 13.18821 22.260101 13.126953 22.494141C13.107622 22.56791 13.098893 22.636507 13.083984 22.710938C13.064878 22.805995 13.03673 22.899883 13.025391 22.994141C13.033791 22.993923 13.04048 22.988703 13.048828 22.988281C13.033436 23.115491 13 23.246564 13 23.367188C13 24.385188 14.858547 25 18.435547 25C22.014547 25 25 24.386188 25 23.367188C25 22.350188 24.426797 21 23.716797 21L14.28125 21 z M 42 29C37.475 29 33 32.574 33 37C33 39.74 34.19 40 35 40C36.659 40 36 36.598 40 35C41.175 34.531 42.330391 34.384766 43.400391 34.384766C45.209391 34.384766 46.774109 34.804688 47.787109 34.804688C48.552109 34.804688 49.001953 34.564703 49.001953 33.720703C49.000953 32.999703 47.704 29 42 29 z M 43.179688 36.392578C42.282688 36.414578 41.479187 36.563422 40.742188 36.857422C40.554187 36.932422 40.385562 37.012703 40.226562 37.095703C40.087562 37.369703 40 37.673 40 38C40 39.103 40.897 40 42 40C43.103 40 44 39.103 44 38C44 37.339 43.674687 36.756578 43.179688 36.392578 z M 6.1933594 36.421875C6.0743594 36.937875 6 37.465 6 38C6 41.859 9.141 45 13 45C16.172 45 18.853938 42.876516 19.710938 39.978516C19.590938 39.969516 19.470516 39.964594 19.353516 39.933594L16.78125 39.246094C16.25425 40.839094 14.768 42 13 42C10.794 42 9 40.206 9 38C9 37.723 9.0348437 37.454359 9.0898438 37.193359L6.1933594 36.421875 z M 45.732422 36.59375C45.898422 37.03375 46 37.504 46 38C46 40.206 44.206 42 42 42C40.262 42 38.795141 40.880125 38.244141 39.328125C38.220141 39.376125 38.196828 39.424656 38.173828 39.472656C37.816828 40.207656 37.264 41.317297 36.125 41.779297C37.384 43.731297 39.565 45 42 45C45.859 45 49 41.859 49 38C49 37.545 48.940516 37.096297 48.853516 36.654297C48.534516 36.742297 48.190156 36.804688 47.785156 36.804688C47.208156 36.804688 46.583875 36.715141 45.921875 36.619141C45.861875 36.610141 45.793422 36.60275 45.732422 36.59375 z M 11.029297 37.712891C11.015297 37.807891 11 37.902 11 38C11 39.103 11.897 40 13 40C13.843 40 14.562469 39.472422 14.855469 38.732422L11.029297 37.712891 z"/></svg>