<svg xmlns="http://www.w3.org/2000/svg" xmlns:xlink="http://www.w3.org/1999/xlink" viewBox="0 0 50 50"><path d="M25 8C21.453125 8 19.121094 8.253906 17.648438 8.515625C16.175781 8.777344 15.46875 9.097656 15.46875 9.097656L15.578125 9.054688C14.101563 9.554688 11.75 10.25 10.683594 12.328125C10.429688 12.820313 10.042969 13.800781 9.484375 15.21875C9.054688 16.3125 8.535156 17.671875 8.027344 19L5.101563 19C3.613281 19 2.5 19.484375 1.835938 20.238281C1.167969 20.992188 1 21.894531 1 22.589844C1 23.363281 1.40625 24.15625 2.03125 24.542969C2.65625 24.925781 3.34375 25 4.082031 25L5.75 25C5.59375 25.417969 5.0625 26.820313 5.0625 26.820313L5 26.988281L5 39C5 40.644531 6.355469 42 8 42L12 42C13.644531 42 15 40.644531 15 39L15 38L35 38L35 39C35 40.644531 36.355469 42 38 42L42 42C43.644531 42 45 40.644531 45 39L45 26.984375L44.933594 26.8125C44.933594 26.8125 44.398438 25.421875 44.234375 25L45.917969 25C46.65625 25 47.34375 24.925781 47.96875 24.542969C48.59375 24.15625 49 23.363281 49 22.589844C49 21.894531 48.832031 20.992188 48.167969 20.238281C47.5 19.484375 46.386719 19 44.902344 19L41.929688 19C41.871094 18.859375 41.804688 18.714844 41.777344 18.636719C40.691406 15.835938 39.648438 13.164063 39.273438 12.3125C38.289063 10.070313 35.667969 9.40625 34.375 9.039063L34.53125 9.097656C34.53125 9.097656 33.824219 8.777344 32.351563 8.515625C30.878906 8.253906 28.546875 8 25 8 Z M 25 10C28.453125 10 30.671875 10.246094 32 10.484375C33.328125 10.722656 33.671875 10.902344 33.671875 10.902344L33.746094 10.9375L33.828125 10.964844C35.042969 11.308594 37 12.109375 37.441406 13.117188C37.746094 13.808594 38.816406 16.539063 39.914063 19.363281L39.910156 19.363281C40.160156 20 40.5625 21.054688 40.421875 21.691406C40.355469 22.011719 40.242188 22.238281 39.78125 22.5C39.371094 22.726563 38.621094 22.933594 37.472656 22.980469C36.746094 21.261719 35.316406 19.921875 33.53125 19.332031C34.414063 18.695313 35 17.664063 35 16.5C35 14.578125 33.421875 13 31.5 13C29.578125 13 28 14.578125 28 16.5C28 17.664063 28.585938 18.699219 29.472656 19.335938C27.679688 19.925781 26.226563 21.269531 25.503906 23L24.5 23C23.777344 21.269531 22.324219 19.921875 20.53125 19.332031C21.414063 18.695313 22 17.664063 22 16.5C22 14.578125 20.421875 13 18.5 13C16.578125 13 15 14.578125 15 16.5C15 17.667969 15.589844 18.699219 16.476563 19.339844C14.691406 19.925781 13.253906 21.265625 12.527344 22.980469C11.378906 22.933594 10.628906 22.726563 10.21875 22.5C9.757813 22.238281 9.644531 22.011719 9.578125 21.691406C9.4375 21.054688 9.839844 20 10.089844 19.363281L10.039063 19.34375C10.496094 18.15625 10.964844 16.925781 11.347656 15.949219C11.902344 14.542969 12.378906 13.402344 12.460938 13.242188C13.019531 12.164063 14.757813 11.445313 16.222656 10.949219L16.277344 10.925781L16.328125 10.902344C16.328125 10.902344 16.671875 10.722656 18 10.484375C19.328125 10.246094 21.546875 10 25 10 Z M 18.5 15C19.339844 15 20 15.660156 20 16.5C20 17.339844 19.339844 18 18.5 18C17.660156 18 17 17.339844 17 16.5C17 15.660156 17.660156 15 18.5 15 Z M 31.5 15C32.339844 15 33 15.660156 33 16.5C33 17.339844 32.339844 18 31.5 18C30.660156 18 30 17.339844 30 16.5C30 15.660156 30.660156 15 31.5 15 Z M 5.101563 21L7.265625 21C6.886719 21.996094 6.8125 22.191406 6.507813 23L4.082031 23C3.523438 23 3.171875 22.894531 3.078125 22.839844C2.988281 22.78125 3 22.867188 3 22.589844C3 22.226563 3.09375 21.832031 3.335938 21.558594C3.578125 21.285156 4.011719 21 5.101563 21 Z M 18.5 21C20.066406 21 21.433594 21.796875 22.238281 23L14.769531 23C15.578125 21.796875 16.933594 21 18.5 21 Z M 31.5 21C33.066406 21 34.433594 21.796875 35.238281 23L27.765625 23C28.570313 21.796875 29.933594 21 31.5 21 Z M 42.695313 21L44.902344 21C45.988281 21 46.421875 21.285156 46.664063 21.558594C46.90625 21.832031 47 22.226563 47 22.589844C47 22.867188 47.011719 22.78125 46.921875 22.839844C46.828125 22.894531 46.476563 23 45.917969 23L43.464844 23C43.148438 22.179688 43.085938 22.007813 42.695313 21 Z M 8.425781 23.582031C8.65625 23.828125 8.914063 24.058594 9.238281 24.242188C10.140625 24.75 11.347656 25 13 25L37 25C38.652344 25 39.859375 24.75 40.761719 24.242188C41.074219 24.066406 41.328125 23.84375 41.554688 23.605469C42.140625 25.128906 42.964844 27.261719 43 27.359375L43 35.140625C43 35.609375 42.617188 36 42.097656 36L7.898438 36C7.382813 36 7 35.609375 7 35.140625L7 27.351563C7.035156 27.257813 7.855469 25.09375 8.425781 23.582031 Z M 11 26C9.355469 26 8 27.355469 8 29C8 29.886719 8.367188 30.675781 8.875 31.21875C9.382813 31.761719 9.988281 32.117188 10.589844 32.453125C11.433594 32.933594 12.007813 33.304688 12.675781 33.582031C13.34375 33.863281 14.074219 34 15 34C17.195313 34 19 32.199219 19 30C19 27.800781 17.195313 26 15 26 Z M 35 26C32.804688 26 31 27.800781 31 30C31 32.199219 32.804688 34 35 34C35.925781 34 36.65625 33.863281 37.324219 33.582031C37.992188 33.304688 38.566406 32.933594 39.410156 32.453125L39.414063 32.453125C40.011719 32.113281 40.617188 31.761719 41.125 31.21875C41.632813 30.675781 42 29.886719 42 29C42 27.355469 40.644531 26 39 26 Z M 11 28L15 28C16.117188 28 17 28.882813 17 30C17 31.117188 16.117188 32 15 32C14.25 32 13.886719 31.921875 13.449219 31.738281C13.007813 31.554688 12.457031 31.214844 11.574219 30.714844C11.011719 30.394531 10.574219 30.109375 10.332031 29.851563C10.09375 29.59375 10 29.417969 10 29C10 28.4375 10.4375 28 11 28 Z M 35 28L39 28C39.5625 28 40 28.4375 40 29C40 29.417969 39.90625 29.59375 39.667969 29.851563C39.425781 30.109375 38.988281 30.394531 38.425781 30.714844C37.542969 31.214844 36.992188 31.554688 36.550781 31.738281C36.113281 31.921875 35.75 32 35 32C33.882813 32 33 31.117188 33 30C33 28.882813 33.882813 28 35 28 Z M 7 37.84375C7.285156 37.9375 7.585938 38 7.898438 38L13 38L13 39C13 39.5625 12.5625 40 12 40L8 40C7.4375 40 7 39.5625 7 39 Z M 43 37.84375L43 39C43 39.5625 42.5625 40 42 40L38 40C37.4375 40 37 39.5625 37 39L37 38L42.097656 38C42.414063 38 42.714844 37.9375 43 37.84375Z"/></svg>