<svg xmlns="http://www.w3.org/2000/svg" xmlns:xlink="http://www.w3.org/1999/xlink" viewBox="0 0 50 50"><path d="M19 22C18.445313 22 17.769531 22.078125 17.125 22.53125C16.480469 22.984375 16 23.878906 16 24.90625L16 30L4 30C3.003906 30 2 30.222656 1.21875 30.90625C0.4375 31.589844 0 32.691406 0 34L0 42.3125C0 43.136719 0.394531 43.890625 0.96875 44.34375C1.542969 44.796875 2.269531 45 3 45L5.09375 45C5.570313 47.835938 8.035156 50 11 50C13.964844 50 16.429688 47.835938 16.90625 45L33.09375 45C33.570313 47.835938 36.035156 50 39 50C41.964844 50 44.429688 47.835938 44.90625 45L47 45C48.652344 45 50 43.652344 50 42L50 36C50 35 49.34375 34.3125 48.59375 33.75C47.84375 33.1875 46.859375 32.710938 45.75 32.25C43.613281 31.359375 40.949219 30.605469 38.46875 30.09375C38.371094 30.046875 38.265625 30.015625 38.15625 30C38.125 29.972656 37.59375 29.695313 37.03125 29.1875C36.4375 28.652344 35.753906 27.929688 35.125 27.21875C33.863281 25.792969 32.78125 24.40625 32.78125 24.40625L32.71875 24.28125C31.71875 23.28125 30.332031 22 28 22 Z M 19 24L23 24L23 30L18 30L18 24.90625C18 24.367188 18.105469 24.289063 18.25 24.1875C18.394531 24.085938 18.699219 24 19 24 Z M 25 24L28 24C29.667969 24 30.28125 24.71875 31.28125 25.71875L31.3125 25.6875C31.386719 25.78125 32.351563 27.09375 33.625 28.53125C34.074219 29.039063 34.554688 29.527344 35.03125 30L25 30 Z M 4 32L38 32C40.394531 32.492188 43.019531 33.265625 45 34.09375C46.015625 34.519531 46.84375 34.945313 47.375 35.34375C47.90625 35.742188 48 36.046875 48 36L48 42C48 42.464844 47.464844 43 47 43L44.90625 43C44.429688 40.164063 41.964844 38 39 38C36.035156 38 33.570313 40.164063 33.09375 43L16.90625 43C16.429688 40.164063 13.964844 38 11 38C8.035156 38 5.570313 40.164063 5.09375 43L3 43C2.667969 43 2.378906 42.90625 2.21875 42.78125C2.058594 42.65625 2 42.546875 2 42.3125L2 34C2 33.089844 2.234375 32.667969 2.53125 32.40625C2.828125 32.144531 3.3125 32 4 32 Z M 11 40C13.222656 40 15 41.777344 15 44C15 46.222656 13.222656 48 11 48C8.777344 48 7 46.222656 7 44C7 41.777344 8.777344 40 11 40 Z M 39 40C41.222656 40 43 41.777344 43 44C43 46.222656 41.222656 48 39 48C36.777344 48 35 46.222656 35 44C35 41.777344 36.777344 40 39 40Z"/></svg>