<svg xmlns="http://www.w3.org/2000/svg" xmlns:xlink="http://www.w3.org/1999/xlink" viewBox="0 0 50 50"><path d="M38.195313 30.019531C37.46875 29.855469 34.996094 27.28125 32.796875 24.394531L32.707031 24.292969C31.6875 23.269531 30.414063 22 28 22L19.011719 22C17.183594 22 16 23.136719 16 24.894531L16 30L4 30C1.496094 30 0 31.496094 0 34L0 42.308594C0 43.84375 1.289063 45 3 45L5.089844 45C5.570313 47.832031 8.03125 50 11 50C13.96875 50 16.429688 47.832031 16.910156 45L33.089844 45C33.570313 47.832031 36.03125 50 39 50C41.96875 50 44.433594 47.832031 44.910156 45L47 45C48.597656 45 50 43.597656 50 42L50 36C50 32.554688 40.167969 30.414063 38.195313 30.019531 Z M 31.246094 25.660156C32.058594 26.722656 33.53125 28.570313 34.984375 30L25 30L25 24L28 24C29.558594 24 30.3125 24.730469 31.246094 25.660156 Z M 18 24.894531C18 24.539063 18 24 19.011719 24L23 24L23 30L18 30 Z M 11 48C8.792969 48 7 46.207031 7 44C7 41.792969 8.792969 40 11 40C13.207031 40 15 41.792969 15 44C15 46.207031 13.207031 48 11 48 Z M 39 48C36.792969 48 35 46.207031 35 44C35 41.792969 36.792969 40 39 40C41.207031 40 43 41.792969 43 44C43 46.207031 41.207031 48 39 48Z"/></svg>