<?xml version="1.0" encoding="utf-8"?><svg version="1.1" id="Layer_1" xmlns="http://www.w3.org/2000/svg" xmlns:xlink="http://www.w3.org/1999/xlink" x="0px" y="0px" viewBox="0 0 122.88 116.02" style="enable-background:new 0 0 122.88 116.02" xml:space="preserve"><style type="text/css">.st0{fill-rule:evenodd;clip-rule:evenodd;}</style><g><path class="st0" d="M38.14,115.91c0-10.58,5.81-15.56,13.46-21.3l0-27.68L1.37,89.25c0-19.32-6.57-17.9,9.05-27.72l0.15-0.09 V49.37h11.22v5.08l8.24-5.13V35.8h11.22v6.54l10.36-6.45V7.3c0-4.02,4.37-7.3,9.7-7.3l0,0c5.34,0,9.7,3.29,9.7,7.3v28.58 l10.47,6.52V35.8l11.22,0v13.59l8.24,5.13v-5.15l11.21,0v12.14c15.56,9.67,9.61,7.78,9.61,27.74L71.01,66.91v27.58 c8.14,5.43,13.46,9.6,13.46,21.43l-12.81,0.11c-2.93-2.3-4.96-4.05-6.52-5.26c-1.18,0.39-2.48,0.6-3.83,0.6h0 c-1.53,0-2.99-0.27-4.28-0.76c-1.68,1.22-3.9,3.04-7.21,5.42L38.14,115.91L38.14,115.91L38.14,115.91z"/></g></svg>