<svg xmlns="http://www.w3.org/2000/svg" xmlns:xlink="http://www.w3.org/1999/xlink" viewBox="0 0 50 50"><path d="M11 0C4.898438 0 0 4.898438 0 11L0 39C0 40.140625 0.378906 41.167969 1 42L1 45C1 46.699219 2.300781 48 4 48L8 48C9.699219 48 11 46.699219 11 45L11 44L22 44L22 37.8125C22 36.914063 22.199219 35.894531 22.5 35.09375L24.09375 31.5L25.09375 29.3125C25.292969 28.914063 25.511719 28.488281 25.8125 28.1875L7 28.1875C5.898438 28.1875 5 27.289063 5 26.1875L5 13C5 11.898438 5.898438 11 7 11L31 11C32.101563 11 33 11.898438 33 13L33 25L38 25L38 11C38 4.898438 33.101563 0 27 0 Z M 12 4L27 4C27.601563 4 28 4.398438 28 5L28 7C28 7.601563 27.601563 8 27 8L12 8C11.398438 8 11 7.601563 11 7L11 5C11 4.398438 11.398438 4 12 4 Z M 31.59375 27C29.59375 27 27.898438 28.101563 27 30L26 32.1875L24.40625 35.8125C24.207031 36.414063 24 37.113281 24 37.8125L24 48C24 49.199219 24.800781 50 26 50L29 50C30.199219 50 31 49.199219 31 48L31 47L43 47L43 48C43 49.199219 43.800781 50 45 50L48 50C49.199219 50 50 49.199219 50 48L50 37.8125C50 37.113281 49.894531 36.511719 49.59375 35.8125L47 30C46.101563 28.199219 44.40625 27 42.40625 27 Z M 31.6875 29L42.5 29C43.699219 29 44.8125 29.710938 45.3125 30.8125L46.59375 33.59375C46.695313 33.894531 46.8125 34.105469 46.8125 34.40625L46.8125 36C46.8125 36.601563 46.414063 37 45.8125 37L28.40625 37C27.804688 37 27.40625 36.601563 27.40625 36L27.40625 34.40625C27.40625 34.105469 27.492188 33.792969 27.59375 33.59375L28.90625 30.8125C29.40625 29.710938 30.488281 29 31.6875 29 Z M 8.5 32C10.398438 32 12 33.601563 12 35.5C12 37.398438 10.398438 39 8.5 39C6.601563 39 5 37.398438 5 35.5C5 33.601563 6.601563 32 8.5 32 Z M 30 39C31.101563 39 32 39.898438 32 41C32 42.101563 31.101563 43 30 43C28.898438 43 28 42.101563 28 41C28 39.898438 28.898438 39 30 39 Z M 44 39C45.101563 39 46 39.898438 46 41C46 42.101563 45.101563 43 44 43C42.898438 43 42 42.101563 42 41C42 39.898438 42.898438 39 44 39Z"/></svg>