<svg xmlns="http://www.w3.org/2000/svg" xmlns:xlink="http://www.w3.org/1999/xlink" viewBox="0 0 24 24"><path d="M12 4L12 6L14.382812 6L14.572266 6.3789062C13.905218 6.7482372 13.386558 7.3192953 12.908203 7.7773438C12.135164 8.5175663 11.5 9 11 9C10.416667 9 10.132453 8.8886443 9.7617188 8.6699219C9.3909841 8.4511995 8.9505047 8.076723 8.3046875 7.6601562C7.013053 6.8270229 4.9789039 6 1 6L1 8C1.7698747 8 2.4227086 8.0342853 3.015625 8.0859375L4.2695312 10L2 10L2 12L5.5800781 12L8.5585938 16.548828 A 1.0001 1.0001 0 0 0 9.3964844 17L17 17C17 18.64501 18.35499 20 20 20C21.64501 20 23 18.64501 23 17C23 15.560616 21.962944 14.342391 20.601562 14.060547L18.765625 11L22 11 A 1.0001 1.0001 0 0 0 22.767578 9.359375C22.767578 9.359375 20.347692 6.3515221 16.634766 6.03125L15.894531 4.5527344 A 1.0001 1.0001 0 0 0 15 4L12 4 z M 16 8C17.206159 8 18.252125 8.4732034 19.128906 9L17.146484 9 A 1.0001 1.0001 0 0 0 17.037109 8.9882812 A 1.0001 1.0001 0 0 0 16.9375 8.9882812 A 1.0001 1.0001 0 0 0 16.119141 9.5C15.927426 9.7171064 15.539116 10.18544 15.105469 11.052734C14.63732 11.989031 14.197936 13.326533 14.060547 15L9.9355469 15L5.7539062 8.6152344C6.3701439 8.8329428 6.8264292 9.0867879 7.21875 9.3398438C7.7356828 9.6732769 8.1633907 10.048801 8.7460938 10.392578C9.3287966 10.736356 10.083333 11 11 11C12.5 11 13.497555 9.9824338 14.291016 9.2226562C15.084476 8.462879 15.709701 8 16 8 z M 16.947266 11.855469L18.496094 14.435547C18.235251 14.592456 17.990901 14.774956 17.787109 15L16.060547 15C16.18873 13.67791 16.539954 12.656421 16.894531 11.947266C16.917396 11.901537 16.925959 11.896423 16.947266 11.855469 z M 4 14C2.3549904 14 1 15.35499 1 17C1 18.64501 2.3549904 20 4 20C5.6450096 20 7 18.64501 7 17C7 15.35499 5.6450096 14 4 14 z M 4 16C4.5641294 16 5 16.435871 5 17C5 17.564129 4.5641294 18 4 18C3.4358706 18 3 17.564129 3 17C3 16.435871 3.4358706 16 4 16 z M 19.894531 16.019531 A 1.0001 1.0001 0 0 0 20.119141 16.023438C20.621114 16.082696 21 16.478489 21 17C21 17.564129 20.564129 18 20 18C19.435871 18 19 17.564129 19 17C19 16.473517 19.385303 16.072545 19.894531 16.019531 z"/></svg>