<svg xmlns="http://www.w3.org/2000/svg" xmlns:xlink="http://www.w3.org/1999/xlink" viewBox="0 0 50 50"><path d="M16 9 A 1.0001 1.0001 0 0 0 15.060547 9.6582031L11.177734 20.335938L5.3496094 23.976562C3.8882124 24.889623 3 26.494553 3 28.216797L3 35 A 1.0001 1.0001 0 0 0 4 36L8.0839844 36C8.2561215 37.128645 8.7160789 38.217454 9.5019531 39.101562C10.518559 40.245244 12.083334 41 14 41C16.960386 41 19.427922 38.828339 19.908203 36L31.755859 36C33.091452 38.950223 36.062814 41 39.5 41C44.18248 41 48 37.18248 48 32.5C48 27.81752 44.18248 24 39.5 24C37.843797 24 36.309543 24.495588 35 25.318359L35 21 A 1.0001 1.0001 0 0 0 34 20L26 20L26 10 A 1.0001 1.0001 0 0 0 25 9L16 9 z M 16.701172 11L24 11L24 20L13.427734 20L16.701172 11 z M 15.816406 22L33 22L33 27L33.050781 27C32.534956 27.603804 32.087716 28.267381 31.755859 29L28.261719 29L15.816406 22 z M 12.027344 22.162109L27.509766 30.871094 A 1.0001 1.0001 0 0 0 28 31L39.5 31C40.340812 31 41 31.659188 41 32.5C41 33.340812 40.340812 34 39.5 34L19.908203 34C19.427922 31.171661 16.960386 29 14 29C12.083334 29 10.518559 29.754756 9.5019531 30.898438C8.7160789 31.782546 8.2561215 32.871355 8.0839844 34L5 34L5 28.216797C5 27.181041 5.5315533 26.222767 6.4101562 25.673828L12.027344 22.162109 z M 39.5 26C43.10152 26 46 28.89848 46 32.5C46 36.10152 43.10152 39 39.5 39C37.197226 39 35.197193 37.796146 34.042969 36L39.5 36C41.421188 36 43 34.421188 43 32.5C43 30.578812 41.421188 29 39.5 29L34.042969 29C35.197439 27.203471 37.197032 26 39.5 26 z M 14 31C16.220986 31 18 32.779015 18 35C18 37.220985 16.220986 39 14 39C12.583334 39 11.648107 38.504756 10.998047 37.773438C10.347987 37.042119 10 36.027778 10 35C10 33.972222 10.347987 32.957881 10.998047 32.226562C11.648107 31.495244 12.583334 31 14 31 z"/></svg>