<svg xmlns="http://www.w3.org/2000/svg" xmlns:xlink="http://www.w3.org/1999/xlink" viewBox="0 0 50 50"><path d="M18 10 A 1.0001 1.0001 0 0 0 17.042969 10.712891L14.042969 20.712891 A 1.0001 1.0001 0 0 0 14.496094 21.863281L26.496094 28.863281 A 1.0001 1.0001 0 0 0 27 28.998047L27 29L30.023438 29C31.062438 26.822 32.823 25.057531 35 24.019531L35 21C35 20.45 34.55 20 34 20L28 20L28 11 A 1.0001 1.0001 0 0 0 27 10L18 10 z M 18.744141 12L26 12L26 20L16.34375 20L18.744141 12 z M 10.300781 22.050781C10.120406 22.053031 9.9417031 22.103625 9.7832031 22.203125L5.3496094 24.980469C3.8876094 25.896469 3 27.499609 3 29.224609L3 36C3 36.55 3.45 37 4 37L8.0839844 37C8.2561215 38.128645 8.7160789 39.217454 9.5019531 40.101562C10.518559 41.245244 12.083334 42 14 42C17.301865 42 20 39.301863 20 36L31.376953 36C32.448575 39.468442 35.686997 42 39.5 42C44.182578 42 48 38.182575 48 33.5C48 28.817425 44.182578 25 39.5 25C35.686997 25 32.448575 27.531558 31.376953 31L26 31C25.82 31 25.650234 30.949375 25.490234 30.859375L10.824219 22.191406C10.663219 22.095906 10.481156 22.048531 10.300781 22.050781 z M 39.5 27C43.101699 27 46 29.898304 46 33.5C46 37.101696 43.101699 40 39.5 40C36.785386 40 34.47179 38.35311 33.496094 36L39.5 36C40.879 36 42 34.878 42 33.5C42 32.122 40.879 31 39.5 31L33.496094 31C34.47179 28.64689 36.785386 27 39.5 27 z M 14 32C16.220986 32 18 33.779015 18 36C18 38.220985 16.220986 40 14 40C12.583334 40 11.648107 39.504756 10.998047 38.773438C10.347987 38.042119 10 37.027778 10 36C10 34.972222 10.347987 33.957881 10.998047 33.226562C11.648107 32.495244 12.583334 32 14 32 z"/></svg>