<?xml version="1.0" encoding="utf-8"?><svg version="1.1" id="Layer_1" xmlns="http://www.w3.org/2000/svg" xmlns:xlink="http://www.w3.org/1999/xlink" x="0px" y="0px" viewBox="0 0 122.88 85.22" style="enable-background:new 0 0 122.88 85.22" xml:space="preserve"><style type="text/css">.st0{fill-rule:evenodd;clip-rule:evenodd;}</style><g><path class="st0" d="M82.08,7.33h35.4c1.35,0,2.46,1.11,2.46,2.46V30.4h0.24c1.49,0,2.7,1.22,2.7,2.7v3.01 c0,1.51-1.24,2.74-2.74,2.74h-19c14.12,1.26,22.19,14.39,21.31,31.46h-12.56c-0.01,8.23-6.69,14.89-14.92,14.89 c-8.23,0-14.91-6.67-14.92-14.89H41.68c-0.01-0.27-0.02-0.53-0.03-0.8c0.03,1.81-0.08,3.73-0.34,5.78L7.87,59.54L0,55.82 c6.32-7.19,13.94-10.21,23.16-8.13c1.42,0.36,2.76,0.78,4.03,1.26c-1.3-0.5-2.67-0.92-4.11-1.28l10.52-34.65l-4.75-0.09l0,0 c-0.98-0.02-2.04,0.25-2.71-0.23c-1.16-0.03-2.17-0.73-2.87-1.83c-0.63-0.98-1.01-2.32-1.01-3.78c0-1.46,0.39-2.8,1.01-3.78 c0.52-0.81,1.2-1.4,1.98-1.67c0.01-0.16,0.02-0.27,0.04-0.3c1.12-1.79,3.3-1.25,5.24-1.25l1.89,0.12c1.37,0.17,2.71,0.62,4,1.36 l2.16,1.21h1.75l5.88,1.14c1.92,0.37,2.2,0.21,1.75,2.58c-0.06,0.3-0.13,0.6-0.23,0.89c-0.58,1.73-1.04,1.09-2.83,0.72l-5.51-1.14 c0.21,2.22-0.49,4.94-1.48,8.12c3.17,2.68,4.59,6.5,2.43,11.53l-5.26,16.21C43.9,49.08,49.2,54.74,49.5,64.03h11.67 c7.19-5.45,6-15.15-1.89-21.35v-3.82h0v-5.84c0.01-1.85,1-2.68,2.84-2.63h17.5V9.79C79.62,8.44,80.73,7.33,82.08,7.33L82.08,7.33z M90.68,26.67h18.21c0.14,0,0.26,0.12,0.26,0.26v0.52c0,0.14-0.12,0.26-0.26,0.26H90.68c-0.14,0-0.26-0.12-0.26-0.26v-0.52 C90.42,26.79,90.53,26.67,90.68,26.67L90.68,26.67z M100.54,15.35c5.33,0.43,9.19,4.44,8.52,9.72H90.5 c-0.65-5.31,3.22-9.33,8.59-9.72v-1.49h-1.48c-0.15,0-0.27-0.12-0.27-0.27v-0.97c0-0.15,0.12-0.27,0.27-0.27h4.37 c0.15,0,0.27,0.12,0.27,0.27v0.97c0,0.15-0.12,0.27-0.27,0.27h-1.45V15.35L100.54,15.35L100.54,15.35z M7.91,59.56l13.3,6.3 l-4.32-1.98c-2.97,0.63-5.19,3.27-5.19,6.42c0,3.63,2.94,6.57,6.57,6.57c3.63,0,6.57-2.94,6.57-6.57c0-1.12-0.28-2.17-0.77-3.1 l9.08,4.3c-0.61,7.68-7.04,13.72-14.87,13.72c-8.24,0-14.92-6.68-14.92-14.92C3.34,66.08,5.09,62.27,7.91,59.56L7.91,59.56 L7.91,59.56z M25.27,4.2c0.06,1.92,0.19,4.39,0.28,6.05c-0.16-0.14-0.32-0.32-0.46-0.55c-0.42-0.65-0.67-1.58-0.67-2.62 s0.26-1.97,0.67-2.62C25.15,4.37,25.21,4.28,25.27,4.2L25.27,4.2z M88.4,70.32h13.14c-0.01,3.62-2.95,6.54-6.57,6.54 C91.35,76.87,88.41,73.94,88.4,70.32L88.4,70.32L88.4,70.32z"/></g></svg>