<svg xmlns="http://www.w3.org/2000/svg" xmlns:xlink="http://www.w3.org/1999/xlink" viewBox="0 0 50 50"><path d="M35.15625 5.28125C33.765625 5.28125 32.5 5.585938 31.5 6.15625C30.652344 6.640625 29.949219 7.355469 29.75 8.28125C28.859375 8.667969 27.875 9.097656 27.09375 9.4375C26.3125 9.777344 25.777344 9.992188 25.5625 10.09375C24.996094 10.367188 24.535156 10.769531 24.3125 11.3125C24.089844 11.855469 24.171875 12.484375 24.4375 12.9375C24.972656 13.84375 26.082031 14.234375 27.21875 13.96875C28.121094 13.757813 28.847656 13.230469 29.46875 12.75C30.335938 15.300781 31.265625 18.972656 31 22.28125C30.84375 24.207031 30.300781 25.894531 29.25 27.0625C28.199219 28.230469 26.632813 29 24 29C22.0625 29 20.441406 28.964844 19.875 28.53125C19.589844 28.3125 19.402344 28.039063 19.34375 27.21875C19.285156 26.398438 19.445313 25.109375 19.96875 23.28125C20.011719 23.117188 20.011719 22.945313 19.96875 22.78125C19.96875 22.78125 19.839844 22.15625 19.40625 21.53125C19.4375 21.503906 19.46875 21.496094 19.5 21.46875C19.753906 21.234375 20 20.84375 20 20.375C20 19.605469 19.75 18.855469 19.3125 18.21875C18.875 17.582031 18.171875 17 17.21875 17L2.78125 17C1.828125 17 1.125 17.582031 0.6875 18.21875C0.25 18.855469 0 19.605469 0 20.375C0 20.828125 0.222656 21.230469 0.46875 21.46875C0.714844 21.707031 0.988281 21.835938 1.28125 21.96875C1.433594 22.035156 1.609375 22.097656 1.78125 22.15625C1.058594 23.511719 0 25.980469 0 29C0 30.53125 1.089844 31.742188 2.53125 32.59375C2.871094 32.792969 3.234375 32.980469 3.625 33.15625C3.234375 34.023438 3 34.988281 3 36C3 39.855469 6.144531 43 10 43C13.855469 43 17 39.855469 17 36C17 35.917969 17.003906 35.832031 17 35.75C19.066406 35.894531 21.144531 36 23.15625 36C26.210938 36 28.847656 35.746094 31.125 35.3125C31.265625 36.136719 31.527344 36.765625 31.96875 37.21875C32.621094 37.886719 33.488281 38 34 38C34.441406 38 34.871094 37.851563 35.21875 37.65625C35.96875 40.710938 38.71875 43 42 43C45.855469 43 49 39.855469 49 36C49 34.90625 48.734375 33.863281 48.28125 32.9375C48.4375 32.90625 48.585938 32.84375 48.75 32.78125C49.113281 32.636719 49.503906 32.359375 49.71875 31.96875C49.933594 31.578125 50 31.152344 50 30.71875C50 29.289063 49.027344 27.945313 47.40625 26.875C46 25.945313 44.03125 25.234375 41.5625 25.0625C41.390625 24.523438 41.148438 24.007813 40.84375 23.5C40.84375 23.488281 40.84375 23.480469 40.84375 23.46875C39.46875 21.226563 36.472656 17.378906 34.75 12.34375C34.882813 12.351563 35.019531 12.375 35.15625 12.375C35.851563 12.375 36.433594 12.320313 36.9375 12.125C37.441406 11.929688 37.875 11.574219 38.125 11.15625C38.628906 10.316406 38.5 9.488281 38.5 8.8125C38.5 8.136719 38.628906 7.339844 38.125 6.5C37.875 6.082031 37.441406 5.726563 36.9375 5.53125C36.433594 5.335938 35.851563 5.28125 35.15625 5.28125 Z M 35.15625 7.28125C35.695313 7.28125 36.050781 7.339844 36.21875 7.40625C36.386719 7.472656 36.378906 7.488281 36.40625 7.53125C36.457031 7.617188 36.5 8.078125 36.5 8.8125C36.5 9.546875 36.457031 10.039063 36.40625 10.125C36.378906 10.167969 36.386719 10.183594 36.21875 10.25C36.050781 10.316406 35.695313 10.375 35.15625 10.375C34.074219 10.375 33.121094 10.105469 32.5 9.75C31.878906 9.394531 31.6875 9.042969 31.6875 8.8125C31.6875 8.582031 31.878906 8.230469 32.5 7.875C33.121094 7.519531 34.074219 7.28125 35.15625 7.28125 Z M 28.46875 11C28.414063 11.042969 28.433594 11.046875 28.375 11.09375C27.832031 11.519531 27.105469 11.957031 26.78125 12.03125C26.5 12.097656 26.425781 12.019531 26.34375 11.96875C26.382813 11.9375 26.339844 11.953125 26.4375 11.90625C26.472656 11.890625 27.125 11.589844 27.90625 11.25C28.074219 11.175781 28.285156 11.078125 28.46875 11 Z M 31.1875 11.28125C31.292969 11.351563 31.390625 11.4375 31.5 11.5C31.804688 11.671875 32.152344 11.8125 32.5 11.9375C34.273438 17.910156 37.867188 22.402344 39.15625 24.5C39.160156 24.507813 39.152344 24.523438 39.15625 24.53125C39.261719 24.707031 39.359375 24.886719 39.4375 25.0625C35.042969 25.507813 31.378906 28.945313 31.03125 33.3125C28.84375 33.75 26.238281 34 23.15625 34C20.839844 34 18.414063 33.882813 16.0625 33.6875C15.960938 33.660156 15.855469 33.648438 15.75 33.65625C13.15625 33.429688 10.671875 33.109375 8.53125 32.625C6.453125 32.152344 4.699219 31.515625 3.5625 30.84375C2.425781 30.171875 2 29.582031 2 29C2 25.917969 3.277344 23.515625 3.8125 22.625C5.46875 22.882813 7.558594 23 9.90625 23C12.425781 23 14.726563 22.859375 16.46875 22.5625C16.804688 22.503906 17.109375 22.445313 17.40625 22.375C17.742188 22.535156 17.925781 23.011719 17.96875 23.125C17.511719 24.832031 17.265625 26.246094 17.34375 27.34375C17.429688 28.546875 17.890625 29.539063 18.65625 30.125C20.183594 31.300781 22.160156 31 24 31C27.042969 31 29.296875 30.019531 30.75 28.40625C32.203125 26.792969 32.824219 24.667969 33 22.46875C33.328125 18.398438 32.191406 13.996094 31.1875 11.28125 Z M 2.78125 19L17.21875 19C17.246094 19 17.453125 19.078125 17.65625 19.375C17.804688 19.589844 17.855469 19.851563 17.90625 20.09375C17.886719 20.105469 17.898438 20.113281 17.875 20.125C17.542969 20.269531 16.9375 20.460938 16.15625 20.59375C14.59375 20.859375 12.34375 21 9.90625 21C7.472656 21 5.296875 20.859375 3.78125 20.59375C3.023438 20.460938 2.40625 20.296875 2.09375 20.15625C2.140625 19.90625 2.183594 19.605469 2.34375 19.375C2.546875 19.078125 2.753906 19 2.78125 19 Z M 40.40625 27.03125C43.089844 27.03125 45.035156 27.707031 46.28125 28.53125C47.527344 29.355469 48 30.363281 48 30.71875C48 30.890625 47.972656 30.921875 47.96875 30.9375C47.863281 30.964844 47.386719 30.988281 46.65625 30.96875C45.121094 30.925781 42.632813 30.875 39.59375 32.125C36.90625 33.230469 35.652344 34.355469 34.9375 35.15625C34.582031 35.558594 34.351563 35.847656 34.25 35.9375C34.148438 36.027344 34.230469 36 34 36C33.703125 36 33.550781 35.960938 33.40625 35.8125C33.261719 35.664063 33 35.226563 33 34C33 30.160156 36.402344 27.03125 40.40625 27.03125 Z M 45.34375 32.96875C45.566406 32.964844 45.761719 32.964844 45.96875 32.96875C46.613281 33.8125 47 34.855469 47 36C47 38.773438 44.773438 41 42 41C39.226563 41 37 38.773438 37 36C37 35.96875 37 35.9375 37 35.90625C37.277344 35.660156 37.664063 35.378906 38.125 35.09375C38.058594 35.382813 38 35.691406 38 36C38 38.199219 39.800781 40 42 40C44.199219 40 46 38.199219 46 36C46 34.800781 45.441406 33.734375 44.59375 33C44.84375 32.984375 45.109375 32.972656 45.34375 32.96875 Z M 5.46875 33.84375C5.785156 33.945313 6.101563 34.0625 6.4375 34.15625C6.148438 34.710938 6 35.332031 6 36C6 38.195313 7.804688 40 10 40C12.195313 40 14 38.195313 14 36C14 35.84375 13.957031 35.6875 13.9375 35.53125C14.28125 35.570313 14.621094 35.589844 14.96875 35.625C14.976563 35.75 15 35.871094 15 36C15 38.773438 12.773438 41 10 41C7.226563 41 5 38.773438 5 36C5 35.222656 5.160156 34.5 5.46875 33.84375 Z M 42 34C43.117188 34 44 34.882813 44 36C44 37.117188 43.117188 38 42 38C40.882813 38 40 37.117188 40 36C40 35.78125 40.03125 35.570313 40.09375 35.375C40.484375 35.835938 40.890625 36.269531 41.28125 36.6875C41.515625 36.988281 41.902344 37.132813 42.277344 37.054688C42.648438 36.976563 42.949219 36.691406 43.042969 36.320313C43.136719 35.953125 43.011719 35.558594 42.71875 35.3125C42.347656 34.917969 41.96875 34.472656 41.59375 34.03125C41.726563 34.003906 41.859375 34 42 34 Z M 8.4375 34.625C8.839844 34.710938 9.234375 34.796875 9.65625 34.875C9.527344 35.019531 9.410156 35.175781 9.28125 35.3125C8.988281 35.558594 8.863281 35.953125 8.957031 36.320313C9.050781 36.691406 9.351563 36.976563 9.722656 37.054688C10.097656 37.132813 10.484375 36.988281 10.71875 36.6875C11.117188 36.261719 11.515625 35.789063 11.90625 35.3125C11.914063 35.410156 11.933594 35.503906 11.96875 35.59375C11.996094 35.714844 12 35.855469 12 36C12 37.113281 11.113281 38 10 38C8.886719 38 8 37.113281 8 36C8 35.59375 8.109375 35.21875 8.3125 34.90625C8.367188 34.820313 8.410156 34.726563 8.4375 34.625Z"/></svg>