<svg xmlns="http://www.w3.org/2000/svg" xmlns:xlink="http://www.w3.org/1999/xlink" viewBox="0 0 30 30"><path d="M20.5 3C19.848122 3 19.298487 3.4187503 19.091797 4L16 4 A 1.0001 1.0001 0 1 0 16 6L19.433594 6C20.019771 7.3916739 21 9.9922761 21 12C21 16 18 18 16 18L14 18C12.895 18 12 17.105 12 16L12 14L4 14C4 14 1 15 1 18C1.3594395 18.117725 2.3069604 18.523655 3.3886719 19C2.5462008 19.735161 2 20.802871 2 22C2 24.197294 3.8027056 26 6 26C8.1972944 26 10 24.197294 10 22C10 21.982602 9.994366 21.966567 9.9941406 21.949219C10.139486 21.982409 10.288194 22 10.439453 22L17.757812 22C18.553812 22 19.316906 21.684094 19.878906 21.121094L20 21L20.144531 21C20.060164 21.321767 20 21.653007 20 22C20 24.197294 21.802706 26 24 26C26.197294 26 28 24.197294 28 22C28 21.517183 27.899373 21.058681 27.740234 20.628906L29 20C29 20 27.611132 17.153726 24.732422 16.267578L25 16C24.94075 12.294827 22.82577 7.931471 21.673828 6L23 6L23 3L20.5 3 z M 4 10 A 1.0001 1.0001 0 1 0 4 12L12 12 A 1.0001 1.0001 0 1 0 12 10L4 10 z M 5.6933594 20.03125C6.5026154 20.397632 7.0256163 20.636499 7.6992188 20.945312C7.8875654 21.250986 8 21.609513 8 22C8 23.116414 7.1164141 24 6 24C4.8835859 24 4 23.116414 4 22C4 20.988931 4.7273307 20.177018 5.6933594 20.03125 z M 22.271484 21L25.728516 21C25.897235 21.294108 26 21.631981 26 22C26 23.116414 25.116414 24 24 24C22.883586 24 22 23.116414 22 22C22 21.631981 22.102765 21.294108 22.271484 21 z"/></svg>