<?xml version="1.0" encoding="utf-8"?><svg version="1.1" id="Layer_1" xmlns="http://www.w3.org/2000/svg" xmlns:xlink="http://www.w3.org/1999/xlink" x="0px" y="0px" viewBox="0 0 122.88 85.49" style="enable-background:new 0 0 122.88 85.49" xml:space="preserve"><style type="text/css">.st0{fill-rule:evenodd;clip-rule:evenodd;}</style><g><path class="st0" d="M28.93,12.97l4.77,0.09L23.15,47.82c1.45,0.36,2.83,0.79,4.12,1.29c-1.27-0.48-2.62-0.9-4.04-1.26 C13.99,45.76,6.34,48.79,0,56l7.9,3.72l33.54,15.82c0.27-2.05,0.38-3.99,0.34-5.8c0.01,0.26,0.03,0.53,0.03,0.8H80.3 c0.01,8.25,6.71,14.94,14.97,14.94c8.26,0,14.95-6.69,14.97-14.94h12.6c0.88-17.13-11.04-30.3-25.2-31.56h7.63 c1.51,0,2.75-1.24,2.75-2.75v-3.02c0-1.49-1.22-2.71-2.71-2.71H65.48v8.49h0v3.83c7.91,6.22,9.11,17.8,1.89,23.26H49.66 c-0.3-9.32-5.63-16.85-14.47-23.13l5.28-16.26c2.17-5.05,0.74-8.88-2.43-11.57c0.99-3.19,1.7-5.92,1.49-8.14l5.53,1.14 c1.8,0.37,2.26,1.02,2.84-0.72c0.1-0.3,0.18-0.59,0.23-0.89c0.45-2.37,0.17-2.21-1.75-2.59l-5.9-1.14H38.7l-2.17-1.22 c-1.3-0.74-2.63-1.19-4.01-1.36l-1.9-0.12c-1.94,0-4.13-0.54-5.26,1.25c-0.02,0.03-0.03,0.14-0.04,0.3 c-0.79,0.27-1.47,0.86-1.99,1.68c-0.63,0.99-1.02,2.33-1.02,3.8c0,1.46,0.39,2.81,1.02,3.8c0.7,1.11,1.72,1.8,2.88,1.84 C26.88,13.22,27.95,12.95,28.93,12.97L28.93,12.97z M7.93,59.74l13.34,6.32l-4.33-1.99c-2.98,0.63-5.21,3.28-5.21,6.45 c0,3.64,2.95,6.59,6.59,6.59c3.64,0,6.59-2.95,6.59-6.59c0-1.12-0.28-2.18-0.78-3.11l9.1,4.31c-0.61,7.7-7.06,13.76-14.92,13.76 c-8.27,0-14.97-6.7-14.97-14.97C3.35,66.29,5.11,62.47,7.93,59.74L7.93,59.74z M25.35,4.21c0.06,1.93,0.19,4.4,0.28,6.07 c-0.16-0.14-0.32-0.32-0.46-0.55c-0.42-0.66-0.68-1.59-0.68-2.63c0-1.05,0.26-1.97,0.68-2.63C25.23,4.38,25.29,4.29,25.35,4.21 L25.35,4.21z M88.68,70.55h13.18c-0.01,3.63-2.96,6.57-6.59,6.57C91.64,77.11,88.69,74.17,88.68,70.55L88.68,70.55z"/></g></svg>