<svg xmlns="http://www.w3.org/2000/svg" xmlns:xlink="http://www.w3.org/1999/xlink" viewBox="0 0 50 50"><path d="M17.84375 2C17.789063 2.015625 17.738281 2.039063 17.6875 2.0625L14.6875 3.0625C14.296875 3.128906 13.984375 3.417969 13.886719 3.796875C13.789063 4.179688 13.921875 4.582031 14.230469 4.828125C14.539063 5.074219 14.960938 5.117188 15.3125 4.9375L18.03125 4.03125L24 4.875L24 18L23 18C22.398438 18 22 18.398438 22 19L22 41L18 41L18 35C18 31.675781 15.324219 29 12 29C11.96875 29 11.9375 29 11.90625 29C11.355469 29.027344 10.925781 29.496094 10.953125 30.046875C10.980469 30.597656 11.449219 31.027344 12 31C14.277344 31 16 32.722656 16 35L16 41.6875C15.914063 41.972656 15.960938 42.28125 16.125 42.53125C16.136719 42.542969 16.144531 42.550781 16.15625 42.5625C16.164063 42.582031 16.175781 42.605469 16.1875 42.625C16.199219 42.636719 16.207031 42.644531 16.21875 42.65625C16.230469 42.667969 16.238281 42.675781 16.25 42.6875C16.261719 42.699219 16.269531 42.707031 16.28125 42.71875C16.320313 42.765625 16.359375 42.804688 16.40625 42.84375C16.417969 42.84375 16.425781 42.84375 16.4375 42.84375C16.449219 42.855469 16.457031 42.863281 16.46875 42.875C16.488281 42.886719 16.511719 42.898438 16.53125 42.90625C16.542969 42.917969 16.550781 42.925781 16.5625 42.9375C16.582031 42.9375 16.605469 42.9375 16.625 42.9375C16.636719 42.949219 16.644531 42.957031 16.65625 42.96875C16.675781 42.96875 16.699219 42.96875 16.71875 42.96875C16.730469 42.96875 16.738281 42.96875 16.75 42.96875C16.769531 42.980469 16.792969 42.992188 16.8125 43C16.824219 43 16.832031 43 16.84375 43C16.863281 43 16.886719 43 16.90625 43C16.925781 43 16.949219 43 16.96875 43C17.019531 43.003906 17.074219 43.003906 17.125 43L33 43C33.03125 43 33.0625 43 33.09375 43C33.105469 43 33.113281 43 33.125 43C33.179688 42.992188 33.230469 42.984375 33.28125 42.96875C33.382813 42.941406 33.476563 42.898438 33.5625 42.84375C33.816406 42.671875 33.976563 42.398438 34 42.09375C34 42.082031 34 42.074219 34 42.0625C34 42.042969 34 42.019531 34 42C34.007813 41.925781 34.007813 41.855469 34 41.78125L34 35C34 32.722656 35.722656 31 38 31C38.359375 31.003906 38.695313 30.816406 38.878906 30.503906C39.058594 30.191406 39.058594 29.808594 38.878906 29.496094C38.695313 29.183594 38.359375 28.996094 38 29C34.675781 29 32 31.675781 32 35L32 41L28 41L28 19C28 18.398438 27.601563 18 27 18L26 18L26 4.875L31.96875 4.03125L34.6875 4.9375C35.039063 5.117188 35.460938 5.074219 35.769531 4.828125C36.078125 4.582031 36.210938 4.179688 36.113281 3.796875C36.015625 3.417969 35.703125 3.128906 35.3125 3.0625L32.3125 2.0625C32.164063 2.003906 32.003906 1.984375 31.84375 2L25.09375 2.96875C25.0625 2.96875 25.03125 2.96875 25 2.96875L18.15625 2C18.050781 1.984375 17.949219 1.984375 17.84375 2 Z M 12 32C10.300781 32 9 33.300781 9 35L9 45C9 46.699219 10.300781 48 12 48C13.699219 48 15 46.699219 15 45L15 35C15 33.300781 13.699219 32 12 32 Z M 38 32C36.300781 32 35 33.300781 35 35L35 45C35 46.699219 36.300781 48 38 48C39.699219 48 41 46.699219 41 45L41 35C41 33.300781 39.699219 32 38 32Z"/></svg>