<svg xmlns="http://www.w3.org/2000/svg" xmlns:xlink="http://www.w3.org/1999/xlink" viewBox="0 0 50 50"><path d="M8.1875 0C6.433594 0 5 1.433594 5 3.1875L5 12L7 12L7 3.1875C7 2.542969 7.542969 2 8.1875 2L41.6875 2C42.476563 2 43 2.542969 43 3.1875L43 12L45 12L45 3.1875C45 1.433594 43.5 0 41.6875 0 Z M 24 9.1875C19.890625 9.1875 16.792969 9.554688 14.625 10.15625C13.539063 10.457031 12.695313 10.804688 12.03125 11.28125C11.394531 11.738281 10.925781 12.394531 10.84375 13.15625L10.8125 13.15625L10.8125 13.25L9.125 26L8.1875 26C7.78125 26 7.382813 26.035156 7 26.125L7 24L5 24L5 27.125C3.796875 28.0625 3 29.503906 3 31.1875L3 40C3 40.03125 3 40.0625 3 40.09375L3 44.8125C2.996094 44.855469 2.996094 44.894531 3 44.9375L3 47C3 48.644531 4.355469 50 6 50L10 50C11.644531 50 13 48.644531 13 47L13 45L37 45L37 47C37 48.644531 38.355469 50 40 50L44 50C45.644531 50 47 48.644531 47 47L47 45C47 44.96875 47 44.9375 47 44.90625L47 40.15625C47.003906 40.105469 47.003906 40.050781 47 40L47 31.1875C47 29.503906 46.203125 28.0625 45 27.125L45 24L43 24L43 26.125C42.617188 26.035156 42.21875 26 41.8125 26L40.875 26L39.1875 13.25L39.1875 13.15625L39.15625 13.15625C39.050781 12.21875 38.335938 11.640625 37.53125 11.21875C36.699219 10.78125 35.628906 10.417969 34.3125 10.125C31.679688 9.539063 28.109375 9.1875 24 9.1875 Z M 24 11.1875C27.992188 11.1875 31.457031 11.554688 33.875 12.09375C35.085938 12.363281 36.050781 12.667969 36.625 12.96875C37.054688 13.195313 37.164063 13.394531 37.1875 13.40625C37.199219 13.417969 37.207031 13.425781 37.21875 13.4375L38.21875 21.125C36.976563 21.347656 32.78125 22 25 22C17.21875 22 13.023438 21.347656 11.78125 21.125L12.78125 13.4375C12.792969 13.40625 12.804688 13.375 12.8125 13.34375C12.816406 13.300781 12.820313 13.171875 13.1875 12.90625C13.554688 12.640625 14.214844 12.324219 15.15625 12.0625C17.035156 11.539063 20.007813 11.1875 24 11.1875 Z M 4.1875 12.90625C3.527344 12.90625 2.988281 13.199219 2.59375 13.59375C2.199219 13.988281 1.90625 14.527344 1.90625 15.1875L1.90625 20.6875C1.90625 22.007813 2.863281 23.09375 4.1875 23.09375L5.6875 23.09375C7.007813 23.09375 8.09375 22.136719 8.09375 20.8125L8.09375 15.3125C8.09375 13.992188 7.136719 12.90625 5.8125 12.90625 Z M 44.3125 13.03125C43.109375 13.03125 42.03125 13.992188 42.03125 15.3125L42.03125 20.8125C42.03125 22.015625 42.992188 23.09375 44.3125 23.09375L45.8125 23.09375C46.472656 23.09375 47.011719 22.800781 47.40625 22.40625C47.800781 22.011719 48.09375 21.472656 48.09375 20.8125L48.09375 15.3125C48.09375 14.109375 47.132813 13.03125 45.8125 13.03125 Z M 4.1875 15.09375C4.21875 15.09375 4.226563 15.085938 4.21875 15.09375L5.8125 15.09375C5.691406 15.09375 5.90625 15.230469 5.90625 15.3125L5.90625 20.8125C5.90625 20.691406 5.769531 20.90625 5.6875 20.90625L4.1875 20.90625C4.308594 20.90625 4.09375 20.769531 4.09375 20.6875L4.09375 15.21875C4.085938 15.226563 4.09375 15.21875 4.09375 15.1875C4.101563 15.175781 4.136719 15.175781 4.15625 15.15625C4.175781 15.136719 4.175781 15.101563 4.1875 15.09375 Z M 44.3125 15.1875L45.8125 15.1875C45.894531 15.1875 45.90625 15.3125 45.90625 15.3125L45.90625 20.78125C45.898438 20.789063 45.871094 20.816406 45.84375 20.84375C45.816406 20.871094 45.789063 20.898438 45.78125 20.90625L44.3125 20.90625C44.230469 20.90625 44.1875 20.8125 44.1875 20.8125L44.1875 15.3125C44.1875 15.230469 44.3125 15.1875 44.3125 15.1875 Z M 11.53125 23.09375C13.125 23.367188 17.554688 24 25 24C32.445313 24 36.875 23.367188 38.46875 23.09375L39 27.125C39.0625 27.628906 39.492188 28.003906 40 28L41.8125 28C43.589844 28 45 29.316406 45 31.1875L45 38L5 38L5 31.1875C5 29.316406 6.410156 28 8.1875 28L10 28C10.507813 28.003906 10.9375 27.628906 11 27.125 Z M 19.59375 26.03125C18.191406 26.03125 17.03125 27.191406 17.03125 28.59375L17.03125 33.40625C17.03125 34.808594 18.191406 35.96875 19.59375 35.96875L30.40625 35.96875C31.808594 35.96875 32.96875 34.808594 32.96875 33.40625L32.96875 28.59375C32.96875 27.191406 31.808594 26.03125 30.40625 26.03125 Z M 19.59375 27.96875L30.40625 27.96875C30.804688 27.96875 31.03125 28.195313 31.03125 28.59375L31.03125 33.40625C31.03125 33.804688 30.804688 34.03125 30.40625 34.03125L19.59375 34.03125C19.195313 34.03125 18.96875 33.804688 18.96875 33.40625L18.96875 28.59375C18.96875 28.195313 19.195313 27.96875 19.59375 27.96875 Z M 8.6875 30C7.789063 30 7 30.789063 7 31.6875L7 34.3125C7 35.210938 7.789063 36 8.6875 36L13.3125 36C14.210938 36 15 35.210938 15 34.3125L15 31.6875C15 30.789063 14.210938 30 13.3125 30 Z M 36.6875 30C35.789063 30 35 30.789063 35 31.6875L35 34.3125C35 35.210938 35.789063 36 36.6875 36L41.3125 36C42.210938 36 43 35.210938 43 34.3125L43 31.6875C43 30.789063 42.210938 30 41.3125 30 Z M 9 32L13 32L13 34L9 34 Z M 37 32L41 32L41 34L37 34 Z M 5 40L45 40C45 40.03125 45 40.0625 45 40.09375L45 43L5 43L5 40.15625C5.003906 40.105469 5.003906 40.050781 5 40 Z M 5 45L11 45L11 47C11 47.554688 10.554688 48 10 48L6 48C5.445313 48 5 47.554688 5 47 Z M 39 45L45 45L45 47C45 47.554688 44.554688 48 44 48L40 48C39.445313 48 39 47.554688 39 47Z"/></svg>