<?xml version="1.0" encoding="utf-8"?><svg version="1.1" id="Layer_1" xmlns="http://www.w3.org/2000/svg" xmlns:xlink="http://www.w3.org/1999/xlink" x="0px" y="0px" viewBox="0 0 122.88 112.63" style="enable-background:new 0 0 122.88 112.63" xml:space="preserve"><g><path d="M35.58,24.13h3.6v-3.28v0h0.02c0-1.21,0.49-2.31,1.28-3.1l-0.01-0.01c0.78-0.78,1.87-1.27,3.09-1.27h0.01v-0.02h0h6.74 V5.84v0h0.02c0-1.61,0.66-3.07,1.71-4.12c1.05-1.05,2.5-1.69,4.1-1.7V0h0h10.2l0,0v0.02c1.61,0,3.07,0.66,4.12,1.71 c1.04,1.05,1.69,2.5,1.7,4.1h0.01v0v10.63h6.74h0v0.02c1.21,0,2.31,0.49,3.1,1.29c0.78,0.78,1.27,1.87,1.27,3.07v0.01h0.01v0v3.28 h3.6v-0.02l0,0v0.02c1.31,0,2.49,0.53,3.35,1.38l0.01-0.01c0.85,0.85,1.37,2.03,1.38,3.35h0.02v0v18.88v0h-0.02 c0,0.46-0.07,0.91-0.19,1.34l13.62,6.62L91.17,69.84v14.12c2.13-1.07,3.81-2.66,5.39-4.16c3.19-3.02,6.1-5.78,11.13-5.84 c5.66-0.06,7.49,2.86,11.39,5.86c0.63,0.49,1.28,0.99,2.15,1.62l0.1,0.07c1.67,1.21,2.05,3.55,0.83,5.22 c-1.21,1.68-3.55,2.05-5.23,0.84l-0.1-0.07c-0.65-0.47-1.49-1.12-2.32-1.76c-2.86-2.21-3.68-4.34-6.77-4.31 c-2.06,0.02-3.96,1.82-6.03,3.79c-3.91,3.71-8.26,7.83-16.81,7.44c-7.23,0.33-11.45-2.57-14.95-5.72H51.79 c-3.66,2.75-7.64,5.25-13.43,5.18c-6.62,0.08-10.88-3.2-15-6.38c-2.86-2.21-5.63-4.34-8.72-4.31c-2.06,0.02-3.96,1.82-6.03,3.79 c-0.77,0.73-1.56,1.48-2.44,2.23C4.6,88.8,2.24,88.61,0.9,87.04c-1.34-1.57-1.16-3.93,0.41-5.27c0.72-0.62,1.44-1.3,2.15-1.97 c3.19-3.02,6.1-5.78,11.13-5.84c5.66-0.06,9.44,2.86,13.34,5.86c1.76,1.36,3.55,2.73,5.5,3.67V69.38L21.6,55.46l9.9-5.32 c-0.41-0.7-0.65-1.52-0.65-2.39h-0.01v0V28.86l0,0h0.01c0-1.32,0.53-2.51,1.38-3.36c0.15-0.15,0.31-0.28,0.47-0.4 C33.49,24.5,34.49,24.14,35.58,24.13l0-0.02h0V24.13L35.58,24.13z M38.36,104.59h0.04c4.05,0.06,7.27-2.42,10.39-4.83 c3.9-3.01,7.68-5.93,13.34-5.86c5.03,0.05,7.94,2.81,11.13,5.84c2.83,2.69,5.98,5.67,11.46,5.39c0.07,0,0.13,0,0.2,0 c0.07,0,0.13,0,0.2,0c5.47,0.29,8.62-2.7,11.46-5.39c3.19-3.02,6.1-5.78,11.13-5.84c5.66-0.06,7.49,2.85,11.39,5.86 c0.63,0.49,1.28,0.99,2.15,1.62l0,0l0.09,0.07c1.67,1.2,2.05,3.54,0.85,5.21c-1.21,1.67-3.54,2.05-5.21,0.85l-0.1-0.07l-0.01-0.01 l-0.01,0.01c-0.65-0.47-1.49-1.12-2.32-1.76c-2.86-2.21-3.68-4.34-6.77-4.31c-2.06,0.02-3.96,1.82-6.03,3.79 c-3.91,3.71-8.26,7.83-16.81,7.44c-8.54,0.39-12.89-3.73-16.81-7.44c-2.08-1.97-3.97-3.76-6.03-3.79 c-3.08-0.03-5.86,2.11-8.72,4.31c-4.12,3.18-8.38,6.46-15,6.38c-6.62,0.08-10.88-3.2-15-6.38c-2.86-2.21-5.63-4.34-8.72-4.31 c-2.06,0.02-3.96,1.82-6.03,3.79c-0.77,0.73-1.56,1.48-2.44,2.23c-1.57,1.34-3.93,1.16-5.27-0.41c-1.34-1.57-1.16-3.93,0.41-5.27 c0.72-0.62,1.44-1.3,2.15-1.97c3.19-3.02,6.1-5.78,11.13-5.84c5.66-0.06,9.44,2.85,13.34,5.86c3.12,2.4,6.34,4.89,10.39,4.83H38.36 L38.36,104.59z M41.08,44.99L61,34.28l22.05,10.71h1.12V31.6h-4.27c-0.11,0.01-0.22,0.01-0.34,0.01c-2.07,0-3.75-1.68-3.75-3.75 v-3.9h-7.38c-2.07,0-3.75-1.68-3.75-3.75V7.5h-6.88v12.72c0,2.07-1.68,3.75-3.75,3.75h-7.38v3.9h-0.01c0,2.06-1.67,3.73-3.73,3.73 h-4.6v13.39H41.08L41.08,44.99z"/></g></svg>