<?xml version="1.0" encoding="utf-8"?><svg version="1.1" id="Layer_1" xmlns="http://www.w3.org/2000/svg" xmlns:xlink="http://www.w3.org/1999/xlink" x="0px" y="0px" viewBox="0 0 122.88 68.39" style="enable-background:new 0 0 122.88 68.39" xml:space="preserve"><g><path d="M11.14,66.21L0.02,39.85c-0.05-0.13,0.01-0.28,0.14-0.33c0.03-0.01,0.07-0.02,0.1-0.02l22.75,0l4.18-19.99 c0.02-0.12,0.13-0.2,0.25-0.2l7.02,0V0.25C34.44,0.11,34.56,0,34.7,0h3.49c0.14,0,0.26,0.11,0.26,0.25V19.3h4.23V8.73 c0-0.14,0.11-0.25,0.26-0.25h3.49c0.14,0,0.25,0.11,0.25,0.25V19.3h26.05l0.16,0.01c2.15,0.18,4.16,0.61,6,1.35 c1.85,0.74,3.53,1.78,5.03,3.17c1.47,1.36,2.74,3.04,3.79,5.08c1.04,2.03,1.86,4.42,2.43,7.2l0.04,0.37l0,0.03l0,2.99h32.44 c0.14,0,0.26,0.11,0.26,0.26c0,0.07-0.03,0.14-0.08,0.19l-12.11,12.92c-0.92,0.98-1.56,1.69-2.18,2.37l-0.01,0.01 c-1.82,2-3.48,3.85-5.4,5.5c-1.93,1.66-4.11,3.13-6.93,4.38c-0.6,0.27-1.21,0.51-1.83,0.74c-0.62,0.23-1.24,0.44-1.89,0.63 c-0.63,0.19-1.28,0.36-1.94,0.51c-0.65,0.15-1.32,0.28-2.01,0.4c-19.74,2.21-55.22,0.03-76.68,0.03c-0.11,0-0.21-0.07-0.24-0.18 L11.14,66.21L11.14,66.21z M66.49,27.53h15.5l-0.19-0.21c-0.19-0.2-0.38-0.39-0.58-0.57c-1.13-1.04-2.42-1.83-3.85-2.4 c-1.43-0.57-3.02-0.91-4.72-1.05H30.46l-3.38,16.2h59.11v-2.81c-0.04-0.2-0.09-0.41-0.14-0.61l-0.1-0.43H66.49 c-0.14,0-0.25-0.11-0.25-0.26v-7.61C66.24,27.64,66.35,27.53,66.49,27.53L66.49,27.53z M50.54,27.53h7.87 c0.14,0,0.25,0.11,0.25,0.26v7.79c0,0.14-0.11,0.26-0.25,0.26h-7.87c-0.14,0-0.26-0.11-0.26-0.26v-7.79 C50.28,27.64,50.4,27.53,50.54,27.53L50.54,27.53z M5.88,43.5l8.41,19.94h73.76c0.55-0.09,1.09-0.2,1.63-0.33 c0.55-0.13,1.1-0.27,1.64-0.43c0.55-0.16,1.1-0.35,1.64-0.55c0.54-0.2,1.08-0.42,1.6-0.65c2.44-1.08,4.35-2.39,6.07-3.88 c1.73-1.5,3.26-3.19,4.92-5.03l1.16-1.28c0.38-0.41,0.74-0.81,1.07-1.16L114,43.5H5.88L5.88,43.5z"/></g></svg>