<svg xmlns="http://www.w3.org/2000/svg" xmlns:xlink="http://www.w3.org/1999/xlink" viewBox="0 0 50 50"><path d="M5.875 15.90625C2.652344 16.027344 0 18.648438 0 21.8125L0 42.1875C0 43.722656 1.277344 45 2.8125 45L5.09375 45C5.570313 47.835938 8.035156 50 11 50C13.964844 50 16.429688 47.835938 16.90625 45L33.09375 45C33.570313 47.835938 36.035156 50 39 50C41.964844 50 44.429688 47.835938 44.90625 45L45.3125 45C46.242188 45 47.320313 44.761719 48.28125 44.09375C49.242188 43.425781 50 42.230469 50 40.6875L50 32.8125C50 31.765625 49.765625 30.671875 49.4375 29.6875L49.4375 29.65625C49.4375 29.65625 47.734375 24.949219 46.21875 21.3125C45.421875 19.34375 44.40625 17.9375 42.96875 17.0625C41.53125 16.1875 39.777344 15.90625 37.6875 15.90625 Z M 5.90625 17.90625L37.6875 17.90625C39.597656 17.90625 40.917969 18.179688 41.90625 18.78125C42.402344 19.082031 42.84375 19.472656 43.25 20L38.3125 20C36.5 20 35 21.5 35 23.3125L35 27.6875C35 29.5 36.5 31 38.3125 31L47.71875 31C47.875 31.625 48 32.265625 48 32.8125L48 40.6875C48 41.644531 47.671875 42.109375 47.15625 42.46875C46.640625 42.828125 45.882813 43 45.3125 43L44.90625 43C44.429688 40.164063 41.964844 38 39 38C36.035156 38 33.570313 40.164063 33.09375 43L16.90625 43C16.429688 40.164063 13.964844 38 11 38C8.035156 38 5.570313 40.164063 5.09375 43L2.8125 43C2.347656 43 2 42.652344 2 42.1875L2 21.8125C2 19.785156 3.742188 18.003906 5.90625 17.90625 Z M 7.3125 20C5.5 20 4 21.5 4 23.3125L4 27.6875C4 29.5 5.5 31 7.3125 31L13.6875 31C15.5 31 17 29.5 17 27.6875L17 23.3125C17 21.5 15.5 20 13.6875 20 Z M 22.3125 20C20.5 20 19 21.5 19 23.3125L19 27.6875C19 29.5 20.5 31 22.3125 31L29.6875 31C31.5 31 33 29.5 33 27.6875L33 23.3125C33 21.5 31.5 20 29.6875 20 Z M 7.3125 22L13.6875 22C14.476563 22 15 22.523438 15 23.3125L15 27.6875C15 28.476563 14.476563 29 13.6875 29L7.3125 29C6.523438 29 6 28.476563 6 27.6875L6 23.3125C6 22.523438 6.523438 22 7.3125 22 Z M 22.3125 22L29.6875 22C30.476563 22 31 22.523438 31 23.3125L31 27.6875C31 28.476563 30.476563 29 29.6875 29L22.3125 29C21.523438 29 21 28.476563 21 27.6875L21 23.3125C21 22.523438 21.523438 22 22.3125 22 Z M 38.3125 22L44.34375 22C44.351563 22.023438 44.367188 22.039063 44.375 22.0625L44.375 22.09375C45.503906 24.804688 46.527344 27.554688 47.0625 29L38.3125 29C37.523438 29 37 28.476563 37 27.6875L37 23.3125C37 22.523438 37.523438 22 38.3125 22 Z M 11 40C13.175781 40 14.902344 41.714844 14.96875 43.875C14.949219 43.988281 14.949219 44.105469 14.96875 44.21875C14.855469 46.335938 13.144531 48 11 48C8.8125 48 7.050781 46.269531 7 44.09375C7.007813 44.019531 7.007813 43.949219 7 43.875C7.066406 41.714844 8.820313 40 11 40 Z M 39 40C41.222656 40 43 41.777344 43 44C42.996094 44.042969 42.996094 44.082031 43 44.125C42.933594 46.285156 41.179688 48 39 48C36.8125 48 35.050781 46.269531 35 44.09375C35.007813 44.019531 35.007813 43.949219 35 43.875C35.066406 41.714844 36.820313 40 39 40Z"/></svg>