<svg xmlns="http://www.w3.org/2000/svg" xmlns:xlink="http://www.w3.org/1999/xlink" viewBox="0 0 50 50"><path d="M5.875 15.90625C2.640625 16.027344 0 18.679688 0 21.8125L0 42.1875C0 43.730469 1.269531 45 2.8125 45L5.09375 45C5.574219 47.832031 8.03125 50 11 50C13.96875 50 16.425781 47.832031 16.90625 45L33.09375 45C33.574219 47.832031 36.03125 50 39 50C41.96875 50 44.429688 47.832031 44.90625 45L45.3125 45C47.578125 45 50 43.640625 50 40.6875L50 32.8125C50 31.871094 49.800781 30.75 49.4375 29.65625C49.417969 29.609375 47.707031 24.882813 46.21875 21.3125C44.617188 17.359375 42.300781 15.90625 37.6875 15.90625 Z M 7.3125 21L13.6875 21C14.988281 21 16 22.011719 16 23.3125L16 27.6875C16 28.988281 14.988281 30 13.6875 30L7.3125 30C6.011719 30 5 28.988281 5 27.6875L5 23.3125C5 22.011719 6.011719 21 7.3125 21 Z M 22.3125 21L29.6875 21C30.988281 21 32 22.011719 32 23.3125L32 27.6875C32 28.988281 30.988281 30 29.6875 30L22.3125 30C21.011719 30 20 28.988281 20 27.6875L20 23.3125C20 22.011719 21.011719 21 22.3125 21 Z M 38.3125 21L43.875 21C44.050781 21.328125 44.214844 21.699219 44.375 22.09375C45.628906 25.097656 47.035156 28.90625 47.4375 30L38.3125 30C37.011719 30 36 28.988281 36 27.6875L36 23.3125C36 22.011719 37.011719 21 38.3125 21 Z M 11 40C13.207031 40 15 41.792969 15 44C15 44.347656 14.925781 44.679688 14.84375 45C14.398438 46.722656 12.859375 48 11 48C9.140625 48 7.601563 46.722656 7.15625 45C7.074219 44.679688 7 44.347656 7 44C7 41.792969 8.792969 40 11 40 Z M 39 40C41.207031 40 43 41.792969 43 44C43 44.347656 42.925781 44.679688 42.84375 45C42.398438 46.722656 40.859375 48 39 48C37.140625 48 35.601563 46.722656 35.15625 45C35.074219 44.679688 35 44.347656 35 44C35 41.792969 36.792969 40 39 40Z"/></svg>