<svg xmlns="http://www.w3.org/2000/svg" xmlns:xlink="http://www.w3.org/1999/xlink" viewBox="0 0 24 24"><path d="M13 3L13 5L14.464844 5L15.328125 6.2949219C14.371011 6.6292308 13.56206 7.1935612 12.888672 7.703125C12.37122 8.0946892 11.919233 8.4634782 11.566406 8.703125C11.21358 8.9427718 10.97079 9 11 9C10.559772 9 9.6292919 8.6116289 8.90625 8.1542969C8.1832081 7.6969649 7.6523438 7.2421875 7.6523438 7.2421875 A 1.0001 1.0001 0 0 0 7 7L2 7 A 1.0001 1.0001 0 0 0 1 8L1 11.466797 A 1.0001 1.0001 0 0 0 1.7382812 12.431641L4.4570312 13.169922L1.3867188 15.552734 A 1.0001 1.0001 0 0 0 1 16.34375L1 17.171875C1 18.065101 1.6278673 19 2.6679688 19L7 19C7 19 8.2052743 19.0034 9.53125 18.414062C10.703427 17.893096 12.038012 16.830651 12.730469 15L17 15L17 17L15 17L15 19L20.091797 19C21.712527 19 23 17.620304 23 16L21 16C21 16.587696 20.579067 17 20.091797 17L19 17L19 14.769531L21.423828 13.638672 A 1.0001 1.0001 0 0 0 22 12.732422L22 10.832031 A 1.0001 1.0001 0 0 0 21.691406 10.111328L17.771484 6.3535156L15.832031 3.4453125 A 1.0001 1.0001 0 0 0 15 3L13 3 z M 16.683594 8.0820312L20 11.259766L20 12.095703L18.064453 13L11.462891 13L3 10.703125L3 9L6.6796875 9C6.8826688 9.1674676 7.1710349 9.4239095 7.8378906 9.8457031C8.6958488 10.388371 9.7642275 11 11 11C11.70771 11 12.214123 10.682228 12.689453 10.359375C13.164783 10.036522 13.620077 9.6553108 14.09375 9.296875C14.939056 8.6572187 15.805211 8.1890257 16.683594 8.0820312 z M 6.8710938 13.826172L10.625 14.84375C10.131909 15.789614 9.4148576 16.276556 8.71875 16.585938C7.7947257 16.996614 7 17 7 17L3 17L3 16.832031L6.8710938 13.826172 z"/></svg>