<svg xmlns="http://www.w3.org/2000/svg" xmlns:xlink="http://www.w3.org/1999/xlink" viewBox="0 0 50 50"><path d="M23.8125 5C22.863281 5 22.058594 5.664063 21.875 6.59375L21.375 9L14.46875 9C11.996094 9 9.882813 10.835938 9.53125 13.28125L8.125 23.09375C6.34375 23.496094 5 25.097656 5 27L5 30L10 30L10 28C10 27.449219 10.449219 27 11 27L15 27C15.550781 27 16 27.449219 16 28L16 30L34 30L34 28C34 27.449219 34.449219 27 35 27L39 27C39.550781 27 40 27.449219 40 28L40 30L45 30L45 27C45 25.097656 43.65625 23.496094 41.875 23.09375L40.46875 13.28125C40.117188 10.832031 38.003906 9 35.53125 9L28.625 9L28.15625 6.59375C27.96875 5.664063 27.136719 5 26.1875 5 Z M 14.46875 11L35.53125 11C37.011719 11 38.289063 12.09375 38.5 13.5625L39.40625 20L10.59375 20L11.5 13.5625C11.710938 12.09375 12.984375 11 14.46875 11 Z M 7 14C5.898438 14 5 14.898438 5 16L5 20C5 20.773438 5.449219 21.449219 6.09375 21.78125C6.167969 21.742188 6.238281 21.695313 6.3125 21.65625L7.40625 14 Z M 42.59375 14L43.6875 21.65625C43.761719 21.695313 43.832031 21.742188 43.90625 21.78125C44.550781 21.449219 45 20.773438 45 20L45 16C45 14.898438 44.101563 14 43 14 Z M 2 32C1.710938 32 1.441406 32.125 1.25 32.34375C1.058594 32.5625 0.957031 32.871094 1 33.15625C1.953125 39.769531 0.0820313 43.574219 0.0625 43.625C-0.0585938 43.933594 0 44.289063 0.1875 44.5625C0.375 44.835938 0.667969 45 1 45L49 45C49.328125 45 49.625 44.835938 49.8125 44.5625C50 44.289063 50.054688 43.933594 49.9375 43.625C49.917969 43.578125 48.085938 39.746094 49 33.125C49.039063 32.839844 48.941406 32.5625 48.75 32.34375C48.558594 32.125 48.289063 32 48 32Z"/></svg>