<svg xmlns="http://www.w3.org/2000/svg" xmlns:xlink="http://www.w3.org/1999/xlink" viewBox="0 0 50 50"><path d="M23.8125 5C22.867188 5 22.027344 5.664063 21.84375 6.59375L21.875 6.59375L21.375 9L14.46875 9C11.988281 9 9.882813 10.828125 9.53125 13.28125L9.4375 14L7 14C5.90625 14 5 14.90625 5 16L5 20C5 21.09375 5.90625 22 7 22L8.28125 22L8.09375 23.1875C6.339844 23.609375 5 25.121094 5 27L5 31L2 31C1.96875 31 1.9375 31 1.90625 31C1.628906 31.023438 1.371094 31.160156 1.199219 31.378906C1.027344 31.597656 0.957031 31.882813 1 32.15625C1.972656 38.890625 0.0625 43.625 0.0625 43.625C-0.0625 43.933594 -0.0234375 44.285156 0.164063 44.5625C0.351563 44.839844 0.664063 45.003906 1 45L49 45C49.335938 45.003906 49.648438 44.839844 49.835938 44.5625C50.023438 44.285156 50.0625 43.933594 49.9375 43.625C49.9375 43.625 48.066406 38.867188 49 32.125C49.035156 31.839844 48.945313 31.550781 48.753906 31.335938C48.5625 31.121094 48.289063 30.996094 48 31L45 31L45 27C45 25.121094 43.660156 23.609375 41.90625 23.1875L41.71875 22L43 22C44.09375 22 45 21.09375 45 20L45 16C45 14.90625 44.09375 14 43 14L40.5625 14L40.46875 13.28125C40.117188 10.824219 38.011719 9 35.53125 9L28.625 9L28.15625 6.59375C27.96875 5.664063 27.132813 5 26.1875 5 Z M 23.8125 7L26.1875 7L26.59375 9L23.40625 9 Z M 14.46875 11L35.53125 11C37.03125 11 38.289063 12.078125 38.5 13.5625L39.40625 20L10.59375 20L11.5 13.5625C11.710938 12.078125 12.96875 11 14.46875 11 Z M 7 16L9.125 16L8.5625 20L7 20 Z M 40.875 16L43 16L43 20L41.4375 20 Z M 10.3125 22L39.6875 22L40 24.15625L40.125 25L41 25C42.117188 25 43 25.882813 43 27L43 31L41 31L41 29C41 27.90625 40.09375 27 39 27L35 27C33.90625 27 33 27.90625 33 29L33 31L17 31L17 29C17 27.90625 16.09375 27 15 27L11 27C9.90625 27 9 27.90625 9 29L9 31L7 31L7 27C7 25.882813 7.882813 25 9 25L9.875 25L10 24.15625 Z M 11 29L15 29L15 31L11 31 Z M 35 29L39 29L39 31L35 31 Z M 3.0625 33L46.9375 33C46.433594 38.257813 47.265625 41.566406 47.71875 43L2.28125 43C2.746094 41.558594 3.585938 38.242188 3.0625 33Z"/></svg>