<svg xmlns="http://www.w3.org/2000/svg" xmlns:xlink="http://www.w3.org/1999/xlink" viewBox="0 0 50 50"><path d="M11 5L8.21875 5.75L6.625 10.25L0 12.25L0 23.75L1.21875 24.03125L11.09375 26L12 26L12 13.25C12 10.351563 14.351563 8 17.25 8L32.28125 8C33.679688 8 34.960938 8.488281 36 9.28125L36 5 Z M 17.25 10C15.464844 10 14 11.464844 14 13.25L14 32C14 32.03125 14 32.0625 14 32.09375C14.007813 32.117188 14.027344 32.132813 14.03125 32.15625C14.027344 32.199219 14.027344 32.238281 14.03125 32.28125C14.015625 32.511719 14 32.757813 14 33C14 36.421875 15.503906 39 17.5 39L19.65625 39C20.230469 37.351563 21 34.839844 21 33.0625C21 30.601563 20.226563 28.953125 20.21875 28.9375C19.894531 28.328125 19.921875 27.566406 20.28125 26.96875C20.640625 26.367188 21.300781 26 22 26L22.0625 26C22.308594 24.308594 23.742188 23 25.5 23C27.257813 23 28.691406 24.308594 28.9375 26L31 26L31 23L37 23L37 26L39.0625 26C39.285156 24.472656 40.472656 23.285156 42 23.0625L42 22.25C42.003906 22.199219 42.003906 22.144531 42 22.09375C42 21.460938 41.863281 20.859375 41.59375 20.3125C41.511719 20.140625 41.417969 19.96875 41.3125 19.8125C41.308594 19.804688 41.316406 19.789063 41.3125 19.78125C41.203125 19.617188 41.070313 19.492188 40.9375 19.34375C40.800781 19.195313 40.65625 19.0625 40.5 18.9375C40.183594 18.679688 39.832031 18.472656 39.4375 18.3125L38.6875 18L36.9375 17.28125L36.4375 13.5625C36.4375 13.550781 36.4375 13.542969 36.4375 13.53125C36.351563 13.023438 36.183594 12.550781 35.9375 12.125C35.824219 11.925781 35.675781 11.707031 35.53125 11.53125C35.523438 11.519531 35.507813 11.511719 35.5 11.5C34.878906 10.753906 34.019531 10.242188 33.03125 10.0625C32.785156 10.015625 32.539063 10 32.28125 10 Z M 19.40625 12L32.28125 12C32.550781 12 32.820313 12.039063 33.0625 12.125C33.425781 12.257813 33.722656 12.492188 33.96875 12.78125C34.050781 12.878906 34.121094 12.984375 34.1875 13.09375C34.316406 13.3125 34.425781 13.554688 34.46875 13.8125L34.46875 13.84375L35 18L21.34375 18L20.34375 13.78125C20.21875 13.082031 19.875 12.472656 19.40625 12 Z M 25.5 25C24.671875 25 24 25.671875 24 26.5C24 27.328125 24.671875 28 25.5 28C26.328125 28 27 27.328125 27 26.5C27 25.671875 26.328125 25 25.5 25 Z M 25.5 28L23.40625 28C23.054688 28 22.742188 28.199219 22.5625 28.5C22.382813 28.800781 22.367188 29.160156 22.53125 29.46875C22.539063 29.484375 23 30.792969 23 33C23 35.953125 21.039063 40.761719 21.03125 40.8125C20.976563 41.085938 21.023438 41.367188 21.1875 41.59375C21.351563 41.820313 21.597656 41.96875 21.875 42L46.875 45C46.914063 45.003906 46.960938 45 47 45C47.421875 45 47.796875 44.71875 47.9375 44.3125C48.023438 44.066406 50 38.292969 50 33.8125C50 29.703125 48.558594 28.363281 48.3125 28.1875C48.140625 28.066406 47.960938 28 47.75 28 Z M 42.5 28C43.328125 28 44 27.328125 44 26.5C44 25.671875 43.328125 25 42.5 25C41.671875 25 41 25.671875 41 26.5C41 27.328125 41.671875 28 42.5 28 Z M 2 26.21875C1.378906 27.121094 1 28.449219 1 30C1 32.851563 2.289063 35 4 35L7 35C7.203125 35 7.402344 34.964844 7.59375 34.90625C7.691406 34.875 7.78125 34.828125 7.875 34.78125C7.960938 34.738281 8.042969 34.710938 8.125 34.65625C8.246094 34.578125 8.355469 34.476563 8.46875 34.375C8.511719 34.335938 8.582031 34.296875 8.625 34.25C8.746094 34.125 8.859375 33.964844 8.96875 33.8125C8.984375 33.792969 8.984375 33.769531 9 33.75C9.34375 33.242188 9.613281 32.609375 9.78125 31.875L12.03125 32.375C12.03125 32.355469 12.03125 32.332031 12.03125 32.3125C12.019531 32.222656 12 32.113281 12 32L12 28L10.8125 27.96875 Z M 4 27C4.25 27 5 28.0625 5 30C5 31.9375 4.25 33 4 33C3.75 33 3 31.9375 3 30C3 28.0625 3.75 27 4 27 Z M 17.5 29C18.027344 29 19 30.519531 19 33C19 35.480469 18.027344 37 17.5 37C16.972656 37 16 35.480469 16 33C16 30.519531 16.972656 29 17.5 29Z"/></svg>