<svg xmlns="http://www.w3.org/2000/svg" xmlns:xlink="http://www.w3.org/1999/xlink" viewBox="0 0 30 30"><path d="M11.984375 4.9863281 A 1.0001 1.0001 0 0 0 11.839844 5L5.6484375 5C4.5825049 5 3.5956583 5.567783 3.0585938 6.4863281L3.0566406 6.4882812L0.27148438 11.261719L0.27148438 11.263672C0.093729905 11.5692 0 11.915507 0 12.269531L0 16L0 18.357422C0 19.312422 0.67432813 20.132359 1.6113281 20.318359L4.03125 20.796875C4.1862774 22.578724 5.6805474 24 7.5 24C9.2499335 24 10.701823 22.685411 10.949219 21L12 21L21.050781 21C21.298177 22.685411 22.750067 24 24.5 24C26.366331 24 27.897818 22.506531 27.984375 20.660156L28.623047 20.451172C29.445047 20.182172 30 19.414781 30 18.550781L30 14.572266C30 13.649266 29.367703 12.846906 28.470703 12.628906L23.021484 11.308594L19.412109 6.2578125C18.850001 5.4693624 17.938685 5 16.970703 5L12.154297 5 A 1.0001 1.0001 0 0 0 11.984375 4.9863281 z M 5.6484375 7L11 7L11 11L2.7402344 11L4.7851562 7.4960938C4.9660917 7.1866388 5.2903701 7 5.6484375 7 z M 13 7L16.970703 7C17.294722 7 17.595311 7.1544188 17.783203 7.4179688L20.341797 11L13 11L13 7 z M 7.5 19C8.3402718 19 9 19.659728 9 20.5C9 21.340272 8.3402718 22 7.5 22C6.6597282 22 6 21.340272 6 20.5C6 19.659728 6.6597282 19 7.5 19 z M 24.5 19C25.340272 19 26 19.659728 26 20.5C26 21.340272 25.340272 22 24.5 22C23.659728 22 23 21.340272 23 20.5C23 19.659728 23.659728 19 24.5 19 z"/></svg>