<svg xmlns="http://www.w3.org/2000/svg" xmlns:xlink="http://www.w3.org/1999/xlink" viewBox="0 0 30 30"><path d="M4.984375 3.9863281 A 1.0001 1.0001 0 0 0 4 5L1 5 A 1.0001 1.0001 0 1 0 1 7L4 7L4 9.0019531C2.895 9.0019531 2 9.8969531 2 11.001953L2 17.923828L2.0039062 17.923828C2.0039062 17.948828 2 17.974 2 18C2 21.314 4.686 24 8 24L25.673828 24C27.951828 24 29.797797 22.234 29.966797 20L28.474609 20C27.805609 20 27.181547 19.666375 26.810547 19.109375L26.117188 18.068359C25.812188 17.611359 26.140453 17 26.689453 17L29.966797 17C29.886797 16.339 29.499531 15.750266 28.894531 15.447266L26 14L24.878906 10.40625C24.621858 9.5807296 23.862746 9.0166405 23 9.0039062L23 7L26 7 A 1.0001 1.0001 0 1 0 26 5L23 5 A 1.0001 1.0001 0 0 0 21.984375 3.9863281 A 1.0001 1.0001 0 0 0 21 5L18 5 A 1.0001 1.0001 0 1 0 18 7L21 7L21 9.0019531C19.895 9.0019531 19 9.8969531 19 11.001953L19 12L8.4414062 12L7.8964844 10.369141C7.6244844 9.5521406 6.86 9.0019531 6 9.0019531L6 7L9 7 A 1.0001 1.0001 0 1 0 9 5L6 5 A 1.0001 1.0001 0 0 0 4.984375 3.9863281 z M 8 17C8.552 17 9 17.448 9 18L9 19C9 19.552 8.552 20 8 20C7.448 20 7 19.552 7 19L7 18C7 17.448 7.448 17 8 17 z M 12 17C12.552 17 13 17.448 13 18L13 19C13 19.552 12.552 20 12 20C11.448 20 11 19.552 11 19L11 18C11 17.448 11.448 17 12 17 z M 16 17C16.552 17 17 17.448 17 18L17 19C17 19.552 16.552 20 16 20C15.448 20 15 19.552 15 19L15 18C15 17.448 15.448 17 16 17 z M 20 17C20.552 17 21 17.448 21 18L21 19C21 19.552 20.552 20 20 20C19.448 20 19 19.552 19 19L19 18C19 17.448 19.448 17 20 17 z"/></svg>