<svg xmlns="http://www.w3.org/2000/svg" xmlns:xlink="http://www.w3.org/1999/xlink" viewBox="0 0 24 24"><path d="M1 3 A 1.0001 1.0001 0 1 0 1 5L4 5L4 7L3 7 A 1.0001 1.0001 0 0 0 2.1054688 7.5527344L0.10546875 11.552734 A 1.0001 1.0001 0 0 0 0 12L0 15.5 A 1.0001 1.0001 0 0 0 0.16796875 16.054688L3.1679688 20.554688 A 1.0001 1.0001 0 0 0 4 21L22 21 A 1.0001 1.0001 0 0 0 22.970703 20.242188L23.970703 16.242188 A 1.0001 1.0001 0 0 0 23.978516 16.199219 A 1.0001 1.0001 0 0 0 23.986328 16.169922 A 1.0001 1.0001 0 0 0 23.990234 16.144531 A 1.0001 1.0001 0 0 0 23.998047 16.070312 A 1.0001 1.0001 0 0 0 23.998047 16.0625 A 1.0001 1.0001 0 0 0 24 16.007812 A 1.0001 1.0001 0 0 0 23.998047 15.945312 A 1.0001 1.0001 0 0 0 23.998047 15.943359 A 1.0001 1.0001 0 0 0 23.988281 15.853516 A 1.0001 1.0001 0 0 0 23.988281 15.845703 A 1.0001 1.0001 0 0 0 23.974609 15.773438 A 1.0001 1.0001 0 0 0 23.972656 15.763672 A 1.0001 1.0001 0 0 0 23.957031 15.714844 A 1.0001 1.0001 0 0 0 23.939453 15.65625 A 1.0001 1.0001 0 0 0 23.9375 15.652344 A 1.0001 1.0001 0 0 0 23.933594 15.642578 A 1.0001 1.0001 0 0 0 23.902344 15.568359 A 1.0001 1.0001 0 0 0 23.898438 15.560547 A 1.0001 1.0001 0 0 0 23.863281 15.496094 A 1.0001 1.0001 0 0 0 23.849609 15.472656 A 1.0001 1.0001 0 0 0 23.808594 15.412109 A 1.0001 1.0001 0 0 0 23.800781 15.400391L20.853516 11.472656L20.851562 11.466797L18.894531 7.5527344 A 1.0001 1.0001 0 0 0 18 7L18 5L21 5 A 1.0001 1.0001 0 1 0 21 3L13 3 A 1.0001 1.0001 0 1 0 13 5L16 5L16 7L15 7 A 1.0001 1.0001 0 0 0 14.199219 7.4003906L11.5 11L8.78125 11L7.9707031 7.7578125 A 1.0001 1.0001 0 0 0 7 7L6 7L6 5L9 5 A 1.0001 1.0001 0 1 0 9 3L1 3 z M 3.6171875 9L6.21875 9L7.0292969 12.242188 A 1.0001 1.0001 0 0 0 8 13L12 13 A 1.0001 1.0001 0 0 0 12.800781 12.599609L15.5 9L17 9L17.382812 9L18.382812 11L16 11 A 1.0001 1.0001 0 0 0 15 12L15 16 A 1.0001 1.0001 0 0 0 16 17L21.71875 17L21.21875 19L4.5351562 19L2 15.197266L2 12.236328L3.6171875 9 z M 17 13L19.5 13L21 15L17 15L17 13 z M 7 15L7 17L9 17L9 15L7 15 z M 11 15L11 17L13 17L13 15L11 15 z"/></svg>