<svg xmlns="http://www.w3.org/2000/svg" xmlns:xlink="http://www.w3.org/1999/xlink" viewBox="0 0 50 50"><path d="M25 2C21.09375 2 16.910156 2.464844 14.609375 2.765625C13.121094 2.957031 12 4.242188 12 5.738281L12 16.832031C11.980469 16.941406 11.980469 17.050781 12 17.15625L12 18L11 18C10.433594 18 10 17.566406 10 17L10 11.199219C10 10.566406 9.714844 10.050781 9.332031 9.667969C8.949219 9.285156 8.433594 9 7.800781 9L7.199219 9C6.566406 9 6.050781 9.285156 5.667969 9.667969C5.285156 10.050781 5 10.566406 5 11.199219L5 14.699219C5 15.96875 5.933594 17 7.199219 17L8 17C8 18.644531 9.355469 20 11 20L12 20L12 38C12 39.378906 13.039063 40.371094 14.316406 40.714844C14.5 40.894531 14.742188 40.996094 15 41C15.257813 40.996094 15.5 40.894531 15.683594 40.714844C16.960938 40.371094 18 39.378906 18 38L18 37.3125C18.671875 37.4375 19.386719 37.550781 20.136719 37.65625L20.003906 38.894531C19.960938 39.316406 20.1875 39.71875 20.566406 39.902344C20.566406 39.902344 21.140625 40.191406 22 40.46875L22 45C22 46.378906 23.039063 47.371094 24.316406 47.714844C24.5 47.894531 24.742188 47.996094 25 48C25.257813 47.996094 25.5 47.894531 25.683594 47.714844C26.960938 47.371094 28 46.378906 28 45L28 40.46875C28.859375 40.191406 29.433594 39.902344 29.433594 39.902344C29.8125 39.71875 30.039063 39.316406 29.996094 38.894531L29.863281 37.65625C30.613281 37.550781 31.328125 37.4375 32 37.3125L32 38C32 39.378906 33.039063 40.371094 34.316406 40.714844C34.5 40.894531 34.742188 40.996094 35 41C35.257813 40.996094 35.5 40.894531 35.683594 40.714844C36.960938 40.371094 38 39.378906 38 38L38 20L39 20C40.644531 20 42 18.644531 42 17L42.800781 17C44.066406 17 45 15.96875 45 14.699219L45 11.199219C45 10.566406 44.714844 10.050781 44.332031 9.667969C43.949219 9.285156 43.433594 9 42.800781 9L42.199219 9C41.566406 9 41.050781 9.285156 40.667969 9.667969C40.285156 10.050781 40 10.566406 40 11.199219L40 17C40 17.566406 39.566406 18 39 18L38 18L38 17.167969C38.019531 17.058594 38.019531 16.949219 38 16.84375L38 5.738281C38 4.242188 36.878906 2.957031 35.390625 2.765625C33.09375 2.464844 28.90625 2 25 2 Z M 25 4C28.746094 4 32.878906 4.453125 35.136719 4.75C35.640625 4.8125 36 5.222656 36 5.738281L36 16L27.203125 16L32.75 9.65625C33.015625 9.367188 33.082031 8.945313 32.921875 8.585938C32.761719 8.226563 32.40625 7.992188 32.015625 7.992188C31.71875 7.988281 31.4375 8.117188 31.25 8.34375L24.546875 16L14 16L14 5.738281C14 5.222656 14.359375 4.8125 14.863281 4.75C17.121094 4.453125 21.253906 4 25 4 Z M 7.199219 11L7.800781 11C7.765625 11 7.851563 11.015625 7.917969 11.082031C7.984375 11.148438 8 11.234375 8 11.199219L8 15L7.199219 15C7.265625 15 7 14.828125 7 14.699219L7 11.199219C7 11.234375 7.015625 11.148438 7.082031 11.082031C7.148438 11.015625 7.234375 11 7.199219 11 Z M 42.199219 11L42.800781 11C42.765625 11 42.851563 11.015625 42.917969 11.082031C42.984375 11.148438 43 11.234375 43 11.199219L43 14.699219C43 14.828125 42.734375 15 42.800781 15L42 15L42 11.199219C42 11.234375 42.015625 11.148438 42.082031 11.082031C42.148438 11.015625 42.234375 11 42.199219 11 Z M 14 18L24.734375 18C24.890625 18.039063 25.054688 18.039063 25.207031 18L36 18L36 33.535156C36 33.992188 35.710938 34.371094 35.273438 34.496094C34.035156 34.851563 32.027344 35.339844 29.652344 35.660156L29.410156 33.402344C29.410156 33.382813 29.40625 33.363281 29.40625 33.34375C29.085938 31.417969 27.40625 30 25.457031 30L24.542969 30C22.59375 30 20.914063 31.417969 20.59375 33.34375C20.59375 33.363281 20.589844 33.382813 20.589844 33.402344L20.347656 35.660156C17.972656 35.339844 15.964844 34.851563 14.726563 34.496094C14.289063 34.367188 14 33.988281 14 33.535156 Z M 18.5 20C17.132813 20 16 21.132813 16 22.5C16 23.867188 17.132813 25 18.5 25C19.867188 25 21 23.867188 21 22.5C21 21.132813 19.867188 20 18.5 20 Z M 31.5 20C30.132813 20 29 21.132813 29 22.5C29 23.867188 30.132813 25 31.5 25C32.867188 25 34 23.867188 34 22.5C34 21.132813 32.867188 20 31.5 20 Z M 18.5 22C18.789063 22 19 22.210938 19 22.5C19 22.789063 18.789063 23 18.5 23C18.210938 23 18 22.789063 18 22.5C18 22.210938 18.210938 22 18.5 22 Z M 31.5 22C31.789063 22 32 22.210938 32 22.5C32 22.789063 31.789063 23 31.5 23C31.210938 23 31 22.789063 31 22.5C31 22.210938 31.210938 22 31.5 22 Z M 24.542969 32L25.457031 32C26.441406 32 27.265625 32.699219 27.425781 33.667969L27.921875 38.339844C27.265625 38.597656 26.140625 39 25 39C23.859375 39 22.734375 38.597656 22.078125 38.339844L22.570313 33.667969C22.734375 32.699219 23.558594 32 24.542969 32 Z M 14 36.351563C14.058594 36.371094 14.113281 36.402344 14.171875 36.417969C14.171875 36.417969 14.171875 36.417969 14.171875 36.421875C14.667969 36.5625 15.304688 36.726563 16 36.890625L16 38C16 38.566406 15.566406 39 15 39C14.433594 39 14 38.566406 14 38 Z M 36 36.355469L36 38C36 38.566406 35.566406 39 35 39C34.433594 39 34 38.566406 34 38L34 36.890625C34.695313 36.726563 35.332031 36.5625 35.828125 36.421875C35.886719 36.402344 35.941406 36.375 36 36.355469 Z M 24 40.925781C24.328125 40.96875 24.660156 41 25 41C25.339844 41 25.671875 40.96875 26 40.925781L26 45C26 45.566406 25.566406 46 25 46C24.433594 46 24 45.566406 24 45Z"/></svg>