<svg xmlns="http://www.w3.org/2000/svg" xmlns:xlink="http://www.w3.org/1999/xlink" viewBox="0 0 50 50"><path d="M25 2C21.074219 2 16.804688 2.480469 14.605469 2.765625C13.121094 2.957031 12 4.234375 12 5.738281L12 18L11 18C10.433594 18 10 17.566406 10 17L10 11.234375C10 10.066406 8.945313 9 7.789063 9L7.210938 9C6.054688 9 5 10.066406 5 11.234375L5 14.664063C5 15.90625 6.03125 17 7.210938 17L8 17C8 18.644531 9.355469 20 11 20L12 20L12 38.5C12 39.878906 13.121094 41 14.5 41C15.878906 41 17 39.878906 17 38.5L17 37.121094C17.34375 37.195313 17.703125 37.265625 18.074219 37.332031L18.078125 37.332031C18.414063 37.398438 18.773438 37.453125 19.128906 37.511719L19.445313 33.636719L19.453125 33.554688L19.46875 33.472656C19.894531 30.882813 22.074219 29 24.65625 29L25.34375 29C27.921875 29 30.101563 30.84375 30.523438 33.390625L30.535156 33.46875L30.546875 33.550781L30.871094 37.515625C31.628906 37.394531 32.34375 37.261719 33 37.125L33 38.5C33 39.878906 34.121094 41 35.5 41C36.882813 41 38 39.878906 38 38.5L38 20L39 20C40.644531 20 42 18.644531 42 17L42.789063 17C43.96875 17 45 15.90625 45 14.664063L45 11.234375C45 10.066406 43.945313 9 42.789063 9L42.210938 9C41.054688 9 40 10.066406 40 11.234375L40 17C40 17.566406 39.566406 18 39 18L38 18L38 5.738281C38 4.234375 36.878906 2.957031 35.394531 2.765625C33.195313 2.480469 28.925781 2 25 2 Z M 25 4C28.8125 4 32.988281 4.46875 35.136719 4.746094C35.628906 4.8125 36 5.238281 36 5.738281L36 16L27.203125 16L32.75 9.65625C33.015625 9.367188 33.082031 8.945313 32.921875 8.585938C32.761719 8.226563 32.40625 7.992188 32.015625 7.992188C31.71875 7.988281 31.4375 8.117188 31.25 8.34375L24.546875 16L14 16L14 5.738281C14 5.238281 14.371094 4.808594 14.863281 4.746094C17.011719 4.46875 21.1875 4 25 4 Z M 18 20C19.105469 20 20 20.894531 20 22C20 23.105469 19.105469 24 18 24C16.894531 24 16 23.105469 16 22C16 20.894531 16.894531 20 18 20 Z M 32 20C33.105469 20 34 20.894531 34 22C34 23.105469 33.105469 24 32 24C30.894531 24 30 23.105469 30 22C30 20.894531 30.894531 20 32 20 Z M 24.65625 31C23.0625 31 21.710938 32.144531 21.4375 33.796875L21.003906 39.171875C20.96875 39.582031 21.195313 39.972656 21.566406 40.152344C21.640625 40.1875 23.359375 41 25 41C26.640625 41 28.359375 40.1875 28.433594 40.152344C28.804688 39.972656 29.027344 39.582031 28.996094 39.171875L28.550781 33.71875C28.289063 32.144531 26.941406 31 25.34375 31 Z M 22 42.464844L22 45C22 46.652344 23.347656 48 25 48C26.652344 48 28 46.652344 28 45L28 42.464844C27.1875 42.730469 26.109375 43 25 43C23.894531 43 22.8125 42.730469 22 42.464844Z"/></svg>