<svg xmlns="http://www.w3.org/2000/svg" xmlns:xlink="http://www.w3.org/1999/xlink" viewBox="0 0 50 50"><path d="M4.96875 4C4.726563 4.007813 4.464844 4.097656 4.28125 4.28125L3.28125 5.28125C2.917969 5.644531 2.890625 6.226563 3.21875 6.625L17 23.34375L17 26L27 26L27 23C27 22.707031 26.878906 22.441406 26.65625 22.25L5.65625 4.25C5.457031 4.082031 5.210938 3.992188 4.96875 4 Z M 4 10.71875L4 19C4 19.550781 4.449219 20 5 20C5.550781 20 6 20.449219 6 21C6 21.550781 5.550781 22 5 22C4.449219 22 4 21.550781 4 21L2 21C2 22.652344 3.347656 24 5 24C6.652344 24 8 22.652344 8 21C8 19.695313 7.164063 18.570313 6 18.15625L6 13.15625 Z M 32 13C30.347656 13 29 14.347656 29 16L29 38L33.09375 38C33.574219 40.832031 36.03125 43 39 43C41.96875 43 44.429688 40.832031 44.90625 38L47 38C48.652344 38 50 36.652344 50 35L50 25.375C50 23.363281 48.550781 21.308594 48.375 21.0625L44.21875 15.5C43.265625 14.351563 41.773438 13 40 13 Z M 38 19L44.34375 19L46.78125 22.25C47.085938 22.675781 47.816406 23.902344 47.96875 25L38 25C37.550781 25 37 24.449219 37 24L37 20C37 19.445313 37.546875 19 38 19 Z M 0 28L0 35C0 36.652344 1.347656 38 3 38L7.09375 38C7.574219 40.832031 10.03125 43 13 43C15.96875 43 18.425781 40.832031 18.90625 38L27 38L27 28 Z M 13 33C15.207031 33 17 34.792969 17 37C17 39.207031 15.207031 41 13 41C10.792969 41 9 39.207031 9 37C9 34.792969 10.792969 33 13 33 Z M 39 33C41.207031 33 43 34.792969 43 37C43 39.207031 41.207031 41 39 41C36.792969 41 35 39.207031 35 37C35 34.792969 36.792969 33 39 33Z"/></svg>