<svg xmlns="http://www.w3.org/2000/svg" xmlns:xlink="http://www.w3.org/1999/xlink" viewBox="0 0 50 50"><path d="M32 7C30.906937 7 30 7.9069372 30 9L30 33L27 33L27 10 A 1.0001 1.0001 0 0 0 26 9L12 9 A 1.0001 1.0001 0 0 0 11 10L11 33L8 33L8 10 A 1.0001 1.0001 0 0 0 7 9L0 9L0 11L6 11L6 37L4.8984375 37C4.4315485 34.725423 2.4071535 33 0 33L0 35C1.6684839 35 3 36.331516 3 38C3 39.668484 1.6684839 41 0 41L0 43C2.4071535 43 4.4315485 41.274577 4.8984375 39L7 39 A 1.0001 1.0001 0 0 0 8 38L8 35L11 35L11 38 A 1.0001 1.0001 0 0 0 12 39L14.097656 39C14.260108 39.876685 14.634916 40.719896 15.251953 41.414062C16.101892 42.370244 17.416667 43 19 43C20.583333 43 21.898108 42.370244 22.748047 41.414062C23.365084 40.719896 23.739892 39.876685 23.902344 39L26 39 A 1.0001 1.0001 0 0 0 27 38L27 35L30 35L30 37C30 38.093063 30.906937 39 32 39L35.097656 39C35.260108 39.876685 35.634916 40.719896 36.251953 41.414062C37.101892 42.370244 38.416667 43 40 43C41.583333 43 42.898108 42.370244 43.748047 41.414062C44.365084 40.719896 44.739892 39.876685 44.902344 39L48 39C49.093063 39 50 38.093063 50 37L50 21.625C50 21.014888 49.813411 20.417833 49.464844 19.916016L41.417969 8.2929688C40.858488 7.4829959 39.934408 7 38.951172 7L36 7L32 7 z M 32 9L35 9L35 22 A 1.0001 1.0001 0 0 0 36 23L48 23L48 37L44.902344 37C44.739892 36.123315 44.365084 35.280104 43.748047 34.585938C42.898108 33.629756 41.583333 33 40 33C38.416667 33 37.101892 33.629756 36.251953 34.585938C35.634916 35.280104 35.260108 36.123315 35.097656 37L32 37L32 9 z M 37 9L38.951172 9C39.279936 9 39.586919 9.1596602 39.773438 9.4296875 A 1.0001 1.0001 0 0 0 39.773438 9.4316406L47.783203 21L37 21L37 9 z M 13 11L25 11L25 37L23.902344 37C23.739892 36.123315 23.365084 35.280104 22.748047 34.585938C21.898108 33.629756 20.583333 33 19 33C17.416667 33 16.101892 33.629756 15.251953 34.585938C14.634916 35.280104 14.260108 36.123315 14.097656 37L13 37L13 11 z M 19 35C20.083333 35 20.768559 35.370244 21.251953 35.914062C21.735347 36.457881 22 37.222222 22 38C22 38.777778 21.735347 39.542119 21.251953 40.085938C20.768559 40.629756 20.083333 41 19 41C17.916667 41 17.231441 40.629756 16.748047 40.085938C16.264653 39.542119 16 38.777778 16 38C16 37.222222 16.264653 36.457881 16.748047 35.914062C17.231441 35.370244 17.916667 35 19 35 z M 40 35C41.083333 35 41.768559 35.370244 42.251953 35.914062C42.735347 36.457881 43 37.222222 43 38C43 38.777778 42.735347 39.542119 42.251953 40.085938C41.768559 40.629756 41.083333 41 40 41C38.916667 41 38.231441 40.629756 37.748047 40.085938C37.264653 39.542119 37 38.777778 37 38C37 37.222222 37.264653 36.457881 37.748047 35.914062C38.231441 35.370244 38.916667 35 40 35 z"/></svg>