<svg xmlns="http://www.w3.org/2000/svg" xmlns:xlink="http://www.w3.org/1999/xlink" viewBox="0 0 30 30"><path d="M12.9375 3.9863281 A 1.0001 1.0001 0 0 0 12.828125 4L7 4C5.9069372 4 5 4.9069372 5 6L5 12.767578C3.1744148 14.235915 2 16.483951 2 19 A 1.0001 1.0001 0 0 0 3.0820312 20.009766C3.5754486 23.387457 6.4895795 26 10 26C13.510421 26 16.424551 23.387457 16.917969 20.009766 A 1.0001 1.0001 0 0 0 17.158203 20L20.560547 20C20.213643 20.59163 20 21.269326 20 22C20 24.197294 21.802706 26 24 26C26.197294 26 28 24.197294 28 22C28 20.683604 27.344783 19.51747 26.353516 18.787109L27.957031 13.289062L27.962891 13.267578 A 1 1 0 0 0 27.970703 13.238281 A 1 1 0 0 0 28 13 A 1 1 0 0 0 27 12L22 12L22 7L23 7L23 5L21 5 A 1.0001 1.0001 0 0 0 20 6L20 12L15.78125 12L14.28125 6L15 6 A 1.0001 1.0001 0 1 0 15 4L13.158203 4 A 1.0001 1.0001 0 0 0 13.037109 3.9863281 A 1.0001 1.0001 0 0 0 12.9375 3.9863281 z M 7 6L12.21875 6L13.697266 11.916016C12.589827 11.335011 11.333327 11 10 11C8.9395137 11 7.9275596 11.212321 7 11.589844L7 6 z M 10 14C12.773268 14 15 16.226732 15 19C15 21.773268 12.773268 24 10 24C7.2267316 24 5 21.773268 5 19C5 16.226732 7.2267316 14 10 14 z M 10 17 A 2 2 0 0 0 8 19 A 2 2 0 0 0 10 21 A 2 2 0 0 0 12 19 A 2 2 0 0 0 10 17 z M 24 20C25.116414 20 26 20.883586 26 22C26 23.116414 25.116414 24 24 24C22.883586 24 22 23.116414 22 22C22 20.883586 22.883586 20 24 20 z"/></svg>