<svg xmlns="http://www.w3.org/2000/svg" xmlns:xlink="http://www.w3.org/1999/xlink" viewBox="0 0 50 50"><path d="M23.875 4C23.71875 4.015625 23.570313 4.070313 23.4375 4.15625L17.4375 8.15625C17.148438 8.339844 16.972656 8.65625 16.972656 9C16.972656 9.34375 17.148438 9.660156 17.4375 9.84375L20.6875 12L8.09375 12C5.847656 12 3.867188 13.5 3.25 15.71875C3.238281 15.730469 3.230469 15.738281 3.21875 15.75L0.03125 27.75C0.0117188 27.832031 0 27.914063 0 28L0 37C0 38.644531 1.355469 40 3 40L4 40C4 42.210938 5.789063 44 8 44C10.210938 44 12 42.210938 12 40C12 42.210938 13.789063 44 16 44C18.210938 44 20 42.210938 20 40L30 40C30 42.210938 31.789063 44 34 44C36.210938 44 38 42.210938 38 40C38 42.210938 39.789063 44 42 44C44.210938 44 46 42.210938 46 40L47 40C48.644531 40 50 38.644531 50 37L50 28C50 27.914063 49.988281 27.832031 49.96875 27.75L46.875 15.75C46.875 15.738281 46.875 15.730469 46.875 15.71875C46.257813 13.5 44.246094 12 42 12L27.3125 12L30.5625 9.84375C30.851563 9.660156 31.027344 9.34375 31.027344 9C31.027344 8.65625 30.851563 8.339844 30.5625 8.15625L24.5625 4.15625C24.359375 4.023438 24.117188 3.96875 23.875 4 Z M 24 6.21875L28.1875 9L24 11.78125L19.8125 9 Z M 8.09375 14L23.90625 14C23.96875 14.007813 24.03125 14.007813 24.09375 14L42 14C43.347656 14 44.546875 14.886719 44.9375 16.25L44.9375 16.28125L48 28.125L48 37C48 37.554688 47.554688 38 47 38L3 38C2.445313 38 2 37.554688 2 37L2 28.125L5.15625 16.28125L5.15625 16.25C5.546875 14.886719 6.746094 14 8.09375 14 Z M 8.8125 16C7.925781 16 7.046875 16.65625 6.84375 17.5625C6.839844 17.570313 6.84375 17.585938 6.84375 17.59375L4.53125 26.75C4.453125 27.050781 4.519531 27.367188 4.710938 27.613281C4.898438 27.855469 5.191406 28 5.5 28L16 28C16.550781 28 17 27.550781 17 27L17 17C17 16.449219 16.550781 16 16 16 Z M 19.8125 16C19.335938 16.089844 18.992188 16.511719 19 17L19 27C19 27.550781 19.449219 28 20 28L30 28C30.550781 28 31 27.550781 31 27L31 17C31 16.449219 30.550781 16 30 16L20 16C19.96875 16 19.9375 16 19.90625 16C19.875 16 19.84375 16 19.8125 16 Z M 33.8125 16C33.335938 16.089844 32.992188 16.511719 33 17L33 27C33 27.550781 33.449219 28 34 28L44.5 28C44.808594 28 45.101563 27.855469 45.289063 27.613281C45.480469 27.367188 45.546875 27.050781 45.46875 26.75L43.15625 17.59375C43.15625 17.585938 43.160156 17.570313 43.15625 17.5625C42.953125 16.65625 42.074219 16 41.1875 16L34 16C33.96875 16 33.9375 16 33.90625 16C33.875 16 33.84375 16 33.8125 16 Z M 8.78125 18C8.789063 18.003906 8.792969 18 8.8125 18L15 18L15 26L6.78125 26L8.78125 18.03125C8.78125 18.019531 8.78125 18.011719 8.78125 18 Z M 21 18L29 18L29 26L21 26 Z M 35 18L41.1875 18C41.207031 18 41.210938 18.003906 41.21875 18C41.21875 18.011719 41.21875 18.019531 41.21875 18.03125L43.21875 26L35 26 Z M 6 40L10 40C10 41.191406 9.191406 42 8 42C6.808594 42 6 41.191406 6 40 Z M 14 40L18 40C18 41.191406 17.191406 42 16 42C14.808594 42 14 41.191406 14 40 Z M 32 40L36 40C36 41.191406 35.191406 42 34 42C32.808594 42 32 41.191406 32 40 Z M 40 40L44 40C44 41.191406 43.191406 42 42 42C40.808594 42 40 41.191406 40 40Z"/></svg>