<svg xmlns="http://www.w3.org/2000/svg" xmlns:xlink="http://www.w3.org/1999/xlink" viewBox="0 0 50 50"><path d="M23.875 4C23.71875 4.015625 23.570313 4.070313 23.4375 4.15625L17.4375 8.15625C17.148438 8.339844 16.972656 8.65625 16.972656 9C16.972656 9.34375 17.148438 9.660156 17.4375 9.84375L20.6875 12L8.09375 12C5.839844 12 3.832031 13.542969 3.21875 15.75L0.03125 27.75C0.0078125 27.835938 0 27.914063 0 28L0 37C0 38.652344 1.347656 40 3 40L4 40C4 42.210938 5.789063 44 8 44C10.210938 44 12 42.210938 12 40C12 42.210938 13.789063 44 16 44C18.210938 44 20 42.210938 20 40L30 40C30 42.210938 31.789063 44 34 44C36.210938 44 38 42.210938 38 40C38 42.210938 39.789063 44 42 44C44.210938 44 46 42.210938 46 40L47 40C48.652344 40 50 38.652344 50 37L50 28C50 27.914063 49.988281 27.832031 49.96875 27.75L46.875 15.71875C46.265625 13.523438 44.253906 12 42 12L27.3125 12L30.5625 9.84375C30.851563 9.660156 31.027344 9.34375 31.027344 9C31.027344 8.65625 30.851563 8.339844 30.5625 8.15625L24.5625 4.15625C24.359375 4.023438 24.117188 3.96875 23.875 4 Z M 24 6.21875L28.1875 9L24 11.78125L19.8125 9 Z M 8.8125 17L16 17L16 27L5.5 27L7.8125 17.8125C7.914063 17.3125 8.3125 17 8.8125 17 Z M 20 17L30 17L30 27L20 27 Z M 34 17L41.1875 17C41.6875 17 42.085938 17.3125 42.1875 17.8125L44.5 27L34 27 Z M 6 40L10 40C10 41.191406 9.191406 42 8 42C6.808594 42 6 41.191406 6 40 Z M 14 40L18 40C18 41.191406 17.191406 42 16 42C14.808594 42 14 41.191406 14 40 Z M 32 40L36 40C36 41.191406 35.191406 42 34 42C32.808594 42 32 41.191406 32 40 Z M 40 40L44 40C44 41.191406 43.191406 42 42 42C40.808594 42 40 41.191406 40 40Z"/></svg>