<svg xmlns="http://www.w3.org/2000/svg" xmlns:xlink="http://www.w3.org/1999/xlink" viewBox="0 0 50 50"><path d="M25 0C17.597656 0 14 1.308594 14 4C14 4.550781 14.449219 5 15 5C15.550781 5 16 4.550781 16 4C16 3.507813 16.996094 2.703125 20.09375 2.28125L20.9375 7.21875C12.851563 8.125 8 11.675781 8 15L8 38.28125C8 41.363281 10.167969 43.964844 13.125 44.75L8.9375 48.25C8.519531 48.601563 8.460938 49.207031 8.8125 49.625C9.007813 49.859375 9.28125 50 9.5625 50C9.785156 50 10.03125 49.90625 10.21875 49.75L15.90625 45L34.09375 45L39.78125 49.75C39.96875 49.90625 40.214844 50 40.4375 50C40.71875 50 40.992188 49.859375 41.1875 49.625C41.539063 49.207031 41.480469 48.601563 41.0625 48.25L36.875 44.75C39.832031 43.964844 42 41.363281 42 38.28125L42 15C42 11.675781 37.148438 8.125 29.0625 7.21875L29.90625 2.28125C33.003906 2.703125 34 3.507813 34 4C34 4.550781 34.445313 5 35 5C35.554688 5 36 4.550781 36 4C36 1.308594 32.402344 0 25 0 Z M 25 2C26.085938 2 27.019531 2.039063 27.875 2.09375L27.03125 7.0625C26.367188 7.027344 25.699219 7 25 7C24.300781 7 23.632813 7.027344 22.96875 7.0625L22.125 2.09375C22.980469 2.039063 23.914063 2 25 2 Z M 19 13L31 13C31.554688 13 32 13.449219 32 14L32 16L18 16L18 14C18 13.449219 18.449219 13 19 13 Z M 15 18L35 18C36.105469 18 37 18.832031 37 19.84375L37 27.15625C37 28.167969 36.105469 29 35 29L15 29C13.894531 29 13 28.167969 13 27.15625L13 19.84375C13 18.832031 13.894531 18 15 18 Z M 16 34C17.65625 34 19 35.34375 19 37C19 38.65625 17.65625 40 16 40C14.34375 40 13 38.65625 13 37C13 35.34375 14.34375 34 16 34 Z M 34 34C35.65625 34 37 35.34375 37 37C37 38.65625 35.65625 40 34 40C32.34375 40 31 38.65625 31 37C31 35.34375 32.34375 34 34 34Z"/></svg>