<svg xmlns="http://www.w3.org/2000/svg" xmlns:xlink="http://www.w3.org/1999/xlink" viewBox="0 0 50 50"><path d="M15.84375 0C15.519531 0.0546875 15.242188 0.269531 15.105469 0.570313C14.96875 0.867188 14.988281 1.21875 15.15625 1.5L17.25 5L12 5C8.140625 5 5 8.140625 5 12L5 43C5 43.882813 5.390625 44.667969 6 45.21875L6 47C6 48.652344 7.347656 50 9 50L13 50C14.652344 50 16 48.652344 16 47L16 46L34 46L34 47C34 48.652344 35.347656 50 37 50L41 50C42.652344 50 44 48.652344 44 47L44 45.21875C44.609375 44.667969 45 43.882813 45 43L45 12C45 8.140625 41.859375 5 38 5L32.75 5L34.84375 1.5C35.039063 1.167969 35.027344 0.753906 34.816406 0.4375C34.601563 0.117188 34.222656 -0.0546875 33.84375 0C33.550781 0.0546875 33.300781 0.238281 33.15625 0.5L30.46875 5L19.53125 5L16.84375 0.5C16.644531 0.144531 16.246094 -0.0507813 15.84375 0 Z M 13 10L37 10C38.699219 10 40 11.300781 40 13L40 27C40 28.699219 38.699219 30 37 30L13 30C11.300781 30 10 28.699219 10 27L10 13C10 11.300781 11.300781 10 13 10 Z M 4 16C2.839844 16 2 16.839844 2 18L2 24C2 25.160156 2.839844 26 4 26 Z M 46 16L46 26C47.160156 26 48 25.160156 48 24L48 18C48 16.839844 47.160156 16 46 16 Z M 13 35C14.65625 35 16 36.34375 16 38C16 39.65625 14.65625 41 13 41C11.34375 41 10 39.65625 10 38C10 36.34375 11.34375 35 13 35 Z M 37 35C38.65625 35 40 36.34375 40 38C40 39.65625 38.65625 41 37 41C35.34375 41 34 39.65625 34 38C34 36.34375 35.34375 35 37 35Z"/></svg>