<svg xmlns="http://www.w3.org/2000/svg" xmlns:xlink="http://www.w3.org/1999/xlink" viewBox="0 0 50 50"><path d="M15.84375 0C15.519531 0.0546875 15.242188 0.269531 15.105469 0.570313C14.96875 0.867188 14.988281 1.21875 15.15625 1.5L17.25 5L12 5C8.15625 5 5 8.15625 5 12L5 16L4 16C3.476563 16 2.941406 16.183594 2.5625 16.5625C2.183594 16.941406 2 17.476563 2 18L2 24C2 24.523438 2.183594 25.058594 2.5625 25.4375C2.941406 25.816406 3.476563 26 4 26L5 26L5 43C5 43.878906 5.390625 44.667969 6 45.21875L6 47C6 48.644531 7.355469 50 9 50L13 50C14.644531 50 16 48.644531 16 47L16 46L34 46L34 47C34 48.644531 35.355469 50 37 50L41 50C42.644531 50 44 48.644531 44 47L44 45.21875C44.609375 44.667969 45 43.878906 45 43L45 26L46 26C46.523438 26 47.058594 25.816406 47.4375 25.4375C47.816406 25.058594 48 24.523438 48 24L48 18C48 17.476563 47.816406 16.941406 47.4375 16.5625C47.058594 16.183594 46.523438 16 46 16L45 16L45 12C45 8.15625 41.84375 5 38 5L32.75 5L34.84375 1.5C35.039063 1.167969 35.027344 0.753906 34.816406 0.4375C34.601563 0.117188 34.222656 -0.0546875 33.84375 0C33.550781 0.0546875 33.300781 0.238281 33.15625 0.5L30.46875 5L19.53125 5L16.84375 0.5C16.644531 0.144531 16.246094 -0.0507813 15.84375 0 Z M 12 7L18.5625 7C18.886719 7.203125 19.300781 7.203125 19.625 7L30.34375 7C30.683594 7.230469 31.128906 7.230469 31.46875 7L38 7C40.753906 7 43 9.246094 43 12L43 43C43 43.554688 42.554688 44 42 44L8 44C7.445313 44 7 43.554688 7 43L7 12C7 9.246094 9.246094 7 12 7 Z M 13 9C10.789063 9 9 10.789063 9 13L9 27C9 29.210938 10.789063 31 13 31L37 31C39.210938 31 41 29.210938 41 27L41 13C41 10.789063 39.210938 9 37 9 Z M 13 11L37 11C38.191406 11 39 11.808594 39 13L39 27C39 28.191406 38.191406 29 37 29L13 29C11.808594 29 11 28.191406 11 27L11 13C11 11.808594 11.808594 11 13 11 Z M 4 18L5 18L5 24L4 24 Z M 45 18L46 18L46 24L45 24 Z M 13 34C10.800781 34 9 35.800781 9 38C9 40.199219 10.800781 42 13 42C15.199219 42 17 40.199219 17 38C17 35.800781 15.199219 34 13 34 Z M 37 34C34.800781 34 33 35.800781 33 38C33 40.199219 34.800781 42 37 42C39.199219 42 41 40.199219 41 38C41 35.800781 39.199219 34 37 34 Z M 13 36C14.117188 36 15 36.882813 15 38C15 39.117188 14.117188 40 13 40C11.882813 40 11 39.117188 11 38C11 36.882813 11.882813 36 13 36 Z M 37 36C38.117188 36 39 36.882813 39 38C39 39.117188 38.117188 40 37 40C35.882813 40 35 39.117188 35 38C35 36.882813 35.882813 36 37 36 Z M 8 46L14 46L14 47C14 47.554688 13.554688 48 13 48L9 48C8.445313 48 8 47.554688 8 47 Z M 36 46L42 46L42 47C42 47.554688 41.554688 48 41 48L37 48C36.445313 48 36 47.554688 36 47Z"/></svg>