<svg xmlns="http://www.w3.org/2000/svg" xmlns:xlink="http://www.w3.org/1999/xlink" width="50" height="50" viewBox="0 0 50 50"><path d="M48.375,16.063L44.219,10.5C43.266,9.352,41.77,8,40,8h-7v15H1c-0.553,0-1,0.448-1,1v5.333c0,1.728,1.315,3.172,3.074,3.557C3.506,35.777,5.995,38,9,38c2.967,0,5.431-2.167,5.91-5h0.181c0.478,2.833,2.942,5,5.91,5s5.431-2.167,5.91-5H33c0.48,2.832,3.031,5,6,5s5.43-2.168,5.906-5H47c1.57,0,3-1.43,3-3v-9.625C50,18.363,48.551,16.309,48.375,16.063z M9,36c-2.206,0-4-1.794-4-4s1.794-4,4-4s4,1.794,4,4S11.206,36,9,36z M21,36c-2.206,0-4-1.794-4-4s1.794-4,4-4s4,1.794,4,4S23.206,36,21,36z M39,36c-2.207,0-4-1.793-4-4s1.793-4,4-4s4,1.793,4,4S41.207,36,39,36z M48,21H38c-1,0-2-1-2-2v-4c0-1.105,1-2,2-2h5.594l3.188,4.25C47.121,17.73,48,19.203,48,20.375V21z"/></svg>