<svg xmlns="http://www.w3.org/2000/svg" xmlns:xlink="http://www.w3.org/1999/xlink" width="50" height="50" viewBox="0 0 50 50"><path d="M48.406,16.063h-0.031l-4.125-5.5v-0.031L44.219,10.5C43.297,9.387,41.914,8,40,8h-8c-0.355,0-0.684,0.074-1,0.188c-0.727,0.375-2.004,1.245-2,2.719V22H1c-0.552,0-1,0.448-1,1v6c0,1.885,1.315,3.459,3.072,3.88C3.5,35.772,5.991,38,9,38c2.967,0,5.431-2.167,5.91-5h0.181c0.478,2.833,2.942,5,5.91,5s5.431-2.167,5.91-5h6.184c0.477,2.836,2.941,5,5.906,5c2.96,0,5.429-2.172,5.909-5H45h1h1c1.66,0,3-1.34,3-3v-9.625C50,18.086,48.406,16.063,48.406,16.063z M44.344,14l2.438,3.25c0,0,0.906,1.551,1.094,2.75H38c-0.168,0-0.438-0.125-0.656-0.344S37,19.168,37,19v-4c0-0.504,0.594-1,1-1H44.344z M9,36c-2.206,0-4-1.794-4-4s1.794-4,4-4s4,1.794,4,4S11.206,36,9,36z M21,36c-2.206,0-4-1.794-4-4s1.794-4,4-4s4,1.794,4,4S23.206,36,21,36z M39,36c-2.223,0-4-1.777-4-4s1.777-4,4-4s4,1.777,4,4S41.223,36,39,36z M48,30c0,0.375-0.625,1-1,1h-1h-1h-0.091c-0.48-2.828-2.95-5-5.909-5c-2.965,0-5.43,2.164-5.906,5H33h-6.09c-0.478-2.833-2.942-5-5.91-5s-5.431,2.167-5.91,5H14.91c-0.478-2.833-2.942-5-5.91-5c-2.894,0-5.315,2.059-5.877,4.789C2.461,30.463,2,29.787,2,29v-5h28c0.552,0,1-0.448,1-1V11c0-0.375,0.625-1,1-1h8c0.785,0,1.891,0.84,2.656,1.75c0.008,0.012,0.023,0.02,0.031,0.031L42.844,12H38c-1.594,0-3,1.289-3,3v4c0,0.832,0.375,1.563,0.906,2.094S37.168,22,38,22h10V30z"/></svg>