<svg xmlns="http://www.w3.org/2000/svg" xmlns:xlink="http://www.w3.org/1999/xlink" viewBox="0 0 50 50"><path d="M31.8125 8C31.78125 8.007813 31.75 8.019531 31.71875 8.03125L21.9375 10.78125L21.9375 10.8125C20.9375 11.039063 20.039063 11.613281 19.46875 12.46875L14.15625 20.4375C14.121094 20.488281 14.089844 20.539063 14.0625 20.59375L7.4375 21.65625C7.417969 21.65625 7.394531 21.65625 7.375 21.65625C6.039063 21.953125 5.046875 23.066406 4.8125 24.40625L4.78125 24.40625L4.03125 27.78125C3.964844 28.078125 4.035156 28.386719 4.222656 28.621094C4.414063 28.859375 4.699219 28.996094 5 29L8 29L8 30.09375C5.164063 30.570313 3 33.035156 3 36C3 39.300781 5.699219 42 9 42C12.300781 42 15 39.300781 15 36C15 35.300781 14.878906 34.625 14.65625 34L16.1875 34L16.9375 35.96875C16.945313 36 16.957031 36.03125 16.96875 36.0625L16.96875 36.09375C16.996094 36.421875 17.183594 36.710938 17.46875 36.875C17.5 36.898438 17.53125 36.917969 17.5625 36.9375C17.59375 36.949219 17.625 36.960938 17.65625 36.96875C17.875 37.058594 18.117188 37.070313 18.34375 37L31 37C31.09375 37.003906 31.1875 36.992188 31.28125 36.96875C31.3125 36.960938 31.34375 36.949219 31.375 36.9375C31.441406 36.914063 31.503906 36.882813 31.5625 36.84375C31.585938 36.824219 31.605469 36.804688 31.625 36.78125C31.65625 36.761719 31.6875 36.742188 31.71875 36.71875C31.742188 36.699219 31.761719 36.679688 31.78125 36.65625C31.78125 36.644531 31.78125 36.636719 31.78125 36.625C31.828125 36.578125 31.871094 36.523438 31.90625 36.46875C31.90625 36.457031 31.90625 36.449219 31.90625 36.4375L31.9375 36.375C31.949219 36.34375 31.960938 36.3125 31.96875 36.28125L33.125 34L34.34375 34C34.121094 34.625 34 35.300781 34 36C34 39.300781 36.699219 42 40 42C43.300781 42 46 39.300781 46 36C46 33.035156 43.835938 30.570313 41 30.09375L41 29L47 29C47.300781 28.996094 47.585938 28.859375 47.777344 28.621094C47.964844 28.386719 48.035156 28.078125 47.96875 27.78125C47.96875 27.78125 47.738281 26.683594 47.21875 25.34375C46.699219 24.003906 45.914063 22.382813 44.65625 21.25C44.476563 21.089844 44.242188 21 44 21L35.59375 21L38.40625 15.375C38.863281 14.457031 38.808594 13.378906 38.28125 12.5C38.28125 12.5 37.632813 11.40625 36.5625 10.3125C35.492188 9.21875 33.957031 8 32 8C31.96875 8 31.9375 8 31.90625 8C31.875 8 31.84375 8 31.8125 8 Z M 32.09375 10.03125C33.144531 10.074219 34.261719 10.804688 35.125 11.6875C36.015625 12.59375 36.5625 13.5 36.5625 13.5C36.738281 13.792969 36.777344 14.164063 36.625 14.46875L34 19.6875L34 18.5C34 17.671875 33.328125 17 32.5 17C31.671875 17 31 17.671875 31 18.5L31 25.3125L30.625 26L25.5 26C24.671875 26 24 26.671875 24 27.5C24 28.328125 24.671875 29 25.5 29L28.96875 29L28.40625 30L21 30L21 25C21.003906 24.847656 20.96875 24.699219 20.90625 24.5625L18.90625 20.5625C18.71875 20.160156 18.285156 19.929688 17.84375 20L16.78125 20.15625L21.15625 13.59375C21.449219 13.152344 21.886719 12.855469 22.40625 12.75C22.4375 12.742188 22.46875 12.730469 22.5 12.71875 Z M 17.4375 22.125L19 25.25L19 31C19 31.550781 19.449219 32 20 32L29 32C29.359375 32.003906 29.695313 31.8125 29.875 31.5L34.59375 23L43.5 23C44.246094 23.773438 44.917969 24.960938 45.34375 26.0625C45.546875 26.582031 45.546875 26.628906 45.65625 27L35 27C34.613281 26.996094 34.261719 27.214844 34.09375 27.5625L30.375 35L18.6875 35L15.9375 27.65625C15.792969 27.261719 15.417969 27 15 27L6.25 27L6.75 24.84375C6.75 24.824219 6.75 24.800781 6.75 24.78125C6.832031 24.210938 7.25 23.75 7.8125 23.625 Z M 10 29L14.3125 29L15.4375 32L13.46875 32C12.578125 31.003906 11.371094 30.324219 10 30.09375 Z M 35.625 29L39 29L39 30.09375C37.628906 30.324219 36.421875 31.003906 35.53125 32L34.125 32 Z M 9 32C11.222656 32 13 33.777344 13 36C13 38.222656 11.222656 40 9 40C6.777344 40 5 38.222656 5 36C5 33.777344 6.777344 32 9 32 Z M 40 32C42.222656 32 44 33.777344 44 36C44 38.222656 42.222656 40 40 40C37.777344 40 36 38.222656 36 36C36 33.777344 37.777344 32 40 32 Z M 9 34C7.90625 34 7 34.90625 7 36C7 37.09375 7.90625 38 9 38C10.09375 38 11 37.09375 11 36C11 34.90625 10.09375 34 9 34 Z M 40 34C38.90625 34 38 34.90625 38 36C38 37.09375 38.90625 38 40 38C41.09375 38 42 37.09375 42 36C42 34.90625 41.09375 34 40 34Z"/></svg>