<?xml version="1.0" encoding="utf-8"?><svg version="1.1" id="Layer_1" xmlns="http://www.w3.org/2000/svg" xmlns:xlink="http://www.w3.org/1999/xlink" x="0px" y="0px" viewBox="0 0 122.88 70.32" style="enable-background:new 0 0 122.88 70.32" xml:space="preserve"><style type="text/css">.st0{fill-rule:evenodd;clip-rule:evenodd;}</style><g><path class="st0" d="M29.34,41.02c-12.27,0-18.31,10.91-15.43,22.31L5.5,63.33C1.89,61.72,0.39,58.4,0,54.17v-6.96 c0-5.68,0-11.36,0-17.52c0-4.74,3.02-7.11,9.1-7.11l4.35,0L22.2,4.35C23.41,1.45,25.61,0,28.72,0h16.93v0.1h69.13 c5.16,0.05,7.96,2.51,8.11,7.68v55.55h-6.98c4.2-10.86-3.59-22.27-15.12-22.27c-11.55,0-19.35,11.4-15.14,22.27H45.39 C47.53,52.59,41.3,41.02,29.34,41.02L29.34,41.02z M41.26,57.74c0,3.47-1.15,6.44-3.49,8.89c-2.32,2.45-5.14,3.69-8.43,3.69 c-3.32,0-6.14-1.24-8.46-3.69c-2.32-2.45-3.49-5.42-3.49-8.89c0-3.47,1.17-6.44,3.49-8.89c2.32-2.47,5.14-3.69,8.46-3.69 c3.29,0,6.11,1.21,8.43,3.69C40.11,51.3,41.26,54.28,41.26,57.74L41.26,57.74z M112.61,57.74c0,3.47-1.15,6.44-3.49,8.89 c-2.32,2.45-5.14,3.69-8.43,3.69c-3.32,0-6.14-1.24-8.46-3.69c-2.32-2.45-3.49-5.42-3.49-8.89c0-3.47,1.17-6.44,3.49-8.89 c2.32-2.47,5.14-3.69,8.46-3.69c3.29,0,6.11,1.21,8.43,3.69C111.46,51.3,112.61,54.28,112.61,57.74L112.61,57.74z M100.67,53.74 c2.21,0,4,1.79,4,4c0,2.21-1.79,4-4,4c-2.21,0-4-1.79-4-4C96.67,55.53,98.46,53.74,100.67,53.74L100.67,53.74z M29.32,53.74 c2.21,0,4,1.79,4,4c0,2.21-1.79,4-4,4c-2.21,0-4-1.79-4-4C25.32,55.53,27.11,53.74,29.32,53.74L29.32,53.74z M52.54,8.05h15.08 v20.07H52.54V8.05L52.54,8.05z M37.62,32.16h6.21v1.7h-6.21V32.16L37.62,32.16z M43.83,28.12V8.05H28.76l-7.97,20.07H43.83 L43.83,28.12L43.83,28.12z M99.61,8.05h15.08v20.07H99.61V8.05L99.61,8.05z M76.55,8.05h15.08v20.07H76.55V8.05L76.55,8.05z"/></g></svg>