<svg xmlns="http://www.w3.org/2000/svg" xmlns:xlink="http://www.w3.org/1999/xlink" viewBox="0 0 30 30"><path d="M20 9C18.895 9 18 9.895 18 11L18 19L1 19L1 21 A 1.0001 1.0001 0 1 0 1 23L2 23L3.0507812 23C3.2981765 24.685411 4.7500665 26 6.5 26C8.2499335 26 9.7018235 24.685411 9.9492188 23L19 23L20.050781 23C20.298177 24.685411 21.750067 26 23.5 26C25.249933 26 26.701823 24.685411 26.949219 23L29 23 A 1.0001 1.0001 0 1 0 29 21L29 16L23 16L23 12C23 11.448 23.448 11 24 11L26.857422 11L26.519531 10.212891C26.204531 9.4778906 25.481641 9 24.681641 9L20 9 z M 1 14L1 17L16 17L16 14L1 14 z M 6.5 21C7.3402718 21 8 21.659728 8 22.5C8 23.340272 7.3402718 24 6.5 24C5.6597282 24 5 23.340272 5 22.5C5 21.659728 5.6597282 21 6.5 21 z M 23.5 21C24.340272 21 25 21.659728 25 22.5C25 23.340272 24.340272 24 23.5 24C22.659728 24 22 23.340272 22 22.5C22 21.659728 22.659728 21 23.5 21 z"/></svg>