<svg xmlns="http://www.w3.org/2000/svg" xmlns:xlink="http://www.w3.org/1999/xlink" viewBox="0 0 50 50"><path d="M15.71875 0.15625C15.824219 0.382813 15.878906 0.539063 15.90625 0.59375C16.019531 0.851563 18.6875 7.035156 18.6875 18.8125C18.6875 19.363281 18.238281 19.8125 17.6875 19.8125C17.136719 19.8125 16.6875 19.363281 16.6875 18.8125C16.6875 7.457031 14.121094 1.464844 14.09375 1.40625C14.011719 1.21875 13.875 0.925781 13.71875 0.59375C11.042969 2.132813 2.367188 7.125 0.53125 8.125C0.296875 8.253906 0.105469 8.464844 0.03125 8.71875C-0.0429688 8.972656 -0.00390625 9.234375 0.125 9.46875C0.160156 9.535156 3.378906 15.566406 3.90625 23L46.09375 23C46.621094 15.566406 49.839844 9.535156 49.875 9.46875C50.003906 9.234375 50.042969 8.972656 49.96875 8.71875C49.894531 8.464844 49.703125 8.253906 49.46875 8.125C47.628906 7.121094 38.941406 2.125 36.28125 0.59375L35.90625 1.40625C35.878906 1.46875 33.3125 7.503906 33.3125 18.8125C33.3125 19.363281 32.867188 19.8125 32.3125 19.8125C31.757813 19.8125 31.3125 19.363281 31.3125 18.8125C31.3125 7.035156 33.980469 0.851563 34.09375 0.59375L34.28125 0.15625C31.695313 0.78125 29.1875 1 25 1C20.804688 1 18.304688 0.785156 15.71875 0.15625 Z M 1 25C0.449219 25 0 25.449219 0 26L0 30C0 30.265625 0.09375 30.53125 0.28125 30.71875L2.75 33.15625C1.058594 34.949219 0 37.347656 0 40C0 45.515625 4.484375 50 10 50C15.175781 50 19.433594 46.046875 19.9375 41L30.0625 41C30.566406 46.046875 34.824219 50 40 50C45.515625 50 50 45.515625 50 40C50 37.410156 48.992188 35.058594 47.375 33.28125L49.75 30.65625C49.914063 30.472656 50 30.246094 50 30L50 26C50 25.449219 49.554688 25 49 25 Z M 10 32C10.835938 32 11.648438 32.136719 12.40625 32.375L10.21875 37.53125C10.144531 37.523438 10.078125 37.5 10 37.5C9.921875 37.5 9.855469 37.523438 9.78125 37.53125L7.6875 32.375C8.421875 32.152344 9.195313 32 10 32 Z M 40 32C40.835938 32 41.648438 32.136719 42.40625 32.375L40.21875 37.53125C40.144531 37.523438 40.078125 37.5 40 37.5C39.921875 37.5 39.855469 37.523438 39.78125 37.53125L37.65625 32.375C38.398438 32.148438 39.183594 32 40 32 Z M 6.28125 32.90625L8.40625 38.0625C8.292969 38.15625 8.1875 38.261719 8.09375 38.375L2.96875 36.21875C3.726563 34.8125 4.867188 33.648438 6.28125 32.90625 Z M 36.28125 32.90625L38.40625 38.0625C38.292969 38.15625 38.1875 38.265625 38.09375 38.375L32.96875 36.21875C33.726563 34.8125 34.867188 33.648438 36.28125 32.90625 Z M 13.78125 32.96875C15.1875 33.726563 16.351563 34.867188 17.09375 36.28125L11.9375 38.40625C11.84375 38.292969 11.738281 38.191406 11.625 38.09375 Z M 43.78125 32.96875C45.1875 33.726563 46.351563 34.867188 47.09375 36.28125L41.9375 38.40625C41.84375 38.292969 41.734375 38.1875 41.625 38.09375 Z M 2.375 37.59375L7.53125 39.78125C7.523438 39.855469 7.5 39.921875 7.5 40C7.5 40.078125 7.523438 40.144531 7.53125 40.21875L2.375 42.3125C2.152344 41.578125 2 40.804688 2 40C2 39.164063 2.136719 38.351563 2.375 37.59375 Z M 32.375 37.59375L37.53125 39.78125C37.523438 39.855469 37.5 39.921875 37.5 40C37.5 40.078125 37.523438 40.144531 37.53125 40.21875L32.375 42.34375C32.148438 41.601563 32 40.816406 32 40C32 39.164063 32.136719 38.351563 32.375 37.59375 Z M 47.625 37.65625C47.851563 38.398438 48 39.183594 48 40C48 40.835938 47.863281 41.648438 47.625 42.40625L42.46875 40.21875C42.476563 40.144531 42.5 40.078125 42.5 40C42.5 39.921875 42.476563 39.855469 42.46875 39.78125 Z M 17.625 37.6875C17.847656 38.421875 18 39.195313 18 40C18 40.835938 17.863281 41.648438 17.625 42.40625L12.46875 40.21875C12.476563 40.144531 12.5 40.078125 12.5 40C12.5 39.921875 12.476563 39.855469 12.46875 39.78125 Z M 8.09375 41.59375C8.183594 41.703125 8.265625 41.8125 8.375 41.90625L6.21875 47.03125C4.8125 46.273438 3.648438 45.132813 2.90625 43.71875 Z M 38.0625 41.59375C38.15625 41.707031 38.265625 41.8125 38.375 41.90625L36.21875 47.03125C34.8125 46.273438 33.648438 45.132813 32.90625 43.71875 Z M 11.90625 41.625L17.03125 43.78125C16.273438 45.1875 15.132813 46.351563 13.71875 47.09375L11.59375 41.9375C11.707031 41.84375 11.8125 41.738281 11.90625 41.625 Z M 41.90625 41.625L47.03125 43.78125C46.273438 45.1875 45.132813 46.351563 43.71875 47.09375L41.59375 41.9375C41.707031 41.84375 41.8125 41.734375 41.90625 41.625 Z M 9.78125 42.46875C9.855469 42.476563 9.921875 42.5 10 42.5C10.078125 42.5 10.144531 42.476563 10.21875 42.46875L12.3125 47.625C11.578125 47.847656 10.804688 48 10 48C9.164063 48 8.351563 47.863281 7.59375 47.625 Z M 39.78125 42.46875C39.855469 42.476563 39.921875 42.5 40 42.5C40.078125 42.5 40.144531 42.476563 40.21875 42.46875L42.34375 47.625C41.601563 47.851563 40.816406 48 40 48C39.164063 48 38.351563 47.863281 37.59375 47.625Z"/></svg>