<svg xmlns="http://www.w3.org/2000/svg" xmlns:xlink="http://www.w3.org/1999/xlink" viewBox="0 0 50 50"><path d="M14.875 -0.03125C14.832031 -0.0234375 14.789063 -0.0117188 14.75 0C14.660156 0.03125 14.578125 0.0703125 14.5 0.125C14.433594 0.160156 14.371094 0.203125 14.3125 0.25C13.949219 0.460938 2.625 6.984375 0.53125 8.125C0.0507813 8.386719 -0.128906 8.984375 0.125 9.46875C0.125 9.46875 3.683594 16.046875 3.96875 24L1 24C0.96875 24 0.9375 24 0.90625 24C0.875 24 0.84375 24 0.8125 24C0.335938 24.089844 -0.0078125 24.511719 0 25L0 30C-0.0078125 30.265625 0.09375 30.527344 0.28125 30.71875L2.75 33.15625C1.0625 34.945313 0 37.339844 0 40C0 45.535156 4.464844 50 10 50C15.199219 50 19.441406 46.066406 19.9375 41L30.0625 41C30.558594 46.066406 34.800781 50 40 50C45.535156 50 50 45.535156 50 40C50 37.402344 48.992188 35.058594 47.375 33.28125L49.75 30.65625C49.910156 30.476563 50 30.242188 50 30L50 25C50 24.449219 49.550781 24 49 24L46.03125 24C46.316406 16.046875 49.875 9.46875 49.875 9.46875C50.128906 8.984375 49.949219 8.386719 49.46875 8.125C47.371094 6.980469 35.949219 0.390625 35.65625 0.21875C35.644531 0.207031 35.636719 0.199219 35.625 0.1875C35.621094 0.1875 35.5 0.125 35.5 0.125C35.382813 0.0585938 35.257813 0.015625 35.125 0C35.113281 0 35.105469 0 35.09375 0C35 -0.0117188 34.90625 -0.0117188 34.8125 0C34.714844 0.015625 34.621094 0.046875 34.53125 0.09375C31.996094 0.734375 29.625 1 25 1C20.316406 1 17.949219 0.71875 15.375 0.0625C15.304688 0.0351563 15.230469 0.0117188 15.15625 0C15.066406 -0.0234375 14.96875 -0.0351563 14.875 -0.03125 Z M 16.5 2.34375C18.730469 2.785156 21.160156 3 25 3C28.839844 3 31.269531 2.785156 33.5 2.34375C32.683594 4.953125 31.3125 10.496094 31.3125 18.8125C31.308594 19.171875 31.496094 19.507813 31.808594 19.691406C32.121094 19.871094 32.503906 19.871094 32.816406 19.691406C33.128906 19.507813 33.316406 19.171875 33.3125 18.8125C33.3125 10.082031 34.777344 4.621094 35.5 2.46875C36.945313 3.300781 44.933594 7.867188 47.75 9.4375C47.144531 10.601563 44.269531 16.335938 44.03125 24L5.96875 24C5.730469 16.335938 2.855469 10.601563 2.25 9.4375C5.066406 7.867188 13.054688 3.300781 14.5 2.46875C15.222656 4.621094 16.6875 10.082031 16.6875 18.8125C16.683594 19.171875 16.871094 19.507813 17.183594 19.691406C17.496094 19.871094 17.878906 19.871094 18.191406 19.691406C18.503906 19.507813 18.691406 19.171875 18.6875 18.8125C18.6875 10.496094 17.316406 4.953125 16.5 2.34375 Z M 2 26L48 26L48 29.625L45.90625 31.9375C44.253906 30.726563 42.210938 30 40 30C34.800781 30 30.558594 33.933594 30.0625 39L19.9375 39C19.441406 33.933594 15.199219 30 10 30C7.851563 30 5.878906 30.699219 4.25 31.84375L2 29.5625 Z M 10 32C10.835938 32 11.652344 32.113281 12.40625 32.34375L10.21875 37.53125C10.144531 37.523438 10.078125 37.5 10 37.5C9.921875 37.5 9.855469 37.523438 9.78125 37.53125L7.65625 32.34375C8.394531 32.121094 9.179688 32 10 32 Z M 40 32C40.835938 32 41.652344 32.113281 42.40625 32.34375L40.21875 37.53125C40.144531 37.523438 40.078125 37.5 40 37.5C39.921875 37.5 39.855469 37.523438 39.78125 37.53125L37.65625 32.34375C38.398438 32.121094 39.175781 32 40 32 Z M 6.28125 32.90625L8.40625 38.0625C8.285156 38.160156 8.191406 38.285156 8.09375 38.40625L2.9375 36.21875C3.6875 34.796875 4.859375 33.644531 6.28125 32.90625 Z M 36.28125 32.90625L38.40625 38.0625C38.292969 38.15625 38.1875 38.265625 38.09375 38.375L32.9375 36.21875C33.691406 34.792969 34.847656 33.648438 36.28125 32.90625 Z M 13.78125 32.9375C15.203125 33.6875 16.355469 34.859375 17.09375 36.28125L11.9375 38.40625C11.839844 38.285156 11.742188 38.160156 11.625 38.0625 Z M 43.78125 32.9375C45.203125 33.6875 46.355469 34.859375 47.09375 36.28125L41.9375 38.40625C41.84375 38.292969 41.734375 38.1875 41.625 38.09375 Z M 2.34375 37.59375L7.53125 39.78125C7.523438 39.855469 7.5 39.921875 7.5 40C7.5 40.078125 7.523438 40.144531 7.53125 40.21875L2.34375 42.34375C2.121094 41.605469 2 40.820313 2 40C2 39.164063 2.113281 38.347656 2.34375 37.59375 Z M 32.375 37.59375L37.53125 39.78125C37.523438 39.855469 37.5 39.921875 37.5 40C37.5 40.078125 37.523438 40.144531 37.53125 40.21875L32.34375 42.34375C32.136719 41.660156 32.015625 40.941406 32 40.1875C32.027344 40.054688 32.027344 39.914063 32 39.78125C32.019531 39.019531 32.160156 38.285156 32.375 37.59375 Z M 17.65625 37.65625C17.878906 38.394531 18 39.179688 18 40C18 40.835938 17.886719 41.652344 17.65625 42.40625L12.46875 40.21875C12.476563 40.144531 12.5 40.078125 12.5 40C12.5 39.921875 12.476563 39.855469 12.46875 39.78125 Z M 47.65625 37.65625C47.878906 38.394531 48 39.179688 48 40C48 40.835938 47.886719 41.652344 47.65625 42.40625L42.46875 40.21875C42.476563 40.144531 42.5 40.078125 42.5 40C42.5 39.921875 42.476563 39.855469 42.46875 39.78125 Z M 8.0625 41.59375C8.160156 41.714844 8.257813 41.839844 8.375 41.9375L6.21875 47.0625C4.796875 46.3125 3.644531 45.140625 2.90625 43.71875 Z M 11.90625 41.59375L17.0625 43.78125C16.3125 45.203125 15.140625 46.355469 13.71875 47.09375L11.59375 41.9375C11.714844 41.839844 11.808594 41.714844 11.90625 41.59375 Z M 38.0625 41.59375C38.15625 41.707031 38.265625 41.8125 38.375 41.90625L36.21875 47.0625C34.796875 46.3125 33.648438 45.144531 32.90625 43.71875 Z M 41.90625 41.625L47.0625 43.78125C46.308594 45.210938 45.15625 46.351563 43.71875 47.09375L41.59375 41.9375C41.707031 41.84375 41.8125 41.734375 41.90625 41.625 Z M 9.78125 42.46875C9.855469 42.476563 9.921875 42.5 10 42.5C10.078125 42.5 10.144531 42.476563 10.21875 42.46875L12.34375 47.65625C11.605469 47.878906 10.820313 48 10 48C9.164063 48 8.347656 47.886719 7.59375 47.65625 Z M 39.78125 42.46875C39.855469 42.476563 39.921875 42.5 40 42.5C40.078125 42.5 40.144531 42.476563 40.21875 42.46875L42.34375 47.6875C41.609375 47.90625 40.8125 48 40 48C39.164063 48 38.347656 47.886719 37.59375 47.65625Z"/></svg>