<svg xmlns="http://www.w3.org/2000/svg" xmlns:xlink="http://www.w3.org/1999/xlink" viewBox="0 0 50 50"><path d="M13 1.9980469L13 8.9980469L8 8.9980469L8 12.998047L11 17.998047L8 17.998047L8 31.998047L4 31.998047L4 44.998047L35 44.998047L35 35.998047L40 35.998047L40 44.998047L45 44.998047L45 31.998047L20 31.998047L20 17.998047L17 17.998047L20 12.998047L20 8.9980469L15 8.9980469L15 1.9980469L13 1.9980469 z M 30.318359 3.7363281L37.087891 10.556641L33.580078 12.050781L29 10.769531L31.462891 14.033203L32.101562 18.074219L34.353516 13.878906L37.863281 12.382812L38.072266 21.998047L42.783203 10.283203L46.427734 8.7285156C46.930734 8.5145156 47.164219 7.9317344 46.949219 7.4277344C46.734219 6.9237344 46.154391 6.6882969 45.650391 6.9042969L42.007812 8.4570312L30.318359 3.7363281 z M 8 35.998047L19 35.998047L19 39.998047L8 39.998047L8 35.998047 z M 21 35.998047L32 35.998047L32 39.998047L21 39.998047L21 35.998047 z"/></svg>