<svg id="Layer_1" data-name="Layer 1" xmlns="http://www.w3.org/2000/svg" viewBox="0 0 122.88 98.86"><defs><style>.cls-1{fill-rule:evenodd;}</style></defs><title>airport</title><path class="cls-1" d="M5.91,37.6c0-1.43.82-2.83,2.15-4.4L.39,28.35c-.49-.21-.48-.51-.2-.85l1.63-1.39a1.19,1.19,0,0,1,1-.17l9.46,1.6L20.12,19,1.71,6.55c-.47-.28-.51-.59,0-1L4.34,3.48l24,6.75,7.09-7.58c2.38-2.06,4.69-3,6.46-2.54a1.84,1.84,0,0,1,1.63,1.45c.58,1.8-.33,4.21-2.48,6.7l-7.58,7.09,6.75,24L38.09,42c-.36.48-.67.44-.94,0L24.69,23.58l-8.54,7.88,1.6,9.47a1.17,1.17,0,0,1-.17.94L16.19,43.5c-.34.28-.64.29-.85-.2l-4.85-7.66c-1.58,1.32-3,2.14-4.42,2.14-.13,0-.16-.05-.16-.18Zm33.8,30.49H35.9L38.83,56.8h5.58l2.93,11.29H43.53l-.42-1.78h-3l-.42,1.78Zm1.81-7.82-.74,3.16h1.66l-.72-3.16Zm6.91,7.82V56.8H52V68.09Zm15.67,0h-4l-1.48-3.36h-.78v3.36H54.26V56.8H60q3.88,0,3.88,4c0,1.81-.56,3-1.68,3.58l1.95,3.75Zm-6.23-8.4V62h.83a2.5,2.5,0,0,0,.95-.13q.3-.14.3-.63v-.74c0-.32-.1-.53-.3-.62a2.46,2.46,0,0,0-.95-.14Zm13.86,5.68H69.39v2.72H65.77V56.8h5.69c2.59,0,3.89,1.4,3.89,4.18a4.89,4.89,0,0,1-1,3.39,3.22,3.22,0,0,1-1,.71,4,4,0,0,1-1.56.29Zm-2.34-5.68v2.79h.83a2.46,2.46,0,0,0,1-.14.62.62,0,0,0,.29-.62V60.45a.62.62,0,0,0-.29-.62,2.46,2.46,0,0,0-1-.14Zm6.91,2.77A7.13,7.13,0,0,1,77.45,58c.77-.94,2.16-1.42,4.18-1.42S85,57,85.8,58A7.13,7.13,0,0,1,87,62.46,11.79,11.79,0,0,1,86.71,65a4.66,4.66,0,0,1-.84,1.83A3.44,3.44,0,0,1,84.23,68,9.36,9.36,0,0,1,79,68a3.49,3.49,0,0,1-1.64-1.13A4.66,4.66,0,0,1,76.54,65a11.79,11.79,0,0,1-.24-2.58Zm3.88-1.88v4.7h1.5a2.37,2.37,0,0,0,1.07-.18c.23-.11.34-.37.34-.78v-4.7H81.57a2.55,2.55,0,0,0-1.06.17c-.22.12-.33.38-.33.79Zm18.29,7.51h-4L93,64.73h-.77v3.36H88.63V56.8h5.69q3.89,0,3.88,4c0,1.81-.56,3-1.68,3.58l2,3.75Zm-6.23-8.4V62h.83a2.5,2.5,0,0,0,1-.13q.3-.14.3-.63v-.74c0-.32-.1-.53-.3-.62a2.46,2.46,0,0,0-1-.14Zm15.94,0h-2.62v8.4H102v-8.4H99.33V56.8h8.85v2.89ZM72,29.72a9,9,0,1,1-9,9,9,9,0,0,1,9-9Zm0,4.21a4.82,4.82,0,1,1-4.81,4.82A4.81,4.81,0,0,1,72,33.93ZM36.62,73.46h11.9v5.59H36.62V73.46Zm23.13,0H84.34v5.59H59.75V73.46Zm35.82,0h11.89v5.59H95.57V73.46Zm0,10.91h11.89V90H95.57V84.37Zm-35.82,0H84.34V90H59.75V84.37Zm-23.13,0h11.9V90H36.62V84.37Zm83.07,11.27V50.09H91.62V34.87L72.09,20.17,52.48,34.87V50.09H24.39V95.67H72l47.65,0Zm3.19-47.14V98.83H72l-50.84,0v-52H49.29V33.29L72.1,16.19l22.71,17.1V46.9h28.07v1.6Z"/></svg>