<svg xmlns="http://www.w3.org/2000/svg" xmlns:xlink="http://www.w3.org/1999/xlink" viewBox="0 0 50 50"><path d="M14.5 1.4804688L13.748047 2.3417969L3 14.625L3 46L24 46L26 46L47 46L47 14.625L35.5 1.4804688L34.748047 2.3417969L25 13.482422L14.5 1.4804688 z M 14.5 4.5175781L24 15.375L24 44L5 44L5 15.375L14.5 4.5175781 z M 35.5 4.5175781L45 15.375L45 44L26 44L26 15.375L35.5 4.5175781 z M 7 17L7 18L7 24L13 24L13 17L7 17 z M 16 17L16 18L16 24L22 24L22 17L16 17 z M 28 17L28 18L28 24L34 24L34 17L28 17 z M 37 17L37 18L37 24L43 24L43 17L37 17 z M 9 19L11 19L11 22L9 22L9 19 z M 18 19L20 19L20 22L18 22L18 19 z M 30 19L32 19L32 22L30 22L30 19 z M 39 19L41 19L41 22L39 22L39 19 z M 7 26L7 27L7 33L13 33L13 26L7 26 z M 16 26L16 27L16 33L22 33L22 26L16 26 z M 28 26L28 27L28 33L34 33L34 26L28 26 z M 37 26L37 27L37 33L43 33L43 26L37 26 z M 9 28L11 28L11 31L9 31L9 28 z M 18 28L20 28L20 31L18 31L18 28 z M 30 28L32 28L32 31L30 31L30 28 z M 39 28L41 28L41 31L39 31L39 28 z M 7 35L7 36L7 42L13 42L13 35L7 35 z M 16 35L16 36L16 42L22 42L22 35L16 35 z M 28 35L28 36L28 42L34 42L34 35L28 35 z M 37 35L37 36L37 42L43 42L43 35L37 35 z M 9 37L11 37L11 40L9 40L9 37 z M 18 37L20 37L20 40L18 40L18 37 z M 30 37L32 37L32 40L30 40L30 37 z M 39 37L41 37L41 40L39 40L39 37 z"/></svg>