<svg xmlns="http://www.w3.org/2000/svg" xmlns:xlink="http://www.w3.org/1999/xlink" viewBox="0 0 50 50"><path d="M13.5 2L3 14L3 46L24 46L24 14L13.5 2 z M 36.5 2L26 14L26 46L47 46L47 14L36.5 2 z M 7 18L11 18L11 23L7 23L7 18 z M 16 18L20 18L20 23L16 23L16 18 z M 30 18L34 18L34 23L30 23L30 18 z M 39 18L43 18L43 23L39 23L39 18 z M 7 27L11 27L11 32L7 32L7 27 z M 16 27L20 27L20 32L16 32L16 27 z M 30 27L34 27L34 32L30 32L30 27 z M 39 27L43 27L43 32L39 32L39 27 z M 7 36L11 36L11 41L7 41L7 36 z M 16 36L20 36L20 41L16 41L16 36 z M 30 36L34 36L34 41L30 41L30 36 z M 39 36L43 36L43 41L39 41L39 36 z"/></svg>