<svg xmlns="http://www.w3.org/2000/svg" xmlns:xlink="http://www.w3.org/1999/xlink" viewBox="0 0 50 50"><path d="M25 3C24.8405 3 24.680156 3.0372812 24.535156 3.1132812L3.5351562 14.113281C3.2061563 14.286281 3 14.628 3 15L3 17C3 17.552 3.448 18 4 18L46 18C46.553 18 47 17.552 47 17L47 15C47 14.628 46.794844 14.286281 46.464844 14.113281L25.464844 3.1132812C25.319844 3.0372812 25.1595 3 25 3 z M 25 9C26.656 9 28 10.343 28 12C28 13.657 26.656 15 25 15C23.343 15 22 13.657 22 12C22 10.343 23.343 9 25 9 z M 8 20C7.448 20 7 20.448 7 21L7 35L13 35L13 21C13 20.448 12.552 20 12 20L8 20 z M 18 20C17.448 20 17 20.448 17 21L17 35L23 35L23 21C23 20.448 22.552 20 22 20L18 20 z M 28 20C27.448 20 27 20.448 27 21L27 35L32.853516 35C31.417516 33.807 30.5 32.009 30.5 30C30.5 27.925 31.481 26.077719 33 24.886719L33 21C33 20.448 32.552 20 32 20L28 20 z M 38 20C37.448 20 37 20.448 37 21L37 23.5C39.7 23.5 42.019 25.154906 43 27.503906L43 21C43 20.448 42.552 20 42 20L38 20 z M 37 25.5C34.519 25.5 32.5 27.519 32.5 30C32.5 32.481 34.519 34.5 37 34.5C39.481 34.5 41.5 32.481 41.5 30C41.5 27.519 39.481 25.5 37 25.5 z M 5 37C4.448 37 4 37.447 4 38L4 40L3 40C2.448 40 2 40.447 2 41L2 44C2 44.553 2.448 45 3 45L26 45L26 42.558594C26 40.351594 26.967422 38.381 28.482422 37L5 37 z M 33.558594 37C30.492594 37 28 39.492594 28 42.558594L28 47C28 47.553 28.447 48 29 48L45 48C45.553 48 46 47.553 46 47L46 42.558594C46 39.492594 43.506406 37 40.441406 37L33.558594 37 z"/></svg>