<svg xmlns="http://www.w3.org/2000/svg" xmlns:xlink="http://www.w3.org/1999/xlink" viewBox="0 0 50 50"><path d="M24.982422 3 A 1.0001 1.0001 0 0 0 24.535156 3.1132812L3.5351562 14.113281 A 1.0001 1.0001 0 0 0 3 15L3 18 A 1.0001 1.0001 0 0 0 4 19L6.9921875 19L6.9921875 37L5 37C4.448 37 4 37.447 4 38L4 40L3 40C2.448 40 2 40.447 2 41L2 44C2 44.553 2.448 45 3 45L26 45L26 43L4 43L4 42L5 42C5.552 42 6 41.553 6 41L6 39L7.9609375 39C7.9746593 39.000553 7.9861416 39.007812 8 39.007812L12 39.007812C12.013858 39.007812 12.025341 39.000553 12.039062 39L17.960938 39C17.974659 39.000553 17.986142 39.007812 18 39.007812L22 39.007812C22.013858 39.007812 22.025341 39.000553 22.039062 39L26.908203 39C26.991482 38.84531 27.083895 38.696231 27.177734 38.548828C27.178544 38.550032 27.178874 38.551533 27.179688 38.552734C27.354618 38.276208 27.549768 38.015688 27.755859 37.763672C27.981591 37.494539 28.222622 37.237083 28.482422 37L28.464844 37C28.638391 36.839391 28.818444 36.686035 29.007812 36.542969L29.007812 19.007812L30.992188 19.007812L30.992188 26.425781C31.504188 25.567781 32.190812 24.827812 33.007812 24.257812L33.007812 19L36.992188 19L36.992188 23L37 23C37.698 23 38.370813 23.105875 39.007812 23.296875L39.007812 19.007812L40.992188 19.007812L40.992188 24.257812C41.809188 24.827813 42.494812 25.567781 43.007812 26.425781L43.007812 19L46 19 A 1.0001 1.0001 0 0 0 47 18L47 15 A 1.0001 1.0001 0 0 0 46.464844 14.113281L25.464844 3.1132812 A 1.0001 1.0001 0 0 0 24.982422 3 z M 25 5.1308594L45 15.605469L45 17L42.039062 17C42.025341 16.999447 42.013858 16.992188 42 16.992188L38 16.992188C37.986142 16.992188 37.974659 16.999447 37.960938 17L32.039062 17C32.025341 16.999447 32.013858 16.992188 32 16.992188L28 16.992188C27.986142 16.992188 27.974659 16.999447 27.960938 17L22.039062 17C22.025341 16.999447 22.013858 16.992188 22 16.992188L18 16.992188C17.986142 16.992188 17.974659 16.999447 17.960938 17L12.039062 17C12.025341 16.999447 12.013858 16.992188 12 16.992188L8 16.992188C7.9861416 16.992188 7.9746593 16.999447 7.9609375 17L5 17L5 15.605469L25 5.1308594 z M 25 8C23.75 8 22.685226 8.5047556 22.001953 9.2734375C21.318681 10.042119 21 11.027778 21 12C21 12.972222 21.318681 13.957881 22.001953 14.726562C22.685226 15.495245 23.75 16 25 16C26.25 16 27.314774 15.495244 27.998047 14.726562C28.681319 13.957882 29 12.972222 29 12C29 11.027778 28.681319 10.042119 27.998047 9.2734375C27.314774 8.5047556 26.25 8 25 8 z M 25 10C25.749999 10 26.185226 10.245244 26.501953 10.601562C26.81868 10.957882 27 11.472222 27 12C27 12.527778 26.81868 13.042119 26.501953 13.398438C26.185226 13.754755 25.749999 14 25 14C24.250001 14 23.814774 13.754756 23.498047 13.398438C23.18132 13.042118 23 12.527778 23 12C23 11.472222 23.18132 10.957881 23.498047 10.601562C23.814774 10.245245 24.250001 10 25 10 z M 13.007812 19L16.992188 19L16.992188 37L13.007812 37L13.007812 19 z M 23.007812 19L26.992188 19L26.992188 37L23.007812 37L23.007812 19 z M 9.0078125 19.007812L10.992188 19.007812L10.992188 36.992188L9.0078125 36.992188L9.0078125 19.007812 z M 19.007812 19.007812L20.992188 19.007812L20.992188 36.992188L19.007812 36.992188L19.007812 19.007812 z M 37 25C35.416667 25 34.101892 25.629756 33.251953 26.585938C32.402014 27.542119 32 28.777778 32 30C32 31.222222 32.402014 32.457882 33.251953 33.414062C34.101892 34.370244 35.416667 35 37 35C38.583333 35 39.898108 34.370244 40.748047 33.414062C41.597986 32.457881 42 31.222222 42 30C42 28.777778 41.597986 27.542118 40.748047 26.585938C39.898108 25.629756 38.583333 25 37 25 z M 37 27C38.083333 27 38.768559 27.370244 39.251953 27.914062C39.735347 28.457881 40 29.222222 40 30C40 30.777778 39.735347 31.542118 39.251953 32.085938C38.768559 32.629756 38.083333 33 37 33C35.916667 33 35.231441 32.629756 34.748047 32.085938C34.264653 31.542119 34 30.777778 34 30C34 29.222222 34.264653 28.457882 34.748047 27.914062C35.231441 27.370244 35.916667 27 37 27 z M 33.558594 37C30.501003 37 28 39.500218 28 42.558594L28 47 A 1.0001 1.0001 0 1 0 30 47L30 42.558594C30 40.58097 31.582184 39 33.558594 39L40.441406 39C42.41903 39 44 40.58097 44 42.558594L44 47 A 1.0001 1.0001 0 1 0 46 47L46 42.558594C46 39.500218 43.499782 37 40.441406 37L33.558594 37 z"/></svg>