<svg xmlns="http://www.w3.org/2000/svg" xmlns:xlink="http://www.w3.org/1999/xlink" viewBox="0 0 50 50"><path d="M9 0C7.355469 0 6 1.355469 6 3L6 50L44 50L44 3C44 1.355469 42.644531 0 41 0 Z M 9 2L41 2C41.554688 2 42 2.445313 42 3L42 48L38 48L38 36L27 36L27 48L8 48L8 3C8 2.445313 8.445313 2 9 2 Z M 12 6L12 14L23 14L23 6 Z M 27 6L27 14L38 14L38 6 Z M 14 8L21 8L21 12L14 12 Z M 29 8L36 8L36 12L29 12 Z M 12 16L12 24L23 24L23 16 Z M 27 16L27 24L38 24L38 16 Z M 14 18L21 18L21 22L14 22 Z M 29 18L36 18L36 22L29 22 Z M 12 26L12 34L23 34L23 26 Z M 27 26L27 34L38 34L38 26 Z M 14 28L21 28L21 32L14 32 Z M 29 28L36 28L36 32L29 32 Z M 12 36L12 44L23 44L23 36 Z M 14 38L21 38L21 42L14 42 Z M 29 38L36 38L36 48L29 48Z"/></svg>