<svg xmlns="http://www.w3.org/2000/svg" xmlns:xlink="http://www.w3.org/1999/xlink" viewBox="0 0 50 50"><path d="M25 4.257813L18.878906 13L15 13L15 19C15 19.523438 15.191406 20.054688 15.566406 20.433594C15.945313 20.808594 16.476563 21 17 21L17 26L16 26L16 24L10 24L10 26L9 26L9 24L3 24L3 30C3 30.523438 3.191406 31.054688 3.570313 31.433594C3.945313 31.808594 4.476563 32 5 32L5 46L45 46L45 32C45.523438 32 46.054688 31.808594 46.433594 31.433594C46.808594 31.054688 47 30.523438 47 30L47 24L41 24L41 26L40 26L40 24L34 24L34 26L33 26L33 21C33.523438 21 34.054688 20.808594 34.433594 20.433594C34.808594 20.054688 35 19.523438 35 19L35 13L31.121094 13 Z M 25 7.742188L29 13.457031L29 15L28 15L28 13L22 13L22 15L21 15L21 13.457031 Z M 17 15L19 15L19 17L24 17L24 15L26 15L26 17L31 17L31 15L33 15L33 19L17 19 Z M 19 21L31 21L31 24L27 24L27 30C27 30.523438 27.191406 31.054688 27.566406 31.433594C27.945313 31.808594 28.476563 32 29 32L43 32L43 44L31 44L31 40C31 36.675781 28.324219 34 25 34C21.675781 34 19 36.675781 19 40L19 44L7 44L7 32L21 32C21.523438 32 22.054688 31.808594 22.433594 31.433594C22.808594 31.054688 23 30.523438 23 30L23 24L19 24 Z M 5 26L7 26L7 28L12 28L12 26L14 26L14 28L19 28L19 26L21 26L21 30L5 30 Z M 29 26L31 26L31 28L36 28L36 26L38 26L38 28L43 28L43 26L45 26L45 30L29 30 Z M 13 35C12.398438 35 12 35.398438 12 36L12 39L14 39L14 36C14 35.398438 13.601563 35 13 35 Z M 37 35C36.398438 35 36 35.398438 36 36L36 39L38 39L38 36C38 35.398438 37.601563 35 37 35 Z M 25 36C27.277344 36 29 37.722656 29 40L29 44L21 44L21 40C21 37.722656 22.722656 36 25 36Z"/></svg>