<svg xmlns="http://www.w3.org/2000/svg" xmlns:xlink="http://www.w3.org/1999/xlink" viewBox="0 0 50 50"><path d="M13 5C11.35503 5 10 6.3550302 10 8L10 9.1445312C8.2841988 9.5944004 7 11.149665 7 13L7 26.298828C5.9850686 26.62056 5.1369617 27.184053 4.5019531 27.898438C3.4853474 29.042119 3 30.527778 3 32C3 33.472222 3.4853474 34.957881 4.5019531 36.101562C5.1369617 36.815947 5.9850686 37.37944 7 37.701172L7 43L1 43L1 45L47 45L49 45L49 44L49 43L45 43L45 24L43.935547 24L42.935547 9L38.064453 9L37.064453 24L33 24L23 24L23 8C23 6.3550302 21.64497 5 20 5L13 5 z M 13 7L20 7C20.56503 7 21 7.4349698 21 8L21 24L15 24L15 13C15 11.149665 13.715801 9.5944004 12 9.1445312L12 8C12 7.4349698 12.43497 7 13 7 z M 11 11C12.116666 11 13 11.883334 13 13L13 18L9 18L9 13C9 11.883334 9.8833339 11 11 11 z M 39.935547 11L41.064453 11L42.064453 26L43 26L43 43L15 43L15 32L15 26L33 26L38.935547 26L40 26L40 24L39.068359 24L39.935547 11 z M 9 20L13 20L13 27.544922C11.936235 26.588419 10.535616 26 9 26L9 20 z M 9 28C11.220986 28 13 29.779015 13 32C13 34.220985 11.220986 36 9 36C7.5833342 36 6.6481071 35.504756 5.9980469 34.773438C5.3479866 34.042119 5 33.027778 5 32C5 30.972222 5.3479866 29.957882 5.9980469 29.226562C6.6481071 28.495244 7.5833342 28 9 28 z M 18 29L18 31L22 31L22 29L18 29 z M 24 29L24 31L28 31L28 29L24 29 z M 31 29L31 31L35 31L35 29L31 29 z M 37 29L37 31L41 31L41 29L37 29 z M 18 34L18 36L22 36L22 34L18 34 z M 24 34L24 36L28 36L28 34L24 34 z M 31 34L31 36L35 36L35 34L31 34 z M 37 34L37 36L41 36L41 34L37 34 z M 13 36.455078L13 43L9 43L9 38C10.535616 38 11.936235 37.411581 13 36.455078 z"/></svg>