<svg xmlns="http://www.w3.org/2000/svg" xmlns:xlink="http://www.w3.org/1999/xlink" viewBox="0 0 50 50"><path d="M12 3.6132812L12 28L9 28L9 23L7 23L7 28L4 28L4 29L4 46L21 46L35 46L35 11.279297L32 10.279297L32 4L30 4L30 9.6113281L28 8.9453125L28 4L26 4L26 8.2792969L12 3.6132812 z M 14 6.3886719L33 12.720703L33 44L28 44L28 40.855469C29.715786 40.405591 31 38.850301 31 37C31 34.802706 29.197294 33 27 33C24.802706 33 23 34.802706 23 37C23 38.850301 24.284214 40.405591 26 40.855469L26 44L21 44L21 28L14 28L14 6.3886719 z M 16 12L16 14L22 14L22 12L16 12 z M 37 15L37 17L44 17L44 44L37 44L37 46L46 46L46 15L37 15 z M 16 16L16 18L31 18L31 16L16 16 z M 37 19L37 22L42 22L42 19L37 19 z M 16 20L16 22L24 22L24 20L16 20 z M 26 20L26 22L31 22L31 20L26 20 z M 16 24L16 26L31 26L31 24L16 24 z M 37 24L37 27L42 27L42 24L37 24 z M 23 28L23 30L31 30L31 28L23 28 z M 37 29L37 32L42 32L42 29L37 29 z M 6 30L19 30L19 44L6 44L6 30 z M 8 32L8 34L11 34L11 32L8 32 z M 14 32L14 34L17 34L17 32L14 32 z M 37 34L37 37L42 37L42 34L37 34 z M 27 35C28.116414 35 29 35.883586 29 37C29 38.116414 28.116414 39 27 39C25.883586 39 25 38.116414 25 37C25 35.883586 25.883586 35 27 35 z M 8 36L8 38L11 38L11 36L8 36 z M 14 36L14 38L17 38L17 36L14 36 z M 37 39L37 42L42 42L42 39L37 39 z M 8 40L8 42L11 42L11 40L8 40 z M 14 40L14 42L17 42L17 40L14 40 z"/></svg>