<svg xmlns="http://www.w3.org/2000/svg" xmlns:xlink="http://www.w3.org/1999/xlink" viewBox="0 0 50 50"><path d="M10 4L10 20L2.9941406 20L3.1464844 46L17.046875 46L19.046875 46L33 46L47 46L47 8L31 8L31 9L31 28L25.996094 28L25.996094 4.0078125L10 4 z M 12 6L23.996094 6.0078125L23.996094 28L19.013672 28L18.998047 20L18 20L12 20L12 6 z M 15 8L15 10L17 10L17 8L15 8 z M 19.039062 8L19.039062 10L21 10L21 8L19.039062 8 z M 33 10L45 10L45 44L39.960938 44L39.960938 40L38 40L38 44L33 44L33 28L33 10 z M 15 12L15 14L17 14L17 12L15 12 z M 19 12L19 14L21 14L21 12L19 12 z M 36 12.003906L36 14L38 14L38 12.003906L36 12.003906 z M 40.019531 12.007812L40.019531 14.021484L41.980469 14.021484L41.980469 12.007812L40.019531 12.007812 z M 36 16.015625L36 18L38 18L38 16.015625L36 16.015625 z M 40.019531 16.015625L40.019531 18L41.980469 18L41.980469 16.015625L40.019531 16.015625 z M 36 20L36 22L38 22L38 20L36 20 z M 40 20L40 22L41.980469 22L41.980469 20L40 20 z M 5.0058594 22L17.001953 22L17.013672 28L16.998047 28L17.041016 44L11.980469 44L11.980469 40L10.019531 40L10.019531 44L5.1347656 44L5.0058594 22 z M 8 24L8 26.015625L10.039062 26.015625L10.039062 24L8 24 z M 12.039062 24L12.039062 26.015625L14 26.015625L14 24L12.039062 24 z M 36 24.007812L36 25.998047L38 25.998047L38 24.007812L36 24.007812 z M 40 24.007812L40 25.998047L41.980469 25.998047L41.980469 24.007812L40 24.007812 z M 8 27.984375L8 30L10.039062 30L10.039062 27.984375L8 27.984375 z M 12.039062 27.984375L12.039062 30L14 30L14 27.984375L12.039062 27.984375 z M 36 27.992188L36 30.007812L38 30.007812L38 27.992188L36 27.992188 z M 40.019531 27.992188L40.019531 30.007812L41.980469 30.007812L41.980469 27.992188L40.019531 27.992188 z M 19.017578 30L31 30L31 44L26 44L26 40L24 40L24 44L19.042969 44L19.017578 30 z M 8 32L8 34.015625L10.039062 34.015625L10.039062 32L8 32 z M 12.039062 32L12.039062 34.015625L14 34.015625L14 32L12.039062 32 z M 22 32L22 34.015625L24 34.015625L24 32L22 32 z M 26 32L26 34.015625L28 34.015625L28 32L26 32 z M 36 32L36 34.015625L38 34.015625L38 32L36 32 z M 40.019531 32L40.019531 34.015625L41.980469 34.015625L41.980469 32L40.019531 32 z M 22 35.984375L22 38L24 38L24 35.984375L22 35.984375 z M 26 35.984375L26 38L28 38L28 35.984375L26 35.984375 z M 36 35.984375L36 38L38 38L38 35.984375L36 35.984375 z M 40.019531 35.984375L40.019531 38L41.980469 38L41.980469 35.984375L40.019531 35.984375 z"/></svg>