<svg xmlns="http://www.w3.org/2000/svg" xmlns:xlink="http://www.w3.org/1999/xlink" viewBox="0 0 50 50"><path d="M15 5 A 1.0001 1.0001 0 0 0 14 6L14 25L7 25 A 1.0001 1.0001 0 0 0 6 26L6 29.716797L0.048828125 43.605469 A 1.0001 1.0001 0 0 0 0.96679688 45L49.140625 45 A 1.0001 1.0001 0 0 0 50.046875 43.576172L44 30.621094L44 22 A 1.0001 1.0001 0 0 0 43 21L37 21L37 14 A 1.0001 1.0001 0 0 0 36 13L29 13L29 6 A 1.0001 1.0001 0 0 0 28 5L15 5 z M 16 7L27 7L27 13L23 13 A 1.0001 1.0001 0 0 0 22 14L22 25L16 25L16 7 z M 18 9L18 11L20 11L20 9L18 9 z M 23 9L23 11L25 11L25 9L23 9 z M 18 13L18 15L20 15L20 13L18 13 z M 24 15L35 15L35 21L31 21 A 1.0001 1.0001 0 0 0 30 22L30 39L24 39L24 26L24 15 z M 18 17L18 19L20 19L20 17L18 17 z M 26 17L26 19L28 19L28 17L26 17 z M 31 17L31 19L33 19L33 17L31 17 z M 18 21L18 23L20 23L20 21L18 21 z M 26 21L26 23L28 23L28 21L26 21 z M 32 23L42 23L42 39L34 39L32 39L32 23 z M 26 25L26 27L28 27L28 25L26 25 z M 34 25L34 27L36 27L36 25L34 25 z M 38 25L38 27L40 27L40 25L38 25 z M 8 27L22 27L22 39L8 39L8 27 z M 10 29L10 31L12 31L12 29L10 29 z M 14 29L14 31L16 31L16 29L14 29 z M 18 29L18 31L20 31L20 29L18 29 z M 26 29L26 31L28 31L28 29L26 29 z M 34 29L34 31L36 31L36 29L34 29 z M 38 29L38 31L40 31L40 29L38 29 z M 10 33L10 35L12 35L12 33L10 33 z M 14 33L14 35L16 35L16 33L14 33 z M 18 33L18 35L20 35L20 33L18 33 z M 26 33L26 35L28 35L28 33L26 33 z M 34 33L34 35L36 35L36 33L34 33 z M 38 33L38 35L40 35L40 33L38 33 z M 6 34.796875L6 40 A 1.0001 1.0001 0 0 0 7 41L23 41L34 41L43 41 A 1.0001 1.0001 0 0 0 44 40L44 35.349609L47.570312 43L2.484375 43L6 34.796875 z"/></svg>