<svg xmlns="http://www.w3.org/2000/svg" xmlns:xlink="http://www.w3.org/1999/xlink" viewBox="0 0 50 50"><path d="M25 0C24.449219 0 24 0.449219 24 1L24 4.0625C20.535156 4.449219 17.664063 6.8125 16.53125 10L33.46875 10C32.335938 6.8125 29.464844 4.449219 26 4.0625L26 1C26 0.449219 25.550781 0 25 0 Z M 16 11.96875C15.425781 11.96875 14.96875 12.425781 14.96875 13C14.96875 13.574219 15.425781 14.03125 16 14.03125L16 22.5L18 21.6875L18 14.03125L20 14.03125L20 20.90625L22 20.1875L22 14.03125L24 14.03125L24 19.40625L25 19L26 19.40625L26 14.03125L28 14.03125L28 20.1875L30 20.90625L30 14.03125L32 14.03125L32 21.6875L34 22.5L34 14.03125C34.574219 14.03125 35.03125 13.574219 35.03125 13C35.03125 12.425781 34.574219 11.96875 34 11.96875 Z M 25 21C24.878906 21 24.769531 21.019531 24.65625 21.0625L5.65625 28.375C5.269531 28.523438 5 28.898438 5 29.3125L5 33C5 33.554688 5.449219 34 6 34L44 34C44.554688 34 45 33.554688 45 33L45 29.3125C45 28.898438 44.730469 28.523438 44.34375 28.375L25.34375 21.0625C25.226563 21.019531 25.121094 21 25 21 Z M 7 36L7 49C7 49.554688 7.449219 50 8 50L19.3125 50C19.863281 50 20.3125 49.554688 20.3125 49L20.3125 43.59375C20.3125 41.253906 21.855469 39.273438 24 38.875C25.414063 38.605469 26.851563 38.949219 27.9375 39.84375C29 40.722656 29.59375 42.03125 29.59375 43.40625L29.59375 49C29.59375 49.554688 30.039063 50 30.59375 50L42 50C42.554688 50 43 49.554688 43 49L43 36Z"/></svg>