<svg xmlns="http://www.w3.org/2000/svg" xmlns:xlink="http://www.w3.org/1999/xlink" viewBox="0 0 50 50"><path d="M24.964844 1 A 1.0001 1.0001 0 0 0 24.382812 1.2128906L4.421875 16.835938L1.3828125 19.212891 A 1.0002305 1.0002305 0 1 0 2.6171875 20.787109L4 19.705078L4 46 A 1.0001 1.0001 0 0 0 5 47L45 47 A 1.0001 1.0001 0 0 0 46 46L46 19.705078L47.382812 20.787109 A 1.0002308 1.0002308 0 1 0 48.617188 19.212891L45.632812 16.878906L25.617188 1.2128906 A 1.0001 1.0001 0 0 0 24.964844 1 z M 25 3.2695312L44 18.138672L44 45L6 45L6 18.138672L25 3.2695312 z M 23 20L23 27L16 27L16 31L23 31L23 38L27 38L27 31L34 31L34 27L27 27L27 20L23 20 z"/></svg>