<svg xmlns="http://www.w3.org/2000/svg" xmlns:xlink="http://www.w3.org/1999/xlink" viewBox="0 0 50 50"><path d="M23 11.1875L23 16.59375C28.398438 16.59375 26.585938 18.40625 30.1875 18.40625L32 18.40625L32 13L30.1875 13C26.585938 13 28.398438 11.1875 23 11.1875 Z M 9 21C8.449219 21 8 21.449219 8 22L8 25L42 25L42 22C42 21.449219 41.554688 21 41 21 Z M 1 27C0.449219 27 0 27.445313 0 28L0 49C0 49.554688 0.449219 50 1 50L49 50C49.554688 50 50 49.554688 50 49L50 28C50 27.445313 49.554688 27 49 27 Z M 6 32L9 32L9 37L6 37 Z M 13 32L16 32L16 37L13 37 Z M 20 32L23 32L23 37L20 37 Z M 27 32L30 32L30 37L27 37 Z M 34 32L37 32L37 37L34 37 Z M 41 32L44 32L44 37L41 37 Z M 6 40L9 40L9 45L6 45 Z M 13 40L16 40L16 45L13 45 Z M 20 40L23 40L23 45L20 45 Z M 27 40L30 40L30 45L27 45 Z M 34 40L37 40L37 45L34 45 Z M 41 40L44 40L44 45L41 45Z"/></svg>