<svg xmlns="http://www.w3.org/2000/svg" xmlns:xlink="http://www.w3.org/1999/xlink" viewBox="0 0 50 50"><path d="M23 11.1875L23 16.59375C28.398438 16.59375 26.585938 18.40625 30.1875 18.40625L32 18.40625L32 13L30.1875 13C26.585938 13 28.398438 11.1875 23 11.1875 Z M 8.8125 21C8.335938 21.089844 7.992188 21.511719 8 22L8 27L1 27C0.96875 27 0.9375 27 0.90625 27C0.390625 27.046875 -0.00390625 27.480469 0 28L0 49C0 49.550781 0.449219 50 1 50L49 50C49.550781 50 50 49.550781 50 49L50 28C50 27.449219 49.550781 27 49 27L42 27L42 22C42 21.449219 41.550781 21 41 21L9 21C8.96875 21 8.9375 21 8.90625 21C8.875 21 8.84375 21 8.8125 21 Z M 10 23L40 23L40 27L10 27 Z M 2 29L48 29L48 48L2 48 Z M 6 32L6 37L9 37L9 32 Z M 13 32L13 37L16 37L16 32 Z M 20 32L20 37L23 37L23 32 Z M 27 32L27 37L30 37L30 32 Z M 34 32L34 37L37 37L37 32 Z M 41 32L41 37L44 37L44 32 Z M 6 40L6 45L9 45L9 40 Z M 13 40L13 45L16 45L16 40 Z M 20 40L20 45L23 45L23 40 Z M 27 40L27 45L30 45L30 40 Z M 34 40L34 45L37 45L37 40 Z M 41 40L41 45L44 45L44 40Z"/></svg>