<svg xmlns="http://www.w3.org/2000/svg" xmlns:xlink="http://www.w3.org/1999/xlink" viewBox="0 0 50 50"><path d="M19.699219 1C17.665885 1 16 2.6658854 16 4.6992188L16 15.400391C16 17.433724 17.665885 19.099609 19.699219 19.099609L30.400391 19.099609C32.433724 19.099609 34.099609 17.433724 34.099609 15.400391L34.099609 4.6992188 A 1.0001 1.0001 0 0 0 34.097656 4.6328125C33.964738 2.6383346 32.334115 1 30.300781 1L19.699219 1 z M 19.699219 3L30.300781 3C31.265919 3 32.030467 3.7585597 32.099609 4.7617188L32.099609 15.400391C32.099609 16.367057 31.367057 17.099609 30.400391 17.099609L19.699219 17.099609C18.732552 17.099609 18 16.367057 18 15.400391L18 4.6992188C18 3.7325521 18.732552 3 19.699219 3 z M 24 6L24 9L21 9L21 11L24 11L24 14L26 14L26 11L29 11L29 9L26 9L26 6L24 6 z M 6.6992188 9C4.6658853 9 3 10.665885 3 12.699219L3 46L48 46L48 12.699219C48 10.665885 46.334115 9 44.300781 9L36 9L36 11L44.300781 11C45.267448 11 46 11.732552 46 12.699219L46 44L30 44L30 33L29 33L25.400391 33L20 33L20 44L5 44L5 12.699219C5 11.732552 5.7325521 11 6.6992188 11L14 11L14 9L6.6992188 9 z M 6.9589844 21.958984L6.9589844 30.041016L16.041016 30.041016L16.041016 21.958984L15 21.958984L10.900391 21.958984L6.9589844 21.958984 z M 19.958984 21.958984L19.958984 30.041016L30.041016 30.041016L30.041016 21.958984L29 21.958984L24.900391 21.958984L19.958984 21.958984 z M 33.958984 21.958984L33.958984 30.041016L43.041016 30.041016L43.041016 21.958984L42 21.958984L38.900391 21.958984L33.958984 21.958984 z M 9.0410156 24.041016L10.900391 24.041016L13.958984 24.041016L13.958984 27.958984L9.0410156 27.958984L9.0410156 24.041016 z M 22.041016 24.041016L24.900391 24.041016L27.958984 24.041016L27.958984 27.958984L22.041016 27.958984L22.041016 24.041016 z M 36.041016 24.041016L38.900391 24.041016L40.958984 24.041016L40.958984 27.958984L36.041016 27.958984L36.041016 24.041016 z M 6.9589844 32.958984L6.9589844 41.041016L16.041016 41.041016L16.041016 32.958984L15 32.958984L10.900391 32.958984L6.9589844 32.958984 z M 33.958984 32.958984L33.958984 41.041016L43.041016 41.041016L43.041016 32.958984L42 32.958984L38.900391 32.958984L33.958984 32.958984 z M 22 35L25.400391 35L28 35L28 44L22 44L22 35 z M 9.0410156 35.041016L10.900391 35.041016L13.958984 35.041016L13.958984 38.958984L9.0410156 38.958984L9.0410156 35.041016 z M 36.041016 35.041016L38.900391 35.041016L40.958984 35.041016L40.958984 38.958984L36.041016 38.958984L36.041016 35.041016 z"/></svg>