<svg xmlns="http://www.w3.org/2000/svg" xmlns:xlink="http://www.w3.org/1999/xlink" viewBox="0 0 50 50"><path d="M25 1.9375L2 10.199219L2 48L48 48L48 10.199219 Z M 25 4.0625L46 11.605469L46 13.480469L25 5.9375L4 13.480469L4 11.605469 Z M 4 16L6 16L6 18L4 18 Z M 44 16L46 16L46 18L44 18 Z M 10 19L12 19L12 27L14.78125 27C14.300781 26.46875 14 25.773438 14 25C14 23.34375 15.34375 22 17 22C18.65625 22 20 23.34375 20 25C20 25.773438 19.699219 26.46875 19.21875 27L22 27L22 22L31 22C33.761719 22 36 24.238281 36 27L38 27L38 19L40 19L40 46L38 46L38 44L12 44L12 46L10 46 Z M 4 20L6 20L6 22L4 22 Z M 44 20L46 20L46 22L44 22 Z M 4 24L6 24L6 26L4 26 Z M 44 24L46 24L46 26L44 26 Z M 4 28L6 28L6 30L4 30 Z M 44 28L46 28L46 30L44 30 Z M 12 29L12 42L14.78125 42C14.300781 41.46875 14 40.773438 14 40C14 38.34375 15.34375 37 17 37C18.65625 37 20 38.34375 20 40C20 40.773438 19.699219 41.46875 19.21875 42L22 42L22 37L31 37C33.761719 37 36 39.238281 36 42L38 42L38 29 Z M 4 32L6 32L6 34L4 34 Z M 44 32L46 32L46 34L44 34 Z M 4 36L6 36L6 38L4 38 Z M 44 36L46 36L46 38L44 38 Z M 4 40L6 40L6 42L4 42 Z M 44 40L46 40L46 42L44 42 Z M 4 44L6 44L6 46L4 46 Z M 44 44L46 44L46 46L44 46Z"/></svg>