<svg xmlns="http://www.w3.org/2000/svg" xmlns:xlink="http://www.w3.org/1999/xlink" viewBox="0 0 50 50"><path d="M24.964844 1 A 1.0001 1.0001 0 0 0 24.382812 1.2128906L1.3828125 19.212891 A 1.0002305 1.0002305 0 1 0 2.6171875 20.787109L4.3886719 19.400391L6 19.400391L6 18.138672L25 3.2695312L44 18.138672L44 19.400391L45.611328 19.400391L47.382812 20.787109 A 1.0002308 1.0002308 0 1 0 48.617188 19.212891L25.617188 1.2128906 A 1.0001 1.0001 0 0 0 24.964844 1 z M 11 21L11 45L8.8945312 45L8.8945312 47L12.683594 47L12.683594 46L13 46L13 44L37 44L37 46L37.316406 46L37.316406 47L41.105469 47L41.105469 45L39 45L39 43L39 42L39 31L39 30L39 29L39 21L37 21L37 24.544922C35.936212 23.588387 34.535504 23 33 23L25 23L25 29L21.611328 29C22.453799 28.264839 23 27.197129 23 26C23 23.802706 21.197294 22 19 22C16.802706 22 15 23.802706 15 26C15 27.197129 15.546201 28.264839 16.388672 29L13 29L13 21L11 21 z M 4 21.292969L4 25.078125L6 25.078125L6 21.292969L4 21.292969 z M 44 21.292969L44 25.076172L46 25.076172L46 21.292969L44 21.292969 z M 19 24C20.116414 24 21 24.883586 21 26C21 27.116414 20.116414 28 19 28C17.883586 28 17 27.116414 17 26C17 24.883586 17.883586 24 19 24 z M 27 25L33 25C35.220375 25 37 26.779625 37 29L27 29L27 25 z M 4 26.96875L4 30.753906L6 30.753906L6 26.96875L4 26.96875 z M 44 26.96875L44 30.753906L46 30.753906L46 26.96875L44 26.96875 z M 13 31L37 31L37 37.544922C35.936212 36.588387 34.535504 36 33 36L25 36L25 42L21.611328 42C22.453799 41.264839 23 40.197129 23 39C23 36.802706 21.197294 35 19 35C16.802706 35 15 36.802706 15 39C15 40.197129 15.546201 41.264839 16.388672 42L13 42L13 31 z M 4 32.646484L4 36.431641L6 36.431641L6 32.646484L4 32.646484 z M 44 32.646484L44 36.429688L46 36.429688L46 32.646484L44 32.646484 z M 19 37C20.116414 37 21 37.883586 21 39C21 40.116414 20.116414 41 19 41C17.883586 41 17 40.116414 17 39C17 37.883586 17.883586 37 19 37 z M 27 38L33 38C35.220375 38 37 39.779625 37 42L27 42L27 38 z M 44 38.322266L44 42.107422L46 42.107422L46 38.322266L44 38.322266 z M 4 38.324219L4 42.107422L6 42.107422L6 38.324219L4 38.324219 z M 4 44L4 46 A 1.0001 1.0001 0 0 0 5 47L7 47L7 45L6 45L6 44L4 44 z M 44 44L44 45L43 45L43 47L45 47 A 1.0001 1.0001 0 0 0 46 46L46 44L44 44 z M 14.578125 45L14.578125 47L18.369141 47L18.369141 45L14.578125 45 z M 20.263672 45L20.263672 47L24.052734 47L24.052734 45L20.263672 45 z M 25.947266 45L25.947266 47L29.736328 47L29.736328 45L25.947266 45 z M 31.630859 45L31.630859 47L35.419922 47L35.419922 45L31.630859 45 z"/></svg>