<svg xmlns="http://www.w3.org/2000/svg" xmlns:xlink="http://www.w3.org/1999/xlink" viewBox="0 0 50 50"><path d="M12.691406 0L11.564453 2.3320312L9 2.6386719L10.949219 4.3613281L10.435547 7L12.691406 5.6816406L14.949219 7L14.435547 4.3613281L16.384766 2.6386719L13.820312 2.3320312L12.691406 0 z M 14.949219 7L10.435547 7L9.3007812 7C6.3307812 7 4 9.3307812 4 12.300781L4 45C4 45.55 4.45 46 5 46L22 46L22 36L28 36L28 46L45 46C45.55 46 46 45.55 46 45L46 12.300781C46 9.3307812 43.669219 7 40.699219 7L39.564453 7L35.050781 7L31.359375 7L26.845703 7L23.154297 7L18.640625 7L14.949219 7 z M 18.640625 7L20.896484 5.6816406L23.154297 7L22.640625 4.3613281L24.589844 2.6386719L22.025391 2.3320312L20.896484 0L19.769531 2.3320312L17.205078 2.6386719L19.154297 4.3613281L18.640625 7 z M 26.845703 7L29.103516 5.6816406L31.359375 7L30.845703 4.3613281L32.794922 2.6386719L30.230469 2.3320312L29.103516 0L27.974609 2.3320312L25.410156 2.6386719L27.359375 4.3613281L26.845703 7 z M 35.050781 7L37.308594 5.6816406L39.564453 7L39.050781 4.3613281L41 2.6386719L38.435547 2.3320312L37.308594 0L36.179688 2.3320312L33.615234 2.6386719L35.564453 4.3613281L35.050781 7 z M 10 12L16 12L16 16L10 16L10 12 z M 22 12L28 12L28 16L22 16L22 12 z M 34 12L40 12L40 16L34 16L34 12 z M 10 20L16 20L16 24L10 24L10 20 z M 22 20L28 20L28 24L22 24L22 20 z M 34 20L40 20L40 24L34 24L34 20 z M 10 28L16 28L16 32L10 32L10 28 z M 22 28L28 28L28 32L22 32L22 28 z M 34 28L40 28L40 32L34 32L34 28 z M 10 36L16 36L16 40L10 40L10 36 z M 34 36L40 36L40 40L34 40L34 36 z"/></svg>