<?xml version="1.0" encoding="utf-8"?><svg version="1.1" id="Layer_1" xmlns="http://www.w3.org/2000/svg" xmlns:xlink="http://www.w3.org/1999/xlink" x="0px" y="0px" viewBox="0 0 121.47 122.88" style="enable-background:new 0 0 121.47 122.88" xml:space="preserve"><g><path d="M16.85,13.78h6.3V2.33c0-1.24,1.01-2.25,2.25-2.25c1.24,0,2.25,1.01,2.25,2.25v11.45h6.3c1.44,0,2.75,0.59,3.69,1.53 l0.11,0.12c0.88,0.94,1.42,2.19,1.42,3.57v17.03h8.33c0.55,0,1,0.45,1,1v14.43h24.45V37.03c0-0.55,0.45-1,1-1h9.14V19.01 c0-1.44,0.59-2.74,1.53-3.69l0.01-0.01c0.95-0.95,2.25-1.53,3.69-1.53h6.3V2.25c0-1.24,1.01-2.25,2.25-2.25 c1.24,0,2.25,1.01,2.25,2.25v11.53h6.3c1.44,0,2.74,0.59,3.69,1.53l0.01,0.01c0.95,0.95,1.53,2.25,1.53,3.69v17.03h9.81 c0.55,0,1,0.45,1,1v82.33v3.26v0.25h-14.14v-0.03H86.61v0.03H72.96v-0.03H48.51v0.03H34.85v-0.03H14.14v0.03H0v-1.16v-1.46V37.03 c0-0.55,0.45-1,1-1h10.62V19.01c0-1.44,0.59-2.74,1.53-3.69l0.01-0.01C14.1,14.37,15.41,13.78,16.85,13.78L16.85,13.78z M86.79,36.04h20.18v-6.69H86.79V36.04L86.79,36.04z M86.79,25.67h20.18v-6.66c0-0.42-0.17-0.81-0.45-1.09 c-0.28-0.28-0.66-0.45-1.09-0.45H88.32c-0.42,0-0.81,0.17-1.09,0.45c-0.28,0.28-0.45,0.66-0.45,1.09V25.67L86.79,25.67z M35.49,29.35H15.31v6.69h20.18V29.35L35.49,29.35z M15.31,25.67h20.18v-6.66c0-0.39-0.15-0.75-0.39-1.02l-0.06-0.06 c-0.28-0.28-0.66-0.45-1.08-0.45H16.85c-0.42,0-0.81,0.17-1.09,0.45c-0.28,0.28-0.45,0.66-0.45,1.09V25.67L15.31,25.67z M34.85,119.14v-18.57c0-5.7-4.66-10.36-10.36-10.36l0,0c-5.7,0-10.36,4.66-10.36,10.36v18.57H34.85L34.85,119.14z M37.8,64.86 c0.05,0,0.11,0,0.16,0.01v-8.52c0-0.95-0.78-1.73-1.73-1.73h-8.68v10.24H37.8L37.8,64.86z M37.96,68.54 c-0.05,0-0.11,0.01-0.16,0.01H27.55v10.24h8.68c0.95,0,1.73-0.78,1.73-1.73V68.54L37.96,68.54z M23.87,78.79V68.55H13.62 c-0.05,0-0.11,0-0.16-0.01v8.52c0,0.95,0.78,1.73,1.73,1.73H23.87L23.87,78.79z M13.46,64.87c0.05,0,0.11-0.01,0.16-0.01h10.24 V54.61h-8.68c-0.95,0-1.73,0.78-1.73,1.73V64.87L13.46,64.87z M107.32,119.14v-18.57c0-5.7-4.66-10.36-10.36-10.36h0 c-5.7,0-10.36,4.66-10.36,10.36v18.57H107.32L107.32,119.14z M72.44,102.08H49.02v17.07h23.42V102.08L72.44,102.08z M49.02,72.4 h23.42V55.17H49.02V72.4L49.02,72.4z M99.53,54.61v10.24h10.24c0.05,0,0.11,0,0.16,0.01v-8.53c0-0.95-0.77-1.72-1.72-1.72H99.53 L99.53,54.61z M109.94,68.54c-0.05,0-0.11,0.01-0.16,0.01H99.53v10.24h8.69c0.95,0,1.72-0.77,1.72-1.72V68.54L109.94,68.54z M95.85,78.79V68.55H85.6c-0.05,0-0.11,0-0.16-0.01v8.53c0,0.95,0.77,1.72,1.72,1.72H95.85L95.85,78.79z M85.44,64.87 c0.05,0,0.11-0.01,0.16-0.01h10.24V54.61h-8.69c-0.95,0-1.72,0.77-1.72,1.72V64.87L85.44,64.87z"/></g></svg>