<svg xmlns="http://www.w3.org/2000/svg" xmlns:xlink="http://www.w3.org/1999/xlink" viewBox="0 0 50 50"><path d="M25 1.9980469C24.8425 1.9980469 24.684062 2.034375 24.539062 2.109375L3.5390625 13.109375C3.2090625 13.289375 3 13.63 3 14L3 16L47 16L47 14C47 13.63 46.790937 13.289375 46.460938 13.109375L25.460938 2.109375C25.315938 2.034375 25.1575 1.9980469 25 1.9980469 z M 5 18L5 19.400391C5 20.650391 5.84 21.669687 7 21.929688L7 38L15 38L15 21.929688C16.16 21.669688 17 20.650391 17 19.400391L17 18L5 18 z M 19 18L19 19.400391C19 20.650391 19.84 21.669687 21 21.929688L21 38L29 38L29 21.929688C30.16 21.669688 31 20.650391 31 19.400391L31 18L19 18 z M 33 18L33 19.400391C33 20.650391 33.84 21.669687 35 21.929688L35 38L43 38L43 21.929688C44.16 21.669688 45 20.650391 45 19.400391L45 18L33 18 z M 4 40C3.56 40 3.0707031 40.159219 2.7207031 40.449219C2.2607031 40.839219 2 41.419297 2 42.029297L2 44.779297C2 46.019297 2.9196094 47 4.0996094 47L45.800781 47C46.960781 47 47.900391 46.050859 47.900391 44.880859L47.900391 42.130859C47.900391 40.960859 46.960781 40.009766 45.800781 40.009766C45.800781 40.009766 4.08 40 4 40 z"/></svg>