<svg xmlns="http://www.w3.org/2000/svg" xmlns:xlink="http://www.w3.org/1999/xlink" viewBox="0 0 50 50" width="50" height="50"><path d="M24.875 0C24.59375 0.0429688 24.34375 0.199219 24.1875 0.4375L17.1875 10.4375C17.070313 10.601563 17.003906 10.796875 17 11L17 23L19 23L19 12L31 12L31 23L33 23L33 11C32.996094 10.796875 32.929688 10.601563 32.8125 10.4375L25.8125 0.4375C25.605469 0.128906 25.246094 -0.0390625 24.875 0 Z M 25 2.71875L30.09375 10L19.90625 10 Z M 4.3125 6C3.972656 6.0625 3.6875 6.300781 3.5625 6.625L0.15625 15.4375L0.09375 15.5625C0.0820313 15.574219 0.0742188 15.582031 0.0625 15.59375L0.0625 15.625C0.0507813 15.65625 0.0390625 15.6875 0.03125 15.71875C0.015625 15.78125 0.00390625 15.84375 0 15.90625C0 15.9375 0 15.96875 0 16C-0.0078125 16.074219 -0.0078125 16.144531 0 16.21875L0 49C0 49.550781 0.449219 50 1 50L13.90625 50C14.457031 50 14.90625 49.550781 14.90625 49C14.90625 41.175781 23.75 36.0625 25 35.375C26.25 36.0625 35.09375 41.175781 35.09375 49C35.09375 49.550781 35.542969 50 36.09375 50L49 50C49.550781 50 50 49.550781 50 49L50 16.15625C50.003906 16.105469 50.003906 16.050781 50 16C50 15.988281 50 15.980469 50 15.96875C50 15.949219 50 15.925781 50 15.90625C50 15.894531 50 15.886719 50 15.875C49.992188 15.855469 49.980469 15.832031 49.96875 15.8125C49.96875 15.792969 49.96875 15.769531 49.96875 15.75C49.96875 15.738281 49.96875 15.730469 49.96875 15.71875C49.960938 15.699219 49.949219 15.675781 49.9375 15.65625C49.9375 15.644531 49.9375 15.636719 49.9375 15.625L46.4375 6.625C46.273438 6.210938 45.851563 5.953125 45.40625 6C45.375 6 45.34375 6 45.3125 6C44.972656 6.0625 44.6875 6.300781 44.5625 6.625L41.09375 15.53125C41.066406 15.589844 41.046875 15.65625 41.03125 15.71875C41.019531 15.75 41.007813 15.78125 41 15.8125C41 15.824219 41 15.832031 41 15.84375C41 15.863281 41 15.886719 41 15.90625C41 15.9375 41 15.96875 41 16C40.992188 16.074219 40.992188 16.144531 41 16.21875L41 24L9 24L9 16.15625C9.003906 16.105469 9.003906 16.050781 9 16C9 15.988281 9 15.980469 9 15.96875C9 15.949219 9 15.925781 9 15.90625C9 15.894531 9 15.886719 9 15.875C8.992188 15.855469 8.980469 15.832031 8.96875 15.8125C8.96875 15.792969 8.96875 15.769531 8.96875 15.75C8.96875 15.738281 8.96875 15.730469 8.96875 15.71875C8.960938 15.699219 8.949219 15.675781 8.9375 15.65625C8.9375 15.644531 8.9375 15.636719 8.9375 15.625L5.4375 6.625C5.273438 6.210938 4.851563 5.953125 4.40625 6C4.375 6 4.34375 6 4.3125 6 Z M 4.5 9.78125L6.53125 15L2.46875 15 Z M 45.5 9.78125L47.53125 15L43.46875 15 Z M 12.8125 13C12.464844 13.070313 12.179688 13.320313 12.0625 13.65625L10.0625 18.9375C10.019531 19.058594 9.996094 19.183594 10 19.3125L10 23L12 23L12 19.5L13 16.84375L14 19.5L14 23L16 23L16 19.3125C16.003906 19.183594 15.980469 19.058594 15.9375 18.9375L13.9375 13.65625C13.78125 13.226563 13.359375 12.957031 12.90625 13C12.875 13 12.84375 13 12.8125 13 Z M 36.8125 13C36.464844 13.070313 36.179688 13.320313 36.0625 13.65625L34.0625 18.9375C34.019531 19.058594 33.996094 19.183594 34 19.3125L34 23L36 23L36 19.5L37 16.84375L38 19.5L38 23L40 23L40 19.3125C40.003906 19.183594 39.980469 19.058594 39.9375 18.9375L37.9375 13.65625C37.78125 13.226563 37.359375 12.957031 36.90625 13C36.875 13 36.84375 13 36.8125 13 Z M 25 15C22.789063 15 21 16.789063 21 19L21 23L23 23L23 19C23 17.808594 23.808594 17 25 17C26.191406 17 27 17.808594 27 19L27 23L29 23L29 19C29 16.789063 27.210938 15 25 15 Z M 2 17L7 17L7 25C7 25.550781 7.449219 26 8 26L42 26C42.550781 26 43 25.550781 43 25L43 17L48 17L48 48L36.9375 48C36.167969 38.648438 25.4375 33.3125 25.4375 33.3125C25.160156 33.179688 24.839844 33.179688 24.5625 33.3125C24.5625 33.3125 13.832031 38.648438 13.0625 48L2 48 Z M 10.3125 30.5L9.40625 31.40625C8.707031 32.007813 8.40625 32.789063 8.40625 33.6875L8.40625 37.90625L12.1875 37.90625L12.1875 33.6875C12.1875 32.886719 11.789063 32.007813 11.1875 31.40625 Z M 39.8125 30.5L38.90625 31.40625C38.207031 32.007813 37.90625 32.789063 37.90625 33.6875L37.90625 37.90625L41.6875 37.90625L41.6875 33.6875C41.6875 32.886719 41.289063 32.007813 40.6875 31.40625Z"/></svg>