<svg xmlns="http://www.w3.org/2000/svg" xmlns:xlink="http://www.w3.org/1999/xlink" viewBox="0 0 50 50" width="50" height="50"><path d="M25 0.03125C24.683594 0.03125 24.375 0.171875 24.1875 0.4375L17.46875 10L32.53125 10L25.8125 0.4375C25.625 0.171875 25.316406 0.03125 25 0.03125 Z M 4.5 6C4.085938 6 3.710938 6.238281 3.5625 6.625L0.3125 15L8.6875 15L5.4375 6.625C5.289063 6.238281 4.914063 6 4.5 6 Z M 45.5 6C45.089844 6 44.710938 6.238281 44.5625 6.625L41.3125 15L49.6875 15L46.4375 6.625C46.289063 6.238281 45.910156 6 45.5 6 Z M 17 12L17 23L22 23L22 19C22 17.300781 23.300781 16 25 16C26.699219 16 28 17.300781 28 19L28 23L33 23L33 12 Z M 13 13C12.585938 13 12.210938 13.265625 12.0625 13.65625L10.0625 18.9375C10.019531 19.050781 10 19.191406 10 19.3125L10 23L16 23L16 19.3125C16 19.191406 15.980469 19.050781 15.9375 18.9375L13.9375 13.65625C13.789063 13.265625 13.414063 13 13 13 Z M 37 13C36.585938 13 36.210938 13.265625 36.0625 13.65625L34.0625 18.9375C34.019531 19.050781 34 19.191406 34 19.3125L34 23L40 23L40 19.3125C40 19.191406 39.980469 19.050781 39.9375 18.9375L37.9375 13.65625C37.789063 13.265625 37.414063 13 37 13 Z M 0 17L0 49C0 49.554688 0.449219 50 1 50L13.90625 50C14.457031 50 14.90625 49.554688 14.90625 49C14.90625 41.550781 22.984375 36.492188 25 35.34375C27.015625 36.488281 35.09375 41.535156 35.09375 49C35.09375 49.554688 35.539063 50 36.09375 50L49 50C49.554688 50 50 49.554688 50 49L50 17L41 17L41 24L9 24L9 17 Z M 10.3125 30.5L11.1875 31.40625C11.789063 32.007813 12.1875 32.886719 12.1875 33.6875L12.1875 37.90625L8.40625 37.90625L8.40625 33.6875C8.40625 32.789063 8.707031 32.007813 9.40625 31.40625 Z M 39.8125 30.5L40.6875 31.40625C41.289063 32.007813 41.6875 32.886719 41.6875 33.6875L41.6875 37.90625L37.90625 37.90625L37.90625 33.6875C37.90625 32.789063 38.207031 32.007813 38.90625 31.40625Z"/></svg>