<svg xmlns="http://www.w3.org/2000/svg" xmlns:xlink="http://www.w3.org/1999/xlink" viewBox="0 0 50 50"><path d="M25 0L25 4.5C29 4.5 27.300781 6 31 6L33 6L33 2L31 2C27.300781 2 29 0 25 0 Z M 25 7C18.171875 7 12.582031 12.304688 12.0625 19L12 19C11.449219 19 11 19.449219 11 20C11 20.550781 11.449219 21 12 21L12 26L14 26L14 21L16 21L16 26L18 26L18 21L20 21L20 26L22 26L22 21L24 21L24 26L26 26L26 21L28 21L28 26L30 26L30 21L32 21L32 26L34 26L34 21L36 21L36 26L38 26L38 21C38.554688 21 39 20.550781 39 20C39 19.449219 38.554688 19 38 19L37.9375 19C37.417969 12.304688 31.828125 7 25 7 Z M 0 27L0 50L50 50L50 27 Z M 5 32L9 32L9 35L5 35 Z M 12 32L16 32L16 35L12 35 Z M 19 32L23 32L23 35L19 35 Z M 26 32L30 32L30 35L26 35 Z M 33 32L37 32L37 35L33 35 Z M 40 32L44 32L44 35L40 35 Z M 5 37L9 37L9 40L5 40 Z M 12 37L16 37L16 40L12 40 Z M 19 37L23 37L23 40L19 40 Z M 26 37L30 37L30 40L26 40 Z M 33 37L37 37L37 40L33 40 Z M 40 37L44 37L44 40L40 40 Z M 5 42L9 42L9 45L5 45 Z M 12 42L16 42L16 45L12 45 Z M 19 42L23 42L23 45L19 45 Z M 26 42L30 42L30 45L26 45 Z M 33 42L37 42L37 45L33 45 Z M 40 42L44 42L44 45L40 45Z"/></svg>