<svg xmlns="http://www.w3.org/2000/svg" xmlns:xlink="http://www.w3.org/1999/xlink" viewBox="0 0 50 50"><path d="M25 0L25 4.5C29 4.5 27.300781 6 31 6L33 6L33 2L31 2C27.300781 2 29 0 25 0 Z M 25 7C18.195313 7 12.585938 12.320313 12.0625 19L12 19C11.96875 19 11.9375 19 11.90625 19C11.875 19 11.84375 19 11.8125 19C11.261719 19.050781 10.855469 19.542969 10.90625 20.09375C10.957031 20.644531 11.449219 21.050781 12 21L12 26L14 26L14 21L16 21L16 26L18 26L18 21L20 21L20 26L22 26L22 21L24 21L24 26L26 26L26 21L28 21L28 26L30 26L30 21L32 21L32 26L34 26L34 21L36 21L36 26L38 26L38 21C38.359375 21.003906 38.695313 20.816406 38.878906 20.503906C39.058594 20.191406 39.058594 19.808594 38.878906 19.496094C38.695313 19.183594 38.359375 18.996094 38 19L37.9375 19C37.414063 12.320313 31.804688 7 25 7 Z M 25 9C30.699219 9 35.25 13.433594 35.78125 19L14.21875 19C14.75 13.433594 19.300781 9 25 9 Z M 0 27L0 50L50 50L50 27 Z M 2 29L48 29L48 48L2 48 Z M 5 32L5 35L9 35L9 32 Z M 12 32L12 35L16 35L16 32 Z M 19 32L19 35L23 35L23 32 Z M 26 32L26 35L30 35L30 32 Z M 33 32L33 35L37 35L37 32 Z M 40 32L40 35L44 35L44 32 Z M 5 37L5 40L9 40L9 37 Z M 12 37L12 40L16 40L16 37 Z M 19 37L19 40L23 40L23 37 Z M 26 37L26 40L30 40L30 37 Z M 33 37L33 40L37 40L37 37 Z M 40 37L40 40L44 40L44 37 Z M 5 42L5 45L9 45L9 42 Z M 12 42L12 45L16 45L16 42 Z M 19 42L19 45L23 45L23 42 Z M 26 42L26 45L30 45L30 42 Z M 33 42L33 45L37 45L37 42 Z M 40 42L40 45L44 45L44 42Z"/></svg>