<svg xmlns="http://www.w3.org/2000/svg" xmlns:xlink="http://www.w3.org/1999/xlink" viewBox="0 0 50 50"><path d="M25.8125 7.4375C25.8125 7.4375 25.816406 7.441406 25.816406 7.445313C25.855469 7.503906 25.886719 7.566406 25.910156 7.632813C25.925781 7.667969 25.953125 7.695313 25.964844 7.734375C25.996094 7.839844 29.972656 18.316406 37.261719 23.9375L47.839844 21.871094C31.207031 15.636719 25.921875 7.585938 25.847656 7.46875C25.839844 7.457031 25.820313 7.449219 25.8125 7.4375 Z M 24.1875 7.4375C24.175781 7.453125 24.160156 7.457031 24.152344 7.46875C24.101563 7.550781 18.914063 15.59375 2.160156 21.871094L12.738281 23.9375C20.042969 18.304688 24.003906 7.839844 24.035156 7.734375C24.046875 7.695313 24.074219 7.664063 24.089844 7.628906C24.117188 7.5625 24.144531 7.503906 24.183594 7.445313 Z M 25 11.082031C23.730469 14.367188 20.121094 19.859375 15.738281 24L34.261719 24C29.878906 19.859375 26.273438 14.367188 25 11.082031 Z M 1 23.691406L1 38C1 38.460938 1.3125 38.859375 1.757813 38.96875L12 41.78125L12 25.839844 Z M 49 23.691406L38 25.839844L38 41.78125L48.242188 38.96875C48.6875 38.859375 49 38.460938 49 38 Z M 14 26L14 42L19 42C19.269531 42 19.519531 41.894531 19.707031 41.707031C19.894531 41.519531 20 41.265625 20 41L20 32L30 32L30 41C30 41.554688 30.449219 42 31 42L36 42L36 26Z"/></svg>