<svg xmlns="http://www.w3.org/2000/svg" xmlns:xlink="http://www.w3.org/1999/xlink" viewBox="0 0 50 50"><path d="M25.03125 6.984375C24.765625 6.976563 24.511719 7.074219 24.316406 7.25C24.292969 7.273438 24.269531 7.300781 24.246094 7.324219C24.226563 7.347656 24.207031 7.367188 24.191406 7.390625C24.1875 7.394531 24.183594 7.398438 24.183594 7.40625C24.167969 7.421875 24.15625 7.4375 24.144531 7.457031C24.136719 7.46875 24.128906 7.484375 24.121094 7.5C24.121094 7.5 24.117188 7.503906 24.117188 7.507813C24.113281 7.515625 24.109375 7.523438 24.105469 7.53125C24.046875 7.621094 22.863281 9.496094 19.488281 12.296875C16.046875 15.152344 10.414063 18.832031 1.710938 22.035156C1.226563 22.175781 0.921875 22.65625 1 23.15625L1 38C1 38.449219 1.300781 38.847656 1.734375 38.964844L12.589844 41.925781C12.769531 42.003906 12.964844 42.03125 13.15625 42L20 42C20.554688 42 21 41.550781 21 41L21 32L29 32L29 41C29.003906 41.550781 29.449219 42 30 42L36.835938 42C37.035156 42.03125 37.234375 42.003906 37.417969 41.921875L48.265625 38.964844C48.699219 38.847656 49 38.449219 49 38L49 23C49 22.996094 49 22.992188 49 22.988281C49 22.960938 48.996094 22.929688 48.996094 22.902344C48.992188 22.875 48.988281 22.847656 48.984375 22.824219C48.984375 22.816406 48.980469 22.808594 48.980469 22.800781C48.980469 22.796875 48.980469 22.792969 48.980469 22.792969C48.972656 22.761719 48.964844 22.734375 48.953125 22.703125C48.945313 22.675781 48.9375 22.648438 48.925781 22.625C48.925781 22.617188 48.921875 22.613281 48.921875 22.609375C48.921875 22.609375 48.917969 22.605469 48.917969 22.601563C48.914063 22.59375 48.910156 22.585938 48.90625 22.578125C48.898438 22.558594 48.886719 22.535156 48.875 22.511719C48.859375 22.484375 48.84375 22.460938 48.828125 22.4375C48.824219 22.433594 48.824219 22.429688 48.820313 22.425781C48.804688 22.402344 48.785156 22.378906 48.765625 22.355469C48.765625 22.351563 48.761719 22.351563 48.761719 22.347656C48.738281 22.324219 48.71875 22.304688 48.699219 22.28125C48.679688 22.265625 48.660156 22.246094 48.640625 22.230469C48.632813 22.226563 48.628906 22.222656 48.625 22.21875C48.621094 22.214844 48.617188 22.210938 48.613281 22.210938C48.589844 22.191406 48.566406 22.175781 48.542969 22.15625C48.539063 22.15625 48.535156 22.152344 48.53125 22.152344C48.507813 22.136719 48.480469 22.121094 48.453125 22.109375C48.453125 22.105469 48.449219 22.105469 48.445313 22.105469C48.414063 22.089844 48.382813 22.074219 48.355469 22.0625C48.351563 22.0625 48.347656 22.0625 48.34375 22.0625C39.609375 18.851563 33.960938 15.160156 30.511719 12.296875C27.136719 9.496094 25.949219 7.617188 25.894531 7.53125C25.894531 7.527344 25.894531 7.523438 25.890625 7.523438C25.878906 7.496094 25.859375 7.46875 25.84375 7.445313C25.828125 7.414063 25.808594 7.390625 25.785156 7.363281C25.785156 7.363281 25.785156 7.363281 25.785156 7.359375C25.785156 7.359375 25.78125 7.359375 25.78125 7.359375C25.761719 7.332031 25.742188 7.308594 25.71875 7.289063C25.699219 7.265625 25.679688 7.25 25.660156 7.230469C25.65625 7.226563 25.652344 7.222656 25.644531 7.21875C25.640625 7.214844 25.636719 7.210938 25.628906 7.207031C25.609375 7.191406 25.585938 7.175781 25.566406 7.160156C25.539063 7.140625 25.511719 7.125 25.480469 7.109375C25.453125 7.089844 25.421875 7.078125 25.390625 7.0625C25.28125 7.019531 25.160156 6.992188 25.042969 6.984375C25.039063 6.984375 25.035156 6.984375 25.03125 6.984375 Z M 25 10.570313C26.421875 13.71875 29.5 19.59375 34.296875 24L15.703125 24C20.5 19.59375 23.578125 13.71875 25 10.570313 Z M 28.664063 13.339844C28.859375 13.507813 29.019531 13.65625 29.234375 13.832031C32.390625 16.457031 37.300781 19.675781 44.417969 22.636719L37.269531 23.9375C33.457031 21.007813 30.578125 16.773438 28.664063 13.339844 Z M 21.332031 13.339844C19.421875 16.777344 16.539063 21.011719 12.730469 23.9375L5.585938 22.636719C12.699219 19.675781 17.609375 16.457031 20.765625 13.832031C20.980469 13.65625 21.140625 13.507813 21.332031 13.339844 Z M 3 24.199219L12 25.832031L12 39.691406L3 37.234375 Z M 47 24.199219L47 37.234375L38 39.691406L38 25.832031 Z M 14 26L36 26L36 40L31 40L31 31C31 30.449219 30.550781 30 30 30L20 30C19.449219 30 19 30.449219 19 31L19 40L14 40Z"/></svg>