<svg xmlns="http://www.w3.org/2000/svg" xmlns:xlink="http://www.w3.org/1999/xlink" viewBox="0 0 50 50"><path d="M48.62,19.21l-23-18c-0.37-0.28-0.87-0.28-1.24,0l-23,18c-0.43,0.34-0.51,0.97-0.17,1.41c0.34,0.43,0.97,0.51,1.41,0.17 L4,19.7V46c0,0.55,0.45,1,1,1h40c0.55,0,1-0.45,1-1V19.7l1.38,1.09C47.57,20.93,47.78,21,48,21c0.3,0,0.59-0.13,0.79-0.38 C49.13,20.18,49.05,19.55,48.62,19.21z M13,24.09l6.24,3.95L13,32.58V24.09z M37,37H13v-1.94l8.06-5.86l1.53,0.97 c0.74,0.56,1.64,0.83,2.53,0.83c0.87,0,1.74-0.26,2.42-0.79l1.48-0.95l7.98,5.8V37z M37,32.58l-6.17-4.49L37,24.12V32.58z M37,21.74 l-10.61,6.84c-0.73,0.56-1.85,0.56-2.65-0.05L13,21.72V20h24V21.74z"/></svg>