<svg xmlns="http://www.w3.org/2000/svg" xmlns:xlink="http://www.w3.org/1999/xlink" viewBox="0 0 50 50"><path d="M24.964844 1 A 1.0001 1.0001 0 0 0 24.382812 1.2128906L1.3828125 19.212891 A 1.0002305 1.0002305 0 1 0 2.6171875 20.787109L4 19.705078L4 46 A 1.0001 1.0001 0 0 0 5 47L45 47 A 1.0001 1.0001 0 0 0 46 46L46 19.705078L47.382812 20.787109 A 1.0002308 1.0002308 0 1 0 48.617188 19.212891L25.617188 1.2128906 A 1.0001 1.0001 0 0 0 24.964844 1 z M 25 3.2695312L44 18.138672L44 45L6 45L6 18.138672L25 3.2695312 z M 12 19L12 20L12 38L38 38L38 19L12 19 z M 14 21L36 21L36 21.494141L26.400391 28.570312L26.392578 28.576172C25.664322 29.132295 24.534897 29.132295 23.806641 28.576172L23.796875 28.566406L14 21.488281L14 21 z M 14 23.957031L19.462891 27.902344L14 32L14 23.957031 z M 36 23.978516L36 32L30.605469 27.955078L36 23.978516 z M 21.162109 29.128906L22.59375 30.164062C24.065494 31.28794 26.135678 31.287939 27.607422 30.164062L28.923828 29.193359L36 34.5L36 36L14 36L14 34.5L21.162109 29.128906 z"/></svg>