<svg id="Layer_1" data-name="Layer 1" xmlns="http://www.w3.org/2000/svg" viewBox="0 0 122.88 106.35"><title>residential-apartments</title><path d="M35.57,103.26H26.06V88.52a1,1,0,0,0-1-1H13.09a1.06,1.06,0,0,0-1.06,1v14.74H10.34v3.09h102.2v-3.09h-1.69V88.52a1.06,1.06,0,0,0-1.06-1H97.87a1,1,0,0,0-1.05,1v14.74H74.44V82.42A1.41,1.41,0,0,0,73,81H49.75a1.41,1.41,0,0,0-1.41,1.41v20.84H32.49V32.87H3v70.39h7.39v3.09H1.41A1.41,1.41,0,0,1,0,104.94V32a2,2,0,0,1,.61-1.46h0a2,2,0,0,1,1.45-.6H32.49V2.25A2.47,2.47,0,0,1,33.21.73h0A2.45,2.45,0,0,1,35,0H87.83a2.42,2.42,0,0,1,1.74.72l.11.12a2.45,2.45,0,0,1,.63,1.63V29.92h30.5a2,2,0,0,1,1.45.6h0a2,2,0,0,1,.61,1.46v73a1.41,1.41,0,0,1-1.41,1.41h-8.93v-3.09h7.39V32.87H90.3v70.39H87.21V3.08H35.57V103.26ZM16.43,39H8.81c-.06,0-.12.08-.12.18v4.94c0,.1.06.19.12.19h7.62c.06,0,.12-.08.12-.19V39.13c0-.1-.06-.18-.12-.18Zm0,34.27H8.81c-.06,0-.12.09-.12.18v4.94c0,.09.06.19.12.19h7.62c.06,0,.12-.09.12-.19V73.4c0-.09-.06-.18-.12-.18Zm12.86,0H21.67c-.07,0-.12.09-.12.18v4.94c0,.09.05.19.12.19h7.62c.06,0,.11-.09.11-.19V73.4c0-.09,0-.18-.11-.18ZM16.43,61.79H8.81c-.06,0-.12.09-.12.19v4.94c0,.1.06.19.12.19h7.62c.06,0,.12-.08.12-.19V62c0-.11-.06-.19-.12-.19Zm0-11.42H8.81c-.06,0-.12.08-.12.19V55.5c0,.09.06.19.12.19h7.62c.06,0,.12-.09.12-.19V50.56c0-.11-.06-.19-.12-.19ZM29.29,39H21.67c-.07,0-.12.08-.12.18v4.94c0,.1.05.19.12.19h7.62c.06,0,.11-.08.11-.19V39.13c0-.1,0-.18-.11-.18Zm0,22.84H21.67c-.07,0-.12.09-.12.19v4.94c0,.1.05.19.12.19h7.62c.06,0,.11-.08.11-.19V62c0-.11,0-.19-.11-.19Zm0-11.42H21.67c-.07,0-.12.08-.12.19V55.5c0,.09.05.19.12.19h7.62c.06,0,.11-.09.11-.19V50.56c0-.11,0-.19-.11-.19ZM106.45,39h7.62c.06,0,.12.08.12.18v4.94c0,.1-.06.19-.12.19h-7.62c-.06,0-.12-.08-.12-.19V39.13c0-.1.06-.18.12-.18Zm0,34.27h7.62c.06,0,.12.09.12.18v4.94c0,.09-.06.19-.12.19h-7.62c-.06,0-.12-.09-.12-.19V73.4c0-.09.06-.18.12-.18Zm-12.86,0h7.62c.07,0,.12.09.12.18v4.94c0,.09,0,.19-.12.19H93.59c-.06,0-.11-.09-.11-.19V73.4c0-.09,0-.18.11-.18Zm12.86-11.43h7.62c.06,0,.12.09.12.19v4.94c0,.1-.06.19-.12.19h-7.62c-.06,0-.12-.08-.12-.19V62c0-.11.06-.19.12-.19Zm0-11.42h7.62c.06,0,.12.08.12.19V55.5c0,.09-.06.19-.12.19h-7.62c-.06,0-.12-.09-.12-.19V50.56c0-.11.06-.19.12-.19ZM93.59,39h7.62c.07,0,.12.08.12.18v4.94c0,.1,0,.19-.12.19H93.59c-.06,0-.11-.08-.11-.19V39.13c0-.1,0-.18.11-.18Zm0,22.84h7.62c.07,0,.12.09.12.19v4.94c0,.1,0,.19-.12.19H93.59c-.06,0-.11-.08-.11-.19V62c0-.11,0-.19.11-.19Zm0-11.42h7.62c.07,0,.12.08.12.19V55.5c0,.09,0,.19-.12.19H93.59c-.06,0-.11-.09-.11-.19V50.56c0-.11,0-.19.11-.19ZM43,10.84h8.29a.24.24,0,0,1,.24.23v8.3a.24.24,0,0,1-.24.23H43a.23.23,0,0,1-.23-.23v-8.3a.23.23,0,0,1,.23-.23Zm28.51,0h8.29a.24.24,0,0,1,.24.23v8.3a.24.24,0,0,1-.24.23H71.5a.24.24,0,0,1-.24-.23v-8.3a.24.24,0,0,1,.24-.23Zm-14.26,0h8.3a.23.23,0,0,1,.23.23v8.3a.23.23,0,0,1-.23.23h-8.3a.24.24,0,0,1-.23-.23v-8.3a.24.24,0,0,1,.23-.23ZM43,28.8h8.29a.24.24,0,0,1,.24.24v8.29a.24.24,0,0,1-.24.24H43a.23.23,0,0,1-.23-.24V29A.23.23,0,0,1,43,28.8Zm28.51,0h8.29A.24.24,0,0,1,80,29v8.29a.24.24,0,0,1-.24.24H71.5a.24.24,0,0,1-.24-.24V29a.24.24,0,0,1,.24-.24Zm-14.26,0h8.3a.23.23,0,0,1,.23.24v8.29a.23.23,0,0,1-.23.24h-8.3a.24.24,0,0,1-.23-.24V29a.24.24,0,0,1,.23-.24ZM43,64.73h8.29a.24.24,0,0,1,.24.24v8.29a.24.24,0,0,1-.24.24H43a.23.23,0,0,1-.23-.24V65a.23.23,0,0,1,.23-.24Zm28.51,0h8.29A.24.24,0,0,1,80,65v8.29a.24.24,0,0,1-.24.24H71.5a.24.24,0,0,1-.24-.24V65a.24.24,0,0,1,.24-.24Zm-14.26,0h8.3a.23.23,0,0,1,.23.24v8.29a.23.23,0,0,1-.23.24h-8.3a.24.24,0,0,1-.23-.24V65a.24.24,0,0,1,.23-.24ZM43,46.77h8.29a.24.24,0,0,1,.24.23v8.3a.23.23,0,0,1-.24.23H43a.23.23,0,0,1-.23-.23V47a.23.23,0,0,1,.23-.23Zm28.51,0h8.29A.24.24,0,0,1,80,47v8.3a.23.23,0,0,1-.24.23H71.5a.23.23,0,0,1-.24-.23V47a.24.24,0,0,1,.24-.23Zm-14.26,0h8.3a.23.23,0,0,1,.23.23v8.3a.23.23,0,0,1-.23.23h-8.3A.23.23,0,0,1,57,55.3V47a.24.24,0,0,1,.23-.23Z"/></svg>