<svg xmlns="http://www.w3.org/2000/svg" xmlns:xlink="http://www.w3.org/1999/xlink" viewBox="0 0 50 50"><path d="M19 3L19 4L15 4L15 47L19 47L19 46L20 46L20 47L21 47L21 46L22 46L22 47L23 47L23 46L24 46L24 47L25 47L25 46L26 46L26 47L27 47L27 46L28 46L28 47L29 47L29 46L30 46L30 47L34 47L34 4L30 4L30 3 Z M 13 7.167969L3 11.332031L3 47L7 47L7 45L8 45L8 47L9 47L9 45L10 45L10 47L11 47L11 45L12 45L12 47L13 47 Z M 19 8L20 8L20 9L19 9 Z M 21 8L22 8L22 9L21 9 Z M 23 8L24 8L24 9L23 9 Z M 25 8L26 8L26 9L25 9 Z M 27 8L28 8L28 9L27 9 Z M 29 8L30 8L30 9L29 9 Z M 19 10L20 10L20 11L19 11 Z M 21 10L22 10L22 11L21 11 Z M 23 10L24 10L24 11L23 11 Z M 25 10L26 10L26 11L25 11 Z M 27 10L28 10L28 11L27 11 Z M 29 10L30 10L30 11L29 11 Z M 12 11.734375L12 14L11 14L11 12.121094 Z M 19 12L20 12L20 13L19 13 Z M 21 12L22 12L22 13L21 13 Z M 23 12L24 12L24 13L23 13 Z M 25 12L26 12L26 13L25 13 Z M 27 12L28 12L28 13L27 13 Z M 29 12L30 12L30 13L29 13 Z M 36 12L36 16L37 16L37 17L36 17L36 18L37 18L37 19L36 19L36 20L37 20L37 21L36 21L36 22L37 22L37 23L36 23L36 24L37 24L37 25L36 25L36 26L37 26L37 27L36 27L36 28L37 28L37 29L36 29L36 30L37 30L37 31L36 31L36 32L37 32L37 33L36 33L36 34L37 34L37 35L36 35L36 36L37 36L37 37L36 37L36 38L37 38L37 39L36 39L36 40L37 40L37 41L36 41L36 42L37 42L37 43L36 43L36 44L37 44L37 45L36 45L36 46L37 46L37 47L38 47L38 46L40 46L40 47L41 47L41 46L43 46L43 47L47 47L47 12 Z M 10 12.5L10 14L9 14L9 12.886719 Z M 8 13.265625L8 14L7 14L7 13.652344 Z M 19 14L20 14L20 15L19 15 Z M 21 14L22 14L22 15L21 15 Z M 23 14L24 14L24 15L23 15 Z M 25 14L26 14L26 15L25 15 Z M 27 14L28 14L28 15L27 15 Z M 29 14L30 14L30 15L29 15 Z M 7 15L8 15L8 17L7 17 Z M 9 15L10 15L10 17L9 17 Z M 11 15L12 15L12 17L11 17 Z M 19 16L20 16L20 17L19 17 Z M 21 16L22 16L22 17L21 17 Z M 23 16L24 16L24 17L23 17 Z M 25 16L26 16L26 17L25 17 Z M 27 16L28 16L28 17L27 17 Z M 29 16L30 16L30 17L29 17 Z M 38 16L40 16L40 17L38 17 Z M 41 16L43 16L43 17L41 17 Z M 7 18L8 18L8 20L7 20 Z M 9 18L10 18L10 20L9 20 Z M 11 18L12 18L12 20L11 20 Z M 19 18L20 18L20 19L19 19 Z M 21 18L22 18L22 19L21 19 Z M 23 18L24 18L24 19L23 19 Z M 25 18L26 18L26 19L25 19 Z M 27 18L28 18L28 19L27 19 Z M 29 18L30 18L30 19L29 19 Z M 38 18L40 18L40 19L38 19 Z M 41 18L43 18L43 19L41 19 Z M 19 20L20 20L20 21L19 21 Z M 21 20L22 20L22 21L21 21 Z M 23 20L24 20L24 21L23 21 Z M 25 20L26 20L26 21L25 21 Z M 27 20L28 20L28 21L27 21 Z M 29 20L30 20L30 21L29 21 Z M 38 20L40 20L40 21L38 21 Z M 41 20L43 20L43 21L41 21 Z M 7 21L8 21L8 23L7 23 Z M 9 21L10 21L10 23L9 23 Z M 11 21L12 21L12 23L11 23 Z M 19 22L20 22L20 23L19 23 Z M 21 22L22 22L22 23L21 23 Z M 23 22L24 22L24 23L23 23 Z M 25 22L26 22L26 23L25 23 Z M 27 22L28 22L28 23L27 23 Z M 29 22L30 22L30 23L29 23 Z M 38 22L40 22L40 23L38 23 Z M 41 22L43 22L43 23L41 23 Z M 7 24L8 24L8 26L7 26 Z M 9 24L10 24L10 26L9 26 Z M 11 24L12 24L12 26L11 26 Z M 19 24L20 24L20 25L19 25 Z M 21 24L22 24L22 25L21 25 Z M 23 24L24 24L24 25L23 25 Z M 25 24L26 24L26 25L25 25 Z M 27 24L28 24L28 25L27 25 Z M 29 24L30 24L30 25L29 25 Z M 38 24L40 24L40 25L38 25 Z M 41 24L43 24L43 25L41 25 Z M 19 26L20 26L20 27L19 27 Z M 21 26L22 26L22 27L21 27 Z M 23 26L24 26L24 27L23 27 Z M 25 26L26 26L26 27L25 27 Z M 27 26L28 26L28 27L27 27 Z M 29 26L30 26L30 27L29 27 Z M 38 26L40 26L40 27L38 27 Z M 41 26L43 26L43 27L41 27 Z M 7 27L8 27L8 29L7 29 Z M 9 27L10 27L10 29L9 29 Z M 11 27L12 27L12 29L11 29 Z M 19 28L20 28L20 29L19 29 Z M 21 28L22 28L22 29L21 29 Z M 23 28L24 28L24 29L23 29 Z M 25 28L26 28L26 29L25 29 Z M 27 28L28 28L28 29L27 29 Z M 29 28L30 28L30 29L29 29 Z M 38 28L40 28L40 29L38 29 Z M 41 28L43 28L43 29L41 29 Z M 7 30L8 30L8 32L7 32 Z M 9 30L10 30L10 32L9 32 Z M 11 30L12 30L12 32L11 32 Z M 19 30L20 30L20 31L19 31 Z M 21 30L22 30L22 31L21 31 Z M 23 30L24 30L24 31L23 31 Z M 25 30L26 30L26 31L25 31 Z M 27 30L28 30L28 31L27 31 Z M 29 30L30 30L30 31L29 31 Z M 38 30L40 30L40 31L38 31 Z M 41 30L43 30L43 31L41 31 Z M 19 32L20 32L20 33L19 33 Z M 21 32L22 32L22 33L21 33 Z M 23 32L24 32L24 33L23 33 Z M 25 32L26 32L26 33L25 33 Z M 27 32L28 32L28 33L27 33 Z M 29 32L30 32L30 33L29 33 Z M 38 32L40 32L40 33L38 33 Z M 41 32L43 32L43 33L41 33 Z M 7 33L8 33L8 35L7 35 Z M 9 33L10 33L10 35L9 35 Z M 11 33L12 33L12 35L11 35 Z M 19 34L20 34L20 35L19 35 Z M 21 34L22 34L22 35L21 35 Z M 23 34L24 34L24 35L23 35 Z M 25 34L26 34L26 35L25 35 Z M 27 34L28 34L28 35L27 35 Z M 29 34L30 34L30 35L29 35 Z M 38 34L40 34L40 35L38 35 Z M 41 34L43 34L43 35L41 35 Z M 7 36L8 36L8 38L7 38 Z M 9 36L10 36L10 38L9 38 Z M 11 36L12 36L12 38L11 38 Z M 19 36L20 36L20 37L19 37 Z M 21 36L22 36L22 37L21 37 Z M 23 36L24 36L24 37L23 37 Z M 25 36L26 36L26 37L25 37 Z M 27 36L28 36L28 37L27 37 Z M 29 36L30 36L30 37L29 37 Z M 38 36L40 36L40 37L38 37 Z M 41 36L43 36L43 37L41 37 Z M 19 38L20 38L20 39L19 39 Z M 21 38L22 38L22 39L21 39 Z M 23 38L24 38L24 39L23 39 Z M 25 38L26 38L26 39L25 39 Z M 27 38L28 38L28 39L27 39 Z M 29 38L30 38L30 39L29 39 Z M 38 38L40 38L40 39L38 39 Z M 41 38L43 38L43 39L41 39 Z M 7 39L8 39L8 41L7 41 Z M 9 39L10 39L10 41L9 41 Z M 11 39L12 39L12 41L11 41 Z M 19 40L20 40L20 41L19 41 Z M 21 40L22 40L22 41L21 41 Z M 23 40L24 40L24 41L23 41 Z M 25 40L26 40L26 41L25 41 Z M 27 40L28 40L28 41L27 41 Z M 29 40L30 40L30 41L29 41 Z M 38 40L40 40L40 41L38 41 Z M 41 40L43 40L43 41L41 41 Z M 7 42L8 42L8 44L7 44 Z M 9 42L10 42L10 44L9 44 Z M 11 42L12 42L12 44L11 44 Z M 19 42L20 42L20 43L19 43 Z M 21 42L22 42L22 43L21 43 Z M 23 42L24 42L24 43L23 43 Z M 25 42L26 42L26 43L25 43 Z M 27 42L28 42L28 43L27 43 Z M 29 42L30 42L30 43L29 43 Z M 38 42L40 42L40 43L38 43 Z M 41 42L43 42L43 43L41 43 Z M 19 44L20 44L20 45L19 45 Z M 21 44L22 44L22 45L21 45 Z M 23 44L24 44L24 45L23 45 Z M 25 44L26 44L26 45L25 45 Z M 27 44L28 44L28 45L27 45 Z M 29 44L30 44L30 45L29 45 Z M 38 44L40 44L40 45L38 45 Z M 41 44L43 44L43 45L41 45Z"/></svg>