<svg xmlns="http://www.w3.org/2000/svg" xmlns:xlink="http://www.w3.org/1999/xlink" viewBox="0 0 50 50"><path d="M19 3L19 4L15 4L15 6.332031L3 11.332031L3 47L5 47L5 12.667969L15 8.5L15 47L17 47L17 6L21 6L21 5L28 5L28 6L32 6L32 47L34 47L34 14L45 14L45 47L47 47L47 12L34 12L34 4L30 4L30 3 Z M 19 8L19 9L20 9L20 8 Z M 21 8L21 9L22 9L22 8 Z M 23 8L23 9L24 9L24 8 Z M 25 8L25 9L26 9L26 8 Z M 27 8L27 9L28 9L28 8 Z M 29 8L29 9L30 9L30 8 Z M 19 10L19 11L20 11L20 10 Z M 21 10L21 11L22 11L22 10 Z M 23 10L23 11L24 11L24 10 Z M 25 10L25 11L26 11L26 10 Z M 27 10L27 11L28 11L28 10 Z M 29 10L29 11L30 11L30 10 Z M 14 10.96875L13 11.355469L13 14L14 14 Z M 12 11.734375L11 12.121094L11 14L12 14 Z M 19 12L19 13L20 13L20 12 Z M 21 12L21 13L22 13L22 12 Z M 23 12L23 13L24 13L24 12 Z M 25 12L25 13L26 13L26 12 Z M 27 12L27 13L28 13L28 12 Z M 29 12L29 13L30 13L30 12 Z M 10 12.5L9 12.886719L9 14L10 14 Z M 8 13.265625L7 13.652344L7 14L8 14 Z M 19 14L19 15L20 15L20 14 Z M 21 14L21 15L22 15L22 14 Z M 23 14L23 15L24 15L24 14 Z M 25 14L25 15L26 15L26 14 Z M 27 14L27 15L28 15L28 14 Z M 29 14L29 15L30 15L30 14 Z M 7 15L7 17L8 17L8 15 Z M 9 15L9 17L10 17L10 15 Z M 11 15L11 17L12 17L12 15 Z M 13 15L13 17L14 17L14 15 Z M 19 16L19 17L20 17L20 16 Z M 21 16L21 17L22 17L22 16 Z M 23 16L23 17L24 17L24 16 Z M 25 16L25 17L26 17L26 16 Z M 27 16L27 17L28 17L28 16 Z M 29 16L29 17L30 17L30 16 Z M 35 16L35 17L37 17L37 16 Z M 38 16L38 17L40 17L40 16 Z M 41 16L41 17L43 17L43 16 Z M 7 18L7 20L8 20L8 18 Z M 9 18L9 20L10 20L10 18 Z M 11 18L11 20L12 20L12 18 Z M 13 18L13 20L14 20L14 18 Z M 19 18L19 19L20 19L20 18 Z M 21 18L21 19L22 19L22 18 Z M 23 18L23 19L24 19L24 18 Z M 25 18L25 19L26 19L26 18 Z M 27 18L27 19L28 19L28 18 Z M 29 18L29 19L30 19L30 18 Z M 35 18L35 19L37 19L37 18 Z M 38 18L38 19L40 19L40 18 Z M 41 18L41 19L43 19L43 18 Z M 19 20L19 21L20 21L20 20 Z M 21 20L21 21L22 21L22 20 Z M 23 20L23 21L24 21L24 20 Z M 25 20L25 21L26 21L26 20 Z M 27 20L27 21L28 21L28 20 Z M 29 20L29 21L30 21L30 20 Z M 35 20L35 21L37 21L37 20 Z M 38 20L38 21L40 21L40 20 Z M 41 20L41 21L43 21L43 20 Z M 7 21L7 23L8 23L8 21 Z M 9 21L9 23L10 23L10 21 Z M 11 21L11 23L12 23L12 21 Z M 13 21L13 23L14 23L14 21 Z M 19 22L19 23L20 23L20 22 Z M 21 22L21 23L22 23L22 22 Z M 23 22L23 23L24 23L24 22 Z M 25 22L25 23L26 23L26 22 Z M 27 22L27 23L28 23L28 22 Z M 29 22L29 23L30 23L30 22 Z M 35 22L35 23L37 23L37 22 Z M 38 22L38 23L40 23L40 22 Z M 41 22L41 23L43 23L43 22 Z M 7 24L7 26L8 26L8 24 Z M 9 24L9 26L10 26L10 24 Z M 11 24L11 26L12 26L12 24 Z M 13 24L13 26L14 26L14 24 Z M 19 24L19 25L20 25L20 24 Z M 21 24L21 25L22 25L22 24 Z M 23 24L23 25L24 25L24 24 Z M 25 24L25 25L26 25L26 24 Z M 27 24L27 25L28 25L28 24 Z M 29 24L29 25L30 25L30 24 Z M 35 24L35 25L37 25L37 24 Z M 38 24L38 25L40 25L40 24 Z M 41 24L41 25L43 25L43 24 Z M 19 26L19 27L20 27L20 26 Z M 21 26L21 27L22 27L22 26 Z M 23 26L23 27L24 27L24 26 Z M 25 26L25 27L26 27L26 26 Z M 27 26L27 27L28 27L28 26 Z M 29 26L29 27L30 27L30 26 Z M 35 26L35 27L37 27L37 26 Z M 38 26L38 27L40 27L40 26 Z M 41 26L41 27L43 27L43 26 Z M 7 27L7 29L8 29L8 27 Z M 9 27L9 29L10 29L10 27 Z M 11 27L11 29L12 29L12 27 Z M 13 27L13 29L14 29L14 27 Z M 19 28L19 29L20 29L20 28 Z M 21 28L21 29L22 29L22 28 Z M 23 28L23 29L24 29L24 28 Z M 25 28L25 29L26 29L26 28 Z M 27 28L27 29L28 29L28 28 Z M 29 28L29 29L30 29L30 28 Z M 35 28L35 29L37 29L37 28 Z M 38 28L38 29L40 29L40 28 Z M 41 28L41 29L43 29L43 28 Z M 7 30L7 32L8 32L8 30 Z M 9 30L9 32L10 32L10 30 Z M 11 30L11 32L12 32L12 30 Z M 13 30L13 32L14 32L14 30 Z M 19 30L19 31L20 31L20 30 Z M 21 30L21 31L22 31L22 30 Z M 23 30L23 31L24 31L24 30 Z M 25 30L25 31L26 31L26 30 Z M 27 30L27 31L28 31L28 30 Z M 29 30L29 31L30 31L30 30 Z M 35 30L35 31L37 31L37 30 Z M 38 30L38 31L40 31L40 30 Z M 41 30L41 31L43 31L43 30 Z M 19 32L19 33L20 33L20 32 Z M 21 32L21 33L22 33L22 32 Z M 23 32L23 33L24 33L24 32 Z M 25 32L25 33L26 33L26 32 Z M 27 32L27 33L28 33L28 32 Z M 29 32L29 33L30 33L30 32 Z M 35 32L35 33L37 33L37 32 Z M 38 32L38 33L40 33L40 32 Z M 41 32L41 33L43 33L43 32 Z M 7 33L7 35L8 35L8 33 Z M 9 33L9 35L10 35L10 33 Z M 11 33L11 35L12 35L12 33 Z M 13 33L13 35L14 35L14 33 Z M 19 34L19 35L20 35L20 34 Z M 21 34L21 35L22 35L22 34 Z M 23 34L23 35L24 35L24 34 Z M 25 34L25 35L26 35L26 34 Z M 27 34L27 35L28 35L28 34 Z M 29 34L29 35L30 35L30 34 Z M 35 34L35 35L37 35L37 34 Z M 38 34L38 35L40 35L40 34 Z M 41 34L41 35L43 35L43 34 Z M 7 36L7 38L8 38L8 36 Z M 9 36L9 38L10 38L10 36 Z M 11 36L11 38L12 38L12 36 Z M 13 36L13 38L14 38L14 36 Z M 19 36L19 37L20 37L20 36 Z M 21 36L21 37L22 37L22 36 Z M 23 36L23 37L24 37L24 36 Z M 25 36L25 37L26 37L26 36 Z M 27 36L27 37L28 37L28 36 Z M 29 36L29 37L30 37L30 36 Z M 35 36L35 37L37 37L37 36 Z M 38 36L38 37L40 37L40 36 Z M 41 36L41 37L43 37L43 36 Z M 19 38L19 39L20 39L20 38 Z M 21 38L21 39L22 39L22 38 Z M 23 38L23 39L24 39L24 38 Z M 25 38L25 39L26 39L26 38 Z M 27 38L27 39L28 39L28 38 Z M 29 38L29 39L30 39L30 38 Z M 35 38L35 39L37 39L37 38 Z M 38 38L38 39L40 39L40 38 Z M 41 38L41 39L43 39L43 38 Z M 7 39L7 41L8 41L8 39 Z M 9 39L9 41L10 41L10 39 Z M 11 39L11 41L12 41L12 39 Z M 13 39L13 41L14 41L14 39 Z M 19 40L19 41L20 41L20 40 Z M 21 40L21 41L22 41L22 40 Z M 23 40L23 41L24 41L24 40 Z M 25 40L25 41L26 41L26 40 Z M 27 40L27 41L28 41L28 40 Z M 29 40L29 41L30 41L30 40 Z M 35 40L35 41L37 41L37 40 Z M 38 40L38 41L40 41L40 40 Z M 41 40L41 41L43 41L43 40 Z M 7 42L7 44L8 44L8 42 Z M 9 42L9 44L10 44L10 42 Z M 11 42L11 44L12 44L12 42 Z M 13 42L13 44L14 44L14 42 Z M 19 42L19 43L20 43L20 42 Z M 21 42L21 43L22 43L22 42 Z M 23 42L23 43L24 43L24 42 Z M 25 42L25 43L26 43L26 42 Z M 27 42L27 43L28 43L28 42 Z M 29 42L29 43L30 43L30 42 Z M 35 42L35 43L37 43L37 42 Z M 38 42L38 43L40 43L40 42 Z M 41 42L41 43L43 43L43 42 Z M 19 44L19 45L20 45L20 44 Z M 21 44L21 45L22 45L22 44 Z M 23 44L23 45L24 45L24 44 Z M 25 44L25 45L26 45L26 44 Z M 27 44L27 45L28 45L28 44 Z M 29 44L29 45L30 45L30 44 Z M 35 44L35 45L37 45L37 44 Z M 38 44L38 45L40 45L40 44 Z M 41 44L41 45L43 45L43 44 Z M 7 45L7 47L8 47L8 45 Z M 9 45L9 47L10 47L10 45 Z M 11 45L11 47L12 47L12 45 Z M 13 45L13 47L14 47L14 45 Z M 19 46L19 47L20 47L20 46 Z M 21 46L21 47L22 47L22 46 Z M 23 46L23 47L24 47L24 46 Z M 25 46L25 47L26 47L26 46 Z M 27 46L27 47L28 47L28 46 Z M 29 46L29 47L30 47L30 46 Z M 35 46L35 47L37 47L37 46 Z M 38 46L38 47L40 47L40 46 Z M 41 46L41 47L43 47L43 46Z"/></svg>