<svg xmlns="http://www.w3.org/2000/svg" xmlns:xlink="http://www.w3.org/1999/xlink" viewBox="0 0 50 50"><path d="M6 4C5.448 4 5 4.448 5 5L5 8.8769531C4.9683148 8.9980921 4.5154694 10.728175 4.03125 12.623047C3.7808111 13.603077 3.5308499 14.592622 3.3417969 15.365234C3.2472699 15.751541 3.1684794 16.082542 3.1113281 16.335938C3.0827521 16.462635 3.0589086 16.570358 3.0410156 16.662109C3.023122 16.753861 3 16.738159 3 17C3 18.000183 3.3858006 18.907473 4 19.611328L4 45C4 45.553 4.448 46 5 46L10.832031 46 A 1.0001 1.0001 0 0 0 11.158203 46L24.832031 46 A 1.0001 1.0001 0 0 0 25.158203 46L38.832031 46 A 1.0001 1.0001 0 0 0 39.158203 46L45 46C45.553 46 46 45.553 46 45L46 19.611328C46.614199 18.907473 47 18.000183 47 17C47 16.738159 46.976884 16.753861 46.958984 16.662109C46.941094 16.570359 46.917242 16.462634 46.888672 16.335938C46.831523 16.082542 46.75273 15.751541 46.658203 15.365234C46.46915 14.592622 46.219189 13.603077 45.96875 12.623047C45.48453 10.728175 45.031685 8.9980921 45 8.8769531L45 5C45 4.448 44.553 4 44 4L6 4 z M 6.7734375 10L43.226562 10C43.367396 10.54021 43.62873 11.542026 44.03125 13.117188C44.280811 14.093781 44.53085 15.081878 44.716797 15.841797C44.809767 16.221756 44.887229 16.545797 44.939453 16.777344C44.963263 16.882898 44.978484 16.962624 44.990234 17.021484C44.976787 18.125959 44.108075 19 43 19C41.883334 19 41 18.116666 41 17 A 1.0001 1.0001 0 0 0 39.001953 16.929688 A 1.0001 1.0001 0 0 0 39 17C39 18.116666 38.116666 19 37 19C35.883334 19 35 18.116666 35 17 A 1.0001 1.0001 0 0 0 34.996094 16.900391 A 1.0001 1.0001 0 0 0 34.773438 16.353516 A 1.0001 1.0001 0 0 0 34.773438 16.351562 A 1.0001 1.0001 0 0 0 34.464844 16.101562 A 1.0001 1.0001 0 0 0 34.375 16.058594 A 1.0001 1.0001 0 0 0 33.884766 15.992188 A 1.0001 1.0001 0 0 0 33.785156 16.009766 A 1.0001 1.0001 0 0 0 33.597656 16.070312 A 1.0001 1.0001 0 0 0 33.595703 16.072266 A 1.0001 1.0001 0 0 0 33.455078 16.148438 A 1.0001 1.0001 0 0 0 33.421875 16.169922 A 1.0001 1.0001 0 0 0 33.388672 16.197266 A 1.0001 1.0001 0 0 0 33.101562 16.544922 A 1.0001 1.0001 0 0 0 33.101562 16.546875 A 1.0001 1.0001 0 0 0 33.0625 16.636719 A 1.0001 1.0001 0 0 0 33.0625 16.638672 A 1.0001 1.0001 0 0 0 33.033203 16.732422 A 1.0001 1.0001 0 0 0 33.033203 16.734375 A 1.0001 1.0001 0 0 0 33.011719 16.830078 A 1.0001 1.0001 0 0 0 33.011719 16.832031 A 1.0001 1.0001 0 0 0 33.001953 16.929688 A 1.0001 1.0001 0 0 0 33.001953 16.931641 A 1.0001 1.0001 0 0 0 33 17C33 18.116666 32.116666 19 31 19C29.883334 19 29 18.116666 29 17 A 1.0001 1.0001 0 0 0 28.996094 16.900391 A 1.0001 1.0001 0 0 0 28.773438 16.353516 A 1.0001 1.0001 0 0 0 28.773438 16.351562 A 1.0001 1.0001 0 0 0 28.464844 16.101562 A 1.0001 1.0001 0 0 0 28.375 16.058594 A 1.0001 1.0001 0 0 0 27.884766 15.992188 A 1.0001 1.0001 0 0 0 27.785156 16.009766 A 1.0001 1.0001 0 0 0 27.597656 16.070312 A 1.0001 1.0001 0 0 0 27.595703 16.072266 A 1.0001 1.0001 0 0 0 27.455078 16.148438 A 1.0001 1.0001 0 0 0 27.421875 16.169922 A 1.0001 1.0001 0 0 0 27.388672 16.197266 A 1.0001 1.0001 0 0 0 27.101562 16.544922 A 1.0001 1.0001 0 0 0 27.101562 16.546875 A 1.0001 1.0001 0 0 0 27.0625 16.636719 A 1.0001 1.0001 0 0 0 27.0625 16.638672 A 1.0001 1.0001 0 0 0 27.033203 16.732422 A 1.0001 1.0001 0 0 0 27.033203 16.734375 A 1.0001 1.0001 0 0 0 27.011719 16.830078 A 1.0001 1.0001 0 0 0 27.011719 16.832031 A 1.0001 1.0001 0 0 0 27.001953 16.929688 A 1.0001 1.0001 0 0 0 27.001953 16.931641 A 1.0001 1.0001 0 0 0 27 17C27 18.116666 26.116666 19 25 19C23.883334 19 23 18.116666 23 17 A 1.0001 1.0001 0 0 0 22.773438 16.351562 A 1.0001 1.0001 0 0 0 22.707031 16.279297 A 1.0001 1.0001 0 0 0 22.466797 16.101562 A 1.0001 1.0001 0 0 0 22.464844 16.101562 A 1.0001 1.0001 0 0 0 22.375 16.058594 A 1.0001 1.0001 0 0 0 22.083984 15.990234 A 1.0001 1.0001 0 0 0 21.984375 15.986328 A 1.0001 1.0001 0 0 0 21.785156 16.009766 A 1.0001 1.0001 0 0 0 21.689453 16.035156 A 1.0001 1.0001 0 0 0 21.597656 16.070312 A 1.0001 1.0001 0 0 0 21.595703 16.072266 A 1.0001 1.0001 0 0 0 21.455078 16.148438 A 1.0001 1.0001 0 0 0 21.421875 16.169922 A 1.0001 1.0001 0 0 0 21.388672 16.197266 A 1.0001 1.0001 0 0 0 21.271484 16.300781 A 1.0001 1.0001 0 0 0 21.150391 16.458984 A 1.0001 1.0001 0 0 0 21.101562 16.544922 A 1.0001 1.0001 0 0 0 21.101562 16.546875 A 1.0001 1.0001 0 0 0 21.0625 16.636719 A 1.0001 1.0001 0 0 0 21.0625 16.638672 A 1.0001 1.0001 0 0 0 21.033203 16.732422 A 1.0001 1.0001 0 0 0 21.033203 16.734375 A 1.0001 1.0001 0 0 0 21.011719 16.830078 A 1.0001 1.0001 0 0 0 21.011719 16.832031 A 1.0001 1.0001 0 0 0 21.001953 16.929688 A 1.0001 1.0001 0 0 0 21.001953 16.931641 A 1.0001 1.0001 0 0 0 21 17C21 18.116666 20.116666 19 19 19C17.883334 19 17 18.116666 17 17 A 1.0001 1.0001 0 0 0 16.996094 16.900391 A 1.0001 1.0001 0 0 0 16.773438 16.353516 A 1.0001 1.0001 0 0 0 16.773438 16.351562 A 1.0001 1.0001 0 0 0 16.464844 16.101562 A 1.0001 1.0001 0 0 0 16.375 16.058594 A 1.0001 1.0001 0 0 0 16.083984 15.990234 A 1.0001 1.0001 0 0 0 15.884766 15.992188 A 1.0001 1.0001 0 0 0 15.785156 16.009766 A 1.0001 1.0001 0 0 0 15.597656 16.070312 A 1.0001 1.0001 0 0 0 15.595703 16.072266 A 1.0001 1.0001 0 0 0 15.455078 16.148438 A 1.0001 1.0001 0 0 0 15.388672 16.197266 A 1.0001 1.0001 0 0 0 15.271484 16.300781 A 1.0001 1.0001 0 0 0 15.101562 16.544922 A 1.0001 1.0001 0 0 0 15.101562 16.546875 A 1.0001 1.0001 0 0 0 15.0625 16.636719 A 1.0001 1.0001 0 0 0 15.0625 16.638672 A 1.0001 1.0001 0 0 0 15.033203 16.732422 A 1.0001 1.0001 0 0 0 15.033203 16.734375 A 1.0001 1.0001 0 0 0 15.011719 16.830078 A 1.0001 1.0001 0 0 0 15.011719 16.832031 A 1.0001 1.0001 0 0 0 15.001953 16.929688 A 1.0001 1.0001 0 0 0 15.001953 16.931641 A 1.0001 1.0001 0 0 0 15 17C15 18.116666 14.116666 19 13 19C11.883334 19 11 18.116666 11 17 A 1.0001 1.0001 0 0 0 10.996094 16.900391 A 1.0001 1.0001 0 0 0 10.773438 16.353516 A 1.0001 1.0001 0 0 0 10.773438 16.351562 A 1.0001 1.0001 0 0 0 10.464844 16.101562 A 1.0001 1.0001 0 0 0 10.375 16.058594 A 1.0001 1.0001 0 0 0 9.8847656 15.992188 A 1.0001 1.0001 0 0 0 9.7851562 16.009766 A 1.0001 1.0001 0 0 0 9.5976562 16.070312 A 1.0001 1.0001 0 0 0 9.5957031 16.072266 A 1.0001 1.0001 0 0 0 9.4550781 16.148438 A 1.0001 1.0001 0 0 0 9.421875 16.169922 A 1.0001 1.0001 0 0 0 9.3886719 16.197266 A 1.0001 1.0001 0 0 0 9.1015625 16.544922 A 1.0001 1.0001 0 0 0 9.1015625 16.546875 A 1.0001 1.0001 0 0 0 9.0625 16.636719 A 1.0001 1.0001 0 0 0 9.0625 16.638672 A 1.0001 1.0001 0 0 0 9.0332031 16.732422 A 1.0001 1.0001 0 0 0 9.0332031 16.734375 A 1.0001 1.0001 0 0 0 9.0117188 16.830078 A 1.0001 1.0001 0 0 0 9.0117188 16.832031 A 1.0001 1.0001 0 0 0 9.0019531 16.929688 A 1.0001 1.0001 0 0 0 9.0019531 16.931641 A 1.0001 1.0001 0 0 0 9 17C9 18.116666 8.1166661 19 7 19C5.8919245 19 5.023214 18.125959 5.0097656 17.021484C5.0215206 16.962624 5.0367399 16.882898 5.0605469 16.777344C5.1127709 16.545797 5.1902297 16.221756 5.2832031 15.841797C5.4691504 15.081878 5.7191889 14.093781 5.96875 13.117188C6.3712697 11.542025 6.6326046 10.54021 6.7734375 10 z M 12 26L24 26L24 44L12 44L12 26 z M 26 26L38 26L38 44L26 44L26 26 z M 21 33 A 1 1 0 0 0 20 34 A 1 1 0 0 0 21 35 A 1 1 0 0 0 22 34 A 1 1 0 0 0 21 33 z M 29 33 A 1 1 0 0 0 28 34 A 1 1 0 0 0 29 35 A 1 1 0 0 0 30 34 A 1 1 0 0 0 29 33 z"/></svg>