<svg xmlns="http://www.w3.org/2000/svg" xmlns:xlink="http://www.w3.org/1999/xlink" viewBox="0 0 50 50"><path d="M6 4 A 1.0001 1.0001 0 0 0 5 5L5 8.8574219C4.9598285 8.9910122 4.5208315 10.450159 4.0410156 12.087891C3.7903729 12.943397 3.5393498 13.811635 3.3496094 14.492188C3.2547394 14.832463 3.1753346 15.12478 3.1171875 15.353516C3.0881145 15.467884 3.0639299 15.56438 3.0449219 15.652344C3.0259144 15.740307 3 15.738159 3 16C3 17.028909 3.4048312 17.962549 4.0507812 18.673828 A 1.0001 1.0001 0 0 0 4 19L4 45 A 1.0001 1.0001 0 0 0 5 46L10.832031 46 A 1.0001 1.0001 0 0 0 11.158203 46L24.832031 46 A 1.0001 1.0001 0 0 0 25.158203 46L38.832031 46 A 1.0001 1.0001 0 0 0 39.158203 46L45 46 A 1.0001 1.0001 0 0 0 46 45L46 19 A 1.0001 1.0001 0 0 0 45.949219 18.673828C46.595169 17.962549 47 17.028909 47 16C47 15.738159 46.974088 15.740307 46.955078 15.652344C46.936068 15.564384 46.911893 15.467884 46.882812 15.353516C46.824669 15.12478 46.745261 14.832462 46.650391 14.492188C46.46065 13.811635 46.209627 12.943397 45.958984 12.087891C45.479169 10.450159 45.040171 8.9910122 45 8.8574219L45 5 A 1.0001 1.0001 0 0 0 44 4L6 4 z M 7 6L43 6L43 8L7 8L7 6 z M 6.7460938 10L43.253906 10C43.402984 10.497445 43.647985 11.30888 44.041016 12.650391C44.290373 13.501509 44.53935 14.364817 44.724609 15.029297C44.817239 15.361537 44.894087 15.644185 44.945312 15.845703C44.965494 15.925103 44.977251 15.979131 44.988281 16.027344C44.971365 17.12863 44.105831 18 43 18C41.883334 18 41 17.116666 41 16 A 1.0001 1.0001 0 0 0 39.001953 15.929688 A 1.0001 1.0001 0 0 0 39 16C39 17.116666 38.116666 18 37 18C35.883334 18 35 17.116666 35 16 A 1.0001 1.0001 0 0 0 34.773438 15.351562 A 1.0001 1.0001 0 0 0 34.707031 15.279297 A 1.0001 1.0001 0 0 0 34.466797 15.101562 A 1.0001 1.0001 0 0 0 34.464844 15.101562 A 1.0001 1.0001 0 0 0 34.375 15.058594 A 1.0001 1.0001 0 0 0 34.083984 14.990234 A 1.0001 1.0001 0 0 0 33.984375 14.986328 A 1.0001 1.0001 0 0 0 33.785156 15.009766 A 1.0001 1.0001 0 0 0 33.689453 15.035156 A 1.0001 1.0001 0 0 0 33.597656 15.070312 A 1.0001 1.0001 0 0 0 33.595703 15.072266 A 1.0001 1.0001 0 0 0 33.455078 15.148438 A 1.0001 1.0001 0 0 0 33.421875 15.169922 A 1.0001 1.0001 0 0 0 33.388672 15.197266 A 1.0001 1.0001 0 0 0 33.271484 15.300781 A 1.0001 1.0001 0 0 0 33.150391 15.458984 A 1.0001 1.0001 0 0 0 33.101562 15.544922 A 1.0001 1.0001 0 0 0 33.101562 15.546875 A 1.0001 1.0001 0 0 0 33.0625 15.636719 A 1.0001 1.0001 0 0 0 33.0625 15.638672 A 1.0001 1.0001 0 0 0 33.033203 15.732422 A 1.0001 1.0001 0 0 0 33.033203 15.734375 A 1.0001 1.0001 0 0 0 33.011719 15.830078 A 1.0001 1.0001 0 0 0 33.011719 15.832031 A 1.0001 1.0001 0 0 0 33.001953 15.929688 A 1.0001 1.0001 0 0 0 33.001953 15.931641 A 1.0001 1.0001 0 0 0 33 16C33 17.116666 32.116666 18 31 18C29.883334 18 29 17.116666 29 16 A 1.0001 1.0001 0 0 0 28.996094 15.900391 A 1.0001 1.0001 0 0 0 28.773438 15.353516 A 1.0001 1.0001 0 0 0 28.773438 15.351562 A 1.0001 1.0001 0 0 0 28.464844 15.101562 A 1.0001 1.0001 0 0 0 28.375 15.058594 A 1.0001 1.0001 0 0 0 28.083984 14.990234 A 1.0001 1.0001 0 0 0 27.884766 14.992188 A 1.0001 1.0001 0 0 0 27.785156 15.009766 A 1.0001 1.0001 0 0 0 27.597656 15.070312 A 1.0001 1.0001 0 0 0 27.595703 15.072266 A 1.0001 1.0001 0 0 0 27.455078 15.148438 A 1.0001 1.0001 0 0 0 27.388672 15.197266 A 1.0001 1.0001 0 0 0 27.271484 15.300781 A 1.0001 1.0001 0 0 0 27.101562 15.544922 A 1.0001 1.0001 0 0 0 27.101562 15.546875 A 1.0001 1.0001 0 0 0 27.0625 15.636719 A 1.0001 1.0001 0 0 0 27.0625 15.638672 A 1.0001 1.0001 0 0 0 27.033203 15.732422 A 1.0001 1.0001 0 0 0 27.033203 15.734375 A 1.0001 1.0001 0 0 0 27.011719 15.830078 A 1.0001 1.0001 0 0 0 27.011719 15.832031 A 1.0001 1.0001 0 0 0 27.001953 15.929688 A 1.0001 1.0001 0 0 0 27.001953 15.931641 A 1.0001 1.0001 0 0 0 27 16C27 17.116666 26.116666 18 25 18C23.883334 18 23 17.116666 23 16 A 1.0001 1.0001 0 0 0 22.996094 15.900391 A 1.0001 1.0001 0 0 0 22.773438 15.353516 A 1.0001 1.0001 0 0 0 22.773438 15.351562 A 1.0001 1.0001 0 0 0 22.464844 15.101562 A 1.0001 1.0001 0 0 0 22.375 15.058594 A 1.0001 1.0001 0 0 0 21.884766 14.992188 A 1.0001 1.0001 0 0 0 21.785156 15.009766 A 1.0001 1.0001 0 0 0 21.597656 15.070312 A 1.0001 1.0001 0 0 0 21.595703 15.072266 A 1.0001 1.0001 0 0 0 21.455078 15.148438 A 1.0001 1.0001 0 0 0 21.421875 15.169922 A 1.0001 1.0001 0 0 0 21.388672 15.197266 A 1.0001 1.0001 0 0 0 21.101562 15.544922 A 1.0001 1.0001 0 0 0 21.101562 15.546875 A 1.0001 1.0001 0 0 0 21.0625 15.636719 A 1.0001 1.0001 0 0 0 21.0625 15.638672 A 1.0001 1.0001 0 0 0 21.033203 15.732422 A 1.0001 1.0001 0 0 0 21.033203 15.734375 A 1.0001 1.0001 0 0 0 21.011719 15.830078 A 1.0001 1.0001 0 0 0 21.011719 15.832031 A 1.0001 1.0001 0 0 0 21.001953 15.929688 A 1.0001 1.0001 0 0 0 21.001953 15.931641 A 1.0001 1.0001 0 0 0 21 16C21 17.116666 20.116666 18 19 18C17.883334 18 17 17.116666 17 16 A 1.0001 1.0001 0 0 0 16.996094 15.900391 A 1.0001 1.0001 0 0 0 16.773438 15.353516 A 1.0001 1.0001 0 0 0 16.773438 15.351562 A 1.0001 1.0001 0 0 0 16.464844 15.101562 A 1.0001 1.0001 0 0 0 16.375 15.058594 A 1.0001 1.0001 0 0 0 15.884766 14.992188 A 1.0001 1.0001 0 0 0 15.785156 15.009766 A 1.0001 1.0001 0 0 0 15.597656 15.070312 A 1.0001 1.0001 0 0 0 15.595703 15.072266 A 1.0001 1.0001 0 0 0 15.455078 15.148438 A 1.0001 1.0001 0 0 0 15.421875 15.169922 A 1.0001 1.0001 0 0 0 15.388672 15.197266 A 1.0001 1.0001 0 0 0 15.101562 15.544922 A 1.0001 1.0001 0 0 0 15.101562 15.546875 A 1.0001 1.0001 0 0 0 15.0625 15.636719 A 1.0001 1.0001 0 0 0 15.0625 15.638672 A 1.0001 1.0001 0 0 0 15.033203 15.732422 A 1.0001 1.0001 0 0 0 15.033203 15.734375 A 1.0001 1.0001 0 0 0 15.011719 15.830078 A 1.0001 1.0001 0 0 0 15.011719 15.832031 A 1.0001 1.0001 0 0 0 15.001953 15.929688 A 1.0001 1.0001 0 0 0 15.001953 15.931641 A 1.0001 1.0001 0 0 0 15 16C15 17.116666 14.116666 18 13 18C11.883334 18 11 17.116666 11 16 A 1.0001 1.0001 0 0 0 10.996094 15.900391 A 1.0001 1.0001 0 0 0 10.773438 15.353516 A 1.0001 1.0001 0 0 0 10.773438 15.351562 A 1.0001 1.0001 0 0 0 10.464844 15.101562 A 1.0001 1.0001 0 0 0 10.375 15.058594 A 1.0001 1.0001 0 0 0 9.8847656 14.992188 A 1.0001 1.0001 0 0 0 9.7851562 15.009766 A 1.0001 1.0001 0 0 0 9.5976562 15.070312 A 1.0001 1.0001 0 0 0 9.5957031 15.072266 A 1.0001 1.0001 0 0 0 9.4550781 15.148438 A 1.0001 1.0001 0 0 0 9.421875 15.169922 A 1.0001 1.0001 0 0 0 9.3886719 15.197266 A 1.0001 1.0001 0 0 0 9.1015625 15.544922 A 1.0001 1.0001 0 0 0 9.1015625 15.546875 A 1.0001 1.0001 0 0 0 9.0625 15.636719 A 1.0001 1.0001 0 0 0 9.0625 15.638672 A 1.0001 1.0001 0 0 0 9.0332031 15.732422 A 1.0001 1.0001 0 0 0 9.0332031 15.734375 A 1.0001 1.0001 0 0 0 9.0117188 15.830078 A 1.0001 1.0001 0 0 0 9.0117188 15.832031 A 1.0001 1.0001 0 0 0 9.0019531 15.929688 A 1.0001 1.0001 0 0 0 9.0019531 15.931641 A 1.0001 1.0001 0 0 0 9 16C9 17.116666 8.1166661 18 7 18C5.8941692 18 5.0286341 17.12863 5.0117188 16.027344C5.0227438 15.979134 5.0345035 15.925102 5.0546875 15.845703C5.1059155 15.644185 5.1827609 15.361537 5.2753906 15.029297C5.4606502 14.364817 5.7096271 13.501509 5.9589844 12.650391C6.3520145 11.30888 6.5970162 10.497445 6.7460938 10 z M 10 18.611328C10.735155 19.453795 11.802849 20 13 20C14.197151 20 15.264845 19.453795 16 18.611328C16.735155 19.453795 17.802849 20 19 20C20.197151 20 21.264845 19.453795 22 18.611328C22.735155 19.453795 23.802849 20 25 20C26.197151 20 27.264845 19.453795 28 18.611328C28.735155 19.453795 29.802849 20 31 20C32.197151 20 33.264845 19.453795 34 18.611328C34.735155 19.453795 35.802849 20 37 20C38.197151 20 39.264845 19.453795 40 18.611328C40.735155 19.453795 41.802849 20 43 20C43.346999 20 43.678231 19.939834 44 19.855469L44 44L40 44L40 24 A 1.0001 1.0001 0 0 0 39 23L25.154297 23 A 1.0001 1.0001 0 0 0 24.984375 22.986328 A 1.0001 1.0001 0 0 0 24.839844 23L11 23 A 1.0001 1.0001 0 0 0 10 24L10 44L6 44L6 19.855469C6.3217694 19.939834 6.6530011 20 7 20C8.1971509 20 9.2648452 19.453795 10 18.611328 z M 12 25L24 25L24 44L12 44L12 25 z M 26 25L38 25L38 44L26 44L26 25 z M 21 33 A 1 1 0 0 0 20 34 A 1 1 0 0 0 21 35 A 1 1 0 0 0 22 34 A 1 1 0 0 0 21 33 z M 29 33 A 1 1 0 0 0 28 34 A 1 1 0 0 0 29 35 A 1 1 0 0 0 30 34 A 1 1 0 0 0 29 33 z"/></svg>