<?xml version="1.0" encoding="utf-8"?><svg version="1.1" id="Layer_1" xmlns="http://www.w3.org/2000/svg" xmlns:xlink="http://www.w3.org/1999/xlink" x="0px" y="0px" width="122.88px" height="109.652px" viewBox="0 0 122.88 109.652" enable-background="new 0 0 122.88 109.652" xml:space="preserve"><g><path fill-rule="evenodd" clip-rule="evenodd" d="M2.585,49.871H54.77V34.054v-0.011h0.009c0.002-9.368,3.828-17.878,9.989-24.042 c6.164-6.163,14.679-9.991,24.051-9.991V0h0.005l0,0h0.012v0.009c9.368,0.002,17.878,3.828,24.042,9.989 c6.164,6.164,9.991,14.679,9.991,24.051h0.012v0.004v15.96v2.403h-2.403h-9.811h-2.404v-2.403V33.868v-0.009h0.012 c-0.002-5.332-2.195-10.189-5.722-13.715c-3.528-3.531-8.388-5.721-13.724-5.724v0.009h-0.005l0,0h-0.011V14.42 c-5.334,0.002-10.191,2.19-13.72,5.717l0.005,0.005c-3.529,3.528-5.722,8.388-5.722,13.722h0.009v0.005v16.003h13.987 c1.422,0,2.585,1.164,2.585,2.585v54.613c0,1.422-1.163,2.583-2.585,2.583H2.585c-1.424,0-2.585-1.161-2.585-2.583V52.456 C0,51.035,1.161,49.871,2.585,49.871L2.585,49.871z M43.957,79.753l4.098,18.908l-11.232,0.045l3.297-19.162 c-3.068-0.981-5.295-3.857-5.295-7.252c0-4.202,3.411-7.613,7.614-7.613c4.202,0,7.613,3.411,7.613,7.613 C50.053,75.975,47.433,79.048,43.957,79.753L43.957,79.753z"/></g></svg>