<?xml version="1.0" encoding="utf-8"?><svg version="1.1" id="Layer_1" xmlns="http://www.w3.org/2000/svg" xmlns:xlink="http://www.w3.org/1999/xlink" x="0px" y="0px" viewBox="0 0 122.88 91.38" style="enable-background:new 0 0 122.88 91.38" xml:space="preserve"><g><path d="M97.13,26.09c-1.11,0-2.01-0.9-2.01-2.01c0-1.11,0.9-2.01,2.01-2.01h11.52c1.11,0,2.01,0.9,2.01,2.01 c0,1.11-0.9,2.01-2.01,2.01H97.13L97.13,26.09z M5.98,0H116.9c1.65,0,3.14,0.67,4.22,1.75c1.08,1.08,1.75,2.58,1.75,4.22v79.43 c0,1.65-0.67,3.14-1.75,4.22c-1.08,1.08-2.58,1.75-4.22,1.75H5.98c-1.65,0-3.14-0.67-4.22-1.75C0.67,88.55,0,87.05,0,85.41V5.98 c0-1.65,0.67-3.14,1.75-4.22C2.84,0.67,4.33,0,5.98,0L5.98,0z M116.9,4.03H5.98c-0.53,0-1.02,0.22-1.37,0.57 C4.25,4.95,4.03,5.44,4.03,5.98v79.43c0,0.53,0.22,1.02,0.57,1.37c0.35,0.35,0.84,0.57,1.37,0.57H116.9c0.53,0,1.02-0.22,1.37-0.57 c0.35-0.35,0.57-0.84,0.57-1.37V5.98c0-0.53-0.22-1.02-0.57-1.37C117.92,4.25,117.44,4.03,116.9,4.03L116.9,4.03z M45.68,8.45 c10.26,0,19.55,4.16,26.28,10.89c6.73,6.73,10.89,16.02,10.89,26.28c0,8.53-2.87,16.38-7.7,22.66v0.1c0,0.75-0.56,1.37-1.29,1.48 c-0.61,0.71-1.24,1.39-1.9,2.04c-6.73,6.73-16.02,10.89-26.28,10.89c-10.26,0-19.55-4.16-26.28-10.89 C12.67,65.17,8.51,55.88,8.51,45.62c0-10.26,4.16-19.55,10.89-26.28C26.13,12.61,35.42,8.45,45.68,8.45L45.68,8.45L45.68,8.45z M69.82,21.47c-1.18-1.18-2.45-2.28-3.79-3.28v54.84c1.34-1,2.61-2.09,3.79-3.28c0.81-0.81,1.57-1.66,2.3-2.54l0-43.02 c0-0.06,0-0.12,0.01-0.17C71.41,23.14,70.64,22.28,69.82,21.47L69.82,21.47L69.82,21.47z M63.04,16.2 c-1.93-1.14-3.97-2.09-6.12-2.84v64.5c2.14-0.74,4.17-1.69,6.09-2.83V16.47C63.01,16.38,63.02,16.29,63.04,16.2L63.04,16.2z M53.9,12.47c-1.97-0.49-4-0.8-6.09-0.93V79.7c2.09-0.13,4.12-0.44,6.09-0.93V12.47L53.9,12.47z M44.79,11.48 c-2.08,0.05-4.12,0.29-6.09,0.7v66.86c1.97,0.41,4.01,0.65,6.09,0.7V11.48L44.79,11.48z M35.68,12.96 c-2.13,0.65-4.16,1.5-6.09,2.54v60.24c1.93,1.03,3.97,1.88,6.09,2.54V12.96L35.68,12.96L35.68,12.96z M26.56,17.32 c-1.81,1.22-3.49,2.61-5.03,4.15c-0.36,0.36-0.72,0.73-1.06,1.11l0,0.03v46.03c0.35,0.38,0.7,0.75,1.06,1.11 c1.54,1.54,3.22,2.93,5.03,4.15L26.56,17.32L26.56,17.32L26.56,17.32z M17.45,26.4c-3.73,5.47-5.92,12.09-5.92,19.22 c0,7.13,2.18,13.74,5.92,19.22V26.4L17.45,26.4z M75.14,62.88c2.98-5.07,4.68-10.97,4.68-17.27s-1.71-12.2-4.68-17.27V62.88 L75.14,62.88L75.14,62.88z M84.19,16.5c-1.11,0-2.01-0.9-2.01-2.01c0-1.11,0.9-2.01,2.01-2.01h24.45c1.11,0,2.01,0.9,2.01,2.01 c0,1.11-0.9,2.01-2.01,2.01H84.19L84.19,16.5z"/></g></svg>