<?xml version="1.0" encoding="utf-8"?><svg version="1.1" id="Layer_1" xmlns="http://www.w3.org/2000/svg" xmlns:xlink="http://www.w3.org/1999/xlink" x="0px" y="0px" viewBox="0 0 120.59 122.88" style="enable-background:new 0 0 120.59 122.88" xml:space="preserve"><g><path d="M32.48,104.77l-9.72,16.68c-0.4,0.68-1.03,1.14-1.74,1.33c-0.71,0.19-1.49,0.11-2.17-0.29c-0.68-0.4-1.14-1.03-1.33-1.74 c-0.19-0.71-0.11-1.49,0.29-2.17l10.15-17.4c-2.27-2.03-4.35-4.28-6.2-6.7c-2.01-2.63-3.75-5.47-5.2-8.49 c-1.54-3.21-2.73-6.61-3.54-10.16c-0.78-3.45-1.2-7.04-1.2-10.71c0-6.55,1.3-12.79,3.67-18.5c2.46-5.93,6.05-11.26,10.51-15.71 c4.46-4.46,9.79-8.05,15.71-10.51c5.7-2.36,11.95-3.67,18.5-3.67c6.55,0,12.8,1.3,18.5,3.67c5.93,2.45,11.26,6.05,15.71,10.5 c4.46,4.46,8.05,9.79,10.5,15.71c2.36,5.7,3.67,11.95,3.67,18.5c0,6.55-1.3,12.8-3.67,18.5c-2.46,5.93-6.05,11.26-10.5,15.71 c-0.39,0.39-0.82,0.8-1.28,1.23c-0.22,0.21-0.45,0.42-0.69,0.63l10.14,17.39c0.4,0.68,0.48,1.46,0.29,2.17 c-0.19,0.71-0.65,1.35-1.33,1.74c-0.68,0.4-1.46,0.48-2.17,0.29c-0.71-0.19-1.35-0.65-1.74-1.33l-9.72-16.67 c-3.84,2.69-8.1,4.84-12.65,6.33c-4.75,1.55-9.81,2.4-15.07,2.4c-2.76,0-5.48-0.24-8.14-0.69c-2.71-0.46-5.35-1.15-7.89-2.04 c-2.27-0.8-4.45-1.75-6.54-2.86C35.84,106.97,34.12,105.92,32.48,104.77L32.48,104.77z M56.22,39.63c0-0.79,0.32-1.5,0.84-2.03 l0.01-0.01c0.52-0.52,1.24-0.84,2.02-0.84c0.79,0,1.51,0.32,2.03,0.84l0,0c0.52,0.52,0.84,1.24,0.84,2.03v27.44h26.35 c0.79,0,1.51,0.32,2.03,0.84c0.02,0.02,0.04,0.05,0.06,0.07c0.48,0.52,0.78,1.21,0.78,1.96c0,0.79-0.32,1.5-0.84,2.03l-0.01,0.01 c-0.52,0.52-1.24,0.84-2.02,0.84H59.09c-0.79,0-1.5-0.32-2.03-0.84l-0.01-0.01c-0.52-0.52-0.84-1.24-0.84-2.02V39.63L56.22,39.63z M90.35,34.97c-3.94-3.94-8.63-7.1-13.84-9.26c-5.02-2.08-10.53-3.23-16.31-3.23S48.9,23.63,43.88,25.7 c-5.21,2.16-9.91,5.33-13.84,9.26c-3.94,3.94-7.1,8.63-9.26,13.84c-2.08,5.02-3.23,10.53-3.23,16.31c0,3.26,0.36,6.43,1.05,9.46 c0.71,3.13,1.75,6.12,3.1,8.94c1.38,2.87,3.07,5.58,5.04,8.06c1.98,2.5,4.24,4.77,6.72,6.77l0.06,0.05 c1.87,1.5,3.87,2.85,5.98,4.02c2.08,1.16,4.27,2.15,6.55,2.95c2.23,0.78,4.55,1.39,6.94,1.79c2.33,0.39,4.74,0.6,7.2,0.6 c5.78,0,11.29-1.15,16.31-3.23c5.21-2.16,9.91-5.33,13.84-9.26c3.94-3.94,7.1-8.63,9.26-13.84c2.08-5.02,3.23-10.53,3.23-16.31 s-1.15-11.29-3.23-16.31C97.45,43.6,94.28,38.9,90.35,34.97L90.35,34.97z M120.59,24.92c0,1.72-0.21,3.4-0.61,5.03 c-0.41,1.67-1.02,3.27-1.8,4.78c-0.79,1.53-1.76,2.97-2.89,4.31c-1.13,1.34-2.42,2.57-3.85,3.67c-0.63,0.48-1.39,0.67-2.11,0.57 c-0.73-0.09-1.42-0.46-1.9-1.09c-0.1-0.13-0.19-0.27-0.27-0.41c-0.07-0.13-0.13-0.27-0.18-0.4l-0.02-0.05 c-1.13-3.43-2.63-6.7-4.45-9.74c-1.85-3.09-4.04-5.95-6.52-8.54c-2.48-2.59-5.24-4.91-8.24-6.9c-2.96-1.97-6.16-3.62-9.53-4.9 c-0.74-0.28-1.3-0.83-1.6-1.5c-0.3-0.67-0.35-1.45-0.07-2.19c0.12-0.31,0.29-0.6,0.49-0.84c0.21-0.25,0.47-0.47,0.74-0.63 l0.01-0.01c2.26-1.51,4.78-2.64,7.42-3.4c2.76-0.79,5.67-1.19,8.57-1.19c2.24,0,4.5,0.24,6.7,0.7c2.18,0.46,4.29,1.14,6.27,2.04 c2.08,0.95,4.03,2.13,5.76,3.55c1.66,1.36,3.14,2.95,4.37,4.76c1.19,1.76,2.14,3.7,2.77,5.82 C120.26,20.4,120.59,22.58,120.59,24.92L120.59,24.92z M113.08,32.1c0.58-1.11,1.02-2.29,1.32-3.51c0.29-1.18,0.44-2.41,0.44-3.68 c0-1.77-0.24-3.4-0.68-4.89c-0.46-1.57-1.15-2.99-2.01-4.26c-0.91-1.34-2.02-2.53-3.29-3.56c-1.33-1.08-2.84-2-4.46-2.73 c-1.61-0.73-3.33-1.29-5.1-1.66c-1.79-0.38-3.65-0.57-5.51-0.57c-1.77,0-3.51,0.17-5.2,0.51c-0.89,0.18-1.77,0.41-2.62,0.69 c2.29,1.19,4.48,2.54,6.57,4.04c2.74,1.96,5.28,4.18,7.6,6.6c2.45,2.56,4.64,5.36,6.55,8.35c1.6,2.51,2.99,5.17,4.17,7.96 c0.27-0.32,0.53-0.65,0.78-0.98C112.18,33.68,112.66,32.91,113.08,32.1L113.08,32.1z M40.01,13.52c-3.43,1.13-6.7,2.63-9.74,4.45 c-3.09,1.85-5.95,4.04-8.54,6.52c-2.59,2.48-4.91,5.24-6.9,8.24c-1.97,2.96-3.62,6.16-4.9,9.53c-0.28,0.74-0.83,1.3-1.5,1.6 c-0.67,0.3-1.45,0.35-2.19,0.07c-0.31-0.12-0.59-0.28-0.83-0.49c-0.24-0.2-0.44-0.44-0.6-0.7c-0.77-1.14-1.46-2.36-2.06-3.63 c-0.6-1.27-1.1-2.59-1.51-3.94c-0.41-1.36-0.72-2.77-0.93-4.22C0.11,29.52,0,28.07,0,26.6c0-3.19,0.53-6.22,1.48-9.02 c1.01-2.96,2.49-5.65,4.31-8c1.42-1.83,3.05-3.43,4.82-4.78c1.79-1.36,3.73-2.47,5.76-3.27c2.1-0.83,4.3-1.34,6.53-1.49 c2.16-0.14,4.34,0.05,6.5,0.63c2.23,0.6,4.42,1.6,6.5,3.06c1.95,1.37,3.8,3.13,5.49,5.32c0.48,0.63,0.67,1.39,0.57,2.11 c-0.09,0.73-0.46,1.42-1.09,1.9c-0.13,0.1-0.27,0.19-0.41,0.27c-0.13,0.07-0.27,0.13-0.4,0.18L40.01,13.52L40.01,13.52z M17.78,20.34c2.56-2.45,5.36-4.65,8.36-6.55c2.52-1.6,5.19-3,7.98-4.18c-0.77-0.68-1.56-1.26-2.37-1.75 c-1.24-0.75-2.53-1.3-3.84-1.65c-1.54-0.41-3.11-0.55-4.67-0.45c-1.62,0.11-3.22,0.49-4.77,1.1c-1.56,0.62-3.05,1.46-4.43,2.51 c-1.38,1.05-2.65,2.3-3.75,3.72c-1.43,1.84-2.6,3.97-3.39,6.32c-0.75,2.21-1.17,4.63-1.17,7.18c0,1.21,0.09,2.39,0.25,3.53 c0.17,1.17,0.42,2.3,0.75,3.4c0.11,0.37,0.23,0.73,0.35,1.08c1.2-2.32,2.56-4.54,4.07-6.64C13.12,25.22,15.34,22.67,17.78,20.34 L17.78,20.34z"/></g></svg>