<svg xmlns="http://www.w3.org/2000/svg" xmlns:xlink="http://www.w3.org/1999/xlink" viewBox="0 0 50 50"><path d="M25 1C16.6 1 10 4.5 10 9L10 41C10 45.5 16.6 49 25 49C33.4 49 40 45.5 40 41L40 9C40 4.5 33.4 1 25 1 z M 25 3C32.8 3 38 6.1 38 9C38 9.18125 37.979443 9.362915 37.939453 9.5449219C37.859473 9.9089355 37.701074 10.273486 37.46875 10.630859C37.004102 11.345605 36.245508 12.033691 35.232422 12.644531C33.20625 13.866211 30.164062 14.777539 26.431641 14.964844C25.965088 14.988257 25.4875 15 25 15C17.2 15 12 11.9 12 9C12 6.1 17.2 3 25 3 z M 24 5C23.4 5 23 5.4 23 6C23 6.6 23.4 7 24 7L26 7C26.6 7 27 6.6 27 6C27 5.4 26.6 5 26 5L24 5 z M 16 8C15.4 8 15 8.4 15 9C15 9.6 15.4 10 16 10L18 10C18.6 10 19 9.6 19 9C19 8.4 18.6 8 18 8L16 8 z M 32 8C31.4 8 31 8.4 31 9C31 9.6 31.4 10 32 10L34 10C34.6 10 35 9.6 35 9C35 8.4 34.6 8 34 8L32 8 z M 24 11C23.4 11 23 11.4 23 12C23 12.6 23.4 13 24 13L26 13C26.6 13 27 12.6 27 12C27 11.4 26.6 11 26 11L24 11 z M 12 13.037109C13.92013 14.821977 17.089692 16.146213 20.919922 16.703125C20.972848 16.711004 21.026905 16.717031 21.080078 16.724609C21.607677 16.798035 22.146934 16.856908 22.697266 16.900391C22.832141 16.911323 22.965442 16.922614 23.101562 16.931641C23.723793 16.971865 24.354319 17 25 17C25.645681 17 26.276207 16.971865 26.898438 16.931641C27.034558 16.922614 27.167859 16.911323 27.302734 16.900391C27.853066 16.856908 28.392323 16.798035 28.919922 16.724609C28.973095 16.717031 29.027152 16.711004 29.080078 16.703125C32.910308 16.146213 36.07987 14.821977 38 13.037109L38 41C38 43.9 32.8 47 25 47C17.2 47 12 43.9 12 41L12 13.037109 z"/></svg>