<svg xmlns="http://www.w3.org/2000/svg" xmlns:xlink="http://www.w3.org/1999/xlink" viewBox="0 0 50 50"><path d="M6.9023438 3.9980469C5.2863438 3.9980469 3.9726562 5.3440469 3.9726562 6.9980469L3.9726562 14L32.033203 14L32.033203 7C32.033203 5.346 30.720516 4 29.103516 4L6.9023438 3.9980469 z M 9 7C9.553 7 10 7.448 10 8L10 11C10 11.552 9.553 12 9 12C8.447 12 8 11.552 8 11L8 8C8 7.448 8.447 7 9 7 z M 3.9726562 16L3.9726562 40.001953C3.9726562 41.655953 5.2872969 43.001953 6.9042969 43.001953L8 43.001953L8 45C8 45.552 8.447 46 9 46L13 46C13.553 46 14 45.552 14 45L14 43.001953L22 43L22 23C22 20.791 23.791 19 26 19L32.033203 19L32.033203 16L3.9726562 16 z M 9 19C9.553 19 10 19.448 10 20L10 24C10 24.552 9.553 25 9 25C8.447 25 8 24.552 8 24L8 20C8 19.448 8.447 19 9 19 z M 27 21C25.346 21 24 22.346 24 24L24 43C24 44.654 25.346 46 27 46L43 46C44.654 46 46 44.654 46 43L46 24C46 22.346 44.654 21 43 21L27 21 z M 38 24C38.552 24 39 24.448 39 25C39 25.552 38.552 26 38 26C37.448 26 37 25.552 37 25C37 24.448 37.448 24 38 24 z M 42 24C42.552 24 43 24.448 43 25C43 25.552 42.552 26 42 26C41.448 26 41 25.552 41 25C41 24.448 41.448 24 42 24 z M 35 29C38.309 29 41 31.691 41 35C41 38.309 38.309 41 35 41C31.691 41 29 38.309 29 35C29 31.691 31.691 29 35 29 z M 35 31 A 4 4 0 0 0 35 39 A 4 4 0 0 0 35 31 z"/></svg>