<svg xmlns="http://www.w3.org/2000/svg" xmlns:xlink="http://www.w3.org/1999/xlink" viewBox="0 0 50 50"><path d="M6.8125 2C6.488281 2.054688 6.210938 2.269531 6.074219 2.570313C5.9375 2.867188 5.957031 3.21875 6.125 3.5L11 12.03125L11.875 19.9375C11.878906 20 11.890625 20.0625 11.90625 20.125L11.90625 20.21875C11.90625 20.230469 11.90625 20.238281 11.90625 20.25L13 30.125C11.496094 31.089844 10.359375 32.609375 9.9375 34.4375C9.9375 34.457031 9.9375 34.480469 9.9375 34.5L8 46.84375C7.953125 47.136719 8.039063 47.429688 8.230469 47.652344C8.425781 47.878906 8.707031 48.003906 9 48L38.78125 48C39.070313 47.996094 39.34375 47.863281 39.527344 47.640625C39.714844 47.421875 39.796875 47.128906 39.75 46.84375L37.84375 34.5C37.835938 34.480469 37.824219 34.457031 37.8125 34.4375C37.390625 32.613281 36.273438 31.089844 34.78125 30.125L35.25 26L38.125 26C40.125 26 41.832031 24.515625 42.09375 22.53125L43.53125 11.53125C43.839844 9.152344 41.960938 7 39.5625 7L37.34375 7L37.78125 3.125C37.816406 2.839844 37.726563 2.550781 37.535156 2.335938C37.34375 2.121094 37.070313 1.996094 36.78125 2L7 2C6.96875 2 6.9375 2 6.90625 2C6.875 2 6.84375 2 6.8125 2 Z M 8.71875 4L35.65625 4L32.875 29L14.90625 29L14.5625 26L18 26C18.359375 26.003906 18.695313 25.816406 18.878906 25.503906C19.058594 25.191406 19.058594 24.808594 18.878906 24.496094C18.695313 24.183594 18.359375 23.996094 18 24L14.34375 24L14 21L18 21C18.359375 21.003906 18.695313 20.816406 18.878906 20.503906C19.058594 20.191406 19.058594 19.808594 18.878906 19.496094C18.695313 19.183594 18.359375 18.996094 18 19L13.78125 19L13.46875 16L18 16C18.359375 16.003906 18.695313 15.816406 18.878906 15.503906C19.058594 15.191406 19.058594 14.808594 18.878906 14.496094C18.695313 14.183594 18.359375 13.996094 18 14L13.21875 14L12.96875 11.625C12.957031 11.480469 12.914063 11.34375 12.84375 11.21875 Z M 37.125 9L39.5625 9C40.785156 9 41.722656 10.035156 41.5625 11.25L40.125 22.25C39.992188 23.253906 39.136719 24 38.125 24L35.46875 24 Z M 16.78125 31L31 31C33.308594 31 35.292969 32.574219 35.84375 34.8125L37.59375 46L10.1875 46L11.90625 34.875C12.429688 32.601563 14.449219 31 16.78125 31 Z M 24 34C21.238281 34 19 36.238281 19 39C19 41.761719 21.238281 44 24 44C26.761719 44 29 41.761719 29 39C29 36.238281 26.761719 34 24 34 Z M 24 36C24.738281 36 25.414063 36.273438 25.9375 36.71875L21.0625 39.53125C21.03125 39.355469 21 39.183594 21 39C21 37.347656 22.347656 36 24 36 Z M 26.9375 38.46875C26.96875 38.644531 27 38.816406 27 39C27 40.652344 25.652344 42 24 42C23.261719 42 22.585938 41.726563 22.0625 41.28125Z"/></svg>