<svg xmlns="http://www.w3.org/2000/svg" xmlns:xlink="http://www.w3.org/1999/xlink" viewBox="0 0 50 50"><path d="M7 2C6.644531 2 6.304688 2.191406 6.125 2.5C5.945313 2.808594 5.949219 3.191406 6.125 3.5L11 12.03125L11.21875 14L18 14C18.550781 14 19 14.449219 19 15C19 15.550781 18.550781 16 18 16L11.4375 16L11.78125 19L18 19C18.550781 19 19 19.449219 19 20C19 20.550781 18.550781 21 18 21L12 21L12.3125 24L18 24C18.550781 24 19 24.449219 19 25C19 25.550781 18.550781 26 18 26L12.5625 26L12.875 29L34.875 29L35.21875 26L38.15625 26C40.15625 26 41.832031 24.515625 42.09375 22.53125L43.53125 11.53125C43.839844 9.152344 41.960938 7 39.5625 7L37.34375 7L37.78125 3.125C37.8125 2.84375 37.722656 2.554688 37.53125 2.34375C37.34375 2.132813 37.066406 2 36.78125 2 Z M 37.125 9L39.5625 9C40.785156 9 41.722656 10.035156 41.5625 11.25L40.125 22.25C39.992188 23.253906 39.167969 24 38.15625 24L35.4375 24 Z M 11.90625 31C10.964844 31.921875 10.257813 33.109375 9.9375 34.5L8 46.84375C7.953125 47.132813 8.058594 47.433594 8.25 47.65625C8.441406 47.878906 8.707031 48 9 48L38.78125 48C39.074219 48 39.339844 47.878906 39.53125 47.65625C39.722656 47.433594 39.792969 47.132813 39.75 46.84375L37.8125 34.4375C37.5 33.085938 36.808594 31.910156 35.875 31 Z M 24 34C26.761719 34 29 36.238281 29 39C29 41.761719 26.761719 44 24 44C21.238281 44 19 41.761719 19 39C19 36.238281 21.238281 34 24 34 Z M 24 36C22.351563 36 21 37.351563 21 39C21 39.1875 21.03125 39.355469 21.0625 39.53125L25.9375 36.71875C25.414063 36.269531 24.738281 36 24 36 Z M 26.9375 38.46875L22.0625 41.28125C22.585938 41.730469 23.261719 42 24 42C25.648438 42 27 40.648438 27 39C27 38.8125 26.96875 38.644531 26.9375 38.46875Z"/></svg>