<svg xmlns="http://www.w3.org/2000/svg" xmlns:xlink="http://www.w3.org/1999/xlink" viewBox="0 0 48 48"><path d="M17.726562 7C14.064017 7 11 9.891481 11 13.5L11 16.107422C5.1737322 18.022536 1 23.314698 1 29.5C1 36.87686 6.9272874 43.002102 14.527344 43.617188C20.842535 44.128682 27.157465 44.128682 33.472656 43.617188C41.072712 43.002102 47 36.87686 47 29.5C47 23.314698 42.826268 18.022536 37 16.107422L37 13.5C37 9.891481 33.935983 7 30.273438 7L17.726562 7 z M 17.726562 10L30.273438 10C32.384892 10 34 11.586519 34 13.5L34 15.451172C33.823487 15.430715 33.651068 15.397252 33.472656 15.382812C30.315061 15.127066 27.15775 15 24 15C20.84225 15 17.684939 15.127066 14.527344 15.382812C14.348932 15.397252 14.176513 15.430715 14 15.451172L14 13.5C14 11.586519 15.615108 10 17.726562 10 z M 24 18C27.07675 18 30.153064 18.123794 33.230469 18.373047C36.321431 18.623203 39.027613 19.981002 40.955078 22.001953C36.032486 22.026706 32 26.071963 32 31C32 34.789996 34.387892 38.052144 37.728516 39.371094C36.372203 40.050545 34.856613 40.495347 33.230469 40.626953C27.07566 41.125458 20.92434 41.125458 14.769531 40.626953C13.143387 40.495347 11.627797 40.050545 10.271484 39.371094C13.612108 38.052144 16 34.789996 16 31C16 26.071963 11.967514 22.026706 7.0449219 22.001953C8.9723875 19.981002 11.678569 18.623203 14.769531 18.373047C17.846936 18.123794 20.92325 18 24 18 z M 17.5 21 A 1.50015 1.50015 0 0 0 16.197266 23.244141L20.197266 30.244141 A 1.50015 1.50015 0 0 0 21.5 31L26.5 31 A 1.50015 1.50015 0 0 0 27.802734 30.244141L31.802734 23.244141 A 1.50015 1.50015 0 0 0 30.5 21L17.5 21 z M 20.085938 24L27.914062 24L25.628906 28L22.371094 28L20.085938 24 z M 5.0058594 25L7 25C10.306818 25 13 27.693182 13 31C13 34.291685 10.330973 36.973553 7.0449219 36.998047C5.1436347 35.004544 4 32.36584 4 29.5C4 27.90415 4.3638134 26.383399 5.0058594 25 z M 41 25L42.994141 25C43.636187 26.383399 44 27.90415 44 29.5C44 32.36584 42.856365 35.004544 40.955078 36.998047C37.669027 36.973553 35 34.291685 35 31C35 27.693182 37.693182 25 41 25 z M 20 35 A 1.50015 1.50015 0 1 0 20 38L28 38 A 1.50015 1.50015 0 1 0 28 35L20 35 z"/></svg>