<svg xmlns="http://www.w3.org/2000/svg" xmlns:xlink="http://www.w3.org/1999/xlink" viewBox="0 0 50 50"><path d="M32.78125 0C32.230469 0.0351563 31.808594 0.511719 31.84375 1.0625C31.878906 1.613281 32.355469 2.035156 32.90625 2L38 2.4375L38 9.5C37.027344 9.421875 36.085938 9.453125 35.1875 9.5625C31.523438 10.007813 28.71875 11.625 28.71875 11.625C28.6875 11.632813 28.65625 11.644531 28.625 11.65625L4.9375 27.65625C4.792969 27.75 4.675781 27.878906 4.59375 28.03125C4.59375 28.042969 4.59375 28.050781 4.59375 28.0625C2.941406 29.304688 1.777344 30.898438 1.125 32.46875C-0.078125 35.363281 0 38.125 0 38.125C0.00390625 38.492188 0.210938 38.828125 0.539063 38.996094C0.863281 39.167969 1.257813 39.144531 1.5625 38.9375L3.8125 37.375C3.914063 43.660156 9.109375 49.246094 15.46875 50C18.523438 50.363281 21.394531 49.398438 23.59375 47.625C23.605469 47.613281 23.613281 47.605469 23.625 47.59375C23.753906 47.488281 23.878906 47.390625 24 47.28125C24.613281 46.800781 40.273438 34.535156 43.625 31.875C46.269531 29.738281 47.675781 27.164063 47.78125 23.0625L49.625 21.5625C49.855469 21.378906 49.992188 21.105469 50 20.8125C50 17.878906 48.535156 15.238281 46.46875 13.28125C44.652344 11.558594 42.351563 10.34375 40 9.8125L40 2.59375L46.8125 3.1875C47.195313 3.28125 47.597656 3.144531 47.839844 2.835938C48.082031 2.527344 48.125 2.105469 47.941406 1.757813C47.761719 1.40625 47.394531 1.195313 47 1.21875L33.09375 0C33.019531 -0.0078125 32.949219 -0.0078125 32.875 0C32.84375 0 32.8125 0 32.78125 0 Z M 37.0625 11.46875C37.621094 11.46875 38.195313 11.503906 38.75 11.59375C40.964844 11.910156 43.332031 13.082031 45.09375 14.75C46.746094 16.316406 47.777344 18.296875 47.90625 20.40625L46.375 21.65625C46.238281 21.730469 46.121094 21.839844 46.03125 21.96875L27.15625 37.40625C26.625 36.203125 25.703125 34.285156 23.75 32C21.320313 29.160156 17.535156 26.476563 12.375 26.125C12.222656 26.078125 12.0625 26.066406 11.90625 26.09375C11.589844 26.082031 11.265625 26.058594 10.9375 26.0625L29.6875 13.375C29.6875 13.375 29.75 13.34375 29.75 13.34375C29.824219 13.300781 32.316406 11.957031 35.4375 11.5625C35.964844 11.496094 36.503906 11.46875 37.0625 11.46875 Z M 45.65625 24.8125C45.3125 27.320313 44.316406 28.746094 42.375 30.3125C39.820313 32.339844 32.078125 38.402344 27.28125 42.15625C27.519531 41.335938 27.664063 40.472656 27.6875 39.59375 Z M 12.375 28.03125C16.863281 28.367188 20.027344 30.75 22.21875 33.3125C24.382813 35.839844 25.4375 38.320313 25.71875 39.03125C25.695313 39.121094 25.683594 39.21875 25.6875 39.3125C25.6875 41.855469 24.457031 44.210938 22.5625 45.84375C22.558594 45.847656 22.375 46 22.375 46C22.351563 46.019531 22.332031 46.039063 22.3125 46.0625C22.304688 46.066406 22.289063 46.058594 22.28125 46.0625C22.246094 46.089844 22.214844 46.121094 22.1875 46.15625C20.414063 47.527344 18.140625 48.289063 15.71875 48C10.339844 47.363281 5.8125 42.425781 5.8125 37.1875C5.8125 36.011719 6.117188 34.042969 7.09375 32.25C8.070313 30.457031 9.648438 28.832031 12.28125 28.0625C12.3125 28.054688 12.34375 28.042969 12.375 28.03125 Z M 7.375 28.625C6.519531 29.449219 5.851563 30.378906 5.34375 31.3125C4.707031 32.484375 4.324219 33.667969 4.09375 34.75L2.28125 36C2.417969 35.167969 2.574219 34.238281 3 33.21875C3.761719 31.382813 5.007813 29.570313 7.375 28.625 Z M 14.53125 32.0625C12.015625 32.21875 10 34.261719 10 36.90625C10 39.929688 12.320313 42.621094 15.34375 43C15.355469 43 15.363281 43 15.375 43C18.378906 43.460938 21 41.210938 21 38.1875C21 35.152344 18.664063 32.457031 15.625 32.09375L15.625 32.125C15.25 32.066406 14.890625 32.039063 14.53125 32.0625 Z M 14.625 34.03125C14.851563 34.027344 15.097656 34.054688 15.34375 34.09375L15.375 34.09375C17.335938 34.328125 19 36.222656 19 38.1875C19 40.152344 17.636719 41.316406 15.65625 41L15.625 41C13.664063 40.765625 12 38.871094 12 36.90625C12 35.183594 13.035156 34.066406 14.625 34.03125Z"/></svg>