<svg xmlns="http://www.w3.org/2000/svg" xmlns:xlink="http://www.w3.org/1999/xlink" viewBox="0 0 50 50"><path d="M32.78125 0C32.230469 0.0351563 31.808594 0.511719 31.84375 1.0625C31.878906 1.613281 32.355469 2.035156 32.90625 2L38 2.4375L38 7.5C38.464844 7.53125 38.917969 7.554688 39.34375 7.625C39.5625 7.65625 39.78125 7.707031 40 7.75L40 2.59375L46.8125 3.1875C47.195313 3.28125 47.597656 3.144531 47.839844 2.835938C48.082031 2.527344 48.125 2.105469 47.941406 1.757813C47.761719 1.40625 47.394531 1.195313 47 1.21875L33.09375 0C33.019531 -0.0078125 32.949219 -0.0078125 32.875 0C32.84375 0 32.8125 0 32.78125 0 Z M 37.03125 9.4375C32.640625 9.4375 28.882813 11.523438 28.65625 11.65625L4.9375 27.65625C4.90625 27.679688 4.871094 27.726563 4.84375 27.75C-0.0703125 31.113281 0 38.035156 0 38.125C0.0117188 38.675781 0.472656 39.089844 1.03125 39.09375C1.582031 39.082031 1.992188 38.644531 2 38.09375C2.066406 34.117188 3.675781 28.175781 11.90625 27.46875C23.089844 26.644531 27.226563 37.628906 27.40625 38.125C27.550781 38.53125 27.933594 38.78125 28.34375 38.78125C28.457031 38.78125 28.578125 38.757813 28.6875 38.71875C28.695313 38.714844 28.710938 38.722656 28.71875 38.71875C28.816406 38.683594 28.886719 38.628906 28.96875 38.5625L49.625 21.5625C49.855469 21.375 50 21.113281 50 20.8125C50 15.054688 44.335938 10.378906 39.0625 9.625C38.40625 9.519531 37.730469 9.4375 37.03125 9.4375 Z M 47.46875 25.9375L29.625 40.5625C29.519531 41.535156 29.289063 42.472656 28.96875 43.375C34.140625 39.320313 41.496094 33.566406 43.625 31.875C45.746094 30.160156 46.945313 28.351563 47.46875 25.9375 Z M 13.09375 29.40625C12.753906 29.40625 12.417969 29.414063 12.09375 29.4375C7.160156 29.863281 4.46875 32.441406 4.0625 37.09375C4.058594 37.132813 4.035156 37.179688 4.03125 37.21875C4.007813 37.511719 4.003906 37.820313 4 38.125C3.996094 38.347656 3.953125 38.542969 3.90625 38.75C4.679688 44.402344 9.5625 49.300781 15.46875 50C15.886719 50.050781 16.328125 50.0625 16.75 50.0625C21.757813 50.0625 26.105469 46.539063 27.34375 41.9375C27.410156 41.695313 27.476563 41.257813 27.5625 40.6875C26.632813 40.433594 25.867188 39.75 25.53125 38.8125C25.394531 38.429688 22.042969 29.40625 13.09375 29.40625 Z M 14.59375 33.03125C14.886719 33.019531 15.1875 33.042969 15.5 33.09375C18 33.394531 20 35.6875 20 38.1875C20 40.6875 18 42.398438 15.5 42C13 41.699219 11 39.40625 11 36.90625C11 34.71875 12.535156 33.125 14.59375 33.03125Z"/></svg>