<?xml version="1.0" encoding="utf-8"?><svg version="1.1" id="Layer_1" xmlns="http://www.w3.org/2000/svg" xmlns:xlink="http://www.w3.org/1999/xlink" x="0px" y="0px" viewBox="0 0 122.88 66.29" style="enable-background:new 0 0 122.88 66.29" xml:space="preserve"><g><path d="M45.39,41.96c0.02-0.3,0.06-0.6,0.12-0.9c0.1-0.46,0.25-0.91,0.45-1.36c0.21-0.47,0.48-0.92,0.81-1.36 c0.22-0.3,0.47-0.59,0.75-0.88c-7.09-3.64-24.28-11.3-29.76-15.29c-0.69-0.46-1.37-0.84-2.06-1.14c-0.69-0.3-1.39-0.52-2.08-0.65 c-0.69-0.13-1.37-0.18-2.06-0.16c-0.69,0.03-1.39,0.14-2.09,0.32c-0.76,0.2-1.58,0.54-2.38,0.97c-0.77,0.42-1.53,0.93-2.21,1.51 c-0.6,0.52-1.14,1.09-1.56,1.69c-0.38,0.55-0.67,1.12-0.83,1.71c-0.11,0.4-0.13,0.78-0.05,1.16c0.08,0.38,0.25,0.75,0.52,1.12 c0.32,0.43,0.78,0.86,1.38,1.29c0.6,0.43,1.35,0.85,2.25,1.26L45.39,41.96L45.39,41.96z M112.49,34.39l-18.78,5.17 C100.37,37.91,107.2,36.13,112.49,34.39L112.49,34.39z M28.91,39.49l-18.13-5C16.03,36.2,22.53,37.89,28.91,39.49L28.91,39.49z M59.75,0h3.69c0.21,0,0.37,0.17,0.37,0.37v23.81c0.47,0.12,0.93,0.29,1.39,0.5c0.53,0.25,1.06,0.56,1.57,0.95 c0.35,0.26,0.68,0.55,1,0.87c0.32,0.31,0.63,0.66,0.92,1.02c0.41,0.52,0.78,1.1,1.1,1.74c0.32,0.64,0.59,1.34,0.81,2.12 c0.19,0.67,0.34,1.39,0.44,2.17c0.09,0.69,0.15,1.42,0.18,2.2c0.25,0.04,0.49,0.09,0.73,0.15c0.28,0.06,0.55,0.14,0.82,0.22 l31.06-15.94c0.82-0.55,1.64-1,2.47-1.35c0.84-0.36,1.68-0.62,2.53-0.78c0.86-0.17,1.73-0.23,2.6-0.2c0.87,0.03,1.74,0.17,2.62,0.4 c0.93,0.25,1.92,0.65,2.88,1.17c0.93,0.5,1.83,1.11,2.64,1.81c0.77,0.66,1.46,1.4,2.01,2.2c0.51,0.75,0.91,1.55,1.13,2.39 c0.2,0.76,0.24,1.5,0.1,2.22l0,0.02c-0.14,0.72-0.46,1.41-0.96,2.08c-0.45,0.6-1.06,1.19-1.84,1.75c-0.76,0.55-1.69,1.07-2.78,1.58 c-8.78,3.74-29.55,8.16-39.87,11c-0.19,0.59-0.46,1.19-0.79,1.79c-0.36,0.65-0.81,1.32-1.35,1.98c-0.43,0.53-0.89,1-1.4,1.43 c-0.5,0.43-1.05,0.81-1.62,1.15c-0.43,0.25-0.88,0.49-1.36,0.7c-0.37,0.16-0.75,0.31-1.13,0.45l0.79,3.35 c0.1,0.41,0.23,0.96,0.36,1.64c0.13,0.66,0.26,1.39,0.35,2.1c0.09,0.79,0.14,1.58,0.08,2.31c-0.05,0.75-0.21,1.43-0.52,1.96 c-0.1,0.17-0.22,0.34-0.34,0.49c-0.13,0.15-0.27,0.29-0.42,0.41l-0.08,0.06c-0.14,0.11-0.29,0.21-0.44,0.29 c-0.17,0.09-0.34,0.17-0.53,0.24l-0.05,0.02c-0.99,0.39-1.99,0.7-3.01,0.94c-1.02,0.24-2.05,0.39-3.09,0.46 c-1.05,0.07-2.11,0.05-3.19-0.05c-1.07-0.11-2.16-0.31-3.25-0.6l-0.39-0.1c-0.79-0.21-1.58-0.41-2.27-0.81 c-0.73-0.42-1.33-1.03-1.69-2.04c-0.35-0.98-0.17-3.1,0.18-5.32c0.32-2.04,0.77-4.15,1.07-5.53c-0.31-0.13-0.62-0.26-0.91-0.4 c-0.37-0.18-0.75-0.37-1.12-0.59c-0.48-0.28-0.93-0.57-1.36-0.89c-0.43-0.32-0.83-0.65-1.21-1.01c-0.15-0.14-0.3-0.3-0.45-0.45 c-0.15-0.15-0.28-0.31-0.42-0.46c-0.14-0.16-0.27-0.32-0.4-0.49l-0.02-0.02c-0.13-0.17-0.25-0.33-0.35-0.49 c-0.27-0.4-0.51-0.81-0.71-1.22c-0.21-0.41-0.37-0.82-0.51-1.23l0-0.01c-9.41-2.59-32.67-7.67-40.15-11.08 c-1.1-0.5-2.02-1.03-2.78-1.58c-0.78-0.56-1.39-1.14-1.84-1.75c-0.5-0.68-0.82-1.38-0.96-2.1c-0.14-0.72-0.1-1.47,0.1-2.22 c0.23-0.84,0.62-1.64,1.13-2.39c0.55-0.8,1.24-1.54,2.01-2.2c0.81-0.7,1.72-1.31,2.64-1.81c0.96-0.52,1.95-0.92,2.88-1.17 c0.87-0.23,1.75-0.37,2.62-0.4c0.87-0.03,1.74,0.03,2.6,0.2c0.85,0.16,1.69,0.42,2.53,0.78c0.83,0.35,1.65,0.8,2.47,1.35 l31.08,15.95c0.06,0.03,0.11,0.06,0.16,0.09l0.39-0.13c0.23-0.07,0.47-0.14,0.73-0.2c0.17-0.04,0.35-0.08,0.54-0.12 c0.01-0.55,0.05-1.09,0.1-1.62c0.07-0.63,0.17-1.25,0.31-1.84c0.17-0.74,0.41-1.45,0.71-2.13c0.31-0.69,0.69-1.34,1.15-1.95 l0.02-0.02c0.32-0.43,0.66-0.83,1.01-1.19c0.36-0.38,0.74-0.72,1.13-1.03c0.51-0.4,1.03-0.75,1.58-1.04 c0.46-0.24,0.93-0.44,1.41-0.6V0.37C59.37,0.17,59.54,0,59.75,0L59.75,0z M56.41,50.32c0.85,0.2,1.69,0.34,2.54,0.43 c0.85,0.09,1.69,0.13,2.53,0.12c1.08-0.01,2.16-0.1,3.25-0.25c1.08-0.15,2.17-0.37,3.26-0.64c0.07-0.02,0.14-0.03,0.22-0.03 c0.5-0.15,0.98-0.32,1.43-0.51c0.46-0.2,0.91-0.42,1.33-0.67c0.46-0.27,0.89-0.57,1.28-0.91c0.4-0.34,0.77-0.71,1.1-1.12 c0.46-0.56,0.83-1.12,1.13-1.65c0.29-0.52,0.51-1.03,0.65-1.52c0-0.06,0-0.11,0-0.17c0.01-0.07,0.02-0.15,0.04-0.21 c0.02-0.1,0.06-0.2,0.09-0.3l0.06-0.23c0.02-0.14,0.02-0.26,0.03-0.38c0.01-0.29-0.02-0.57-0.07-0.84 c-0.05-0.26-0.13-0.52-0.24-0.76c-0.11-0.24-0.25-0.47-0.42-0.68c-0.17-0.22-0.37-0.42-0.6-0.6c-0.54-0.44-1.24-0.79-2.09-1.05 c-0.84-0.25-1.81-0.4-2.92-0.43l-0.09,0c-1.53-0.1-3.7-0.22-6.02-0.27c-1.7-0.04-3.49-0.06-5.18-0.01c-0.5,0.01-1,0.03-1.49,0.06 c-0.44,0.02-0.89,0.05-1.33,0.09l-0.77,0.11l-0.78,0.12c-0.08,0.01-0.17,0.02-0.25,0.02c-0.06,0-0.11-0.01-0.17-0.02 c-0.28,0.05-0.54,0.09-0.78,0.15c-0.25,0.06-0.49,0.12-0.71,0.19c-0.35,0.11-0.67,0.24-0.97,0.38c-0.3,0.14-0.57,0.3-0.83,0.47 l-0.03,0.02c-0.4,0.27-0.73,0.58-0.99,0.91c-0.27,0.34-0.47,0.7-0.59,1.09c-0.1,0.31-0.16,0.64-0.17,0.98 c-0.01,0.34,0.02,0.7,0.1,1.07l0.07,0.27l0.08,0.28c0.1,0.3,0.23,0.61,0.38,0.92c0.15,0.31,0.34,0.62,0.55,0.94 c0.1,0.15,0.2,0.29,0.29,0.41c0.1,0.13,0.21,0.26,0.31,0.39c0.11,0.13,0.22,0.25,0.33,0.37c0.11,0.12,0.23,0.24,0.35,0.35 c0.31,0.29,0.64,0.57,0.98,0.83c0.36,0.26,0.73,0.51,1.12,0.73c0.4,0.23,0.83,0.45,1.27,0.64c0.45,0.2,0.91,0.38,1.39,0.55 c0.21,0.07,0.43,0.13,0.67,0.2C55.96,50.21,56.19,50.27,56.41,50.32L56.41,50.32z M61.55,34.95c1.29,0,2.57,0.04,3.85,0.12 c1.13,0.07,2.27,0.18,3.42,0.32c-0.03-0.57-0.08-1.1-0.16-1.61c-0.09-0.63-0.21-1.21-0.36-1.75c-0.17-0.62-0.39-1.18-0.64-1.68 c-0.25-0.5-0.53-0.94-0.84-1.34c-0.23-0.29-0.47-0.56-0.72-0.81l-0.02-0.02c-0.24-0.24-0.49-0.45-0.74-0.64 c-0.58-0.43-1.18-0.75-1.8-0.95c-0.63-0.2-1.28-0.29-1.92-0.25c-0.64,0.03-1.28,0.18-1.91,0.43c-0.63,0.26-1.25,0.62-1.85,1.09 c-0.31,0.25-0.62,0.52-0.91,0.82c-0.29,0.3-0.57,0.63-0.83,0.97c-0.35,0.47-0.65,0.97-0.88,1.51c-0.24,0.53-0.42,1.1-0.56,1.69 c-0.11,0.47-0.19,0.96-0.25,1.46c-0.04,0.37-0.07,0.75-0.09,1.13l0.23-0.02c1.16-0.16,2.32-0.27,3.48-0.35 C59.2,34.99,60.37,34.95,61.55,34.95L61.55,34.95z M77.19,39.47c0.23,0.45,0.39,0.92,0.49,1.4c0.06,0.33,0.1,0.66,0.1,1 l38.53-10.62c0.89-0.41,1.64-0.83,2.24-1.26c0.59-0.42,1.05-0.85,1.37-1.28c0.28-0.37,0.45-0.74,0.52-1.12 c0.08-0.38,0.06-0.76-0.05-1.16c-0.16-0.59-0.45-1.16-0.83-1.71c-0.42-0.6-0.96-1.17-1.56-1.69c-0.68-0.58-1.44-1.1-2.21-1.51 c-0.8-0.43-1.62-0.76-2.38-0.97c-0.7-0.19-1.4-0.3-2.09-0.32c-0.69-0.03-1.38,0.02-2.06,0.16c-0.69,0.13-1.39,0.35-2.08,0.65 c-0.7,0.3-1.4,0.69-2.09,1.15c-8.84,5.24-20.24,10.39-29.58,15.19c0.29,0.25,0.55,0.51,0.79,0.78c0.36,0.41,0.65,0.84,0.88,1.29 L77.19,39.47L77.19,39.47z M67.4,52.61c-1.05,0.24-2.08,0.42-3.08,0.53c-1.12,0.13-2.21,0.18-3.28,0.16 c-0.87-0.02-1.72-0.08-2.56-0.18c-0.83-0.11-1.65-0.26-2.45-0.45l-0.49-0.12c-0.29,1.35-0.7,3.27-0.99,5.04 c-0.32,1.91-0.51,3.64-0.29,4.24c0.14,0.4,0.45,0.67,0.83,0.86c0.43,0.22,0.97,0.36,1.51,0.5c0.13,0.04,0.26,0.06,0.39,0.1 c0.97,0.26,1.93,0.43,2.87,0.53c0.94,0.09,1.88,0.11,2.8,0.05c0.91-0.06,1.82-0.2,2.72-0.4c0.9-0.21,1.79-0.49,2.67-0.83l0.08-0.03 c0.07-0.02,0.13-0.05,0.19-0.08l0.02-0.01c0.05-0.03,0.09-0.05,0.13-0.08l0.03-0.03c0.04-0.03,0.08-0.07,0.12-0.12 c0.04-0.04,0.07-0.09,0.1-0.14c0.14-0.24,0.2-0.63,0.22-1.1c0.02-0.5-0.02-1.1-0.09-1.7c-0.08-0.67-0.2-1.34-0.32-1.94 c-0.12-0.57-0.25-1.13-0.34-1.55L67.4,52.61L67.4,52.61z"/></g></svg>