<svg xmlns="http://www.w3.org/2000/svg" xmlns:xlink="http://www.w3.org/1999/xlink" viewBox="0 0 50 50"><path d="M22.986328 3.8359375L21.013672 4.1640625L22.013672 10.164062 A 1.0001 1.0001 0 0 0 23 11L24 11L24 30L19 30C18.45 30 18 30.45 18 31L18 32.308594L1.1347656 30.009766 A 1.0001 1.0001 0 0 0 1.0351562 30 A 1.0001 1.0001 0 0 0 0.10546875 31.447266L2 35.236328C2.84645 36.92798 4.5809786 38 6.4726562 38L18 38L18 39C18 39.55 18.45 40 19 40L31 40C31.55 40 32 39.55 32 39L32 37.691406L48.865234 39.990234 A 1.0001 1.0001 0 0 0 49.894531 38.552734L48 34.763672C47.15355 33.07202 45.419021 32 43.527344 32L32 32L32 31C32 30.45 31.55 30 31 30L26 30L26 11L27 11 A 1.0001 1.0001 0 0 0 27.986328 10.164062L28.986328 4.1640625L27.013672 3.8359375L26.152344 9L23.847656 9L22.986328 3.8359375 z M 2.7402344 32.246094L20.867188 34.71875L19.585938 36L6.4726562 36C5.3343339 36 4.2986125 35.360145 3.7890625 34.341797L2.7402344 32.246094 z M 30.414062 34L43.527344 34C44.665666 34 45.701388 34.639855 46.210938 35.658203L47.259766 37.753906L29.132812 35.28125L30.414062 34 z M 20 42C20 44.206 22.243 46 25 46C27.757 46 30 44.206 30 42L20 42 z"/></svg>