<svg xmlns="http://www.w3.org/2000/svg" xmlns:xlink="http://www.w3.org/1999/xlink" viewBox="0 0 50 50"><path d="M22.986328 2.8359375L21.013672 3.1640625L22.013672 9.1640625 A 1.0001 1.0001 0 0 0 23 10L24 10L24 20L19 20C18.45 20 18 20.45 18 21L18 22.308594L1.1347656 20.009766 A 1.0001 1.0001 0 0 0 1.0351562 20 A 1.0001 1.0001 0 0 0 0.10546875 21.447266L2 25.236328C2.84645 26.92798 4.5809786 28 6.4726562 28L18 28L18 29C18 29.55 18.45 30 19 30L31 30C31.55 30 32 29.55 32 29L32 27.691406L48.865234 29.990234 A 1.0001 1.0001 0 0 0 49.894531 28.552734L48 24.763672C47.15355 23.07202 45.419021 22 43.527344 22L32 22L32 21C32 20.45 31.55 20 31 20L26 20L26 10L27 10 A 1.0001 1.0001 0 0 0 27.986328 9.1640625L28.986328 3.1640625L27.013672 2.8359375L26.152344 8L23.847656 8L22.986328 2.8359375 z M 2.7402344 22.246094L20.867188 24.71875L19.585938 26L6.4726562 26C5.3343339 26 4.2986125 25.360145 3.7890625 24.341797L2.7402344 22.246094 z M 30.414062 24L43.527344 24C44.665666 24 45.701388 24.639855 46.210938 25.658203L47.259766 27.753906L29.132812 25.28125L30.414062 24 z M 20 32C20 34.21 22.24 36 25 36C27.76 36 30 34.21 30 32L20 32 z M 32.015625 39.234375 A 1.0001 1.0001 0 0 0 31.566406 39.359375C29.608832 40.409508 27.38238 41 25 41C22.640025 41 20.431846 40.421121 18.486328 39.388672 A 1.0004047 1.0004047 0 1 0 17.548828 41.15625C19.77531 42.337801 22.311975 43 25 43C27.71362 43 30.273246 42.324914 32.513672 41.123047 A 1.0001 1.0001 0 0 0 32.015625 39.234375 z M 35.068359 43.294922 A 1.0001 1.0001 0 0 0 34.523438 43.4375C31.726787 45.068009 28.478165 46 25 46C21.546545 46 18.318376 45.082195 15.535156 43.472656 A 1.0001 1.0001 0 1 0 14.533203 45.203125C17.611983 46.983586 21.191455 48 25 48C28.835835 48 32.4379 46.969507 35.53125 45.166016 A 1.0001 1.0001 0 0 0 35.068359 43.294922 z"/></svg>