<svg xmlns="http://www.w3.org/2000/svg" xmlns:xlink="http://www.w3.org/1999/xlink" viewBox="0 0 50 50"><path d="M22.986328 2.8359375L21.013672 3.1640625L22.013672 9.1640625 A 1.0001 1.0001 0 0 0 23 10L24 10L24 20L19 20 A 1.0001 1.0001 0 0 0 18 21L18 23.308594L1.1347656 21.009766 A 1.0001 1.0001 0 0 0 1.0351562 21 A 1.0001 1.0001 0 0 0 0.10546875 22.447266L2 26.236328C2.84645 27.92798 4.5809786 29 6.4726562 29L18 29L18 31 A 1.0001 1.0001 0 0 0 19 32L20 32C20 33.18879 20.653065 34.232514 21.572266 34.921875C22.491466 35.611236 23.692844 36 25 36C26.307156 36 27.508534 35.611236 28.427734 34.921875C29.346935 34.232514 30 33.18879 30 32L31 32 A 1.0001 1.0001 0 0 0 32 31L32 28.691406L48.865234 30.990234 A 1.0001 1.0001 0 0 0 49.894531 29.552734L48 25.763672C47.15355 24.07202 45.419021 23 43.527344 23L32 23L32 21 A 1.0001 1.0001 0 0 0 31 20L26 20L26 10L27 10 A 1.0001 1.0001 0 0 0 27.986328 9.1640625L28.986328 3.1640625L27.013672 2.8359375L26.152344 8L23.847656 8L22.986328 2.8359375 z M 20 22L30 22L30 23 A 1.0001 1.0001 0 0 0 29.292969 23.292969L26.292969 26.292969 A 1.0001 1.0001 0 0 0 26.865234 27.990234L30 28.417969L30 30L20 30L20 29 A 1.0001 1.0001 0 0 0 20.707031 28.707031L23.707031 25.707031 A 1.0001 1.0001 0 0 0 23.134766 24.009766L20 23.582031L20 22 z M 2.7402344 23.246094L20.867188 25.71875L19.585938 27L6.4726562 27C5.3343339 27 4.2986125 26.360145 3.7890625 25.341797L2.7402344 23.246094 z M 30.414062 25L43.527344 25C44.665666 25 45.701388 25.639855 46.210938 26.658203L47.259766 28.753906L29.132812 26.28125L30.414062 25 z M 22 32L28 32C28 32.46821 27.757065 32.925876 27.228516 33.322266C26.699966 33.718655 25.901844 34 25 34C24.098156 34 23.300034 33.718655 22.771484 33.322266C22.242935 32.925876 22 32.46821 22 32 z M 32.015625 39.234375 A 1.0001 1.0001 0 0 0 31.566406 39.359375C29.608832 40.409508 27.38238 41 25 41C22.640025 41 20.431846 40.421121 18.486328 39.388672 A 1.0004047 1.0004047 0 1 0 17.548828 41.15625C19.77531 42.337801 22.311975 43 25 43C27.71362 43 30.273246 42.324914 32.513672 41.123047 A 1.0001 1.0001 0 0 0 32.015625 39.234375 z M 35.068359 43.294922 A 1.0001 1.0001 0 0 0 34.523438 43.4375C31.726787 45.068009 28.478165 46 25 46C21.546545 46 18.318376 45.082195 15.535156 43.472656 A 1.0001 1.0001 0 1 0 14.533203 45.203125C17.611983 46.983586 21.191455 48 25 48C28.835835 48 32.4379 46.969507 35.53125 45.166016 A 1.0001 1.0001 0 0 0 35.068359 43.294922 z"/></svg>