<svg xmlns="http://www.w3.org/2000/svg" xmlns:xlink="http://www.w3.org/1999/xlink" viewBox="0 0 50 50"><path d="M22.986328 3.8359375L21.013672 4.1640625L22.013672 10.164062 A 1.0001 1.0001 0 0 0 23 11L24 11L24 30L19 30 A 1.0001 1.0001 0 0 0 18 31L18 33.308594L1.1347656 31.009766 A 1.0001 1.0001 0 0 0 1.0351562 31 A 1.0001 1.0001 0 0 0 0.10546875 32.447266L2 36.236328C2.84645 37.92798 4.5809786 39 6.4726562 39L18 39L18 41 A 1.0001 1.0001 0 0 0 19 42L20 42C20 43.18879 20.653065 44.232514 21.572266 44.921875C22.491466 45.611236 23.692844 46 25 46C26.307156 46 27.508534 45.611236 28.427734 44.921875C29.346935 44.232514 30 43.18879 30 42L31 42 A 1.0001 1.0001 0 0 0 32 41L32 38.691406L48.865234 40.990234 A 1.0001 1.0001 0 0 0 49.894531 39.552734L48 35.763672C47.15355 34.07202 45.419021 33 43.527344 33L32 33L32 31 A 1.0001 1.0001 0 0 0 31 30L26 30L26 11L27 11 A 1.0001 1.0001 0 0 0 27.986328 10.164062L28.986328 4.1640625L27.013672 3.8359375L26.152344 9L23.847656 9L22.986328 3.8359375 z M 20 32L24 32L26 32L30 32L30 33 A 1.0001 1.0001 0 0 0 29.292969 33.292969L26.292969 36.292969 A 1.0001 1.0001 0 0 0 26.865234 37.990234L30 38.417969L30 40L20 40L20 39 A 1.0001 1.0001 0 0 0 20.707031 38.707031L23.707031 35.707031 A 1.0001 1.0001 0 0 0 23.134766 34.009766L20 33.582031L20 32 z M 2.7402344 33.246094L20.867188 35.71875L19.585938 37L6.4726562 37C5.3343339 37 4.2986125 36.360145 3.7890625 35.341797L2.7402344 33.246094 z M 30.414062 35L43.527344 35C44.665666 35 45.701388 35.639855 46.210938 36.658203L47.259766 38.753906L29.132812 36.28125L30.414062 35 z M 22 42L28 42C28 42.46821 27.757065 42.925876 27.228516 43.322266C26.699966 43.718655 25.901844 44 25 44C24.098156 44 23.300034 43.718655 22.771484 43.322266C22.242935 42.925876 22 42.46821 22 42 z"/></svg>