<?xml version="1.0" encoding="utf-8"?><svg version="1.1" id="Layer_1" xmlns="http://www.w3.org/2000/svg" xmlns:xlink="http://www.w3.org/1999/xlink" x="0px" y="0px" viewBox="0 0 93.83 122.88" style="enable-background:new 0 0 93.83 122.88" xml:space="preserve"><g><path d="M61.93,31.5c6.92,2.33,13.11,6.24,18.16,11.29c8.49,8.49,13.74,20.22,13.74,33.17c0,12.95-5.25,24.68-13.74,33.17 c-8.49,8.49-20.22,13.74-33.17,13.74c-12.95,0-24.68-5.25-33.17-13.74C5.25,100.65,0,88.92,0,75.97c0-12.95,5.25-24.68,13.74-33.17 c5.05-5.05,11.24-8.95,18.16-11.29V1.82c0-1,0.88-1.82,1.97-1.82h26.08c1.09,0,1.97,0.81,1.97,1.82V31.5L61.93,31.5z M46.91,50.24 c9.36,0,17.55,5,22.05,12.47l-19.87-0.17c-0.63-0.09-1.27-0.14-1.93-0.14c-3.64,0-6.93,1.48-9.32,3.86 c-1.86,1.86-3.17,4.28-3.65,6.98l-7.31-12.62c-0.09-0.15-0.2-0.28-0.32-0.39C31.27,54.15,38.64,50.24,46.91,50.24L46.91,50.24z M70.56,65.81c1.34,3.12,2.09,6.55,2.09,10.16c0,13.59-10.54,24.72-23.9,25.66l10.43-20.55c0.06-0.13,0.11-0.26,0.14-0.39 c0.66-1.57,1.03-3.3,1.03-5.11c0-3.64-1.48-6.93-3.86-9.32c-0.16-0.16-0.32-0.31-0.48-0.46l13.96,0.12 C70.17,65.92,70.37,65.88,70.56,65.81L70.56,65.81z M45.33,101.64c-13.47-0.82-24.14-12-24.14-25.68c0-4.68,1.25-9.07,3.44-12.85 l11.21,19.36c0.1,0.18,0.24,0.33,0.39,0.45c0.48,0.71,1.02,1.36,1.62,1.96c2.38,2.38,5.68,3.86,9.32,3.86 c1.78,0,3.48-0.35,5.03-0.99l-6.69,13.17C45.39,101.16,45.33,101.4,45.33,101.64L45.33,101.64z M54.21,68.52 c-1.45-1.45-3.35-2.46-5.47-2.79l-2.73-0.02c-0.06,0-0.12,0-0.18-0.01c-2.22,0.3-4.21,1.32-5.71,2.83c-1.8,1.8-2.92,4.3-2.92,7.05 c0,2.75,1.12,5.24,2.92,7.05c1.8,1.8,4.3,2.92,7.05,2.92c2.75,0,5.24-1.12,7.05-2.92c1.8-1.8,2.92-4.3,2.92-7.05 C57.13,72.82,56.01,70.33,54.21,68.52L54.21,68.52z M57.98,3.63H35.85v26.08c3.61-0.73,7.26-1.1,10.95-1.11 c3.71-0.01,7.44,0.36,11.18,1.11V3.63L57.98,3.63z M77.82,45.06c-7.91-7.91-18.83-12.8-30.9-12.8c-12.07,0-22.99,4.89-30.9,12.8 C8.1,52.97,3.21,63.9,3.21,75.97c0,12.07,4.89,22.99,12.8,30.9c7.91,7.91,18.83,12.8,30.9,12.8c12.07,0,22.99-4.89,30.9-12.8 c7.91-7.91,12.8-18.83,12.8-30.9C90.62,63.9,85.73,52.97,77.82,45.06L77.82,45.06z"/></g></svg>