<svg xmlns="http://www.w3.org/2000/svg" xmlns:xlink="http://www.w3.org/1999/xlink" viewBox="0 0 50 50"><path d="M13.46875 0C8.773438 0 4.9375 3.8125 4.9375 8.5C4.9375 13.1875 8.773438 17 13.46875 17L38.46875 17C43.164063 17 47 13.1875 47 8.5C47 3.8125 43.164063 0 38.46875 0 Z M 44.8125 16.875C43.046875 18.210938 40.851563 19 38.46875 19L32 19L32 41L25.8125 41C26.140625 40.535156 26.464844 39.980469 26.78125 39.3125C27.992188 36.75 29 32.601563 29 26C29 25.449219 28.550781 25 28 25L9 25C8.96875 25 8.9375 25 8.90625 25C8.390625 25.046875 7.996094 25.480469 8 26C8 26.792969 8.003906 27.558594 8.03125 28.28125C7.582031 28.113281 7.082031 28 6.5 28C4.019531 28 2 30.019531 2 32.5C2 34.980469 4.019531 37 6.5 37L9.34375 37C9.617188 37.890625 9.90625 38.648438 10.21875 39.3125C10.535156 39.980469 10.859375 40.535156 11.1875 41L7.5 41C6.121094 41 5 42.121094 5 43.5L5 47.5C5 48.878906 6.121094 50 7.5 50L45.5 50C47.429688 50 49 48.429688 49 46.5L49 42C49 41.945313 49.007813 41.898438 49 41.84375 Z M 16 19L16 22L21 22L21 19 Z M 10.09375 27L26.90625 27C26.792969 32.6875 25.9375 36.386719 24.96875 38.4375C24.453125 39.53125 23.933594 40.214844 23.53125 40.59375C23.226563 40.878906 22.957031 40.972656 22.9375 41L14.0625 41C14.042969 40.972656 13.773438 40.878906 13.46875 40.59375C13.066406 40.214844 12.546875 39.53125 12.03125 38.4375C11.0625 36.386719 10.207031 32.6875 10.09375 27 Z M 6.5 30C7.304688 30 7.878906 30.402344 8.21875 30.71875C8.363281 32.347656 8.574219 33.757813 8.84375 35L6.5 35C5.121094 35 4 33.878906 4 32.5C4 31.121094 5.121094 30 6.5 30 Z M 40 35C41.105469 35 42 35.894531 42 37C42 38.105469 41.105469 39 40 39C38.894531 39 38 38.105469 38 37C38 35.894531 38.894531 35 40 35Z"/></svg>