<?xml version="1.0" encoding="utf-8"?><svg version="1.1" id="Layer_1" xmlns="http://www.w3.org/2000/svg" xmlns:xlink="http://www.w3.org/1999/xlink" x="0px" y="0px" viewBox="0 0 115.54 122.88" style="enable-background:new 0 0 115.54 122.88" xml:space="preserve"><g><path d="M17.31,26.83v84.88c0,0.06,0,0.12-0.01,0.17h23.01v-8.87h36.73v8.87h20.79c0-0.05-0.01-0.09-0.01-0.14V26.83h-6.57v10.44 H69.84v0.01v12.28c0,0.5-0.4,0.9-0.9,0.9H64.7v5.55h-3.91v-5.55h-4.46v5.55h-3.91v-5.55h-4.25c-0.5,0-0.9-0.4-0.9-0.9V37.28l0-0.01 H26.09V26.83H17.31L17.31,26.83z M39.72,65.26h38.18c0.72,0,1.38,0.3,1.86,0.77l0,0l0,0l0,0c0.48,0.48,0.77,1.14,0.77,1.86v1.19 h5.62c1.3,0,2.48,0.53,3.33,1.38c0.03,0.03,0.07,0.07,0.1,0.11c0.8,0.85,1.29,1.98,1.29,3.22v5.51c0,1.48-0.61,2.83-1.58,3.81 c-0.98,0.98-2.32,1.58-3.81,1.58h-6.1c-2.05,6.14-6.62,10.37-12.03,12.57c-2.79,1.14-5.82,1.72-8.85,1.74 c-3.03,0.02-6.05-0.54-8.82-1.69c-7.1-2.93-12.6-9.65-12.6-20.44v-8.98c0-0.72,0.3-1.38,0.77-1.86l0,0l0,0 C38.33,65.56,38.99,65.26,39.72,65.26L39.72,65.26z M86.15,72.22h-5.52v9.36h4.85c0.62,0,1.19-0.26,1.6-0.67 c0.41-0.41,0.67-0.98,0.67-1.6V73.8c0-0.41-0.15-0.78-0.41-1.06c-0.02-0.02-0.04-0.04-0.06-0.06 C86.98,72.4,86.59,72.22,86.15,72.22L86.15,72.22z M77.41,68.39H40.2v8.5c0,9.32,4.65,15.08,10.66,17.56 c2.39,0.99,5.01,1.47,7.63,1.45c2.62-0.01,5.25-0.53,7.69-1.52c6.28-2.55,11.24-8.35,11.24-17.1V68.39L77.41,68.39z M13.96,111.89 c-0.01-0.06-0.01-0.11-0.01-0.17V26.83H1.56C0.7,26.83,0,26.13,0,25.27V1.56C0,0.7,0.7,0,1.56,0h112.41c0.86,0,1.56,0.7,1.56,1.56 v23.71c0,0.86-0.7,1.56-1.56,1.56H101.2v84.92c0,0.05,0,0.09-0.01,0.14h12.78v10.99H1.56v-10.99H13.96L13.96,111.89z M46.25,6.4 h25.04c0.44,0,0.8,0.39,0.8,0.88V19.3c0,0.49-0.36,0.88-0.8,0.88H46.25c-0.44,0-0.8-0.39-0.8-0.88V7.28 C45.45,6.79,45.81,6.4,46.25,6.4L46.25,6.4z M68.04,38.18H49.07v10.48h18.98V38.18L68.04,38.18z M112.17,3.36H3.36v20.1h108.81 V3.36L112.17,3.36z"/></g></svg>