<svg xmlns="http://www.w3.org/2000/svg" xmlns:xlink="http://www.w3.org/1999/xlink" viewBox="0 0 50 50"><path d="M23 2C22.449219 2 22 2.449219 22 3L22 4C22 4.226563 22.078125 4.449219 22.21875 4.625L26 9.351563L26 11L8 11C7.445313 11 7 11.445313 7 12L7 47C7 47.554688 7.445313 48 8 48L39 48C39.554688 48 40 47.554688 40 47L40 33L42 33C42.550781 33 43 32.550781 43 32L43 26C43 25.449219 42.550781 25 42 25L28 25L28 22.261719L29.8125 19L34 19C34.15625 19 34.308594 18.964844 34.449219 18.894531L35.898438 18.167969C36.496094 18.5625 37.253906 18.609375 37.894531 18.289063L38.894531 17.789063C39.738281 17.382813 40.1875 16.445313 39.976563 15.53125C39.761719 14.621094 38.945313 13.976563 38.011719 13.984375C37.695313 13.988281 37.386719 14.066406 37.105469 14.210938L36.105469 14.710938C35.46875 15.03125 35.046875 15.667969 35.003906 16.378906L33.765625 17L30.921875 17L32.875 13.484375C32.957031 13.335938 33 13.171875 33 13L33 12L37 12C37.15625 12 37.308594 11.964844 37.449219 11.894531L38.898438 11.167969C39.496094 11.5625 40.253906 11.609375 40.894531 11.289063L41.894531 10.789063C42.738281 10.382813 43.1875 9.445313 42.976563 8.53125C42.761719 7.621094 41.945313 6.976563 41.011719 6.984375C40.695313 6.988281 40.386719 7.066406 40.105469 7.210938L39.105469 7.710938C38.46875 8.03125 38.046875 8.667969 38.003906 9.378906L36.765625 10L33 10L33 9.351563L36.78125 4.625C36.921875 4.449219 37 4.226563 37 4L37 3C37 2.449219 36.550781 2 36 2 Z M 24.28125 4L34.71875 4L31.519531 8L27.480469 8 Z M 28 10L31 10L31 10.832031C30.980469 10.941406 30.980469 11.050781 31 11.15625L31 12.738281L28 18.140625 Z M 13 27C13.550781 27 14 27.449219 14 28C14 28.550781 13.550781 29 13 29C12.449219 29 12 28.550781 12 28C12 27.449219 12.449219 27 13 27 Z M 16 27C16.550781 27 17 27.449219 17 28C17 28.550781 16.550781 29 16 29C15.449219 29 15 28.550781 15 28C15 27.449219 15.449219 27 16 27 Z M 19 27C19.550781 27 20 27.449219 20 28C20 28.550781 19.550781 29 19 29C18.449219 29 18 28.550781 18 28C18 27.449219 18.449219 27 19 27 Z M 22 27C22.550781 27 23 27.449219 23 28C23 28.550781 22.550781 29 22 29C21.449219 29 21 28.550781 21 28C21 27.449219 21.449219 27 22 27 Z M 28 27L41 27L41 31L28 31 Z M 12 30L17 30L17 32L12 32 Z M 18 30L23 30L23 32L18 32 Z M 14 38C15.652344 38 17 39.347656 17 41C17 42.652344 15.652344 44 14 44C12.347656 44 11 42.652344 11 41C11 39.347656 12.347656 38 14 38Z"/></svg>