<svg xmlns="http://www.w3.org/2000/svg" xmlns:xlink="http://www.w3.org/1999/xlink" viewBox="0 0 50 50"><path d="M13.46875 0C8.777344 0 4.9375 3.816406 4.9375 8.5C4.9375 13.183594 8.777344 17 13.46875 17L16 17L16 22L21 22L21 17L32 17L32 41L25.8125 41C26.140625 40.535156 26.464844 39.980469 26.78125 39.3125C27.992188 36.75 29 32.601563 29 26C29 25.449219 28.550781 25 28 25L9 25C8.96875 25 8.9375 25 8.90625 25C8.390625 25.046875 7.996094 25.480469 8 26C8 26.792969 8.003906 27.558594 8.03125 28.28125C7.585938 28.113281 7.078125 28 6.5 28C4.027344 28 2 30.027344 2 32.5C2 34.972656 4.027344 37 6.5 37L9.34375 37C9.617188 37.890625 9.90625 38.648438 10.21875 39.3125C10.535156 39.980469 10.859375 40.535156 11.1875 41L7.5 41C6.132813 41 5 42.132813 5 43.5L5 47.5C5 48.867188 6.132813 50 7.5 50L45.5 50C47.421875 50 49 48.421875 49 46.5L49 42C49.003906 41.949219 49.003906 41.894531 49 41.84375L44.4375 14.5625C46.019531 13.019531 47 10.871094 47 8.5C47 3.816406 43.160156 0 38.46875 0 Z M 13.46875 2L38.46875 2C42.082031 2 45 4.898438 45 8.5C45 12.101563 42.082031 15 38.46875 15L17.1875 15C17.054688 14.972656 16.914063 14.972656 16.78125 15L13.46875 15C9.855469 15 6.9375 12.101563 6.9375 8.5C6.9375 4.898438 9.855469 2 13.46875 2 Z M 42.625 15.90625L47 42.15625L47 46.5C47 47.339844 46.339844 48 45.5 48L7.5 48C7.214844 48 7 47.785156 7 47.5L7 43.5C7 43.214844 7.214844 43 7.5 43L33 43C33.550781 43 34 42.550781 34 42L34 17L38.46875 17C39.976563 17 41.394531 16.597656 42.625 15.90625 Z M 18 17L19 17L19 20L18 20 Z M 10.09375 27L26.90625 27C26.792969 32.6875 25.9375 36.386719 24.96875 38.4375C24.453125 39.53125 23.933594 40.214844 23.53125 40.59375C23.226563 40.878906 22.957031 40.972656 22.9375 41L14.0625 41C14.042969 40.972656 13.773438 40.878906 13.46875 40.59375C13.066406 40.214844 12.546875 39.53125 12.03125 38.4375C11.0625 36.386719 10.207031 32.6875 10.09375 27 Z M 6.5 30C7.308594 30 7.875 30.394531 8.21875 30.71875C8.363281 32.347656 8.574219 33.757813 8.84375 35L6.5 35C5.109375 35 4 33.890625 4 32.5C4 31.109375 5.109375 30 6.5 30 Z M 40 35C38.894531 35 38 35.894531 38 37C38 38.105469 38.894531 39 40 39C41.105469 39 42 38.105469 42 37C42 35.894531 41.105469 35 40 35Z"/></svg>