<svg xmlns="http://www.w3.org/2000/svg" xmlns:xlink="http://www.w3.org/1999/xlink" viewBox="0 0 24 24"><path d="M6 3C4.346 3 3 4.346 3 6L3 9L7 9L7 11L9 11L9 9L13 9L13.001953 19L8.5996094 19C9.4326094 19 10.1595 18.512969 10.4375 17.792969C10.6055 17.415969 11 16.372031 11 14.832031L11 14L5 14L5 14.832031C5 16.088031 5.309875 17.092859 5.546875 17.755859C5.839875 18.511859 6.5673906 19 7.4003906 19L3 19L3 21L21 21L21 8C21 5.243 18.757 3 16 3L6 3 z M 17 14.5C17.828 14.5 18.5 15.172 18.5 16C18.5 16.828 17.828 17.5 17 17.5C16.172 17.5 15.5 16.828 15.5 16C15.5 15.172 16.172 14.5 17 14.5 z"/></svg>