<svg xmlns="http://www.w3.org/2000/svg" xmlns:xlink="http://www.w3.org/1999/xlink" viewBox="0 0 50 50"><path d="M17.90625 -0.03125C17.863281 -0.0234375 17.820313 -0.0117188 17.78125 0C17.316406 0.105469 16.988281 0.523438 17 1L17 11.53125L3.625 23L3 23C1.355469 23 0 24.355469 0 26L0 33L50 33L50 26C50 24.355469 48.644531 23 47 23L46.375 23L33 11.53125L33 1C33.003906 0.640625 32.816406 0.304688 32.503906 0.121094C32.191406 -0.0585938 31.808594 -0.0585938 31.496094 0.121094C31.183594 0.304688 30.996094 0.640625 31 1L31 11L19 11L19 1C19.011719 0.710938 18.894531 0.433594 18.6875 0.238281C18.476563 0.0390625 18.191406 -0.0585938 17.90625 -0.03125 Z M 18.375 13L31.625 13L43.3125 23L6.6875 23 Z M 3 25L3.625 25C3.816406 25.058594 4.027344 25.058594 4.21875 25L45.75 25C45.941406 25.058594 46.152344 25.058594 46.34375 25L47 25C47.5625 25 48 25.4375 48 26L48 31L2 31L2 26C2 25.4375 2.4375 25 3 25 Z M 14.03125 35.96875C13.957031 35.972656 13.882813 35.980469 13.8125 36C13.5 36.054688 13.234375 36.253906 13.089844 36.539063C12.949219 36.820313 12.949219 37.15625 13.09375 37.4375C13.09375 37.4375 14 39.332031 14 41C14 41.832031 13.84375 42.0625 13.59375 42.5625C13.34375 43.0625 13 43.832031 13 45C13 47.332031 14.09375 49.4375 14.09375 49.4375C14.335938 49.9375 14.9375 50.148438 15.4375 49.90625C15.9375 49.664063 16.148438 49.0625 15.90625 48.5625C15.90625 48.5625 15 46.667969 15 45C15 44.167969 15.15625 43.9375 15.40625 43.4375C15.65625 42.9375 16 42.167969 16 41C16 38.667969 14.90625 36.5625 14.90625 36.5625C14.75 36.214844 14.414063 35.984375 14.03125 35.96875 Z M 21.03125 35.96875C20.957031 35.972656 20.882813 35.980469 20.8125 36C20.5 36.054688 20.234375 36.253906 20.089844 36.539063C19.949219 36.820313 19.949219 37.15625 20.09375 37.4375C20.09375 37.4375 21 39.332031 21 41C21 41.832031 20.84375 42.0625 20.59375 42.5625C20.34375 43.0625 20 43.832031 20 45C20 47.332031 21.09375 49.4375 21.09375 49.4375C21.335938 49.9375 21.9375 50.148438 22.4375 49.90625C22.9375 49.664063 23.148438 49.0625 22.90625 48.5625C22.90625 48.5625 22 46.667969 22 45C22 44.167969 22.15625 43.9375 22.40625 43.4375C22.65625 42.9375 23 42.167969 23 41C23 38.667969 21.90625 36.5625 21.90625 36.5625C21.75 36.214844 21.414063 35.984375 21.03125 35.96875 Z M 28.03125 35.96875C27.957031 35.972656 27.882813 35.980469 27.8125 36C27.5 36.054688 27.234375 36.253906 27.089844 36.539063C26.949219 36.820313 26.949219 37.15625 27.09375 37.4375C27.09375 37.4375 28 39.332031 28 41C28 41.832031 27.84375 42.0625 27.59375 42.5625C27.34375 43.0625 27 43.832031 27 45C27 47.332031 28.09375 49.4375 28.09375 49.4375C28.335938 49.9375 28.9375 50.148438 29.4375 49.90625C29.9375 49.664063 30.148438 49.0625 29.90625 48.5625C29.90625 48.5625 29 46.667969 29 45C29 44.167969 29.15625 43.9375 29.40625 43.4375C29.65625 42.9375 30 42.167969 30 41C30 38.667969 28.90625 36.5625 28.90625 36.5625C28.75 36.214844 28.414063 35.984375 28.03125 35.96875 Z M 35.03125 35.96875C34.957031 35.972656 34.882813 35.980469 34.8125 36C34.5 36.054688 34.234375 36.253906 34.089844 36.539063C33.949219 36.820313 33.949219 37.15625 34.09375 37.4375C34.09375 37.4375 35 39.332031 35 41C35 41.832031 34.84375 42.0625 34.59375 42.5625C34.34375 43.0625 34 43.832031 34 45C34 47.332031 35.09375 49.4375 35.09375 49.4375C35.335938 49.9375 35.9375 50.148438 36.4375 49.90625C36.9375 49.664063 37.148438 49.0625 36.90625 48.5625C36.90625 48.5625 36 46.667969 36 45C36 44.167969 36.15625 43.9375 36.40625 43.4375C36.65625 42.9375 37 42.167969 37 41C37 38.667969 35.90625 36.5625 35.90625 36.5625C35.75 36.214844 35.414063 35.984375 35.03125 35.96875Z"/></svg>