<svg xmlns="http://www.w3.org/2000/svg" xmlns:xlink="http://www.w3.org/1999/xlink" viewBox="0 0 50 50"><path d="M17 0L17 11L33 11L33 0 Z M 15.3125 13L5.96875 21L44.03125 21L34.6875 13 Z M 3 23C1.347656 23 0 24.347656 0 26L0 33L50 33L50 26C50 24.347656 48.652344 23 47 23 Z M 13.9375 36C13.808594 36.007813 13.6875 36.03125 13.5625 36.09375C13.070313 36.339844 12.847656 36.941406 13.09375 37.4375C13.101563 37.457031 14 39.269531 14 41C14 41.765625 13.824219 42.105469 13.59375 42.5625C13.324219 43.101563 13 43.765625 13 45C13 47.210938 14.050781 49.347656 14.09375 49.4375C14.269531 49.789063 14.632813 50 15 50C15.148438 50 15.292969 49.976563 15.4375 49.90625C15.929688 49.660156 16.152344 49.058594 15.90625 48.5625C15.898438 48.542969 15 46.730469 15 45C15 44.234375 15.175781 43.894531 15.40625 43.4375C15.675781 42.898438 16 42.234375 16 41C16 38.789063 14.949219 36.65625 14.90625 36.5625C14.722656 36.191406 14.324219 35.976563 13.9375 36 Z M 20.9375 36C20.808594 36.007813 20.6875 36.03125 20.5625 36.09375C20.070313 36.339844 19.847656 36.941406 20.09375 37.4375C20.101563 37.457031 21 39.269531 21 41C21 41.765625 20.824219 42.105469 20.59375 42.5625C20.324219 43.101563 20 43.765625 20 45C20 47.210938 21.050781 49.347656 21.09375 49.4375C21.269531 49.789063 21.632813 50 22 50C22.148438 50 22.292969 49.976563 22.4375 49.90625C22.929688 49.660156 23.152344 49.058594 22.90625 48.5625C22.898438 48.542969 22 46.730469 22 45C22 44.234375 22.175781 43.894531 22.40625 43.4375C22.675781 42.898438 23 42.234375 23 41C23 38.789063 21.949219 36.65625 21.90625 36.5625C21.722656 36.191406 21.324219 35.976563 20.9375 36 Z M 27.9375 36C27.808594 36.007813 27.6875 36.03125 27.5625 36.09375C27.070313 36.339844 26.847656 36.941406 27.09375 37.4375C27.105469 37.457031 28 39.269531 28 41C28 41.765625 27.824219 42.105469 27.59375 42.5625C27.324219 43.101563 27 43.765625 27 45C27 47.210938 28.050781 49.347656 28.09375 49.4375C28.269531 49.789063 28.632813 50 29 50C29.148438 50 29.292969 49.976563 29.4375 49.90625C29.929688 49.660156 30.152344 49.058594 29.90625 48.5625C29.894531 48.542969 29 46.730469 29 45C29 44.234375 29.175781 43.894531 29.40625 43.4375C29.675781 42.898438 30 42.234375 30 41C30 38.789063 28.953125 36.65625 28.90625 36.5625C28.722656 36.191406 28.328125 35.976563 27.9375 36 Z M 34.9375 36C34.808594 36.007813 34.6875 36.03125 34.5625 36.09375C34.070313 36.339844 33.847656 36.941406 34.09375 37.4375C34.105469 37.457031 35 39.269531 35 41C35 41.765625 34.824219 42.105469 34.59375 42.5625C34.324219 43.101563 34 43.765625 34 45C34 47.210938 35.050781 49.347656 35.09375 49.4375C35.269531 49.789063 35.632813 50 36 50C36.148438 50 36.292969 49.976563 36.4375 49.90625C36.929688 49.660156 37.152344 49.058594 36.90625 48.5625C36.894531 48.542969 36 46.730469 36 45C36 44.234375 36.175781 43.894531 36.40625 43.4375C36.675781 42.898438 37 42.234375 37 41C37 38.789063 35.953125 36.65625 35.90625 36.5625C35.722656 36.191406 35.328125 35.976563 34.9375 36Z"/></svg>