<svg xmlns="http://www.w3.org/2000/svg" xmlns:xlink="http://www.w3.org/1999/xlink" viewBox="0 0 50 50"><path d="M20 2L20 4C20 5.654 21.346 7 23 7L24 7L24 16.033203C23.996749 16.033409 23.993485 16.032995 23.990234 16.033203C23.868923 16.040932 23.749451 16.055937 23.628906 16.066406C23.411217 16.085365 23.193555 16.105081 22.978516 16.132812C22.82985 16.151954 22.682503 16.175964 22.535156 16.199219C22.358524 16.227116 22.182444 16.257341 22.007812 16.291016C21.851917 16.321076 21.69722 16.354073 21.542969 16.388672C21.36518 16.428525 21.189153 16.471865 21.013672 16.517578C20.883058 16.551659 20.752351 16.583799 20.623047 16.621094C20.381937 16.69047 20.144488 16.76751 19.908203 16.847656C19.840801 16.870598 19.772079 16.890251 19.705078 16.914062C19.618426 16.944742 19.535178 16.981576 19.449219 17.013672C19.020033 17.17459 18.5987 17.353251 18.1875 17.548828C18.117321 17.582005 18.042272 17.606499 17.972656 17.640625 A 1.0001544 1.0001544 0 0 0 17.880859 17.693359C17.554724 17.856901 17.23521 18.028584 16.921875 18.212891C18.160875 19.876891 20.257031 22.790437 20.332031 22.898438C21.017031 23.882437 21 24.652 21 25C21 25.337 20.915234 25.677328 20.740234 25.986328C20.707234 26.044328 20.137688 27.047344 19.554688 28.027344C20.133688 28.974344 20.695516 29.936188 20.728516 29.992188C21.182516 30.771187 21.058781 31.759344 20.425781 32.402344C20.039781 32.795344 19.522047 33 18.998047 33C18.664047 33 18.328484 32.915141 18.021484 32.744141C17.964484 32.712141 16.97 32.154031 16 31.582031C15.03 32.154031 14.035516 32.712141 13.978516 32.744141C13.671516 32.916141 13.335953 33 13.001953 33C12.478953 33 11.960219 32.795344 11.574219 32.402344C11.269061 32.091875 11.0858 31.699745 11.025391 31.291016 A 1.0001 1.0001 0 0 0 11.013672 31.212891C10.969139 30.799188 11.050716 30.370994 11.271484 29.992188C11.304484 29.936187 11.866312 28.974344 12.445312 28.027344C12.105313 27.456344 11.252109 25.970453 10.662109 24.939453C9.6081094 27.072453 9 29.464 9 32C9 32.551375 9.0273042 33.095632 9.0820312 33.632812C9.0820964 33.633453 9.0819661 33.634125 9.0820312 33.634766C9.1915478 34.708443 9.4087413 35.751187 9.7207031 36.751953C9.7208895 36.752551 9.7205167 36.753308 9.7207031 36.753906C10.032782 37.754639 10.440655 38.712913 10.933594 39.619141C10.933873 39.619655 10.933314 39.62058 10.933594 39.621094C11.179987 40.073955 11.448809 40.514239 11.736328 40.939453C11.736639 40.939913 11.736017 40.940947 11.736328 40.941406C12.599647 42.217907 13.642728 43.363096 14.828125 44.341797C15.223364 44.668094 15.632932 44.975893 16.058594 45.263672C16.059026 45.263964 16.060114 45.263379 16.060547 45.263672C16.48578 45.551097 16.92601 45.82011 17.378906 46.066406C17.832747 46.313332 18.298444 46.53732 18.777344 46.740234C19.255756 46.942881 19.745355 47.123264 20.246094 47.279297C20.747339 47.435611 21.258405 47.566951 21.779297 47.673828C22.299665 47.780549 22.827936 47.863259 23.365234 47.917969C23.903041 47.972826 24.447962 48 25 48C27.23247 48 29.361333 47.538629 31.292969 46.710938 A 1.0001 1.0001 0 1 0 30.505859 44.873047C29.503194 45.302681 28.436483 45.60268 27.330078 45.789062C27.490768 44.302131 27.634724 42.69901 27.740234 40.929688C29.316234 40.849688 30.815625 40.686563 32.265625 40.476562C31.781625 39.820563 31.424719 39.335203 31.386719 39.283203C30.803719 38.487203 30.887937 37.3855 31.585938 36.6875C31.972938 36.3005 32.486953 36.101562 33.001953 36.101562C33.278953 36.101562 33.548594 36.179875 33.808594 36.296875C33.850594 35.778875 33.902687 35.272234 33.929688 34.740234C32.371598 34.832379 30.697853 34.897242 28.966797 34.941406C28.984481 33.974912 29 33.001552 29 32C29 30.988327 28.972943 30.034355 28.955078 29.058594C30.690418 29.102736 32.368049 29.167411 33.929688 29.259766C33.829687 27.299766 33.630078 25.429922 33.330078 23.669922C31.570078 23.369922 29.700234 23.170312 27.740234 23.070312C27.634679 21.300234 27.490855 19.696416 27.330078 18.208984C29.244193 18.52921 31.024192 19.230693 32.589844 20.242188C32.87096 21.331397 33.127238 22.459876 33.330078 23.669922C34.540124 23.872762 35.668603 24.12904 36.757812 24.410156C37.769307 25.975808 38.47079 27.755807 38.791016 29.669922C37.303584 29.509145 35.699766 29.365321 33.929688 29.259766C33.979688 30.159766 34 31.07 34 32C34 32.93 33.979688 33.840234 33.929688 34.740234C35.699766 34.634679 37.303584 34.490855 38.791016 34.330078C38.639997 35.201894 38.41538 36.049169 38.113281 36.863281 A 1.0001 1.0001 0 1 0 39.988281 37.558594C40.629388 35.830901 41 33.960704 41 32C41 31.448625 40.972696 30.902415 40.917969 30.365234C40.863259 29.827936 40.780549 29.299665 40.673828 28.779297C40.567076 28.259014 40.435372 27.746778 40.279297 27.246094C40.123264 26.745355 39.942881 26.255756 39.740234 25.777344C39.537539 25.298961 39.31302 24.832286 39.066406 24.378906C38.82011 23.92601 38.551097 23.48578 38.263672 23.060547C38.263672 23.060547 38.263672 23.058594 38.263672 23.058594C37.975893 22.632932 37.668094 22.223364 37.341797 21.828125C36.363096 20.642728 35.217907 19.599647 33.941406 18.736328C33.941406 18.736328 33.939453 18.736328 33.939453 18.736328C33.514239 18.448809 33.073955 18.179987 32.621094 17.933594C32.621094 17.933594 32.619141 17.933594 32.619141 17.933594C31.712913 17.440655 30.754639 17.032782 29.753906 16.720703C29.753906 16.720703 29.751953 16.720703 29.751953 16.720703C28.751187 16.408741 27.708443 16.191548 26.634766 16.082031C26.634766 16.082031 26.632812 16.082031 26.632812 16.082031C26.424632 16.060822 26.210437 16.063895 26 16.050781L26 7L27 7C28.654 7 30 5.654 30 4L30 2L20 2 z M 8 13C8 13 10.5625 16.496219 11.6875 17.949219C10.5625 19.402219 8 22.898437 8 22.898438C8 22.898438 11.496219 20.335844 12.949219 19.214844C14.402219 20.335844 17.902344 22.898437 17.902344 22.898438C17.902344 22.898438 15.336844 19.402219 14.214844 17.949219C15.336844 16.496219 17.902344 13 17.902344 13C17.902344 13 14.402219 15.562594 12.949219 16.683594C11.496219 15.562594 8 13 8 13 z M 13 25C13 25 14.097875 26.937969 14.796875 28.042969C14.097875 29.116969 13 31 13 31C13 31 14.91 29.930094 16 29.246094C16.545 29.588094 17.294453 30.025906 17.908203 30.378906C18.521953 30.731906 19 31 19 31C19 31 18.725156 30.528828 18.363281 29.923828C18.001406 29.318828 17.552625 28.579969 17.203125 28.042969C17.902125 26.937969 19 25 19 25C19 25 17.09 26.124844 16 26.839844C14.91 26.124844 13 25 13 25 z M 25 29C25.664038 29 26.306378 29.010886 26.953125 29.019531C26.971983 30.00701 27 30.974145 27 32C27 33.015116 26.985184 34.002163 26.966797 34.980469C26.315645 34.989235 25.668686 35 25 35C23.99 35 22.999297 34.990703 22.029297 34.970703C22.069297 37.070703 22.149766 39.069688 22.259766 40.929688C20.299766 40.829687 18.429922 40.630078 16.669922 40.330078C16.369922 38.570078 16.170313 36.700234 16.070312 34.740234C17.930312 34.850234 19.929297 34.930703 22.029297 34.970703C22.009297 34.000703 22 33.01 22 32C22 30.99 22.009297 29.999297 22.029297 29.029297C22.999297 29.009297 23.99 29 25 29 z M 33 38.101562C33 38.101562 35.5625 41.597781 36.6875 43.050781C35.5625 44.503781 33 48 33 48C33 48 36.496219 45.437406 37.949219 44.316406C39.402219 45.438406 42.902344 48 42.902344 48C42.902344 48 40.336844 44.503781 39.214844 43.050781C40.335844 41.597781 42.902344 38.101563 42.902344 38.101562C42.902344 38.101562 39.402219 40.664156 37.949219 41.785156C36.496219 40.663156 33 38.101563 33 38.101562 z"/></svg>