<svg xmlns="http://www.w3.org/2000/svg" xmlns:xlink="http://www.w3.org/1999/xlink" viewBox="0 0 50 50"><path d="M6 3C5.449219 3 5 3.449219 5 4L5 13L45 13L45 4C45 3.449219 44.554688 3 44 3 Z M 27 6C28.105469 6 29 6.894531 29 8C29 9.105469 28.105469 10 27 10C25.894531 10 25 9.105469 25 8C25 6.894531 25.894531 6 27 6 Z M 33 6C34.105469 6 35 6.894531 35 8C35 9.105469 34.105469 10 33 10C31.894531 10 31 9.105469 31 8C31 6.894531 31.894531 6 33 6 Z M 39 6C40.105469 6 41 6.894531 41 8C41 9.105469 40.105469 10 39 10C37.894531 10 37 9.105469 37 8C37 6.894531 37.894531 6 39 6 Z M 5 15L5 46C5 46.554688 5.449219 47 6 47L44 47C44.554688 47 45 46.554688 45 46L45 15 Z M 27 19L29 19L29 22.15625C30.71875 22.605469 32 24.148438 32 26L32 34C32 35.855469 30.71875 37.394531 29 37.84375L29 41L27 41 Z M 35 19L37 19L37 22.15625C38.71875 22.605469 40 24.148438 40 26L40 34C40 35.855469 38.71875 37.394531 37 37.84375L37 41L35 41 Z M 10 25L22 25L22 29C22 31.960938 19.828125 34.425781 17 34.90625L17 39L20 39L20 41L12 41L12 39L15 39L15 34.90625C12.171875 34.425781 10 31.960938 10 29Z"/></svg>