<?xml version="1.0" encoding="utf-8"?><svg version="1.1" id="Layer_1" xmlns="http://www.w3.org/2000/svg" xmlns:xlink="http://www.w3.org/1999/xlink" x="0px" y="0px" viewBox="0 0 100.97 122.88" style="enable-background:new 0 0 100.97 122.88" xml:space="preserve"><g><path d="M82.3,13.63c1.95,0,3.53,1.58,3.53,3.53s-1.58,3.53-3.53,3.53c-1.95,0-3.53-1.58-3.53-3.53S80.35,13.63,82.3,13.63 L82.3,13.63z M66.38,90.12c0.9-2.04,1.44-4.82,1.42-7.88c-0.03-6.26-2.4-11.33-5.28-11.32c-2.88,0.01-5.2,5.1-5.16,11.36 c0.02,3.06,0.59,5.84,1.51,7.88C61.39,94.77,63.89,94.28,66.38,90.12L66.38,90.12z M31.06,103c0.05,0.11,0.1,0.22,0.13,0.34h7.28 c-0.88-2.24-1.6-4.75-2.14-7.45c-0.67-3.37-1.04-7.07-1.06-10.94l0-0.09c-0.03-7.87,1.43-15.03,3.81-20.25 c0.47-1.02,0.97-1.97,1.51-2.85c-0.4-0.34-0.81-0.62-1.23-0.83c-0.57-0.29-1.15-0.46-1.72-0.48l-0.15,0.01v-0.01h-0.01 c-2.46,0.01-4.82,2.5-6.65,6.5c-2.07,4.55-3.34,10.88-3.31,17.9l0,0.07c0.02,3.52,0.36,6.87,0.96,9.91 C29.09,97.92,29.98,100.7,31.06,103L31.06,103z M25.98,103.34c-0.87-2.22-1.59-4.72-2.13-7.42c-0.67-3.38-1.05-7.08-1.07-10.97 l0-0.09c-0.03-7.87,1.43-15.03,3.81-20.25c2.62-5.76,6.44-9.34,10.83-9.36v-0.01h0.01c0.09,0,0.18,0,0.26,0.01 c1.27,0.03,2.49,0.36,3.64,0.95c0.83,0.42,1.63,0.98,2.4,1.67c1.86-1.67,3.94-2.61,6.18-2.62v-0.01h0.01c0.09,0,0.18,0,0.26,0.01 c1.28,0.04,2.52,0.37,3.69,0.98c0.82,0.42,1.6,0.97,2.35,1.64c1.86-1.67,3.94-2.61,6.18-2.62v-0.01h0.01c0.09,0,0.18,0,0.27,0.01 c4.31,0.12,8.08,3.65,10.71,9.31c2.43,5.22,3.96,12.39,4,20.27c0.02,3.78-0.3,7.38-0.89,10.65c-0.52,2.87-1.25,5.52-2.15,7.87h7.96 c0.48,0,0.93-0.2,1.25-0.52c0.32-0.32,0.52-0.76,0.52-1.25V49.04c0-0.48-0.2-0.92-0.52-1.24c-0.32-0.32-0.76-0.52-1.24-0.52H19 c-0.48,0-0.92,0.2-1.24,0.52s-0.52,0.76-0.52,1.24v52.53c0,0.48,0.2,0.92,0.52,1.24c0.32,0.32,0.76,0.52,1.24,0.52H25.98 L25.98,103.34z M43.53,102.96c0.06,0.12,0.11,0.25,0.15,0.38h7.29c-0.92-2.32-1.66-4.94-2.2-7.75c-0.63-3.27-0.98-6.86-1-10.64 l0-0.09c-0.03-7.87,1.43-15.03,3.81-20.25c0.46-1.02,0.97-1.97,1.51-2.85c-0.4-0.34-0.8-0.61-1.21-0.82 c-0.58-0.3-1.16-0.47-1.74-0.49l-0.15,0.01v-0.01h-0.01c-2.46,0.01-4.82,2.5-6.65,6.5c-2.07,4.55-3.34,10.88-3.31,17.9l0,0.07 c0.02,3.51,0.36,6.85,0.96,9.88C41.57,97.9,42.46,100.67,43.53,102.96L43.53,102.96z M55.85,102.57c0.11,0.25,0.18,0.51,0.22,0.77 h13.21c0.03-0.28,0.1-0.56,0.22-0.83c1-2.29,1.81-5.02,2.36-8.06c0.54-2.98,0.83-6.22,0.81-9.59c-0.04-7.05-1.37-13.4-3.49-17.95 c-1.83-3.92-4.15-6.37-6.56-6.46l-0.15,0.01v-0.01h-0.01c-2.46,0.01-4.82,2.5-6.65,6.5c-2.07,4.55-3.34,10.88-3.31,17.9v0.07 c0.02,3.39,0.34,6.64,0.91,9.62C53.99,97.58,54.83,100.3,55.85,102.57L55.85,102.57z M19,42.39h63.32c1.83,0,3.49,0.75,4.69,1.95 c1.2,1.2,1.95,2.87,1.95,4.7v52.53c0,1.82-0.75,3.48-1.95,4.68L87,106.27c-1.2,1.2-2.86,1.95-4.68,1.95H19 c-1.83,0-3.49-0.75-4.7-1.95c-1.2-1.2-1.95-2.86-1.95-4.69V49.04c0-1.83,0.75-3.49,1.95-4.7C15.5,43.14,17.17,42.39,19,42.39 L19,42.39z M16.43,13.63c1.95,0,3.53,1.58,3.53,3.53s-1.58,3.53-3.53,3.53s-3.53-1.58-3.53-3.53S14.48,13.63,16.43,13.63 L16.43,13.63z M31.71,13.27H69.6v7.78H31.71V13.27L31.71,13.27z M4.64,29.67h91.7V6.34c0-0.47-0.19-0.89-0.5-1.2 c-0.31-0.31-0.73-0.5-1.2-0.5H6.34c-0.47,0-0.89,0.19-1.2,0.5c-0.31,0.31-0.5,0.73-0.5,1.2V29.67L4.64,29.67L4.64,29.67z M100.97,116.54c0,1.74-0.71,3.33-1.86,4.48c-1.15,1.15-2.74,1.86-4.48,1.86H6.34c-1.74,0-3.33-0.71-4.48-1.86 C0.71,119.86,0,118.28,0,116.53V6.34c0-1.74,0.71-3.33,1.86-4.48S4.59,0,6.34,0h88.3c1.74,0,3.33,0.71,4.48,1.86 c1.15,1.15,1.86,2.74,1.86,4.48C100.97,44.87,100.97,77.89,100.97,116.54L100.97,116.54z M96.34,34.31H4.64v82.22 c0,0.47,0.19,0.89,0.5,1.2c0.31,0.31,0.73,0.5,1.2,0.5h88.3c0.47,0,0.89-0.19,1.2-0.5c0.31-0.31,0.5-0.73,0.5-1.2V34.31 L96.34,34.31L96.34,34.31z"/></g></svg>