<svg xmlns="http://www.w3.org/2000/svg" xmlns:xlink="http://www.w3.org/1999/xlink" viewBox="0 0 50 50"><path d="M5.8125 3C5.335938 3.089844 4.992188 3.511719 5 4L5 46C5 46.550781 5.449219 47 6 47L44 47C44.550781 47 45 46.550781 45 46L45 4C45 3.449219 44.550781 3 44 3L6 3C5.96875 3 5.9375 3 5.90625 3C5.875 3 5.84375 3 5.8125 3 Z M 7 5L43 5L43 13L7 13 Z M 27 7C25.894531 7 25 7.894531 25 9C25 10.105469 25.894531 11 27 11C28.105469 11 29 10.105469 29 9C29 7.894531 28.105469 7 27 7 Z M 33 7C31.894531 7 31 7.894531 31 9C31 10.105469 31.894531 11 33 11C34.105469 11 35 10.105469 35 9C35 7.894531 34.105469 7 33 7 Z M 39 7C37.894531 7 37 7.894531 37 9C37 10.105469 37.894531 11 39 11C40.105469 11 41 10.105469 41 9C41 7.894531 40.105469 7 39 7 Z M 7 15L43 15L43 45L7 45 Z M 27 19L27 41L29 41L29 38.90625C31.269531 38.4375 33 36.402344 33 34L33 26C33 23.597656 31.269531 21.5625 29 21.09375L29 19 Z M 35 19L35 41L37 41L37 38.90625C39.269531 38.4375 41 36.402344 41 34L41 26C41 23.597656 39.269531 21.5625 37 21.09375L37 19 Z M 29 23.40625C30.109375 23.847656 31 24.734375 31 26L31 34C31 35.265625 30.109375 36.152344 29 36.59375 Z M 37 23.40625C38.109375 23.847656 39 24.734375 39 26L39 34C39 35.265625 38.109375 36.152344 37 36.59375 Z M 9 24L9 29C9 32.507813 11.621094 35.417969 15 35.90625L15 39L12 39L12 41L20 41L20 39L17 39L17 35.90625C20.378906 35.417969 23 32.507813 23 29L23 24 Z M 11 26L21 26L21 29C21 31.753906 18.753906 34 16 34C13.246094 34 11 31.753906 11 29Z"/></svg>