<svg xmlns="http://www.w3.org/2000/svg" xmlns:xlink="http://www.w3.org/1999/xlink" viewBox="0 0 50 50"><path d="M25 5C12.617188 5 0 8.28125 0 11.5L0 22.5C0 22.824219 0.0898438 23.140625 0.28125 23.4375C0.429688 23.148438 1 22.53125 1 22.53125C2.21875 21.058594 12.582031 17.90625 25 17.90625C37.417969 17.90625 47.84375 21.082031 49 22.53125C49 22.53125 49.570313 23.148438 49.71875 23.4375C49.910156 23.140625 50 22.824219 50 22.5L50 11.5C50 8.28125 37.382813 5 25 5 Z M 23.75 19.90625C12.921875 20.101563 4.023438 22.761719 2.5625 23.78125L2.3125 24C2.097656 24.191406 2.027344 24.382813 2 24.46875C2 24.46875 1.988281 24.835938 2 24.84375C2.949219 36.660156 12.945313 46 25 46C37.054688 46 47.050781 36.628906 48 24.8125C48.011719 24.808594 48 24.46875 48 24.46875C47.972656 24.382813 47.902344 24.191406 47.6875 24L47.4375 23.78125C45.980469 22.761719 37.078125 20.101563 26.25 19.90625C25.832031 19.898438 25.429688 19.90625 25 19.90625C24.570313 19.90625 24.167969 19.898438 23.75 19.90625 Z M 25 22C29.398438 22 33 25.601563 33 30L33 37.90625C33 39.304688 29.398438 42 25 42C20.601563 42 17 39.207031 17 37.90625L17 30C17 25.601563 20.601563 22 25 22 Z M 25 31C23.34375 31 22 32.34375 22 34C22 35.65625 23.34375 37 25 37C26.65625 37 28 35.65625 28 34C28 32.34375 26.65625 31 25 31Z"/></svg>