<svg xmlns="http://www.w3.org/2000/svg" xmlns:xlink="http://www.w3.org/1999/xlink" viewBox="0 0 50 50"><path d="M25 5C18.261719 5 12.179688 5.902344 7.75 7.0625C5.535156 7.644531 3.746094 8.285156 2.4375 8.9375C1.785156 9.265625 1.234375 9.597656 0.8125 9.96875C0.390625 10.339844 0 10.792969 0 11.5L0 22.40625C0 22.4375 0 22.46875 0 22.5C0 23.214844 0.429688 23.679688 0.875 24.0625C1.207031 24.347656 1.621094 24.597656 2.09375 24.84375C3.03125 36.707031 12.886719 46 25 46C37.113281 46 46.96875 36.707031 47.90625 24.84375C48.378906 24.597656 48.792969 24.347656 49.125 24.0625C49.570313 23.679688 50 23.214844 50 22.5C50.007813 22.4375 50.007813 22.375 50 22.3125L50 11.5C50 10.792969 49.609375 10.339844 49.1875 9.96875C48.765625 9.597656 48.214844 9.265625 47.5625 8.9375C46.253906 8.285156 44.464844 7.644531 42.25 7.0625C37.820313 5.902344 31.738281 5 25 5 Z M 25 7C31.558594 7 37.476563 7.886719 41.71875 9C43.839844 9.554688 45.574219 10.164063 46.6875 10.71875C47.246094 10.996094 47.628906 11.28125 47.84375 11.46875C47.953125 11.5625 47.988281 11.644531 48 11.65625L48 20.125C47.839844 20.035156 47.738281 19.933594 47.5625 19.84375C46.253906 19.191406 44.464844 18.550781 42.25 17.96875C41.492188 17.769531 40.660156 17.585938 39.8125 17.40625C35.828125 16.410156 30.679688 15.8125 25 15.8125C18.835938 15.8125 13.265625 16.390625 9.15625 17.5C8.332031 17.722656 7.578125 17.984375 6.875 18.25C5.066406 18.769531 3.5625 19.316406 2.4375 19.875C2.257813 19.964844 2.160156 20.066406 2 20.15625L2 11.65625C2.011719 11.644531 2.046875 11.5625 2.15625 11.46875C2.371094 11.28125 2.753906 10.996094 3.3125 10.71875C4.425781 10.164063 6.160156 9.554688 8.28125 9C12.523438 7.886719 18.441406 7 25 7 Z M 25 17.90625C30.414063 17.90625 35.386719 18.507813 39.34375 19.34375C39.675781 19.425781 40 19.503906 40.3125 19.59375C42.234375 20.136719 43.75 20.789063 44.71875 21.4375C45.6875 22.085938 46 22.628906 46 23C46 23.28125 45.980469 23.566406 45.96875 23.84375C45.871094 24.070313 45.859375 24.328125 45.9375 24.5625C45.148438 35.488281 36.140625 44 25 44C13.851563 44 4.835938 35.472656 4.0625 24.53125C4.140625 24.296875 4.128906 24.039063 4.03125 23.8125C4.019531 23.542969 4 23.269531 4 23C4 22.480469 4.320313 21.90625 5.28125 21.25C5.761719 20.921875 6.382813 20.585938 7.125 20.28125C7.503906 20.167969 7.871094 20.046875 8.28125 19.9375C12.527344 18.8125 18.441406 17.90625 25 17.90625 Z M 25 20C20.054688 20 16 24.054688 16 29L16 36.90625C16 37.691406 16.414063 38.210938 16.90625 38.75C17.398438 39.289063 18.046875 39.839844 18.84375 40.3125C20.4375 41.261719 22.585938 42 25 42C27.40625 42 29.558594 41.28125 31.15625 40.34375C31.953125 39.875 32.628906 39.363281 33.125 38.8125C33.621094 38.261719 34 37.683594 34 36.90625L34 29C34 24.054688 29.945313 20 25 20 Z M 25 22C28.855469 22 32 25.144531 32 29L32 36.90625C32 36.828125 31.941406 37.117188 31.625 37.46875C31.308594 37.820313 30.808594 38.242188 30.15625 38.625C28.851563 39.390625 26.996094 40 25 40C23.011719 40 21.183594 39.339844 19.875 38.5625C19.222656 38.171875 18.695313 37.757813 18.375 37.40625C18.152344 37.164063 18.039063 36.96875 18 36.90625L18 29C18 25.144531 21.144531 22 25 22 Z M 25 29C22.800781 29 21 30.800781 21 33C21 35.199219 22.800781 37 25 37C27.199219 37 29 35.199219 29 33C29 30.800781 27.199219 29 25 29 Z M 25 31C26.117188 31 27 31.882813 27 33C27 34.117188 26.117188 35 25 35C23.882813 35 23 34.117188 23 33C23 31.882813 23.882813 31 25 31Z"/></svg>