<svg xmlns="http://www.w3.org/2000/svg" xmlns:xlink="http://www.w3.org/1999/xlink" viewBox="0 0 50 50"><path d="M32.5 3C28.968543 3 25.988418 5.4615799 25.203125 8.7675781C25.179177 8.8679513 24.603939 11.043616 24.070312 13.337891C23.800929 14.496081 23.533537 15.683191 23.332031 16.763672C18.057237 22.020949 14.757736 24.641089 12.089844 26.658203L12.087891 26.658203C8.5792111 29.31132 5.7904175 32.808686 4.0078125 36.835938C3.7253149 37.474001 3.4851523 38.063808 3.3085938 38.582031C3.132035 39.100254 3 39.500931 3 40C3 41.79034 3.6871558 43.586384 5.0488281 44.949219L5.0507812 44.949219L5.0507812 44.951172C6.4136196 46.312797 8.2096597 47 10 47C10.481361 47 10.868056 46.875064 11.363281 46.708984C11.858005 46.543073 12.420662 46.317467 13.029297 46.050781C17.131851 44.255588 20.634529 41.367338 23.322266 37.820312C25.248312 35.278048 27.786412 32.133308 33.234375 26.669922C34.31548 26.468369 35.503082 26.199266 36.662109 25.929688C38.956384 25.396061 41.132049 24.820823 41.232422 24.796875C44.53842 24.011582 47 21.031457 47 17.5C47 15.491008 46.20032 13.653718 44.90625 12.306641C43.686024 11.036946 38.963054 6.3139757 37.693359 5.09375C36.346282 3.7996801 34.508992 3 32.5 3 z M 32.5 5C33.981008 5 35.315718 5.5832262 36.306641 6.5351562C37.500946 7.6829306 42.317069 12.499054 43.464844 13.693359C44.416774 14.684282 45 16.018992 45 17.5C45 20.103637 43.188251 22.277931 40.769531 22.851562L40.767578 22.851562C40.385951 22.942612 38.466709 23.457297 36.208984 23.982422C33.951306 24.507546 31.357742 25 30.5 25C27.458411 25 25 22.541589 25 19.5C25 18.642258 25.492454 16.048741 26.017578 13.791016C26.542703 11.533291 27.057384 9.6140487 27.148438 9.2324219L27.148438 9.2304688C27.722069 6.8117462 29.896363 5 32.5 5 z M 32.5 7C30.578848 7 29 8.578848 29 10.5C29 12.421152 30.578848 14 32.5 14C34.421152 14 36 12.421152 36 10.5C36 8.578848 34.421152 7 32.5 7 z M 32.5 9C33.340272 9 34 9.6597282 34 10.5C34 11.340272 33.340272 12 32.5 12C31.659728 12 31 11.340272 31 10.5C31 9.6597282 31.659728 9 32.5 9 z M 39.5 14C37.578848 14 36 15.578848 36 17.5C36 19.421152 37.578848 21 39.5 21C41.421152 21 43 19.421152 43 17.5C43 15.578848 41.421152 14 39.5 14 z M 30.5 16C28.578848 16 27 17.578848 27 19.5C27 21.421152 28.578848 23 30.5 23C32.421152 23 34 21.421152 34 19.5C34 17.578848 32.421152 16 30.5 16 z M 39.5 16C40.340272 16 41 16.659728 41 17.5C41 18.340272 40.340272 19 39.5 19C38.659728 19 38 18.340272 38 17.5C38 16.659728 38.659728 16 39.5 16 z M 30.5 18C31.340272 18 32 18.659728 32 19.5C32 20.340272 31.340272 21 30.5 21C29.659728 21 29 20.340272 29 19.5C29 18.659728 29.659728 18 30.5 18 z M 23.017578 19.849609C23.197433 23.694658 26.298525 26.798605 30.142578 26.982422C25.830867 31.42495 23.460928 34.32465 21.728516 36.611328C19.230253 39.908303 15.991962 42.571943 12.228516 44.21875C11.655861 44.46971 11.134837 44.677533 10.726562 44.814453C10.31829 44.951373 9.9806392 45 10 45C8.719213 45 7.445738 44.516094 6.4648438 43.537109L6.4628906 43.535156C5.4839027 42.554309 5 41.280787 5 40C5 40.02007 5.05398 39.660542 5.2011719 39.228516C5.3483633 38.796489 5.5694351 38.246467 5.8359375 37.644531C7.4793325 33.931783 10.053648 30.70479 13.294922 28.253906C15.67751 26.452502 18.690965 24.027397 23.017578 19.849609 z M 20.648438 25.947266C20.134239 25.947222 19.618714 26.139098 19.232422 26.525391L14.515625 31.244141C13.742945 32.016361 13.743497 33.300137 14.515625 34.072266L15.929688 35.486328C16.701968 36.258444 17.985872 36.258269 18.757812 35.486328L23.474609 30.767578L23.476562 30.767578C24.247657 29.994507 24.247219 28.712016 23.474609 27.939453L22.0625 26.527344L22.060547 26.525391C21.674729 26.139655 21.161777 25.947309 20.648438 25.947266 z M 20.646484 27.939453L22.060547 29.353516L22.060547 29.355469L20.46875 30.947266L19.054688 29.533203L20.646484 27.939453 z M 17.640625 30.947266L19.054688 32.361328L17.34375 34.072266L15.929688 32.658203L17.640625 30.947266 z"/></svg>