<svg xmlns="http://www.w3.org/2000/svg" xmlns:xlink="http://www.w3.org/1999/xlink" viewBox="0 0 50 50"><path d="M41,4H9C6.243,4,4,6.243,4,9v32c0,2.757,2.243,5,5,5h32c2.757,0,5-2.243,5-5V9C46,6.243,43.757,4,41,4z M16.5,9c2.485,0,4.5,2.015,4.5,4.5S18.985,18,16.5,18S12,15.985,12,13.5S14.015,9,16.5,9z M16.5,42c-0.828,0-1.5-0.672-1.5-1.5s0.672-1.5,1.5-1.5s1.5,0.672,1.5,1.5S17.328,42,16.5,42z M21.5,42c-0.828,0-1.5-0.672-1.5-1.5s0.672-1.5,1.5-1.5s1.5,0.672,1.5,1.5S22.328,42,21.5,42z M17,36c-3.314,0-6-2.686-6-6s2.686-6,6-6s6,2.686,6,6S20.314,36,17,36z M28.5,42c-0.828,0-1.5-0.672-1.5-1.5s0.672-1.5,1.5-1.5s1.5,0.672,1.5,1.5S29.328,42,28.5,42z M33.5,42c-0.828,0-1.5-0.672-1.5-1.5s0.672-1.5,1.5-1.5s1.5,0.672,1.5,1.5S34.328,42,33.5,42z M33.5,36c-2.485,0-4.5-2.015-4.5-4.5s2.015-4.5,4.5-4.5s4.5,2.015,4.5,4.5S35.985,36,33.5,36z M33,21c-3.314,0-6-2.686-6-6s2.686-6,6-6s6,2.686,6,6S36.314,21,33,21z"/></svg>