<svg xmlns="http://www.w3.org/2000/svg" xmlns:xlink="http://www.w3.org/1999/xlink" viewBox="0 0 50 50"><path d="M32.5 3C29.008 3 26.006172 5.3735312 25.201172 8.7695312L25.099609 9.1738281C23.687609 14.657828 23 18.036 23 19.5C23 23.636 26.364 27 30.5 27C31.964 27 35.342172 26.312391 40.826172 24.900391L41.230469 24.798828C44.627469 23.993828 47 20.992 47 17.5C47 15.556 46.25625 13.710641 44.90625 12.306641C43.71725 11.068641 38.930359 6.28275 37.693359 5.09375C36.289359 3.74375 34.444 3 32.5 3 z M 32.5 8C33.881 8 35 9.119 35 10.5C35 11.881 33.881 13 32.5 13C31.119 13 30 11.881 30 10.5C30 9.119 31.119 8 32.5 8 z M 39.5 15C40.881 15 42 16.119 42 17.5C42 18.881 40.881 20 39.5 20C38.119 20 37 18.881 37 17.5C37 16.119 38.119 15 39.5 15 z M 30.5 17C31.881 17 33 18.119 33 19.5C33 20.881 31.881 22 30.5 22C29.119 22 28 20.881 28 19.5C28 18.119 29.119 17 30.5 17 z M 21.013672 19.03125C17.024672 22.84525 14.332844 24.961203 12.089844 26.658203C8.5728438 29.317203 5.7778125 32.836938 4.0078125 36.835938C3.1038125 38.875937 3 39.619 3 40C3 41.87 3.7287813 43.626219 5.0507812 44.949219C6.3727813 46.272219 8.13 47 10 47C10.371 47 11.087297 46.901781 13.029297 46.050781C16.998297 44.314781 20.558266 41.468313 23.322266 37.820312C25.010266 35.592312 27.126984 32.971328 30.958984 28.986328C30.786984 28.995328 30.635 29 30.5 29C25.262 29 21 24.738 21 19.5C21 19.363 21.003672 19.20825 21.013672 19.03125 z M 19.585938 28C19.841812 28 20.097969 28.099422 20.292969 28.294922L21.705078 29.707031C22.097078 30.097031 22.098031 30.731094 21.707031 31.121094L20.113281 32.714844L17.285156 29.886719L18.878906 28.294922C19.074406 28.099422 19.330063 28 19.585938 28 z M 15.871094 31.300781L18.699219 34.128906L16.988281 35.839844C16.597281 36.230844 15.964219 36.230844 15.574219 35.839844L14.160156 34.425781C13.769156 34.034781 13.769156 33.401719 14.160156 33.011719L15.871094 31.300781 z"/></svg>