<svg xmlns="http://www.w3.org/2000/svg" xmlns:xlink="http://www.w3.org/1999/xlink" viewBox="0 0 50 50"><path d="M34 0C13.621094 0 6.65625 6.535156 3.1875 11.4375C3.023438 11.671875 2.964844 11.941406 3.03125 12.21875C3.097656 12.496094 3.28125 12.738281 3.53125 12.875C3.671875 12.953125 7 14.835938 7 21L7 42L39 42L39 37.53125L43.5 34.84375C43.902344 34.597656 44.078125 34.101563 43.917969 33.65625C43.761719 33.210938 43.3125 32.9375 42.84375 33C42.71875 33.03125 42.605469 33.082031 42.5 33.15625L39 35.25L39 29.3125C40.042969 27.761719 45 19.976563 45 12C45 6.199219 42.109375 0 34 0 Z M 34.40625 7C35.496094 7 37 7.695313 37 9L37 12C37 18.496094 34.214844 21.566406 33 21.96875L33 8C33 7.132813 33 7 34.40625 7 Z M 22 18C24.761719 18 27 20.238281 27 23L27 35C27 37.761719 24.761719 40 22 40C19.238281 40 17 37.761719 17 35L22 35C22.550781 35 23 34.554688 23 34C23 33.445313 22.550781 33 22 33L17 33L17 30L22 30C22.550781 30 23 29.554688 23 29C23 28.445313 22.550781 28 22 28L17 28L17 25L22 25C22.550781 25 23 24.550781 23 24C23 23.449219 22.550781 23 22 23L17 23C17 20.238281 19.238281 18 22 18 Z M 7 44C5.347656 44 4 45.347656 4 47L4 50L43 50L43 47C43 45.347656 41.652344 44 40 44Z"/></svg>