<svg xmlns="http://www.w3.org/2000/svg" xmlns:xlink="http://www.w3.org/1999/xlink" viewBox="0 0 50 50"><path d="M34 0C14.96875 0 7.179688 5.792969 3.1875 11.4375C3.03125 11.671875 2.976563 11.957031 3.042969 12.230469C3.109375 12.503906 3.285156 12.738281 3.53125 12.875C3.53125 12.875 4.304688 13.277344 5.1875 14.5C6.070313 15.722656 7 17.730469 7 21L7 44C5.355469 44 4 45.355469 4 47L4 50L43 50L43 47C43 45.355469 41.644531 44 40 44L39 44L39 37.53125L43.5 34.84375C43.902344 34.597656 44.078125 34.101563 43.917969 33.65625C43.761719 33.210938 43.3125 32.9375 42.84375 33C42.71875 33.03125 42.605469 33.082031 42.5 33.15625L39 35.25L39 29.25C39.339844 28.769531 45 20.714844 45 12C45 9.121094 44.34375 6.148438 42.59375 3.84375C40.84375 1.539063 37.96875 0 34 0 Z M 34 2C37.472656 2 39.609375 3.226563 41 5.0625C42.390625 6.898438 43 9.433594 43 12C43 20.035156 37.1875 28.4375 37.1875 28.4375C37.070313 28.601563 37.003906 28.796875 37 29L37 36.5625C36.796875 36.886719 36.796875 37.300781 37 37.625L37 44L9 44L9 21C9 17.347656 7.929688 14.859375 6.8125 13.3125C6.335938 12.652344 5.851563 12.230469 5.4375 11.875C9.238281 6.910156 16.199219 2 34 2 Z M 34.40625 5C33.394531 5 32.558594 5.085938 31.875 5.65625C31.191406 6.226563 31 7.117188 31 8L31 22C31 22.472656 31.097656 22.941406 31.40625 23.34375C31.714844 23.746094 32.253906 24 32.75 24C34.300781 24 35.707031 22.8125 36.90625 20.8125C38.105469 18.8125 39 15.886719 39 12L39 9C39 7.714844 38.324219 6.660156 37.4375 6C36.550781 5.339844 35.460938 5 34.40625 5 Z M 34.40625 7C35.019531 7 35.726563 7.226563 36.21875 7.59375C36.710938 7.960938 37 8.390625 37 9L37 12C37 15.574219 36.171875 18.144531 35.1875 19.78125C34.332031 21.203125 33.398438 21.734375 33 21.875L33 8C33 7.355469 33.101563 7.234375 33.15625 7.1875C33.210938 7.140625 33.5625 7 34.40625 7 Z M 22 17C18.699219 17 16 19.699219 16 23L16 23.53125C15.867188 23.808594 15.867188 24.128906 16 24.40625L16 28.53125C15.867188 28.808594 15.867188 29.128906 16 29.40625L16 33.53125C15.867188 33.808594 15.867188 34.128906 16 34.40625L16 35C16 38.300781 18.699219 41 22 41C25.300781 41 28 38.300781 28 35L28 23C28 19.699219 25.300781 17 22 17 Z M 22 19C24.21875 19 26 20.78125 26 23L26 35C26 37.21875 24.21875 39 22 39C19.78125 39 18 37.21875 18 35L22 35C22.359375 35.003906 22.695313 34.816406 22.878906 34.503906C23.058594 34.191406 23.058594 33.808594 22.878906 33.496094C22.695313 33.183594 22.359375 32.996094 22 33L18 33L18 30L22 30C22.359375 30.003906 22.695313 29.816406 22.878906 29.503906C23.058594 29.191406 23.058594 28.808594 22.878906 28.496094C22.695313 28.183594 22.359375 27.996094 22 28L18 28L18 25L22 25C22.359375 25.003906 22.695313 24.816406 22.878906 24.503906C23.058594 24.191406 23.058594 23.808594 22.878906 23.496094C22.695313 23.183594 22.359375 22.996094 22 23L18 23C18 20.78125 19.78125 19 22 19 Z M 7 46L40 46C40.5625 46 41 46.4375 41 47L41 48L6 48L6 47C6 46.4375 6.4375 46 7 46Z"/></svg>