<?xml version="1.0" encoding="utf-8"?><svg version="1.1" id="Layer_1" xmlns="http://www.w3.org/2000/svg" xmlns:xlink="http://www.w3.org/1999/xlink" x="0px" y="0px" viewBox="0 0 71.54 122.88" style="enable-background:new 0 0 71.54 122.88" xml:space="preserve"><g><path d="M6.14,0H65.4c1.69,0,3.23,0.69,4.34,1.8c1.11,1.11,1.8,2.65,1.8,4.34v29.67v73.73c0,1.69-0.69,3.23-1.8,4.34 c-1.11,1.11-2.65,1.8-4.34,1.8h-4.89v2.72c0,2.47-2.02,4.49-4.49,4.49l0,0c-2.47,0-4.49-2.02-4.49-4.49v-2.72H20.17v2.72 c0,2.47-2.02,4.49-4.49,4.49l0,0c-2.47,0-4.49-2.02-4.49-4.49v-2.72H6.14c-1.69,0-3.23-0.69-4.34-1.8c-1.11-1.11-1.8-2.65-1.8-4.34 V35.81V6.14C0,4.45,0.69,2.91,1.8,1.8C2.91,0.69,4.45,0,6.14,0L6.14,0z M10.2,44.89c0-1.34,1.09-2.43,2.43-2.43 c1.34,0,2.43,1.09,2.43,2.43v20.4c0,1.34-1.09,2.43-2.43,2.43c-1.34,0-2.43-1.09-2.43-2.43V44.89L10.2,44.89z M10.2,10.39 c0-1.34,1.09-2.43,2.43-2.43c1.34,0,2.43,1.09,2.43,2.43v15.15c0,1.34-1.09,2.43-2.43,2.43c-1.34,0-2.43-1.09-2.43-2.43V10.39 L10.2,10.39z M4.87,33.37h61.81V6.14c0-0.35-0.14-0.67-0.38-0.9c-0.23-0.23-0.55-0.38-0.9-0.38H6.14c-0.35,0-0.67,0.14-0.9,0.38 c-0.23,0.23-0.38,0.55-0.38,0.9V33.37L4.87,33.37z M66.67,38.24H4.87v71.29c0,0.35,0.14,0.67,0.38,0.9 c0.23,0.23,0.55,0.38,0.9,0.38H65.4c0.35,0,0.67-0.14,0.9-0.38c0.23-0.23,0.38-0.55,0.38-0.9V38.24L66.67,38.24z"/></g></svg>