<svg xmlns="http://www.w3.org/2000/svg" xmlns:xlink="http://www.w3.org/1999/xlink" viewBox="0 0 50 50"><path d="M10 0C8.347656 0 7 1.347656 7 3L7 18L43 18L43 3C43 1.347656 41.652344 0 40 0 Z M 14 6C14.550781 6 15 6.449219 15 7L15 14C15 14.550781 14.550781 15 14 15C13.449219 15 13 14.550781 13 14L13 7C13 6.449219 13.449219 6 14 6 Z M 7 20L7 44C7 45.652344 8.347656 47 10 47L10 48C10 49.101563 10.898438 50 12 50L15 50C16.101563 50 17 49.101563 17 48L17 47L33 47L33 48C33 49.101563 33.898438 50 35 50L38 50C39.101563 50 40 49.101563 40 48L40 47C41.652344 47 43 45.652344 43 44L43 20 Z M 14 23C14.550781 23 15 23.449219 15 24L15 31C15 31.554688 14.550781 32 14 32C13.449219 32 13 31.554688 13 31L13 24C13 23.449219 13.449219 23 14 23Z"/></svg>