<svg xmlns="http://www.w3.org/2000/svg" xmlns:xlink="http://www.w3.org/1999/xlink" viewBox="0 0 50 50"><path d="M25.023438 2 A 1.0001 1.0001 0 0 0 24.416016 2.1875C24.416016 2.1875 23.085779 3.1450988 21.757812 4.6191406C20.429848 6.0931824 19 8.1226496 19 10.5C19 13.585671 21.752461 16 25 16C28.247539 16 31 13.585671 31 10.5C31 8.1226496 29.570153 6.0931824 28.242188 4.6191406C26.914222 3.1450988 25.583984 2.1875 25.583984 2.1875 A 1.0001 1.0001 0 0 0 25.023438 2 z M 25 4.3476562C25.383366 4.6457131 25.878146 4.9805999 26.757812 5.9570312C27.929847 7.2579895 29 8.9773504 29 10.5C29 12.384329 27.274461 14 25 14C22.725539 14 21 12.384329 21 10.5C21 8.9773504 22.070153 7.2579895 23.242188 5.9570312C24.121855 4.9805998 24.616634 4.645713 25 4.3476562 z M 25 14C26.105 14 27 12.993 27 11.75C27 10.507 25 8 25 8C25 8 23 10.507 23 11.75C23 12.993 23.895 14 25 14 z M 11 14C8.2504839 14 6 16.250484 6 19L6 22L3 22C1.3550302 22 0 23.35503 0 25L0 41C0 42.64497 1.3550302 44 3 44L4 44L4 46C4 47.093063 4.9069372 48 6 48L8 48C9.0930628 48 10 47.093063 10 46L10 44L40 44L40 46C40 47.093063 40.906937 48 42 48L44 48C45.093063 48 46 47.093063 46 46L46 44L47 44C48.64497 44 50 42.64497 50 41L50 25C50 23.35503 48.64497 22 47 22L44 22L44 19C44 16.250484 41.749516 14 39 14L37 14 A 1.0001 1.0001 0 1 0 37 16L39 16C40.668484 16 42 17.331516 42 19L42 22L38 22L38 21.101562C38 19.462264 36.654388 18.110493 35.015625 18.101562L15.015625 18.009766L15.013672 18.009766C13.363414 18.001909 12 19.359784 12 21.009766L12 22L8 22L8 19C8 17.331516 9.3315161 16 11 16L13 16 A 1.0001 1.0001 0 1 0 13 14L11 14 z M 15.003906 20.009766L15.005859 20.009766L35.003906 20.101562C35.567143 20.104662 36 20.538863 36 21.101562L36 22L14 22L14 21.009766C14 20.442395 14.437037 20.006699 15.003906 20.009766 z M 3 24L12.832031 24 A 1.0001 1.0001 0 0 0 13.158203 24L36.832031 24 A 1.0001 1.0001 0 0 0 37.158203 24L47 24C47.56503 24 48 24.43497 48 25L48 41C48 41.56503 47.56503 42 47 42L3 42C2.4349698 42 2 41.56503 2 41L2 25C2 24.43497 2.4349698 24 3 24 z M 25 26C21.145851 26 18 29.145851 18 33C18 36.854149 21.145851 40 25 40C28.854149 40 32 36.854149 32 33C32 29.145851 28.854149 26 25 26 z M 43.5 27 A 1.5 1.5 0 0 0 42 28.5 A 1.5 1.5 0 0 0 43.5 30 A 1.5 1.5 0 0 0 45 28.5 A 1.5 1.5 0 0 0 43.5 27 z M 25 28C27.430696 28 29.440695 29.710119 29.900391 32L20.099609 32C20.559305 29.710119 22.569304 28 25 28 z M 20.099609 34L29.900391 34C29.440695 36.289881 27.430696 38 25 38C22.569304 38 20.559305 36.289881 20.099609 34 z M 6 44L8 44L8 46L6 46L6 44 z M 42 44L44 44L44 46L42 46L42 44 z"/></svg>