<svg xmlns="http://www.w3.org/2000/svg" xmlns:xlink="http://www.w3.org/1999/xlink" viewBox="0 0 50 50"><path d="M25 1.9980469C24.79525 1.9980469 24.589062 2.0615 24.414062 2.1875C24.194063 2.3475 19 6.138 19 10.5C19 13.532 21.691 16 25 16C28.309 16 31 13.532 31 10.5C31 6.138 25.804984 2.3475 25.583984 2.1875C25.408984 2.0615 25.20475 1.9980469 25 1.9980469 z M 25 8C25 8 27 10.507 27 11.75C27 12.993 26.105 14 25 14C23.895 14 23 12.993 23 11.75C23 10.507 25 8 25 8 z M 9 14C6.2504839 14 4 16.250484 4 19L4 22L3 22C1.346 22 0 23.346 0 25L0 40C0 41.654 1.346 43 3 43L47 43C48.654 43 50 41.654 50 40L50 25C50 23.346 48.654 22 47 22L46 22L46 19C46 16.250484 43.749516 14 41 14L39 14 A 1.0001 1.0001 0 1 0 39 16L41 16C42.668484 16 44 17.331516 44 19L44 22L38 22L38 21.101562C38 19.462264 36.654388 18.110493 35.015625 18.101562L15.015625 18.009766L15.013672 18.009766C13.363414 18.001909 12 19.359784 12 21.009766L12 22L6 22L6 19C6 17.331516 7.3315161 16 9 16L11 16 A 1.0001 1.0001 0 1 0 11 14L9 14 z M 15.003906 20.009766L15.005859 20.009766L35.003906 20.101562C35.567143 20.104662 36 20.538862 36 21.101562L36 22L14 22L14 21.009766C14 20.442395 14.437037 20.006699 15.003906 20.009766 z M 44.5 26C45.328 26 46 26.672 46 27.5C46 28.328 45.328 29 44.5 29C43.672 29 43 28.328 43 27.5C43 26.672 43.672 26 44.5 26 z M 25 27C27.9724 27 30.433112 29.163334 30.910156 32L19.089844 32C19.566888 29.163334 22.0276 27 25 27 z M 19.089844 34L30.910156 34C30.433112 36.836666 27.9724 39 25 39C22.0276 39 19.566888 36.836666 19.089844 34 z M 4 45L4 47C4 47.552 4.448 48 5 48L8 48C8.552 48 9 47.552 9 47L9 45L4 45 z M 41 45L41 47C41 47.552 41.448 48 42 48L45 48C45.552 48 46 47.552 46 47L46 45L41 45 z"/></svg>