<svg xmlns="http://www.w3.org/2000/svg" xmlns:xlink="http://www.w3.org/1999/xlink" viewBox="0 0 50 50"><path d="M25 4C21.988707 4 19.168112 5.742686 18.759766 6L17 6 A 1.0001 1.0001 0 0 0 15.986328 7L6 7C4.346 7 3 8.346 3 10L3 42C3 43.654 4.346 45 6 45L6 46L10 46L10 45L40 45L40 46L44 46L44 45C45.654 45 47 43.654 47 42L47 10C47 8.346 45.654 7 44 7L34.013672 7 A 1.0001 1.0001 0 0 0 33 6L31.240234 6C30.831888 5.742686 28.011293 4 25 4 z M 25 6C26.198811 6 27.633522 6.5117145 28.746094 7L21.253906 7C22.366478 6.5117145 23.801189 6 25 6 z M 6 9L44 9C44.552 9 45 9.449 45 10L45 16L5 16L5 10C5 9.449 5.449 9 6 9 z M 8.5 11 A 1.5 1.5 0 0 0 7 12.5 A 1.5 1.5 0 0 0 8.5 14 A 1.5 1.5 0 0 0 10 12.5 A 1.5 1.5 0 0 0 8.5 11 z M 12 11L12 14L14 14L14 11L12 11 z M 16 11L16 14L18 14L18 11L16 11 z M 20 11L20 14L22 14L22 11L20 11 z M 26.5 11 A 1.5 1.5 0 0 0 25 12.5 A 1.5 1.5 0 0 0 26.5 14 A 1.5 1.5 0 0 0 28 12.5 A 1.5 1.5 0 0 0 26.5 11 z M 31.5 11 A 1.5 1.5 0 0 0 30 12.5 A 1.5 1.5 0 0 0 31.5 14 A 1.5 1.5 0 0 0 33 12.5 A 1.5 1.5 0 0 0 31.5 11 z M 36.5 11 A 1.5 1.5 0 0 0 35 12.5 A 1.5 1.5 0 0 0 36.5 14 A 1.5 1.5 0 0 0 38 12.5 A 1.5 1.5 0 0 0 36.5 11 z M 41.5 11 A 1.5 1.5 0 0 0 40 12.5 A 1.5 1.5 0 0 0 41.5 14 A 1.5 1.5 0 0 0 43 12.5 A 1.5 1.5 0 0 0 41.5 11 z M 10 19C10.552 19 11 19.448 11 20C11 20.552 10.552 21 10 21C9.448 21 9 20.552 9 20C9 19.448 9.448 19 10 19 z M 16 19C16.552 19 17 19.448 17 20C17 20.552 16.552 21 16 21C15.448 21 15 20.552 15 20C15 19.448 15.448 19 16 19 z M 22 19C22.552 19 23 19.448 23 20C23 20.552 22.552 21 22 21C21.448 21 21 20.552 21 20C21 19.448 21.448 19 22 19 z M 28 19C28.552 19 29 19.448 29 20C29 20.552 28.552 21 28 21C27.448 21 27 20.552 27 20C27 19.448 27.448 19 28 19 z M 34 19C34.552 19 35 19.448 35 20C35 20.552 34.552 21 34 21C33.448 21 33 20.552 33 20C33 19.448 33.448 19 34 19 z M 40 19C40.552 19 41 19.448 41 20C41 20.552 40.552 21 40 21C39.448 21 39 20.552 39 20C39 19.448 39.448 19 40 19 z M 7 22C7.552 22 8 22.448 8 23C8 23.552 7.552 24 7 24C6.448 24 6 23.552 6 23C6 22.448 6.448 22 7 22 z M 13 22C13.552 22 14 22.448 14 23C14 23.552 13.552 24 13 24C12.448 24 12 23.552 12 23C12 22.448 12.448 22 13 22 z M 19 22C19.552 22 20 22.448 20 23C20 23.552 19.552 24 19 24C18.448 24 18 23.552 18 23C18 22.448 18.448 22 19 22 z M 25 22C25.552 22 26 22.448 26 23C26 23.552 25.552 24 25 24C24.448 24 24 23.552 24 23C24 22.448 24.448 22 25 22 z M 31 22C31.552 22 32 22.448 32 23C32 23.552 31.552 24 31 24C30.448 24 30 23.552 30 23C30 22.448 30.448 22 31 22 z M 37 22C37.552 22 38 22.448 38 23C38 23.552 37.552 24 37 24C36.448 24 36 23.552 36 23C36 22.448 36.448 22 37 22 z M 43 22C43.552 22 44 22.448 44 23C44 23.552 43.552 24 43 24C42.448 24 42 23.552 42 23C42 22.448 42.448 22 43 22 z M 10 25C10.552 25 11 25.448 11 26C11 26.552 10.552 27 10 27C9.448 27 9 26.552 9 26C9 25.448 9.448 25 10 25 z M 16 25C16.552 25 17 25.448 17 26C17 26.552 16.552 27 16 27C15.448 27 15 26.552 15 26C15 25.448 15.448 25 16 25 z M 22 25C22.552 25 23 25.448 23 26C23 26.552 22.552 27 22 27C21.448 27 21 26.552 21 26C21 25.448 21.448 25 22 25 z M 28 25C28.552 25 29 25.448 29 26C29 26.552 28.552 27 28 27C27.448 27 27 26.552 27 26C27 25.448 27.448 25 28 25 z M 34 25C34.552 25 35 25.448 35 26C35 26.552 34.552 27 34 27C33.448 27 33 26.552 33 26C33 25.448 33.448 25 34 25 z M 40 25C40.552 25 41 25.448 41 26C41 26.552 40.552 27 40 27C39.448 27 39 26.552 39 26C39 25.448 39.448 25 40 25 z M 7 28C7.552 28 8 28.448 8 29C8 29.552 7.552 30 7 30C6.448 30 6 29.552 6 29C6 28.448 6.448 28 7 28 z M 13 28C13.552 28 14 28.448 14 29C14 29.552 13.552 30 13 30C12.448 30 12 29.552 12 29C12 28.448 12.448 28 13 28 z M 19 28C19.552 28 20 28.448 20 29C20 29.552 19.552 30 19 30C18.448 30 18 29.552 18 29C18 28.448 18.448 28 19 28 z M 25 28C25.552 28 26 28.448 26 29C26 29.552 25.552 30 25 30C24.448 30 24 29.552 24 29C24 28.448 24.448 28 25 28 z M 31 28C31.552 28 32 28.448 32 29C32 29.552 31.552 30 31 30C30.448 30 30 29.552 30 29C30 28.448 30.448 28 31 28 z M 37 28C37.552 28 38 28.448 38 29C38 29.552 37.552 30 37 30C36.448 30 36 29.552 36 29C36 28.448 36.448 28 37 28 z M 43 28C43.552 28 44 28.448 44 29C44 29.552 43.552 30 43 30C42.448 30 42 29.552 42 29C42 28.448 42.448 28 43 28 z M 10 31C10.552 31 11 31.448 11 32C11 32.552 10.552 33 10 33C9.448 33 9 32.552 9 32C9 31.448 9.448 31 10 31 z M 16 31C16.552 31 17 31.448 17 32C17 32.552 16.552 33 16 33C15.448 33 15 32.552 15 32C15 31.448 15.448 31 16 31 z M 22 31C22.552 31 23 31.448 23 32C23 32.552 22.552 33 22 33C21.448 33 21 32.552 21 32C21 31.448 21.448 31 22 31 z M 28 31C28.552 31 29 31.448 29 32C29 32.552 28.552 33 28 33C27.448 33 27 32.552 27 32C27 31.448 27.448 31 28 31 z M 34 31C34.552 31 35 31.448 35 32C35 32.552 34.552 33 34 33C33.448 33 33 32.552 33 32C33 31.448 33.448 31 34 31 z M 40 31C40.552 31 41 31.448 41 32C41 32.552 40.552 33 40 33C39.448 33 39 32.552 39 32C39 31.448 39.448 31 40 31 z M 7 34C7.552 34 8 34.448 8 35C8 35.552 7.552 36 7 36C6.448 36 6 35.552 6 35C6 34.448 6.448 34 7 34 z M 13 34C13.552 34 14 34.448 14 35C14 35.552 13.552 36 13 36C12.448 36 12 35.552 12 35C12 34.448 12.448 34 13 34 z M 19 34C19.552 34 20 34.448 20 35C20 35.552 19.552 36 19 36C18.448 36 18 35.552 18 35C18 34.448 18.448 34 19 34 z M 25 34C25.552 34 26 34.448 26 35C26 35.552 25.552 36 25 36C24.448 36 24 35.552 24 35C24 34.448 24.448 34 25 34 z M 31 34C31.552 34 32 34.448 32 35C32 35.552 31.552 36 31 36C30.448 36 30 35.552 30 35C30 34.448 30.448 34 31 34 z M 37 34C37.552 34 38 34.448 38 35C38 35.552 37.552 36 37 36C36.448 36 36 35.552 36 35C36 34.448 36.448 34 37 34 z M 43 34C43.552 34 44 34.448 44 35C44 35.552 43.552 36 43 36C42.448 36 42 35.552 42 35C42 34.448 42.448 34 43 34 z M 10 37C10.552 37 11 37.448 11 38C11 38.552 10.552 39 10 39C9.448 39 9 38.552 9 38C9 37.448 9.448 37 10 37 z M 16 37C16.552 37 17 37.448 17 38C17 38.552 16.552 39 16 39C15.448 39 15 38.552 15 38C15 37.448 15.448 37 16 37 z M 22 37C22.552 37 23 37.448 23 38C23 38.552 22.552 39 22 39C21.448 39 21 38.552 21 38C21 37.448 21.448 37 22 37 z M 28 37C28.552 37 29 37.448 29 38C29 38.552 28.552 39 28 39C27.448 39 27 38.552 27 38C27 37.448 27.448 37 28 37 z M 34 37C34.552 37 35 37.448 35 38C35 38.552 34.552 39 34 39C33.448 39 33 38.552 33 38C33 37.448 33.448 37 34 37 z M 40 37C40.552 37 41 37.448 41 38C41 38.552 40.552 39 40 39C39.448 39 39 38.552 39 38C39 37.448 39.448 37 40 37 z M 7 40C7.552 40 8 40.448 8 41C8 41.552 7.552 42 7 42C6.448 42 6 41.552 6 41C6 40.448 6.448 40 7 40 z M 13 40C13.552 40 14 40.448 14 41C14 41.552 13.552 42 13 42C12.448 42 12 41.552 12 41C12 40.448 12.448 40 13 40 z M 19 40C19.552 40 20 40.448 20 41C20 41.552 19.552 42 19 42C18.448 42 18 41.552 18 41C18 40.448 18.448 40 19 40 z M 25 40C25.552 40 26 40.448 26 41C26 41.552 25.552 42 25 42C24.448 42 24 41.552 24 41C24 40.448 24.448 40 25 40 z M 31 40C31.552 40 32 40.448 32 41C32 41.552 31.552 42 31 42C30.448 42 30 41.552 30 41C30 40.448 30.448 40 31 40 z M 37 40C37.552 40 38 40.448 38 41C38 41.552 37.552 42 37 42C36.448 42 36 41.552 36 41C36 40.448 36.448 40 37 40 z M 43 40C43.552 40 44 40.448 44 41C44 41.552 43.552 42 43 42C42.448 42 42 41.552 42 41C42 40.448 42.448 40 43 40 z"/></svg>