<svg xmlns="http://www.w3.org/2000/svg" xmlns:xlink="http://www.w3.org/1999/xlink" viewBox="0 0 50 50"><path d="M25 4C21.988707 4 19.168112 5.742686 18.759766 6L17 6 A 1.0001 1.0001 0 0 0 15.986328 7L6 7C4.3550302 7 3 8.3550302 3 10L3 16.832031 A 1.0001 1.0001 0 0 0 3 17.158203L3 42C3 43.64497 4.3550302 45 6 45L6 46L10 46L10 45L40 45L40 46L44 46L44 45C45.64497 45 47 43.64497 47 42L47 17.167969 A 1.0001 1.0001 0 0 0 47 16.841797L47 10C47 8.3550302 45.64497 7 44 7L34.013672 7 A 1.0001 1.0001 0 0 0 33 6L31.240234 6C30.831888 5.742686 28.011293 4 25 4 z M 25 6C26.198811 6 27.633522 6.5117145 28.746094 7L21.253906 7C22.366478 6.5117145 23.801189 6 25 6 z M 6 9L44 9C44.56503 9 45 9.4349698 45 10L45 16L5 16L5 10C5 9.4349698 5.4349698 9 6 9 z M 8.5 11 A 1.5 1.5 0 0 0 7 12.5 A 1.5 1.5 0 0 0 8.5 14 A 1.5 1.5 0 0 0 10 12.5 A 1.5 1.5 0 0 0 8.5 11 z M 12 11L12 14L14 14L14 11L12 11 z M 16 11L16 14L18 14L18 11L16 11 z M 20 11L20 14L22 14L22 11L20 11 z M 26.5 11 A 1.5 1.5 0 0 0 25 12.5 A 1.5 1.5 0 0 0 26.5 14 A 1.5 1.5 0 0 0 28 12.5 A 1.5 1.5 0 0 0 26.5 11 z M 31.5 11 A 1.5 1.5 0 0 0 30 12.5 A 1.5 1.5 0 0 0 31.5 14 A 1.5 1.5 0 0 0 33 12.5 A 1.5 1.5 0 0 0 31.5 11 z M 36.5 11 A 1.5 1.5 0 0 0 35 12.5 A 1.5 1.5 0 0 0 36.5 14 A 1.5 1.5 0 0 0 38 12.5 A 1.5 1.5 0 0 0 36.5 11 z M 41.5 11 A 1.5 1.5 0 0 0 40 12.5 A 1.5 1.5 0 0 0 41.5 14 A 1.5 1.5 0 0 0 43 12.5 A 1.5 1.5 0 0 0 41.5 11 z M 5 18L45 18L45 42C45 42.56503 44.56503 43 44 43L6 43C5.4349698 43 5 42.56503 5 42L5 18 z M 10 19 A 1 1 0 0 0 9 20 A 1 1 0 0 0 10 21 A 1 1 0 0 0 11 20 A 1 1 0 0 0 10 19 z M 16 19 A 1 1 0 0 0 15 20 A 1 1 0 0 0 16 21 A 1 1 0 0 0 17 20 A 1 1 0 0 0 16 19 z M 22 19 A 1 1 0 0 0 21 20 A 1 1 0 0 0 22 21 A 1 1 0 0 0 23 20 A 1 1 0 0 0 22 19 z M 28 19 A 1 1 0 0 0 27 20 A 1 1 0 0 0 28 21 A 1 1 0 0 0 29 20 A 1 1 0 0 0 28 19 z M 34 19 A 1 1 0 0 0 33 20 A 1 1 0 0 0 34 21 A 1 1 0 0 0 35 20 A 1 1 0 0 0 34 19 z M 40 19 A 1 1 0 0 0 39 20 A 1 1 0 0 0 40 21 A 1 1 0 0 0 41 20 A 1 1 0 0 0 40 19 z M 7 22 A 1 1 0 0 0 6 23 A 1 1 0 0 0 7 24 A 1 1 0 0 0 8 23 A 1 1 0 0 0 7 22 z M 13 22 A 1 1 0 0 0 12 23 A 1 1 0 0 0 13 24 A 1 1 0 0 0 14 23 A 1 1 0 0 0 13 22 z M 19 22 A 1 1 0 0 0 18 23 A 1 1 0 0 0 19 24 A 1 1 0 0 0 20 23 A 1 1 0 0 0 19 22 z M 25 22 A 1 1 0 0 0 24 23 A 1 1 0 0 0 25 24 A 1 1 0 0 0 26 23 A 1 1 0 0 0 25 22 z M 31 22 A 1 1 0 0 0 30 23 A 1 1 0 0 0 31 24 A 1 1 0 0 0 32 23 A 1 1 0 0 0 31 22 z M 37 22 A 1 1 0 0 0 36 23 A 1 1 0 0 0 37 24 A 1 1 0 0 0 38 23 A 1 1 0 0 0 37 22 z M 43 22 A 1 1 0 0 0 42 23 A 1 1 0 0 0 43 24 A 1 1 0 0 0 44 23 A 1 1 0 0 0 43 22 z M 10 25 A 1 1 0 0 0 9 26 A 1 1 0 0 0 10 27 A 1 1 0 0 0 11 26 A 1 1 0 0 0 10 25 z M 16 25 A 1 1 0 0 0 15 26 A 1 1 0 0 0 16 27 A 1 1 0 0 0 17 26 A 1 1 0 0 0 16 25 z M 22 25 A 1 1 0 0 0 21 26 A 1 1 0 0 0 22 27 A 1 1 0 0 0 23 26 A 1 1 0 0 0 22 25 z M 28 25 A 1 1 0 0 0 27 26 A 1 1 0 0 0 28 27 A 1 1 0 0 0 29 26 A 1 1 0 0 0 28 25 z M 34 25 A 1 1 0 0 0 33 26 A 1 1 0 0 0 34 27 A 1 1 0 0 0 35 26 A 1 1 0 0 0 34 25 z M 40 25 A 1 1 0 0 0 39 26 A 1 1 0 0 0 40 27 A 1 1 0 0 0 41 26 A 1 1 0 0 0 40 25 z M 7 28 A 1 1 0 0 0 6 29 A 1 1 0 0 0 7 30 A 1 1 0 0 0 8 29 A 1 1 0 0 0 7 28 z M 13 28 A 1 1 0 0 0 12 29 A 1 1 0 0 0 13 30 A 1 1 0 0 0 14 29 A 1 1 0 0 0 13 28 z M 19 28 A 1 1 0 0 0 18 29 A 1 1 0 0 0 19 30 A 1 1 0 0 0 20 29 A 1 1 0 0 0 19 28 z M 25 28 A 1 1 0 0 0 24 29 A 1 1 0 0 0 25 30 A 1 1 0 0 0 26 29 A 1 1 0 0 0 25 28 z M 31 28 A 1 1 0 0 0 30 29 A 1 1 0 0 0 31 30 A 1 1 0 0 0 32 29 A 1 1 0 0 0 31 28 z M 37 28 A 1 1 0 0 0 36 29 A 1 1 0 0 0 37 30 A 1 1 0 0 0 38 29 A 1 1 0 0 0 37 28 z M 43 28 A 1 1 0 0 0 42 29 A 1 1 0 0 0 43 30 A 1 1 0 0 0 44 29 A 1 1 0 0 0 43 28 z M 10 31 A 1 1 0 0 0 9 32 A 1 1 0 0 0 10 33 A 1 1 0 0 0 11 32 A 1 1 0 0 0 10 31 z M 16 31 A 1 1 0 0 0 15 32 A 1 1 0 0 0 16 33 A 1 1 0 0 0 17 32 A 1 1 0 0 0 16 31 z M 22 31 A 1 1 0 0 0 21 32 A 1 1 0 0 0 22 33 A 1 1 0 0 0 23 32 A 1 1 0 0 0 22 31 z M 28 31 A 1 1 0 0 0 27 32 A 1 1 0 0 0 28 33 A 1 1 0 0 0 29 32 A 1 1 0 0 0 28 31 z M 34 31 A 1 1 0 0 0 33 32 A 1 1 0 0 0 34 33 A 1 1 0 0 0 35 32 A 1 1 0 0 0 34 31 z M 40 31 A 1 1 0 0 0 39 32 A 1 1 0 0 0 40 33 A 1 1 0 0 0 41 32 A 1 1 0 0 0 40 31 z M 7 34 A 1 1 0 0 0 6 35 A 1 1 0 0 0 7 36 A 1 1 0 0 0 8 35 A 1 1 0 0 0 7 34 z M 13 34 A 1 1 0 0 0 12 35 A 1 1 0 0 0 13 36 A 1 1 0 0 0 14 35 A 1 1 0 0 0 13 34 z M 19 34 A 1 1 0 0 0 18 35 A 1 1 0 0 0 19 36 A 1 1 0 0 0 20 35 A 1 1 0 0 0 19 34 z M 25 34 A 1 1 0 0 0 24 35 A 1 1 0 0 0 25 36 A 1 1 0 0 0 26 35 A 1 1 0 0 0 25 34 z M 31 34 A 1 1 0 0 0 30 35 A 1 1 0 0 0 31 36 A 1 1 0 0 0 32 35 A 1 1 0 0 0 31 34 z M 37 34 A 1 1 0 0 0 36 35 A 1 1 0 0 0 37 36 A 1 1 0 0 0 38 35 A 1 1 0 0 0 37 34 z M 43 34 A 1 1 0 0 0 42 35 A 1 1 0 0 0 43 36 A 1 1 0 0 0 44 35 A 1 1 0 0 0 43 34 z M 10 37 A 1 1 0 0 0 9 38 A 1 1 0 0 0 10 39 A 1 1 0 0 0 11 38 A 1 1 0 0 0 10 37 z M 16 37 A 1 1 0 0 0 15 38 A 1 1 0 0 0 16 39 A 1 1 0 0 0 17 38 A 1 1 0 0 0 16 37 z M 22 37 A 1 1 0 0 0 21 38 A 1 1 0 0 0 22 39 A 1 1 0 0 0 23 38 A 1 1 0 0 0 22 37 z M 28 37 A 1 1 0 0 0 27 38 A 1 1 0 0 0 28 39 A 1 1 0 0 0 29 38 A 1 1 0 0 0 28 37 z M 34 37 A 1 1 0 0 0 33 38 A 1 1 0 0 0 34 39 A 1 1 0 0 0 35 38 A 1 1 0 0 0 34 37 z M 40 37 A 1 1 0 0 0 39 38 A 1 1 0 0 0 40 39 A 1 1 0 0 0 41 38 A 1 1 0 0 0 40 37 z M 7 40 A 1 1 0 0 0 6 41 A 1 1 0 0 0 7 42 A 1 1 0 0 0 8 41 A 1 1 0 0 0 7 40 z M 13 40 A 1 1 0 0 0 12 41 A 1 1 0 0 0 13 42 A 1 1 0 0 0 14 41 A 1 1 0 0 0 13 40 z M 19 40 A 1 1 0 0 0 18 41 A 1 1 0 0 0 19 42 A 1 1 0 0 0 20 41 A 1 1 0 0 0 19 40 z M 25 40 A 1 1 0 0 0 24 41 A 1 1 0 0 0 25 42 A 1 1 0 0 0 26 41 A 1 1 0 0 0 25 40 z M 31 40 A 1 1 0 0 0 30 41 A 1 1 0 0 0 31 42 A 1 1 0 0 0 32 41 A 1 1 0 0 0 31 40 z M 37 40 A 1 1 0 0 0 36 41 A 1 1 0 0 0 37 42 A 1 1 0 0 0 38 41 A 1 1 0 0 0 37 40 z M 43 40 A 1 1 0 0 0 42 41 A 1 1 0 0 0 43 42 A 1 1 0 0 0 44 41 A 1 1 0 0 0 43 40 z"/></svg>