<svg xmlns="http://www.w3.org/2000/svg" xmlns:xlink="http://www.w3.org/1999/xlink" viewBox="0 0 30 30"><path d="M15 2C11.61093 2 9.6052949 4.5851816 9.3027344 5L6 5C4.895 5 4 5.895 4 7L4 24C4 25.105 4.895 26 6 26L7 26 A 1 1 0 0 0 8 27 A 1 1 0 0 0 9 26L21 26 A 1 1 0 0 0 22 27 A 1 1 0 0 0 23 26L24 26C25.105 26 26 25.105 26 24L26 7C26 5.895 25.105 5 24 5L20.693359 5C20.434314 4.6590927 18.32067 2 15 2 z M 15 4C16.034749 4 16.979964 4.4785227 17.71875 5L12.193359 5C12.91133 4.4803556 13.865611 4 15 4 z M 6.5 7L23.5 7C23.776 7 24 7.224 24 7.5L24 10.5C24 10.776 23.776 11 23.5 11L6.5 11C6.224 11 6 10.776 6 10.5L6 7.5C6 7.224 6.224 7 6.5 7 z M 9 8 A 1 1 0 0 0 8 9 A 1 1 0 0 0 9 10 A 1 1 0 0 0 10 9 A 1 1 0 0 0 9 8 z M 13 8 A 1 1 0 0 0 12 9 A 1 1 0 0 0 13 10 A 1 1 0 0 0 14 9 A 1 1 0 0 0 13 8 z M 17 8 A 1 1 0 0 0 16 9 A 1 1 0 0 0 17 10 A 1 1 0 0 0 18 9 A 1 1 0 0 0 17 8 z M 21 8 A 1 1 0 0 0 20 9 A 1 1 0 0 0 21 10 A 1 1 0 0 0 22 9 A 1 1 0 0 0 21 8 z M 7.5 13C7.776 13 8 13.224 8 13.5C8 13.776 7.776 14 7.5 14C7.224 14 7 13.776 7 13.5C7 13.224 7.224 13 7.5 13 z M 9.5 13C9.776 13 10 13.224 10 13.5C10 13.776 9.776 14 9.5 14C9.224 14 9 13.776 9 13.5C9 13.224 9.224 13 9.5 13 z M 11.5 13C11.776 13 12 13.224 12 13.5C12 13.776 11.776 14 11.5 14C11.224 14 11 13.776 11 13.5C11 13.224 11.224 13 11.5 13 z M 13.5 13C13.776 13 14 13.224 14 13.5C14 13.776 13.776 14 13.5 14C13.224 14 13 13.776 13 13.5C13 13.224 13.224 13 13.5 13 z M 15.5 13C15.776 13 16 13.224 16 13.5C16 13.776 15.776 14 15.5 14C15.224 14 15 13.776 15 13.5C15 13.224 15.224 13 15.5 13 z M 17.5 13C17.776 13 18 13.224 18 13.5C18 13.776 17.776 14 17.5 14C17.224 14 17 13.776 17 13.5C17 13.224 17.224 13 17.5 13 z M 19.5 13C19.776 13 20 13.224 20 13.5C20 13.776 19.776 14 19.5 14C19.224 14 19 13.776 19 13.5C19 13.224 19.224 13 19.5 13 z M 21.5 13C21.776 13 22 13.224 22 13.5C22 13.776 21.776 14 21.5 14C21.224 14 21 13.776 21 13.5C21 13.224 21.224 13 21.5 13 z M 23.5 13C23.776 13 24 13.224 24 13.5C24 13.776 23.776 14 23.5 14C23.224 14 23 13.776 23 13.5C23 13.224 23.224 13 23.5 13 z M 6.5 15C6.776 15 7 15.224 7 15.5C7 15.776 6.776 16 6.5 16C6.224 16 6 15.776 6 15.5C6 15.224 6.224 15 6.5 15 z M 8.5 15C8.776 15 9 15.224 9 15.5C9 15.776 8.776 16 8.5 16C8.224 16 8 15.776 8 15.5C8 15.224 8.224 15 8.5 15 z M 10.5 15C10.776 15 11 15.224 11 15.5C11 15.776 10.776 16 10.5 16C10.224 16 10 15.776 10 15.5C10 15.224 10.224 15 10.5 15 z M 12.5 15C12.776 15 13 15.224 13 15.5C13 15.776 12.776 16 12.5 16C12.224 16 12 15.776 12 15.5C12 15.224 12.224 15 12.5 15 z M 14.5 15C14.776 15 15 15.224 15 15.5C15 15.776 14.776 16 14.5 16C14.224 16 14 15.776 14 15.5C14 15.224 14.224 15 14.5 15 z M 16.5 15C16.776 15 17 15.224 17 15.5C17 15.776 16.776 16 16.5 16C16.224 16 16 15.776 16 15.5C16 15.224 16.224 15 16.5 15 z M 18.5 15C18.776 15 19 15.224 19 15.5C19 15.776 18.776 16 18.5 16C18.224 16 18 15.776 18 15.5C18 15.224 18.224 15 18.5 15 z M 20.5 15C20.776 15 21 15.224 21 15.5C21 15.776 20.776 16 20.5 16C20.224 16 20 15.776 20 15.5C20 15.224 20.224 15 20.5 15 z M 22.5 15C22.776 15 23 15.224 23 15.5C23 15.776 22.776 16 22.5 16C22.224 16 22 15.776 22 15.5C22 15.224 22.224 15 22.5 15 z M 7.5 17C7.776 17 8 17.224 8 17.5C8 17.776 7.776 18 7.5 18C7.224 18 7 17.776 7 17.5C7 17.224 7.224 17 7.5 17 z M 9.5 17C9.776 17 10 17.224 10 17.5C10 17.776 9.776 18 9.5 18C9.224 18 9 17.776 9 17.5C9 17.224 9.224 17 9.5 17 z M 11.5 17C11.776 17 12 17.224 12 17.5C12 17.776 11.776 18 11.5 18C11.224 18 11 17.776 11 17.5C11 17.224 11.224 17 11.5 17 z M 13.5 17C13.776 17 14 17.224 14 17.5C14 17.776 13.776 18 13.5 18C13.224 18 13 17.776 13 17.5C13 17.224 13.224 17 13.5 17 z M 15.5 17C15.776 17 16 17.224 16 17.5C16 17.776 15.776 18 15.5 18C15.224 18 15 17.776 15 17.5C15 17.224 15.224 17 15.5 17 z M 17.5 17C17.776 17 18 17.224 18 17.5C18 17.776 17.776 18 17.5 18C17.224 18 17 17.776 17 17.5C17 17.224 17.224 17 17.5 17 z M 19.5 17C19.776 17 20 17.224 20 17.5C20 17.776 19.776 18 19.5 18C19.224 18 19 17.776 19 17.5C19 17.224 19.224 17 19.5 17 z M 21.5 17C21.776 17 22 17.224 22 17.5C22 17.776 21.776 18 21.5 18C21.224 18 21 17.776 21 17.5C21 17.224 21.224 17 21.5 17 z M 23.5 17C23.776 17 24 17.224 24 17.5C24 17.776 23.776 18 23.5 18C23.224 18 23 17.776 23 17.5C23 17.224 23.224 17 23.5 17 z M 6.5 19C6.776 19 7 19.224 7 19.5C7 19.776 6.776 20 6.5 20C6.224 20 6 19.776 6 19.5C6 19.224 6.224 19 6.5 19 z M 8.5 19C8.776 19 9 19.224 9 19.5C9 19.776 8.776 20 8.5 20C8.224 20 8 19.776 8 19.5C8 19.224 8.224 19 8.5 19 z M 10.5 19C10.776 19 11 19.224 11 19.5C11 19.776 10.776 20 10.5 20C10.224 20 10 19.776 10 19.5C10 19.224 10.224 19 10.5 19 z M 12.5 19C12.776 19 13 19.224 13 19.5C13 19.776 12.776 20 12.5 20C12.224 20 12 19.776 12 19.5C12 19.224 12.224 19 12.5 19 z M 14.5 19C14.776 19 15 19.224 15 19.5C15 19.776 14.776 20 14.5 20C14.224 20 14 19.776 14 19.5C14 19.224 14.224 19 14.5 19 z M 16.5 19C16.776 19 17 19.224 17 19.5C17 19.776 16.776 20 16.5 20C16.224 20 16 19.776 16 19.5C16 19.224 16.224 19 16.5 19 z M 18.5 19C18.776 19 19 19.224 19 19.5C19 19.776 18.776 20 18.5 20C18.224 20 18 19.776 18 19.5C18 19.224 18.224 19 18.5 19 z M 20.5 19C20.776 19 21 19.224 21 19.5C21 19.776 20.776 20 20.5 20C20.224 20 20 19.776 20 19.5C20 19.224 20.224 19 20.5 19 z M 22.5 19C22.776 19 23 19.224 23 19.5C23 19.776 22.776 20 22.5 20C22.224 20 22 19.776 22 19.5C22 19.224 22.224 19 22.5 19 z M 7.5 21C7.776 21 8 21.224 8 21.5C8 21.776 7.776 22 7.5 22C7.224 22 7 21.776 7 21.5C7 21.224 7.224 21 7.5 21 z M 9.5 21C9.776 21 10 21.224 10 21.5C10 21.776 9.776 22 9.5 22C9.224 22 9 21.776 9 21.5C9 21.224 9.224 21 9.5 21 z M 11.5 21C11.776 21 12 21.224 12 21.5C12 21.776 11.776 22 11.5 22C11.224 22 11 21.776 11 21.5C11 21.224 11.224 21 11.5 21 z M 13.5 21C13.776 21 14 21.224 14 21.5C14 21.776 13.776 22 13.5 22C13.224 22 13 21.776 13 21.5C13 21.224 13.224 21 13.5 21 z M 15.5 21C15.776 21 16 21.224 16 21.5C16 21.776 15.776 22 15.5 22C15.224 22 15 21.776 15 21.5C15 21.224 15.224 21 15.5 21 z M 17.5 21C17.776 21 18 21.224 18 21.5C18 21.776 17.776 22 17.5 22C17.224 22 17 21.776 17 21.5C17 21.224 17.224 21 17.5 21 z M 19.5 21C19.776 21 20 21.224 20 21.5C20 21.776 19.776 22 19.5 22C19.224 22 19 21.776 19 21.5C19 21.224 19.224 21 19.5 21 z M 21.5 21C21.776 21 22 21.224 22 21.5C22 21.776 21.776 22 21.5 22C21.224 22 21 21.776 21 21.5C21 21.224 21.224 21 21.5 21 z M 23.5 21C23.776 21 24 21.224 24 21.5C24 21.776 23.776 22 23.5 22C23.224 22 23 21.776 23 21.5C23 21.224 23.224 21 23.5 21 z M 6.5 23C6.776 23 7 23.224 7 23.5C7 23.776 6.776 24 6.5 24C6.224 24 6 23.776 6 23.5C6 23.224 6.224 23 6.5 23 z M 8.5 23C8.776 23 9 23.224 9 23.5C9 23.776 8.776 24 8.5 24C8.224 24 8 23.776 8 23.5C8 23.224 8.224 23 8.5 23 z M 10.5 23C10.776 23 11 23.224 11 23.5C11 23.776 10.776 24 10.5 24C10.224 24 10 23.776 10 23.5C10 23.224 10.224 23 10.5 23 z M 12.5 23C12.776 23 13 23.224 13 23.5C13 23.776 12.776 24 12.5 24C12.224 24 12 23.776 12 23.5C12 23.224 12.224 23 12.5 23 z M 14.5 23C14.776 23 15 23.224 15 23.5C15 23.776 14.776 24 14.5 24C14.224 24 14 23.776 14 23.5C14 23.224 14.224 23 14.5 23 z M 16.5 23C16.776 23 17 23.224 17 23.5C17 23.776 16.776 24 16.5 24C16.224 24 16 23.776 16 23.5C16 23.224 16.224 23 16.5 23 z M 18.5 23C18.776 23 19 23.224 19 23.5C19 23.776 18.776 24 18.5 24C18.224 24 18 23.776 18 23.5C18 23.224 18.224 23 18.5 23 z M 20.5 23C20.776 23 21 23.224 21 23.5C21 23.776 20.776 24 20.5 24C20.224 24 20 23.776 20 23.5C20 23.224 20.224 23 20.5 23 z M 22.5 23C22.776 23 23 23.224 23 23.5C23 23.776 22.776 24 22.5 24C22.224 24 22 23.776 22 23.5C22 23.224 22.224 23 22.5 23 z"/></svg>