<svg xmlns="http://www.w3.org/2000/svg" xmlns:xlink="http://www.w3.org/1999/xlink" viewBox="0 0 48 48"><path d="M15.904297 6C9.8973103 6 5 10.95654 5 17C5 21.667389 7.9261495 25.675393 12.023438 27.263672C12.268333 34.568311 15.861763 42.966913 15.949219 43.169922C16.248975 44.232486 17.217963 45 18.349609 45 A 1.50015 1.50015 0 0 0 18.822266 44.923828L24.912109 42.904297L24.742188 42.949219C26.260782 42.635858 27.166479 40.924563 26.53125 39.494141C26.530502 39.492441 26.530097 39.488028 26.529297 39.486328C25.844735 37.9358 24.757861 35.309379 23.951172 32.644531C23.287646 30.452617 22.874418 28.204783 22.898438 26.693359C24.152791 26.326307 25.403981 25.937997 26.601562 25.560547L26.601562 25.558594C27.93001 25.139657 29.210203 24.737708 30.273438 24.447266C31.262416 24.177108 32.064881 24.035895 32.386719 24.015625 A 1.50015 1.50015 0 0 0 32.703125 24.005859C35.309932 24.041529 36.820657 24.727058 37.613281 25.238281L37.615234 25.238281C38.176824 25.599427 38.834433 25.796875 39.503906 25.796875C41.42139 25.796875 43 24.208563 43 22.292969L43 11.707031C43 9.7911718 41.420528 8.203125 39.503906 8.203125C38.834433 8.203125 38.176824 8.4005732 37.615234 8.7617188L37.613281 8.7617188C36.82009 9.2733378 35.307794 9.9594559 32.697266 9.9941406 A 1.50015 1.50015 0 0 0 32.476562 9.9785156 A 1.50015 1.50015 0 0 0 32.388672 9.984375C32.067683 9.9644638 31.261982 9.8232764 30.271484 9.5527344C29.208154 9.2622987 27.92941 8.8603582 26.601562 8.4414062L26.601562 8.4394531C23.076853 7.3285417 19.093343 6 15.904297 6 z M 15.904297 9C18.169251 9 22.173928 10.18969 25.699219 11.300781C27.027371 11.719829 28.330752 12.132701 29.482422 12.447266C30.030678 12.597015 30.526384 12.724596 31 12.822266L31 21.177734C30.526368 21.275405 30.030605 21.402988 29.482422 21.552734C28.330906 21.867292 27.027771 22.280202 25.699219 22.699219C22.173928 23.81031 18.169251 25 15.904297 25C15.23322 25 14.585191 24.907009 13.962891 24.748047C10.539297 23.873516 8 20.750769 8 17C8 12.56746 11.541283 9 15.904297 9 z M 39.503906 11.203125C39.789284 11.203125 40 11.412891 40 11.707031L40 22.292969C40 22.585375 39.788376 22.796875 39.503906 22.796875C39.413376 22.796875 39.326691 22.771694 39.238281 22.714844L39.238281 22.716797C38.169624 22.027458 36.449249 21.294278 34 21.072266L34 12.927734C36.449249 12.705724 38.169624 11.972462 39.238281 11.283203L39.238281 11.285156C39.326691 11.228306 39.41338 11.203125 39.503906 11.203125 z M 16 14 A 3 3 0 0 0 16 20 A 3 3 0 0 0 16 14 z M 19.878906 27.494141C19.951787 29.416653 20.465409 31.483151 21.080078 33.513672C21.882042 36.16291 22.874193 38.536438 23.589844 40.181641L18.652344 41.818359C18.493023 41.426313 15.518321 34.045283 15.072266 27.957031C15.347637 27.978268 15.623696 28 15.904297 28C17.134374 28 18.48435 27.80073 19.878906 27.494141 z"/></svg>