<svg xmlns="http://www.w3.org/2000/svg" xmlns:xlink="http://www.w3.org/1999/xlink" viewBox="0 0 48 48"><path d="M24.46 42.15c-.33.63-.9 1.09-1.58 1.27l-4.01 1.49C18.71 44.97 18.53 45 18.35 45c-1.16 0-2.15-.78-2.43-1.89-.45-1.09-3.32-8.27-3.83-14.7C13.29 28.8 14.57 29 15.9 29c1.57 0 3.3-.31 5.05-.75.4 3.52 2.18 8.58 3.58 11.74C24.84 40.69 24.81 41.47 24.46 42.15zM42 10.71v10.58c0 .92-.5 1.76-1.3 2.2s-1.78.4-2.54-.09c-2.13-1.37-3.86-1.99-5.16-2.24V10.84c1.3-.25 3.03-.87 5.16-2.24.76-.49 1.74-.52 2.54-.09C41.5 8.95 42 9.79 42 10.71zM25.86 9.03c1.42.6 2.96 1.26 4.14 1.65v10.65c-1.18.38-2.72 1.04-4.14 1.64C22.54 24.39 18.78 26 15.9 26 10.44 26 6 21.51 6 16s4.44-10 9.9-10C18.78 6 22.54 7.61 25.86 9.03zM16 13c-1.657 0-3 1.343-3 3s1.343 3 3 3 3-1.343 3-3S17.657 13 16 13z"/></svg>