<?xml version="1.0" encoding="utf-8"?><svg version="1.1" id="Layer_1" xmlns="http://www.w3.org/2000/svg" xmlns:xlink="http://www.w3.org/1999/xlink" x="0px" y="0px" viewBox="0 0 122.87 104.3" style="enable-background:new 0 0 122.87 104.3" xml:space="preserve"><g><path d="M25.36,12.48L87.6,4.75c0.96-0.12,1.84,0.51,2.07,1.43l5.58,21.83c0.25,0.97-0.3,1.95-1.24,2.26L43.9,51.94l3.72,35.49 c0.15,0.94-0.43,1.87-1.38,2.12l-6.06,1.63c-1.03,2.6,0.34,4.43,1.93,6.53c0.82,1.09,1.69,2.25,2.42,3.61 c0.52,0.98-0.02,2.2-1.2,2.74c-1.19,0.54-2.57,0.18-3.09-0.8c-0.61-1.15-1.39-2.18-2.13-3.16c-1.81-2.4-3.43-4.54-3.03-7.55 l-3.31,0.89c-0.42,0.11-0.94,0.3-1.38,0.27c-0.68-0.04-1.31-0.44-1.61-1.09l-17.21-37.3c-1.49-0.8-2.85-1.76-4.07-2.84 c-3.27-2.89-5.54-6.66-6.66-10.73c-1.13-4.07-1.11-8.45,0.16-12.56c2.34-7.5,8.86-14.07,20.33-16.13 C22.67,12.8,24,12.65,25.36,12.48L25.36,12.48z M40.27,53.51l-3.26,1.41l-0.02,0.01l0,0c-7.89,3.34-14.76,3.79-20.37,2.35 l14.91,32.31l5.86-1.57c0.32-0.15,0.67-0.25,1.03-0.27l5.29-1.42L40.27,53.51L40.27,53.51z M20.62,27.18 c4.84-1.3,9.81,1.57,11.11,6.41c1.3,4.84-1.57,9.81-6.41,11.11c-4.84,1.3-9.81-1.57-11.11-6.41 C12.91,33.45,15.78,28.48,20.62,27.18L20.62,27.18z M102.42,27.3c-0.66,0.49-1.59,0.23-2.08-0.58c-0.48-0.82-0.34-1.88,0.32-2.37 c4.52-3.37,8.49-2.88,11.98-2.45c3,0.37,5.57,0.69,7.52-2.47c0.46-0.74,1.38-0.85,2.06-0.25c0.68,0.6,0.86,1.69,0.4,2.43 c-2.86,4.63-6.17,4.22-10.04,3.74C109.56,24.96,106.12,24.53,102.42,27.3L102.42,27.3z M99.9,17.91c-0.66,0.49-1.59,0.23-2.08-0.58 c-0.48-0.82-0.34-1.88,0.32-2.37c4.52-3.37,8.49-2.88,11.98-2.45c3,0.37,5.57,0.69,7.52-2.47c0.46-0.74,1.38-0.85,2.06-0.25 c0.68,0.6,0.86,1.69,0.4,2.43c-2.86,4.63-6.17,4.22-10.04,3.74C107.04,15.57,103.61,15.15,99.9,17.91L99.9,17.91z M97.39,8.52 c-0.66,0.49-1.59,0.23-2.08-0.58c-0.48-0.82-0.34-1.88,0.32-2.37c4.52-3.37,8.49-2.88,11.98-2.45c3,0.37,5.57,0.69,7.52-2.47 c0.46-0.74,1.38-0.85,2.06-0.25c0.68,0.6,0.86,1.69,0.4,2.43c-2.86,4.63-6.17,4.22-10.04,3.74C104.53,6.18,101.09,5.76,97.39,8.52 L97.39,8.52z M78.32,32.95l-6.03-22.49l-46.51,5.78c-1.37,0.17-2.71,0.31-4.06,0.57c-9.71,1.83-15.2,7.29-17.13,13.5 c-1.06,3.41-1.07,7.04-0.14,10.43c0.94,3.39,2.81,6.52,5.53,8.92c5.4,4.77,14.18,6.62,25.55,1.81l0,0L78.32,32.95L78.32,32.95z"/></g></svg>