<svg xmlns="http://www.w3.org/2000/svg" xmlns:xlink="http://www.w3.org/1999/xlink" viewBox="0 0 50 50"><path d="M14 2C6.28125 2 0 8.28125 0 16C0 19.859375 1.558594 23.371094 4.09375 25.90625C4.113281 25.917969 4.136719 25.929688 4.15625 25.9375C4.183594 25.964844 4.191406 26.007813 4.21875 26.03125C4.285156 26.113281 4.40625 26.269531 4.625 26.71875C4.929688 27.34375 5.304688 28.363281 5.5 29.84375C5.570313 30.375 5.46875 32.316406 5.21875 34.375C4.96875 36.433594 4.605469 38.726563 4.25 40.4375C3.929688 41.972656 3.960938 43.375 4.59375 44.5625C5.226563 45.75 6.417969 46.59375 8 47.0625C8.042969 47.066406 8.082031 47.066406 8.125 47.0625L13.0625 47.90625C13.074219 47.90625 13.082031 47.90625 13.09375 47.90625C13.382813 47.941406 14.25 48.007813 15.1875 47.90625C15.65625 47.855469 16.144531 47.789063 16.625 47.5625C17.105469 47.335938 17.628906 46.914063 17.84375 46.28125C18.082031 45.574219 17.949219 44.824219 17.71875 44.3125C17.488281 43.800781 17.242188 43.460938 17.03125 43.0625C16.609375 42.265625 16.210938 41.242188 16.8125 38.65625C17.332031 36.425781 17.898438 34.664063 18.5625 32.5C19.117188 30.691406 19.882813 29.726563 20.46875 29.1875C21.054688 28.648438 21.34375 28.59375 21.34375 28.59375C21.441406 28.566406 21.539063 28.523438 21.625 28.46875L38.25 24.34375C38.691406 24.230469 39 23.832031 39 23.375L39 8.625C39 8.167969 38.691406 7.769531 38.25 7.65625L18.28125 2.6875L18.21875 2.65625L18.21875 2.6875C16.886719 2.265625 15.476563 2 14 2 Z M 14 4C15.28125 4 16.527344 4.21875 17.6875 4.59375C17.707031 4.59375 17.730469 4.59375 17.75 4.59375L37 9.40625L37 22.59375L17.75 27.40625C17.730469 27.40625 17.707031 27.40625 17.6875 27.40625C16.527344 27.78125 15.28125 28 14 28C10.722656 28 7.757813 26.6875 5.59375 24.5625C5.5625 24.539063 5.53125 24.519531 5.5 24.5C5.480469 24.480469 5.457031 24.457031 5.4375 24.4375C5.417969 24.414063 5.398438 24.394531 5.375 24.375C3.277344 22.214844 2 19.253906 2 16C2 9.363281 7.363281 4 14 4 Z M 14 9C10.144531 9 7 12.144531 7 16C7 19.855469 10.144531 23 14 23C17.855469 23 21 19.855469 21 16C21 12.144531 17.855469 9 14 9 Z M 40.78125 9.96875C40.253906 10.074219 39.890625 10.5625 39.945313 11.101563C40.003906 11.636719 40.460938 12.039063 41 12.03125C43.320313 12.03125 43.691406 12.378906 44.46875 12.875C45.246094 13.371094 46.433594 14.03125 49 14.03125C49.402344 14.085938 49.800781 13.902344 50.019531 13.5625C50.238281 13.21875 50.238281 12.78125 50.019531 12.4375C49.800781 12.097656 49.402344 11.914063 49 11.96875C46.71875 11.96875 46.375 11.628906 45.59375 11.125C44.8125 10.621094 43.601563 9.96875 41 9.96875C40.925781 9.960938 40.855469 9.960938 40.78125 9.96875 Z M 14 11C16.773438 11 19 13.226563 19 16C19 18.773438 16.773438 21 14 21C11.226563 21 9 18.773438 9 16C9 13.226563 11.226563 11 14 11 Z M 40.78125 14.96875C40.253906 15.074219 39.890625 15.5625 39.945313 16.101563C40.003906 16.636719 40.460938 17.039063 41 17.03125C43.320313 17.03125 43.691406 17.378906 44.46875 17.875C45.246094 18.371094 46.433594 19.03125 49 19.03125C49.402344 19.085938 49.800781 18.902344 50.019531 18.5625C50.238281 18.21875 50.238281 17.78125 50.019531 17.4375C49.800781 17.097656 49.402344 16.914063 49 16.96875C46.71875 16.96875 46.375 16.628906 45.59375 16.125C44.8125 15.621094 43.601563 14.96875 41 14.96875C40.925781 14.960938 40.855469 14.960938 40.78125 14.96875 Z M 40.78125 19.96875C40.253906 20.074219 39.890625 20.5625 39.945313 21.101563C40.003906 21.636719 40.460938 22.039063 41 22.03125C43.320313 22.03125 43.691406 22.378906 44.46875 22.875C45.246094 23.371094 46.433594 24.03125 49 24.03125C49.402344 24.085938 49.800781 23.902344 50.019531 23.5625C50.238281 23.21875 50.238281 22.78125 50.019531 22.4375C49.800781 22.097656 49.402344 21.914063 49 21.96875C46.71875 21.96875 46.375 21.628906 45.59375 21.125C44.8125 20.621094 43.601563 19.96875 41 19.96875C40.925781 19.960938 40.855469 19.960938 40.78125 19.96875 Z M 7.25 28.25C9.257813 29.363281 11.546875 30 14 30C15.304688 30 16.554688 29.777344 17.75 29.4375C17.351563 30.109375 16.960938 30.9375 16.65625 31.9375C15.996094 34.09375 15.414063 35.878906 14.875 38.1875C14.195313 41.109375 14.667969 42.902344 15.25 44C15.542969 44.550781 15.804688 44.902344 15.90625 45.125C16.007813 45.347656 16.03125 45.351563 15.9375 45.625C15.9375 45.621094 15.949219 45.671875 15.78125 45.75C15.613281 45.828125 15.300781 45.902344 14.96875 45.9375C14.316406 46.007813 13.589844 45.929688 13.375 45.90625L13.34375 45.90625L8.5625 45.125C8.546875 45.121094 8.546875 45.097656 8.53125 45.09375C7.300781 44.71875 6.667969 44.238281 6.34375 43.625C6.015625 43.003906 5.953125 42.121094 6.21875 40.84375C6.59375 39.054688 6.960938 36.710938 7.21875 34.59375C7.476563 32.476563 7.648438 30.722656 7.5 29.59375C7.4375 29.105469 7.34375 28.664063 7.25 28.25Z"/></svg>