<svg xmlns="http://www.w3.org/2000/svg" xmlns:xlink="http://www.w3.org/1999/xlink" viewBox="0 0 24 24"><path d="M6 3C3.243 3 1 5.243 1 8C1 9.33 1.5174375 10.582844 2.5234375 11.589844L3.3066406 12.242188L4.21875 21L8.2304688 21L7.7070312 16L9 16L9 14L7.4980469 14L7.4414062 13.458984C7.3924062 12.953984 7.7276094 12.492766 8.2246094 12.384766L14 11.134766L14 4.8300781L13.25 4.6210938C10.183 3.7670937 7.321 3 6 3 z M 19 3.4707031L16 4.7832031L16 11.277344L19 12.476562L19 3.4707031 z M 21 5L21 7L23 7L23 5L21 5 z M 6 6C7.105 6 8 6.895 8 8C8 9.105 7.105 10 6 10C4.895 10 4 9.105 4 8C4 6.895 4.895 6 6 6 z M 21 9L21 11L23 11L23 9L21 9 z"/></svg>