<svg xmlns="http://www.w3.org/2000/svg" xmlns:xlink="http://www.w3.org/1999/xlink" viewBox="0 0 50 50"><path d="M14 2C6.28125 2 0 8.28125 0 16C0 23.71875 6.28125 30 14 30C15.453125 30 16.890625 29.773438 18.21875 29.34375L38.25 24.34375C38.695313 24.234375 39 23.835938 39 23.375L39 8.625C39 8.164063 38.695313 7.765625 38.25 7.65625L18.28125 2.6875C16.890625 2.238281 15.453125 2 14 2 Z M 14 9C17.859375 9 21 12.140625 21 16C21 19.859375 17.859375 23 14 23C10.140625 23 7 19.859375 7 16C7 12.140625 10.140625 9 14 9 Z M 41 9.96875C40.425781 9.96875 39.96875 10.425781 39.96875 11C39.96875 11.574219 40.425781 12.03125 41 12.03125C43.164063 12.03125 43.765625 12.425781 44.46875 12.875C45.316406 13.417969 46.28125 14.03125 49 14.03125C49.574219 14.03125 50.03125 13.574219 50.03125 13C50.03125 12.425781 49.574219 11.96875 49 11.96875C46.890625 11.96875 46.285156 11.570313 45.59375 11.125C44.738281 10.574219 43.773438 9.96875 41 9.96875 Z M 14 11C11.242188 11 9 13.242188 9 16C9 18.757813 11.242188 21 14 21C16.757813 21 19 18.757813 19 16C19 13.242188 16.757813 11 14 11 Z M 41 14.96875C40.425781 14.96875 39.96875 15.425781 39.96875 16C39.96875 16.574219 40.425781 17.03125 41 17.03125C43.164063 17.03125 43.765625 17.425781 44.46875 17.875C45.316406 18.417969 46.28125 19.03125 49 19.03125C49.574219 19.03125 50.03125 18.574219 50.03125 18C50.03125 17.425781 49.574219 16.96875 49 16.96875C46.890625 16.96875 46.285156 16.570313 45.59375 16.125C44.738281 15.574219 43.773438 14.96875 41 14.96875 Z M 41 19.96875C40.425781 19.96875 39.96875 20.425781 39.96875 21C39.96875 21.574219 40.425781 22.03125 41 22.03125C43.164063 22.03125 43.765625 22.425781 44.46875 22.875C45.316406 23.417969 46.28125 24.03125 49 24.03125C49.574219 24.03125 50.03125 23.574219 50.03125 23C50.03125 22.425781 49.574219 21.96875 49 21.96875C46.890625 21.96875 46.285156 21.570313 45.59375 21.125C44.738281 20.574219 43.773438 19.96875 41 19.96875 Z M 5.4375 29.5C5.457031 29.617188 5.484375 29.71875 5.5 29.84375C5.679688 31.203125 5.039063 36.648438 4.25 40.4375C3.535156 43.871094 4.796875 46.113281 8 47.0625C8.039063 47.074219 8.085938 47.054688 8.125 47.0625L13.09375 47.90625C13.261719 47.925781 13.734375 47.96875 14.28125 47.96875C16.75 47.96875 17.582031 47.050781 17.84375 46.28125C18.25 45.078125 17.71875 44.257813 17.3125 43.59375C16.78125 42.726563 16.117188 41.628906 16.8125 38.65625C17.292969 36.597656 17.816406 34.953125 18.40625 33.03125L18.5625 32.5C18.714844 32 18.886719 31.570313 19.0625 31.1875L18.78125 31.28125C17.273438 31.757813 15.617188 32 14 32C10.851563 32 7.914063 31.074219 5.4375 29.5Z"/></svg>