<svg xmlns="http://www.w3.org/2000/svg" xmlns:xlink="http://www.w3.org/1999/xlink" viewBox="0 0 50 50"><path d="M11.5 3C10.68 3 10 3.949375 10 5.109375L10 18L10 19L10 28L10 29L10 39.902344C10 41.055344 10.68 42 11.5 42L38.5 42C39.32 42 40 41.055344 40 39.902344L40 29L40 28L40 19L40 18L40 5.109375C40 3.949375 39.32 3 38.5 3L11.5 3 z M 14 6C14.55 6 15 6.45 15 7C15 7.55 14.55 8 14 8C13.45 8 13 7.55 13 7C13 6.45 13.45 6 14 6 z M 18 6C18.55 6 19 6.45 19 7C19 7.55 18.55 8 18 8C17.45 8 17 7.55 17 7C17 6.45 17.45 6 18 6 z M 22 6C22.55 6 23 6.45 23 7C23 7.55 22.55 8 22 8C21.45 8 21 7.55 21 7C21 6.45 21.45 6 22 6 z M 27 6L35 6C35.55 6 36 6.45 36 7C36 7.55 35.55 8 35 8L27 8C26.45 8 26 7.55 26 7C26 6.45 26.45 6 27 6 z M 18 10C19.65 10 21 11.35 21 13C21 14.65 19.65 16 18 16C16.35 16 15 14.65 15 13C15 11.35 16.35 10 18 10 z M 27 10L35 10C35.55 10 36 10.45 36 11C36 11.55 35.55 12 35 12L27 12C26.45 12 26 11.55 26 11C26 10.45 26.45 10 27 10 z M 18 12C17.8625 12 17.730859 12.027344 17.611328 12.078125C17.491797 12.128906 17.383594 12.202344 17.292969 12.292969C17.202344 12.383594 17.128906 12.491797 17.078125 12.611328C17.027344 12.730859 17 12.8625 17 13C17 13.1375 17.027344 13.269141 17.078125 13.388672C17.128906 13.508203 17.202344 13.616406 17.292969 13.707031C17.383594 13.797656 17.491797 13.871094 17.611328 13.921875C17.730859 13.972656 17.8625 14 18 14C18.55 14 19 13.55 19 13C19 12.45 18.55 12 18 12 z M 27 14L35 14C35.55 14 36 14.45 36 15C36 15.55 35.55 16 35 16L27 16C26.45 16 26 15.55 26 15C26 14.45 26.45 14 27 14 z M 12 19L38 19L38 28L12 28L12 19 z M 22.8125 30.998047C23.193594 30.925812 23.605078 31.084984 23.830078 31.427734L25 33.177734L26.169922 31.427734C26.469922 30.970734 27.090781 30.842391 27.550781 31.150391C28.010781 31.448391 28.140078 32.064484 27.830078 32.521484L26.859375 33.962891L28 33.962891C28.55 33.962891 29 34.408078 29 34.955078C29 35.501078 28.55 35.949219 28 35.949219L26.859375 35.949219L27.830078 37.390625C28.140078 37.847625 28.010781 38.463719 27.550781 38.761719C27.380781 38.880719 27.19 38.929688 27 38.929688C26.68 38.929688 26.359922 38.770422 26.169922 38.482422L25 36.744141L23.830078 38.482422C23.640078 38.770422 23.32 38.929688 23 38.929688C22.81 38.929688 22.619219 38.880719 22.449219 38.761719C21.989219 38.463719 21.859922 37.847625 22.169922 37.390625L23.140625 35.949219L22 35.949219C21.45 35.949219 21 35.502078 21 34.955078C21 34.409078 21.45 33.960938 22 33.960938L23.140625 33.960938L22.169922 32.519531C21.859922 32.062531 21.989219 31.446438 22.449219 31.148438C22.561719 31.071438 22.685469 31.022125 22.8125 30.998047 z M 13 44L13 46C13 46.552 13.448 47 14 47L17 47C17.552 47 18 46.552 18 46L18 44L13 44 z M 32 44L32 46C32 46.552 32.448 47 33 47L36 47C36.552 47 37 46.552 37 46L37 44L32 44 z"/></svg>