<svg xmlns="http://www.w3.org/2000/svg" xmlns:xlink="http://www.w3.org/1999/xlink" viewBox="0 0 50 50"><path d="M11.5 2C10.704066 2 10.035321 2.4639246 9.625 3.0410156C9.2146786 3.6181067 9 4.3350766 9 5.109375L9 19L9 29L9 40.978516C9 41.752814 9.2146786 42.471737 9.625 43.048828C10.035321 43.625919 10.704066 44.089844 11.5 44.089844L12 44.089844L12 47 A 1.0001 1.0001 0 0 0 13 48L18 48 A 1.0001 1.0001 0 0 0 19 47L19 44.089844L31 44.089844L31 47 A 1.0001 1.0001 0 0 0 32 48L37 48 A 1.0001 1.0001 0 0 0 38 47L38 44.089844L38.5 44.089844C39.296338 44.089844 39.964806 43.625929 40.375 43.048828C40.785194 42.471727 41 41.752481 41 40.978516L41 29L41 19L41 5.109375C41 4.3350766 40.785321 3.6181067 40.375 3.0410156C39.964679 2.4639246 39.295934 2 38.5 2L34.75 2L20.5 2L11.5 2 z M 11.5 4L20.5 4L34.75 4L38.5 4C38.52907 4 38.610712 4.01156 38.744141 4.1992188C38.877569 4.3868777 39 4.7226734 39 5.109375L39 18L11 18L11 5.109375C11 4.7226734 11.122431 4.3868777 11.255859 4.1992188C11.389288 4.0115597 11.470934 4 11.5 4 z M 14 6 A 1 1 0 0 0 14 8 A 1 1 0 0 0 14 6 z M 18 6 A 1 1 0 0 0 18 8 A 1 1 0 0 0 18 6 z M 22 6 A 1 1 0 0 0 22 8 A 1 1 0 0 0 22 6 z M 27 6 A 1.0001 1.0001 0 1 0 27 8L35 8 A 1.0001 1.0001 0 1 0 35 6L27 6 z M 18 10C17.083334 10 16.268559 10.379756 15.751953 10.960938C15.235347 11.542118 15 12.277778 15 13C15 13.722222 15.235347 14.457881 15.751953 15.039062C16.268559 15.620245 17.083334 16 18 16C18.916666 16 19.731441 15.620244 20.248047 15.039062C20.764653 14.457882 21 13.722222 21 13C21 12.277778 20.764653 11.542119 20.248047 10.960938C19.731441 10.379755 18.916666 10 18 10 z M 27 10 A 1.0001 1.0001 0 1 0 27 12L35 12 A 1.0001 1.0001 0 1 0 35 10L27 10 z M 18 12C18.416666 12 18.601893 12.120244 18.751953 12.289062C18.902014 12.457882 19 12.722222 19 13C19 13.277778 18.90201 13.542119 18.751953 13.710938C18.601893 13.879755 18.416666 14 18 14C17.583334 14 17.398107 13.879756 17.248047 13.710938C17.097986 13.542118 17 13.277778 17 13C17 12.722222 17.097986 12.457881 17.248047 12.289062C17.398107 12.120245 17.583334 12 18 12 z M 27 14 A 1.0001 1.0001 0 1 0 27 16L35 16 A 1.0001 1.0001 0 1 0 35 14L27 14 z M 11 20L39 20L39 28L11 28L11 20 z M 11 30L39 30L39 40.978516C39 41.36455 38.877696 41.702726 38.744141 41.890625C38.610585 42.078524 38.528662 42.089844 38.5 42.089844L37 42.089844L32 42.089844L18 42.089844L13 42.089844L11.5 42.089844C11.47093 42.089844 11.389288 42.078284 11.255859 41.890625C11.122431 41.702966 11 41.365217 11 40.978516L11 30 z M 26.982422 31.986328 A 1.0001 1.0001 0 0 0 26.167969 32.445312L25 34.197266L23.832031 32.445312 A 1.0001 1.0001 0 0 0 22.988281 31.988281 A 1.0001 1.0001 0 0 0 22.167969 33.554688L23.130859 35L22 35 A 1.0001 1.0001 0 1 0 22 37L23.130859 37L22.167969 38.445312 A 1.0001 1.0001 0 1 0 23.832031 39.554688L25 37.802734L26.167969 39.554688 A 1.0001 1.0001 0 1 0 27.832031 38.445312L26.869141 37L28 37 A 1.0001 1.0001 0 1 0 28 35L26.869141 35L27.832031 33.554688 A 1.0001 1.0001 0 0 0 26.982422 31.986328 z M 14 44.089844L17 44.089844L17 46L14 46L14 44.089844 z M 33 44.089844L36 44.089844L36 46L33 46L33 44.089844 z"/></svg>