<svg xmlns="http://www.w3.org/2000/svg" xmlns:xlink="http://www.w3.org/1999/xlink" viewBox="0 0 50 50"><path d="M16.8125 2C16.335938 2.089844 15.992188 2.511719 16 3L16 11C16 11.550781 16.449219 12 17 12L22 12L22 30L10 30C9.96875 30 9.9375 30 9.90625 30C9.613281 30.03125 9.351563 30.191406 9.1875 30.4375L2.1875 40.4375C2.070313 40.601563 2.003906 40.796875 2 41L2 45C2 45.550781 2.449219 46 3 46L4 46L4 47L6 47L6 46L44 46L44 47L46 47L46 46L47 46C47.550781 46 48 45.550781 48 45L48 41C47.996094 40.796875 47.929688 40.601563 47.8125 40.4375L40.8125 30.4375C40.628906 30.167969 40.324219 30.003906 40 30L28 30L28 12L33 12C33.550781 12 34 11.550781 34 11L34 3C34 2.449219 33.550781 2 33 2L17 2C16.96875 2 16.9375 2 16.90625 2C16.875 2 16.84375 2 16.8125 2 Z M 18 4L32 4L32 10L18 10 Z M 29 7L29 9L31 9L31 7 Z M 24 12L26 12L26 30L24 30 Z M 10.5 32L39.5 32L45.09375 40L4.90625 40 Z M 4 42L46 42L46 44L4 44Z"/></svg>