<svg xmlns="http://www.w3.org/2000/svg" xmlns:xlink="http://www.w3.org/1999/xlink" viewBox="0 0 50 50"><path d="M17 2C16.449219 2 16 2.449219 16 3L16 11C16 11.550781 16.449219 12 17 12L33 12C33.554688 12 34 11.550781 34 11L34 3C34 2.449219 33.554688 2 33 2 Z M 29 7L31 7L31 9L29 9 Z M 22 14L22 30L10 30C9.675781 30 9.375 30.167969 9.1875 30.4375L2.46875 40L47.53125 40L40.8125 30.4375C40.625 30.167969 40.324219 30 40 30L28 30L28 14 Z M 2 42L2 45C2 45.554688 2.449219 46 3 46L4 46L4 47L6 47L6 46L44 46L44 47L46 47L46 46L47 46C47.554688 46 48 45.554688 48 45L48 42Z"/></svg>