<?xml version="1.0" encoding="utf-8"?><svg version="1.1" id="Layer_1" xmlns="http://www.w3.org/2000/svg" xmlns:xlink="http://www.w3.org/1999/xlink" x="0px" y="0px" viewBox="0 0 122.88 88.23" style="enable-background:new 0 0 122.88 88.23" xml:space="preserve"><g><path d="M0.33,85.39l7.36-12.27c0.02-0.04,0.05-0.08,0.08-0.12c4.86-16.63,13.31-29.12,25.53-37.27 c12.24-8.17,28.2-11.93,48.04-11.07c0.34,0.01,0.66,0.12,0.92,0.3l0,0c0.94,0.63,1.86,1.29,2.76,1.98l3.83-3.72l2.42,2.28 c0.67-1.02,1.17-1.79,1.64-2.52c4.96-7.66,7.36-11.37,13.88-9.5c1.08,0.31,2.11,0.71,3.07,1.14c0.91,0.41,1.78,0.87,2.58,1.32 c0.43,0.24,0.82,0.39,1.17,0.45c0.85,0.16,1.59-0.26,2.21-1.01c0.87-1.05,1.54-2.65,2.06-4.41c0.97-3.3,1.35-7.08,1.43-9.25 c0.03-0.98,0.86-1.75,1.85-1.72c0.98,0.03,1.75,0.86,1.72,1.85c-0.08,2.36-0.51,6.49-1.57,10.12c-0.64,2.2-1.53,4.25-2.73,5.7 c-1.44,1.75-3.29,2.68-5.62,2.24c-0.72-0.14-1.47-0.41-2.25-0.85c-0.69-0.39-1.46-0.79-2.32-1.18c-0.81-0.36-1.67-0.7-2.58-0.96 c-3.99-1.15-5.93,1.84-9.92,8c-0.62,0.96-1.28,1.98-1.82,2.8c-0.06,0.09-0.12,0.17-0.19,0.24l3.1,2.92l-3.4,3.83 c1.21,1.3,2.37,2.64,3.49,4.03c0.27,0.33,0.39,0.73,0.39,1.12h0v32.76c0.6,0.25,1.11,0.6,1.53,1.06c0.7,0.77,1.06,1.77,1.06,3.01 h0.01v6.57c0.1,1.76-0.4,3.04-1.38,3.9c-0.94,0.83-2.22,1.14-3.75,1.05H1.79C0.8,88.22,0,87.42,0,86.43 C0,86.04,0.12,85.68,0.33,85.39L0.33,85.39z M79.35,39.33c-2.14-0.78-4.76-0.96-7.53-0.62c-3.95,0.48-8.15,2.01-11.68,4.32 c-3.46,2.26-6.27,5.26-7.53,8.71c-0.45,1.23-0.71,2.53-0.72,3.89H82v-8.74c0-0.07,0-0.14,0.01-0.21c0.04-1.07,0.1-1.88,0.17-2.6 C82.39,41.62,82.49,40.48,79.35,39.33L79.35,39.33z M71.39,35.16c3.3-0.4,6.49-0.17,9.18,0.82c5.71,2.09,5.54,4.09,5.17,8.39 c-0.07,0.76-0.14,1.61-0.17,2.42c0,0.03,0,0.06,0,0.09v10.53c0,0.99-0.8,1.79-1.79,1.79H50.2v0c-0.89,0-1.66-0.66-1.78-1.57 c-0.31-2.5,0.02-4.89,0.83-7.11c1.55-4.24,4.87-7.83,8.93-10.49C62.17,37.43,66.91,35.7,71.39,35.16L71.39,35.16z M27.48,61.63 h1.14c0.72,0,1.3,0.59,1.3,1.3v4.96c0,0.72-0.59,1.3-1.3,1.3h-1.14c-0.72,0-1.3-0.59-1.3-1.3v-4.96 C26.17,62.22,26.76,61.63,27.48,61.63L27.48,61.63z M38.7,61.63h1.14c0.72,0,1.3,0.59,1.3,1.3v4.96c0,0.72-0.59,1.3-1.3,1.3H38.7 c-0.72,0-1.3-0.59-1.3-1.3v-4.96C37.4,62.22,37.99,61.63,38.7,61.63L38.7,61.63z M33.09,61.63h1.14c0.72,0,1.3,0.59,1.3,1.3v4.96 c0,0.72-0.59,1.3-1.3,1.3h-1.14c-0.72,0-1.3-0.59-1.3-1.3v-4.96C31.79,62.22,32.37,61.63,33.09,61.63L33.09,61.63z M11.81,71.98 l82.08,0.22V40.49c-1.94-2.37-4-4.58-6.17-6.61c-2.19-2.05-4.53-3.95-7.05-5.67c-18.82-0.74-33.9,2.83-45.39,10.49 C24.28,46.03,16.51,57.18,11.81,71.98L11.81,71.98z M10.23,75.82l-5.29,8.82h90v0c0.04,0,0.08,0,0.13,0c0.64,0.05,1.07,0,1.26-0.16 c0.14-0.12,0.2-0.44,0.17-1c-0.01-0.07-0.01-0.14-0.01-0.21v-6.57h0.01v-0.01c0-0.31-0.04-0.51-0.13-0.61 c-0.1-0.1-0.29-0.19-0.58-0.25H10.23L10.23,75.82z"/></g></svg>