<svg xmlns="http://www.w3.org/2000/svg" xmlns:xlink="http://www.w3.org/1999/xlink" viewBox="0 0 50 50"><path d="M16 13C15.5 13 14.941406 13.234375 14.625 13.65625C14.308594 14.078125 14.25 14.554688 14.28125 15C14.347656 15.890625 14.785156 16.785156 15.53125 17.65625C17.023438 19.398438 19.839844 21 24 21C27.988281 21 30.214844 20.464844 31.75 19.9375C33.285156 19.410156 33.945313 19 35.15625 19C36.367188 19 38.398438 19.457031 40.03125 20.78125C41.664063 22.105469 43 24.25 43 28L37 28L37 26.84375C37 25.292969 35.707031 24 34.15625 24L28.84375 24C27.292969 24 26 25.292969 26 26.84375L26 28.03125C18.265625 28.378906 10.808594 32.734375 3.5 43.21875C3.464844 43.257813 3.433594 43.300781 3.40625 43.34375C3.332031 43.417969 3.269531 43.5 3.21875 43.59375C3.195313 43.632813 3.175781 43.675781 3.15625 43.71875C2.191406 45.128906 1.238281 46.652344 0.28125 48.28125C0.257813 48.3125 0.238281 48.34375 0.21875 48.375C0.210938 48.386719 0.195313 48.394531 0.1875 48.40625C0.175781 48.417969 0.167969 48.425781 0.15625 48.4375C0.144531 48.457031 0.136719 48.480469 0.125 48.5C0.113281 48.511719 0.105469 48.519531 0.09375 48.53125C0.09375 48.550781 0.09375 48.574219 0.09375 48.59375C0.0820313 48.613281 0.0703125 48.636719 0.0625 48.65625C0.0507813 48.667969 0.0429688 48.675781 0.03125 48.6875C0.03125 48.699219 0.03125 48.707031 0.03125 48.71875C0.03125 48.738281 0.03125 48.761719 0.03125 48.78125C0.0195313 48.792969 0.0117188 48.800781 0 48.8125C0 48.832031 0 48.855469 0 48.875C0 48.886719 0 48.894531 0 48.90625C0 48.925781 0 48.949219 0 48.96875C0 48.980469 0 48.988281 0 49C0 49.03125 0 49.0625 0 49.09375C0 49.105469 0 49.113281 0 49.125C0 49.144531 0 49.167969 0 49.1875C0 49.199219 0 49.207031 0 49.21875C0.0078125 49.238281 0.0195313 49.261719 0.03125 49.28125C0.03125 49.292969 0.03125 49.300781 0.03125 49.3125C0.0390625 49.332031 0.0507813 49.355469 0.0625 49.375C0.0703125 49.394531 0.0820313 49.417969 0.09375 49.4375C0.09375 49.449219 0.09375 49.457031 0.09375 49.46875C0.105469 49.480469 0.113281 49.488281 0.125 49.5C0.152344 49.542969 0.183594 49.585938 0.21875 49.625C0.226563 49.644531 0.238281 49.667969 0.25 49.6875C0.261719 49.699219 0.269531 49.707031 0.28125 49.71875C0.292969 49.71875 0.300781 49.71875 0.3125 49.71875C0.320313 49.738281 0.332031 49.761719 0.34375 49.78125C0.355469 49.78125 0.363281 49.78125 0.375 49.78125C0.394531 49.804688 0.414063 49.824219 0.4375 49.84375C0.449219 49.84375 0.457031 49.84375 0.46875 49.84375C0.488281 49.855469 0.511719 49.867188 0.53125 49.875C0.5625 49.898438 0.59375 49.917969 0.625 49.9375C0.683594 49.964844 0.75 49.984375 0.8125 50C0.824219 50 0.832031 50 0.84375 50C0.863281 50 0.886719 50 0.90625 50C0.917969 50 0.925781 50 0.9375 50C1 50.003906 1.0625 50.003906 1.125 50L48 50C49.09375 50 50 49.09375 50 48L50 45.34375C50.003906 45.292969 50.003906 45.238281 50 45.1875L50 45C50.007813 44.9375 50.007813 44.875 50 44.8125L50 29.1875C50.007813 29.125 50.007813 29.0625 50 29C50 28.957031 50 28.917969 50 28.875C50.003906 28.832031 50.003906 28.792969 50 28.75C49.953125 23.203125 48.382813 19.214844 45.6875 16.65625C42.953125 14.058594 39.167969 13 35 13 Z M 16.3125 15L35 15C38.832031 15 42.046875 15.941406 44.3125 18.09375C46.429688 20.101563 47.796875 23.257813 47.96875 28L45 28C45 23.75 43.351563 20.894531 41.28125 19.21875C39.210938 17.542969 36.828125 17 35.15625 17C33.484375 17 32.464844 17.589844 31.09375 18.0625C29.722656 18.535156 27.816406 19 24 19C20.355469 19 18.113281 17.601563 17.03125 16.34375C16.535156 15.765625 16.359375 15.273438 16.3125 15 Z M 28.84375 26L34.15625 26C34.625 26 35 26.375 35 26.84375L35 28L28 28L28 26.84375C28 26.375 28.375 26 28.84375 26 Z M 27.03125 30L48 30L48 43L6.125 43C13.128906 33.441406 19.945313 30 27.03125 30 Z M 24 35C22.894531 35 22 35.894531 22 37C22 38.105469 22.894531 39 24 39C25.105469 39 26 38.105469 26 37C26 35.894531 25.105469 35 24 35 Z M 31 35C29.894531 35 29 35.894531 29 37C29 38.105469 29.894531 39 31 39C32.105469 39 33 38.105469 33 37C33 35.894531 32.105469 35 31 35 Z M 38 35C36.894531 35 36 35.894531 36 37C36 38.105469 36.894531 39 38 39C39.105469 39 40 38.105469 40 37C40 35.894531 39.105469 35 38 35 Z M 4.71875 45L48 45L48 45.1875C48 45.21875 48 45.25 48 45.28125L48 48L2.78125 48C3.421875 46.949219 4.082031 45.945313 4.71875 45Z"/></svg>