<svg xmlns="http://www.w3.org/2000/svg" xmlns:xlink="http://www.w3.org/1999/xlink" viewBox="0 0 50 50"><path d="M26 4C17.75 4 11 10.488281 11 18.5L11 45C11 45.550781 11.449219 46 12 46L40 46C40.550781 46 41 45.550781 41 45L41 18.5C41 10.488281 34.25 4 26 4 Z M 26 6C27.261719 6 28.476563 6.179688 29.628906 6.5L27.328125 11.109375C26.894531 11.042969 26.453125 11 26 11C25.546875 11 25.105469 11.042969 24.671875 11.109375L22.371094 6.5C23.523438 6.179688 24.738281 6 26 6 Z M 20.480469 7.195313L22.691406 11.621094C19.589844 12.816406 17.320313 15.632813 17.035156 19L13 19L13 18.5C13 13.503906 16.054688 9.191406 20.480469 7.195313 Z M 31.519531 7.195313C35.945313 9.191406 39 13.503906 39 18.5L39 19L34.964844 19C34.679688 15.632813 32.410156 12.816406 29.308594 11.621094 Z M 22 19C22.554688 19 23 19.445313 23 20L23 24C23 24.554688 22.554688 25 22 25C21.445313 25 21 24.554688 21 24L21 20C21 19.445313 21.445313 19 22 19 Z M 26 19C26.554688 19 27 19.445313 27 20L27 24C27 24.554688 26.554688 25 26 25C25.445313 25 25 24.554688 25 24L25 20C25 19.445313 25.445313 19 26 19 Z M 30 19C30.554688 19 31 19.445313 31 20L31 24C31 24.554688 30.554688 25 30 25C29.445313 25 29 24.554688 29 24L29 20C29 19.445313 29.445313 19 30 19 Z M 13 21L17 21L17 23L13 23 Z M 35 21L39 21L39 23L35 23 Z M 13 25L17 25L17 44L13 44 Z M 35 25L39 25L39 44L35 44 Z M 22 27.5L30 27.5C30.277344 27.5 30.5 27.722656 30.5 28L30.5 38C30.5 40.480469 28.480469 42.5 26 42.5C23.519531 42.5 21.5 40.480469 21.5 38L21.5 28C21.5 27.722656 21.722656 27.5 22 27.5Z"/></svg>