<svg xmlns="http://www.w3.org/2000/svg" xmlns:xlink="http://www.w3.org/1999/xlink" viewBox="0 0 50 50"><path d="M25 4C16.75 4 10 10.488281 10 18.5L10 45C10 45.550781 10.449219 46 11 46L39 46C39.550781 46 40 45.550781 40 45L40 18.5C40 10.488281 33.25 4 25 4 Z M 25 6C26.261719 6 27.476563 6.179688 28.628906 6.5L26.328125 11.109375C25.894531 11.042969 25.453125 11 25 11C24.546875 11 24.105469 11.042969 23.671875 11.109375L21.371094 6.5C22.523438 6.179688 23.738281 6 25 6 Z M 19.480469 7.195313L21.691406 11.621094C18.589844 12.816406 16.320313 15.632813 16.035156 19L12 19L12 18.5C12 13.503906 15.054688 9.191406 19.480469 7.195313 Z M 30.519531 7.195313C34.945313 9.191406 38 13.503906 38 18.5L38 19L33.964844 19C33.679688 15.632813 31.410156 12.816406 28.308594 11.621094 Z M 25 13C28.894531 13 32 16.019531 32 19.714844L32 44L18 44L18 19.714844C18 16.019531 21.105469 13 25 13 Z M 20.984375 18.984375C20.433594 18.996094 19.992188 19.449219 20 20L20 24C19.996094 24.359375 20.183594 24.695313 20.496094 24.878906C20.808594 25.058594 21.191406 25.058594 21.503906 24.878906C21.816406 24.695313 22.003906 24.359375 22 24L22 20C22.003906 19.730469 21.898438 19.46875 21.707031 19.277344C21.515625 19.085938 21.253906 18.980469 20.984375 18.984375 Z M 24.984375 18.984375C24.433594 18.996094 23.992188 19.449219 24 20L24 24C23.996094 24.359375 24.183594 24.695313 24.496094 24.878906C24.808594 25.058594 25.191406 25.058594 25.503906 24.878906C25.816406 24.695313 26.003906 24.359375 26 24L26 20C26.003906 19.730469 25.898438 19.46875 25.707031 19.277344C25.515625 19.085938 25.253906 18.980469 24.984375 18.984375 Z M 28.984375 18.984375C28.433594 18.996094 27.992188 19.449219 28 20L28 24C27.996094 24.359375 28.183594 24.695313 28.496094 24.878906C28.808594 25.058594 29.191406 25.058594 29.503906 24.878906C29.816406 24.695313 30.003906 24.359375 30 24L30 20C30.003906 19.730469 29.898438 19.46875 29.707031 19.277344C29.515625 19.085938 29.253906 18.980469 28.984375 18.984375 Z M 12 21L16 21L16 23L12 23 Z M 34 21L38 21L38 23L34 23 Z M 12 25L16 25L16 44L12 44 Z M 34 25L38 25L38 44L34 44 Z M 21 27C20.449219 27 20 27.449219 20 28L20 38C20 40.75 22.25 43 25 43C27.75 43 30 40.75 30 38L30 28C30 27.449219 29.550781 27 29 27 Z M 22 29L28 29L28 38C28 39.667969 26.667969 41 25 41C23.332031 41 22 39.667969 22 38Z"/></svg>