<?xml version="1.0" encoding="utf-8"?><svg version="1.1" id="Layer_1" xmlns="http://www.w3.org/2000/svg" xmlns:xlink="http://www.w3.org/1999/xlink" x="0px" y="0px" viewBox="0 0 122.88 77.77" style="enable-background:new 0 0 122.88 77.77" xml:space="preserve"><style type="text/css">.st0{fill-rule:evenodd;clip-rule:evenodd;}</style><g><path class="st0" d="M95.45,13.68h3.94c0.49,0,0.89,0.4,0.89,0.89v3c0,0.49-0.4,0.89-0.89,0.89h-3.94c-0.49,0-0.89-0.4-0.89-0.89 v-3C94.56,14.08,94.96,13.68,95.45,13.68L95.45,13.68z M24.22,75.44v1.14c0,0.65-0.53,1.18-1.18,1.18H17.2 c-0.65,0-1.18-0.53-1.18-1.18v-1.15H4.7c-1.29,0-2.47-0.53-3.32-1.38C0.53,73.21,0,72.04,0,70.74V4.7c0-1.29,0.53-2.47,1.38-3.32 C2.23,0.53,3.41,0,4.7,0h113.48c1.29,0,2.47,0.53,3.32,1.38c0.85,0.85,1.38,2.03,1.38,3.32v66.04c0,1.29-0.53,2.47-1.38,3.32 c-0.85,0.85-2.03,1.38-3.32,1.38h-10.06v1.14c0,0.65-0.53,1.18-1.18,1.18h-5.84c-0.65,0-1.18-0.53-1.18-1.18v-1.15H24.22 L24.22,75.44z M101.62,50.08c0.24,0,0.43,0.19,0.43,0.43c0,0.24-0.19,0.43-0.43,0.43c-0.24,0-0.43-0.19-0.43-0.43 C101.19,50.27,101.38,50.08,101.62,50.08L101.62,50.08z M99.43,50.34c0.23-0.06,0.47,0.08,0.53,0.31c0.06,0.23-0.08,0.47-0.31,0.53 c-0.23,0.06-0.47-0.08-0.53-0.31C99.07,50.64,99.2,50.4,99.43,50.34L99.43,50.34z M97.39,51.16c0.21-0.12,0.47-0.05,0.59,0.16 c0.12,0.21,0.05,0.47-0.16,0.59c-0.21,0.12-0.47,0.05-0.59-0.16C97.11,51.54,97.18,51.28,97.39,51.16L97.39,51.16z M95.63,52.48 c0.17-0.17,0.44-0.17,0.61,0c0.17,0.17,0.17,0.44,0,0.61c-0.17,0.17-0.44,0.17-0.61,0C95.46,52.93,95.46,52.65,95.63,52.48 L95.63,52.48z M94.27,54.21c0.12-0.21,0.38-0.28,0.59-0.16c0.21,0.12,0.28,0.39,0.16,0.59c-0.12,0.21-0.38,0.28-0.59,0.16 C94.22,54.69,94.14,54.42,94.27,54.21L94.27,54.21z M93.4,56.24c0.06-0.23,0.3-0.37,0.53-0.31c0.23,0.06,0.37,0.3,0.31,0.53 c-0.06,0.23-0.3,0.37-0.53,0.31C93.47,56.71,93.34,56.47,93.4,56.24L93.4,56.24z M109.71,56.42c0.06,0.23-0.08,0.47-0.31,0.53 c-0.23,0.06-0.47-0.08-0.53-0.31c-0.06-0.23,0.08-0.47,0.31-0.53C109.41,56.05,109.64,56.19,109.71,56.42L109.71,56.42z M108.89,54.38c0.12,0.21,0.05,0.47-0.16,0.59c-0.21,0.12-0.47,0.05-0.59-0.16c-0.12-0.21-0.05-0.47,0.16-0.59 C108.5,54.1,108.77,54.17,108.89,54.38L108.89,54.38z M107.56,52.61c0.17,0.17,0.17,0.44,0,0.61c-0.17,0.17-0.44,0.17-0.61,0 c-0.17-0.17-0.17-0.44,0-0.61C107.12,52.44,107.39,52.44,107.56,52.61L107.56,52.61z M105.83,51.25c0.21,0.12,0.28,0.38,0.16,0.59 c-0.12,0.21-0.38,0.28-0.59,0.16c-0.21-0.12-0.28-0.38-0.16-0.59C105.36,51.2,105.62,51.13,105.83,51.25L105.83,51.25z M103.8,50.39c0.23,0.06,0.37,0.3,0.31,0.53c-0.06,0.23-0.3,0.37-0.53,0.31c-0.23-0.06-0.37-0.3-0.31-0.53 C103.33,50.46,103.57,50.33,103.8,50.39L103.8,50.39z M16.4,32.11c-0.2,0.63-0.87,0.98-1.5,0.78c-0.63-0.2-0.98-0.87-0.78-1.5 c0.57-1.79,1.91-4.46,3.64-6.74c1.38-1.81,3.02-3.42,4.77-4.24c0.59-0.28,1.3-0.02,1.58,0.57c0.28,0.59,0.02,1.3-0.57,1.58 c-1.35,0.63-2.7,1.98-3.87,3.52C18.1,28.15,16.9,30.53,16.4,32.11L16.4,32.11z M90.11,6.82h23.07c0.79,0,1.5,0.32,2.02,0.84 c0.52,0.52,0.84,1.23,0.84,2.02v55.7c0,0.79-0.32,1.5-0.84,2.02c-0.52,0.52-1.23,0.84-2.02,0.84H90.11c-0.79,0-1.5-0.32-2.02-0.84 h0c-0.52-0.52-0.84-1.23-0.84-2.02V9.69c0-0.79,0.32-1.5,0.84-2.02C88.6,7.15,89.32,6.82,90.11,6.82L90.11,6.82z M113.18,9.21 H90.11c-0.13,0-0.25,0.05-0.34,0.14c-0.09,0.09-0.14,0.21-0.14,0.34v55.7c0,0.13,0.05,0.25,0.14,0.34l0,0 c0.09,0.09,0.21,0.14,0.34,0.14h23.07c0.13,0,0.25-0.05,0.34-0.14c0.09-0.09,0.14-0.21,0.14-0.34V9.69c0-0.13-0.05-0.25-0.14-0.34 C113.42,9.26,113.31,9.21,113.18,9.21L113.18,9.21z M10.49,15.11h59.88c0.66,0,1.25,0.27,1.69,0.7c0.43,0.43,0.7,1.03,0.7,1.69 v40.46c0,0.66-0.27,1.25-0.7,1.69c-0.43,0.43-1.03,0.7-1.69,0.7H10.49c-0.66,0-1.25-0.27-1.69-0.7c-0.43-0.43-0.7-1.03-0.7-1.69 V17.49c0-0.66,0.27-1.25,0.7-1.69h0C9.24,15.37,9.83,15.11,10.49,15.11L10.49,15.11z M70.37,17.49H10.49h0l0,0c0,0,0,0,0,0v40.46 c0,0,0,0,0,0c0,0,0,0,0,0h59.88c0,0,0,0,0,0c0,0,0,0,0,0L70.37,17.49C70.37,17.49,70.37,17.49,70.37,17.49 C70.37,17.49,70.37,17.49,70.37,17.49L70.37,17.49z M82.59,2.39v70.67h35.59c0.63,0,1.21-0.26,1.63-0.68 c0.42-0.42,0.68-1,0.68-1.63V4.7c0-0.64-0.26-1.21-0.68-1.63c-0.42-0.42-1-0.68-1.63-0.68H82.59L82.59,2.39z M77.79,73.06V2.39H4.7 c-0.64,0-1.21,0.26-1.63,0.68c-0.42,0.42-0.68,1-0.68,1.63v66.04c0,0.63,0.26,1.21,0.68,1.63c0.42,0.42,1,0.68,1.63,0.68H77.79 L77.79,73.06z M101.62,53c3.04,0,5.51,2.47,5.51,5.51c0,3.04-2.47,5.51-5.51,5.51c-3.04,0-5.51-2.46-5.51-5.51 C96.12,55.46,98.58,53,101.62,53L101.62,53z M95.26,33.67h12.97c0.92,0,1.67,0.75,1.67,1.67v9.02c0,0.92-0.75,1.67-1.67,1.67H95.26 c-0.92,0-1.67-0.75-1.67-1.67v-9.02C93.59,34.43,94.34,33.67,95.26,33.67L95.26,33.67z M104.1,22.45h3.94 c0.49,0,0.89,0.4,0.89,0.89v3c0,0.49-0.4,0.89-0.89,0.89h-3.94c-0.49,0-0.89-0.4-0.89-0.89v-3 C103.22,22.85,103.62,22.45,104.1,22.45L104.1,22.45z M95.45,22.45h3.94c0.49,0,0.89,0.4,0.89,0.89v3c0,0.49-0.4,0.89-0.89,0.89 h-3.94c-0.49,0-0.89-0.4-0.89-0.89v-3C94.56,22.85,94.96,22.45,95.45,22.45L95.45,22.45z M104.1,13.68h3.94 c0.49,0,0.89,0.4,0.89,0.89v3c0,0.49-0.4,0.89-0.89,0.89h-3.94c-0.49,0-0.89-0.4-0.89-0.89v-3 C103.22,14.08,103.62,13.68,104.1,13.68L104.1,13.68z"/></g></svg>