<svg xmlns="http://www.w3.org/2000/svg" xmlns:xlink="http://www.w3.org/1999/xlink" viewBox="0 0 50 50"><path d="M19.3125 0.03125C19.121094 0.03125 18.933594 0.078125 18.75 0.15625L11.59375 3.125C10.855469 3.433594 10.484375 4.292969 10.78125 5.03125C10.78125 5.042969 10.78125 5.050781 10.78125 5.0625L11.5625 6.9375C11.867188 7.679688 12.753906 8.03125 13.5 7.71875L14.25 7.40625L15.125 9.65625L14.96875 9.71875C14.683594 9.832031 14.457031 9.902344 14.21875 10.03125C13.980469 10.160156 13.632813 10.40625 13.46875 10.8125C13.304688 11.21875 13.394531 11.585938 13.46875 11.84375C13.542969 12.101563 13.636719 12.3125 13.75 12.59375C13.75 12.605469 13.75 12.613281 13.75 12.625L13.9375 13.125L13.5 13.28125C8.296875 15.398438 5.769531 21.367188 7.875 26.5625C7.875 26.574219 7.875 26.582031 7.875 26.59375L10.15625 32C9.375 33.140625 8.90625 34.523438 8.90625 36C8.90625 39.410156 11.339844 42.273438 14.5625 42.9375C14.5625 42.957031 14.5625 42.980469 14.5625 43C14.757813 43.34375 14.96875 43.671875 15.1875 44L9.875 44C8.261719 44 7 45.386719 7 47L7 49C7 49.550781 7.449219 50 8 50L42 50C42.550781 50 43 49.550781 43 49L43 47C43 45.386719 41.738281 44 40.125 44L37.3125 44C39.160156 43.210938 40.101563 41.105469 39.375 39.21875C38.816406 37.769531 37.4375 36.832031 35.96875 36.78125C35.480469 36.765625 34.984375 36.84375 34.5 37.03125L24.65625 40.84375C24.644531 40.84375 24.636719 40.84375 24.625 40.84375C24.242188 40.996094 23.753906 40.984375 23.1875 40.75C22.753906 40.570313 22.332031 40.242188 21.9375 39.875C22.667969 38.761719 23.09375 37.421875 23.09375 36C23.09375 35.542969 23.019531 35.089844 22.9375 34.65625L35.875 29.375C36.410156 29.238281 36.730469 28.691406 36.59375 28.15625C36.457031 27.621094 35.910156 27.300781 35.375 27.4375C35.289063 27.449219 35.207031 27.46875 35.125 27.5L22.28125 32.78125C21.234375 30.75 19.257813 29.273438 16.90625 28.96875L14.84375 23.75C14.292969 22.386719 14.945313 20.839844 16.3125 20.28125C16.324219 20.28125 16.332031 20.28125 16.34375 20.28125L16.84375 20.0625L18.34375 23.71875C18.359375 23.78125 18.378906 23.847656 18.40625 23.90625L19.40625 26.34375C19.507813 26.582031 19.699219 26.773438 19.9375 26.875L22.8125 28.09375C23.054688 28.191406 23.320313 28.191406 23.5625 28.09375L27.65625 26.46875C27.894531 26.367188 28.085938 26.175781 28.1875 25.9375L29.4375 23.0625C29.535156 22.820313 29.535156 22.554688 29.4375 22.3125L28.46875 20C28.46875 19.980469 28.46875 19.957031 28.46875 19.9375L28.46875 19.90625C28.457031 19.894531 28.449219 19.886719 28.4375 19.875C28.4375 19.855469 28.4375 19.832031 28.4375 19.8125C28.417969 19.769531 28.398438 19.726563 28.375 19.6875L23.75 8.5C23.636719 8.21875 23.5625 8.015625 23.4375 7.78125C23.3125 7.546875 23.101563 7.207031 22.6875 7.03125C22.273438 6.855469 21.910156 6.925781 21.65625 7C21.402344 7.074219 21.1875 7.167969 20.90625 7.28125L20.71875 7.34375L19.8125 5.09375L20.65625 4.75C21.382813 4.445313 21.761719 3.582031 21.46875 2.84375L21.46875 2.8125L20.6875 0.9375C20.449219 0.390625 19.886719 0.0351563 19.3125 0.03125 Z M 19.03125 2.1875L19.4375 3.09375L13.21875 5.6875L12.8125 4.78125 Z M 17.96875 5.84375L18.875 8.125L17 8.90625L16.09375 6.625 Z M 21.84375 9.09375C21.871094 9.15625 21.875 9.171875 21.90625 9.25C21.90625 9.261719 21.90625 9.269531 21.90625 9.28125L26.21875 19.6875L19.875 22.21875L15.59375 11.875C15.589844 11.863281 15.597656 11.855469 15.59375 11.84375C15.554688 11.75 15.527344 11.730469 15.5 11.65625C15.574219 11.625 15.585938 11.601563 15.6875 11.5625C15.699219 11.5625 15.707031 11.5625 15.71875 11.5625L21.65625 9.15625C21.75 9.117188 21.769531 9.121094 21.84375 9.09375 Z M 14.71875 14.9375L16.0625 18.21875L15.5625 18.40625C13.191406 19.375 12.039063 22.125 13 24.5L14.78125 29.03125C13.617188 29.234375 12.554688 29.707031 11.65625 30.40625L9.71875 25.8125C8.027344 21.636719 10.046875 16.882813 14.21875 15.15625C14.234375 15.152344 14.234375 15.128906 14.25 15.125 Z M 26.96875 21.5625L27.4375 22.65625L26.5 24.78125L23.21875 26.09375L21.09375 25.1875L20.65625 24.09375 Z M 16 31.09375C18.726563 31.09375 20.90625 33.273438 20.90625 36C20.90625 38.726563 18.726563 40.90625 16 40.90625C13.273438 40.90625 11.09375 38.726563 11.09375 36C11.09375 33.273438 13.273438 31.09375 16 31.09375 Z M 35.90625 38.78125C36.59375 38.804688 37.234375 39.246094 37.5 39.9375C37.855469 40.859375 37.390625 41.863281 36.46875 42.21875L31.8125 44L17.6875 44C17.464844 43.75 17.222656 43.410156 16.96875 43.03125C18.335938 42.84375 19.585938 42.265625 20.59375 41.40625C21.140625 41.902344 21.757813 42.3125 22.4375 42.59375C23.34375 42.96875 24.386719 43.085938 25.375 42.6875L35.21875 38.90625C35.449219 38.816406 35.675781 38.773438 35.90625 38.78125 Z M 9.875 46L40.125 46C40.582031 46 41 46.402344 41 47L41 48L9 48L9 47C9 46.402344 9.417969 46 9.875 46Z"/></svg>