<svg xmlns="http://www.w3.org/2000/svg" xmlns:xlink="http://www.w3.org/1999/xlink" viewBox="0 0 50 50"><path d="M18 3C16.346 3 15 4.346 15 6L15 24L35 24L35 6C35 4.346 33.654 3 32 3L18 3 z M 11.984375 17.986328 A 1.0001 1.0001 0 0 0 11 19L11 34C11 37.301625 13.698375 40 17 40L22 40L22 46L17 46 A 1.0001 1.0001 0 1 0 17 48L33 48 A 1.0001 1.0001 0 1 0 33 46L28 46L28 40L33 40C36.301625 40 39 37.301625 39 34L39 19 A 1.0001 1.0001 0 1 0 37 19L37 34C37 36.220375 35.220375 38 33 38L17 38C14.779625 38 13 36.220375 13 34L13 19 A 1.0001 1.0001 0 0 0 11.984375 17.986328 z M 15 26L15 33C15 34.654 16.346 36 18 36L32 36C33.654 36 35 34.654 35 33L35 26L15 26 z M 25 29C26.105 29 27 29.895 27 31C27 32.105 26.105 33 25 33C23.895 33 23 32.105 23 31C23 29.895 23.895 29 25 29 z"/></svg>