<svg xmlns="http://www.w3.org/2000/svg" xmlns:xlink="http://www.w3.org/1999/xlink" viewBox="0 0 50 50"><path d="M25 0C18.921875 0 14 4.785156 14 10.71875L14 11L21.5 11C22.050781 11 22.5 11.449219 22.5 12C22.5 12.550781 22.050781 13 21.5 13L14 13L14 15L21.5 15C22.050781 15 22.5 15.449219 22.5 16C22.5 16.550781 22.050781 17 21.5 17L14 17L14 19L21.5 19C22.050781 19 22.5 19.449219 22.5 20C22.5 20.550781 22.050781 21 21.5 21L14 21L14 23.28125C14 29.214844 18.921875 34 25 34C31.078125 34 36 29.214844 36 23.28125L36 21L28.5 21C27.945313 21 27.5 20.550781 27.5 20C27.5 19.449219 27.945313 19 28.5 19L36 19L36 17L28.5 17C27.945313 17 27.5 16.550781 27.5 16C27.5 15.449219 27.945313 15 28.5 15L36 15L36 13L28.5 13C27.945313 13 27.5 12.550781 27.5 12C27.5 11.449219 27.945313 11 28.5 11L36 11L36 10.71875C36 4.785156 31.078125 0 25 0 Z M 9.8125 17.125C9.402344 17.210938 9.113281 17.582031 9.125 18L9.125 23C9.125 30.714844 14.6875 37.183594 22 38.59375L22 44L28 44L28 38.59375C35.3125 37.183594 40.875 30.714844 40.875 23L40.875 18C40.875 17.515625 40.484375 17.125 40 17.125C39.515625 17.125 39.125 17.515625 39.125 18L39.125 23C39.125 30.800781 32.800781 37.125 25 37.125C17.199219 37.125 10.875 30.800781 10.875 23L10.875 18C10.878906 17.75 10.773438 17.511719 10.589844 17.34375C10.402344 17.175781 10.15625 17.09375 9.90625 17.125C9.875 17.125 9.84375 17.125 9.8125 17.125 Z M 15.5 46C13.585938 46 12.03125 47.5625 12.03125 49.46875L12 50L37.875 49.9375L37.90625 49.46875C37.90625 47.5625 36.351563 46 34.4375 46Z"/></svg>