<svg xmlns="http://www.w3.org/2000/svg" xmlns:xlink="http://www.w3.org/1999/xlink" viewBox="0 0 32 32"><path d="M13 4C11.90625 4 11 4.90625 11 6L11 18C11 19.09375 11.90625 20 13 20L19 20C20.09375 20 21 19.09375 21 18L21 6C21 4.90625 20.09375 4 19 4 Z M 13 6L19 6L19 18L13 18 Z M 7 14L7 18C7 21.300781 9.699219 24 13 24L15 24L15 26L11 26L11 28L21 28L21 26L17 26L17 24L19 24C22.300781 24 25 21.300781 25 18L25 14L23 14L23 18C23 20.21875 21.21875 22 19 22L13 22C10.78125 22 9 20.21875 9 18L9 14Z"/></svg>