<svg xmlns="http://www.w3.org/2000/svg" xmlns:xlink="http://www.w3.org/1999/xlink" viewBox="0 0 50 50"><path d="M3 8C1.355469 8 0 9.355469 0 11L0 39C0 40.644531 1.355469 42 3 42L5 42L5 43C5 44.09375 5.90625 45 7 45L10 45C11.09375 45 12 44.09375 12 43L12 42L38 42L38 43C38 44.09375 38.90625 45 40 45L43 45C44.09375 45 45 44.09375 45 43L45 42L47 42C48.644531 42 50 40.644531 50 39L50 11C50 9.355469 48.644531 8 47 8 Z M 3 10L47 10C47.5625 10 48 10.4375 48 11L48 39C48 39.5625 47.5625 40 47 40L39.1875 40C39.054688 39.972656 38.914063 39.972656 38.78125 40L6.1875 40C6.054688 39.972656 5.914063 39.972656 5.78125 40L3 40C2.4375 40 2 39.5625 2 39L2 11C2 10.4375 2.4375 10 3 10 Z M 5 13L5 37L40 37L40 13 Z M 7 15L38 15L38 35L7 35 Z M 44 16C42.894531 16 42 16.894531 42 18C42 19.105469 42.894531 20 44 20C45.105469 20 46 19.105469 46 18C46 16.894531 45.105469 16 44 16 Z M 34.15625 19.9375C33.957031 19.933594 33.761719 19.988281 33.59375 20.09375C33.59375 20.09375 28.964844 22 26.125 22C24.707031 22 23.75 21.59375 22.59375 21.09375C21.4375 20.59375 20.066406 20 18.21875 20C14.523438 20 10.5625 22.09375 10.5625 22.09375C10.0625 22.335938 9.851563 22.9375 10.09375 23.4375C10.335938 23.9375 10.9375 24.148438 11.4375 23.90625C11.4375 23.90625 15.332031 22 18.21875 22C19.664063 22 20.628906 22.40625 21.78125 22.90625C22.933594 23.40625 24.296875 24 26.125 24C29.785156 24 34.40625 21.90625 34.40625 21.90625C34.894531 21.78125 35.214844 21.3125 35.148438 20.8125C35.085938 20.3125 34.660156 19.9375 34.15625 19.9375 Z M 44 23C42.894531 23 42 23.894531 42 25C42 26.105469 42.894531 27 44 27C45.105469 27 46 26.105469 46 25C46 23.894531 45.105469 23 44 23 Z M 34.15625 25.9375C33.957031 25.933594 33.761719 25.988281 33.59375 26.09375C33.59375 26.09375 28.964844 28 26.125 28C24.707031 28 23.75 27.59375 22.59375 27.09375C21.4375 26.59375 20.066406 26 18.21875 26C14.523438 26 10.5625 28.09375 10.5625 28.09375C10.0625 28.335938 9.851563 28.9375 10.09375 29.4375C10.335938 29.9375 10.9375 30.148438 11.4375 29.90625C11.4375 29.90625 15.332031 28 18.21875 28C19.664063 28 20.628906 28.40625 21.78125 28.90625C22.933594 29.40625 24.296875 30 26.125 30C29.785156 30 34.40625 27.90625 34.40625 27.90625C34.894531 27.78125 35.214844 27.3125 35.148438 26.8125C35.085938 26.3125 34.660156 25.9375 34.15625 25.9375 Z M 44 30C42.894531 30 42 30.894531 42 32C42 33.105469 42.894531 34 44 34C45.105469 34 46 33.105469 46 32C46 30.894531 45.105469 30 44 30 Z M 7 42L10 42L10 43L7 43 Z M 40 42L43 42L43 43L40 43Z"/></svg>