<svg xmlns="http://www.w3.org/2000/svg" xmlns:xlink="http://www.w3.org/1999/xlink" viewBox="0 0 50 50"><path d="M18 3C16.35503 3 15 4.3550302 15 6L15 33C15 34.64497 16.35503 36 18 36L32 36C33.64497 36 35 34.64497 35 33L35 6C35 4.3550302 33.64497 3 32 3L18 3 z M 18 5L32 5C32.56503 5 33 5.4349698 33 6L33 24L17 24L17 6C17 5.4349698 17.43497 5 18 5 z M 11.984375 17.986328 A 1.0001 1.0001 0 0 0 11 19L11 34C11 37.301625 13.698375 40 17 40L22 40L22 46L17 46 A 1.0001 1.0001 0 1 0 17 48L22.832031 48 A 1.0001 1.0001 0 0 0 23.158203 48L26.832031 48 A 1.0001 1.0001 0 0 0 27.158203 48L33 48 A 1.0001 1.0001 0 1 0 33 46L28 46L28 40L33 40C36.301625 40 39 37.301625 39 34L39 19 A 1.0001 1.0001 0 1 0 37 19L37 34C37 36.220375 35.220375 38 33 38L27.167969 38 A 1.0001 1.0001 0 0 0 26.841797 38L23.154297 38 A 1.0001 1.0001 0 0 0 22.984375 37.986328 A 1.0001 1.0001 0 0 0 22.839844 38L17 38C14.779625 38 13 36.220375 13 34L13 19 A 1.0001 1.0001 0 0 0 11.984375 17.986328 z M 17 26L33 26L33 33C33 33.56503 32.56503 34 32 34L18 34C17.43497 34 17 33.56503 17 33L17 26 z M 25 28 A 2 2 0 0 0 25 32 A 2 2 0 0 0 25 28 z M 24 40L26 40L26 46L24 46L24 40 z"/></svg>