<svg xmlns="http://www.w3.org/2000/svg" xmlns:xlink="http://www.w3.org/1999/xlink" viewBox="0 0 50 50"><path d="M25 -0.03125C18.9375 -0.03125 13.96875 4.773438 13.96875 10.71875L13.96875 23.28125C13.96875 29.226563 18.9375 34.03125 25 34.03125C31.0625 34.03125 36.03125 29.226563 36.03125 23.28125L36.03125 10.71875C36.03125 4.773438 31.0625 -0.03125 25 -0.03125 Z M 25 2.03125C29.984375 2.03125 33.96875 5.914063 33.96875 10.71875L33.96875 11L28.5 11C28.46875 11 28.4375 11 28.40625 11C27.855469 11.027344 27.425781 11.496094 27.453125 12.046875C27.480469 12.597656 27.949219 13.027344 28.5 13L33.96875 13L33.96875 15L28.5 15C28.46875 15 28.4375 15 28.40625 15C27.855469 15.027344 27.425781 15.496094 27.453125 16.046875C27.480469 16.597656 27.949219 17.027344 28.5 17L33.96875 17L33.96875 19L28.5 19C28.46875 19 28.4375 19 28.40625 19C27.855469 19.027344 27.425781 19.496094 27.453125 20.046875C27.480469 20.597656 27.949219 21.027344 28.5 21L33.96875 21L33.96875 23.28125C33.96875 28.085938 29.984375 31.96875 25 31.96875C20.015625 31.96875 16.03125 28.085938 16.03125 23.28125L16.03125 21L21.5 21C21.859375 21.003906 22.195313 20.816406 22.378906 20.503906C22.558594 20.191406 22.558594 19.808594 22.378906 19.496094C22.195313 19.183594 21.859375 18.996094 21.5 19L16.03125 19L16.03125 17L21.5 17C21.859375 17.003906 22.195313 16.816406 22.378906 16.503906C22.558594 16.191406 22.558594 15.808594 22.378906 15.496094C22.195313 15.183594 21.859375 14.996094 21.5 15L16.03125 15L16.03125 13L21.5 13C21.859375 13.003906 22.195313 12.816406 22.378906 12.503906C22.558594 12.191406 22.558594 11.808594 22.378906 11.496094C22.195313 11.183594 21.859375 10.996094 21.5 11L16.03125 11L16.03125 10.71875C16.03125 5.914063 20.015625 2.03125 25 2.03125 Z M 9.8125 17.125C9.402344 17.210938 9.113281 17.582031 9.125 18L9.125 23C9.125 30.703125 14.671875 37.167969 21.96875 38.59375L21.96875 45L15.46875 45C13.566406 45 12 46.570313 12 48.46875L12 49.9375L37.875 49.9375L37.875 48.46875C37.875 46.570313 36.308594 45 34.40625 45L28.03125 45L28.03125 38.59375C35.328125 37.167969 40.875 30.703125 40.875 23L40.875 18C40.875 17.515625 40.484375 17.125 40 17.125C39.515625 17.125 39.125 17.515625 39.125 18L39.125 23C39.125 30.800781 32.800781 37.125 25 37.125C17.199219 37.125 10.875 30.800781 10.875 23L10.875 18C10.878906 17.75 10.773438 17.511719 10.589844 17.34375C10.402344 17.175781 10.15625 17.09375 9.90625 17.125C9.875 17.125 9.84375 17.125 9.8125 17.125 Z M 24.03125 38.8125C24.351563 38.832031 24.675781 38.875 25 38.875C25.324219 38.875 25.648438 38.832031 25.96875 38.8125L25.96875 44.96875L24.03125 44.96875 Z M 15.46875 47L22.75 47C22.832031 47.019531 22.914063 47.03125 23 47.03125L27 47.03125C27.074219 47.027344 27.148438 47.019531 27.21875 47L34.40625 47C35.046875 47 35.472656 47.421875 35.6875 47.96875L14.1875 47.96875C14.402344 47.421875 14.824219 47 15.46875 47Z"/></svg>