<svg xmlns="http://www.w3.org/2000/svg" xmlns:xlink="http://www.w3.org/1999/xlink" viewBox="0 0 50 50"><path d="M19.03125 0.0625C18.9375 0.0820313 18.839844 0.117188 18.75 0.15625L11.59375 3.125C10.855469 3.433594 10.476563 4.308594 10.78125 5.0625L11.125 6.03125C11.351563 6.585938 11.902344 6.9375 12.5 6.9375C12.695313 6.9375 12.882813 6.886719 13.0625 6.8125L13.8125 6.5L14.375 7.8125L19.96875 5.53125L19.375 4.1875L20.21875 3.84375C20.585938 3.691406 20.882813 3.398438 21.03125 3.03125C21.179688 2.667969 21.152344 2.292969 21 1.9375L20.6875 0.9375C20.414063 0.304688 19.683594 -0.0625 19.03125 0.0625 Z M 22.28125 6.9375C21.867188 6.90625 21.464844 7.054688 20.90625 7.28125L14.96875 9.71875C13.339844 10.367188 13.085938 10.964844 13.75 12.625L18.03125 22.9375L28.0625 18.9375L23.75 8.46875C23.476563 7.777344 23.257813 7.273438 22.6875 7.03125C22.546875 6.96875 22.417969 6.949219 22.28125 6.9375 Z M 12.15625 13.96875C7.882813 16.5 5.957031 21.855469 7.875 26.59375L9.28125 29.9375C10.945313 28.097656 13.328125 26.90625 16 26.90625C16.035156 26.90625 16.058594 26.9375 16.09375 26.9375L14.84375 23.75C14.496094 22.886719 14.65625 21.933594 15.15625 21.21875 Z M 28.8125 20.8125L18.78125 24.8125L19.40625 26.34375C19.507813 26.585938 19.699219 26.773438 19.9375 26.875L22.78125 28.09375C22.90625 28.148438 23.054688 28.1875 23.1875 28.1875C23.3125 28.1875 23.445313 28.140625 23.5625 28.09375L27.65625 26.46875C27.902344 26.371094 28.082031 26.179688 28.1875 25.9375L29.4375 23.0625C29.542969 22.816406 29.539063 22.558594 29.4375 22.3125 Z M 35.5 27.40625C35.457031 27.414063 35.414063 27.425781 35.375 27.4375C35.289063 27.449219 35.207031 27.46875 35.125 27.5L22.28125 32.78125C21.105469 30.496094 18.742188 28.90625 16 28.90625C12.09375 28.90625 8.90625 32.09375 8.90625 36C8.90625 39.90625 12.09375 43.09375 16 43.09375C19.90625 43.09375 23.09375 39.90625 23.09375 36C23.09375 35.542969 23.019531 35.089844 22.9375 34.65625L35.875 29.375C36.417969 29.269531 36.777344 28.746094 36.671875 28.203125C36.566406 27.660156 36.042969 27.300781 35.5 27.40625 Z M 35.84375 36.78125C35.378906 36.78125 34.933594 36.863281 34.5 37.03125L24.625 40.84375C24.347656 40.953125 24.015625 40.957031 23.65625 40.875C23.144531 41.679688 22.515625 42.394531 21.78125 43L38.6875 43C38.921875 42.726563 39.128906 42.433594 39.28125 42.09375C39.691406 41.171875 39.738281 40.160156 39.375 39.21875C38.816406 37.773438 37.394531 36.78125 35.84375 36.78125 Z M 9.875 45C8.289063 45 7 46.347656 7 48L7 49C7 49.554688 7.449219 50 8 50L42 50C42.554688 50 43 49.554688 43 49L43 48C43 46.347656 41.710938 45 40.125 45Z"/></svg>