<svg xmlns="http://www.w3.org/2000/svg" xmlns:xlink="http://www.w3.org/1999/xlink" viewBox="0 0 50 50"><path d="M30 0C28.898438 0 28 0.898438 28 2L35 2C35 0.898438 34.101563 0 33 0 Z M 14 3C10.941406 3 9.683594 4.457031 7.84375 7.90625C6.035156 11.296875 3 17.410156 3 20.375C3 23.527344 5.421875 26 8.5 26L38.96875 26C42.410156 26 45 23 45 19C45 16.578125 44.210938 11.664063 43.53125 8.1875C42.898438 4.949219 40.671875 3 37.59375 3 Z M 18 8L35 8C36.65625 8 38 9.34375 38 11C38 12.65625 36.65625 14 35 14L18 14C16.34375 14 15 12.65625 15 11C15 9.34375 16.34375 8 18 8 Z M 32 27L32 33.5625C30.140625 35.25 28.308594 36.457031 26.8125 37.8125C25.230469 39.242188 24 40.988281 24 43.375C24 45.734375 25.121094 47.554688 26.8125 48.59375C28.503906 49.632813 30.679688 50 33 50C35.320313 50 37.496094 49.632813 39.1875 48.59375C40.878906 47.554688 42 45.734375 42 43.375C42 40.984375 40.773438 39.246094 39.1875 37.8125C37.6875 36.453125 35.84375 35.234375 34 33.5625L34 27 Z M 32 36.09375L32 47.96875C30.328125 47.863281 28.882813 47.492188 27.875 46.875C26.671875 46.136719 26 45.160156 26 43.375C26 41.617188 26.757813 40.578125 28.15625 39.3125C29.152344 38.410156 30.542969 37.3125 32 36.09375 Z M 34 36.125C35.453125 37.332031 36.84375 38.375 37.84375 39.28125C39.246094 40.550781 40 41.621094 40 43.375C40 45.160156 39.328125 46.136719 38.125 46.875C37.117188 47.492188 35.671875 47.863281 34 47.96875Z"/></svg>