<svg xmlns="http://www.w3.org/2000/svg" xmlns:xlink="http://www.w3.org/1999/xlink" viewBox="0 0 50 50"><path d="M30 0C28.90625 0 28 0.90625 28 2L28 3L14 3C12.675781 3 11.476563 3.308594 10.5 4.125C9.523438 4.941406 8.785156 6.140625 7.84375 7.90625C6.914063 9.652344 5.71875 11.996094 4.75 14.28125C3.78125 16.566406 3 18.6875 3 20.375C3 23.527344 5.484375 26 8.5 26L32 26L32 33.5625C30.140625 35.25 28.308594 36.457031 26.8125 37.8125C25.230469 39.242188 24 40.988281 24 43.375C24 45.734375 25.121094 47.554688 26.8125 48.59375C28.449219 49.597656 30.542969 49.976563 32.78125 50C32.792969 50 32.800781 50 32.8125 50C32.875 50 32.9375 50 33 50C33.074219 50 33.144531 50 33.21875 50C33.230469 50 33.238281 50 33.25 50C35.476563 49.972656 37.558594 49.59375 39.1875 48.59375C40.878906 47.554688 42 45.734375 42 43.375C42 40.984375 40.773438 39.246094 39.1875 37.8125C37.6875 36.453125 35.84375 35.234375 34 33.5625L34 26L38.96875 26C42.472656 26 45 22.804688 45 19C45 16.296875 44.125 11.238281 43.53125 8.1875C43.203125 6.5 42.4375 5.160156 41.375 4.28125C40.3125 3.402344 38.980469 3 37.59375 3L35 3L35 2C35 0.90625 34.09375 0 33 0 Z M 30 2L33 2L33 3L30 3 Z M 14 5L37.59375 5C38.605469 5 39.460938 5.265625 40.125 5.8125C40.789063 6.359375 41.300781 7.230469 41.5625 8.5625C42.144531 11.554688 43 16.761719 43 19C43 21.960938 41.265625 24 38.96875 24L33.1875 24C33.054688 23.972656 32.914063 23.972656 32.78125 24L8.5 24C6.542969 24 5 22.515625 5 20.375C5 19.414063 5.660156 17.261719 6.59375 15.0625C7.527344 12.863281 8.679688 10.554688 9.59375 8.84375C10.496094 7.152344 11.179688 6.160156 11.78125 5.65625C12.382813 5.152344 12.929688 5 14 5 Z M 18 7C15.800781 7 14 8.800781 14 11C14 13.199219 15.800781 15 18 15L35 15C37.199219 15 39 13.199219 39 11C39 8.800781 37.199219 7 35 7 Z M 18 9L35 9C36.117188 9 37 9.882813 37 11C37 12.117188 36.117188 13 35 13L18 13C16.882813 13 16 12.117188 16 11C16 9.882813 16.882813 9 18 9 Z M 32 36.09375L32 47.96875C30.328125 47.863281 28.882813 47.492188 27.875 46.875C26.671875 46.136719 26 45.15625 26 43.375C26 41.621094 26.757813 40.578125 28.15625 39.3125C29.152344 38.410156 30.542969 37.3125 32 36.09375 Z M 34 36.125C35.453125 37.332031 36.84375 38.375 37.84375 39.28125C39.246094 40.550781 40 41.621094 40 43.375C40 45.15625 39.328125 46.136719 38.125 46.875C37.117188 47.492188 35.671875 47.863281 34 47.96875Z"/></svg>