<?xml version="1.0" encoding="utf-8"?><svg version="1.1" id="Layer_1" xmlns="http://www.w3.org/2000/svg" xmlns:xlink="http://www.w3.org/1999/xlink" x="0px" y="0px" viewBox="0 0 85.89 122.88" style="enable-background:new 0 0 85.89 122.88" xml:space="preserve"><g><path d="M10.36,23.42h53.68c0.07,0,0.15,0,0.24,0.01c0.68,0.06,1.31,0.36,1.78,0.82c0.5,0.49,0.82,1.16,0.82,1.91 c0,0.07,0,0.15-0.01,0.22l0,0.04L66.38,32h17.96c0.86,0,1.55,0.69,1.55,1.55c0,0.06,0,0.13-0.01,0.19 c-0.44,11-2.54,19.75-6.38,26.12c-3.82,6.35-9.31,10.35-16.55,11.9l-1.4,16.28c-0.06,0.73-0.38,1.4-0.86,1.88 c-0.04,0.04-0.08,0.08-0.13,0.11c-0.49,0.44-1.12,0.7-1.83,0.7H15.02c-0.77,0-1.45-0.31-1.96-0.82l0,0 c-0.49-0.49-0.8-1.16-0.86-1.9L7.54,26.37c-0.01-0.08-0.01-0.15-0.01-0.2c0-0.75,0.32-1.42,0.82-1.92c0.47-0.46,1.11-0.77,1.8-0.82 C10.24,23.43,10.31,23.42,10.36,23.42L10.36,23.42z M13.69,103l0.12-5.43c0.01-0.85,0.7-1.52,1.55-1.52v-0.01h44.09 c0.86,0,1.55,0.69,1.55,1.55v5.43l13.1,17.38c0.52,0.68,0.38,1.65-0.3,2.17c-0.28,0.21-0.61,0.31-0.93,0.31v0H1.55 c-0.86,0-1.55-0.69-1.55-1.55c0-0.41,0.16-0.79,0.43-1.07L13.69,103L13.69,103z M37.21,101.83c3.14,0,5.69,2.55,5.69,5.69 c0,3.14-2.55,5.69-5.69,5.69c-3.14,0-5.69-2.55-5.69-5.69C31.52,104.38,34.07,101.83,37.21,101.83L37.21,101.83z M16.88,99.14 l-0.11,4.42h0c0,0.32-0.11,0.64-0.32,0.92L4.69,119.78h65.06l-11.49-15.25c-0.23-0.27-0.36-0.62-0.36-1v-4.39H16.88L16.88,99.14z M6.72,11.4h26.99c-1.71-1.1-2.85-2.41-2.85-5.21c0-2.8,2.77-6.19,6.19-6.19c3.42,0,6.19,3.39,6.19,6.19c0,2.8-1.14,4.11-2.85,5.21 h27.3c0.47,0,0.86,0.39,0.86,0.86v6.08c0,0.47-0.39,0.86-0.86,0.86H6.72c-0.47,0-0.86-0.39-0.86-0.86v-6.08 C5.86,11.79,6.25,11.4,6.72,11.4L6.72,11.4z M66.12,36.09l-2.88,31.44c15.25-3.88,18.53-17.24,19.31-31.44H66.12L66.12,36.09z M31.81,65.77c-0.86,0-1.55-0.69-1.55-1.55c0-0.86,0.69-1.55,1.55-1.55h11.31c0.86,0,1.55,0.69,1.55,1.55 c0,0.86-0.69,1.55-1.55,1.55H31.81L31.81,65.77z M31.81,38c-0.86,0-1.55-0.69-1.55-1.55c0-0.86,0.69-1.55,1.55-1.55h11.31 c0.86,0,1.55,0.69,1.55,1.55c0,0.86-0.69,1.55-1.55,1.55H31.81L31.81,38z M31.81,51.88c-0.86,0-1.55-0.69-1.55-1.55 c0-0.86,0.69-1.55,1.55-1.55h11.31c0.86,0,1.55,0.69,1.55,1.55c0,0.86-0.69,1.55-1.55,1.55H31.81L31.81,51.88z M31.81,79.65 c-0.86,0-1.55-0.69-1.55-1.55c0-0.86,0.69-1.55,1.55-1.55h11.31c0.86,0,1.55,0.69,1.55,1.55c0,0.86-0.69,1.55-1.55,1.55H31.81 L31.81,79.65z M63.74,26.78H10.66l4.61,60.24h43.2L63.74,26.78L63.74,26.78z M10.63,26.39l0,0.02l0,0L10.63,26.39L10.63,26.39z"/></g></svg>