<svg id="Layer_1" data-name="Layer 1" xmlns="http://www.w3.org/2000/svg" viewBox="0 0 69.35 122.88"><defs><style>.cls-1{fill-rule:evenodd;}</style></defs><title>mobile-charge</title><path class="cls-1" d="M34.68,37.22A24.22,24.22,0,1,1,10.46,61.44,24.21,24.21,0,0,1,34.68,37.22ZM13.28,0h42.8A13.26,13.26,0,0,1,69.35,13.28V109.6a13.26,13.26,0,0,1-13.27,13.28H13.28A13.28,13.28,0,0,1,0,109.6V13.26A13.25,13.25,0,0,1,13.28,0ZM3.91,104.44H65.43v-90H3.91v90Zm30.75,4.16a5.46,5.46,0,1,1-5.46,5.45,5.45,5.45,0,0,1,5.46-5.45Zm3.91-64.31L37.08,58h6.71L30.46,80.23l3-15.59-7.95.14L38.75,42.65l-.18,1.64Z"/></svg>