<svg xmlns="http://www.w3.org/2000/svg" xmlns:xlink="http://www.w3.org/1999/xlink" viewBox="0 0 50 50"><path d="M12 2C7.916 2 5.3013906 13.582 5.0253906 25L5 25C5 25.184 5.011625 25.355156 5.015625 25.535156C5.006625 26.024156 5 26.513 5 27C5 41.327 11.355 48 25 48C38.645 48 45 41.327 45 27C45 26.513 44.993375 26.024156 44.984375 25.535156C44.988375 25.355156 45 25.184 45 25L44.974609 25C44.698609 13.582 42.084 2 38 2C33 2 33 10 33 10L32 10C30.35503 10 29 11.35503 29 13C29 14.64497 30.35503 16 32 16L34 16 A 1.0001 1.0001 0 0 0 34.199219 15.980469 A 1.0001 1.0001 0 0 0 34.203125 15.978516C36.312969 15.870167 38 14.136366 38 12C38 7.453 38.3255 5.2952656 38.5625 4.3222656C40.1865 5.9142656 42.805422 13.699609 42.982422 25.724609C42.625422 37.030609 33.919 38 25 38C16.081 38 7.3745781 37.030609 7.0175781 25.724609C7.1945781 13.698609 9.8135 5.9142656 11.4375 4.3222656C11.6745 5.2952656 12 7.453 12 12C12 14.138421 13.69004 15.875178 15.802734 15.980469 A 1.0001 1.0001 0 0 0 16 16L18 16C19.64497 16 21 14.64497 21 13C21 11.35503 19.64497 10 18 10L17 10C17 10 17 2 12 2 z M 17 12L18 12C18.56503 12 19 12.43497 19 13C19 13.56503 18.56503 14 18 14L17 14L17 12 z M 32 12L33 12L33 14L32 14C31.43497 14 31 13.56503 31 13C31 12.43497 31.43497 12 32 12 z M 25 41C26.105 41 27 41.895 27 43C27 44.105 26.105 45 25 45C23.895 45 23 44.105 23 43C23 41.895 23.895 41 25 41 z"/></svg>