<svg xmlns="http://www.w3.org/2000/svg" xmlns:xlink="http://www.w3.org/1999/xlink" viewBox="0 0 50 50"><path d="M12 2C11.319444 2 10.709091 2.3147824 10.21875 2.7480469C9.7284088 3.1813113 9.3154634 3.7470546 8.9277344 4.4277344C8.1522764 5.7890939 7.4828611 7.6326237 6.90625 9.875C5.8712128 13.900145 5.1644975 19.201616 5.0292969 25L5 25C5 25.24788 5.0102364 25.48415 5.0175781 25.724609C5.0112445 26.149738 5 26.570187 5 27C5 34.142857 6.5349419 39.43923 9.9042969 42.943359C13.273652 46.447489 18.346154 48 25 48C31.653846 48 36.726348 46.447489 40.095703 42.943359C43.465058 39.43923 45 34.142857 45 27C45 26.570187 44.988756 26.149738 44.982422 25.724609C44.989764 25.48415 45 25.24788 45 25L44.970703 25C44.835502 19.201616 44.128787 13.900145 43.09375 9.875C42.517139 7.6326237 41.847724 5.7890939 41.072266 4.4277344C40.684537 3.7470546 40.271591 3.1813113 39.78125 2.7480469C39.290909 2.3147824 38.680556 2 38 2C36.516667 2 35.29293 2.5557651 34.427734 3.3632812C33.562539 4.1707975 33.031604 5.1896327 32.683594 6.1640625C31.987572 8.112922 32 10 32 10L31 10C29.35503 10 28 11.35503 28 13C28 14.64497 29.35503 16 31 16L33 16L34 16C36.197334 16 38 14.197334 38 12C38 8.0416667 38.250583 5.8447401 38.480469 4.6953125C38.508696 4.5541773 38.533553 4.4738589 38.560547 4.3632812C38.79094 4.5932721 39.058105 4.9316947 39.333984 5.4160156C39.964776 6.5234061 40.607861 8.2423763 41.15625 10.375C42.183581 14.370174 42.895307 19.838745 42.982422 25.792969C42.796812 31.496804 40.610458 34.33403 37.416016 35.986328C34.075423 37.714221 29.462963 38 25 38C20.537037 38 15.924577 37.714221 12.583984 35.986328C9.3895423 34.33403 7.2031881 31.496804 7.0175781 25.792969C7.1046926 19.838745 7.8164195 14.370174 8.84375 10.375C9.3921389 8.2423763 10.035224 6.5234061 10.666016 5.4160156C10.941895 4.9316947 11.20906 4.5932721 11.439453 4.3632812C11.466447 4.4738589 11.491304 4.5541773 11.519531 4.6953125C11.749416 5.8447402 12 8.0416667 12 12C12 14.197334 13.802666 16 16 16L17 16L19 16C20.64497 16 22 14.64497 22 13C22 11.35503 20.64497 10 19 10L18 10C18 10 18.012428 8.112922 17.316406 6.1640625C16.968396 5.1896327 16.437461 4.1707975 15.572266 3.3632812C14.70707 2.5557652 13.483333 2 12 2 z M 13.484375 4.328125C13.751217 4.4619328 13.993323 4.6229347 14.208984 4.8242188C14.750039 5.3292025 15.156604 6.0603673 15.433594 6.8359375C15.987572 8.387078 16 10 16 10L16 11L16 14C14.883334 14 14 13.116666 14 12C14 7.9780302 13.752966 5.6813727 13.484375 4.328125 z M 36.515625 4.328125C36.247034 5.6813727 36 7.9780302 36 12C36 13.116666 35.116666 14 34 14L34 11L34 10C34 10 34.01243 8.387078 34.566406 6.8359375C34.843396 6.0603673 35.249961 5.3292025 35.791016 4.8242188C36.006677 4.6229347 36.248783 4.4619328 36.515625 4.328125 z M 18 12L19 12C19.56503 12 20 12.43497 20 13C20 13.56503 19.56503 14 19 14L18 14L18 12 z M 31 12L32 12L32 14L31 14C30.43497 14 30 13.56503 30 13C30 12.43497 30.43497 12 31 12 z M 7.7988281 34.564453C8.8630823 35.94271 10.181477 36.995807 11.666016 37.763672C15.575423 39.785779 20.462963 40 25 40C29.537037 40 34.424577 39.785779 38.333984 37.763672C39.818523 36.995807 41.136918 35.94271 42.201172 34.564453C41.490954 37.512953 40.315309 39.829188 38.654297 41.556641C35.773652 44.552511 31.346154 46 25 46C18.653846 46 14.226348 44.552511 11.345703 41.556641C9.6846915 39.829188 8.5090461 37.512953 7.7988281 34.564453 z M 25 41 A 2 2 0 0 0 23 43 A 2 2 0 0 0 25 45 A 2 2 0 0 0 27 43 A 2 2 0 0 0 25 41 z"/></svg>