<svg xmlns="http://www.w3.org/2000/svg" xmlns:xlink="http://www.w3.org/1999/xlink" viewBox="0 0 50 50"><path d="M12 2C10.897 2 10 2.897 10 4L7 4C5.346 4 4 5.346 4 7L4 42C4 43.654 5.346 45 7 45L9 45L9 46C9 47.103 9.897 48 11 48L14 48C15.103 48 16 47.103 16 46L16 45L34 45L34 46C34 47.103 34.897 48 36 48L39 48C40.103 48 41 47.103 41 46L41 45L43 45C44.654 45 46 43.654 46 42L46 7C46 5.346 44.654 4 43 4L40 4C40 2.897 39.103 2 38 2L32 2C30.897 2 30 2.897 30 4L21 4C21 2.897 20.103 2 19 2L12 2 z M 10 8C11.105 8 12 8.895 12 10C12 11.105 11.105 12 10 12C8.895 12 8 11.105 8 10C8 8.895 8.895 8 10 8 z M 16 8C17.105 8 18 8.895 18 10C18 11.105 17.105 12 16 12C14.895 12 14 11.105 14 10C14 8.895 14.895 8 16 8 z M 22 8C23.105 8 24 8.895 24 10C24 11.105 23.105 12 22 12C20.895 12 20 11.105 20 10C20 8.895 20.895 8 22 8 z M 28 8C29.105 8 30 8.895 30 10C30 11.105 29.105 12 28 12C26.895 12 26 11.105 26 10C26 8.895 26.895 8 28 8 z M 40 8C41.105 8 42 8.895 42 10C42 11.105 41.105 12 40 12C38.895 12 38 11.105 38 10C38 8.895 38.895 8 40 8 z M 10 15L40 15L40 33L35.792969 33C35.921577 32.660616 36 32.296153 36 31.912109C36 27.655109 32.997 24.091891 29 23.212891L29 27C29 27.553 28.553 28 28 28C27.447 28 27 27.553 27 27L27 23L23 23L23 27C23 27.553 22.553 28 22 28C21.447 28 21 27.553 21 27L21 23.212891C17.003 24.091891 14 27.655109 14 31.912109C14 32.296153 14.078423 32.660616 14.207031 33L10 33L10 15 z M 10 35L40 35L40 39L10 39L10 35 z"/></svg>