<svg xmlns="http://www.w3.org/2000/svg" xmlns:xlink="http://www.w3.org/1999/xlink" viewBox="0 0 50 50"><path d="M12 2C10.906937 2 10 2.9069372 10 4L7 4C5.3550302 4 4 5.3550302 4 7L4 42C4 43.644459 5.3544268 45 7 45L9 45L9 46C9 47.093063 9.9069372 48 11 48L14 48C15.093063 48 16 47.093063 16 46L16 45L34 45L34 46C34 47.093063 34.906937 48 36 48L39 48C40.093063 48 41 47.093063 41 46L41 45L43 45C44.645063 45 46 43.645063 46 42L46 15.167969 A 1.0001 1.0001 0 0 0 46 14.841797L46 7C46 5.3544268 44.644459 4 43 4L40 4C40 2.9069372 39.093063 2 38 2L32 2C30.906937 2 30 2.9069372 30 4L21 4C21 2.9069372 20.093063 2 19 2L12 2 z M 7 6L10.832031 6 A 1.0001 1.0001 0 0 0 11.158203 6L19.832031 6 A 1.0001 1.0001 0 0 0 20.158203 6L30.832031 6 A 1.0001 1.0001 0 0 0 31.158203 6L38.832031 6 A 1.0001 1.0001 0 0 0 39.158203 6L43 6C43.563541 6 44 6.4355732 44 7L44 14L6 14L6 7C6 6.4349698 6.4349698 6 7 6 z M 10 8 A 2 2 0 0 0 8 10 A 2 2 0 0 0 10 12 A 2 2 0 0 0 12 10 A 2 2 0 0 0 10 8 z M 16 8 A 2 2 0 0 0 14 10 A 2 2 0 0 0 16 12 A 2 2 0 0 0 18 10 A 2 2 0 0 0 16 8 z M 22 8 A 2 2 0 0 0 20 10 A 2 2 0 0 0 22 12 A 2 2 0 0 0 24 10 A 2 2 0 0 0 22 8 z M 28 8 A 2 2 0 0 0 26 10 A 2 2 0 0 0 28 12 A 2 2 0 0 0 30 10 A 2 2 0 0 0 28 8 z M 40 8 A 2 2 0 0 0 38 10 A 2 2 0 0 0 40 12 A 2 2 0 0 0 42 10 A 2 2 0 0 0 40 8 z M 6 16L44 16L44 42C44 42.562937 43.562937 43 43 43L40.167969 43 A 1.0001 1.0001 0 0 0 39.841797 43L35.154297 43 A 1.0001 1.0001 0 0 0 34.984375 42.986328 A 1.0001 1.0001 0 0 0 34.839844 43L15.167969 43 A 1.0001 1.0001 0 0 0 14.841797 43L10.154297 43 A 1.0001 1.0001 0 0 0 9.984375 42.986328 A 1.0001 1.0001 0 0 0 9.8398438 43L7 43C6.4355732 43 6 42.563541 6 42L6 16 z M 9 19L9 20L9 40L41 40L41 19L9 19 z M 11 21L39 21L39 38L11 38L11 21 z M 11 45L14 45L14 46L11 46L11 45 z M 36 45L39 45L39 46L36 46L36 45 z"/></svg>