<svg xmlns="http://www.w3.org/2000/svg" xmlns:xlink="http://www.w3.org/1999/xlink" viewBox="0 0 50 50"><path d="M12 2C10.897 2 10 2.897 10 4L7 4C5.346 4 4 5.346 4 7L4 42C4 43.654 5.346 45 7 45L9 45L9 46C9 47.103 9.897 48 11 48L14 48C15.103 48 16 47.103 16 46L16 45L34 45L34 46C34 47.103 34.897 48 36 48L39 48C40.103 48 41 47.103 41 46L41 45L43 45C44.654 45 46 43.654 46 42L46 7C46 5.346 44.654 4 43 4L40 4C40 2.897 39.103 2 38 2L32 2C30.897 2 30 2.897 30 4L21 4C21 2.897 20.103 2 19 2L12 2 z M 10 8C11.105 8 12 8.895 12 10C12 11.105 11.105 12 10 12C8.895 12 8 11.105 8 10C8 8.895 8.895 8 10 8 z M 16 8C17.105 8 18 8.895 18 10C18 11.105 17.105 12 16 12C14.895 12 14 11.105 14 10C14 8.895 14.895 8 16 8 z M 22 8C23.105 8 24 8.895 24 10C24 11.105 23.105 12 22 12C20.895 12 20 11.105 20 10C20 8.895 20.895 8 22 8 z M 28 8C29.105 8 30 8.895 30 10C30 11.105 29.105 12 28 12C26.895 12 26 11.105 26 10C26 8.895 26.895 8 28 8 z M 40 8C41.105 8 42 8.895 42 10C42 11.105 41.105 12 40 12C38.895 12 38 11.105 38 10C38 8.895 38.895 8 40 8 z M 10 15L40 15L40 33L34.195312 33C35.309669 31.759222 36 30.043096 36 28.150391L36 27.847656C36 26.864656 35.623484 25.570719 35.146484 24.511719C35.297484 23.931719 35.418234 23.322969 35.490234 22.667969C35.540234 22.219969 35.447953 21.776906 35.251953 21.378906L36.556641 19.882812C36.690641 19.952813 36.838 20 37 20C37.552 20 38 19.552 38 19C38 18.448 37.552 18 37 18C37 17.448 36.552 17 36 17C35.448 17 35 17.448 35 18C35 18.174 35.056766 18.328703 35.134766 18.470703L33.703125 20.109375C33.282125 19.993375 32.840781 19.978469 32.425781 20.105469C31.700781 20.327469 31.022437 20.631859 30.398438 21.005859C29.510437 21.703859 28.252672 23.000953 27.763672 25.001953C27.651672 25.458953 27.242969 25.763672 26.792969 25.763672C26.713969 25.763672 26.634687 25.755328 26.554688 25.736328C26.018687 25.605328 25.689312 25.063344 25.820312 24.527344C26.179312 23.056344 26.850266 21.896 27.572266 21L20.863281 21C17.078281 21 14 24.447594 14 28.683594C14 30.352586 14.587454 31.869489 15.539062 33L10 33L10 15 z M 19 28L22 28C22.553 28 23 28.447 23 29C23 29.553 22.553 30 22 30L20 30C20 30.553 19.553 31 19 31C18.447 31 18 30.553 18 30L18 29C18 28.447 18.447 28 19 28 z M 10 35L40 35L40 39L10 39L10 35 z"/></svg>