<svg xmlns="http://www.w3.org/2000/svg" xmlns:xlink="http://www.w3.org/1999/xlink" viewBox="0 0 50 50"><path d="M12 2C10.906937 2 10 2.9069372 10 4L7 4C5.3550302 4 4 5.3550302 4 7L4 42C4 43.644459 5.3544268 45 7 45L9 45L9 46C9 47.093063 9.9069372 48 11 48L14 48C15.093063 48 16 47.093063 16 46L16 45L34 45L34 46C34 47.093063 34.906937 48 36 48L39 48C40.093063 48 41 47.093063 41 46L41 45L43 45C44.645063 45 46 43.645063 46 42L46 7C46 5.3544268 44.644459 4 43 4L40 4C40 2.9069372 39.093063 2 38 2L32 2C30.906937 2 30 2.9069372 30 4L21 4C21 2.9069372 20.093063 2 19 2L12 2 z M 7 6L10.832031 6 A 1.0001 1.0001 0 0 0 11.158203 6L19.832031 6 A 1.0001 1.0001 0 0 0 20.158203 6L30.832031 6 A 1.0001 1.0001 0 0 0 31.158203 6L38.832031 6 A 1.0001 1.0001 0 0 0 39.158203 6L43 6C43.563541 6 44 6.4355732 44 7L44 42C44 42.562937 43.562937 43 43 43L40.167969 43 A 1.0001 1.0001 0 0 0 39.841797 43L35.167969 43 A 1.0001 1.0001 0 0 0 34.841797 43L15.167969 43 A 1.0001 1.0001 0 0 0 14.841797 43L10.167969 43 A 1.0001 1.0001 0 0 0 9.8417969 43L7 43C6.4355732 43 6 42.563541 6 42L6 7C6 6.4349698 6.4349698 6 7 6 z M 10 8C8.895 8 8 8.895 8 10C8 11.105 8.895 12 10 12C11.105 12 12 11.105 12 10C12 8.895 11.105 8 10 8 z M 16 8C14.895 8 14 8.895 14 10C14 11.105 14.895 12 16 12C17.105 12 18 11.105 18 10C18 8.895 17.105 8 16 8 z M 22 8C20.895 8 20 8.895 20 10C20 11.105 20.895 12 22 12C23.105 12 24 11.105 24 10C24 8.895 23.105 8 22 8 z M 28 8C26.895 8 26 8.895 26 10C26 11.105 26.895 12 28 12C29.105 12 30 11.105 30 10C30 8.895 29.105 8 28 8 z M 40 8C38.895 8 38 8.895 38 10C38 11.105 38.895 12 40 12C41.105 12 42 11.105 42 10C42 8.895 41.105 8 40 8 z M 9 14L9 15L9 33.832031 A 1.0001 1.0001 0 0 0 9 34.158203L9 40L41 40L41 34.167969 A 1.0001 1.0001 0 0 0 41 33.841797L41 14L9 14 z M 11 16L39 16L39 33L34.195312 33C35.316006 31.748083 36 30.022362 36 28.152344L36 27.847656C36 26.230459 35.289293 24.358991 34.398438 23.185547C34.437631 22.743072 34.339369 22.32286 34.152344 21.945312L35.455078 20.453125 A 1 1 0 0 0 35.90625 20.5625 A 1 1 0 0 0 35.90625 18.5625 A 1 1 0 0 0 34.90625 17.5625 A 1 1 0 0 0 34.03125 19.044922L32.597656 20.685547C32.192339 20.573285 31.765135 20.534596 31.330078 20.667969C31.021023 20.762722 30.719101 20.876981 30.421875 21.003906 A 1.0001 1.0001 0 0 0 30.328125 21L20.863281 21C17.009057 21 14 24.518467 14 28.683594C14 30.331562 14.580574 31.858499 15.537109 33L11 33L11 16 z M 31.916016 22.582031 A 1.0001 1.0001 0 0 0 31.917969 22.582031C31.974239 22.564781 32.074459 22.597608 32.167969 22.642578 A 1.0001 1.0001 0 0 0 32.269531 22.728516C32.350621 22.816836 32.418329 22.919646 32.408203 23.011719C32.152352 25.337637 31.367142 27.198037 29.587891 28.328125 A 1.0002001 1.0002001 0 1 0 30.662109 30.015625C32.111625 29.094968 33.055012 27.7896 33.646484 26.316406C33.843633 26.9133 34 27.501149 34 27.847656L34 28.152344C34 30.908247 32.086068 33 29.869141 33L19.662109 33C17.703291 33 16 31.145479 16 28.683594C16 25.46672 18.241505 23 20.863281 23L27.523438 23C26.593772 23.957133 25.853835 25.137223 25.419922 26.529297 A 1.0004449 1.0004449 0 1 0 27.330078 27.125C28.062216 24.776168 29.804229 23.229035 31.916016 22.582031 z M 19 28 A 1.0001 1.0001 0 0 0 18 29L18 30 A 1.0001 1.0001 0 1 0 20 30L22 30 A 1.0001 1.0001 0 1 0 22 28L19 28 z M 11 35L19.662109 35L29.869141 35L39 35L39 38L11 38L11 35 z M 11 45L14 45L14 46L11 46L11 45 z M 36 45L39 45L39 46L36 46L36 45 z"/></svg>