<svg xmlns="http://www.w3.org/2000/svg" xmlns:xlink="http://www.w3.org/1999/xlink" viewBox="0 0 50 50"><path d="M15 0C11.863281 0 8.734375 0.21875 5.75 0.625C3.449219 0.988281 1.660156 2.808594 1.40625 5.09375L1.21875 7L28.78125 7L28.59375 5.09375C28.351563 2.78125 26.621094 1 24.25 0.625C21.289063 0.21875 18.136719 0 15 0 Z M 30.40625 4C30.476563 4.296875 30.5625 4.597656 30.59375 4.90625L30.6875 6L33 6C41.269531 6 48 12.730469 48 21L48 23C48 31.269531 41.269531 38 33 38L13 38L13 40L33 40C39.496094 40 45.136719 36.335938 48 30.96875L48 32C48 40.269531 41.269531 47 33 47L13 47L13 49L33 49C42.375 49 50 41.375 50 32L50 21C50 11.625 42.375 4 33 4 Z M 1.03125 9L0 19.40625C-0.253906 21.925781 1.519531 24.285156 4 24.78125C6.128906 25.238281 10.382813 26 15 26C19.617188 26 23.882813 25.234375 26 24.78125C28.492188 24.28125 30.253906 21.921875 30 19.40625L28.96875 9 Z M 2 37C0.898438 37 0 37.898438 0 39C0 40.101563 0.898438 41 2 41L10 41L12 40L12 38L10 37 Z M 2 46C0.898438 46 0 46.898438 0 48C0 49.101563 0.898438 50 2 50L10 50L12 49L12 47L10 46Z"/></svg>