<svg xmlns="http://www.w3.org/2000/svg" xmlns:xlink="http://www.w3.org/1999/xlink" viewBox="0 0 50 50"><path d="M15 0C11.148438 0 7.984375 0.289063 5.75 0.59375L5.75 0.625C3.417969 0.992188 1.65625 2.84375 1.40625 5.09375L0 19.40625C-0.253906 21.929688 1.492188 24.28125 4 24.78125C6.855469 25.394531 10.898438 26 15 26C19.101563 26 23.144531 25.394531 26 24.78125C28.507813 24.28125 30.253906 21.929688 30 19.40625L28.6875 6L33 6C41.253906 6 48 12.746094 48 21L48 23C48 31.253906 41.253906 38 33 38L13 38L13 40L33 40C39.472656 40 45.132813 36.332031 48 30.96875L48 32C48 40.253906 41.253906 47 33 47L13 47L13 49L33 49C42.34375 49 50 41.34375 50 32L50 21C50 11.65625 42.34375 4 33 4L28.34375 4C27.734375 2.226563 26.171875 0.929688 24.25 0.625L24.25 0.59375C22.015625 0.289063 18.851563 0 15 0 Z M 15 2C18.734375 2 21.773438 2.300781 23.9375 2.59375C23.945313 2.59375 23.960938 2.59375 23.96875 2.59375C25.453125 2.839844 26.441406 3.855469 26.59375 5.3125L26.75 7L3.25 7L3.40625 5.3125C3.554688 3.96875 4.578125 2.835938 6.03125 2.59375C6.039063 2.59375 6.054688 2.59375 6.0625 2.59375C8.226563 2.300781 11.265625 2 15 2 Z M 3.03125 9L26.96875 9L28 19.59375C28.148438 21.070313 27.085938 22.515625 25.59375 22.8125C22.851563 23.398438 18.898438 24 15 24C11.101563 24 7.148438 23.398438 4.40625 22.8125C2.914063 22.515625 1.851563 21.070313 2 19.59375 Z M 2 37C0.898438 37 0 37.898438 0 39C0 40.101563 0.898438 41 2 41L10 41L12 40L12 38L10 37 Z M 2 46C0.898438 46 0 46.898438 0 48C0 49.101563 0.898438 50 2 50L10 50L12 49L12 47L10 46Z"/></svg>