<svg xmlns="http://www.w3.org/2000/svg" xmlns:xlink="http://www.w3.org/1999/xlink" viewBox="0 0 50 50"><path d="M24.914062 2C17.924062 2.042 11.988375 7.3128125 11.109375 14.257812C10.914375 15.801813 10.979594 17.363828 11.308594 18.923828L15.714844 37.6875C16.036844 39.0495 17.237719 40 18.636719 40L21 40L21 47C21 47.552 21.448 48 22 48C22.552 48 23 47.552 23 47L23 40L27 40L27 47C27 47.552 27.448 48 28 48C28.552 48 29 47.552 29 47L29 40L31.423828 40C32.820828 40 34.033656 39.034828 34.347656 37.673828L38.761719 18.513672C38.765719 18.496672 38.768484 18.481844 38.771484 18.464844C39.028484 17.023844 39.066344 15.748875 38.902344 14.421875C38.539344 11.479875 37.29725 8.6700469 35.28125 6.4980469C32.57125 3.5770469 28.903062 1.985 24.914062 2 z M 24 6.0546875L24 7C24 7.553 24.447 8 25 8C25.553 8 26 7.553 26 7L26 6.0546875C28.476 6.3066875 30.71575 7.4811875 32.34375 9.2421875L31.416016 10.169922C31.025016 10.560922 31.025016 11.192984 31.416016 11.583984C31.611016 11.778984 31.867047 11.876953 32.123047 11.876953C32.379047 11.876953 32.635078 11.778984 32.830078 11.583984L33.558594 10.855469C34.232594 11.967469 34.704437 13.217453 34.898438 14.564453C34.907438 14.633453 34.915875 14.708922 34.921875 14.794922C34.985875 15.607922 34.702578 16.424297 34.142578 17.029297C33.574578 17.645297 32.767688 18 31.929688 18L18.070312 18C17.218312 18 16.403984 17.634047 15.833984 16.998047C15.266984 16.364047 14.994891 15.519687 15.087891 14.679688C15.090891 14.654687 15.100469 14.581641 15.105469 14.556641C15.293469 13.213641 15.7635 11.963563 16.4375 10.851562L17.167969 11.580078C17.362969 11.775078 17.617047 11.873047 17.873047 11.873047C18.129047 11.873047 18.385078 11.775078 18.580078 11.580078C18.971078 11.189078 18.971078 10.558969 18.580078 10.167969L17.650391 9.2363281C19.276391 7.4803281 21.519 6.3056875 24 6.0546875 z M 25 11C24.447 11 24 11.447 24 12L24 15.277344C23.405 15.624344 23 16.263 23 17L27 17C27 16.263 26.595 15.624344 26 15.277344L26 12C26 11.447 25.553 11 25 11 z M 35.904297 22.003906L34.150391 29.615234C32.825391 28.945234 31.921875 27.573344 31.921875 26.027344C31.921875 23.822344 33.704297 22.029906 35.904297 22.003906 z M 21 23C21.553 23 22 23.447 22 24L22 30C22 30.553 21.553 31 21 31C20.447 31 20 30.553 20 30L20 24C20 23.447 20.447 23 21 23 z"/></svg>