<svg xmlns="http://www.w3.org/2000/svg" xmlns:xlink="http://www.w3.org/1999/xlink" viewBox="0 0 50 50"><path d="M24.914062 2C17.964538 2.042086 11.982126 7.3653491 11.109375 14.257812C10.905846 15.867743 10.994072 17.430955 11.304688 18.902344 A 1.0001 1.0001 0 0 0 11.308594 18.923828L15.714844 37.685547C16.032873 39.035284 17.249161 40 18.636719 40L21 40L21 48L23 48L23 40L27 40L27 48L29 48L29 40L31.423828 40C32.815771 40 34.035429 39.030299 34.347656 37.673828L38.759766 18.511719 A 1.0001 1.0001 0 0 0 38.769531 18.464844C38.910934 17.673641 39 16.851054 39 16C39 8.2514891 32.672528 1.9537675 24.914062 2 z M 24.925781 4C31.599316 3.9602325 37 9.3365109 37 16C37 16.710331 36.92452 17.409229 36.800781 18.103516C36.800326 18.106116 36.801238 18.108828 36.800781 18.111328L35.902344 22.009766C33.750555 22.063425 32 23.836073 32 26C32 27.538717 32.882254 28.876736 34.167969 29.544922L32.398438 37.224609C32.292665 37.684139 31.895885 38 31.423828 38L29 38L27 38L23 38L21 38L18.636719 38C18.166276 38 17.770086 37.686782 17.662109 37.228516L13.261719 18.488281C12.994333 17.22167 12.919279 15.889837 13.09375 14.509766C13.838999 8.6242291 18.995305 4.0359144 24.925781 4 z M 24.984375 5.9863281 A 1.0001 1.0001 0 0 0 24.585938 6.0761719C21.900536 6.1916295 19.554348 7.3842685 17.822266 9.2167969 A 1.0001 1.0001 0 0 0 17.166016 10.03125C16.14713 11.36332 15.339345 12.863085 15.095703 14.601562 A 1.0001 1.0001 0 0 0 15.095703 14.607422C15.092903 14.628192 15.090791 14.651654 15.087891 14.677734 A 1.0001 1.0001 0 0 0 15.087891 14.679688C14.893562 16.440604 16.304723 17.998047 18.070312 17.998047L31.859375 17.998047 A 1.0001 1.0001 0 0 0 31.929688 18C33.648519 18 35.0589 16.523673 34.921875 14.792969L34.921875 14.791016C34.915475 14.708916 34.907377 14.635848 34.898438 14.570312 A 1.0001 1.0001 0 0 0 34.898438 14.564453C34.650078 12.838688 33.843549 11.350734 32.830078 10.027344 A 1.0001 1.0001 0 0 0 32.181641 9.2207031C30.448817 7.3855523 28.100106 6.1911871 25.412109 6.0761719 A 1.0001 1.0001 0 0 0 24.984375 5.9863281 z M 24.015625 8.1816406 A 1.0001 1.0001 0 0 0 25.986328 8.1816406C27.687234 8.3985242 29.228504 9.0575557 30.419922 10.166016L30.416016 10.169922 A 1.0001 1.0001 0 0 0 31.669922 11.716797C32.276825 12.65919 32.751257 13.689184 32.917969 14.847656C32.920869 14.869866 32.924234 14.902836 32.927734 14.947266 A 1.0001 1.0001 0 0 0 32.927734 14.949219C32.973324 15.520085 32.521744 15.995456 31.933594 15.998047 A 1.0001 1.0001 0 0 0 31.929688 15.998047L26.716797 15.998047C26.54196 15.702546 26.295743 15.455707 26 15.28125L26 12 A 1.0001 1.0001 0 1 0 24 12L24 15.28125C23.704257 15.455707 23.45804 15.702546 23.283203 15.998047L18.070312 15.998047C17.466596 15.998047 17.009818 15.494586 17.074219 14.900391L17.074219 14.898438C17.075004 14.891438 17.077325 14.885306 17.078125 14.878906C17.242232 13.707939 17.721142 12.667856 18.333984 11.716797 A 1.0001 1.0001 0 0 0 19.582031 10.166016L19.580078 10.164062C20.771575 9.0560628 22.314747 8.3981557 24.015625 8.1816406 z M 20.984375 22.986328 A 1.0001 1.0001 0 0 0 20 24L20 30 A 1.0001 1.0001 0 1 0 22 30L22 24 A 1.0001 1.0001 0 0 0 20.984375 22.986328 z M 35.423828 24.09375L34.646484 27.466797C34.251752 27.103295 34 26.586646 34 26C34 25.08592 34.596563 24.3386 35.423828 24.09375 z"/></svg>