<svg xmlns="http://www.w3.org/2000/svg" xmlns:xlink="http://www.w3.org/1999/xlink" viewBox="0 0 50 50"><path d="M16.519531 3.0019531C13.752429 2.9849123 11.31217 3.7743465 9.5429688 5.5429688L9.5410156 5.5429688C5.2892425 9.7921751 2.998958 15.800742 3 21.958984C3.00104 28.309268 5.3488557 34.837269 10.261719 39.748047C11.434276 40.920105 12.701515 41.941669 14.033203 42.824219C14.20275 45.151804 16.129962 47 18.5 47C18.701929 47 19.289203 46.978427 22.013672 46.287109C23.988686 46.761141 26.001581 46.997048 27.998047 47C34.170106 47.0094 40.19459 44.719323 44.457031 40.458984C44.457031 40.458984 44.458984 40.457031 44.458984 40.457031C47.289838 37.626079 47.608556 33.075507 46.136719 28.220703C44.664884 23.365901 41.392081 18.063791 36.664062 13.335938C31.936045 8.6080839 26.634152 5.3349475 21.779297 3.8632812C19.958727 3.3114063 18.180115 3.0121796 16.519531 3.0019531 z M 16.560547 5C17.970371 5.0137729 19.530462 5.2714886 21.199219 5.7773438C25.649237 7.1262907 30.726336 10.226494 35.25 14.75C39.773664 19.273507 42.873553 24.350809 44.222656 28.800781C45.571758 33.250752 45.161144 36.926673 43.044922 39.042969C40.9287 41.159265 37.250799 41.571603 32.800781 40.222656C28.350763 38.873709 23.273664 35.773507 18.75 31.25C14.226336 26.726494 11.126446 21.649191 9.7773438 17.199219C8.4282414 12.749248 8.838856 9.073327 10.955078 6.9570312C12.277717 5.6343463 14.210839 4.9770451 16.560547 5 z M 7.0117188 12.671875C7.0383043 14.29002 7.3276663 16.012588 7.8632812 17.779297C9.3351169 22.6341 12.607919 27.93621 17.335938 32.664062C22.063955 37.391917 27.365849 40.665053 32.220703 42.136719C33.985405 42.671658 35.707679 42.96116 37.324219 42.988281C34.457763 44.306678 31.255557 45.004944 28.001953 45C22.161627 44.991363 16.176633 42.830968 11.675781 38.332031C7.1646443 33.822809 5.0009597 27.814748 5 21.957031C4.9994516 18.715704 5.6978798 15.526861 7.0117188 12.671875 z"/></svg>