<svg xmlns="http://www.w3.org/2000/svg" xmlns:xlink="http://www.w3.org/1999/xlink" viewBox="0 0 50 50"><path d="M16.755859 3C14.135859 2.972 11.900984 3.7015312 10.333984 5.2695312C5.3179844 10.285531 8.6074688 22.396531 18.105469 31.894531C27.603469 41.392531 39.714469 44.682016 44.730469 39.666016C46.280469 38.116016 47.011 35.914031 47 33.332031C46.977 27.558031 43.246594 19.880406 36.683594 13.316406C30.153594 6.7864062 22.519859 3.061 16.755859 3 z M 6.0273438 11.013672C4.1763438 14.344672 2.999 18.145031 3 21.957031C3.001 28.749031 5.5806719 35.067094 10.263672 39.746094C11.425615 40.907788 12.687147 41.940684 14.033203 42.835938C14.208411 45.157998 16.133932 47 18.5 47C18.701436 47 19.288982 46.977286 21.996094 46.291016C23.932276 46.753982 25.942548 46.996963 27.998047 47L28.035156 47C31.842156 47 35.637797 45.828422 38.966797 43.982422C38.721797 43.993422 38.477563 44.009766 38.226562 44.009766C36.475563 44.009766 34.571828 43.723484 32.548828 43.146484C27.113828 41.595484 21.483406 38.102547 16.691406 33.310547C11.899406 28.518547 8.4045156 22.885172 6.8535156 17.451172C6.1895156 15.127172 5.9303437 12.970672 6.0273438 11.013672 z"/></svg>