<svg xmlns="http://www.w3.org/2000/svg" xmlns:xlink="http://www.w3.org/1999/xlink" viewBox="0 0 50 50"><path d="M26 3C25.449219 3 25 3.449219 25 4L25 7L21 7C20.789063 7 20.578125 7.0625 20.40625 7.1875L9.40625 15.1875C9.15625 15.371094 9.011719 15.660156 9 15.96875C8.988281 16.277344 9.109375 16.585938 9.34375 16.78125L15.375 21.78125C15.410156 21.808594 19 24.667969 19 29L19 39C19 40.140625 18.140625 41 17 41C16.449219 41 16 41.445313 16 42L16 46C16 46.554688 16.449219 47 17 47L43 47C43.554688 47 44 46.554688 44 46L44 42C44 41.445313 43.554688 41 43 41C41.859375 41 41 40.140625 41 39L41 8C41 7.449219 40.554688 7 40 7L37 7L37 4C37 3.449219 36.554688 3 36 3 Z M 21.3125 9L39 9L39 17L37.875 17C37.964844 16.660156 38 16.316406 38 16L38 15.6875C37.996094 15.363281 37.832031 15.058594 37.5625 14.875C37.175781 14.617188 37 14.320313 37 14L37 13.8125C37.003906 13.492188 36.851563 13.191406 36.59375 13C36.195313 12.699219 35.683594 12.28125 34.90625 12.125C34.804688 12.097656 34.699219 12.085938 34.59375 12.09375C34.300781 12.125 34.039063 12.285156 33.875 12.53125C33.644531 12.875 33.414063 13 33 13C32.933594 13 32.738281 12.957031 32.625 12.90625C32.605469 12.894531 32.582031 12.882813 32.5625 12.875C32.53125 12.851563 32.5 12.832031 32.46875 12.8125C32.152344 12.570313 32 12.289063 32 12L32 11.8125C32.003906 11.492188 31.851563 11.191406 31.59375 11C31.195313 10.699219 30.683594 10.28125 29.90625 10.125C29.804688 10.097656 29.699219 10.085938 29.59375 10.09375C29.300781 10.125 29.039063 10.285156 28.875 10.53125C28.644531 10.875 28.414063 11 28 11C27.921875 11 27.648438 10.933594 27.5625 10.875C27.160156 10.601563 26.621094 10.652344 26.28125 11C25.917969 11.363281 25.597656 11.800781 25.375 12.28125C25.226563 12.222656 25.078125 12.160156 24.90625 12.125C24.804688 12.097656 24.699219 12.085938 24.59375 12.09375C24.300781 12.125 24.039063 12.285156 23.875 12.53125C23.644531 12.875 23.414063 13 23 13C22.921875 13 22.648438 12.933594 22.5625 12.875C22.160156 12.601563 21.621094 12.652344 21.28125 13C20.523438 13.757813 20 14.804688 20 16C20 16.410156 20.070313 16.816406 20.1875 17.1875C18.097656 17.636719 16.660156 18.789063 15.875 19.59375L11.625 16.0625 Z M 29.84375 12.28125C29.929688 12.324219 30.023438 12.367188 30.125 12.4375C30.210938 12.929688 30.417969 13.363281 30.6875 13.75C30.265625 14.398438 30 15.152344 30 16C30 16.347656 30.070313 16.679688 30.15625 17L27.875 17C27.964844 16.660156 28 16.316406 28 16L28 15.6875C27.996094 15.363281 27.832031 15.058594 27.5625 14.875C27.175781 14.617188 27 14.320313 27 14C27 13.5625 27.285156 13.203125 27.53125 12.84375C27.6875 12.871094 27.84375 13 28 13C28.679688 13 29.300781 12.707031 29.84375 12.28125 Z M 24.84375 14.28125C24.929688 14.324219 25.023438 14.367188 25.125 14.4375C25.238281 15.085938 25.546875 15.625 26 16.0625C25.988281 16.390625 25.925781 16.660156 25.8125 16.8125L26.0625 17L22.25 17C22.09375 16.675781 22 16.316406 22 16C22 15.5625 22.285156 15.203125 22.53125 14.84375C22.6875 14.871094 22.84375 15 23 15C23.679688 15 24.300781 14.707031 24.84375 14.28125 Z M 34.84375 14.28125C34.929688 14.324219 35.023438 14.367188 35.125 14.4375C35.238281 15.085938 35.546875 15.625 36 16.0625C35.988281 16.390625 35.925781 16.660156 35.8125 16.8125L36.0625 17L32.25 17C32.09375 16.675781 32 16.316406 32 16C32 15.5625 32.285156 15.203125 32.53125 14.84375C32.6875 14.871094 32.84375 15 33 15C33.679688 15 34.300781 14.707031 34.84375 14.28125 Z M 8.5 21.09375C8.261719 21.144531 8.050781 21.277344 7.90625 21.46875C7.648438 21.789063 7.320313 22 7 22C6.921875 22 6.648438 21.933594 6.5625 21.875C6.160156 21.601563 5.621094 21.652344 5.28125 22C4.523438 22.757813 4 23.804688 4 25C4 26.875 5.300781 28.46875 7.0625 28.875C7.445313 28.972656 7.847656 28.839844 8.09375 28.53125C8.351563 28.210938 8.679688 28 9 28C9.078125 28 9.351563 28.066406 9.4375 28.125C9.839844 28.398438 10.378906 28.347656 10.71875 28C11.476563 27.242188 12 26.195313 12 25L12 24.6875C11.992188 24.3125 11.773438 23.976563 11.4375 23.8125C11.234375 23.710938 11 23.320313 11 23L11 22.8125C11.003906 22.492188 10.851563 22.191406 10.59375 22C10.195313 21.699219 9.683594 21.28125 8.90625 21.125C8.804688 21.097656 8.699219 21.085938 8.59375 21.09375C8.5625 21.09375 8.53125 21.09375 8.5 21.09375 Z M 8.84375 23.28125C8.929688 23.324219 9.023438 23.367188 9.125 23.4375C9.21875 24.066406 9.511719 24.59375 9.96875 25.03125C9.960938 25.457031 9.707031 25.808594 9.46875 26.15625C9.3125 26.128906 9.15625 26 9 26C8.257813 26 7.6875 26.324219 7.1875 26.71875C6.53125 26.402344 6 25.777344 6 25C6 24.5625 6.285156 24.203125 6.53125 23.84375C6.6875 23.871094 6.84375 24 7 24C7.75 24 8.339844 23.683594 8.84375 23.28125 Z M 7.78125 32.1875C7.128906 32.226563 6.488281 32.410156 5.90625 32.75C5.550781 32.949219 5.355469 33.347656 5.40625 33.75C5.46875 34.117188 5.40625 34.46875 5.1875 34.6875C5.105469 34.769531 4.960938 34.886719 4.75 34.9375C4.351563 35.039063 4.050781 35.371094 4 35.78125C3.863281 36.890625 4.269531 38.078125 5.1875 38.90625C5.242188 38.960938 5.234375 38.933594 5.28125 38.96875C5.292969 38.984375 5.300781 38.988281 5.3125 39C5.324219 39.011719 5.332031 39.019531 5.34375 39.03125C5.625 39.367188 6.09375 39.484375 6.5 39.3125C6.800781 39.183594 6.984375 39.257813 7.21875 39.46875C7.222656 39.472656 7.214844 39.496094 7.21875 39.5C7.398438 39.8125 7.734375 40.003906 8.09375 40C8.859375 40 9.46875 39.730469 9.96875 39.53125C10.410156 39.359375 10.671875 38.902344 10.59375 38.4375C10.53125 38.070313 10.59375 37.71875 10.8125 37.5C10.894531 37.417969 11.039063 37.335938 11.25 37.28125C11.648438 37.179688 11.949219 36.847656 12 36.4375C12.140625 35.324219 11.710938 34.140625 10.78125 33.3125L10.8125 33.28125C10.792969 33.261719 10.769531 33.265625 10.75 33.25C10.09375 32.617188 9.28125 32.269531 8.4375 32.1875C8.21875 32.167969 8 32.175781 7.78125 32.1875 Z M 30 34C31.65625 34 33 35.34375 33 37C33 38.65625 31.65625 40 30 40C28.34375 40 27 38.65625 27 37C27 35.34375 28.34375 34 30 34 Z M 8.21875 34.15625C8.652344 34.195313 9.070313 34.382813 9.40625 34.71875C9.417969 34.730469 9.425781 34.738281 9.4375 34.75C9.765625 35.03125 9.832031 35.460938 9.875 35.84375C9.734375 35.941406 9.515625 35.984375 9.40625 36.09375C8.886719 36.613281 8.714844 37.230469 8.65625 37.84375C8.5625 37.871094 8.449219 37.890625 8.375 37.90625C7.855469 37.519531 7.238281 37.359375 6.5625 37.40625C6.25 37.125 6.167969 36.746094 6.125 36.375C6.269531 36.273438 6.480469 36.207031 6.59375 36.09375C7.101563 35.585938 7.28125 34.980469 7.34375 34.375C7.636719 34.273438 7.929688 34.128906 8.21875 34.15625Z"/></svg>