<svg xmlns="http://www.w3.org/2000/svg" xmlns:xlink="http://www.w3.org/1999/xlink" viewBox="0 0 48 48"><path d="M23.845703 6.1113281C19.177857 6.1113281 14.932867 8.000687 11.861328 11.054688 A 1.5005379 1.5005379 0 1 0 13.976562 13.183594C16.509024 10.665594 19.985549 9.1113281 23.845703 9.1113281C27.710393 9.1113281 31.193315 10.669149 33.726562 13.193359 A 1.50015 1.50015 0 1 0 35.84375 11.068359C32.770998 8.0065699 28.519013 6.1113281 23.845703 6.1113281 z M 23.845703 12.111328C20.84501 12.111328 18.107109 13.321047 16.123047 15.277344 A 1.5005658 1.5005658 0 0 0 18.230469 17.414062C19.676407 15.988359 21.648396 15.111328 23.845703 15.111328C26.040702 15.111328 28.011148 15.985084 29.457031 17.408203 A 1.50015 1.50015 0 1 0 31.5625 15.271484C29.578383 13.318604 26.842705 12.111328 23.845703 12.111328 z M 34.476562 21.978516 A 1.50015 1.50015 0 0 0 34.259766 22L13.5 22C7.1663898 22 2 27.16639 2 33.5C2 39.83361 7.1663898 45 13.5 45L14.253906 45 A 1.50015 1.50015 0 0 0 14.740234 45L34.5 45C40.83361 45 46 39.83361 46 33.5C46 27.400363 41.171485 22.497117 35.160156 22.134766 A 1.50015 1.50015 0 0 0 34.476562 21.978516 z M 13 25.099609L13 29L6.4628906 29C7.8815903 26.783658 10.204135 25.269198 13 25.099609 z M 36 25.300781C38.355481 25.733158 40.295856 27.06087 41.537109 29L36 29L36 25.300781 z M 25 27C25.014 27 25.024109 27.007813 25.037109 27.007812C25.150109 27.012812 25.263094 27.027313 25.371094 27.070312L29.113281 28.568359C30.259281 29.027359 31 30.119516 31 31.353516L31 33C31 33.332 30.834547 33.642125 30.560547 33.828125C30.392547 33.942125 30.197 34 30 34C29.875 34 29.749906 33.976734 29.628906 33.927734L26 32.476562L26 37C26 38.682 24.243 40 22 40C19.757 40 18 38.682 18 37C18 35.318 19.757 34 22 34C22.738 34 23.413 34.153297 24 34.404297L24 31L24 28C24 27.878 24.028359 27.762344 24.068359 27.652344C24.077359 27.629344 24.085703 27.607937 24.095703 27.585938C24.142703 27.484938 24.20325 27.391547 24.28125 27.310547C24.29525 27.295547 24.311172 27.283531 24.326172 27.269531C24.363172 27.235531 24.397453 27.199875 24.439453 27.171875C24.481453 27.142875 24.528219 27.125516 24.574219 27.103516C24.594219 27.094516 24.610859 27.082219 24.630859 27.074219C24.738859 27.031219 24.851797 27.011813 24.966797 27.007812C24.978797 27.006812 24.988 27 25 27 z M 5.3027344 31.988281 A 1.50015 1.50015 0 0 0 5.5 32L13 32L13 35L5.3007812 35C5.2080757 34.494965 5 34.032818 5 33.5C5 32.963046 5.2086168 32.496985 5.3027344 31.988281 z M 36 32L42.699219 32C42.791924 32.505035 43 32.967182 43 33.5C43 34.032818 42.791924 34.494965 42.699219 35L36 35L36 32 z M 6.4628906 38L13 38L13 41.900391C10.204135 41.730801 7.8815903 40.216342 6.4628906 38 z M 36 38L41.537109 38C40.295856 39.93913 38.355481 41.266841 36 41.699219L36 38 z"/></svg>