<svg xmlns="http://www.w3.org/2000/svg" xmlns:xlink="http://www.w3.org/1999/xlink" viewBox="0 0 48 48"><path d="M8 7 A 2 2 0 0 0 8 11 A 2 2 0 0 0 8.796875 10.833984 A 1.50015 1.50015 0 0 0 9.1738281 10.964844L31.832031 16L7.5 16C5.5850452 16 4 17.585045 4 19.5L4 40.5C4 42.414955 5.5850452 44 7.5 44L40.5 44C42.414955 44 44 42.414955 44 40.5L44 24.746094 A 1.50015 1.50015 0 0 0 44 24.259766L44 19.5C44 17.585045 42.414955 16 40.5 16L37.914062 16 A 1.5007185 1.5007185 0 0 0 36.826172 14.035156L9.8261719 8.0351562 A 1.50015 1.50015 0 0 0 9.7421875 8.0195312 A 2 2 0 0 0 8 7 z M 7.5 19L12 19L12 23L7 23L7 19.5C7 19.204955 7.2049548 19 7.5 19 z M 15 19L40.5 19C40.795045 19 41 19.204955 41 19.5L41 23L15 23L15 19 z M 7 26L13.253906 26 A 1.50015 1.50015 0 0 0 13.740234 26L41 26L41 40.5C41 40.795045 40.795045 41 40.5 41L7.5 41C7.2049548 41 7 40.795045 7 40.5L7 26 z M 33.5 28C31.791667 28 30.320482 28.694633 29.378906 29.753906C28.437331 30.813179 28 32.166667 28 33.5C28 34.833333 28.437331 36.186821 29.378906 37.246094C30.320482 38.305367 31.791667 39 33.5 39C35.208333 39 36.679518 38.305367 37.621094 37.246094C38.562669 36.186821 39 34.833333 39 33.5C39 32.166667 38.562669 30.813179 37.621094 29.753906C36.679518 28.694633 35.208333 28 33.5 28 z M 17.5 29 A 1.5 1.5 0 0 0 17.5 32 A 1.5 1.5 0 0 0 17.5 29 z M 33.5 31C34.458333 31 34.987149 31.305367 35.378906 31.746094C35.770664 32.186821 36 32.833333 36 33.5C36 34.166667 35.770664 34.813179 35.378906 35.253906C34.987149 35.694633 34.458333 36 33.5 36C32.541667 36 32.012851 35.694633 31.621094 35.253906C31.229336 34.813179 31 34.166667 31 33.5C31 32.833333 31.229336 32.186821 31.621094 31.746094C32.012851 31.305367 32.541667 31 33.5 31 z M 12.5 32 A 1.5 1.5 0 0 0 12.5 35 A 1.5 1.5 0 0 0 12.5 32 z M 22.5 32 A 1.5 1.5 0 0 0 22.5 35 A 1.5 1.5 0 0 0 22.5 32 z M 17.5 35 A 1.5 1.5 0 0 0 17.5 38 A 1.5 1.5 0 0 0 17.5 35 z"/></svg>