<svg xmlns="http://www.w3.org/2000/svg" xmlns:xlink="http://www.w3.org/1999/xlink" viewBox="0 0 50 50"><path d="M44 3 A 2 2 0 0 0 42.097656 4.3886719L6.7890625 12.023438 A 1.0001 1.0001 0 0 0 6 13L6 15L5 15C2.2504839 15 0 17.250484 0 20L0 45C0 46.093063 0.9069372 47 2 47L48 47C49.093063 47 50 46.093063 50 45L50 20C50 17.250484 47.749516 15 45 15L8 15L8 13.806641L42.519531 6.3417969 A 2 2 0 0 0 44 7 A 2 2 0 0 0 46 5 A 2 2 0 0 0 44 3 z M 5 17L6.8320312 17 A 1.0001 1.0001 0 0 0 7.1582031 17L45 17C46.668484 17 48 18.331516 48 20L48 45L2 45L2 20C2 18.331516 3.3315161 17 5 17 z M 18.984375 19.986328 A 1.0001 1.0001 0 0 0 18.839844 20L6 20 A 1.0001 1.0001 0 0 0 5 21L5 27 A 1.0001 1.0001 0 0 0 6 28L18.832031 28 A 1.0001 1.0001 0 0 0 19.158203 28L44 28 A 1.0001 1.0001 0 0 0 45 27L45 21 A 1.0001 1.0001 0 0 0 44 20L19.154297 20 A 1.0001 1.0001 0 0 0 18.984375 19.986328 z M 7 22L18 22L18 26L7 26L7 22 z M 20 22L43 22L43 26L20 26L20 22 z M 6 31 A 1 1 0 0 0 5 32 A 1 1 0 0 0 6 33 A 1 1 0 0 0 7 32 A 1 1 0 0 0 6 31 z M 12 31 A 1 1 0 0 0 11 32 A 1 1 0 0 0 12 33 A 1 1 0 0 0 13 32 A 1 1 0 0 0 12 31 z M 18 31 A 1 1 0 0 0 17 32 A 1 1 0 0 0 18 33 A 1 1 0 0 0 19 32 A 1 1 0 0 0 18 31 z M 24 31 A 1 1 0 0 0 23 32 A 1 1 0 0 0 24 33 A 1 1 0 0 0 25 32 A 1 1 0 0 0 24 31 z M 30 31 A 1 1 0 0 0 29 32 A 1 1 0 0 0 30 33 A 1 1 0 0 0 31 32 A 1 1 0 0 0 30 31 z M 39.5 31C36.473641 31 34 33.474691 34 36.5C34 39.525309 36.473641 42 39.5 42C42.527925 42 45 39.524772 45 36.5C45 33.475228 42.527925 31 39.5 31 z M 9 33 A 1 1 0 0 0 8 34 A 1 1 0 0 0 9 35 A 1 1 0 0 0 10 34 A 1 1 0 0 0 9 33 z M 15 33 A 1 1 0 0 0 14 34 A 1 1 0 0 0 15 35 A 1 1 0 0 0 16 34 A 1 1 0 0 0 15 33 z M 21 33 A 1 1 0 0 0 20 34 A 1 1 0 0 0 21 35 A 1 1 0 0 0 22 34 A 1 1 0 0 0 21 33 z M 27 33 A 1 1 0 0 0 26 34 A 1 1 0 0 0 27 35 A 1 1 0 0 0 28 34 A 1 1 0 0 0 27 33 z M 39.5 33C40.105002 33 40.662285 33.164648 41.15625 33.429688L39.292969 35.292969 A 1.0001 1.0001 0 1 0 40.707031 36.707031L42.570312 34.84375C42.835319 35.337857 43 35.895564 43 36.5C43 38.445228 41.448075 40 39.5 40C37.554359 40 36 38.444691 36 36.5C36 34.555309 37.554359 33 39.5 33 z M 6 35 A 1 1 0 0 0 5 36 A 1 1 0 0 0 6 37 A 1 1 0 0 0 7 36 A 1 1 0 0 0 6 35 z M 12 35 A 1 1 0 0 0 11 36 A 1 1 0 0 0 12 37 A 1 1 0 0 0 13 36 A 1 1 0 0 0 12 35 z M 18 35 A 1 1 0 0 0 17 36 A 1 1 0 0 0 18 37 A 1 1 0 0 0 19 36 A 1 1 0 0 0 18 35 z M 24 35 A 1 1 0 0 0 23 36 A 1 1 0 0 0 24 37 A 1 1 0 0 0 25 36 A 1 1 0 0 0 24 35 z M 30 35 A 1 1 0 0 0 29 36 A 1 1 0 0 0 30 37 A 1 1 0 0 0 31 36 A 1 1 0 0 0 30 35 z M 9 37 A 1 1 0 0 0 8 38 A 1 1 0 0 0 9 39 A 1 1 0 0 0 10 38 A 1 1 0 0 0 9 37 z M 15 37 A 1 1 0 0 0 14 38 A 1 1 0 0 0 15 39 A 1 1 0 0 0 16 38 A 1 1 0 0 0 15 37 z M 21 37 A 1 1 0 0 0 20 38 A 1 1 0 0 0 21 39 A 1 1 0 0 0 22 38 A 1 1 0 0 0 21 37 z M 27 37 A 1 1 0 0 0 26 38 A 1 1 0 0 0 27 39 A 1 1 0 0 0 28 38 A 1 1 0 0 0 27 37 z M 6 39 A 1 1 0 0 0 5 40 A 1 1 0 0 0 6 41 A 1 1 0 0 0 7 40 A 1 1 0 0 0 6 39 z M 12 39 A 1 1 0 0 0 11 40 A 1 1 0 0 0 12 41 A 1 1 0 0 0 13 40 A 1 1 0 0 0 12 39 z M 18 39 A 1 1 0 0 0 17 40 A 1 1 0 0 0 18 41 A 1 1 0 0 0 19 40 A 1 1 0 0 0 18 39 z M 24 39 A 1 1 0 0 0 23 40 A 1 1 0 0 0 24 41 A 1 1 0 0 0 25 40 A 1 1 0 0 0 24 39 z M 30 39 A 1 1 0 0 0 29 40 A 1 1 0 0 0 30 41 A 1 1 0 0 0 31 40 A 1 1 0 0 0 30 39 z"/></svg>