<svg xmlns="http://www.w3.org/2000/svg" xmlns:xlink="http://www.w3.org/1999/xlink" viewBox="0 0 50 50"><path d="M44 3 A 2 2 0 0 0 42.097656 4.3886719L6.7890625 12.023438 A 1.0001 1.0001 0 0 0 6 13L6 15L5 15C2.243 15 0 17.243 0 20L0 45C0 46.103 0.897 47 2 47L48 47C49.103 47 50 46.103 50 45L50 20C50 17.243 47.757 15 45 15L8 15L8 13.806641L42.519531 6.3417969 A 2 2 0 0 0 44 7 A 2 2 0 0 0 46 5 A 2 2 0 0 0 44 3 z M 6 21L18 21L18 27L6 27L6 21 z M 20 21L44 21L44 27L20 27L20 21 z M 7 31C7.552 31 8 31.448 8 32C8 32.552 7.552 33 7 33C6.448 33 6 32.552 6 32C6 31.448 6.448 31 7 31 z M 13 31C13.552 31 14 31.448 14 32C14 32.552 13.552 33 13 33C12.448 33 12 32.552 12 32C12 31.448 12.448 31 13 31 z M 19 31C19.552 31 20 31.448 20 32C20 32.552 19.552 33 19 33C18.448 33 18 32.552 18 32C18 31.448 18.448 31 19 31 z M 25 31C25.552 31 26 31.448 26 32C26 32.552 25.552 33 25 33C24.448 33 24 32.552 24 32C24 31.448 24.448 31 25 31 z M 31 31C31.552 31 32 31.448 32 32C32 32.552 31.552 33 31 33C30.448 33 30 32.552 30 32C30 31.448 30.448 31 31 31 z M 39.5 32C40.379979 32 41.193792 32.26344 41.886719 32.699219L39.292969 35.292969 A 1.0001 1.0001 0 1 0 40.707031 36.707031L43.302734 34.111328C43.739135 34.804829 44 35.620015 44 36.5C44 38.985 41.988 41 39.5 41C37.014 41 35 38.985 35 36.5C35 34.015 37.014 32 39.5 32 z M 10 33C10.552 33 11 33.448 11 34C11 34.552 10.552 35 10 35C9.448 35 9 34.552 9 34C9 33.448 9.448 33 10 33 z M 16 33C16.552 33 17 33.448 17 34C17 34.552 16.552 35 16 35C15.448 35 15 34.552 15 34C15 33.448 15.448 33 16 33 z M 22 33C22.552 33 23 33.448 23 34C23 34.552 22.552 35 22 35C21.448 35 21 34.552 21 34C21 33.448 21.448 33 22 33 z M 28 33C28.552 33 29 33.448 29 34C29 34.552 28.552 35 28 35C27.448 35 27 34.552 27 34C27 33.448 27.448 33 28 33 z M 7 35C7.552 35 8 35.448 8 36C8 36.552 7.552 37 7 37C6.448 37 6 36.552 6 36C6 35.448 6.448 35 7 35 z M 13 35C13.552 35 14 35.448 14 36C14 36.552 13.552 37 13 37C12.448 37 12 36.552 12 36C12 35.448 12.448 35 13 35 z M 19 35C19.552 35 20 35.448 20 36C20 36.552 19.552 37 19 37C18.448 37 18 36.552 18 36C18 35.448 18.448 35 19 35 z M 25 35C25.552 35 26 35.448 26 36C26 36.552 25.552 37 25 37C24.448 37 24 36.552 24 36C24 35.448 24.448 35 25 35 z M 31 35C31.552 35 32 35.448 32 36C32 36.552 31.552 37 31 37C30.448 37 30 36.552 30 36C30 35.448 30.448 35 31 35 z M 10 37C10.552 37 11 37.448 11 38C11 38.552 10.552 39 10 39C9.448 39 9 38.552 9 38C9 37.448 9.448 37 10 37 z M 16 37C16.552 37 17 37.448 17 38C17 38.552 16.552 39 16 39C15.448 39 15 38.552 15 38C15 37.448 15.448 37 16 37 z M 22 37C22.552 37 23 37.448 23 38C23 38.552 22.552 39 22 39C21.448 39 21 38.552 21 38C21 37.448 21.448 37 22 37 z M 28 37C28.552 37 29 37.448 29 38C29 38.552 28.552 39 28 39C27.448 39 27 38.552 27 38C27 37.448 27.448 37 28 37 z M 7 39C7.552 39 8 39.448 8 40C8 40.552 7.552 41 7 41C6.448 41 6 40.552 6 40C6 39.448 6.448 39 7 39 z M 13 39C13.552 39 14 39.448 14 40C14 40.552 13.552 41 13 41C12.448 41 12 40.552 12 40C12 39.448 12.448 39 13 39 z M 19 39C19.552 39 20 39.448 20 40C20 40.552 19.552 41 19 41C18.448 41 18 40.552 18 40C18 39.448 18.448 39 19 39 z M 25 39C25.552 39 26 39.448 26 40C26 40.552 25.552 41 25 41C24.448 41 24 40.552 24 40C24 39.448 24.448 39 25 39 z M 31 39C31.552 39 32 39.448 32 40C32 40.552 31.552 41 31 41C30.448 41 30 40.552 30 40C30 39.448 30.448 39 31 39 z"/></svg>