<svg xmlns="http://www.w3.org/2000/svg" xmlns:xlink="http://www.w3.org/1999/xlink" viewBox="0 0 50 50"><path d="M44 3C43.066406 3 42.285156 3.636719 42.0625 4.5L13.65625 12.25C14.085938 12.78125 14.425781 13.371094 14.65625 14.03125L42.59375 6.40625C42.957031 6.769531 43.449219 7 44 7C45.105469 7 46 6.105469 46 5C46 3.894531 45.105469 3 44 3 Z M 9 12C7.140625 12 5.601563 13.277344 5.15625 15L2 15C0.898438 15 0 15.898438 0 17L0 45C0 46.101563 0.898438 47 2 47L48 47C49.101563 47 50 46.101563 50 45L50 17C50 15.898438 49.101563 15 48 15L12.84375 15C12.398438 13.277344 10.859375 12 9 12 Z M 34 21C37.277344 21 40.175781 22.566406 42 25L26 25C27.824219 22.566406 30.726563 21 34 21 Z M 9 23C10.105469 23 11 23.890625 11 25C11 26.109375 10.105469 27 9 27C7.894531 27 7 26.109375 7 25C7 23.890625 7.894531 23 9 23 Z M 24.8125 27L43.1875 27C43.59375 27.929688 43.832031 28.945313 43.9375 30L24.0625 30C24.167969 28.945313 24.40625 27.929688 24.8125 27 Z M 9 30C10.105469 30 11 30.890625 11 32C11 33.109375 10.105469 34 9 34C7.894531 34 7 33.109375 7 32C7 30.890625 7.894531 30 9 30 Z M 24.0625 32L43.9375 32C43.832031 33.054688 43.59375 34.070313 43.1875 35L24.8125 35C24.40625 34.070313 24.167969 33.054688 24.0625 32 Z M 26 37L42 37C40.175781 39.433594 37.277344 41 34 41C30.726563 41 27.824219 39.433594 26 37Z"/></svg>