<svg xmlns="http://www.w3.org/2000/svg" xmlns:xlink="http://www.w3.org/1999/xlink" viewBox="0 0 50 50"><path d="M44 3C43.066406 3 42.285156 3.636719 42.0625 4.5L11.4375 12.84375C11.429688 12.839844 11.414063 12.847656 11.40625 12.84375C10.734375 12.320313 9.917969 12 9 12C7.148438 12 5.601563 13.28125 5.15625 15L2 15C0.90625 15 0 15.90625 0 17L0 45C0 46.09375 0.90625 47 2 47L48 47C49.09375 47 50 46.09375 50 45L50 17C50 15.90625 49.09375 15 48 15L12.84375 15C12.804688 14.847656 12.742188 14.707031 12.6875 14.5625L42.59375 6.40625C42.957031 6.769531 43.449219 7 44 7C45.105469 7 46 6.105469 46 5C46 3.894531 45.105469 3 44 3 Z M 9 14C9.746094 14 10.375 14.402344 10.71875 15L7.28125 15C7.625 14.402344 8.253906 14 9 14 Z M 2 17L48 17L48 45L2 45 Z M 34 20C30.070313 20 26.632813 22.074219 24.6875 25.1875C24.683594 25.191406 24.660156 25.183594 24.65625 25.1875C24.441406 25.355469 24.308594 25.605469 24.28125 25.875C24.269531 25.90625 24.257813 25.9375 24.25 25.96875C23.53125 27.363281 23.09375 28.933594 23.03125 30.59375C23.03125 30.605469 23.03125 30.613281 23.03125 30.625C22.949219 30.835938 22.9375 31.066406 23 31.28125C23.007813 31.3125 23.019531 31.34375 23.03125 31.375C23.085938 33.011719 23.523438 34.554688 24.21875 35.9375C24.222656 35.945313 24.214844 35.960938 24.21875 35.96875C24.199219 36.359375 24.40625 36.722656 24.75 36.90625C24.761719 36.90625 24.769531 36.90625 24.78125 36.90625C26.734375 39.953125 30.117188 42 34 42C39.972656 42 44.816406 37.210938 44.96875 31.28125C44.980469 31.261719 44.992188 31.238281 45 31.21875C45 31.207031 45 31.199219 45 31.1875C45.007813 31.125 45.007813 31.0625 45 31C45 30.957031 45 30.917969 45 30.875C44.996094 30.8125 44.984375 30.75 44.96875 30.6875C44.800781 24.769531 39.960938 20 34 20 Z M 34 22C36.671875 22 39.042969 23.164063 40.6875 25L27.3125 25C28.957031 23.164063 31.332031 22 34 22 Z M 9 23C7.894531 23 7 23.894531 7 25C7 26.105469 7.894531 27 9 27C10.105469 27 11 26.105469 11 25C11 23.894531 10.105469 23 9 23 Z M 25.96875 27L42.03125 27C42.496094 27.929688 42.851563 28.917969 42.96875 30L25.03125 30C25.148438 28.917969 25.503906 27.929688 25.96875 27 Z M 9 30C7.894531 30 7 30.894531 7 32C7 33.105469 7.894531 34 9 34C10.105469 34 11 33.105469 11 32C11 30.894531 10.105469 30 9 30 Z M 25.03125 32L42.96875 32C42.851563 33.070313 42.550781 34.078125 42.09375 35L25.9375 35C25.480469 34.078125 25.148438 33.070313 25.03125 32 Z M 27.25 37L40.75 37C39.097656 38.84375 36.683594 40 34 40C31.320313 40 28.902344 38.84375 27.25 37Z"/></svg>