<svg xmlns="http://www.w3.org/2000/svg" xmlns:xlink="http://www.w3.org/1999/xlink" viewBox="0 0 48 48"><path d="M8 7 A 2 2 0 0 0 8 11 A 2 2 0 0 0 8.796875 10.833984 A 1.50015 1.50015 0 0 0 9.1738281 10.964844L31.832031 16L7.5 16C5.5850452 16 4 17.585045 4 19.5L4 40.5C4 42.414955 5.5850452 44 7.5 44L40.5 44C42.414955 44 44 42.414955 44 40.5L44 24.746094 A 1.50015 1.50015 0 0 0 44 24.259766L44 19.5C44 17.585045 42.414955 16 40.5 16L37.914062 16 A 1.5007185 1.5007185 0 0 0 36.826172 14.035156L9.8261719 8.0351562 A 1.50015 1.50015 0 0 0 9.7421875 8.0195312 A 2 2 0 0 0 8 7 z M 7.5 19L12 19L12 23L7 23L7 19.5C7 19.204955 7.2049548 19 7.5 19 z M 15 19L40.5 19C40.795045 19 41 19.204955 41 19.5L41 23L15 23L15 19 z M 17.5 29C18.328 29 19 29.672 19 30.5C19 31.328 18.328 32 17.5 32C16.672 32 16 31.328 16 30.5C16 29.672 16.672 29 17.5 29 z M 33.5 29C35.981 29 38 31.019 38 33.5C38 35.981 35.981 38 33.5 38C31.019 38 29 35.981 29 33.5C29 31.019 31.019 29 33.5 29 z M 12.5 32C13.328 32 14 32.672 14 33.5C14 34.328 13.328 35 12.5 35C11.672 35 11 34.328 11 33.5C11 32.672 11.672 32 12.5 32 z M 22.5 32C23.328 32 24 32.672 24 33.5C24 34.328 23.328 35 22.5 35C21.672 35 21 34.328 21 33.5C21 32.672 21.672 32 22.5 32 z M 17.5 35C18.328 35 19 35.672 19 36.5C19 37.328 18.328 38 17.5 38C16.672 38 16 37.328 16 36.5C16 35.672 16.672 35 17.5 35 z"/></svg>