<svg xmlns="http://www.w3.org/2000/svg" xmlns:xlink="http://www.w3.org/1999/xlink" viewBox="0 0 50 50"><path d="M36.96875 0C36.417969 0.015625 35.988281 0.480469 36 1.03125C36.011719 1.578125 36.457031 2 37 2L37.03125 2C37.160156 1.984375 40.671875 1.984375 44.28125 5.6875C47.914063 9.410156 48 12.96875 48 13C48 13.550781 48.445313 14 49 14C49.554688 14 50 13.550781 50 13C50 12.824219 49.953125 8.65625 45.71875 4.3125C41.457031 -0.0546875 37.164063 -0.0117188 36.96875 0 Z M 37 6C36.453125 6 36.007813 6.453125 36 7C35.992188 7.546875 36.453125 7.988281 37 8C37.066406 8 38.628906 8.066406 40.28125 9.71875C41.933594 11.371094 42 12.945313 42 13C42 13.550781 42.445313 14 43 14C43.554688 14 44 13.550781 44 13C44 12.902344 43.984375 10.546875 41.71875 8.28125C39.453125 6.015625 37.097656 6 37 6 Z M 28.71875 6.03125C27.644531 6.027344 26.539063 6.402344 25.6875 7.1875L1.1875 31.78125C-0.40625 33.375 -0.417969 35.984375 1.1875 37.71875L12.40625 48.90625C13.175781 49.675781 14.199219 50.09375 15.3125 50.09375C16.410156 50.09375 17.46875 49.683594 18.3125 48.90625L42.84375 24.34375C44.371094 22.558594 44.371094 19.964844 42.8125 18.40625L31.59375 7.1875C30.828125 6.421875 29.792969 6.035156 28.71875 6.03125 Z M 28 15C31.867188 15 35 18.132813 35 22C35 25.867188 31.867188 29 28 29C24.132813 29 21 25.867188 21 22C21 18.132813 24.132813 15 28 15 Z M 28 20C26.894531 20 26 20.894531 26 22C26 23.105469 26.894531 24 28 24C29.105469 24 30 23.105469 30 22C30 20.894531 29.105469 20 28 20 Z M 15 27C16.105469 27 17 27.894531 17 29C17 30.105469 16.105469 31 15 31C13.894531 31 13 30.105469 13 29C13 27.894531 13.894531 27 15 27 Z M 10 32C11.105469 32 12 32.894531 12 34C12 35.105469 11.105469 36 10 36C8.894531 36 8 35.105469 8 34C8 32.894531 8.894531 32 10 32 Z M 21 33C22.105469 33 23 33.894531 23 35C23 36.105469 22.105469 37 21 37C19.894531 37 19 36.105469 19 35C19 33.894531 19.894531 33 21 33 Z M 16 38C17.105469 38 18 38.894531 18 40C18 41.105469 17.105469 42 16 42C14.894531 42 14 41.105469 14 40C14 38.894531 14.894531 38 16 38Z"/></svg>