<svg xmlns="http://www.w3.org/2000/svg" xmlns:xlink="http://www.w3.org/1999/xlink" viewBox="0 0 50 50"><path d="M39 2.03125C38.738281 2.0625 38.503906 2.199219 38.34375 2.40625L35.40625 6.09375C34.835938 5.378906 33.972656 4.90625 33 4.90625L29 4.90625C27.6875 4.90625 26.566406 5.765625 26.125 6.9375L16.4375 6.9375C14.8125 4.5625 12.082031 3 9 3C4.042969 3 0 7.042969 0 12C0 15.082031 1.5625 17.8125 3.9375 19.4375C3.949219 19.445313 3.957031 19.460938 3.96875 19.46875C3.96875 19.480469 3.96875 19.488281 3.96875 19.5L14.75 39.9375L6.875 39.9375C5.226563 39.9375 3.9375 41.359375 3.9375 43L3.9375 49C3.933594 49.28125 4.046875 49.554688 4.246094 49.753906C4.445313 49.953125 4.71875 50.066406 5 50.0625L39 50.0625C39.28125 50.066406 39.554688 49.953125 39.753906 49.753906C39.953125 49.554688 40.066406 49.28125 40.0625 49L40.0625 43C40.0625 41.359375 38.773438 39.9375 37.125 39.9375L29.90625 39.9375L16.96875 17.0625L26.125 17.0625C26.566406 18.234375 27.6875 19.09375 29 19.09375L33 19.09375C33.972656 19.09375 34.835938 18.621094 35.40625 17.90625L38.34375 21.59375C38.636719 21.960938 39.148438 22.066406 39.5625 21.84375L49.46875 16.4375C49.882813 16.214844 50.074219 15.730469 49.929688 15.285156C49.78125 14.835938 49.339844 14.5625 48.875 14.625C48.753906 14.644531 48.636719 14.6875 48.53125 14.75L39.375 19.78125L36.09375 15.625L36.09375 8.40625L39.375 4.25L48.53125 9.25C48.835938 9.457031 49.230469 9.472656 49.550781 9.292969C49.871094 9.113281 50.0625 8.769531 50.042969 8.402344C50.027344 8.035156 49.804688 7.710938 49.46875 7.5625L39.5625 2.15625C39.390625 2.058594 39.195313 2.015625 39 2.03125 Z M 9 5C11.480469 5 13.664063 6.28125 14.90625 8.21875C14.917969 8.238281 14.925781 8.261719 14.9375 8.28125C14.957031 8.324219 14.976563 8.367188 15 8.40625C15.023438 8.472656 15.054688 8.535156 15.09375 8.59375C15.109375 8.621094 15.140625 8.628906 15.15625 8.65625C15.175781 8.6875 15.195313 8.71875 15.21875 8.75C15.722656 9.71875 16 10.828125 16 12C16 13.160156 15.714844 14.257813 15.21875 15.21875C15.210938 15.230469 15.195313 15.238281 15.1875 15.25C15.175781 15.269531 15.164063 15.292969 15.15625 15.3125C15.152344 15.320313 15.160156 15.335938 15.15625 15.34375C15.132813 15.363281 15.113281 15.382813 15.09375 15.40625C15.027344 15.492188 14.976563 15.585938 14.9375 15.6875C14.925781 15.71875 14.914063 15.75 14.90625 15.78125C13.664063 17.71875 11.480469 19 9 19C5.125 19 2 15.875 2 12C2 8.125 5.125 5 9 5 Z M 9 6.34375C8.933594 6.34375 8.878906 6.371094 8.8125 6.375C8.75 6.390625 8.683594 6.410156 8.625 6.4375C5.707031 6.644531 3.34375 9.03125 3.34375 12C3.34375 15.101563 5.898438 17.65625 9 17.65625C12.101563 17.65625 14.65625 15.101563 14.65625 12C14.65625 9.042969 12.308594 6.660156 9.40625 6.4375C9.394531 6.4375 9.386719 6.40625 9.375 6.40625C9.304688 6.386719 9.230469 6.378906 9.15625 6.375C9.101563 6.375 9.054688 6.34375 9 6.34375 Z M 29 7.09375L33 7.09375C33.511719 7.09375 33.90625 7.488281 33.90625 8L33.90625 16C33.90625 16.511719 33.511719 16.90625 33 16.90625L29 16.90625C28.488281 16.90625 28.09375 16.511719 28.09375 16L28.09375 8C28.09375 7.488281 28.488281 7.09375 29 7.09375 Z M 8.9375 8.34375C8.957031 8.34375 8.980469 8.34375 9 8.34375C11.015625 8.34375 12.65625 9.984375 12.65625 12C12.65625 14.015625 11.015625 15.65625 9 15.65625C6.984375 15.65625 5.34375 14.015625 5.34375 12C5.34375 10.003906 6.949219 8.378906 8.9375 8.34375 Z M 17.5 9.0625L25.90625 9.0625L25.90625 14.9375L17.5 14.9375C17.820313 14.011719 18 13.03125 18 12C18 10.96875 17.820313 9.988281 17.5 9.0625 Z M 15.375 18.3125L27.59375 39.9375L16.96875 39.9375L6.84375 20.71875C7.539063 20.890625 8.253906 21 9 21C11.496094 21 13.742188 19.960938 15.375 18.3125 Z M 6.875 42.0625L16.09375 42.0625C16.34375 42.167969 16.625 42.167969 16.875 42.0625L37.125 42.0625C37.558594 42.0625 37.9375 42.4375 37.9375 43L37.9375 47.9375L6.0625 47.9375L6.0625 43C6.0625 42.4375 6.441406 42.0625 6.875 42.0625Z"/></svg>