<svg xmlns="http://www.w3.org/2000/svg" xmlns:xlink="http://www.w3.org/1999/xlink" viewBox="0 0 50 50"><path d="M11.658203 10C4.1252031 10 3 13.010687 3 14.804688L3 29.96875L3.0019531 29.970703C3.0019531 29.980703 3 29.99 3 30C3 35.514 7.486 40 13 40C16.691 40 19.913484 37.984 21.646484 35L44.660156 35C45.713156 34.281 46.494219 33.226 46.824219 32L22.798828 32C22.930828 31.354 23 30.685 23 30L47 30L47 29.515625C47 17.599625 23.793203 10 11.658203 10 z M 13 22C17.411 22 21 25.589 21 30C21 34.411 17.411 38 13 38C8.589 38 5 34.411 5 30C5 25.589 8.589 22 13 22 z M 13 27 A 3 3 0 0 0 13 33 A 3 3 0 0 0 13 27 z M 35.556641 38C36.250641 39.19 37.526 40 39 40C40.474 40 41.749359 39.19 42.443359 38L35.556641 38 z"/></svg>