<svg xmlns="http://www.w3.org/2000/svg" xmlns:xlink="http://www.w3.org/1999/xlink" viewBox="0 0 32 32"><path d="M8.7539062 7.0019531C7.5518169 7.0189744 6.5156108 7.1541874 5.6542969 7.5253906C4.792983 7.8965938 4.0175781 8.7132065 4.0175781 9.7226562L4.0175781 13.767578C2.7678093 14.956517 1.9824219 16.629553 1.9824219 18.482422C1.9824219 22.070368 4.9120509 25 8.5 25C9.7488691 25 10.887382 24.622768 11.857422 24L21.810547 24C22.360487 24.605195 23.142302 25 24.017578 25C24.892682 25 25.674432 24.605984 26.224609 24L26.900391 24C28.591188 24 30.017578 22.648216 30.017578 20.960938L30.017578 18.900391C30.017578 16.271923 28.23932 14.076878 25.853516 12.353516C23.467711 10.630153 20.383804 9.2992382 17.302734 8.3828125C14.221665 7.4663868 11.158085 6.9679106 8.7539062 7.0019531 z M 8.78125 9.0019531C10.877071 8.9722771 13.813492 9.4306289 16.732422 10.298828C19.651352 11.167027 22.567445 12.447441 24.681641 13.974609C26.423003 15.232466 27.546099 16.602781 27.892578 18L14.919922 18C14.659128 14.647426 11.917139 11.964844 8.5 11.964844C7.621298 11.964844 6.7839481 12.142875 6.0175781 12.460938L6.0175781 9.7226562C6.0175781 9.5848561 5.9941261 9.5577304 6.4453125 9.3632812C6.8964986 9.1688322 7.7333395 9.0167912 8.78125 9.0019531 z M 8.5 13.964844C11.00707 13.964844 13.017578 15.975354 13.017578 18.482422C13.017578 20.98949 11.00707 23 8.5 23C5.9929305 23 3.9824219 20.98949 3.9824219 18.482422C3.9824219 15.975354 5.9929305 13.964844 8.5 13.964844 z M 8.5 17.482422 A 1 1 0 0 0 8.5 19.482422 A 1 1 0 0 0 8.5 17.482422 z M 14.708984 20L28.017578 20L28.017578 20.960938C28.017578 21.525659 27.549593 22 26.900391 22L13.855469 22C14.239278 21.392294 14.530946 20.71866 14.708984 20 z"/></svg>