<?xml version="1.0" encoding="utf-8"?><svg version="1.1" id="Layer_1" xmlns="http://www.w3.org/2000/svg" xmlns:xlink="http://www.w3.org/1999/xlink" x="0px" y="0px" viewBox="0 0 122.88 116.09" style="enable-background:new 0 0 122.88 116.09" xml:space="preserve"><style type="text/css">.st0{fill-rule:evenodd;clip-rule:evenodd;}</style><g><path class="st0" d="M118.06,30.73h-4.36v34.52h4.36c0.43,0,0.81-0.18,1.1-0.46c0.02-0.02,0.04-0.04,0.06-0.06 c0.25-0.28,0.4-0.64,0.4-1.04V32.29c0-0.43-0.17-0.82-0.45-1.1l0,0l0,0C118.87,30.91,118.48,30.73,118.06,30.73L118.06,30.73z M21.03,71.9v11.05c0,0.9-0.73,1.63-1.64,1.63c-0.9,0-1.63-0.73-1.63-1.63V71.9h-3.97c-0.9,0-1.64-0.77-1.64-1.72v-8.51H0 l0.01-39.41c0-3.88,3.17-7.67,7.06-7.67h5.09v-2.92c0-0.95,0.73-1.72,1.64-1.72h3.97V8.13c0-0.9,0.73-1.64,1.63-1.64 c0.9,0,1.64,0.73,1.64,1.64v1.82h2.93c0.9,0,1.63,0.77,1.63,1.72v2.92h40.29c0-0.04,0-0.08,0-0.12V6.75c0-0.9,0.73-1.64,1.64-1.64 s1.64,0.73,1.64,1.64v7.72c0,0.04,0,0.08,0,0.12h5.59c0-0.04,0-0.08,0-0.12V3.5c0-0.9,0.73-1.63,1.64-1.63 C77.27,1.86,78,2.6,78,3.5v10.98c0,0.04,0,0.08,0,0.12h15.06c0-0.04,0-0.08,0-0.12V5.13h-3.41c-0.9,0-1.64-0.73-1.64-1.63 s0.73-1.63,1.64-1.63c3.55-2.47,7.11-2.5,10.66,0c0.9,0,1.64,0.73,1.64,1.63s-0.73,1.63-1.64,1.63H96.9v9.34 c0,0.04,0,0.08-0.01,0.12h8.12c3.88,0,7.06,3.79,7.06,7.67v5.21h0h5.99c1.33,0,2.53,0.54,3.41,1.42l0,0 c0.88,0.88,1.42,2.08,1.42,3.41V63.7c0,1.27-0.5,2.43-1.32,3.3c-0.03,0.04-0.07,0.07-0.1,0.11c-0.87,0.87-2.08,1.42-3.41,1.42 h-5.99h0v45.69c0,1.03-0.85,1.88-1.88,1.88H1.93c-1.05,0-1.92-0.86-1.92-1.92v-10.69c0.42-3.98,1.81-7.19,4.29-9.54 c4.98-4.73,10.96-4.26,17.21-4.26h26.73c6.17,0.59,8.25-3.7,7.81-11.8v-24.1c-0.01-2.32-0.52-4.06-1.42-5.35 c-1.18-1.69-3.02-2.63-5.23-3.13c-4.9,0-7.83-0.39-11.86,3.21c-3.79,3.38-2.84,7.41-6.66,10.68c-1.41,1.21-3.17,2-5.29,2.36v8.63 c0,0.95-0.73,1.72-1.63,1.72H21.03L21.03,71.9z M71.63,91.4c-0.9,0-1.63-0.73-1.63-1.64c0-0.9,0.73-1.63,1.63-1.63H97.1 c0.9,0,1.64,0.73,1.64,1.63c0,0.9-0.73,1.64-1.64,1.64H71.63L71.63,91.4z M71.2,71.55h26.3c0.67,0,1.21,0.55,1.21,1.21v9.61 c0,0.67-0.55,1.21-1.21,1.21H71.2c-0.67,0-1.21-0.55-1.21-1.21v-9.61C69.99,72.09,70.54,71.55,71.2,71.55L71.2,71.55z M84.36,34.16 c4.97,0,8.99,4.03,8.99,8.99c0,4.97-4.03,8.99-8.99,8.99c-4.97,0-8.99-4.03-8.99-8.99C75.37,38.18,79.4,34.16,84.36,34.16 L84.36,34.16z M84.36,25.08c9.98,0,18.07,8.09,18.07,18.08c0,9.98-8.09,18.07-18.07,18.07c-9.98,0-18.07-8.09-18.07-18.07 C66.29,33.17,74.38,25.08,84.36,25.08L84.36,25.08z"/></g></svg>