<svg xmlns="http://www.w3.org/2000/svg" xmlns:xlink="http://www.w3.org/1999/xlink" viewBox="0 0 50 50"><path d="M28 3L28 4L26 4L26 12L15 12L15 10L13 10L13 12L10 12C7.28125 12 5 14.171875 5 17C5 18.300781 5.25 20.75 5.5 22.96875C5.75 25.1875 6 27.125 6 27.125L6.125 28L10 28L10 30L9 30L9 32L13 32L13 30L12 30L12 28L15.78125 28L16.59375 24.75C16.707031 24.300781 17.101563 24 17.5625 24L22.84375 24C23.8125 24 24.652344 24.664063 24.8125 25.59375C24.90625 26.136719 25 27.597656 25 28.5625C25 29.527344 24.910156 30.839844 24.8125 31.40625C24.652344 32.335938 23.8125 33 22.84375 33L8 33C5.25 33 3 35.25 3 38L3 43C3 44.644531 4.355469 46 6 46L8 46L8 47L13 47L13 46L33 46L33 47L38 47L38 46L40 46C41.644531 46 43 44.644531 43 43L43 24L47 24L47 15L42.5625 15C41.785156 13.242188 40.035156 12 38 12L36 12L36 8L34 8L34 12L32 12L32 4L30 4L30 3 Z M 28 6L30 6L30 12L28 12 Z M 10 14L11 14L11 23L13 23L13 14L38 14C39.667969 14 41 15.332031 41 17L41 43C41 43.566406 40.566406 44 40 44L6 44C5.433594 44 5 43.566406 5 43L5 38C5 36.332031 6.332031 35 8 35L22.84375 35C24.753906 35 26.449219 33.65625 26.78125 31.75C26.925781 30.929688 27 29.640625 27 28.5625C27 27.484375 26.929688 26.09375 26.78125 25.25C26.449219 23.34375 24.753906 22 22.84375 22L17.5625 22C16.191406 22 14.988281 22.953125 14.65625 24.28125L14.21875 26L7.90625 26C7.832031 25.417969 7.695313 24.484375 7.5 22.75C7.25 20.546875 7 18.011719 7 17C7 15.203125 8.300781 14 10 14 Z M 34 17C32.355469 17 31 18.355469 31 20C31 21.644531 32.355469 23 34 23C35.644531 23 37 21.644531 37 20C37 18.355469 35.644531 17 34 17 Z M 43 17L45 17L45 22L43 22 Z M 34 19C34.5625 19 35 19.4375 35 20C35 20.5625 34.5625 21 34 21C33.4375 21 33 20.5625 33 20C33 19.4375 33.4375 19 34 19 Z M 34 27C31.25 27 29 29.25 29 32C29 34.75 31.25 37 34 37C36.75 37 39 34.75 39 32C39 29.25 36.75 27 34 27 Z M 34 29C35.667969 29 37 30.332031 37 32C37 33.667969 35.667969 35 34 35C32.332031 35 31 33.667969 31 32C31 30.332031 32.332031 29 34 29Z"/></svg>