<svg xmlns="http://www.w3.org/2000/svg" xmlns:xlink="http://www.w3.org/1999/xlink" viewBox="0 0 50 50"><path d="M25.0625 0C22.5 0 20.589844 0.0898438 19.15625 0.40625C18.4375 0.566406 17.824219 0.792969 17.3125 1.15625C16.800781 1.519531 16.394531 2.082031 16.3125 2.71875C16.261719 3.097656 16.253906 3.085938 16.15625 3.375C16.058594 3.664063 15.9375 4.128906 15.78125 5.0625C15.324219 7.824219 13.929688 7.667969 12.65625 9.03125C12.609375 9.082031 12.546875 9.101563 12.5 9.15625C10.996094 10.246094 10 12.003906 10 14L10 36C10 37.996094 10.996094 39.753906 12.5 40.84375C12.511719 40.855469 12.519531 40.863281 12.53125 40.875C12.574219 40.90625 12.613281 40.941406 12.65625 40.96875C13.90625 42.3125 15.261719 42.203125 15.78125 44.96875C15.9375 45.808594 16.070313 46.230469 16.15625 46.5C16.242188 46.769531 16.253906 46.839844 16.3125 47.28125C16.390625 47.898438 16.785156 48.449219 17.28125 48.8125C17.777344 49.175781 18.359375 49.398438 19.0625 49.5625C20.46875 49.890625 22.371094 50 24.9375 50C27.5 50 29.410156 49.910156 30.84375 49.59375C31.5625 49.433594 32.175781 49.207031 32.6875 48.84375C33.199219 48.480469 33.605469 47.917969 33.6875 47.28125C33.738281 46.902344 33.746094 46.914063 33.84375 46.625C33.941406 46.335938 34.0625 45.871094 34.21875 44.9375C34.675781 42.175781 36.070313 42.332031 37.34375 40.96875C37.386719 40.941406 37.425781 40.90625 37.46875 40.875C37.480469 40.863281 37.488281 40.855469 37.5 40.84375C39.003906 39.753906 40 37.996094 40 36L40 34C40.550781 34 41 33.550781 41 33L41 27C41 26.449219 40.550781 26 40 26L40 23C41.113281 22.917969 42 21.976563 42 20.84375L42 17.15625C42 16.023438 41.113281 15.082031 40 15L40 14C40 12.003906 39.003906 10.246094 37.5 9.15625C37.488281 9.144531 37.480469 9.136719 37.46875 9.125C37.425781 9.09375 37.386719 9.058594 37.34375 9.03125C36.09375 7.6875 34.738281 7.796875 34.21875 5.03125C34.0625 4.191406 33.929688 3.769531 33.84375 3.5C33.757813 3.230469 33.746094 3.160156 33.6875 2.71875C33.609375 2.101563 33.214844 1.550781 32.71875 1.1875C32.222656 0.824219 31.640625 0.601563 30.9375 0.4375C29.53125 0.109375 27.628906 0 25.0625 0 Z M 25.0625 2C27.566406 2 29.40625 2.121094 30.5 2.375C31.046875 2.503906 31.371094 2.664063 31.53125 2.78125C31.691406 2.898438 31.675781 2.921875 31.6875 3C31.757813 3.535156 31.855469 3.835938 31.9375 4.09375C32.019531 4.351563 32.105469 4.628906 32.25 5.40625C32.457031 6.511719 32.863281 7.328125 33.3125 8L16.71875 8C17.167969 7.324219 17.566406 6.488281 17.75 5.375C17.894531 4.507813 17.988281 4.21875 18.0625 4C18.136719 3.78125 18.246094 3.503906 18.3125 3C18.324219 2.914063 18.300781 2.902344 18.46875 2.78125C18.636719 2.660156 18.996094 2.5 19.5625 2.375C20.691406 2.125 22.554688 2 25.0625 2 Z M 29 15C30.105469 15 31 15.894531 31 17C31 18.105469 30.105469 19 29 19C27.894531 19 27 18.105469 27 17C27 15.894531 27.894531 15 29 15 Z M 21.5 16C22.328125 16 23 16.671875 23 17.5C23 18.328125 22.328125 19 21.5 19C20.671875 19 20 18.328125 20 17.5C20 16.671875 20.671875 16 21.5 16 Z M 16.5 17C17.328125 17 18 17.671875 18 18.5C18 19.328125 17.328125 20 16.5 20C15.671875 20 15 19.328125 15 18.5C15 17.671875 15.671875 17 16.5 17 Z M 39.84375 17C39.945313 17 40 17.054688 40 17.15625L40 20.84375C40 20.945313 39.945313 21 39.84375 21L39.8125 21C39.800781 20.984375 39.796875 20.992188 39.78125 20.96875C39.648438 20.753906 39.4375 20.207031 39.4375 19C39.4375 17.792969 39.679688 17.242188 39.8125 17.03125C39.832031 17 39.828125 17.019531 39.84375 17 Z M 25 22C26.65625 22 28 23.34375 28 25C28 26.65625 26.65625 28 25 28C23.34375 28 22 26.65625 22 25C22 23.34375 23.34375 22 25 22 Z M 17 23C18.105469 23 19 23.894531 19 25C19 26.105469 18.105469 27 17 27C15.894531 27 15 26.105469 15 25C15 23.894531 15.894531 23 17 23 Z M 33 23C34.105469 23 35 23.894531 35 25C35 26.105469 34.105469 27 33 27C31.894531 27 31 26.105469 31 25C31 23.894531 31.894531 23 33 23 Z M 33.5 29C34.328125 29 35 29.671875 35 30.5C35 31.328125 34.328125 32 33.5 32C32.671875 32 32 31.328125 32 30.5C32 29.671875 32.671875 29 33.5 29 Z M 21 31C22.105469 31 23 31.894531 23 33C23 34.105469 22.105469 35 21 35C19.894531 35 19 34.105469 19 33C19 31.894531 19.894531 31 21 31 Z M 28.5 31C29.328125 31 30 31.671875 30 32.5C30 33.328125 29.328125 34 28.5 34C27.671875 34 27 33.328125 27 32.5C27 31.671875 27.671875 31 28.5 31 Z M 16.6875 42L33.28125 42C32.832031 42.675781 32.433594 43.511719 32.25 44.625C32.105469 45.492188 32.011719 45.78125 31.9375 46C31.863281 46.21875 31.753906 46.496094 31.6875 47C31.675781 47.085938 31.699219 47.097656 31.53125 47.21875C31.363281 47.339844 31.003906 47.5 30.4375 47.625C29.308594 47.875 27.445313 48 24.9375 48C22.433594 48 20.59375 47.878906 19.5 47.625C18.953125 47.496094 18.628906 47.335938 18.46875 47.21875C18.308594 47.101563 18.324219 47.078125 18.3125 47C18.242188 46.464844 18.144531 46.164063 18.0625 45.90625C17.980469 45.648438 17.894531 45.371094 17.75 44.59375C17.542969 43.488281 17.136719 42.671875 16.6875 42Z"/></svg>