<?xml version="1.0" encoding="utf-8"?><svg version="1.1" id="Layer_1" xmlns="http://www.w3.org/2000/svg" xmlns:xlink="http://www.w3.org/1999/xlink" x="0px" y="0px" viewBox="0 0 85.2 122.88" style="enable-background:new 0 0 85.2 122.88" xml:space="preserve"><style type="text/css">.st0{fill-rule:evenodd;clip-rule:evenodd;}</style><g><path class="st0" d="M79.88,52.56c2.97,0.27,5.31,2.78,5.31,5.81v7.14c0,3.03-2.35,5.54-5.31,5.81v14.37 c0,4.54-1.86,8.67-4.85,11.67c-2.99,2.99-7.12,4.85-11.67,4.85h-1.51H17.69h-1.18c-4.54,0-8.67-1.86-11.67-4.85 C1.86,94.36,0,90.23,0,85.69v-47.5c0-4.54,1.86-8.67,4.85-11.67c2.99-2.99,7.12-4.85,11.67-4.85h1.18V4.12 c0-2.27,1.85-4.12,4.12-4.12h35.92c2.27,0,4.12,1.86,4.12,4.12v17.55h1.51c4.54,0,8.67,1.86,11.67,4.85 c2.99,2.99,4.85,7.12,4.85,11.67V52.56L79.88,52.56z M40.34,72.72c1.89,0,3.44,1.53,3.44,3.44c0,1.89-1.53,3.44-3.44,3.44 c-1.89,0-3.44-1.53-3.44-3.44C36.9,74.26,38.43,72.72,40.34,72.72L40.34,72.72z M33.17,69.78l-0.01,0.01 c-0.02,0.02-0.05,0.03-0.07,0.05c-0.42,0.31-0.92,0.43-1.41,0.38c-0.52-0.05-1.02-0.3-1.37-0.74l0,0l0,0l-0.01-0.01l0,0l0,0 l-0.01-0.01c-0.02-0.02-0.03-0.05-0.05-0.07c-0.31-0.42-0.43-0.92-0.38-1.41c0.05-0.52,0.3-1.02,0.74-1.37l0,0l0,0l0.01-0.01 l0.02-0.02c1.51-1.23,3.09-2.16,4.71-2.79c1.65-0.64,3.34-0.97,5.04-0.98c1.68-0.01,3.36,0.3,5.01,0.94 c1.61,0.62,3.19,1.55,4.72,2.79c0.44,0.35,0.69,0.85,0.75,1.37c0.06,0.52-0.09,1.06-0.44,1.5c-0.35,0.44-0.85,0.69-1.37,0.75 c-0.52,0.06-1.06-0.09-1.5-0.44c-1.17-0.95-2.36-1.66-3.55-2.13c-1.2-0.47-2.4-0.7-3.59-0.7c-0.02,0-0.05,0-0.07,0 c-1.18,0.02-2.37,0.26-3.55,0.73c-1.21,0.48-2.4,1.19-3.56,2.12C33.2,69.75,33.18,69.77,33.17,69.78L33.17,69.78L33.17,69.78z M20.53,56.73c-0.42,0.33-0.94,0.48-1.43,0.43c-0.52-0.04-1.02-0.28-1.39-0.71l-0.01-0.01l0,0c-0.36-0.43-0.52-0.97-0.48-1.49 c0.04-0.52,0.28-1.02,0.71-1.39l0,0v0c3.4-2.92,7.04-5.13,10.8-6.61c3.79-1.49,7.71-2.23,11.66-2.2c3.89,0.03,7.8,0.82,11.62,2.39 c3.7,1.52,7.32,3.78,10.76,6.79l0.01,0.01l0,0c0.01,0.01,0.03,0.02,0.04,0.03v0v0l0,0c0.4,0.37,0.62,0.86,0.65,1.37 c0.04,0.53-0.13,1.06-0.51,1.49l0,0l-0.03,0.04l0,0l0,0v0l0,0c-0.37,0.4-0.86,0.62-1.37,0.65c-0.53,0.04-1.06-0.13-1.49-0.51 c-0.01-0.01-0.02-0.02-0.04-0.03l0,0l0,0l0,0l-0.01-0.01c-3.07-2.67-6.27-4.67-9.52-6.01c-3.35-1.39-6.76-2.08-10.14-2.12 c-3.42-0.03-6.84,0.62-10.17,1.93c-3.29,1.3-6.47,3.24-9.48,5.8C20.65,56.64,20.59,56.69,20.53,56.73L20.53,56.73z M27.05,63.61 c-0.42,0.38-0.95,0.54-1.47,0.51c-0.52-0.03-1.03-0.26-1.41-0.67l-0.01-0.01l0,0c-0.38-0.42-0.54-0.95-0.51-1.47 c0.03-0.52,0.26-1.03,0.67-1.41l0.01-0.01l0,0c2.56-2.27,5.21-3.98,7.9-5.12c2.7-1.14,5.45-1.69,8.23-1.65 c2.74,0.05,5.47,0.68,8.17,1.93c2.62,1.21,5.21,2.99,7.74,5.37c0.41,0.39,0.63,0.91,0.64,1.43c0.02,0.52-0.17,1.05-0.55,1.47 c-0.39,0.41-0.91,0.63-1.43,0.65c-0.52,0.02-1.05-0.17-1.47-0.55c-2.17-2.05-4.36-3.57-6.55-4.6c-2.21-1.03-4.43-1.56-6.63-1.6 c-2.23-0.04-4.46,0.43-6.67,1.37C31.47,60.22,29.24,61.67,27.05,63.61L27.05,63.61L27.05,63.61z M21.94,32.53h36 c6.14,0,11.16,5.02,11.16,11.16v36.5c0,6.14-5.02,11.16-11.16,11.16h-36c-6.14,0-11.16-5.02-11.16-11.16v-36.5 C10.78,37.55,15.8,32.53,21.94,32.53L21.94,32.53z M63.37,25.65H16.52c-3.44,0-6.58,1.41-8.85,3.68c-2.27,2.27-3.68,5.41-3.68,8.85 v47.5c0,3.44,1.41,6.58,3.68,8.85c2.27,2.27,5.41,3.68,8.85,3.68h46.85c3.44,0,6.58-1.41,8.85-3.68c2.27-2.27,3.68-5.41,3.68-8.85 v-47.5c0-3.44-1.41-6.58-3.68-8.85C69.94,27.07,66.81,25.65,63.37,25.65L63.37,25.65z M61.86,102.2v16.56 c0,2.27-1.86,4.12-4.12,4.12H21.82c-2.27,0-4.12-1.85-4.12-4.12V102.2H61.86L61.86,102.2z"/></g></svg>