<svg xmlns="http://www.w3.org/2000/svg" xmlns:xlink="http://www.w3.org/1999/xlink" viewBox="0 0 50 50"><path d="M25.0625 0C22.5 0 20.589844 0.0898438 19.15625 0.40625C18.4375 0.566406 17.824219 0.792969 17.3125 1.15625C16.800781 1.519531 16.394531 2.082031 16.3125 2.71875C16.261719 3.097656 16.253906 3.085938 16.15625 3.375C16.058594 3.664063 15.9375 4.128906 15.78125 5.0625C15.324219 7.824219 13.929688 7.667969 12.65625 9.03125C12.609375 9.082031 12.546875 9.101563 12.5 9.15625C10.996094 10.25 10 12.007813 10 14L10 36C10 37.992188 10.996094 39.75 12.5 40.84375C12.511719 40.855469 12.519531 40.863281 12.53125 40.875C12.574219 40.90625 12.613281 40.941406 12.65625 40.96875C13.90625 42.3125 15.261719 42.203125 15.78125 44.96875C15.9375 45.808594 16.070313 46.230469 16.15625 46.5C16.242188 46.769531 16.253906 46.839844 16.3125 47.28125C16.390625 47.898438 16.785156 48.449219 17.28125 48.8125C17.777344 49.175781 18.359375 49.398438 19.0625 49.5625C20.46875 49.890625 22.371094 50 24.9375 50C27.5 50 29.410156 49.910156 30.84375 49.59375C31.5625 49.433594 32.175781 49.207031 32.6875 48.84375C33.199219 48.480469 33.605469 47.917969 33.6875 47.28125C33.738281 46.902344 33.746094 46.914063 33.84375 46.625C33.941406 46.335938 34.0625 45.871094 34.21875 44.9375C34.675781 42.175781 36.070313 42.332031 37.34375 40.96875C37.386719 40.941406 37.425781 40.90625 37.46875 40.875C37.480469 40.863281 37.488281 40.855469 37.5 40.84375C39.003906 39.75 40 37.992188 40 36L40 34C40.550781 34 41 33.550781 41 33L41 27C41 26.449219 40.550781 26 40 26L40 23C41.113281 22.917969 42 21.976563 42 20.84375L42 17.15625C42 16.023438 41.113281 15.082031 40 15L40 14C40 12.007813 39.003906 10.25 37.5 9.15625C37.488281 9.144531 37.480469 9.136719 37.46875 9.125C37.425781 9.09375 37.386719 9.058594 37.34375 9.03125C36.09375 7.6875 34.738281 7.796875 34.21875 5.03125C34.0625 4.191406 33.929688 3.769531 33.84375 3.5C33.757813 3.230469 33.746094 3.160156 33.6875 2.71875C33.609375 2.101563 33.214844 1.550781 32.71875 1.1875C32.222656 0.824219 31.640625 0.601563 30.9375 0.4375C29.53125 0.109375 27.628906 0 25.0625 0 Z M 25.0625 2C27.566406 2 29.40625 2.121094 30.5 2.375C31.046875 2.503906 31.371094 2.664063 31.53125 2.78125C31.691406 2.898438 31.675781 2.921875 31.6875 3C31.757813 3.535156 31.855469 3.835938 31.9375 4.09375C32.019531 4.351563 32.105469 4.628906 32.25 5.40625C32.457031 6.511719 32.863281 7.328125 33.3125 8L16.71875 8C17.167969 7.324219 17.566406 6.488281 17.75 5.375C17.894531 4.507813 17.988281 4.21875 18.0625 4C18.136719 3.78125 18.246094 3.503906 18.3125 3C18.324219 2.914063 18.300781 2.902344 18.46875 2.78125C18.636719 2.660156 18.996094 2.5 19.5625 2.375C20.691406 2.125 22.554688 2 25.0625 2 Z M 16 10L34 10C36.21875 10 38 11.78125 38 14L38 16.15625C37.667969 16.773438 37.4375 17.664063 37.4375 19C37.4375 20.332031 37.671875 21.222656 38 21.84375L38 36C38 38.21875 36.21875 40 34 40L16 40C13.78125 40 12 38.21875 12 36L12 14C12 11.78125 13.78125 10 16 10 Z M 29 14C27.355469 14 26 15.355469 26 17C26 18.644531 27.355469 20 29 20C30.644531 20 32 18.644531 32 17C32 15.355469 30.644531 14 29 14 Z M 21.5 15C20.132813 15 19 16.132813 19 17.5C19 18.867188 20.132813 20 21.5 20C22.867188 20 24 18.867188 24 17.5C24 16.132813 22.867188 15 21.5 15 Z M 29 16C29.5625 16 30 16.4375 30 17C30 17.5625 29.5625 18 29 18C28.4375 18 28 17.5625 28 17C28 16.4375 28.4375 16 29 16 Z M 16.5 17C15.671875 17 15 17.671875 15 18.5C15 19.328125 15.671875 20 16.5 20C17.328125 20 18 19.328125 18 18.5C18 17.671875 17.328125 17 16.5 17 Z M 21.5 17C21.789063 17 22 17.210938 22 17.5C22 17.789063 21.789063 18 21.5 18C21.210938 18 21 17.789063 21 17.5C21 17.210938 21.210938 17 21.5 17 Z M 39.84375 17C39.945313 17 40 17.054688 40 17.15625L40 20.84375C40 20.945313 39.945313 21 39.84375 21L39.8125 21C39.800781 20.984375 39.796875 20.992188 39.78125 20.96875C39.648438 20.753906 39.4375 20.207031 39.4375 19C39.4375 17.792969 39.679688 17.242188 39.8125 17.03125C39.832031 17 39.828125 17.019531 39.84375 17 Z M 25 21C22.800781 21 21 22.800781 21 25C21 27.199219 22.800781 29 25 29C27.199219 29 29 27.199219 29 25C29 22.800781 27.199219 21 25 21 Z M 17 22C15.355469 22 14 23.355469 14 25C14 26.644531 15.355469 28 17 28C18.644531 28 20 26.644531 20 25C20 23.355469 18.644531 22 17 22 Z M 33 22C31.355469 22 30 23.355469 30 25C30 26.644531 31.355469 28 33 28C34.644531 28 36 26.644531 36 25C36 23.355469 34.644531 22 33 22 Z M 25 23C26.117188 23 27 23.882813 27 25C27 26.117188 26.117188 27 25 27C23.882813 27 23 26.117188 23 25C23 23.882813 23.882813 23 25 23 Z M 17 24C17.5625 24 18 24.4375 18 25C18 25.5625 17.5625 26 17 26C16.4375 26 16 25.5625 16 25C16 24.4375 16.4375 24 17 24 Z M 33 24C33.5625 24 34 24.4375 34 25C34 25.5625 33.5625 26 33 26C32.4375 26 32 25.5625 32 25C32 24.4375 32.4375 24 33 24 Z M 33.5 29C32.671875 29 32 29.671875 32 30.5C32 31.328125 32.671875 32 33.5 32C34.328125 32 35 31.328125 35 30.5C35 29.671875 34.328125 29 33.5 29 Z M 21 30C19.355469 30 18 31.355469 18 33C18 34.644531 19.355469 36 21 36C22.644531 36 24 34.644531 24 33C24 31.355469 22.644531 30 21 30 Z M 28.5 30C27.132813 30 26 31.132813 26 32.5C26 33.867188 27.132813 35 28.5 35C29.867188 35 31 33.867188 31 32.5C31 31.132813 29.867188 30 28.5 30 Z M 21 32C21.5625 32 22 32.4375 22 33C22 33.5625 21.5625 34 21 34C20.4375 34 20 33.5625 20 33C20 32.4375 20.4375 32 21 32 Z M 28.5 32C28.789063 32 29 32.210938 29 32.5C29 32.789063 28.789063 33 28.5 33C28.210938 33 28 32.789063 28 32.5C28 32.210938 28.210938 32 28.5 32 Z M 16.6875 42L33.28125 42C32.832031 42.675781 32.433594 43.511719 32.25 44.625C32.105469 45.492188 32.011719 45.78125 31.9375 46C31.863281 46.21875 31.753906 46.496094 31.6875 47C31.675781 47.085938 31.699219 47.097656 31.53125 47.21875C31.363281 47.339844 31.003906 47.5 30.4375 47.625C29.308594 47.875 27.445313 48 24.9375 48C22.433594 48 20.59375 47.878906 19.5 47.625C18.953125 47.496094 18.628906 47.335938 18.46875 47.21875C18.308594 47.101563 18.324219 47.078125 18.3125 47C18.242188 46.464844 18.144531 46.164063 18.0625 45.90625C17.980469 45.648438 17.894531 45.371094 17.75 44.59375C17.542969 43.488281 17.136719 42.671875 16.6875 42Z"/></svg>