<?xml version="1.0" encoding="utf-8"?><svg version="1.1" id="Layer_1" xmlns="http://www.w3.org/2000/svg" xmlns:xlink="http://www.w3.org/1999/xlink" x="0px" y="0px" viewBox="0 0 85.2 122.88" style="enable-background:new 0 0 85.2 122.88" xml:space="preserve"><style type="text/css">.st0{fill-rule:evenodd;clip-rule:evenodd;}</style><g><path class="st0" d="M79.88,52.56c2.97,0.27,5.31,2.78,5.31,5.81v7.14c0,3.03-2.35,5.54-5.31,5.81v14.37 c0,4.54-1.86,8.67-4.85,11.67c-2.99,2.99-7.12,4.85-11.67,4.85h-1.51H17.69h-1.18c-4.54,0-8.67-1.86-11.67-4.85 C1.86,94.36,0,90.23,0,85.69v-47.5c0-4.54,1.86-8.67,4.85-11.67c2.99-2.99,7.12-4.85,11.67-4.85h1.18V4.12 c0-2.27,1.85-4.12,4.12-4.12h35.92c2.27,0,4.12,1.86,4.12,4.12v17.55h1.51c4.54,0,8.67,1.86,11.67,4.85 c2.99,2.99,4.85,7.12,4.85,11.67V52.56L79.88,52.56z M37.34,44.57l10.19,0.12l-4.75,15.37h11L35.68,82.47l4.6-15.45h-8.86 L37.34,44.57L37.34,44.57z M21.94,32.53h36c6.14,0,11.16,5.02,11.16,11.16v36.5c0,6.14-5.02,11.16-11.16,11.16h-36 c-6.14,0-11.16-5.02-11.16-11.16v-36.5C10.78,37.55,15.8,32.53,21.94,32.53L21.94,32.53z M63.37,25.65H16.52 c-3.44,0-6.58,1.41-8.85,3.68c-2.27,2.27-3.68,5.41-3.68,8.85v47.5c0,3.44,1.41,6.58,3.68,8.85c2.27,2.27,5.41,3.68,8.85,3.68 h46.85c3.44,0,6.58-1.41,8.85-3.68c2.27-2.27,3.68-5.41,3.68-8.85v-47.5c0-3.44-1.41-6.58-3.68-8.85 C69.94,27.07,66.81,25.65,63.37,25.65L63.37,25.65z M61.86,102.2v16.56c0,2.27-1.86,4.12-4.12,4.12H21.82 c-2.27,0-4.12-1.85-4.12-4.12V102.2H61.86L61.86,102.2z"/></g></svg>