<?xml version="1.0" encoding="utf-8"?><svg version="1.1" id="Layer_1" xmlns="http://www.w3.org/2000/svg" xmlns:xlink="http://www.w3.org/1999/xlink" x="0px" y="0px" viewBox="0 0 110.26 122.88" style="enable-background:new 0 0 110.26 122.88" xml:space="preserve"><style type="text/css">.st0{fill-rule:evenodd;clip-rule:evenodd;}</style><g><path class="st0" d="M10.69,55.55C5.74,57,3.64,62.09,3.71,67.87c0.03,2.61,0.5,5.35,1.35,8c0.85,2.64,2.07,5.15,3.62,7.31 c3.52,4.93,8.76,7.94,14.9,5.83c0.46-0.16,0.95-0.12,1.36,0.07c0.1-0.04,0.2-0.07,0.31-0.11c1.53-0.5,2.95-0.93,4.24-1.32 c1.44-0.43,2.8-0.82,4.08-1.16c0.99-0.27,2.01,0.32,2.28,1.31c0.02,0.07,0.03,0.14,0.04,0.21c0.18,0.81,0.37,1.62,0.55,2.43 c1.41,6.28,2.77,12.34,4.59,17.26c0.03,0.09,0.27,0.76,0.52,1.43c1.12,3.1,2.33,6.41,3.88,8.36c1.37,1.71,3.26,2.22,6.2-0.08 c0.55-0.52,1.11-1,1.68-1.49c1.75-1.51,3.51-3.01,4.15-5.27c-0.4-0.55-1.17-0.88-1.94-1.21c-2.57-1.09-5.14-2.19-4.45-7.59 c0.03-0.28,0.07-0.53,0.1-0.78c0.2-1.58,0.31-2.39,0.21-2.74c-0.05-0.19-0.44-0.54-1.21-1.25l-0.28-0.26 c-1.52-1.39-2.06-3.38-2.04-5.53c0.02-2.53,0.85-5.31,1.68-7.31c0.26-0.63,0.83-1.04,1.46-1.13l0,0 c19.22-2.66,30.94,0.68,40.26,3.34c0.4,0.11,0.8,0.23,1.19,0.34c-8.32-8.58-15.14-21.58-19.81-34.9 c-4.93-14.07-7.46-28.61-6.8-38.79c-7.62,11.26-20.99,29.14-52.86,40.86c-0.03,0.01-0.06,0.02-0.09,0.03l-0.25,0.09 c-0.33,0.12-0.38,0.09-0.43,0.13c-0.07,0.06,0,0.06-0.13,0.27c-0.02,0.03,0.04-0.07-0.34,0.53C11.49,55.15,11.11,55.42,10.69,55.55 L10.69,55.55L10.69,55.55z M90.07,52.82c0,4.61-4.52,12.9-7.35,13.06c4.82,9.44,10.74,17.61,17.41,22.49 c0.39,0.05,0.75,0.08,1.09,0.06c0.65-0.02,1.29-0.2,1.99-0.64c1.52-1.53,2.48-3.93,2.97-6.96c1.5-9.34-1.56-23.97-6.69-38.05 C94.35,28.67,87.17,15.22,80.46,8.26C78,5.71,75.68,4.11,73.67,3.78c-0.51-0.08-0.8-0.1-0.94-0.05c-0.17,0.06-0.43,0.3-0.84,0.71 c-0.2,0.2-0.4,0.42-0.61,0.66c-0.02,0.06-0.05,0.12-0.07,0.17c-3.14,6.48-2.12,20.47,1.95,35.47l0,0 C76.23,39.3,90.07,40.94,90.07,52.82L90.07,52.82z M99.94,92.08c-0.4,0.08-0.83,0.02-1.21-0.18c-0.35-0.06-0.7-0.14-1.07-0.21 c-2.42-0.5-4.83-1.19-7.43-1.93c-8.81-2.51-19.86-5.66-37.66-3.38c-0.55,1.52-1.01,3.33-1.02,4.94c-0.01,1.16,0.21,2.18,0.83,2.75 l0.28,0.26c1.32,1.2,1.97,1.79,2.3,3.04c0.28,1.04,0.14,2.09-0.13,4.17c-0.03,0.24-0.06,0.5-0.1,0.78 c-0.33,2.62,0.95,3.17,2.23,3.71c1.66,0.71,3.33,1.42,4.15,3.69c0.14,0.33,0.19,0.71,0.12,1.09c-0.75,3.84-3.13,5.89-5.52,7.94 c-0.53,0.46-1.06,0.91-1.56,1.38l0,0c-0.04,0.04-0.08,0.07-0.12,0.11c-5.2,4.16-8.77,2.99-11.5-0.42 c-1.95-2.44-3.26-6.04-4.48-9.41c-0.1-0.29-0.21-0.57-0.52-1.42c-1.89-5.1-3.28-11.31-4.72-17.73l-0.15-0.65 c-0.72,0.2-1.43,0.41-2.13,0.62c-1.45,0.43-2.84,0.86-4.17,1.29c-0.17,0.05-0.28,0.1-0.37,0.14c-0.87,0.35-1.26,0.5-2.04,0.14 c-7.65,2.23-14.04-1.46-18.32-7.45C3.89,82.86,2.49,79.99,1.53,77C0.57,74.01,0.04,70.89,0,67.9c-0.08-7.1,2.62-13.44,8.94-15.68 c0.31-0.51,0.49-0.79,0.88-1.12c0.44-0.37,0.8-0.5,1.55-0.77l0.24-0.09c0.03-0.01,0.06-0.02,0.09-0.03 C44.41,38.17,56.97,19.42,64.11,8.75c2-2.98,3.59-5.36,5.16-6.93c0.77-0.77,1.36-1.26,2.16-1.56c0.83-0.31,1.64-0.33,2.82-0.14 c2.86,0.46,5.87,2.45,8.88,5.57c7.06,7.32,14.55,21.28,19.85,35.84c5.31,14.6,8.47,29.91,6.86,39.89 c-0.62,3.88-1.96,7.03-4.16,9.15l0,0c-0.07,0.07-0.16,0.14-0.25,0.2c-1.4,0.95-2.72,1.32-4.08,1.38 C100.88,92.16,100.41,92.13,99.94,92.08L99.94,92.08z"/></g></svg>