<?xml version="1.0" encoding="utf-8"?><svg version="1.1" id="Layer_1" xmlns="http://www.w3.org/2000/svg" xmlns:xlink="http://www.w3.org/1999/xlink" x="0px" y="0px" viewBox="0 0 122.88 91.69" style="enable-background:new 0 0 122.88 91.69" xml:space="preserve"><g><path d="M55.89,2.24c-0.51-0.51-0.51-1.34,0-1.86c0.51-0.51,1.34-0.51,1.86,0c2.75,2.75,1.7,4.7,0.49,6.97 c-0.86,1.61-1.85,3.45-0.28,6.17c0.36,0.63,0.15,1.43-0.48,1.79c-0.63,0.36-1.43,0.15-1.79-0.48c-2.3-3.98-0.94-6.51,0.24-8.72 C56.64,4.78,57.27,3.62,55.89,2.24L55.89,2.24z M5.41,55.12h11.26c-0.01-1.41-0.05-2.49-0.07-3.42c-0.1-3.54-0.16-5.31,0.99-6.6 c1.24-1.39,2.91-1.33,6.27-1.22c1.09,0.04,2.42,0.08,4.32,0.08c1.02,0,1.84,0.82,1.84,1.84c0,1.02-0.82,1.84-1.84,1.84 c-1.59,0-3.15-0.05-4.44-0.1c-2.21-0.08-3.31-0.11-3.41,0c-0.18,0.2-0.14,1.49-0.07,4.05c0.03,1.04,0.07,2.25,0.08,3.52h20.91 v-7.28c0-0.78,0.82-1.42,1.84-1.42c1.02,0,1.84,0.63,1.84,1.42v7.28h20.91c0.02-1.27,0.05-2.47,0.08-3.52 c0.08-2.56,0.11-3.85-0.07-4.05c-0.1-0.11-1.2-0.07-3.41,0c-1.28,0.04-2.85,0.1-4.44,0.1c-1.02,0-1.84-0.82-1.84-1.84 c0-1.02,0.82-1.84,1.84-1.84c1.91,0,3.23-0.05,4.32-0.08c3.36-0.12,5.03-0.17,6.27,1.22c1.14,1.29,1.09,3.06,0.99,6.6 c-0.03,0.93-0.06,2.01-0.07,3.42h26.37c1.49,0,2.84,0.61,3.82,1.59c0.04,0.04,0.08,0.08,0.11,0.12c0.91,0.97,1.47,2.27,1.47,3.7 v5.01c3.73,0.03,6.75,3.07,6.75,6.81c0,3.74-3.02,6.78-6.75,6.81v4.42c0,1.48-0.61,2.83-1.59,3.81l0,0l0,0l0,0 c-0.98,0.98-2.33,1.58-3.81,1.58h-8.71v1.92c0,0.44-0.82,0.79-1.84,0.79c-1.02,0-1.84-0.35-1.84-0.79v-1.92H14.84v1.92 c0,0.44-0.82,0.79-1.84,0.79c-1.02,0-1.84-0.35-1.84-0.79v-1.92H5.41c-1.48,0-2.83-0.61-3.82-1.59l0,0C0.61,86.41,0,85.06,0,83.57 V60.53c0-1.48,0.61-2.83,1.59-3.81l0,0l0,0C2.57,55.73,3.92,55.12,5.41,55.12L5.41,55.12z M95.89,58.8H5.41 c-0.47,0-0.91,0.2-1.22,0.51l0,0c-0.31,0.31-0.51,0.75-0.51,1.22v23.04c0,0.47,0.2,0.91,0.51,1.22l0,0l0,0 c0.31,0.31,0.74,0.5,1.22,0.5h90.49c0.48,0,0.91-0.19,1.22-0.5h0l0.01-0.01c0.31-0.31,0.5-0.74,0.5-1.22V60.53 c0-0.44-0.17-0.85-0.44-1.16c-0.02-0.02-0.05-0.04-0.07-0.06C96.8,59,96.37,58.8,95.89,58.8L95.89,58.8z M118.68,23.22H97.81 c-1.65,0-3.09,0.97-3.77,2.36H77.45L78,22.66c0.15-0.82-0.39-1.61-1.2-1.76c-0.09-0.02-0.19-0.03-0.28-0.03v0H13.49 c-0.83,0-1.51,0.68-1.51,1.51c0,0.17,0.03,0.34,0.08,0.49l2.26,8.57c0.66,2.48,1.76,4.83,3.42,6.49c1.51,1.51,3.43,2.45,5.84,2.45 h43.49c2.46,0,4.5-0.97,6.06-2.53c1.66-1.66,2.75-3.99,3.23-6.51l0.39-2.08h17.29c0.69,1.39,2.12,2.36,3.77,2.36h20.87 c2.31,0,4.2-1.89,4.2-4.2C122.88,25.11,120.99,23.22,118.68,23.22L118.68,23.22z M73.4,30.78c-0.36,1.94-1.18,3.7-2.4,4.93 c-1.02,1.02-2.33,1.65-3.92,1.65H23.58c-1.52,0-2.75-0.6-3.71-1.56c-1.25-1.25-2.11-3.11-2.64-5.12l-1.79-6.78H74.7 C74.26,26.2,73.84,28.47,73.4,30.78L73.4,30.78z M30.15,2.24c-0.51-0.51-0.51-1.34,0-1.86c0.51-0.51,1.34-0.51,1.86,0 c2.75,2.75,1.7,4.7,0.48,6.97c-0.86,1.61-1.85,3.45-0.28,6.17c0.36,0.63,0.15,1.43-0.48,1.79c-0.63,0.36-1.43,0.15-1.79-0.48 c-2.3-3.98-0.94-6.51,0.24-8.72C30.9,4.78,31.53,3.62,30.15,2.24L30.15,2.24z M38.73,2.24c-0.51-0.51-0.51-1.34,0-1.86 c0.51-0.51,1.34-0.51,1.86,0c2.75,2.75,1.7,4.7,0.49,6.97c-0.86,1.61-1.85,3.46-0.28,6.18c0.36,0.63,0.14,1.43-0.48,1.79 c-0.63,0.36-1.43,0.14-1.79-0.48c-2.3-3.98-0.94-6.5,0.24-8.71C39.48,4.78,40.11,3.62,38.73,2.24L38.73,2.24z M47.31,2.24 c-0.51-0.51-0.51-1.34,0-1.86c0.51-0.51,1.34-0.51,1.86,0c2.75,2.75,1.7,4.71,0.49,6.97c-0.86,1.61-1.85,3.46-0.28,6.18 c0.36,0.63,0.14,1.43-0.48,1.79c-0.63,0.36-1.43,0.14-1.79-0.48c-2.3-3.98-0.94-6.5,0.24-8.71C48.06,4.78,48.69,3.62,47.31,2.24 L47.31,2.24z"/></g></svg>