<svg xmlns="http://www.w3.org/2000/svg" xmlns:xlink="http://www.w3.org/1999/xlink" viewBox="0 0 50 50"><path d="M12 3C10.35503 3 9 4.3550302 9 6L9 44C9 45.64497 10.35503 47 12 47L38 47C39.64497 47 41 45.64497 41 44L41 6C41 4.3550302 39.64497 3 38 3L12 3 z M 12 5L38 5C38.56503 5 39 5.4349698 39 6L39 44C39 44.56503 38.56503 45 38 45L12 45C11.43497 45 11 44.56503 11 44L11 6C11 5.4349698 11.43497 5 12 5 z M 14 7 A 1 1 0 0 0 13 8 A 1 1 0 0 0 14 9 A 1 1 0 0 0 15 8 A 1 1 0 0 0 14 7 z M 25 7C21.698136 7 19 9.6981361 19 13C19 16.301864 21.698136 19 25 19C28.301864 19 31 16.301864 31 13C31 9.6981361 28.301864 7 25 7 z M 36 7 A 1 1 0 0 0 35 8 A 1 1 0 0 0 36 9 A 1 1 0 0 0 37 8 A 1 1 0 0 0 36 7 z M 25 9C27.220984 9 29 10.779016 29 13C29 15.220984 27.220984 17 25 17C22.779016 17 21 15.220984 21 13C21 10.779016 22.779016 9 25 9 z M 25 11 A 2 2 0 0 0 23 13 A 2 2 0 0 0 25 15 A 2 2 0 0 0 27 13 A 2 2 0 0 0 25 11 z M 25 23C19.488997 23 15 27.488997 15 33C15 38.511003 19.488997 43 25 43C30.511003 43 35 38.511003 35 33C35 27.488997 30.511003 23 25 23 z M 25 25C29.430123 25 33 28.569877 33 33C33 37.430123 29.430123 41 25 41C20.569877 41 17 37.430123 17 33C17 28.569877 20.569877 25 25 25 z M 25 29C22.802706 29 21 30.802706 21 33C21 35.197294 22.802706 37 25 37C27.197294 37 29 35.197294 29 33C29 30.802706 27.197294 29 25 29 z M 25 31C26.116414 31 27 31.883586 27 33C27 34.116414 26.116414 35 25 35C23.883586 35 23 34.116414 23 33C23 31.883586 23.883586 31 25 31 z M 14 41 A 1 1 0 0 0 13 42 A 1 1 0 0 0 14 43 A 1 1 0 0 0 15 42 A 1 1 0 0 0 14 41 z M 36 41 A 1 1 0 0 0 35 42 A 1 1 0 0 0 36 43 A 1 1 0 0 0 37 42 A 1 1 0 0 0 36 41 z"/></svg>