<svg xmlns="http://www.w3.org/2000/svg" xmlns:xlink="http://www.w3.org/1999/xlink" viewBox="0 0 50 50"><path d="M12 3C10.346 3 9 4.346 9 6L9 44C9 45.654 10.346 47 12 47L38 47C39.654 47 41 45.654 41 44L41 6C41 4.346 39.654 3 38 3L12 3 z M 14 7C14.552 7 15 7.448 15 8C15 8.552 14.552 9 14 9C13.448 9 13 8.552 13 8C13 7.448 13.448 7 14 7 z M 36 7C36.552 7 37 7.448 37 8C37 8.552 36.552 9 36 9C35.448 9 35 8.552 35 8C35 7.448 35.448 7 36 7 z M 25 8C27.761 8 30 10.239 30 13C30 15.761 27.761 18 25 18C22.239 18 20 15.761 20 13C20 10.239 22.239 8 25 8 z M 25 11 A 2 2 0 0 0 23 13 A 2 2 0 0 0 25 15 A 2 2 0 0 0 27 13 A 2 2 0 0 0 25 11 z M 25 24C29.971 24 34 28.029 34 33C34 37.971 29.971 42 25 42C20.029 42 16 37.971 16 33C16 28.029 20.029 24 25 24 z M 25 30 A 3 3 0 0 0 22 33 A 3 3 0 0 0 25 36 A 3 3 0 0 0 28 33 A 3 3 0 0 0 25 30 z M 14 41C14.552 41 15 41.448 15 42C15 42.552 14.552 43 14 43C13.448 43 13 42.552 13 42C13 41.448 13.448 41 14 41 z M 36 41C36.552 41 37 41.448 37 42C37 42.552 36.552 43 36 43C35.448 43 35 42.552 35 42C35 41.448 35.448 41 36 41 z"/></svg>