<svg xmlns="http://www.w3.org/2000/svg" xmlns:xlink="http://www.w3.org/1999/xlink" viewBox="0 0 50 50"><path d="M24.59375 2.09375C14.09375 2.09375 5.59375 10.59375 5.59375 21.09375C5.59375 31.59375 14.09375 40.09375 24.59375 40.09375C35.09375 40.09375 43.59375 31.59375 43.59375 21.09375C43.59375 10.59375 35.09375 2.09375 24.59375 2.09375 Z M 21 8C25.800781 8 27 11.800781 27 14.5C27 15.699219 26.792969 16.914063 26.59375 17.8125C26.09375 17.613281 25.601563 17.40625 25 17.40625C24 17.40625 23.101563 17.800781 22.5 18.5C20.699219 15.101563 17 15.605469 17 11.90625C17 9.507813 18.898438 8 21 8 Z M 34.78125 18.25C35.421875 18.191406 36.105469 18.335938 36.90625 18.8125C39.007813 20.011719 39.3125 22.386719 38.3125 24.1875C35.914063 28.1875 31.894531 27.300781 29.59375 26C28.59375 25.398438 27.605469 24.699219 26.90625 24C27.804688 23.398438 28.5 22.292969 28.5 21.09375C28.5 20.792969 28.40625 20.488281 28.40625 20.1875C31.332031 20.335938 32.855469 18.421875 34.78125 18.25 Z M 25 19C26.101563 19 27 19.898438 27 21C27 22.101563 26.101563 23 25 23C23.898438 23 23 22.101563 23 21C23 19.898438 23.898438 19 25 19 Z M 21.5 21.1875C21.601563 22.6875 22.695313 24.007813 24.09375 24.40625C21.992188 27.605469 24.292969 30.601563 21.09375 32.5C18.992188 33.699219 16.6875 32.800781 15.6875 31C13.289063 26.898438 16.007813 23.898438 18.40625 22.5C19.40625 21.898438 20.5 21.488281 21.5 21.1875 Z M 20.40625 41.5C19.707031 42.601563 18.40625 43.007813 16.90625 43.40625C15.207031 43.90625 13 44.5 13 47L13 49C13 49.601563 13.398438 50 14 50L36 50C36.601563 50 37 49.601563 37 49L37 47C37 44.5 34.792969 43.90625 33.09375 43.40625C31.59375 43.007813 30.292969 42.601563 29.59375 41.5C28.09375 41.800781 26.601563 42 25 42C23.398438 42 21.90625 41.800781 20.40625 41.5Z"/></svg>