<?xml version="1.0" encoding="utf-8"?><svg version="1.1" id="Layer_1" xmlns="http://www.w3.org/2000/svg" xmlns:xlink="http://www.w3.org/1999/xlink" x="0px" y="0px" viewBox="0 0 108.84 122.88" style="enable-background:new 0 0 108.84 122.88" xml:space="preserve"><style type="text/css">.st0{fill-rule:evenodd;clip-rule:evenodd;}</style><g><path class="st0" d="M89.84,122.88H19c0.68-8.61,5.08-15.16,11.38-19.62c-5.37-2.65-10.25-6.16-14.44-10.36 C6.09,83.05,0,69.45,0,54.42c0-15.03,6.09-28.63,15.94-38.48C25.79,6.09,39.39,0,54.42,0C69.45,0,83.05,6.09,92.9,15.94 c9.85,9.85,15.94,23.45,15.94,38.48c0,15.03-6.09,28.63-15.94,38.48c-4.15,4.15-8.97,7.64-14.28,10.28 C84.82,107.62,89.15,114.18,89.84,122.88L89.84,122.88z M58.75,42.7l0.15,0.02c0.32-0.41,0.66-0.82,1-1.22 c0.59-0.69,1.21-1.36,1.86-2.01c2.66-2.67,5.3-4.15,7.92-5.63c1.71-0.96,3.41-1.91,5.02-3.16c0.58-0.45,1-0.91,1.3-1.38 c0.51-0.82,0.64-1.7,0.49-2.58c-0.17-0.99-0.69-2-1.41-2.92c-0.79-1.02-1.82-1.93-2.93-2.63c-0.99-0.63-2.1-1.15-3.24-1.58 c-1.16-0.44-2.37-0.78-3.57-1.07c-1.1-0.26-2.18-0.44-3.25-0.54c-1.11-0.11-2.21-0.16-3.31-0.15c-3.72,0.03-6.81,0.73-9.24,1.95 c-2.22,1.12-3.89,2.68-5,4.58c-1.12,1.93-1.68,4.23-1.66,6.79c0.03,3.29,1.01,7,2.99,10.93c0.34,0.67,0.75,1.25,1.22,1.76 c0.18,0.2,0.37,0.39,0.57,0.57c2.09-1.44,4.63-2.29,7.36-2.29C56.31,42.15,57.57,42.35,58.75,42.7L58.75,42.7z M53.24,46.2 c-1.64,0.28-3.1,0.91-4.38,1.87c-0.16,0.14-0.32,0.29-0.47,0.44c-1.69,1.69-2.74,4.03-2.74,6.62s1.05,4.93,2.74,6.62 c0.35,0.35,0.72,0.67,1.12,0.95c0.23,0.15,0.46,0.29,0.7,0.43l0,0c0.1,0.06,0.2,0.13,0.29,0.2c1.34,0.74,2.88,1.16,4.51,1.16 c2.59,0,4.93-1.05,6.62-2.74c1.69-1.69,2.74-4.03,2.74-6.62s-1.05-4.93-2.74-6.62c-1.03-1.03-2.3-1.82-3.73-2.29 C56.2,45.96,54.64,45.96,53.24,46.2L53.24,46.2z M44.99,46.88c-0.2-0.19-0.39-0.39-0.58-0.6c-0.68-0.75-1.29-1.6-1.77-2.55 c-2.23-4.43-3.34-8.69-3.37-12.52c-0.03-3.22,0.7-6.14,2.14-8.62c1.46-2.51,3.63-4.56,6.49-6c2.91-1.47,6.54-2.3,10.84-2.33 c1.24-0.01,2.47,0.04,3.69,0.16c1.26,0.13,2.5,0.33,3.72,0.61c1.32,0.31,2.68,0.7,4.02,1.21c1.35,0.51,2.67,1.13,3.89,1.9 c1.45,0.91,2.81,2.12,3.87,3.48c1.06,1.37,1.83,2.92,2.11,4.52c0.3,1.71,0.04,3.46-1,5.1c-0.52,0.82-1.22,1.6-2.15,2.32 c-1.85,1.43-3.65,2.45-5.45,3.46c-2.41,1.36-4.84,2.72-7.13,5.02c-0.58,0.58-1.14,1.19-1.67,1.82c-0.14,0.16-0.28,0.33-0.41,0.49 c0.71,0.47,1.36,1.01,1.96,1.61c1.9,1.9,3.22,4.4,3.65,7.18c0.34-0.04,0.68-0.07,1.03-0.08c1.01-0.04,2.04,0.03,3.09,0.27 c4.84,1.12,8.82,2.99,11.79,5.41c2.49,2.03,4.27,4.46,5.26,7.17c1,2.72,1.18,5.7,0.46,8.81c-0.74,3.19-2.41,6.51-5.13,9.83l0,0 c-0.78,0.96-1.61,1.87-2.48,2.73c-0.9,0.88-1.84,1.71-2.85,2.46c-1.08,0.81-2.25,1.61-3.5,2.32c-1.26,0.72-2.59,1.34-3.95,1.78 c-1.63,0.53-3.42,0.8-5.14,0.74c-1.73-0.06-3.42-0.46-4.83-1.27c-1.52-0.87-2.7-2.19-3.3-4.03c-0.3-0.91-0.44-1.95-0.4-3.12 c0.08-2.33,0.45-4.37,0.83-6.41c0.5-2.72,1-5.46,0.7-8.7c-0.07-0.78-0.18-1.59-0.33-2.44c-0.06-0.37-0.13-0.74-0.21-1.1 c-1.22,0.38-2.51,0.58-3.86,0.58c-1.62,0-3.17-0.3-4.61-0.84c-0.08,0.19-0.16,0.38-0.25,0.57c-0.42,0.91-0.96,1.8-1.66,2.63 c-3.2,3.79-6.68,6.47-10.2,8c-2.95,1.29-5.92,1.77-8.77,1.41c-2.88-0.36-5.61-1.56-8.06-3.63c-2.49-2.11-4.68-5.11-6.39-9.05 c-0.5-1.14-0.93-2.29-1.3-3.46c-0.37-1.19-0.67-2.41-0.89-3.67c-0.23-1.33-0.4-2.73-0.46-4.17c-0.06-1.44,0-2.9,0.22-4.32 c0.27-1.7,0.85-3.42,1.68-4.92c0.85-1.52,1.97-2.83,3.33-3.71c1.47-0.95,3.18-1.4,5.09-1.09c0.96,0.15,1.95,0.5,2.97,1.07 c2.03,1.13,3.68,2.4,5.32,3.67c2.19,1.69,4.39,3.38,7.42,4.59c0.75,0.3,1.53,0.58,2.32,0.83c0.5,0.16,1.01,0.3,1.54,0.44 C42.75,50.37,43.69,48.47,44.99,46.88L44.99,46.88z M68.12,56.72c-0.24,1.72-0.81,3.38-1.73,4.96c-0.98,1.69-2.33,3.28-4.07,4.77 c0.11,0.52,0.21,1.04,0.3,1.55c0.15,0.86,0.27,1.77,0.36,2.72c0.35,3.74-0.2,6.71-0.74,9.68c-0.35,1.92-0.7,3.83-0.77,5.88 c-0.02,0.73,0.06,1.36,0.24,1.9c0.3,0.92,0.9,1.58,1.66,2.02c0.87,0.5,1.97,0.75,3.15,0.79c1.29,0.04,2.66-0.17,3.91-0.58 c1.13-0.37,2.23-0.88,3.29-1.48c1.07-0.61,2.12-1.32,3.1-2.06c0.9-0.68,1.73-1.4,2.5-2.15c0.79-0.78,1.53-1.59,2.22-2.44l0,0l0,0 c2.36-2.88,3.8-5.7,4.41-8.35c0.56-2.42,0.43-4.71-0.33-6.78c-0.76-2.08-2.17-3.98-4.16-5.6c-2.55-2.08-6.03-3.71-10.31-4.69 c-0.72-0.17-1.44-0.22-2.14-0.19C68.7,56.66,68.41,56.69,68.12,56.72L68.12,56.72z M47.17,65.46c-1.4-1-2.6-2.25-3.58-3.77 c-1.05-1.63-1.84-3.56-2.37-5.79c-0.5-0.14-1.01-0.28-1.51-0.44c-0.86-0.27-1.72-0.58-2.59-0.92c-3.49-1.4-5.89-3.25-8.28-5.09 c-1.54-1.19-3.08-2.37-4.87-3.37c-0.64-0.36-1.24-0.57-1.79-0.66c-0.96-0.15-1.82,0.07-2.56,0.55c-0.85,0.55-1.57,1.41-2.14,2.44 c-0.63,1.13-1.07,2.44-1.28,3.73c-0.19,1.17-0.23,2.39-0.18,3.61c0.05,1.23,0.21,2.48,0.42,3.7c0.19,1.09,0.45,2.16,0.78,3.2 c0.33,1.06,0.72,2.09,1.16,3.09c1.49,3.41,3.34,5.98,5.42,7.74c1.89,1.6,3.98,2.52,6.17,2.8c2.22,0.28,4.55-0.11,6.9-1.13 c3.01-1.31,6.05-3.67,8.89-7.03c0.47-0.56,0.85-1.17,1.14-1.81c0.13-0.27,0.24-0.54,0.33-0.82L47.17,65.46L47.17,65.46z M90.35,18.49C81.15,9.3,68.45,3.61,54.42,3.61c-14.03,0-26.73,5.69-35.93,14.88C9.3,27.69,3.61,40.39,3.61,54.42 c0,14.03,5.69,26.73,14.88,35.93c9.19,9.19,21.9,14.88,35.93,14.88c14.03,0,26.73-5.69,35.93-14.88 c9.19-9.19,14.88-21.9,14.88-35.93C105.23,40.39,99.54,27.69,90.35,18.49L90.35,18.49z"/></g></svg>