<svg xmlns="http://www.w3.org/2000/svg" xmlns:xlink="http://www.w3.org/1999/xlink" viewBox="0 0 50 50"><path d="M25 2C14.519531 2 6 10.519531 6 21C6 30.089844 12.425781 37.703125 20.96875 39.5625C20.878906 40.738281 20.515625 41.441406 20.03125 41.9375C19.46875 42.511719 18.632813 42.859375 17.6875 43.15625C16.742188 43.453125 15.71875 43.667969 14.78125 44.15625C13.84375 44.644531 13 45.667969 13 47L13 49C13 49.550781 13.449219 50 14 50L36 50C36.550781 50 37 49.550781 37 49L37 47C37 45.667969 36.15625 44.644531 35.21875 44.15625C34.28125 43.667969 33.257813 43.453125 32.3125 43.15625C31.367188 42.859375 30.53125 42.511719 29.96875 41.9375C29.484375 41.441406 29.121094 40.738281 29.03125 39.5625C37.570313 37.703125 44 30.089844 44 21C44 10.515625 35.472656 2 25 2 Z M 25 4C34.390625 4 42 11.597656 42 21C42 30.394531 34.394531 38 25 38C15.601563 38 8 30.394531 8 21C8 11.601563 15.601563 4 25 4 Z M 21 7C18.421875 7 16 8.984375 16 11.90625C16 13.050781 16.339844 14.019531 16.875 14.71875C17.410156 15.417969 18.085938 15.871094 18.71875 16.28125C19.859375 17.019531 20.886719 17.582031 21.59375 18.9375C21.34375 19.347656 21.183594 19.792969 21.09375 20.28125C20.070313 20.570313 18.960938 21.015625 17.90625 21.625C16.605469 22.375 15.199219 23.589844 14.40625 25.28125C13.613281 26.972656 13.550781 29.175781 14.875 31.46875C16.164063 33.699219 19.09375 34.804688 21.625 33.34375C22.613281 32.773438 23.285156 32 23.625 31.1875C23.964844 30.375 24.023438 29.566406 24.0625 28.8125C24.132813 27.460938 24.101563 26.28125 24.90625 25C24.9375 25 24.96875 25 25 25C25.46875 25 25.925781 24.902344 26.34375 24.75C27.105469 25.484375 28.050781 26.210938 29.09375 26.8125C30.394531 27.5625 32.136719 28.191406 34 28.03125C35.863281 27.871094 37.800781 26.824219 39.125 24.53125C40.414063 22.300781 39.90625 19.210938 37.375 17.75C36.386719 17.179688 35.371094 16.980469 34.5 17.09375C33.628906 17.207031 32.921875 17.5625 32.25 17.90625C31.042969 18.523438 30.019531 19.152344 28.5 19.09375C28.257813 18.652344 27.945313 18.257813 27.5625 17.9375C27.824219 16.910156 28 15.738281 28 14.53125C28 13.03125 27.664063 11.21875 26.59375 9.6875C25.523438 8.15625 23.648438 7 21 7 Z M 21 9C23.109375 9 24.226563 9.78125 24.96875 10.84375C25.710938 11.90625 26 13.339844 26 14.53125C26 15.40625 25.882813 16.3125 25.71875 17.09375C25.480469 17.050781 25.25 17 25 17C24.292969 17 23.640625 17.203125 23.0625 17.53125C22.089844 16.015625 20.753906 15.222656 19.78125 14.59375C19.1875 14.207031 18.753906 13.871094 18.46875 13.5C18.183594 13.128906 18 12.695313 18 11.90625C18 10.050781 19.398438 9 21 9 Z M 25 19C25.269531 19 25.515625 19.0625 25.75 19.15625C25.875 19.265625 26.027344 19.339844 26.1875 19.375C26.410156 19.535156 26.578125 19.765625 26.71875 20C26.71875 20.242188 26.808594 20.476563 26.96875 20.65625C26.984375 20.765625 27 20.886719 27 21C27 21.699219 26.65625 22.300781 26.125 22.65625C26.035156 22.695313 25.949219 22.75 25.875 22.8125C25.613281 22.9375 25.3125 23 25 23C24.882813 23 24.769531 22.988281 24.65625 22.96875C24.636719 22.96875 24.613281 22.96875 24.59375 22.96875C24.574219 22.964844 24.550781 22.972656 24.53125 22.96875C24.5 22.957031 24.46875 22.945313 24.4375 22.9375C23.726563 22.734375 23.179688 22.140625 23.03125 21.40625C23.121094 21.175781 23.121094 20.917969 23.03125 20.6875C23.070313 20.4375 23.160156 20.207031 23.28125 20C23.484375 19.878906 23.640625 19.691406 23.71875 19.46875C24.066406 19.179688 24.507813 19 25 19 Z M 35.125 19.0625C35.476563 19.066406 35.863281 19.171875 36.375 19.46875C37.984375 20.398438 38.207031 22.144531 37.40625 23.53125C36.351563 25.355469 35.105469 25.953125 33.8125 26.0625C32.519531 26.171875 31.125 25.691406 30.09375 25.09375C29.332031 24.652344 28.625 24.097656 28.03125 23.5625C28.613281 22.878906 28.984375 22.019531 29 21.0625C30.785156 20.976563 32.128906 20.210938 33.15625 19.6875C33.789063 19.363281 34.316406 19.152344 34.78125 19.09375C34.898438 19.078125 35.007813 19.0625 35.125 19.0625 Z M 21.25 22.34375C21.566406 23.21875 22.179688 23.933594 22.96875 24.40625C22.136719 26.011719 22.121094 27.554688 22.0625 28.71875C22.027344 29.425781 21.960938 29.972656 21.78125 30.40625C21.601563 30.839844 21.308594 31.199219 20.625 31.59375C19.015625 32.523438 17.425781 31.855469 16.625 30.46875C15.570313 28.644531 15.667969 27.300781 16.21875 26.125C16.769531 24.949219 17.875 23.972656 18.90625 23.375C19.660156 22.941406 20.496094 22.59375 21.25 22.34375 Z M 22.9375 39.875C23.617188 39.949219 24.300781 40 25 40C25.699219 40 26.382813 39.949219 27.0625 39.875C27.214844 41.386719 27.738281 42.535156 28.53125 43.34375C29.46875 44.300781 30.632813 44.765625 31.6875 45.09375C32.742188 45.421875 33.71875 45.644531 34.28125 45.9375C34.84375 46.230469 35 46.332031 35 47L35 48L15 48L15 47C15 46.332031 15.15625 46.230469 15.71875 45.9375C16.28125 45.644531 17.257813 45.421875 18.3125 45.09375C19.367188 44.765625 20.53125 44.300781 21.46875 43.34375C22.261719 42.535156 22.785156 41.386719 22.9375 39.875Z"/></svg>