<svg xmlns="http://www.w3.org/2000/svg" xmlns:xlink="http://www.w3.org/1999/xlink" viewBox="0 0 50 50"><path d="M1 9C0.449219 9 0 9.449219 0 10L0 40C0 40.554688 0.449219 41 1 41L1.28125 41L2.0625 43.3125C2.199219 43.722656 2.570313 44 3 44L6 44C6.429688 44 6.800781 43.722656 6.9375 43.3125L7.71875 41L42.28125 41L43.0625 43.3125C43.199219 43.722656 43.570313 44 44 44L47 44C47.429688 44 47.800781 43.722656 47.9375 43.3125L48.71875 41L49 41C49.554688 41 50 40.554688 50 40L50 10C50 9.449219 49.554688 9 49 9 Z M 44 13C45.105469 13 46 13.894531 46 15C46 16.105469 45.105469 17 44 17C42.894531 17 42 16.105469 42 15C42 13.894531 42.894531 13 44 13 Z M 6 15L38 15L38 22L36 22C35.449219 22 35 22.449219 35 23L35 25C35 25.554688 34.554688 26 34 26L33 26L33 23L31 23L31 26L29 26L29 23L27 23L27 26L25 26L25 23L23 23L23 26L21 26L21 23L19 23L19 26L17 26L17 23L15 23L15 26L13 26L13 23L11 23L11 26L10 26C9.445313 26 9 25.554688 9 25L9 23C9 22.449219 8.550781 22 8 22L6 22 Z M 44 19C45.105469 19 46 19.894531 46 21C46 22.105469 45.105469 23 44 23C42.894531 23 42 22.105469 42 21C42 19.894531 42.894531 19 44 19 Z M 6 24L7 24L7 25C7 26.644531 8.355469 28 10 28L34 28C35.644531 28 37 26.644531 37 25L37 24L38 24L38 35L6 35 Z M 44 25C45.105469 25 46 25.894531 46 27C46 28.105469 45.105469 29 44 29C42.894531 29 42 28.105469 42 27C42 25.894531 42.894531 25 44 25Z"/></svg>