<svg xmlns="http://www.w3.org/2000/svg" xmlns:xlink="http://www.w3.org/1999/xlink" viewBox="0 0 50 50"><path d="M0.8125 9C0.335938 9.089844 -0.0078125 9.511719 0 10L0 40C0 40.550781 0.449219 41 1 41L1.28125 41L2.0625 43.3125C2.195313 43.71875 2.574219 43.996094 3 44L6 44C6.425781 43.996094 6.804688 43.71875 6.9375 43.3125L7.71875 41L42.28125 41L43.0625 43.3125C43.195313 43.71875 43.574219 43.996094 44 44L47 44C47.425781 43.996094 47.804688 43.71875 47.9375 43.3125L48.71875 41L49 41C49.550781 41 50 40.550781 50 40L50 10C50 9.449219 49.550781 9 49 9L1 9C0.96875 9 0.9375 9 0.90625 9C0.875 9 0.84375 9 0.8125 9 Z M 2 11L48 11L48 39L2 39 Z M 4.8125 13C4.335938 13.089844 3.992188 13.511719 4 14L4 36C4 36.550781 4.449219 37 5 37L39 37C39.550781 37 40 36.550781 40 36L40 14C40 13.449219 39.550781 13 39 13L5 13C4.96875 13 4.9375 13 4.90625 13C4.875 13 4.84375 13 4.8125 13 Z M 44 13C42.894531 13 42 13.894531 42 15C42 16.105469 42.894531 17 44 17C45.105469 17 46 16.105469 46 15C46 13.894531 45.105469 13 44 13 Z M 6 15L38 15L38 22L36 22C35.449219 22 35 22.449219 35 23L35 25C35 25.554688 34.554688 26 34 26L33 26L33 23L31 23L31 26L29 26L29 23L27 23L27 26L25 26L25 23L23 23L23 26L21 26L21 23L19 23L19 26L17 26L17 23L15 23L15 26L13 26L13 23L11 23L11 26L10 26C9.445313 26 9 25.554688 9 25L9 23C9 22.449219 8.550781 22 8 22L6 22 Z M 44 19C42.894531 19 42 19.894531 42 21C42 22.105469 42.894531 23 44 23C45.105469 23 46 22.105469 46 21C46 19.894531 45.105469 19 44 19 Z M 6 24L7 24L7 25C7 26.644531 8.355469 28 10 28L34 28C35.644531 28 37 26.644531 37 25L37 24L38 24L38 35L6 35 Z M 44 25C42.894531 25 42 25.894531 42 27C42 28.105469 42.894531 29 44 29C45.105469 29 46 28.105469 46 27C46 25.894531 45.105469 25 44 25 Z M 3.375 41L5.625 41L5.28125 42L3.71875 42 Z M 44.375 41L46.625 41L46.28125 42L44.71875 42Z"/></svg>