<?xml version="1.0" encoding="utf-8"?><svg version="1.1" id="Layer_1" xmlns="http://www.w3.org/2000/svg" xmlns:xlink="http://www.w3.org/1999/xlink" x="0px" y="0px" viewBox="0 0 122.88 107.78" style="enable-background:new 0 0 122.88 107.78" xml:space="preserve"><style type="text/css">.st0{fill-rule:evenodd;clip-rule:evenodd;}</style><g><path class="st0" d="M58.84,91.1c0.21-0.2,0.46-0.35,0.71-0.45v-9.39H2.1c-1.16,0-2.1-0.94-2.1-2.1c0-1.16,0.94-2.1,2.1-2.1h9.09 V12.44H2.1c-1.16,0-2.1-0.94-2.1-2.1c0-1.16,0.94-2.1,2.1-2.1h57.12V2.1c0-1.16,0.94-2.1,2.1-2.1s2.1,0.94,2.1,2.1v6.14h57.12 c1.16,0,2.1,0.94,2.1,2.1c0,1.16-0.94,2.1-2.1,2.1h-8.95v64.62h9.18c1.16,0,2.1,0.94,2.1,2.1c0,1.16-0.94,2.1-2.1,2.1H63.75v9.6 c0.1,0.07,0.2,0.14,0.29,0.23l13.12,12.48c0.84,0.8,0.87,2.12,0.07,2.96c-0.8,0.84-2.12,0.87-2.96,0.07L63.75,96.6v9.08 c0,1.16-0.94,2.1-2.1,2.1c-1.16,0-2.1-0.94-2.1-2.1V96.2L48.6,106.61c-0.84,0.8-2.17,0.76-2.96-0.07c-0.8-0.84-0.77-2.17,0.07-2.96 L58.84,91.1L58.84,91.1z M107.39,77.06V12.44h-92v64.62H107.39L107.39,77.06z"/></g></svg>