<svg xmlns="http://www.w3.org/2000/svg" xmlns:xlink="http://www.w3.org/1999/xlink" viewBox="0 0 50 50"><path d="M9 3C7.346 3 6 4.346 6 6L6 44C6 45.654 7.346 47 9 47L41 47C42.654 47 44 45.654 44 44L44 6C44 4.346 42.654 3 41 3L9 3 z M 31 8C32.105 8 33 8.895 33 10C33 11.105 32.105 12 31 12C29.895 12 29 11.105 29 10C29 8.895 29.895 8 31 8 z M 37 8C38.105 8 39 8.895 39 10C39 11.105 38.105 12 37 12C35.895 12 35 11.105 35 10C35 8.895 35.895 8 37 8 z M 25 16C31.073 16 36 20.925 36 27C36 33.075 31.073 38 25 38C18.925 38 14 33.075 14 27C14 20.925 18.925 16 25 16 z M 20.984375 21.986328 A 1.0001 1.0001 0 0 0 20 23C20 25.324499 19.656261 25.712059 19.158203 26.488281C18.660146 27.264504 18 28.439429 18 31 A 1.0001 1.0001 0 1 0 20 31C20 28.714571 20.339854 28.350637 20.841797 27.568359C21.343739 26.786082 22 25.595501 22 23 A 1.0001 1.0001 0 0 0 20.984375 21.986328 z M 25.984375 21.986328 A 1.0001 1.0001 0 0 0 25 23C25 25.324499 24.656261 25.712059 24.158203 26.488281C23.660146 27.264504 23 28.439429 23 31 A 1.0001 1.0001 0 1 0 25 31C25 28.714571 25.339854 28.350637 25.841797 27.568359C26.343739 26.786082 27 25.595501 27 23 A 1.0001 1.0001 0 0 0 25.984375 21.986328 z M 30.984375 21.986328 A 1.0001 1.0001 0 0 0 30 23C30 25.324499 29.656261 25.712059 29.158203 26.488281C28.660146 27.264504 28 28.439429 28 31 A 1.0001 1.0001 0 1 0 30 31C30 28.714571 30.339854 28.350637 30.841797 27.568359C31.343739 26.786082 32 25.595501 32 23 A 1.0001 1.0001 0 0 0 30.984375 21.986328 z"/></svg>