<svg xmlns="http://www.w3.org/2000/svg" xmlns:xlink="http://www.w3.org/1999/xlink" viewBox="0 0 50 50"><path d="M9 3C7.3550302 3 6 4.3550302 6 6L6 44C6 45.64497 7.3550302 47 9 47L41 47C42.64497 47 44 45.64497 44 44L44 6C44 4.3550302 42.64497 3 41 3L9 3 z M 9 5L41 5C41.56503 5 42 5.4349698 42 6L42 44C42 44.56503 41.56503 45 41 45L9 45C8.4349698 45 8 44.56503 8 44L8 6C8 5.4349698 8.4349698 5 9 5 z M 31 8 A 2 2 0 0 0 29 10 A 2 2 0 0 0 31 12 A 2 2 0 0 0 33 10 A 2 2 0 0 0 31 8 z M 37 8 A 2 2 0 0 0 35 10 A 2 2 0 0 0 37 12 A 2 2 0 0 0 39 10 A 2 2 0 0 0 37 8 z M 25 15C18.384534 15 13 20.384534 13 27C13 33.615466 18.384534 39 25 39C31.613644 39 37 33.615686 37 27C37 20.510331 31.79579 15.272004 25.355469 15.072266 A 1.0001 1.0001 0 0 0 25 15 z M 25 17C30.532356 17 35 21.465686 35 27C35 32.534314 30.532356 37 25 37C19.465466 37 15 32.534534 15 27C15 21.465466 19.465466 17 25 17 z M 20.984375 21.986328 A 1.0001 1.0001 0 0 0 20 23C20 25.324499 19.656261 25.712059 19.158203 26.488281C18.660146 27.264504 18 28.439429 18 31 A 1.0001 1.0001 0 1 0 20 31C20 28.714571 20.339854 28.350637 20.841797 27.568359C21.343739 26.786082 22 25.595501 22 23 A 1.0001 1.0001 0 0 0 20.984375 21.986328 z M 25.984375 21.986328 A 1.0001 1.0001 0 0 0 25 23C25 25.324499 24.656261 25.712059 24.158203 26.488281C23.660146 27.264504 23 28.439429 23 31 A 1.0001 1.0001 0 1 0 25 31C25 28.714571 25.339854 28.350637 25.841797 27.568359C26.343739 26.786082 27 25.595501 27 23 A 1.0001 1.0001 0 0 0 25.984375 21.986328 z M 30.984375 21.986328 A 1.0001 1.0001 0 0 0 30 23C30 25.324499 29.656261 25.712059 29.158203 26.488281C28.660146 27.264504 28 28.439429 28 31 A 1.0001 1.0001 0 1 0 30 31C30 28.714571 30.339854 28.350637 30.841797 27.568359C31.343739 26.786082 32 25.595501 32 23 A 1.0001 1.0001 0 0 0 30.984375 21.986328 z"/></svg>