<svg xmlns="http://www.w3.org/2000/svg" xmlns:xlink="http://www.w3.org/1999/xlink" viewBox="0 0 50 50"><path d="M16 4 A 1.0001 1.0001 0 0 0 15 5L15 11 A 1.0001 1.0001 0 0 0 16 12L19.53125 12C18.791861 12.826587 18.28062 13.861263 18.087891 15L6 15 A 1.0001 1.0001 0 1 0 6 17L18.091797 17C18.245937 17.907603 18.602061 18.746805 19.117188 19.46875L11.292969 27.292969 A 1.0001 1.0001 0 1 0 12.707031 28.707031L20.53125 20.882812C21.253195 21.397939 22.092397 21.754063 23 21.908203L23 34 A 1.0001 1.0001 0 1 0 25 34L25 21.912109C26.139546 21.718171 27.172867 21.203174 28 20.462891L28 38.339844L21.605469 41.080078 A 1.0001 1.0001 0 0 0 21 42L21 45 A 1.0001 1.0001 0 0 0 22 46L39 46 A 1.0001 1.0001 0 0 0 40 45L40 5 A 1.0001 1.0001 0 0 0 39 4L16 4 z M 17 6L38 6L38 44L23 44L23 42.660156L29.394531 39.919922 A 1.0001 1.0001 0 0 0 30 39L30 20 A 1.0001 1.0001 0 0 0 29.707031 19.292969L20.707031 10.292969 A 1.0001 1.0001 0 0 0 20 10L17 10L17 6 z M 30 10 A 1.0001 1.0001 0 1 0 30 12L34 12 A 1.0001 1.0001 0 1 0 34 10L30 10 z M 20.974609 13.388672L26.611328 19.025391C25.934209 19.611373 25.059379 19.969457 24.09375 19.992188 A 1.0001 1.0001 0 0 0 23.984375 19.986328 A 1.0001 1.0001 0 0 0 23.908203 19.990234C22.879738 19.966812 21.955228 19.562451 21.261719 18.910156 A 1.0001 1.0001 0 0 0 21.089844 18.738281C20.43713 18.044327 20.032712 17.119097 20.009766 16.089844 A 1.0001 1.0001 0 0 0 20.009766 15.902344C20.03337 14.937592 20.389262 14.064425 20.974609 13.388672 z"/></svg>