<svg xmlns="http://www.w3.org/2000/svg" xmlns:xlink="http://www.w3.org/1999/xlink" viewBox="0 0 50 50"><path d="M16 4C15.45 4 15 4.45 15 5L15 10C15 10.55 15.45 11 16 11L20.550781 11L29 20.380859L29 39.310547L21.650391 42.060547C21.260391 42.210547 21 42.58 21 43L21 45C21 45.55 21.45 46 22 46L39 46C39.55 46 40 45.55 40 45L40 5C40 4.45 39.55 4 39 4L16 4 z M 30 10L34 10C34.55 10 35 10.45 35 11C35 11.55 34.55 12 34 12L30 12C29.45 12 29 11.55 29 11C29 10.45 29.45 10 30 10 z M 19.169922 12.460938C18.619987 13.196661 18.242254 14.059479 18.083984 15L6 15C5.447 15 5 15.448 5 16C5 16.552 5.447 17 6 17L18.089844 17C18.243213 17.910076 18.598561 18.750247 19.113281 19.472656L11.292969 27.292969C10.901969 27.683969 10.901969 28.316031 11.292969 28.707031C11.487969 28.902031 11.744 29 12 29C12.256 29 12.512031 28.902031 12.707031 28.707031L20.527344 20.886719C21.249753 21.401439 22.089924 21.756787 23 21.910156L23 34C23 34.552 23.447 35 24 35C24.553 35 25 34.552 25 34L25 21.90625C25.726484 21.783178 26.412493 21.538392 27.019531 21.179688L19.169922 12.460938 z"/></svg>