<?xml version="1.0" encoding="utf-8"?><svg version="1.1" id="Layer_1" xmlns="http://www.w3.org/2000/svg" xmlns:xlink="http://www.w3.org/1999/xlink" x="0px" y="0px" viewBox="0 0 122.88 121.58" style="enable-background:new 0 0 122.88 121.58" xml:space="preserve"><style type="text/css">.st0{fill-rule:evenodd;clip-rule:evenodd;}</style><g><path class="st0" d="M10.28,98.77c5.06,0,9.16,3.82,9.16,8.53c0,4.71-4.1,8.53-9.16,8.53c-5.06,0-9.17-3.82-9.17-8.53 C1.11,102.59,5.22,98.77,10.28,98.77L10.28,98.77z M93.09,97.99l0.01,0.03l1.38-0.44c3.99,10.75,6.25,15.3,17.91,16.5h10.48v7.5 H89.39v-7.5h1.14l-3.89-13.98l1.08-0.35l-14.3-36.82l-0.02-0.06l0,0L62.83,33.76c-1.49-3.28-2.45-6.65-3.4-9.96 C57.4,16.68,55.45,9.85,48.69,7.35c-1.25-0.46-2.66-0.83-4.21-1.1c-1.63-0.29-3.37-0.47-5.23-0.56c-5.22-0.25-10.36,1.11-14.6,4.17 c-3.86,2.78-6.99,7.01-8.76,12.74c-1.75,5.67-2.61,10.38-1.82,14.49c0.76,3.95,3.12,7.56,7.82,11.25c0.15,0.12,0.36,0.3,0.58,0.48 c0.29,0.24,0.59,0.5,0.82,0.63c2.93,1.7,5.98,3.17,8.95,4.61c0.51,0.25,1.02,0.49,1.53,0.74c0.69,0.33,1.41,0.67,2.1,1 c7.59,3.6,12.26,5.81,13.58,15.97c0.26,1.96,0.24,3.86-0.01,5.69c18.44,6.65,30.97,18.74,36.03,38.68H22.59 c3.29-4.42,4.34-9.96,2.29-14.87c-3.32-7.95-13.51-11.27-22.76-7.4C1.38,94.15,0.68,94.49,0,94.87V70.66 c1.85,0.01,3.69,0.04,5.5,0.09v-6.72c0-0.65,0.53-1.18,1.18-1.18h10.1c0.65,0,1.18,0.53,1.18,1.18v7.26 c9.51,0.74,18.2,2.15,25.99,4.39c0.07-1.03,0.04-2.09-0.1-3.18c-0.92-7.1-4.53-8.81-10.39-11.59c-0.67-0.32-1.36-0.65-2.14-1.02 c-0.51-0.25-1.02-0.49-1.53-0.74c-3.07-1.48-6.22-3-9.33-4.81c-0.68-0.39-1.17-0.81-1.64-1.21c-0.12-0.1-0.24-0.2-0.42-0.34 c-5.87-4.61-8.87-9.31-9.88-14.64c-0.99-5.17-0.03-10.71,1.98-17.22c2.16-6.99,6.05-12.19,10.87-15.67 c5.3-3.83,11.71-5.54,18.16-5.23c2.16,0.1,4.14,0.31,5.94,0.63c1.88,0.33,3.6,0.79,5.18,1.37c9.47,3.51,11.81,11.68,14.24,20.21 c0.9,3.16,1.82,6.37,3.1,9.19c0.05,0.1,0.1,0.2,0.14,0.31l10.59,29.2l0,0L93.09,97.99L93.09,97.99z"/></g></svg>