<svg xmlns="http://www.w3.org/2000/svg" xmlns:xlink="http://www.w3.org/1999/xlink" viewBox="0 0 50 50"><path d="M41.9375 5.09375C41.617188 5.101563 41.289063 5.171875 40.96875 5.3125L9.3125 20.34375C8.175781 20.992188 7.667969 22.410156 8.1875 23.625L13.59375 35C13.964844 35.863281 14.855469 36.40625 15.875 36.40625C16.210938 36.40625 16.542969 36.339844 16.9375 36.1875L32.46875 28.8125C33.136719 30.113281 34.492188 31 36 31C38.242188 31 40 29.242188 40 27C40 26.421875 39.882813 25.867188 39.6875 25.375L48.59375 21.15625C49.730469 20.507813 50.238281 19.089844 49.71875 17.875L44.28125 6.40625C43.804688 5.578125 42.898438 5.066406 41.9375 5.09375 Z M 1.8125 24.59375C1.203125 24.59375 0.601563 24.917969 0.28125 25.4375C-0.0078125 25.90625 -0.0390625 26.480469 0.1875 26.9375L6.3125 39.75C6.574219 40.277344 7.113281 40.59375 7.71875 40.59375C8.257813 40.59375 8.769531 40.347656 9.125 39.875L11.8125 35.9375C11.792969 35.898438 11.765625 35.851563 11.75 35.8125L6.53125 24.75 Z M 35 32.90625L35 38C35 39.652344 36.347656 41 38 41L50 41L50 39L38 39C37.449219 39 37 38.550781 37 38L37 32.90625C36.675781 32.960938 36.34375 33 36 33C35.660156 33 35.328125 32.964844 35 32.90625Z"/></svg>