<?xml version="1.0" encoding="utf-8"?><svg version="1.1" id="Layer_1" xmlns="http://www.w3.org/2000/svg" xmlns:xlink="http://www.w3.org/1999/xlink" x="0px" y="0px" viewBox="0 0 97.04 122.88" style="enable-background:new 0 0 97.04 122.88" xml:space="preserve"><g><path d="M48.68,40.62c8.77,0,16.7,3.55,22.45,9.3c5.74,5.74,9.3,13.68,9.3,22.45c0,8.77-3.55,16.7-9.3,22.45 c-5.74,5.74-13.68,9.3-22.45,9.3c-8.77,0-16.7-3.55-22.45-9.3c-5.74-5.74-9.3-13.68-9.3-22.45c0-8.77,3.55-16.7,9.3-22.45 C31.97,44.17,39.91,40.62,48.68,40.62L48.68,40.62z M22.36,9.8c3.81,0,6.89,3.09,6.89,6.89s-3.09,6.89-6.89,6.89 s-6.89-3.09-6.89-6.89S18.56,9.8,22.36,9.8L22.36,9.8z M59.32,14.7c1.22,0,2.22,0.99,2.22,2.22c0,1.22-0.99,2.22-2.22,2.22 c-1.22,0-2.22-0.99-2.22-2.22C57.11,15.69,58.1,14.7,59.32,14.7L59.32,14.7z M68.93,14.7c1.22,0,2.22,0.99,2.22,2.22 c0,1.22-0.99,2.22-2.22,2.22c-1.22,0-2.22-0.99-2.22-2.22C66.71,15.69,67.7,14.7,68.93,14.7L68.93,14.7z M78.53,14.7 c1.22,0,2.22,0.99,2.22,2.22c0,1.22-0.99,2.22-2.22,2.22c-1.22,0-2.22-0.99-2.22-2.22C76.31,15.69,77.31,14.7,78.53,14.7 L78.53,14.7z M4.44,28.42h87.83V6.07c0-0.45-0.18-0.85-0.48-1.15c-0.3-0.3-0.7-0.48-1.15-0.48H6.07c-0.45,0-0.85,0.18-1.15,0.48 c-0.3,0.3-0.48,0.7-0.48,1.15V28.42L4.44,28.42z M96.71,29.47c0.21,0.34,0.33,0.74,0.33,1.17c0,0.43-0.12,0.83-0.33,1.17v85.01 c0,1.67-0.68,3.19-1.78,4.29c-1.1,1.1-2.62,1.78-4.29,1.78H6.07c-1.67,0-3.19-0.68-4.29-1.78C0.68,120,0,118.48,0,116.81V6.07 C0,4.4,0.68,2.88,1.78,1.78C2.88,0.68,4.4,0,6.07,0h84.57c1.67,0,3.19,0.68,4.29,1.78c1.1,1.1,1.78,2.62,1.78,4.29V29.47 L96.71,29.47z M92.27,32.86H4.44v83.95c0,0.45,0.18,0.85,0.48,1.15c0.3,0.3,0.7,0.48,1.15,0.48h84.57c0.45,0,0.85-0.18,1.15-0.48 c0.3-0.3,0.48-0.7,0.48-1.15V32.86L92.27,32.86z M23.53,74.3c-0.98-0.49-1.37-1.67-0.89-2.64c0.49-0.97,1.67-1.37,2.64-0.89 c0.43,0.21,1.07,0.55,1.72,0.89c3.7,1.95,8.34,4.38,12.24,2.31c12.99-6.93,14.55-5.06,17.08-2.02c0.93,1.11,2.07,2.48,5.5,2.9 c0.98,0.12,2.24-0.13,3.85-0.74c1.82-0.69,3.99-1.79,6.57-3.28c0.94-0.54,2.14-0.22,2.68,0.72c0.54,0.94,0.22,2.14-0.72,2.68 c-2.79,1.61-5.14,2.8-7.14,3.56c-2.22,0.84-4.09,1.17-5.71,0.97c-4.96-0.61-6.66-2.65-8.04-4.3c-1.26-1.51-2.04-2.45-12.2,2.98 c-5.74,3.06-11.4,0.08-15.92-2.29C24.66,74.88,24.17,74.62,23.53,74.3L23.53,74.3z M68.33,52.7c-5.03-5.03-11.98-8.14-19.65-8.14 c-7.68,0-14.62,3.11-19.65,8.14c-5.03,5.03-8.14,11.98-8.14,19.65c0,7.68,3.11,14.62,8.14,19.65c5.03,5.03,11.98,8.14,19.65,8.14 c7.68,0,14.62-3.11,19.65-8.14c5.03-5.03,8.14-11.98,8.14-19.65C76.47,64.68,73.36,57.73,68.33,52.7L68.33,52.7z"/></g></svg>