<svg xmlns="http://www.w3.org/2000/svg" xmlns:xlink="http://www.w3.org/1999/xlink" viewBox="0 0 50 50"><path d="M9 3C7.346 3 6 4.346 6 6L6 44C6 45.654 7.346 47 9 47L41 47C42.654 47 44 45.654 44 44L44 6C44 4.346 42.654 3 41 3L9 3 z M 31 8C32.105 8 33 8.895 33 10C33 11.105 32.105 12 31 12C29.895 12 29 11.105 29 10C29 8.895 29.895 8 31 8 z M 37 8C38.105 8 39 8.895 39 10C39 11.105 38.105 12 37 12C35.895 12 35 11.105 35 10C35 8.895 35.895 8 37 8 z M 25 16C30.390584 16 34.870065 19.883264 35.810547 25.003906C34.411677 24.27592 32.962829 24.022003 32.021484 24.001953C30.59388 23.971943 29.487302 24.586074 28.445312 25.080078C27.403325 25.574082 26.404985 26 25 26C23.595015 26 22.596676 25.574082 21.554688 25.080078C20.513209 24.586316 19.407059 23.97259 17.980469 24.001953L17.978516 24.001953C17.035953 24.021305 15.586925 24.2748 14.189453 25.001953C15.13036 19.882246 19.608305 16 25 16 z M 18.019531 26 A 1.0001 1.0001 0 0 0 18.021484 26C18.82988 25.98301 19.606254 26.369473 20.697266 26.886719C21.78823 27.403965 23.172985 28 25 28C26.827015 28 28.211723 27.403965 29.302734 26.886719C30.393746 26.369473 31.17012 25.983008 31.978516 26C32.705461 26.01548 34.664702 26.439 35.869141 27.416016 A 1.0003647 1.0003647 0 0 0 35.974609 27.490234C35.716253 33.336105 30.907588 38 25 38C19.091124 38 14.284632 33.337144 14.025391 27.492188 A 1.0003647 1.0003647 0 0 0 14.130859 27.416016C15.335511 26.438827 17.294681 26.014703 18.019531 26 z"/></svg>