<svg xmlns="http://www.w3.org/2000/svg" xmlns:xlink="http://www.w3.org/1999/xlink" viewBox="0 0 50 50"><path d="M18.521484 -0.0078125 A 1.0001 1.0001 0 0 0 17.919922 1.8144531C17.919922 1.8144531 18.538847 2.279151 18.837891 3.0234375C19.136934 3.767724 19.267443 4.7186343 17.769531 6.3164062C15.892443 8.3186343 15.761934 10.366943 16.306641 11.722656C16.851347 13.07837 17.919922 13.814453 17.919922 13.814453 A 1.0001 1.0001 0 1 0 19.080078 12.185547C19.080078 12.185547 18.461153 11.72085 18.162109 10.976562C17.863066 10.232276 17.732557 9.2813657 19.230469 7.6835938C21.107557 5.6813658 21.238066 3.6330572 20.693359 2.2773438C20.148653 0.92163018 19.080078 0.18554686 19.080078 0.18554688 A 1.0001 1.0001 0 0 0 18.521484 -0.0078125 z M 24.521484 -0.0078125 A 1.0001 1.0001 0 0 0 23.919922 1.8144531C23.919922 1.8144531 24.538847 2.279151 24.837891 3.0234375C25.136934 3.767724 25.267443 4.7186343 23.769531 6.3164062C21.892443 8.3186343 21.761934 10.366943 22.306641 11.722656C22.851347 13.07837 23.919922 13.814453 23.919922 13.814453 A 1.0001 1.0001 0 1 0 25.080078 12.185547C25.080078 12.185547 24.461153 11.72085 24.162109 10.976562C23.863066 10.232276 23.732557 9.2813657 25.230469 7.6835938C27.107557 5.6813658 27.238066 3.6330572 26.693359 2.2773438C26.148653 0.92163018 25.080078 0.18554686 25.080078 0.18554688 A 1.0001 1.0001 0 0 0 24.521484 -0.0078125 z M 30.521484 -0.0078125 A 1.0001 1.0001 0 0 0 29.919922 1.8144531C29.919922 1.8144531 30.538847 2.279151 30.837891 3.0234375C31.136934 3.767724 31.267443 4.7186343 29.769531 6.3164062C27.892443 8.3186343 27.761934 10.366943 28.306641 11.722656C28.851347 13.07837 29.919922 13.814453 29.919922 13.814453 A 1.0001 1.0001 0 1 0 31.080078 12.185547C31.080078 12.185547 30.461153 11.72085 30.162109 10.976562C29.863066 10.232276 29.732557 9.2813657 31.230469 7.6835938C33.107557 5.6813658 33.238066 3.6330572 32.693359 2.2773438C32.148653 0.92163018 31.080078 0.18554686 31.080078 0.18554688 A 1.0001 1.0001 0 0 0 30.521484 -0.0078125 z M 10 2C7.2504839 2 5 4.2504839 5 7L5 43C5 45.749516 7.2504839 48 10 48L40 48C42.749516 48 45 45.749516 45 43L45 7C45 4.2504839 42.749516 2 40 2L37 2 A 1.0001 1.0001 0 1 0 37 4L40 4C41.668484 4 43 5.3315161 43 7L43 43C43 44.668484 41.668484 46 40 46L10 46C8.3315161 46 7 44.668484 7 43L7 7C7 5.3315161 8.3315161 4 10 4L14 4 A 1.0001 1.0001 0 1 0 14 2L10 2 z M 38 7 A 2 2 0 0 0 36 9 A 2 2 0 0 0 38 11 A 2 2 0 0 0 40 9 A 2 2 0 0 0 38 7 z M 25 18 A 1.0001 1.0001 0 0 0 24.642578 18.072266C18.201522 18.273033 13 23.511211 13 30C13 30.145068 13.01635 30.285847 13.021484 30.429688 A 1.0005661 1.0005661 0 0 0 13.021484 30.431641 A 1.0005661 1.0005661 0 0 0 13.048828 30.947266C13.535065 37.120389 18.704369 42 25 42 A 1.0001 1.0001 0 1 0 25 40C19.839818 40 15.611235 36.116323 15.0625 31.105469C17.067116 29.677629 18.189571 29.828072 19.535156 30.304688C20.980264 30.816553 22.645917 32 25 32C27.35775 32 28.947951 30.793737 30.333984 30.283203C31.6255 29.807484 32.75599 29.656109 34.927734 31.119141C34.615052 33.927048 33.141858 36.365559 31 37.978516L31 35 A 1.0001 1.0001 0 0 0 29.984375 33.986328 A 1.0001 1.0001 0 0 0 29 35L29 40 A 1.0001 1.0001 0 0 0 30 41L35 41 A 1.0001 1.0001 0 1 0 35 39L32.910156 39C35.197274 36.987363 36.721104 34.127384 36.962891 30.908203 A 1.0004462 1.0004462 0 0 0 36.984375 30.470703C36.990455 30.31405 37 30.158106 37 30C37 23.510331 31.79579 18.272004 25.355469 18.072266 A 1.0001 1.0001 0 0 0 25 18 z M 25 20C30.134356 20 34.345562 23.849009 34.925781 28.826172C34.140793 28.439527 33.397523 28.192501 32.708984 28.087891C31.551102 27.911972 30.528936 28.079767 29.642578 28.40625C27.869862 29.059216 26.64225 30 25 30C23.354083 30 22.011767 29.058602 20.203125 28.417969C18.788028 27.916732 17.052044 27.810026 15.080078 28.783203C15.679345 23.826875 19.878507 20 25 20 z"/></svg>