<svg xmlns="http://www.w3.org/2000/svg" xmlns:xlink="http://www.w3.org/1999/xlink" viewBox="0 0 50 50"><path d="M40,2h-7.437c0.202,0.415,0.362,0.891,0.416,1.433c0.143,1.43-0.445,2.86-1.75,4.251c-0.892,0.951-1.302,1.854-1.219,2.685 c0.11,1.106,1.06,1.811,1.069,1.817c0.449,0.319,0.555,0.944,0.234,1.395C31.12,13.854,30.812,14,30.499,14 c-0.2,0-0.402-0.06-0.579-0.186c-0.068-0.049-1.697-1.229-1.899-3.247c-0.143-1.43,0.445-2.86,1.75-4.251 c0.892-0.951,1.302-1.854,1.219-2.685C30.911,2.85,30.419,2.276,30.131,2h-3.568c0.202,0.415,0.362,0.891,0.416,1.433 c0.143,1.43-0.445,2.86-1.75,4.251c-0.892,0.951-1.302,1.854-1.219,2.685c0.11,1.106,1.06,1.811,1.069,1.817 c0.449,0.319,0.555,0.944,0.234,1.395C25.12,13.854,24.812,14,24.499,14c-0.2,0-0.402-0.06-0.579-0.186 c-0.068-0.049-1.697-1.229-1.899-3.247c-0.143-1.43,0.445-2.86,1.75-4.251c0.892-0.951,1.302-1.854,1.219-2.685 C24.911,2.85,24.419,2.276,24.131,2h-3.568c0.202,0.415,0.362,0.891,0.416,1.433c0.143,1.43-0.445,2.86-1.75,4.251 c-0.892,0.951-1.302,1.854-1.219,2.685c0.11,1.106,1.06,1.811,1.069,1.817c0.449,0.319,0.555,0.944,0.234,1.395 C19.12,13.854,18.812,14,18.499,14c-0.2,0-0.402-0.06-0.579-0.186c-0.068-0.049-1.697-1.229-1.899-3.247 c-0.143-1.43,0.445-2.86,1.75-4.251c0.892-0.951,1.302-1.854,1.219-2.685C18.911,2.85,18.419,2.276,18.131,2H10C7.243,2,5,4.243,5,7 v36c0,2.757,2.243,5,5,5h30c2.757,0,5-2.243,5-5V7C45,4.243,42.757,2,40,2z M35,39c0.553,0,1,0.447,1,1s-0.447,1-1,1h-5 c-0.553,0-1-0.447-1-1v-5c0-0.553,0.447-1,1-1s1,0.447,1,1v2.977c2.469-1.856,3.943-4.712,3.99-7.823 c-2.715-1.834-4.089-1.186-5.955-0.298C27.908,30.392,26.632,31,25,31c-1.623,0-2.946-0.6-4.113-1.128 c-1.943-0.88-3.376-1.52-5.88,0.266C15.082,35.588,19.533,40,25,40c0.553,0,1,0.447,1,1s-0.447,1-1,1c-6.617,0-12-5.383-12-12 c0-0.116,0.014-0.228,0.017-0.343c-0.001-0.069-0.003-0.135,0.01-0.202C13.316,23.091,18.567,18,25,18 c6.428,0,11.677,5.084,11.972,11.441c0.014,0.067,0.01,0.134,0.01,0.203C36.985,29.763,37,29.88,37,30c0,3.495-1.507,6.739-4.084,9 H35z M39,10c-1.105,0-2-0.895-2-2c0-1.105,0.895-2,2-2s2,0.895,2,2C41,9.105,40.105,10,39,10z"/></svg>