<?xml version="1.0" encoding="utf-8"?><svg version="1.1" id="Layer_1" xmlns="http://www.w3.org/2000/svg" xmlns:xlink="http://www.w3.org/1999/xlink" x="0px" y="0px" viewBox="0 0 100.31 122.88" style="enable-background:new 0 0 100.31 122.88" xml:space="preserve"><style type="text/css">.st0{fill-rule:evenodd;clip-rule:evenodd;}</style><g><path class="st0" d="M16.05,107.2h27.34v-7.35C18.89,96.55,0,75.56,0,50.16C0,22.46,22.46,0,50.16,0 c27.69,0,50.15,22.46,50.15,50.16c0,25.04-18.36,45.8-42.35,49.55v7.5H85.3c1.89,0,3.43,1.54,3.43,3.43v8.82 c0,1.89-1.54,3.43-3.43,3.43H16.05c-1.89,0-3.43-1.54-3.43-3.43v-8.82C12.62,108.75,14.16,107.2,16.05,107.2L16.05,107.2z M50.16,33.6c9.14,0,16.55,7.41,16.55,16.56c0,9.14-7.41,16.56-16.55,16.56c-9.14,0-16.56-7.41-16.56-16.56 C33.6,41.01,41.02,33.6,50.16,33.6L50.16,33.6z M50.16,25.85c13.42,0,24.31,10.89,24.31,24.31c0,13.42-10.89,24.31-24.31,24.31 c-13.43,0-24.31-10.89-24.31-24.31C25.85,36.73,36.74,25.85,50.16,25.85L50.16,25.85z M50.16,29.57c11.37,0,20.58,9.22,20.58,20.59 c0,11.37-9.22,20.58-20.58,20.58c-11.37,0-20.59-9.22-20.59-20.58C29.57,38.79,38.79,29.57,50.16,29.57L50.16,29.57z M50.16,18.58 c17.43,0,31.57,14.14,31.57,31.57c0,17.43-14.14,31.57-31.57,31.57c-17.43,0-31.57-14.14-31.57-31.57 C18.59,32.72,32.73,18.58,50.16,18.58L50.16,18.58z"/></g></svg>