<svg xmlns="http://www.w3.org/2000/svg" xmlns:xlink="http://www.w3.org/1999/xlink" viewBox="0 0 50 50"><path d="M15.65625 0.28125C15.367188 0.300781 15.09375 0.375 14.8125 0.5C13.691406 1.003906 13.226563 2.195313 13.0625 3.53125C12.898438 4.867188 12.992188 6.507813 13.3125 8.4375C13.941406 12.230469 15.4375 17.109375 17.59375 22.40625C14.425781 27.160156 12 31.628906 10.625 35.21875C9.925781 37.046875 9.484375 38.660156 9.375 40C9.265625 41.339844 9.46875 42.59375 10.46875 43.3125C11.464844 44.03125 12.734375 43.839844 13.96875 43.3125C15.203125 42.785156 16.585938 41.863281 18.09375 40.625C19.089844 39.804688 20.15625 38.839844 21.25 37.75L20.3125 48.90625C20.28125 49.265625 20.445313 49.613281 20.742188 49.820313C21.039063 50.023438 21.421875 50.054688 21.746094 49.898438C22.070313 49.742188 22.289063 49.421875 22.3125 49.0625L23.46875 35.40625C24.441406 34.339844 25.4375 33.160156 26.4375 31.9375L27.6875 49.0625C27.710938 49.421875 27.929688 49.742188 28.253906 49.898438C28.578125 50.054688 28.960938 50.023438 29.257813 49.820313C29.554688 49.613281 29.71875 49.265625 29.6875 48.90625L28.3125 29.96875C33.90625 30.3125 38.921875 30.160156 42.65625 29.5625C44.585938 29.253906 46.191406 28.828125 47.40625 28.25C48.621094 27.671875 49.59375 26.878906 49.71875 25.65625C49.84375 24.429688 49.042969 23.433594 47.96875 22.625C46.894531 21.816406 45.394531 21.09375 43.5625 20.40625C39.960938 19.054688 35.011719 17.875 29.34375 17.09375C26.8125 11.972656 24.140625 7.636719 21.71875 4.65625C20.488281 3.140625 19.324219 1.949219 18.21875 1.1875C17.664063 0.804688 17.109375 0.519531 16.53125 0.375C16.242188 0.300781 15.945313 0.261719 15.65625 0.28125 Z M 15.8125 2.28125C16.050781 2.285156 16.460938 2.40625 17.09375 2.84375C17.9375 3.425781 19 4.480469 20.15625 5.90625C22.089844 8.285156 24.269531 11.863281 26.40625 15.90625C25.941406 15.816406 25.492188 15.6875 25 15.6875C22.273438 15.6875 19.917969 17.183594 18.625 19.375C17.023438 15.117188 15.8125 11.136719 15.3125 8.125C15.011719 6.308594 14.9375 4.800781 15.0625 3.78125C15.1875 2.761719 15.472656 2.378906 15.625 2.3125C15.664063 2.296875 15.734375 2.28125 15.8125 2.28125 Z M 25 17.6875C26.125 17.6875 27.164063 18.046875 28.03125 18.625C28.0625 18.648438 28.09375 18.667969 28.125 18.6875C28.179688 18.746094 28.242188 18.800781 28.3125 18.84375C29.617188 19.847656 30.46875 21.386719 30.46875 23.15625C30.46875 25.320313 29.191406 27.140625 27.375 28.03125C27.285156 28.070313 27.199219 28.125 27.125 28.1875C27.105469 28.195313 27.082031 28.207031 27.0625 28.21875C26.421875 28.480469 25.726563 28.625 25 28.625C21.972656 28.625 19.53125 26.183594 19.53125 23.15625C19.53125 23.148438 19.574219 23.035156 19.59375 22.78125C19.59375 22.75 19.59375 22.71875 19.59375 22.6875C19.59375 22.65625 19.59375 22.625 19.59375 22.59375C19.609375 22.542969 19.617188 22.492188 19.625 22.4375C19.976563 19.75 22.214844 17.6875 25 17.6875 Z M 25 19C22.800781 19 21 20.800781 21 23C21 25.199219 22.800781 27 25 27C27.199219 27 29 25.199219 29 23C29 20.800781 27.199219 19 25 19 Z M 31.40625 19.5C35.921875 20.242188 40.003906 21.203125 42.875 22.28125C44.597656 22.929688 45.929688 23.601563 46.75 24.21875C47.570313 24.835938 47.734375 25.273438 47.71875 25.4375C47.703125 25.601563 47.457031 25.996094 46.53125 26.4375C45.605469 26.878906 44.160156 27.304688 42.34375 27.59375C39.3125 28.078125 35.136719 28.171875 30.5625 28C31.710938 26.691406 32.46875 25.03125 32.46875 23.15625C32.46875 21.804688 32.039063 20.589844 31.40625 19.5 Z M 25 21C26.117188 21 27 21.882813 27 23C27 24.117188 26.117188 25 25 25C23.882813 25 23 24.117188 23 23C23 21.882813 23.882813 21 25 21 Z M 18.03125 25.53125C19.023438 28.429688 21.664063 30.535156 24.875 30.59375C21.988281 34.105469 19.167969 37.160156 16.8125 39.09375C15.394531 40.257813 14.128906 41.066406 13.1875 41.46875C12.246094 41.871094 11.789063 41.785156 11.65625 41.6875C11.523438 41.589844 11.292969 41.179688 11.375 40.15625C11.457031 39.132813 11.84375 37.65625 12.5 35.9375C13.597656 33.074219 15.59375 29.40625 18.03125 25.53125Z"/></svg>