<svg xmlns="http://www.w3.org/2000/svg" xmlns:xlink="http://www.w3.org/1999/xlink" viewBox="0 0 50 50"><path d="M20.021484 0.99609375C16.586484 0.99609375 14.407922 9.8729219 14.044922 18.419922C7.3119219 22.479922 1.9025156 27.654703 1.1035156 30.845703C0.91051562 31.615703 0.97864062 32.279359 1.3066406 32.818359C1.8066406 33.640359 2.8289688 33.976562 4.1679688 33.976562C5.5799687 33.976562 7.34375 33.599391 9.21875 33.025391C8.99275 32.348391 8.8870625 31.460422 9.1640625 30.357422C10.190062 26.258422 16.252562 20.948578 22.101562 17.267578C22.253563 14.805578 22.701844 9.991875 23.964844 5.921875C23.960844 5.907875 23.956172 5.8909531 23.951172 5.8769531C22.951172 2.9449531 21.625484 0.99809375 20.021484 0.99609375 z M 30.021484 0.99804688C26.585484 0.99804688 24.405922 9.873875 24.044922 18.421875C17.310922 22.482875 11.902516 27.655703 11.103516 30.845703C10.910516 31.616703 10.980594 32.280359 11.308594 32.818359C11.807594 33.640359 12.829969 33.976562 14.167969 33.976562C18.461969 33.976562 25.997766 30.521578 30.009766 28.517578C34.020766 30.524578 41.557563 33.984375 45.851562 33.984375C47.190562 33.984375 48.213844 33.648172 48.714844 32.826172C49.043844 32.285172 49.110969 31.620609 48.917969 30.849609C48.118969 27.654609 42.718094 22.478875 35.996094 18.421875C35.634094 9.875875 33.457484 1.0000469 30.021484 0.99804688 z M 30.019531 20C31.124531 20 32.019531 20.895 32.019531 22C32.019531 23.105 31.124531 24 30.019531 24C28.914531 24 28.019531 23.105 28.019531 22C28.019531 20.895 28.914531 20 30.019531 20 z M 30.009766 30.748047C29.217766 31.135047 28.385156 31.529969 27.535156 31.917969L26.099609 46.996094L23.927734 46.996094L22.628906 33.976562C20.761906 34.676563 18.924953 35.251516 17.251953 35.603516L16.111328 46.996094L11 46.996094 A 1.003906 1.003906 0 0 0 11 49.003906L39 49.003906 A 1.003906 1.003906 0 0 0 39 46.996094L33.923828 46.996094L32.486328 31.919922C31.634328 31.530922 30.802766 31.137047 30.009766 30.748047 z"/></svg>