<svg xmlns="http://www.w3.org/2000/svg" xmlns:xlink="http://www.w3.org/1999/xlink" viewBox="0 0 50 50"><path d="M15.8125 0.15625C15.460938 0.15625 15.121094 0.238281 14.8125 0.375C10.972656 2.105469 13.859375 13.183594 17.5625 22.28125C17.925781 18.507813 21.132813 15.53125 25 15.53125C26.621094 15.53125 28.117188 16.085938 29.34375 16.96875C29.351563 16.972656 29.367188 16.964844 29.375 16.96875C25.511719 9.15625 19.695313 0.15625 15.8125 0.15625 Z M 29.375 16.96875C31.238281 18.324219 32.46875 20.523438 32.46875 23C32.46875 26.023438 30.652344 28.640625 28.0625 29.8125C30.074219 29.941406 32.054688 30.03125 33.9375 30.03125C38.546875 30.03125 49.308594 29.574219 49.71875 25.5C50.140625 21.316406 39.101563 18.3125 29.375 16.96875 Z M 28.0625 29.8125C28.042969 29.820313 28.019531 29.804688 28 29.8125C27.078125 30.222656 26.070313 30.46875 25 30.46875C20.886719 30.46875 17.53125 27.113281 17.53125 23C17.53125 22.753906 17.570313 22.519531 17.59375 22.28125C12.148438 30.453125 7.054688 40.730469 10.46875 43.1875C10.894531 43.492188 11.414063 43.65625 12 43.65625C15.9375 43.65625 23.066406 36.238281 28.0625 29.8125 Z M 25 17.5C21.96875 17.5 19.5 19.96875 19.5 23C19.5 26.03125 21.96875 28.5 25 28.5C28.03125 28.5 30.5 26.03125 30.5 23C30.5 19.96875 28.03125 17.5 25 17.5 Z M 25 20.5C26.378906 20.5 27.5 21.617188 27.5 23C27.5 24.382813 26.378906 25.5 25 25.5C23.617188 25.5 22.5 24.382813 22.5 23C22.5 21.617188 23.617188 20.5 25 20.5 Z M 28.5 32.625C26.574219 35.011719 23.871094 38.164063 21 40.78125L20.3125 48.90625C20.289063 49.183594 20.371094 49.449219 20.5625 49.65625C20.753906 49.863281 21.03125 50 21.3125 50L28.6875 50C28.964844 50 29.21875 49.859375 29.40625 49.65625C29.59375 49.453125 29.707031 49.183594 29.6875 48.90625Z"/></svg>