<svg xmlns="http://www.w3.org/2000/svg" xmlns:xlink="http://www.w3.org/1999/xlink" viewBox="0 0 50 50"><path d="M20.019531 0.99609375C16.584531 0.99609375 14.405969 9.8729219 14.042969 18.419922C7.3099688 22.479922 1.9025156 27.65275 1.1035156 30.84375C0.91051562 31.61375 0.97864062 32.277406 1.3066406 32.816406C1.8066406 33.638406 2.8270156 33.974609 4.1660156 33.974609C5.5790156 33.974609 7.3447031 33.599391 9.2207031 33.025391C9.0367031 32.474391 8.9327813 31.784172 9.0507812 30.951172C5.2587813 32.156172 3.2704844 32.185391 3.0214844 31.775391C3.0084844 31.755391 2.9778281 31.620031 3.0488281 31.332031C3.6298281 29.014031 8.5662969 23.971281 15.529297 19.863281C15.562297 19.844281 15.581328 19.813016 15.611328 19.791016C15.668328 19.749016 15.720578 19.705344 15.767578 19.652344C15.808578 19.605344 15.840094 19.556906 15.871094 19.503906C15.904094 19.448906 15.931125 19.392078 15.953125 19.330078C15.975125 19.267078 15.988047 19.205672 15.998047 19.138672C16.003047 19.102672 16.022438 19.071203 16.023438 19.033203C16.371437 8.6212031 19.015531 3.0039063 20.019531 3.0039062C20.672531 3.0039062 22.016609 5.3901562 22.974609 9.9101562C23.227609 8.5481562 23.548172 7.1739531 23.951172 5.8769531C22.951172 2.9449531 21.623531 0.99809375 20.019531 0.99609375 z M 30.019531 0.99609375C28.897496 0.99609375 28.107026 1.7976285 27.472656 2.7792969C26.838287 3.7609652 26.295447 5.0674328 25.816406 6.6582031C24.895663 9.7157522 24.25775 13.853431 24.064453 18.439453C19.965254 20.91232 16.525211 23.649099 14.226562 26.09375C13.031861 27.364336 12.132855 28.546359 11.578125 29.628906C11.02373 30.7108 10.705003 31.826166 11.306641 32.816406C11.906236 33.802274 13.049363 34.014277 14.240234 33.992188C14.988132 33.978314 15.839736 33.85313 16.771484 33.652344L16.060547 46.996094L11 46.996094 A 1.003906 1.003906 0 0 0 11 49.003906L16.851562 49.003906 A 1.0031003 1.0031003 0 0 0 17.171875 49.003906L22.857422 49.003906 A 1.0031003 1.0031003 0 0 0 23.179688 49.003906L26.738281 49.003906 A 1.0031003 1.0031003 0 0 0 27.277344 49.003906L32.744141 49.003906 A 1.0031003 1.0031003 0 0 0 33.279297 49.003906L39 49.003906 A 1.003906 1.003906 0 0 0 39 46.996094L33.960938 46.996094L33.0625 29.908203C36.159953 31.325987 39.108782 32.542016 41.511719 33.228516C43.165572 33.701008 44.591002 33.98055 45.78125 34.001953C46.971498 34.023353 48.115037 33.808161 48.714844 32.824219C49.317651 31.834535 49.000011 30.71961 48.447266 29.636719C47.894521 28.553827 46.997046 27.372925 45.804688 26.101562C43.510537 23.65541 40.073694 20.914865 35.974609 18.439453C35.781604 13.863646 35.142001 9.7276187 34.220703 6.6679688C33.741345 5.076011 33.20017 3.7682832 32.566406 2.7851562C31.932643 1.8020294 31.14304 0.99658394 30.019531 0.99609375 z M 30.019531 3.0039062C30.042021 3.0039161 30.411623 3.1431895 30.880859 3.8710938C31.350096 4.598998 31.856139 5.7694263 32.300781 7.2460938C33.182618 10.174693 33.845079 14.321108 34.007812 18.923828 A 1.0031003 1.0031003 0 0 0 34.103516 19.421875 A 1.0031003 1.0031003 0 0 0 34.146484 19.505859 A 1.0031003 1.0031003 0 0 0 34.154297 19.519531 A 1.0031003 1.0031003 0 0 0 34.179688 19.556641 A 1.0031003 1.0031003 0 0 0 34.595703 19.921875C38.718865 22.367546 42.143882 25.129114 44.341797 27.472656C45.449187 28.653419 46.244464 29.734438 46.660156 30.548828C47.075849 31.363218 47.002146 31.780934 47.001953 31.78125C46.998253 31.78735 46.71008 32.012128 45.818359 31.996094C44.926639 31.980064 43.617522 31.745039 42.0625 31.300781C38.97666 30.419181 34.891386 28.72994 30.5625 26.544922 A 1.0031003 1.0031003 0 0 0 30 26.384766 A 1.0031003 1.0031003 0 0 0 29.451172 26.548828C25.133344 28.724047 21.049021 30.410105 17.962891 31.291016C16.406516 31.73527 15.096191 31.969762 14.203125 31.986328C13.310059 32.002898 13.021436 31.778522 13.019531 31.775391C13.019646 31.775579 12.946011 31.357265 13.363281 30.542969C13.780551 29.728673 14.577702 28.649039 15.6875 27.46875C17.8902 25.126141 21.319898 22.365249 25.443359 19.921875 A 1.0031003 1.0031003 0 0 0 25.830078 19.601562 A 1.0031003 1.0031003 0 0 0 25.873047 19.539062 A 1.0031003 1.0031003 0 0 0 25.904297 19.486328 A 1.0031003 1.0031003 0 0 0 26.03125 18.923828C26.194452 14.309455 26.857293 10.161864 27.738281 7.2363281C28.182491 5.7612235 28.687307 4.594816 29.15625 3.8691406C29.625193 3.1434652 29.993067 3.0039062 30.019531 3.0039062 z M 30.019531 20 A 2 2 0 0 0 30.019531 24 A 2 2 0 0 0 30.019531 20 z M 30.011719 28.498047C30.356337 28.670369 30.666818 28.793086 31.007812 28.958984 A 1.0031003 1.0031003 0 0 0 31.009766 29.052734L31.955078 46.996094L28.066406 46.996094L29.011719 29.052734 A 1.0031003 1.0031003 0 0 0 29.013672 28.958984C29.355144 28.793142 29.666701 28.670288 30.011719 28.498047 z M 26.958984 29.90625L26.060547 46.996094L23.960938 46.996094L23.144531 31.558594C24.373676 31.056335 25.647277 30.505575 26.958984 29.90625 z M 21.175781 32.324219L21.953125 46.996094L18.068359 46.996094L18.808594 33.123047C19.550919 32.902449 20.34705 32.630365 21.175781 32.324219 z"/></svg>