<svg id="Layer_1" data-name="Layer 1" xmlns="http://www.w3.org/2000/svg" viewBox="0 0 122.88 108.5"><defs><style>.cls-1{fill-rule:evenodd;}</style></defs><title>wireless-charging</title><path class="cls-1" d="M42,0H80.91A10.79,10.79,0,0,1,91.68,10.77v87A10.79,10.79,0,0,1,80.91,108.5H42A10.79,10.79,0,0,1,31.19,97.73v-87A10.79,10.79,0,0,1,42,0ZM64.9,39,63.57,51.23h6L57.7,70.93l2.7-13.84-7,.12L65.06,37.57,64.9,39Zm-3.46-6.27a21.51,21.51,0,1,1-21.51,21.5,21.49,21.49,0,0,1,21.51-21.5ZM11,39.18a2.06,2.06,0,0,0-3-2.79l0,0c-10.5,11.37-10.55,24.16-.2,35.65h0l0,0a2.06,2.06,0,0,0,3-2.8c-9-10.07-8.8-20.32,0-30a.83.83,0,0,0,.17-.15Zm100.89,0a2.06,2.06,0,0,1,3-2.79l0,0c10.51,11.37,10.56,24.16.21,35.64h0l0,0a2.06,2.06,0,0,1-3-2.8c9-10.06,8.8-20.31,0-30a.58.58,0,0,1-.17-.14Zm-8.83,7a2.05,2.05,0,0,1,3.17-2.61l0,0c5.7,6.69,6,14.62.54,21.57a2.05,2.05,0,0,1-3.26-2.5v0c3.34-4.3,4.35-9.28,1-14a20.63,20.63,0,0,1-1.54-2.44Zm-83.23,0a2.05,2.05,0,0,0-3.17-2.61l0,0c-5.7,6.69-6,14.62-.54,21.57a2.05,2.05,0,0,0,3.26-2.5v0c-3.34-4.3-4.35-9.28-1-14a20.63,20.63,0,0,0,1.54-2.44ZM61.43,96.78a4.41,4.41,0,1,1-4.4,4.41,4.42,4.42,0,0,1,4.4-4.41ZM34.29,93.4h54.3V13.54H34.29V93.4Z"/></svg>