<svg xmlns="http://www.w3.org/2000/svg" xmlns:xlink="http://www.w3.org/1999/xlink" viewBox="0 0 50 50"><path d="M26 0C25.449219 0 25 0.449219 25 1L25 3C25 3.550781 25.449219 4 26 4C26.554688 4 27 3.550781 27 3L27 1C27 0.449219 26.554688 0 26 0 Z M 18.9375 2.9375C18.683594 2.9375 18.414063 3.023438 18.21875 3.21875C17.828125 3.609375 17.828125 4.234375 18.21875 4.625L19.625 6.0625C19.820313 6.257813 20.085938 6.34375 20.34375 6.34375C20.601563 6.34375 20.867188 6.257813 21.0625 6.0625C21.453125 5.671875 21.453125 5.015625 21.0625 4.625L19.625 3.21875C19.429688 3.023438 19.191406 2.9375 18.9375 2.9375 Z M 33.0625 2.9375C32.808594 2.9375 32.570313 3.023438 32.375 3.21875L30.9375 4.625C30.546875 5.015625 30.546875 5.671875 30.9375 6.0625C31.132813 6.257813 31.398438 6.34375 31.65625 6.34375C31.914063 6.34375 32.179688 6.257813 32.375 6.0625L33.78125 4.625C34.171875 4.234375 34.171875 3.609375 33.78125 3.21875C33.585938 3.023438 33.316406 2.9375 33.0625 2.9375 Z M 26 6C23.792969 6 22 7.792969 22 10L22 11L30 11L30 10C30 7.792969 28.207031 6 26 6 Z M 16 9C15.449219 9 15 9.449219 15 10C15 10.550781 15.449219 11 16 11L18 11C18.550781 11 19 10.550781 19 10C19 9.449219 18.550781 9 18 9 Z M 34 9C33.445313 9 33 9.449219 33 10C33 10.550781 33.445313 11 34 11L36 11C36.554688 11 37 10.550781 37 10C37 9.449219 36.554688 9 36 9 Z M 2.78125 13C1.253906 13 0 14.234375 0 15.75L0 40.25C0 41.765625 1.253906 43 2.78125 43L7 43C7 46.308594 9.691406 49 13 49C16.308594 49 19 46.308594 19 43L33 43C33 46.308594 35.691406 49 39 49C42.308594 49 45 46.308594 45 43L47.21875 43C48.746094 43 50 41.765625 50 40.25L50 33.25C50 31.324219 48.628906 29.363281 48.5 29.1875L39.46875 15.21875C39.445313 15.183594 39.402344 15.125 39.375 15.09375L39.1875 14.90625C38.414063 13.976563 37.640625 13 35.96875 13 Z M 32 18L38.84375 18L46 29L32 29 Z M 14 21L16 21L16 25L20 25L20 27L16 27L16 31L14 31L14 27L10 27L10 25L14 25 Z M 13 39C15.207031 39 17 40.792969 17 43C17 45.207031 15.207031 47 13 47C10.792969 47 9 45.207031 9 43C9 40.792969 10.792969 39 13 39 Z M 39 39C41.207031 39 43 40.792969 43 43C43 45.207031 41.207031 47 39 47C36.792969 47 35 45.207031 35 43C35 40.792969 36.792969 39 39 39Z"/></svg>