<svg xmlns="http://www.w3.org/2000/svg" xmlns:xlink="http://www.w3.org/1999/xlink" viewBox="0 0 50 50"><path d="M18.8125 11C18.558594 11.050781 18.335938 11.195313 18.1875 11.40625L15.3125 15.25C13.867188 15.964844 12.523438 17.109375 11.8125 17.78125C12.179688 17.980469 12.449219 18.097656 12.5 18.125C12.710938 18.242188 18.140625 22.320313 20 32C20.179688 32.941406 21 33 21 33L28 33C28 33 28.816406 33.0625 29 32C29.382813 29.78125 30.242188 26.714844 30.9375 25L27 25C24.761719 25 23.066406 22.554688 21.28125 19.96875C20.128906 18.300781 18.863281 16.5 17.5625 15.59375L19.5 13L23 13C23.359375 13.003906 23.695313 12.816406 23.878906 12.503906C24.058594 12.191406 24.058594 11.808594 23.878906 11.496094C23.695313 11.183594 23.359375 10.996094 23 11L19 11C18.96875 11 18.9375 11 18.90625 11C18.875 11 18.84375 11 18.8125 11 Z M 20.15625 15.21875C21.140625 16.265625 22.050781 17.5625 22.9375 18.84375C24.289063 20.796875 25.808594 23 27 23L31.8125 23C32.523438 21.511719 33.101563 20.558594 33.15625 20.46875C33.265625 20.285156 33.425781 20.144531 33.625 20.0625C33.90625 19.945313 40.292969 17.3125 44.46875 17.03125C44.378906 17.039063 44.308594 17.023438 44.21875 17.03125C44.144531 17.015625 44.078125 17 44 17C37.847656 17 33.335938 17.878906 30.34375 18.46875C28.886719 18.757813 27.722656 19 27 19C26.179688 19 24.828125 18.21875 23.28125 16.84375C22.378906 16.039063 21.296875 15.496094 20.15625 15.21875 Z M 9.125 18.625L4.375 19.65625C3.011719 19.960938 1.976563 21.117188 1.78125 22.5L1 27.84375C0.980469 27.992188 1.019531 28.144531 1.0625 28.28125C1.066406 28.289063 1.058594 28.304688 1.0625 28.3125L2.0625 31.3125C2.199219 31.722656 2.570313 32 3 32L3.09375 32C3.046875 32.328125 3 32.660156 3 33C3 36.859375 6.140625 40 10 40C13.859375 40 17 36.859375 17 33C17 32.304688 16.910156 31.632813 16.71875 31L17.75 31C15.703125 22.386719 11.542969 19.898438 11.5 19.875C11.476563 19.863281 10.40625 19.179688 9.125 18.625 Z M 46.9375 18.78125L45.125 19C45.089844 19.003906 45.066406 19 45.03125 19C41.730469 19.066406 36.070313 21.261719 34.6875 21.8125C34.101563 22.855469 32.089844 26.644531 31.1875 31L32.28125 31C32.09375 31.632813 32 32.304688 32 33C32 36.859375 35.140625 40 39 40C42.859375 40 46 36.859375 46 33C46 29.421875 43.3125 26.476563 39.84375 26.0625L40.53125 25L48 25C48.304688 25 48.589844 24.859375 48.78125 24.625C48.96875 24.386719 49.035156 24.078125 48.96875 23.78125C48.9375 23.636719 48.335938 20.929688 46.9375 18.78125 Z M 6.8125 21.1875L6 24L3.46875 24.84375L3.75 22.78125C3.828125 22.21875 4.257813 21.746094 4.8125 21.625 Z M 10 28C12.757813 28 15 30.242188 15 33C15 35.757813 12.757813 38 10 38C7.242188 38 5 35.757813 5 33C5 30.242188 7.242188 28 10 28 Z M 39 28C41.757813 28 44 30.242188 44 33C44 35.757813 41.757813 38 39 38C36.242188 38 34 35.757813 34 33C34 30.242188 36.242188 28 39 28 Z M 10 30C8.34375 30 7 31.34375 7 33C7 34.65625 8.34375 36 10 36C11.65625 36 13 34.65625 13 33C13 31.34375 11.65625 30 10 30 Z M 39 30C37.34375 30 36 31.34375 36 33C36 34.65625 37.34375 36 39 36C40.65625 36 42 34.65625 42 33C42 31.34375 40.65625 30 39 30Z"/></svg>