<svg xmlns="http://www.w3.org/2000/svg" xmlns:xlink="http://www.w3.org/1999/xlink" viewBox="0 0 50 50"><path d="M18.8125 11C18.558594 11.050781 18.335938 11.195313 18.1875 11.40625L15.3125 15.25C13.476563 16.152344 11.96875 17.609375 11.5 18.09375L4.375 19.65625C3.007813 19.960938 1.980469 21.113281 1.78125 22.5L1 27.84375C0.984375 28.003906 1.003906 28.164063 1.0625 28.3125L2.0625 31.3125C2.195313 31.71875 2.574219 31.996094 3 32L3.09375 32C3.046875 32.328125 3 32.660156 3 33C3 36.855469 6.144531 40 10 40C13.855469 40 17 36.855469 17 33C17 32.300781 16.882813 31.640625 16.6875 31L18.6875 31C18.804688 31.410156 18.921875 31.808594 19.03125 32.25C19.144531 32.691406 19.542969 33 20 33L29 33C29.464844 32.996094 29.867188 32.671875 29.96875 32.21875C30.066406 31.808594 30.1875 31.40625 30.3125 31L32.3125 31C32.117188 31.640625 32 32.300781 32 33C32 36.855469 35.144531 40 39 40C42.855469 40 46 36.855469 46 33C46 29.429688 43.304688 26.480469 39.84375 26.0625L40.5625 25L48 25C48.300781 24.996094 48.585938 24.859375 48.777344 24.621094C48.964844 24.386719 49.035156 24.078125 48.96875 23.78125C48.96875 23.78125 48.738281 22.683594 48.21875 21.34375C47.699219 20.003906 46.914063 18.382813 45.65625 17.25C45.46875 17.082031 45.222656 16.992188 44.96875 17C44.761719 17.003906 44.53125 17.015625 44.3125 17.03125C44.210938 17.003906 44.105469 16.992188 44 17C39.34375 17 35.617188 17.492188 32.78125 18C29.945313 18.507813 27.933594 19 27 19C26.25 19 24.480469 17.910156 23.28125 16.84375C21.972656 15.675781 20.269531 15 18.5 15L18 15L19.5 13L23 13C23.359375 13.003906 23.695313 12.816406 23.878906 12.503906C24.058594 12.191406 24.058594 11.808594 23.878906 11.496094C23.695313 11.183594 23.359375 10.996094 23 11L19 11C18.96875 11 18.9375 11 18.90625 11C18.875 11 18.84375 11 18.8125 11 Z M 16.28125 17L18 17C18.828125 17 19.441406 17.335938 20.09375 17.96875C20.746094 18.601563 21.359375 19.542969 21.96875 20.53125C22.578125 21.519531 23.179688 22.546875 23.9375 23.40625C24.695313 24.265625 25.726563 25 27 25L30.625 25C29.765625 26.761719 28.875 28.851563 28.28125 31L20.6875 31C19.375 26.199219 17.492188 22.925781 15.8125 20.96875C14.984375 20.003906 14.230469 19.335938 13.625 18.875C14.324219 18.265625 15.300781 17.472656 16.28125 17 Z M 44.53125 19.0625C45.261719 19.839844 45.925781 20.980469 46.34375 22.0625C46.546875 22.582031 46.546875 22.628906 46.65625 23L40 23C39.664063 22.996094 39.347656 23.160156 39.15625 23.4375L37.28125 26.21875C35.628906 26.640625 34.199219 27.664063 33.25 29.03125C33.167969 29.011719 33.085938 29 33 29L31 29C32.449219 25.277344 34.488281 22.117188 34.6875 21.8125C34.933594 21.710938 36.277344 21.136719 38.3125 20.46875C40.351563 19.796875 42.769531 19.191406 44.53125 19.0625 Z M 34.34375 19.8125C34.058594 19.921875 33.625 20.0625 33.625 20.0625C33.433594 20.136719 33.269531 20.265625 33.15625 20.4375C33.15625 20.4375 32.480469 21.496094 31.65625 23L27 23C26.460938 23 26.003906 22.734375 25.4375 22.09375C24.96875 21.566406 24.5 20.785156 24 19.96875C24.910156 20.558594 25.910156 21 27 21C28.484375 21 30.386719 20.492188 33.15625 20C33.527344 19.933594 33.945313 19.878906 34.34375 19.8125 Z M 11.78125 20.0625C11.792969 20.0625 11.800781 20.0625 11.8125 20.0625C12.105469 20.222656 12.953125 20.734375 14.28125 22.28125C15.488281 23.683594 16.914063 25.835938 18.0625 29L16 29C15.96875 29 15.9375 29 15.90625 29C15.875 29 15.84375 29 15.8125 29C15.792969 29 15.769531 29 15.75 29C15.746094 28.996094 15.722656 29.003906 15.71875 29C14.449219 27.199219 12.363281 26 10 26C7.230469 26 4.851563 27.625 3.71875 29.96875L3.03125 27.96875L3.3125 25.9375L6.3125 24.9375C6.625 24.839844 6.871094 24.59375 6.96875 24.28125L7.9375 20.9375 Z M 5.6875 21.4375L5.15625 23.25L3.625 23.75L3.75 22.78125C3.832031 22.210938 4.25 21.75 4.8125 21.625 Z M 10 28C12.773438 28 15 30.226563 15 33C15 35.773438 12.773438 38 10 38C7.226563 38 5 35.773438 5 33C5 30.226563 7.226563 28 10 28 Z M 39 28C41.773438 28 44 30.226563 44 33C44 35.773438 41.773438 38 39 38C36.226563 38 34 35.773438 34 33C34 30.226563 36.226563 28 39 28 Z M 10 30C8.355469 30 7 31.355469 7 33C7 34.644531 8.355469 36 10 36C11.644531 36 13 34.644531 13 33C13 31.355469 11.644531 30 10 30 Z M 39 30C37.355469 30 36 31.355469 36 33C36 34.644531 37.355469 36 39 36C40.644531 36 42 34.644531 42 33C42 31.355469 40.644531 30 39 30 Z M 10 32C10.5625 32 11 32.4375 11 33C11 33.5625 10.5625 34 10 34C9.4375 34 9 33.5625 9 33C9 32.4375 9.4375 32 10 32 Z M 39 32C39.5625 32 40 32.4375 40 33C40 33.5625 39.5625 34 39 34C38.4375 34 38 33.5625 38 33C38 32.4375 38.4375 32 39 32Z"/></svg>