<svg xmlns="http://www.w3.org/2000/svg" xmlns:xlink="http://www.w3.org/1999/xlink" viewBox="0 0 50 50"><path d="M16.984375 6.9863281 A 1.0001 1.0001 0 0 0 16.839844 7L9 7C4.0414839 7 0 11.041484 0 16L0 18.832031 A 1.0001 1.0001 0 0 0 0 19.158203L0 33C0 35.197334 1.8026661 37 4 37L4.0410156 37C4.0272801 37.166874 4 37.332921 4 37.5C4 38.847222 4.4436807 40.207881 5.3769531 41.257812C6.3102255 42.307744 7.7500005 43 9.5 43C11.249999 43 12.689774 42.307744 13.623047 41.257812C14.556319 40.207881 15 38.847222 15 37.5C15 37.332921 14.97272 37.166874 14.958984 37L35 37 A 1.0001 1.0001 0 0 0 35.613281 36.789062L36.626953 36L38.457031 36C38.303389 36.505796 38 36.946603 38 37.5C38 40.525577 40.474423 43 43.5 43C46.525577 43 49 40.525577 49 37.5C49 36.946603 48.696611 36.505796 48.542969 36L49 36 A 1.0001 1.0001 0 0 0 49.980469 34.804688C49.159078 30.697736 46.34396 28.940635 44.986328 28.318359C44.8327 18.771616 41.531565 11.925828 39.816406 9L43 9 A 1.0001 1.0001 0 1 0 43 7L38.027344 7L38 7L35.154297 7 A 1.0001 1.0001 0 0 0 34.984375 6.9863281 A 1.0001 1.0001 0 0 0 34.839844 7L17.154297 7 A 1.0001 1.0001 0 0 0 16.984375 6.9863281 z M 9 9L16 9L16 18L2 18L2 16C2 12.122516 5.1225161 9 9 9 z M 18 9L30 9L30 25.5C30 28.541589 27.541589 31 24.5 31L22 31L22 28C22 25.592847 20.274577 23.568451 18 23.101562L18 19.167969 A 1.0001 1.0001 0 0 0 18 18.841797L18 9 z M 32 9L34 9L34 23 A 1.0001 1.0001 0 0 0 35 24L42.669922 24C42.841962 25.424157 42.955693 26.929522 42.974609 28.53125L35.753906 34.146484 A 1.0001 1.0001 0 0 0 35.566406 34.292969L34.65625 35L14.425781 35C14.213928 34.55303 13.961459 34.122901 13.623047 33.742188C12.689774 32.692256 11.249999 32 9.5 32C7.7500005 32 6.3102255 32.692256 5.3769531 33.742188C5.0385408 34.122901 4.7860723 34.55303 4.5742188 35L4 35C2.8833339 35 2 34.116666 2 33L2 25L16.832031 25 A 1.0001 1.0001 0 0 0 17.091797 25.009766C18.715894 25.058805 20 26.363056 20 28L20 32 A 1.0001 1.0001 0 0 0 21 33L24.5 33C28.626411 33 32 29.626411 32 25.5L32 9 z M 36 9L37.457031 9C38.015125 9.7885409 41.06846 14.391308 42.376953 22L36 22L36 9 z M 2 20L16 20L16 23L2 23L2 20 z M 44.171875 30.132812C44.948864 30.483725 46.638496 31.500405 47.560547 34L47.240234 34L39.759766 34L39.199219 34L44.171875 30.132812 z M 9.5 34C9.719244 34 9.9083173 34.029292 10.101562 34.054688C11.355475 34.272648 12.363845 35.157967 12.78125 36.333984 A 1.0001 1.0001 0 0 0 12.855469 36.492188C12.941881 36.819098 13 37.156001 13 37.5C13 38.402778 12.69368 39.292119 12.126953 39.929688C11.560226 40.567256 10.749999 41 9.5 41C8.2500008 41 7.4397738 40.567256 6.8730469 39.929688C6.3063199 39.292119 6 38.402778 6 37.5C6 37.157282 6.058752 36.8219 6.1445312 36.496094 A 1.0001 1.0001 0 0 0 6.21875 36.335938C6.6370631 35.159262 7.6447201 34.2729 8.8984375 34.054688C9.0916827 34.029292 9.280756 34 9.5 34 z M 40.455078 36L46.544922 36C46.775688 36.46567 47 36.94237 47 37.5C47 39.444423 45.444423 41 43.5 41C41.555577 41 40 39.444423 40 37.5C40 36.94237 40.224312 36.46567 40.455078 36 z"/></svg>