<?xml version="1.0" encoding="utf-8"?><svg version="1.1" id="Layer_1" xmlns="http://www.w3.org/2000/svg" xmlns:xlink="http://www.w3.org/1999/xlink" x="0px" y="0px" viewBox="0 0 122.88 120.96" style="enable-background:new 0 0 122.88 120.96" xml:space="preserve"><style type="text/css">.st0{fill-rule:evenodd;clip-rule:evenodd;}</style><g><path class="st0" d="M18.31,10.82h5.52V2.87c0-1.58,1.29-2.87,2.87-2.87l0,0c1.58,0,2.87,1.29,2.87,2.87v7.96h8.41V2.87 c0-1.58,1.29-2.87,2.87-2.87l0,0c1.58,0,2.87,1.29,2.87,2.87v7.96h5.38c1,0,1.81,0.82,1.81,1.81v2.1c0,1-0.82,1.81-1.81,1.81H18.31 c-1,0-1.81-0.82-1.81-1.81v-2.1C16.5,11.63,17.31,10.82,18.31,10.82L18.31,10.82L18.31,10.82z M22.89,35.82h8.09v-2.47 c-7.84-0.94-11.25-4.71-11.25-12.4v-2.87l0,0h13.06l-2.73,6.33l3.64,0.34l-2.35,6.58l7.72-9.27l-4.2-0.47l1.97-3.52h11.13v2.44 c0,7.45-3.49,12.01-11.25,12.76v2.54h10.91l0,0l0,0c1.29,0,2.47,0.53,3.33,1.39c0.86,0.87,1.4,2.07,1.4,3.39l0,0l0,0v2.22l0,0l0,0 c0,1.33-0.54,2.53-1.41,3.39c-0.85,0.85-2.03,1.39-3.33,1.39l0,0l0,0H22.89l0,0l0,0c-1.29,0-2.47-0.53-3.33-1.39 c-0.87-0.87-1.41-2.07-1.41-3.39l0,0l0,0v-2.21l0,0l0,0c0-1.33,0.54-2.53,1.41-3.39C20.41,36.36,21.59,35.83,22.89,35.82 L22.89,35.82L22.89,35.82L22.89,35.82z M96.67,68.54c14.47,0,26.21,11.74,26.21,26.21c0,14.47-11.74,26.21-26.21,26.21 c-14.47,0-26.21-11.74-26.21-26.21c0-9.33,4.88-17.53,12.23-22.17l-8.13-12.54H42.32l-4.88,11.02 c8.85,4.21,14.98,13.23,14.98,23.69c0,14.47-11.74,26.21-26.21,26.21C11.74,120.96,0,109.22,0,94.75 c0-14.47,11.74-26.21,26.21-26.21c1.22,0,2.41,0.08,3.59,0.24l6.32-14.3c0.65-1.48,2.1-2.36,3.62-2.36l0,0h36.95 c0.72,0,1.39,0.19,1.98,0.53l7.13-16.08H72.25c-2.19,0-3.96-1.78-3.96-3.96c0-2.18,1.77-3.98,3.96-3.98h19.76v0.02 c0.56,0,1.13,0.12,1.67,0.37c1.98,0.92,2.83,3.27,1.9,5.25L83.94,59.99l6.1,9.4C92.16,68.83,94.38,68.54,96.67,68.54L96.67,68.54 L96.67,68.54z M34.23,78.32l-6.55,14.8c-0.88,2-3.22,2.91-5.22,2.03c-2-0.88-2.91-3.22-2.03-5.22l5.96-13.46c-0.06,0-0.12,0-0.18,0 c-10.1,0-18.28,8.19-18.28,18.28c0,10.09,8.19,18.28,18.28,18.28c10.1,0,18.28-8.19,18.28-18.28 C44.49,87.53,40.31,81.29,34.23,78.32L34.23,78.32L34.23,78.32z M94.7,76.57l6.36,9.79c1.19,1.83,0.67,4.28-1.16,5.47 c-1.83,1.19-4.28,0.67-5.47-1.16L87,79.23c-5.17,3.23-8.62,8.97-8.62,15.52c0,10.09,8.19,18.28,18.28,18.28 c10.1,0,18.28-8.19,18.28-18.28c0-10.1-8.19-18.28-18.28-18.28C96.01,76.46,95.35,76.5,94.7,76.57L94.7,76.57L94.7,76.57z"/></g></svg>