<svg xmlns="http://www.w3.org/2000/svg" xmlns:xlink="http://www.w3.org/1999/xlink" viewBox="0 0 30 30"><path d="M19 4 A 1.0001 1.0001 0 0 0 18.058594 5.3359375L19.400391 9.0957031 A 1.0001 1.0001 0 0 0 19.283203 9.1621094L13.474609 12.943359L9.9453125 8L11 8 A 1.0001 1.0001 0 1 0 11 6L8.140625 6 A 1.0001 1.0001 0 0 0 7.8457031 6L7 6 A 1.0001 1.0001 0 1 0 7 8L7.484375 8L11.794922 14.035156L10.392578 14.949219 A 1.0001 1.0001 0 0 0 10.236328 14.751953C9.1522854 13.670309 7.6474727 13 6 13C2.6983746 13 0 15.698375 0 19C0 22.301625 2.6983746 25 6 25L8.1835938 25C8.575738 26.103874 9.5881332 26.901546 10.806641 26.980469 A 1.0001 1.0001 0 0 0 11 27L13 27L15 27 A 1.0001 1.0001 0 1 0 15 25L13 25L13 23L15 23 A 1.0001 1.0001 0 1 0 15 21L13 21L11 21 A 1.0001 1.0001 0 0 0 10.800781 21.019531C10.800781 21.019531 10.798828 21.019531 10.798828 21.019531C9.5837719 21.101385 8.5749001 21.898484 8.1835938 23L6 23C3.7796254 23 2 21.220375 2 19C2 16.779625 3.7796254 15 6 15C7.0436902 15 7.9652184 15.417436 8.6757812 16.066406L5.4550781 18.162109 A 1.0001 1.0001 0 1 0 6.5449219 19.837891L20.089844 11.023438L21.046875 13.705078C20.448346 14.019905 19.924874 14.422651 19.501953 14.898438C18.485347 16.042119 18 17.527778 18 19C18 20.472222 18.485347 21.957881 19.501953 23.101562C20.518559 24.245244 22.083334 25 24 25C27.301865 25 30 22.301863 30 19C30 15.698137 27.301865 13 24 13C23.635043 13 23.287303 13.035686 22.949219 13.087891L20.417969 6L22 6 A 1.0001 1.0001 0 1 0 22 4L19 4 z M 24 15C26.220986 15 28 16.779015 28 19C28 21.220985 26.220986 23 24 23C22.583334 23 21.648107 22.504756 20.998047 21.773438C20.347987 21.042119 20 20.027778 20 19C20 17.972222 20.347987 16.957881 20.998047 16.226562C21.206267 15.992315 21.457284 15.794477 21.730469 15.617188L23.058594 19.335938 A 1.0001 1.0001 0 1 0 24.941406 18.664062L23.644531 15.03125C23.765826 15.023215 23.870851 15 24 15 z"/></svg>