<svg xmlns="http://www.w3.org/2000/svg" xmlns:xlink="http://www.w3.org/1999/xlink" viewBox="0 0 50 50"><path d="M7 7C5.90625 7 5 7.90625 5 9L5 19L4.8125 19L4.625 19.09375C4.476563 19.15625 1 20.640625 1 24.96875L1 28.3125C2.59375 26.878906 4.695313 26 7 26L31 26C33.824219 26 36.347656 27.300781 38 29.34375L38 22C38 20.347656 36.652344 19 35 19L31 19L31 15L29 15L29 19L22 19L22 9C22 7.90625 21.09375 7 20 7 Z M 7 9L20 9L20 21L7 21 Z M 40 20L40 34L37.90625 34C37.417969 30.613281 34.519531 28 31 28L7 28C3.140625 28 0 31.140625 0 35C0 38.859375 3.140625 42 7 42L31 42C34.519531 42 37.417969 39.386719 37.90625 36L40 36L40 41L50 41L50 39.4375L49.75 39.15625C49.6875 39.089844 43.511719 32.261719 42.15625 20.875L42.0625 20 Z M 7 33C8.105469 33 9 33.894531 9 35C9 36.105469 8.105469 37 7 37C5.894531 37 5 36.105469 5 35C5 33.894531 5.894531 33 7 33 Z M 15 33C16.105469 33 17 33.894531 17 35C17 36.105469 16.105469 37 15 37C13.894531 37 13 36.105469 13 35C13 33.894531 13.894531 33 15 33 Z M 23 33C24.105469 33 25 33.894531 25 35C25 36.105469 24.105469 37 23 37C21.894531 37 21 36.105469 21 35C21 33.894531 21.894531 33 23 33 Z M 31 33C32.105469 33 33 33.894531 33 35C33 36.105469 32.105469 37 31 37C29.894531 37 29 36.105469 29 35C29 33.894531 29.894531 33 31 33Z"/></svg>