<?xml version="1.0" encoding="utf-8"?><svg version="1.1" id="Layer_1" xmlns="http://www.w3.org/2000/svg" xmlns:xlink="http://www.w3.org/1999/xlink" x="0px" y="0px" viewBox="0 0 110.12 122.88" style="enable-background:new 0 0 110.12 122.88" xml:space="preserve"><style type="text/css">.st0{fill-rule:evenodd;clip-rule:evenodd;}</style><g><path class="st0" d="M110.12,105.65h-5.45v10.55c0,3.67-3,6.68-6.68,6.68h-6.83c-3.67,0-6.68-3.01-6.68-6.68v-10.55H25.46v10.55 c0,3.67-3.01,6.68-6.68,6.68h-6.83c-3.67,0-6.68-3.01-6.68-6.68v-10.55H0v-83.7C0,14.24,4.5,8.63,13.55,5.15 C22.32,1.73,36.16,0,55.06,0c18.9,0,32.74,1.73,41.51,5.15c9.06,3.49,13.55,9.09,13.55,16.81V105.65L110.12,105.65z M27.31,85.92 h55.5c0.37,0,0.67,0.48,0.67,1.07v3.2c0,0.59-0.3,1.07-0.67,1.07l-55.5,0c-0.37,0-0.67-0.48-0.67-1.07v-3.2 C26.64,86.4,26.94,85.92,27.31,85.92L27.31,85.92L27.31,85.92z M27.31,94.01h55.5c0.37,0,0.67,0.48,0.67,1.07v3.2 c0,0.59-0.3,1.07-0.67,1.07h-55.5c-0.37,0-0.67-0.48-0.67-1.07v-3.2C26.64,94.49,26.94,94.01,27.31,94.01L27.31,94.01z M8.76,22.4 H49.9c1.07,0,1.95,0.88,1.95,1.96v28.59c0,1.07-0.88,1.95-1.95,1.95H8.76c-1.07,0-1.95-0.88-1.95-1.95V24.35 C6.8,23.28,7.68,22.4,8.76,22.4L8.76,22.4L8.76,22.4z M60.08,22.4h41.14c1.07,0,1.96,0.88,1.96,1.96v28.59 c0,1.07-0.88,1.95-1.96,1.95H60.08c-1.07,0-1.95-0.88-1.95-1.95V24.35C58.13,23.28,59.01,22.4,60.08,22.4L60.08,22.4L60.08,22.4z M104.61,93.53c0-1.99-0.68-3.65-2.05-5.02c-1.37-1.37-3.06-2.05-5.02-2.05c-1.92,0-3.58,0.69-4.98,2.05 c-1.4,1.37-2.09,3.03-2.09,5.02c0,1.92,0.69,3.55,2.09,4.92c1.4,1.37,3.06,2.05,4.98,2.05c1.96,0,3.65-0.68,5.02-2.05 C103.93,97.08,104.61,95.46,104.61,93.53L104.61,93.53L104.61,93.53z M19.65,93.53c0-1.99-0.69-3.65-2.05-5.02 c-1.37-1.37-3.03-2.05-5.02-2.05c-1.95,0-3.65,0.69-5.02,2.05c-1.37,1.37-2.02,3.03-2.02,5.02c0,1.92,0.65,3.55,2.02,4.92 c1.37,1.37,3.06,2.05,5.02,2.05c1.99,0,3.65-0.68,5.02-2.05C18.96,97.08,19.65,95.46,19.65,93.53L19.65,93.53L19.65,93.53z"/></g></svg>