<?xml version="1.0" encoding="utf-8"?><svg version="1.1" id="Layer_1" xmlns="http://www.w3.org/2000/svg" xmlns:xlink="http://www.w3.org/1999/xlink" x="0px" y="0px" viewBox="0 0 122.9 120.5" style="enable-background:new 0 0 122.9 120.5" xml:space="preserve"><style type="text/css">.st0{fill-rule:evenodd;clip-rule:evenodd;}</style><g><path class="st0" d="M110.8,103.6h-7.6V114c0,3.6-2.9,6.5-6.5,6.5h-9c-3.6,0-6.5-2.9-6.5-6.5v-10.3H41.5V114c0,3.6-2.9,6.5-6.5,6.5 h-9c-3.6,0-6.5-2.9-6.5-6.5v-10.3H12v-82c0-7.6,4.4-13.1,13.3-16.5c17.6-6.9,54.6-6.9,72.3,0c8.9,3.4,13.3,8.9,13.3,16.5V103.6 L110.8,103.6L110.8,103.6z M118.6,40.4h-3.8V62h3.8c2.4,0,4.3-1.9,4.3-4.3V44.7C122.9,42.3,121,40.4,118.6,40.4L118.6,40.4z M4.3,40.4h3.8V62H4.3C1.9,62,0,60.1,0,57.7V44.7C0,42.3,1.9,40.4,4.3,40.4L4.3,40.4z M46.4,8.6h30.1c0.9,0,1.6,0.7,1.6,1.6v5.2 c0,0.9-0.7,1.6-1.6,1.6H46.4c-0.9,0-1.6-0.7-1.6-1.6v-5.2C44.8,9.3,45.5,8.6,46.4,8.6L46.4,8.6z M22.9,23.2h76.7 c1,0,1.9,0.9,1.9,1.9v42.8c0,1-0.9,1.9-1.9,1.9H22.9c-1,0-1.9-0.9-1.9-1.9V25.1C21,24.1,21.8,23.2,22.9,23.2L22.9,23.2L22.9,23.2 L22.9,23.2z M98.6,84.9c0-1.9-0.7-3.6-2-4.9c-1.3-1.3-3-2-4.9-2c-1.9,0-3.5,0.7-4.9,2c-1.4,1.3-2,3-2,4.9c0,1.9,0.7,3.5,2,4.8 c1.4,1.3,3,2,4.9,2c1.9,0,3.6-0.7,4.9-2C98,88.4,98.6,86.8,98.6,84.9L98.6,84.9L98.6,84.9L98.6,84.9z M38.1,84.9 c0-1.9-0.7-3.6-2-4.9c-1.3-1.3-3-2-4.9-2c-1.9,0-3.6,0.7-4.9,2c-1.3,1.3-2,3-2,4.9c0,1.9,0.6,3.5,2,4.8c1.3,1.3,3,2,4.9,2 c2,0,3.6-0.7,4.9-2C37.4,88.4,38.1,86.8,38.1,84.9L38.1,84.9L38.1,84.9L38.1,84.9z"/></g></svg>