<svg xmlns="http://www.w3.org/2000/svg" xmlns:xlink="http://www.w3.org/1999/xlink" viewBox="0 0 50 50"><path d="M45.0625 1.875L28.40625 5.96875L20.75 7.875C21.492188 7.582031 22 6.84375 22 6C22 4.894531 21.105469 4 20 4C18.894531 4 18 4.894531 18 6C18 7.105469 18.894531 8 20 8C20.136719 8 20.277344 7.996094 20.40625 7.96875L4.4375 11.9375L4.9375 13.875L24.5 9.03125C25.335938 10.523438 27.484375 15.21875 24.46875 20L18 20L18 22L32 22L32 20L26.71875 20C29.121094 15.222656 27.488281 10.609375 26.46875 8.53125L45.5625 3.8125 Z M 28.40625 5.96875C29.316406 5.78125 30 4.964844 30 4C30 2.894531 29.105469 2 28 2C26.894531 2 26 2.894531 26 4C26 5.105469 26.894531 6 28 6C28.136719 6 28.277344 5.996094 28.40625 5.96875 Z M 13.34375 24L13.0625 24.28125C13.0625 24.28125 12 25.328125 11 27.28125C10 29.234375 9 32.164063 9 36C9 39.835938 10 42.765625 11 44.71875C12 46.671875 13.0625 47.71875 13.0625 47.71875L13.34375 48L36.65625 48L36.96875 47.71875C36.96875 47.71875 41 43.570313 41 36C41 28.429688 36.96875 24.28125 36.96875 24.28125L36.65625 24 Z M 14.25 26L24 26L24 35L11.03125 35C11.175781 32.007813 11.960938 29.765625 12.75 28.21875C13.527344 26.699219 14.097656 26.15625 14.25 26 Z M 26 26L35.71875 26C36.039063 26.332031 38.691406 29.171875 38.96875 35L26 35 Z M 11.03125 37L38.96875 37C38.691406 42.828125 36.039063 45.667969 35.71875 46L14.25 46C14.097656 45.84375 13.527344 45.300781 12.75 43.78125C11.960938 42.234375 11.175781 39.992188 11.03125 37Z"/></svg>