<svg xmlns="http://www.w3.org/2000/svg" xmlns:xlink="http://www.w3.org/1999/xlink" viewBox="0 0 50 50"><path d="M7 6C3.144531 6 0 9.144531 0 13L0 36C0 37.644531 1.355469 39 3 39L7.09375 39C7.570313 41.835938 10.035156 44 13 44C15.964844 44 18.429688 41.835938 18.90625 39L28.15625 39C28.894531 39 29.554688 38.6875 30.0625 38.21875C30.582031 38.675781 31.246094 38.996094 32 39L34.09375 39C34.570313 41.835938 37.035156 44 40 44C42.964844 44 45.429688 41.835938 45.90625 39L47 39C48.660156 39 50 37.660156 50 36L50 27.375C50 25.085938 48.40625 23.0625 48.40625 23.0625L48.375 23.0625L44.25 17.5625L44.25 17.53125L44.21875 17.5C44.015625 17.253906 43.78125 16.972656 43.53125 16.71875C45.066406 15.96875 45.789063 13.90625 44.75 12.34375L42.625 9.125C41.328125 7.179688 39.121094 6 36.78125 6 Z M 7 8L36.78125 8C38.453125 8 40.007813 8.828125 40.9375 10.21875L43.09375 13.4375C43.566406 14.148438 43.105469 15 42.25 15L32 15C30.339844 15 29 16.339844 29 18L29 29L2 29L2 13C2 10.226563 4.226563 8 7 8 Z M 7 11C5.90625 11 5 11.90625 5 13L5 23C5 24.09375 5.90625 25 7 25L23 25C24.09375 25 25 24.09375 25 23L25 13C25 11.90625 24.09375 11 23 11 Z M 29.8125 11C29.261719 11.050781 28.855469 11.542969 28.90625 12.09375C28.957031 12.644531 29.449219 13.050781 30 13L38 13C38.359375 13.003906 38.695313 12.816406 38.878906 12.503906C39.058594 12.191406 39.058594 11.808594 38.878906 11.496094C38.695313 11.183594 38.359375 10.996094 38 11L30 11C29.96875 11 29.9375 11 29.90625 11C29.875 11 29.84375 11 29.8125 11 Z M 7 13L23 13L23 23L7 23 Z M 32 17L36 17L36 26C36 27.09375 36.90625 28 38 28L48 28L48 36C48 36.371094 47.371094 37 47 37L45.90625 37C45.429688 34.164063 42.964844 32 40 32C37.035156 32 34.570313 34.164063 34.09375 37L32 37C31.816406 37 31.527344 36.871094 31.3125 36.65625C31.097656 36.441406 31 36.179688 31 36L31 18C31 17.628906 31.628906 17 32 17 Z M 38 17L40 17C40.785156 17 41.894531 17.84375 42.65625 18.75C42.664063 18.761719 42.679688 18.769531 42.6875 18.78125L46.78125 24.25C46.78125 24.25 47.199219 25.078125 47.5625 26L38 26 Z M 2 31L29 31L29 36.15625C29 36.625 28.625 37 28.15625 37L18.90625 37C18.429688 34.164063 15.964844 32 13 32C10.035156 32 7.570313 34.164063 7.09375 37L3 37C2.449219 37 2 36.550781 2 36 Z M 13 34C15.222656 34 17 35.777344 17 38C17 40.222656 15.222656 42 13 42C10.777344 42 9 40.222656 9 38C9 35.777344 10.777344 34 13 34 Z M 40 34C42.222656 34 44 35.777344 44 38C44 40.222656 42.222656 42 40 42C37.777344 42 36 40.222656 36 38C36 35.777344 37.777344 34 40 34Z"/></svg>