<svg xmlns="http://www.w3.org/2000/svg" xmlns:xlink="http://www.w3.org/1999/xlink" viewBox="0 0 50 50"><path d="M7 6C3.101563 6 0 9.101563 0 13L0 29L29 29L29 21C29 18.300781 31.300781 16 34 16L43.3125 16C44.710938 16 45.585938 14.605469 45.1875 13.40625C45.085938 13.007813 45.011719 12.710938 44.8125 12.3125L42.6875 9.09375C42.488281 8.894531 42.386719 8.605469 42.1875 8.40625L42.09375 8.3125L41.5 7.6875C40.199219 6.585938 38.511719 6 36.8125 6 Z M 7 11L22 11C22.601563 11 23 11.398438 23 12L23 22C23 22.601563 22.601563 23 22 23L7 23C6.398438 23 6 22.601563 6 22L6 12C6 11.398438 6.398438 11 7 11 Z M 30 11L38 11C38.601563 11 39 11.398438 39 12C39 12.601563 38.601563 13 38 13L30 13C29.398438 13 29 12.601563 29 12C29 11.398438 29.398438 11 30 11 Z M 34 18C32.398438 18 31 19.398438 31 21L31 36C31 37.199219 31.773438 38.28125 32.84375 38.75C33.199219 38.90625 33.601563 39 34 39L34.09375 39C34.59375 41.800781 37 44 40 44C43 44 45.40625 41.800781 45.90625 39L47 39C47.199219 39 47.402344 38.980469 47.59375 38.9375C48.933594 38.648438 50 37.398438 50 36L50 27L49.96875 27C49.957031 26.863281 49.960938 26.726563 49.9375 26.59375C49.898438 26.359375 49.847656 26.125 49.78125 25.90625C49.773438 25.875 49.757813 25.84375 49.75 25.8125C49.6875 25.609375 49.605469 25.40625 49.53125 25.21875C49.109375 24.117188 48.542969 23.273438 48.40625 23.125L48.40625 23.09375L45.8125 19.59375L45.78125 19.59375L45.78125 19.5625C44.792969 18.328125 43.402344 18 42 18 Z M 37 20L42 20C43.171875 20 43.59375 20.058594 44.1875 20.78125C44.199219 20.796875 44.207031 20.796875 44.21875 20.8125L45.5 22.5625L46.6875 24.1875C46.988281 24.585938 47.707031 25.898438 47.90625 27L38 27C37.398438 27 37 26.601563 37 26 Z M 0 31L0 36C0 37.699219 1.300781 39 3 39L7.09375 39C7.59375 41.800781 10 44 13 44C16 44 18.40625 41.800781 18.90625 39L26.09375 39C27.695313 39 28.90625 37.6875 28.90625 36.1875L28.90625 31 Z M 13 34C15.199219 34 17 35.800781 17 38C17 40.199219 15.199219 42 13 42C10.800781 42 9 40.199219 9 38C9 35.800781 10.800781 34 13 34 Z M 40 34C42.199219 34 44 35.800781 44 38C44 40.199219 42.199219 42 40 42C37.800781 42 36 40.199219 36 38C36 35.800781 37.800781 34 40 34Z"/></svg>