<?xml version="1.0" encoding="utf-8"?><svg version="1.1" id="Layer_1" xmlns="http://www.w3.org/2000/svg" xmlns:xlink="http://www.w3.org/1999/xlink" x="0px" y="0px" viewBox="0 0 122.88 36.6" style="enable-background:new 0 0 122.88 36.6" xml:space="preserve"><style type="text/css">.st0{fill-rule:evenodd;clip-rule:evenodd;}</style><g><path class="st0" d="M0,23.97c0.29-1.63,1.11-2.63,2.72-2.69c-0.14-1.7,0.18-3.13,0.92-4.31c0.35-0.55,0.79-1.04,1.33-1.47 c1.87-1.52,3.99-1.68,6.3-2.1c2.24-0.41,4.48-0.75,6.71-1.01c2.7-0.32,5.41-0.53,8.12-0.61c1.25-0.04,0.95,0.03,1.95-0.73 c4.87-3.76,10.17-6.85,15.72-9.52C45.7,0.55,48.18,0.08,51.09,0C56.91,0,80,0,85.82,0c3.85,0.02,7.13,0.9,9.88,2.56l10.58,8.14 c3.53,0.23,7.05,0.46,10.58,0.7c2.16-0.06,3.81,0.68,4.44,3.02v7.15c2.99,0.77,1.04,7.66-0.3,9.17c-1.18,1.33-2.26,1.18-3.84,1.18 h-9.43c1.81-13.63-12.08-16.54-17.8-9.12c-1.89,2.45-2.18,5.79-1.39,9.72H28.45c2.19-10.1-4.33-14.21-10.33-13.62 c-7.72,0.76-9.75,6.95-8.42,13.74H3.01C1.11,32.72,0.22,31.2,0,28.63V23.97L0,23.97z M20.04,25.27v2.76h2.76 C22.47,26.68,21.4,25.61,20.04,25.27L20.04,25.27z M22.8,29.83h-2.76v2.76C21.4,32.26,22.47,31.19,22.8,29.83L22.8,29.83z M19.15,32.7h-0.02h0.01H19.15L19.15,32.7z M18.24,32.59v-2.76h-2.76C15.81,31.19,16.88,32.26,18.24,32.59L18.24,32.59z M15.48,28.03h2.76v-2.76C16.88,25.61,15.81,26.67,15.48,28.03L15.48,28.03z M98.8,25.27v2.76h2.76 C101.23,26.68,100.16,25.61,98.8,25.27L98.8,25.27z M101.67,28.92v0.02l0-0.01L101.67,28.92L101.67,28.92z M101.57,29.83H98.8v2.76 C100.16,32.26,101.23,31.19,101.57,29.83L101.57,29.83z M97.92,32.7h-0.02h0.01H97.92L97.92,32.7z M97.01,32.59v-2.76h-2.76 C94.58,31.19,95.65,32.26,97.01,32.59L97.01,32.59z M94.24,28.03h2.76v-2.76C95.65,25.61,94.58,26.67,94.24,28.03L94.24,28.03z M33.07,10.7V14h20.09l1.56-11.48h-4.58c-3.65,0.43-4.24,0.55-7.55,2.31c-2.73,1.45-5.22,3.04-7.87,4.77 C34.17,9.96,33.61,10.33,33.07,10.7L33.07,10.7z M77.54,2.39l-1.73,11.62h11.53l2.37-2.57L91,10.04c-0.12-6.79-0.93-7.55-6.95-7.58 L77.54,2.39L77.54,2.39z M58.08,2.39l-1.73,11.62h15.37l1.52-11.53L58.08,2.39L58.08,2.39z M19.14,21.27 c4.23,0,7.67,3.43,7.67,7.67c0,4.23-3.43,7.67-7.67,7.67c-4.23,0-7.67-3.43-7.67-7.67C11.47,24.7,14.9,21.27,19.14,21.27 L19.14,21.27z M97.9,21.27c4.23,0,7.67,3.43,7.67,7.67c0,4.23-3.43,7.67-7.67,7.67c-4.23,0-7.67-3.43-7.67-7.67 C90.24,24.7,93.67,21.27,97.9,21.27L97.9,21.27z"/></g></svg>