<svg xmlns="http://www.w3.org/2000/svg" xmlns:xlink="http://www.w3.org/1999/xlink" viewBox="0 0 50 50"><path d="M18 0C13.515625 0 10 3.515625 10 8C10 12.484375 13.515625 16 18 16C22.484375 16 26 12.484375 26 8C26 3.515625 22.484375 0 18 0 Z M 30.40625 4C30.210938 4 30.007813 4.046875 29.84375 4.15625L28.6875 4.96875L27.5625 4.15625C27.457031 4.085938 27.34375 4.058594 27.21875 4.03125C27.730469 5.242188 28 6.582031 28 8C28 9.429688 27.707031 10.78125 27.1875 12L37 12C37.265625 12 37.53125 11.90625 37.71875 11.71875L39.71875 9.71875C39.90625 9.53125 40 9.265625 40 9L40 7C40 6.734375 39.90625 6.46875 39.71875 6.28125L37.71875 4.28125C37.53125 4.09375 37.265625 4 37 4L35.3125 4C35.046875 4 34.8125 4.09375 34.625 4.28125L33.5 5.4375L32.375 4.28125C32.1875 4.09375 31.921875 4 31.65625 4 Z M 16 6C17.105469 6 18 6.894531 18 8C18 9.105469 17.105469 10 16 10C14.894531 10 14 9.105469 14 8C14 6.894531 14.894531 6 16 6 Z M 15.6875 18C13.667969 18 11.832031 19.242188 11.09375 21.09375L8.125 28L7 28C5.347656 28 4 29.347656 4 31C4 32.652344 5.347656 34 7 34L7 47C7 48.652344 8.347656 50 10 50L13 50C14.652344 50 16 48.652344 16 47L16 46L34 46L34 47C34 48.652344 35.347656 50 37 50L40 50C41.652344 50 43 48.652344 43 47L43 34C44.652344 34 46 32.652344 46 31C46 29.347656 44.652344 28 43 28L41.875 28L38.9375 21.125C38.191406 19.253906 36.332031 18 34.3125 18 Z M 15.6875 20L34.3125 20C35.523438 20 36.636719 20.765625 37.09375 21.90625L39.90625 28.53125L38.9375 29.1875C38.152344 29.738281 37.234375 30 36.1875 30L13.8125 30C12.765625 30 11.867188 29.71875 11.0625 29.15625L10.09375 28.53125L12.9375 21.875C13.386719 20.757813 14.476563 20 15.6875 20 Z M 14.5 36C15.898438 36 17 37.101563 17 38.5C17 39.898438 15.898438 41 14.5 41C13.101563 41 12 39.898438 12 38.5C12 37.101563 13.101563 36 14.5 36 Z M 35.5 36C36.898438 36 38 37.101563 38 38.5C38 39.898438 36.898438 41 35.5 41C34.101563 41 33 39.898438 33 38.5C33 37.101563 34.101563 36 35.5 36Z"/></svg>