<svg xmlns="http://www.w3.org/2000/svg" xmlns:xlink="http://www.w3.org/1999/xlink" viewBox="0 0 50 50"><path d="M7 6C6.734 6 6.4799688 6.1049687 6.2929688 6.2929688L3.2929688 9.2929688C3.0449687 9.5419687 2.9432969 9.9011875 3.0292969 10.242188L4.0292969 14.242188C4.1412969 14.686188 4.541 15 5 15L10 15L10 17L8.5976562 17C6.7095541 17 4.9786821 18.068954 4.1308594 19.755859L4.1621094 19.697266L0.73828125 25.515625C0.25551192 26.302311 0 27.206624 0 28.128906L0 37.308594C0 38.783636 1.2163641 40 2.6914062 40L4.0917969 40C4.5721157 42.828207 7.039829 45 10 45C12.960171 45 15.427884 42.828207 15.908203 40L34.091797 40C34.572116 42.828207 37.039829 45 40 45C42.960171 45 45.427884 42.828207 45.908203 40L47 40C48.645455 40 50 38.645455 50 37L50 32.388672C50 29.951489 48.225687 27.858433 45.822266 27.457031L37.494141 26.068359L30.533203 18.777344C29.583575 17.650285 28.183972 17 26.710938 17L26 17L26 15L31 15C31.379 15 31.725531 14.786266 31.894531 14.447266L33.894531 10.447266C34.028531 10.179266 34.034109 9.8657969 33.912109 9.5917969C33.790109 9.3177969 33.552672 9.1141563 33.263672 9.0351562L22.263672 6.0351562C22.178672 6.0121562 22.089 6 22 6L7 6 z M 12 15L24 15L24 17L12 17L12 15 z M 8.5976562 19L17 19L17 26L2.7734375 26L5.9023438 20.683594L5.9179688 20.652344C6.4281453 19.637236 7.4617586 19 8.5976562 19 z M 19 19L26.710938 19C27.595903 19 28.433534 19.389465 29.003906 20.066406L29.023438 20.089844L34.662109 26L19 26L19 19 z M 10 35C12.220375 35 14 36.779625 14 39C14 41.220375 12.220375 43 10 43C7.7796254 43 6 41.220375 6 39C6 36.779625 7.7796254 35 10 35 z M 40 35C42.220375 35 44 36.779625 44 39C44 41.220375 42.220375 43 40 43C37.779625 43 36 41.220375 36 39C36 36.779625 37.779625 35 40 35 z"/></svg>