<?xml version="1.0" encoding="utf-8"?><svg version="1.1" id="Layer_1" xmlns="http://www.w3.org/2000/svg" xmlns:xlink="http://www.w3.org/1999/xlink" x="0px" y="0px" viewBox="0 0 122.88 61.11" style="enable-background:new 0 0 122.88 61.11" xml:space="preserve"><style type="text/css">.st0{fill-rule:evenodd;clip-rule:evenodd;}</style><g><path class="st0" d="M65.22,0h26.54h6.63c0.38,0,0.52,0.34,0.68,0.68l2.66,5.53c0.16,0.34-0.31,0.68-0.68,0.68H55.93 C52.98,6.9,58.02,0,65.22,0L65.22,0z M23.83,45.74v3.74h3.74C27.12,47.65,25.67,46.19,23.83,45.74L23.83,45.74z M27.57,51.93h-3.74 v3.74C25.67,55.22,27.12,53.77,27.57,51.93L27.57,51.93z M21.39,55.67v-3.74h-3.74C18.1,53.77,19.55,55.22,21.39,55.67L21.39,55.67 z M17.64,49.49h3.74v-3.74C19.55,46.2,18.1,47.65,17.64,49.49L17.64,49.49z M90.05,45.74v3.74h3.74 C93.34,47.65,91.89,46.19,90.05,45.74L90.05,45.74z M93.79,51.93h-3.74v3.74C91.89,55.22,93.34,53.77,93.79,51.93L93.79,51.93z M87.61,55.67v-3.74h-3.74C84.31,53.77,85.76,55.22,87.61,55.67L87.61,55.67z M83.86,49.49h3.74v-3.74 C85.76,46.2,84.31,47.65,83.86,49.49L83.86,49.49z M89.66,12.77h3.52c5.08,0.23,7.17,0.05,9.19,1.59 c2.5,1.91,3.48,10.35,4.52,14.25c0.07,0.26-0.23,0.5-0.5,0.5H90.88c-0.27,0-0.47-0.22-0.5-0.5l-1.22-15.35 C89.14,13,89.39,12.77,89.66,12.77L89.66,12.77z M66.09,12.86h-11.5c-5.25,0-13.89,8.63-16.15,15.61 c-0.11,0.34,0.29,0.65,0.65,0.65h25.18c0.36,0,0.6-0.29,0.65-0.65l1.83-14.96C66.78,13.15,66.44,12.86,66.09,12.86L66.09,12.86z M71.07,12.8h14.07c0.27,0,0.48,0.23,0.5,0.5l1.07,15.32c0.02,0.27-0.23,0.5-0.5,0.5H69.24c-0.27,0-0.53-0.23-0.5-0.5l1.83-15.32 C70.6,13.02,70.79,12.8,71.07,12.8L71.07,12.8z M22.61,40.31c5.74,0,10.4,4.66,10.4,10.4c0,5.74-4.66,10.4-10.4,10.4 c-5.74,0-10.4-4.66-10.4-10.4C12.21,44.97,16.87,40.31,22.61,40.31L22.61,40.31z M1.81,40.78c0.53-0.24,1.11-0.35,1.74-0.34 c-0.03-3.28,0.19-6.14,0.95-8.17c0.28-1.17,0.79-2.02,1.47-2.64c2.14-1.91,21.25-3.59,25.28-4.11c4.95-4.84,10.46-9.27,16.33-13.46 c1.63-1.38,3.96-2.06,6.9-2.13l46.41-0.04c3.51-0.02,6.21,1.48,7.93,4.85l3.87,11.15l0.88-0.24v-4.34 c-0.16-1.45,0.41-2.17,1.52-2.35h5.2c1.43,0.06,2.44,0.78,2.6,2.85v15.42c0.01,1.59-0.57,2.63-2.04,2.85h-4.83 c-0.48,0.11-0.33,0.48-0.37,0.99v5.26c-0.35,3.88-1.41,6.88-4.52,7.27h-9.41c0.2-4.56-0.66-8.29-2.75-11.08 c-7.59-10.14-24.06-4.1-22.95,11.11H35.58c0.34-4.86-0.58-8.55-2.59-11.2c-7.57-9.99-25.18-4.6-23.1,11.51H3.64 C-0.13,53.94-1.36,42.19,1.81,40.78L1.81,40.78z M88.83,40.31c5.74,0,10.4,4.66,10.4,10.4c0,5.74-4.66,10.4-10.4,10.4 c-5.74,0-10.4-4.66-10.4-10.4C78.43,44.97,83.08,40.31,88.83,40.31L88.83,40.31z"/></g></svg>