<svg xmlns="http://www.w3.org/2000/svg" xmlns:xlink="http://www.w3.org/1999/xlink" viewBox="0 0 30 30"><path d="M14 4 A 1.0001 1.0001 0 0 0 13.033203 5.2578125L16.697266 19L15.732422 19 A 2 2 0 0 0 14.304688 18.023438L8.8828125 10L10 10 A 1.0001 1.0001 0 1 0 10 8L7.1386719 8 A 1.0001 1.0001 0 0 0 6.8457031 8L6 8 A 1.0001 1.0001 0 1 0 6 10L6.46875 10L7.0117188 10.802734L5.5742188 15.115234C5.3727504 15.093484 5.2115442 15 5 15C3.4166671 15 2.1018922 15.629756 1.2519531 16.585938C0.40201405 17.542119 1.4802974e-16 18.777778 0 20C0 21.222222 0.40201404 22.457881 1.2519531 23.414062C2.1018922 24.370244 3.4166671 25 5 25C6.5833329 25 7.8981078 24.370244 8.7480469 23.414062C9.3627521 22.722519 9.6664109 21.873192 9.8300781 21L12.267578 21 A 2 2 0 0 0 14 22 A 2 2 0 0 0 15.728516 21L17.845703 21 A 1.0001 1.0001 0 0 0 18.164062 21L19.169922 21C19.333589 21.873192 19.637248 22.72252 20.251953 23.414062C21.101892 24.370244 22.416667 25 24 25C25.583333 25 26.898108 24.370244 27.748047 23.414062C28.421836 22.65605 28.803837 21.72117 28.9375 20.757812C29.567493 20.42121 30 19.764525 30 19L30 14.798828C30 14.331828 29.676703 13.927219 29.220703 13.824219L16.630859 10.982422L15.302734 6L17 6 A 1.0001 1.0001 0 1 0 17 4L14 4 z M 8.4238281 12.892578L12.408203 18.791016 A 2 2 0 0 0 12.271484 19L9.8300781 19C9.6664109 18.126808 9.3627521 17.277481 8.7480469 16.585938C8.4147953 16.211029 7.9583636 15.937843 7.4941406 15.681641L8.4238281 12.892578 z M 24 17C25.083333 17 25.768559 17.370244 26.251953 17.914062C26.735347 18.457881 27 19.222222 27 20C27 20.777778 26.735347 21.542119 26.251953 22.085938C25.768559 22.629756 25.083333 23 24 23C22.916667 23 22.231441 22.629756 21.748047 22.085938C21.272334 21.55076 21.019964 20.798142 21.011719 20.033203 A 1.0001 1.0001 0 0 0 21.011719 19.964844C21.020419 19.200578 21.272735 18.448789 21.748047 17.914062C22.231441 17.370245 22.916667 17 24 17 z M 4.9414062 17.011719L4.0507812 19.683594 A 1.0005644 1.0005644 0 1 0 5.9492188 20.316406L6.8476562 17.619141C6.9785252 17.721391 7.143618 17.792185 7.2519531 17.914062C7.7276662 18.44924 7.9800358 19.201858 7.9882812 19.966797 A 1.0001 1.0001 0 0 0 7.9882812 20.035156C7.9796133 20.79942 7.7272651 21.55121 7.2519531 22.085938C6.7685595 22.629756 6.0833326 23 5 23C3.9166674 23 3.2314405 22.629756 2.7480469 22.085938C2.2646532 21.542119 2 20.777778 2 20C2 19.222222 2.2646532 18.457881 2.7480469 17.914062C3.2209393 17.382058 3.8984121 17.027377 4.9414062 17.011719 z M 24 19 A 1 1 0 0 0 24 21 A 1 1 0 0 0 24 19 z"/></svg>