<svg xmlns="http://www.w3.org/2000/svg" xmlns:xlink="http://www.w3.org/1999/xlink" viewBox="0 0 30 30"><path d="M0.984375 4.9863281 A 1.0001 1.0001 0 0 0 0 6L0 15 A 1.0001 1.0001 0 0 0 1.1582031 16L14.832031 16 A 1.0001 1.0001 0 0 0 15.158203 16L16 16L16 6 A 1.0001 1.0001 0 0 0 14.984375 4.9863281 A 1.0001 1.0001 0 0 0 14 6L2 6 A 1.0001 1.0001 0 0 0 0.984375 4.9863281 z M 4 8C4.552 8 5 8.448 5 9L5 13C5 13.552 4.552 14 4 14C3.448 14 3 13.552 3 13L3 9C3 8.448 3.448 8 4 8 z M 8 8C8.552 8 9 8.448 9 9L9 13C9 13.552 8.552 14 8 14C7.448 14 7 13.552 7 13L7 9C7 8.448 7.448 8 8 8 z M 12 8C12.552 8 13 8.448 13 9L13 13C13 13.552 12.552 14 12 14C11.448 14 11 13.552 11 13L11 9C11 8.448 11.448 8 12 8 z M 20 9C18.895 9 18 9.895 18 11L18 18L1 18L1 21 A 1.0001 1.0001 0 1 0 1 23L4.0507812 23C4.2981765 24.685411 5.7500665 26 7.5 26C9.2499335 26 10.701823 24.685411 10.949219 23L18 23L20.050781 23C20.298177 24.685411 21.750067 26 23.5 26C25.249933 26 26.701823 24.685411 26.949219 23L29 23 A 1.0001 1.0001 0 1 0 29 21L29 16L23 16L23 12C23 11.448 23.448 11 24 11L26.857422 11L26.519531 10.212891C26.204531 9.4778906 25.481641 9 24.681641 9L20 9 z M 7.5 21C8.3402718 21 9 21.659728 9 22.5C9 23.340272 8.3402718 24 7.5 24C6.6597282 24 6 23.340272 6 22.5C6 21.659728 6.6597282 21 7.5 21 z M 23.5 21C24.340272 21 25 21.659728 25 22.5C25 23.340272 24.340272 24 23.5 24C22.659728 24 22 23.340272 22 22.5C22 21.659728 22.659728 21 23.5 21 z"/></svg>