<svg xmlns="http://www.w3.org/2000/svg" xmlns:xlink="http://www.w3.org/1999/xlink" viewBox="0 0 50 50"><path d="M43.90625 1.96875C43.875 1.976563 43.84375 1.988281 43.8125 2L40 2C39.730469 2 39.46875 2.121094 39.28125 2.3125L25.21875 16.59375L26.4375 18.15625L30.21875 14.34375L30.90625 20.875L29.8125 22.5L30.9375 23.96875C30.988281 24.035156 31.046875 24.089844 31.09375 24.15625L43 6.3125L43 28.28125C42.402344 28.628906 42 29.261719 42 30C42 30.738281 42.402344 31.371094 43 31.71875L43 32.96875C43 33.90625 43.609375 34.789063 44.5625 35.0625C45.503906 35.332031 46.164063 36.265625 45.96875 37.375C45.832031 38.148438 45.152344 38.832031 44.375 38.96875C43.0625 39.199219 42 38.238281 42 37C42.003906 36.640625 41.816406 36.304688 41.503906 36.121094C41.191406 35.941406 40.808594 35.941406 40.496094 36.121094C40.183594 36.304688 39.996094 36.640625 40 37C40 39.433594 42.238281 41.371094 44.71875 40.9375C46.355469 40.648438 47.652344 39.355469 47.9375 37.71875C48.304688 35.625 46.992188 33.695313 45.09375 33.15625C45.054688 33.144531 45 33.0625 45 32.96875L45 31.71875C45.597656 31.371094 46 30.738281 46 30C46 29.261719 45.597656 28.628906 45 28.28125L45 3.0625C45.003906 3.015625 45.003906 2.953125 45 2.90625C44.976563 2.683594 44.875 2.472656 44.71875 2.3125C44.515625 2.078125 44.214844 1.953125 43.90625 1.96875 Z M 40.40625 4L42.125 4L38.71875 9.125L38.4375 5.96875 Z M 36.59375 7.875L36.84375 10.9375L33.34375 11.15625 Z M 36.15625 12.96875L32.625 18.25L32.09375 13.25 Z M 8 16C6.355469 16 5 17.355469 5 19L5 31C5 32.644531 6.355469 34 8 34L11 34L11 36L8 36C4.699219 36 2 38.699219 2 42C2 45.300781 4.699219 48 8 48L30 48C33.300781 48 36 45.300781 36 42C36 38.699219 33.300781 36 30 36L27 36L27 34L28 34C29.644531 34 31 32.644531 31 31L31 27.03125C31 26.140625 30.703125 25.265625 30.15625 24.5625L24.375 17.15625C23.808594 16.425781 22.957031 16 22.03125 16 Z M 8 18L16.25 18L19.03125 28.25L19.25 29L29 29L29 31C29 31.566406 28.566406 32 28 32L8 32C7.433594 32 7 31.566406 7 31L7 19C7 18.433594 7.433594 18 8 18 Z M 18.3125 18L22.03125 18C22.339844 18 22.621094 18.132813 22.8125 18.375L28.59375 25.8125C28.859375 26.15625 28.992188 26.566406 29 27L20.75 27 Z M 13 34L25 34L25 36L13 36 Z M 8 38L30 38C32.21875 38 34 39.78125 34 42C34 44.21875 32.21875 46 30 46L8 46C5.78125 46 4 44.21875 4 42C4 39.78125 5.78125 38 8 38 Z M 8 40C6.894531 40 6 40.894531 6 42C6 43.105469 6.894531 44 8 44C9.105469 44 10 43.105469 10 42C10 40.894531 9.105469 40 8 40 Z M 14 40C12.894531 40 12 40.894531 12 42C12 43.105469 12.894531 44 14 44C15.105469 44 16 43.105469 16 42C16 40.894531 15.105469 40 14 40 Z M 24 40C22.894531 40 22 40.894531 22 42C22 43.105469 22.894531 44 24 44C25.105469 44 26 43.105469 26 42C26 40.894531 25.105469 40 24 40 Z M 30 40C28.894531 40 28 40.894531 28 42C28 43.105469 28.894531 44 30 44C31.105469 44 32 43.105469 32 42C32 40.894531 31.105469 40 30 40Z"/></svg>