<svg xmlns="http://www.w3.org/2000/svg" xmlns:xlink="http://www.w3.org/1999/xlink" viewBox="0 0 50 50"><path d="M35.5 4C34.121094 4 33 5.121094 33 6.5C33 6.84375 33.0625 7.167969 33.1875 7.46875L26.03125 12.9375L27.25 14.53125L34.6875 8.84375C34.945313 8.933594 35.210938 9 35.5 9C36.878906 9 38 7.878906 38 6.5C38 5.121094 36.878906 4 35.5 4 Z M 39.125 9.15625C38.71875 9.707031 38.175781 10.148438 37.5625 10.46875L44.09375 21.84375C44.035156 22.054688 44 22.269531 44 22.5C44 23.878906 45.121094 25 46.5 25C47.878906 25 49 23.878906 49 22.5C49 21.121094 47.878906 20 46.5 20C46.140625 20 45.808594 20.082031 45.5 20.21875 Z M 16 12C14.898438 12 14 12.898438 14 14L14 20L8 20C6.347656 20 5 21.347656 5 23L5 28C5 29.652344 6.347656 31 8 31L11 31L11 33L8 33C4.691406 33 2 35.691406 2 39C2 42.308594 4.691406 45 8 45L28 45C31.308594 45 34 42.308594 34 39C34 35.691406 31.308594 33 28 33L25 33L25 31L28 31C29.652344 31 31 29.652344 31 28L31 23C30.992188 22.125 30.691406 21.253906 30.15625 20.5625L24.40625 13.15625C23.839844 12.433594 22.949219 12 22.03125 12 Z M 16 14L22.03125 14C22.339844 14 22.625 14.132813 22.8125 14.375L28.59375 21.8125C28.859375 22.15625 28.992188 22.566406 29 23L17.53125 23L16 20.6875 Z M 42.78125 25.03125L36 34L45 34C46.652344 34 48 32.652344 48 31L48 26.71875C47.527344 26.886719 47.027344 27 46.5 27C44.953125 27 43.589844 26.21875 42.78125 25.03125 Z M 13 31L23 31L23 33L13 33 Z M 8 37C9.105469 37 10 37.894531 10 39C10 40.105469 9.105469 41 8 41C6.894531 41 6 40.105469 6 39C6 37.894531 6.894531 37 8 37 Z M 14 37C15.105469 37 16 37.894531 16 39C16 40.105469 15.105469 41 14 41C12.894531 41 12 40.105469 12 39C12 37.894531 12.894531 37 14 37 Z M 22 37C23.105469 37 24 37.894531 24 39C24 40.105469 23.105469 41 22 41C20.894531 41 20 40.105469 20 39C20 37.894531 20.894531 37 22 37 Z M 28 37C29.105469 37 30 37.894531 30 39C30 40.105469 29.105469 41 28 41C26.894531 41 26 40.105469 26 39C26 37.894531 26.894531 37 28 37Z"/></svg>