<svg xmlns="http://www.w3.org/2000/svg" xmlns:xlink="http://www.w3.org/1999/xlink" viewBox="0 0 30 30"><path d="M16.857422 6C13.327032 6 9.5136695 7.018945 6.5 8.4492188C6.2591782 8.5635117 6.0328179 8.683435 5.8027344 8.8027344L4.5859375 7.5859375C4.2109375 7.2109375 3.701875 7 3.171875 7L1 7L2.3984375 11.193359C1.5863037 12.013802 1 12.926164 1 14C1 15.073836 1.5863037 15.986198 2.3984375 16.806641L1 21L3.171875 21C3.701875 21 4.2109375 20.789062 4.5859375 20.414062L5.8027344 19.197266C6.0328179 19.316565 6.2591782 19.436488 6.5 19.550781C7.6983904 20.119532 9.0249843 20.619071 10.408203 21.019531L11.496094 23.742188C11.800094 24.501188 12.535516 25 13.353516 25L18 25C19.105 25 20 24.105 20 23L20 21.699219C22.168298 21.286157 24.040183 20.474217 25.503906 19.443359C27.635791 17.941936 29 15.997333 29 14C29 12.002667 27.635791 10.058064 25.503906 8.5566406C23.372021 7.0552169 20.390912 6 16.857422 6 z M 16.857422 8C19.990932 8 22.580651 8.9447835 24.353516 10.193359C25.696006 11.138837 26.521419 12.259476 26.84375 13.183594C25.343593 12.295007 22.276393 11 17 11C10.846649 11 5.3647722 12.747019 3.125 13.566406C3.2710537 13.235197 3.5560851 12.814254 4.0605469 12.351562C4.8251964 11.650229 5.9833816 10.907973 7.3574219 10.255859C10.105502 8.9516334 13.720812 8 16.857422 8 z M 3.125 14.433594C5.3647722 15.252981 10.846649 17 17 17C22.276393 17 25.343593 15.704993 26.84375 14.816406C26.521419 15.740524 25.696006 16.861163 24.353516 17.806641C22.580651 19.055217 19.990932 20 16.857422 20C13.720812 20 10.105502 19.048367 7.3574219 17.744141C5.9833816 17.092027 4.8251964 16.349772 4.0605469 15.648438C3.5560851 15.185746 3.2710537 14.764803 3.125 14.433594 z"/></svg>