<svg xmlns="http://www.w3.org/2000/svg" xmlns:xlink="http://www.w3.org/1999/xlink" viewBox="0 0 50 50"><path d="M32 7 A 1.0001 1.0001 0 0 0 31.046875 7.6992188L29.373047 13L1 13 A 1.0001 1.0001 0 0 0 0 14L0 25 A 1.0001 1.0001 0 0 0 0.796875 25.978516L10 27.896484L10 31.144531C7.6304493 32.36261 6 34.829483 6 37.667969C6 41.706027 9.2939699 45 13.332031 45C17.258085 45 20.474528 41.884009 20.650391 38L31.015625 38C31.191385 41.884009 34.405978 45 38.332031 45C42.258085 45 45.474528 41.884009 45.650391 38L49 38 A 1.0001 1.0001 0 0 0 50 37L50 28L50 25L50 21 A 1.0001 1.0001 0 0 0 49 20L42.720703 20L40.949219 14.683594 A 1.0001 1.0001 0 0 0 40 14L34 14 A 1.0001 1.0001 0 0 0 33 15L33 21L33 26L27.363281 26L32.732422 9L42 9 A 1.0001 1.0001 0 1 0 42 7L32 7 z M 2 15L28.638672 15L24.316406 28.835938L2 24.1875L2 15 z M 35 16L39.279297 16L40.611328 20L35 20L35 16 z M 5 18 A 1.0001 1.0001 0 1 0 5 20L24 20 A 1.0001 1.0001 0 1 0 24 18L5 18 z M 11 22 A 1.0001 1.0001 0 1 0 11 24L23 24 A 1.0001 1.0001 0 1 0 23 22L11 22 z M 35 22L42 22L48 22L48 25L48 28L48 36L45.466797 36C44.706943 32.761612 41.795801 30.333984 38.332031 30.333984C34.868263 30.333984 31.958664 32.761612 31.199219 36L20.466797 36C19.706943 32.761612 16.795801 30.333984 13.332031 30.333984C12.87676 30.333984 12.4327 30.382759 12 30.462891L12 28.3125L24.796875 30.978516 A 1.0001 1.0001 0 0 0 25.955078 30.298828L26.673828 28L29.417969 28L27.65625 32.978516 A 1.0001 1.0001 0 1 0 29.541016 33.646484L31.539062 28L34 28L45 28 A 1.0001 1.0001 0 1 0 45 26L35 26L35 22 z M 13.332031 32.333984C16.289213 32.333984 18.666016 34.710789 18.666016 37.667969C18.666016 40.625149 16.289213 43 13.332031 43C10.374849 43 8 40.625149 8 37.667969C8 34.710789 10.374849 32.333984 13.332031 32.333984 z M 38.332031 32.333984C41.289213 32.333984 43.666016 34.710789 43.666016 37.667969C43.666016 40.625149 41.289213 43 38.332031 43C35.374849 43 33 40.625149 33 37.667969C33 34.710789 35.374849 32.333984 38.332031 32.333984 z M 13.332031 35 A 2.667 2.667 0 0 0 13.332031 40.333984 A 2.667 2.667 0 0 0 13.332031 35 z M 38.332031 35 A 2.667 2.667 0 0 0 38.332031 40.333984 A 2.667 2.667 0 0 0 38.332031 35 z"/></svg>