<svg xmlns="http://www.w3.org/2000/svg" xmlns:xlink="http://www.w3.org/1999/xlink" viewBox="0 0 50 50"><path d="M8.21875 4C7.738281 4.003906 7.25 4.0625 6.757813 4.1875C6.496094 4.253906 6.269531 4.421875 6.132813 4.65625C6 4.890625 5.964844 5.167969 6.039063 5.429688L12.445313 28.269531C12.566406 28.703125 12.960938 29 13.40625 29L31.273438 29C31.621094 29 31.945313 28.820313 32.125 28.519531C32.308594 28.222656 32.320313 27.851563 32.160156 27.542969C31.285156 25.847656 29.0625 23 24 23C21.242188 23 19.265625 23.328125 18.046875 23.625C18.082031 22.457031 18.023438 21.234375 17.921875 20L27 20C27.550781 20 28 19.550781 28 19C28 18.449219 27.550781 18 27 18L25 18L25 17C25 16.449219 24.550781 16 24 16C23.449219 16 23 16.449219 23 17L23 18L17.714844 18C16.996094 12.972656 15.167969 8.027344 12.289063 5.578125C11.050781 4.527344 9.667969 3.992188 8.21875 4 Z M 15 31C12.28125 31 9.855469 32.5625 8.695313 35C7.074219 36.078125 6 37.917969 6 40C6 43.300781 8.699219 46 12 46C14.960938 46 17.429688 43.828125 17.90625 41L28.09375 41C28.570313 43.828125 31.039063 46 34 46C37.300781 46 40 43.300781 40 40C40 39.425781 39.914063 38.875 39.761719 38.347656L45.25 36.96875C45.78125 36.832031 46.105469 36.285156 45.96875 35.75C45.832031 35.21875 45.285156 34.894531 44.753906 35.03125L38.882813 36.53125C38.453125 35.929688 37.921875 35.410156 37.304688 35C36.144531 32.5625 33.722656 31 31 31 Z M 12 36C14.207031 36 16 37.792969 16 40C16 42.222656 14.222656 44 12 44C9.777344 44 8 42.222656 8 40C8 38.652344 8.660156 37.476563 9.671875 36.753906L9.960938 36.578125C10.238281 36.414063 10.519531 36.292969 10.808594 36.199219C10.882813 36.175781 10.957031 36.148438 11.035156 36.128906C11.136719 36.101563 11.238281 36.085938 11.339844 36.066406C11.554688 36.03125 11.773438 36 12 36 Z M 34 36C34.226563 36 34.445313 36.03125 34.660156 36.066406C34.761719 36.085938 34.863281 36.101563 34.964844 36.128906C35.042969 36.148438 35.117188 36.175781 35.191406 36.199219C35.480469 36.292969 35.761719 36.414063 36.035156 36.578125L36.332031 36.753906C37.339844 37.476563 38 38.652344 38 40C38 42.222656 36.222656 44 34 44C31.777344 44 30 42.222656 30 40C30 37.792969 31.792969 36 34 36 Z M 12 39C11.449219 39 11 39.449219 11 40C11 40.550781 11.449219 41 12 41C12.550781 41 13 40.550781 13 40C13 39.449219 12.550781 39 12 39 Z M 34 39C33.449219 39 33 39.449219 33 40C33 40.550781 33.449219 41 34 41C34.550781 41 35 40.550781 35 40C35 39.449219 34.550781 39 34 39Z"/></svg>