<svg xmlns="http://www.w3.org/2000/svg" xmlns:xlink="http://www.w3.org/1999/xlink" viewBox="0 0 50 50"><path d="M38.800781 4C38.018781 4 37.269359 4.3175781 36.693359 4.8925781L33.59375 7.9921875C33.19475 8.3901875 33 8.8513906 33 9.4003906L33 10L13 10C5.8545455 10 0 15.854545 0 23L0 34C0 35.645455 1.3545455 37 3 37L4 37L4 39C4 40.654 5.346 42 7 42L8.2148438 42C8.8723801 44.301307 10.994575 46 13.5 46C16.357053 46 18.719773 43.793358 18.974609 41L34.025391 41C34.280227 43.793358 36.642947 46 39.5 46C42.005425 46 44.12762 44.301307 44.785156 42L47 42C48.654 42 50 40.654 50 39L50 34.173828C50 31.964828 48.418281 30.097375 46.238281 29.734375L38.589844 28.103516L35.009766 23.09375C34.072341 21.780105 32.554637 21 30.941406 21L17.544922 21C16.25394 21 15.03917 21.623946 14.289062 22.673828L10.412109 28.101562L7.796875 28.646484C5.454875 29.134484 4 30.942187 4 33.367188L4 35L3 35C2.4454545 35 2 34.554545 2 34L2 23C2 16.945455 6.9454545 12 13 12L33 12L33 12.599609C33 13.148609 33.19475 13.608813 33.59375 14.007812L36.691406 17.107422C37.268406 17.683422 38.018781 18 38.800781 18L43 18C44.159 18 45 17.159 45 16L50 16L50 14L45 14L45 8L50 8L50 6L45 6C45 4.841 44.159 4 43 4L38.800781 4 z M 17.544922 23L23 23L23 28L12.943359 28L15.916016 23.837891C16.29191 23.311772 16.897903 23 17.544922 23 z M 25 23L30.941406 23C31.910175 23 32.820238 23.467504 33.382812 24.255859L36.056641 28L25 28L25 23 z M 13.5 37C15.444841 37 17 38.555159 17 40.5C17 42.444841 15.444841 44 13.5 44C11.555159 44 10 42.444841 10 40.5C10 38.555159 11.555159 37 13.5 37 z M 39.5 37C41.444841 37 43 38.555159 43 40.5C43 42.444841 41.444841 44 39.5 44C37.555159 44 36 42.444841 36 40.5C36 38.555159 37.555159 37 39.5 37 z"/></svg>