<svg xmlns="http://www.w3.org/2000/svg" xmlns:xlink="http://www.w3.org/1999/xlink" viewBox="0 0 30 30"><path d="M1 9 A 1 1 0 0 0 0 10 A 1 1 0 0 0 0.0546875 10.324219L0.06640625 10.359375 A 1 1 0 0 0 0.068359375 10.365234L1 13L1 17 A 1 1 0 0 0 1.3027344 17.714844L1.3027344 17.716797L1.3203125 17.732422 A 1 1 0 0 0 1.3710938 17.777344L3.109375 19.322266C3.4845211 20.849615 4.863228 22 6.5 22C7.4442457 22 8.3035013 21.615993 8.9355469 21L15 21L21.064453 21C21.696499 21.615993 22.555754 22 23.5 22C24.444246 22 25.303501 21.615993 25.935547 21L27 21 A 1 1 0 0 0 27.710938 20.703125L29.697266 18.716797 A 1 1 0 0 0 29.720703 18.693359L29.720703 18.691406 A 1 1 0 0 0 30 18 A 1 1 0 0 0 29.367188 17.070312C28.575364 16.686866 27.360565 16.319879 25.9375 16.001953C25.305275 15.384832 24.445227 15 23.5 15C22.975667 15 22.481401 15.125864 22.033203 15.335938C20.352604 15.127354 18.610562 15 17 15L15 15L15 13 A 1 1 0 0 0 14 12 A 1 1 0 0 0 13.929688 12.001953C9.953385 12.013595 6 13 6 13L6 10 A 1 1 0 0 0 5 9L1 9 z M 6.5 17C7.3402718 17 8 17.659728 8 18.5C8 19.340272 7.3402718 20 6.5 20C5.6597282 20 5 19.340272 5 18.5C5 17.659728 5.6597282 17 6.5 17 z M 23.5 17C24.340272 17 25 17.659728 25 18.5C25 19.340272 24.340272 20 23.5 20C22.659728 20 22 19.340272 22 18.5C22 17.659728 22.659728 17 23.5 17 z"/></svg>