<svg xmlns="http://www.w3.org/2000/svg" xmlns:xlink="http://www.w3.org/1999/xlink" viewBox="0 0 50 50"><path d="M36.90625 3C36.796875 3.015625 36.691406 3.046875 36.59375 3.09375L1.90625 18.5C1.609375 18.621094 1.390625 18.875 1.3125 19.1875L0.03125 24.78125C-0.046875 25.148438 0.0859375 25.527344 0.375 25.761719C0.664063 26 1.0625 26.054688 1.40625 25.90625L6 23.875L6 26L14 26L14 20.3125L42.40625 7.71875C42.75 7.566406 42.980469 7.234375 43 6.855469C43.019531 6.480469 42.828125 6.125 42.5 5.9375L37.5 3.125C37.320313 3.023438 37.113281 2.980469 36.90625 3 Z M 37.0625 5.1875L39.75 6.6875L35.78125 8.4375 Z M 35.8125 5.625L34.46875 9.03125L33.90625 9.28125L30.5625 7.96875 Z M 29.3125 8.5L32.625 9.84375L27.34375 12.1875L28.6875 8.78125 Z M 27.40625 9.34375L26.09375 12.75L25.53125 13L22.125 11.6875 Z M 20.84375 12.28125L24.25 13.59375L18.9375 15.9375L20.3125 12.5 Z M 19.0625 13.0625L17.6875 16.5L17.15625 16.71875L13.75 15.4375 Z M 12.4375 16L15.875 17.3125L10.5625 19.65625L11.84375 16.28125 Z M 10.53125 16.84375L9.28125 20.25L8.71875 20.5L5.3125 19.15625 Z M 25 17C23.347656 17 22 18.347656 22 20L22 28L3 28C1.347656 28 0 29.347656 0 31L0 39C0 40.652344 1.347656 42 3 42L7.09375 42C7.570313 44.835938 10.035156 47 13 47C15.964844 47 18.429688 44.835938 18.90625 42L33.09375 42C33.570313 44.835938 36.035156 47 39 47C41.964844 47 44.429688 44.835938 44.90625 42L47 42C48.652344 42 50 40.652344 50 39L50 30.09375C50 29.882813 49.988281 29.714844 49.96875 29.53125C49.957031 29.4375 49.953125 29.339844 49.9375 29.25C49.894531 28.996094 49.832031 28.761719 49.78125 28.5625L49.75 28.5L49.75 28.46875L46.9375 20.375L46.9375 20.34375C46.753906 19.851563 46.496094 19.402344 46.1875 19C46.183594 18.992188 46.191406 18.976563 46.1875 18.96875C45.875 18.566406 45.5 18.226563 45.09375 17.9375C45.085938 17.933594 45.070313 17.941406 45.0625 17.9375C44.863281 17.796875 44.65625 17.640625 44.4375 17.53125C44.429688 17.527344 44.414063 17.535156 44.40625 17.53125C43.726563 17.1875 42.96875 17 42.1875 17 Z M 4.03125 19.71875L7.40625 21.0625L6.625 21.375C6.53125 21.414063 6.453125 21.46875 6.375 21.53125L2.4375 23.28125L3.15625 20.125 Z M 28 22L34 22C34.601563 22 35 22.398438 35 23L35 28C35 28.601563 34.601563 29 34 29L28 29C27.398438 29 27 28.601563 27 28L27 23C27 22.398438 27.398438 22 28 22 Z M 40 22L45.375 22L47.8125 29L40 29C39.398438 29 39 28.601563 39 28L39 23C39 22.398438 39.398438 22 40 22 Z M 13 37C15.222656 37 17 38.777344 17 41C17 43.222656 15.222656 45 13 45C10.777344 45 9 43.222656 9 41C9 38.777344 10.777344 37 13 37 Z M 39 37C41.222656 37 43 38.777344 43 41C43 43.222656 41.222656 45 39 45C36.777344 45 35 43.222656 35 41C35 38.777344 36.777344 37 39 37Z"/></svg>