<svg xmlns="http://www.w3.org/2000/svg" xmlns:xlink="http://www.w3.org/1999/xlink" viewBox="0 0 30 30"><path d="M3 7C1.895 7 1 7.895 1 9L1 21 A 1.0001 1.0001 0 1 0 1 23L3 23L3.0507812 23C3.2981763 24.685411 4.7500663 26 6.5 26C8.2499335 26 9.7018235 24.685411 9.9492188 23L21.050781 23C21.298177 24.685411 22.750067 26 24.5 26C26.249936 26 27.701837 24.685418 27.949219 23L29 23 A 1.0001 1.0001 0 1 0 29 21L29 16C29 14.895 28.105 14 27 14L22 14C21.448 14 21 13.552 21 13L21 10C21 9.448 21.448 9 22 9L24.857422 9L24.519531 8.2128906C24.204531 7.4778906 23.481641 7 22.681641 7L3 7 z M 5 9.5 A 1.5 1.5 0 0 0 6.5 11 A 1.5 1.5 0 0 0 8 9.5 A 1.5 1.5 0 0 0 9.5 11 A 1.5 1.5 0 0 0 11 9.5 A 1.5 1.5 0 0 0 12.5 11 A 1.5 1.5 0 0 0 14 9.5 A 1.5 1.5 0 0 0 15.5 11 A 1.5 1.5 0 0 0 17 9.5 A 1.5 1.5 0 0 0 18.5 11 A 1.5 1.5 0 0 0 19 10.912109L19 15C19 15.552 18.552 16 18 16L4 16C3.448 16 3 15.552 3 15L3 10.912109 A 1.5 1.5 0 0 0 3.5 11 A 1.5 1.5 0 0 0 5 9.5 z M 6.5 21C7.3402718 21 8 21.659728 8 22.5C8 23.340272 7.3402718 24 6.5 24C5.6597282 24 5 23.340272 5 22.5C5 21.659728 5.6597282 21 6.5 21 z M 24.5 21C25.340272 21 26 21.659728 26 22.5C26 23.340272 25.340272 24 24.5 24C23.659728 24 23 23.340272 23 22.5C23 21.659728 23.659728 21 24.5 21 z"/></svg>