<svg xmlns="http://www.w3.org/2000/svg" xmlns:xlink="http://www.w3.org/1999/xlink" viewBox="0 0 50 50"><path d="M26.90625 1.96875C26.863281 1.976563 26.820313 1.988281 26.78125 2C26.503906 2.058594 26.265625 2.230469 26.121094 2.472656C25.980469 2.71875 25.945313 3.011719 26.03125 3.28125L38.03125 42.28125C38.183594 42.773438 38.683594 43.070313 39.1875 42.96875L49.1875 40.96875C49.582031 40.957031 49.9375 40.714844 50.085938 40.347656C50.234375 39.980469 50.15625 39.558594 49.878906 39.273438C49.601563 38.988281 49.183594 38.894531 48.8125 39.03125L39.6875 40.84375L27.96875 2.71875C27.847656 2.242188 27.398438 1.921875 26.90625 1.96875 Z M 5 9C4.457031 9 4 9.457031 4 10L4 21.96875L15.1875 21.96875C17.726563 21.96875 19.238281 23.746094 20.15625 24.84375L21.09375 25.78125L26.3125 25.78125L20.9375 9.6875C20.804688 9.285156 20.425781 9 20 9 Z M 2.875 23.96875C1.273438 23.96875 -0.03125 25.292969 -0.03125 26.90625L-0.03125 42.40625C-0.03125 43.128906 0.246094 43.828125 0.75 44.375C0.777344 44.402344 0.898438 44.414063 1.03125 44.4375C1.261719 47.539063 3.84375 50 7 50C9.960938 50 12.417969 47.851563 12.90625 45.03125L18.96875 45.03125C20.449219 47.976563 23.484375 50 27 50C31.964844 50 36 45.964844 36 41C36 37.484375 33.976563 34.449219 31.03125 32.96875L31.03125 30.6875C31.03125 29.074219 29.726563 27.78125 28.125 27.78125L20.25 27.78125L18.65625 26.1875C17.835938 25.207031 16.84375 23.96875 15.1875 23.96875 Z M 27 34C30.859375 34 34 37.140625 34 41C34 44.859375 30.859375 48 27 48C23.140625 48 20 44.859375 20 41C20 37.140625 23.140625 34 27 34 Z M 7 40C9.207031 40 11 41.792969 11 44C11 46.207031 9.207031 48 7 48C4.792969 48 3 46.207031 3 44C3 41.792969 4.792969 40 7 40Z"/></svg>