<svg xmlns="http://www.w3.org/2000/svg" xmlns:xlink="http://www.w3.org/1999/xlink" viewBox="0 0 50 50"><path d="M23 7C14.523438 7 8.8125 8 8.8125 8C8.261719 8.101563 7.894531 8.636719 8 9.1875C8.101563 9.738281 8.636719 10.105469 9.1875 10C9.1875 10 9.945313 9.890625 11 9.75L11 18L6 18L6 20L11 20L11 25.21875C9.96875 25.117188 8.945313 25.0625 7.96875 25.09375C6.492188 25.140625 5.179688 25.371094 4.28125 26.3125C3.199219 27.445313 2.683594 29.058594 2.375 30.78125C2.066406 32.503906 2 34.355469 2 36C2 36.550781 2.449219 37 3 37L4.09375 37C4.027344 37.324219 4 37.65625 4 38C4 40.75 6.25 43 9 43C11.40625 43 13.4375 41.273438 13.90625 39L38.09375 39C38.5625 41.273438 40.59375 43 43 43C45.75 43 48 40.75 48 38C48 37.785156 47.964844 37.582031 47.9375 37.375C47.980469 37.253906 48.003906 37.128906 48 37L48 31C48 30.914063 47.988281 30.832031 47.96875 30.75C47.40625 28.503906 45.164063 27.042969 43.1875 25.90625C41.542969 24.964844 40.230469 24.410156 39.75 24.21875L33.3125 9.53125C35.503906 9.769531 36.8125 10 36.8125 10C37.363281 10.105469 37.898438 9.738281 38 9.1875C38.105469 8.636719 37.738281 8.101563 37.1875 8C37.1875 8 31.476563 7 23 7 Z M 23 9C26.136719 9 28.871094 9.136719 31.0625 9.3125C31.070313 9.34375 31.082031 9.375 31.09375 9.40625L37.90625 25L37.46875 26L30.4375 19L31.71875 17.71875C32.042969 17.417969 32.128906 16.941406 31.933594 16.546875C31.742188 16.148438 31.308594 15.929688 30.875 16C30.652344 16.023438 30.441406 16.125 30.28125 16.28125L28.5 18.09375C28.316406 18.179688 28.164063 18.324219 28.0625 18.5L26.28125 20.28125C25.882813 20.679688 25.882813 21.320313 26.28125 21.71875C26.679688 22.117188 27.320313 22.117188 27.71875 21.71875L29 20.4375L36.59375 27.96875L34.34375 33L26 33L26 31.28125C26 30.0625 25.128906 29.113281 24.125 28.71875C22.207031 27.96875 20.101563 27.242188 17.9375 26.625C17.890625 26.46875 16.847656 23.078125 15.9375 20.65625C15.316406 19.003906 13.957031 18.363281 13 18.125L13 9.5C15.410156 9.25 18.855469 9 23 9 Z M 13 20.28125C13.394531 20.460938 13.820313 20.699219 14.0625 21.34375C14.679688 22.980469 15.25 24.792969 15.625 26C14.746094 25.792969 13.871094 25.644531 13 25.5 Z M 39.5 26.34375C40.058594 26.570313 40.804688 26.832031 42.1875 27.625C43.984375 28.65625 45.710938 30.175781 46 31.21875L46 34.03125C45.160156 33.390625 44.132813 33 43 33C40.59375 33 38.5625 34.726563 38.09375 37L13.90625 37C13.4375 34.726563 11.40625 33 9 33C7.375 33 5.914063 33.789063 5 35L4.0625 35C4.09375 33.699219 4.125 32.34375 4.34375 31.125C4.617188 29.59375 5.117188 28.316406 5.71875 27.6875C5.96875 27.425781 6.789063 27.132813 8.03125 27.09375C12.601563 26.953125 18.636719 28.695313 23.40625 30.5625C23.816406 30.722656 24 30.984375 24 31.28125L24 34C24 34.550781 24.449219 35 25 35L35 35C35.390625 34.996094 35.746094 34.765625 35.90625 34.40625 Z M 9 35C10.667969 35 12 36.332031 12 38C12 39.667969 10.667969 41 9 41C7.332031 41 6 39.667969 6 38C6 36.332031 7.332031 35 9 35 Z M 43 35C44.667969 35 46 36.332031 46 38C46 39.667969 44.667969 41 43 41C41.332031 41 40 39.667969 40 38C40 36.332031 41.332031 35 43 35Z"/></svg>