<svg xmlns="http://www.w3.org/2000/svg" xmlns:xlink="http://www.w3.org/1999/xlink" viewBox="0 0 50 50"><path d="M1 9L1 11L2 11C4.1094514 11 7.7811968 10.986092 12.166016 11.685547C12.280419 11.738565 12.429147 11.836605 12.679688 12.095703C13.069649 12.49899 13.568397 13.162076 14.205078 13.921875C15.47844 15.441472 17.361836 17.353761 20.517578 18.558594C26.959374 21.018188 34.876501 21.808035 36.34375 21.939453C36.763133 22.207943 37.235672 22.494177 37.617188 22.748047C41.068322 25.044524 42.864698 26.617261 43.380859 27.027344C45.067701 28.365352 45.98319 29.360845 46.453125 30.113281C46.92306 30.865718 46.998297 31.353058 47 32.001953C47.0018 32.651032 46.669922 33.228297 45.560547 33.822266C44.451172 34.416234 42.608228 34.881472 40.078125 35.001953C39.923429 35.009115 38.37124 35 38 35L30 35 A 1.0001 1.0001 0 1 0 30 37L37.585938 37L39.585938 39L28.404297 39C27.901385 38.359818 25.162876 35 21 35L1 35L1 37L3.1015625 37C3.5684515 39.274577 5.5928465 41 8 41C10.407153 41 12.431548 39.274577 12.898438 37L15.101562 37C15.568452 39.274577 17.592847 41 20 41C21.954823 41 23.642709 39.860096 24.462891 38.212891C26.073543 39.263757 27.212891 40.615234 27.212891 40.615234 A 1.0001 1.0001 0 0 0 28 41L42 41 A 1.0001 1.0001 0 0 0 42.707031 39.292969L40.384766 36.970703C42.989026 36.825416 45.033376 36.372364 46.505859 35.583984C48.022985 34.771703 49.004167 33.473968 49 31.998047C48.997703 31.122942 48.809956 30.108798 48.150391 29.052734C47.490825 27.996671 46.410158 26.87693 44.625 25.460938C44.343161 25.23702 42.262975 23.436554 38.724609 21.082031C38.230514 20.753247 37.633278 20.386899 37.078125 20.035156L37.080078 20.003906C37.080078 20.003906 37.021291 19.998196 37.019531 19.998047C33.605495 17.838809 29.116803 15.313586 23.398438 12.832031C19.635173 11.198909 15.979607 10.282505 12.701172 9.7441406C12.481703 9.6724012 12.251095 9.625 12 9.625L12 9.6367188C7.6301618 8.982366 4.0124411 9 2 9L1 9 z M 15.486328 12.328125C17.762479 12.864184 20.161782 13.60919 22.601562 14.667969C26.247214 16.250044 29.359892 17.848401 32.042969 19.359375C28.85337 18.855522 24.709849 18.019151 21.232422 16.691406C18.479164 15.640239 16.92517 14.053121 15.738281 12.636719C15.648472 12.529543 15.571823 12.433088 15.486328 12.328125 z M 1 19L1 21L4 21C4.3355896 21 4.6665604 21.011651 5 21.017578L5 25.017578C4.66591 25.014706 4.3337942 25 4 25L1 25L1 27L4 27C15.888889 27 28.847656 28.988281 28.847656 28.988281 A 1.0001 1.0001 0 0 0 29.765625 28.644531L31.765625 26.269531 A 1.0001 1.0001 0 0 0 31.402344 24.708984C27.412236 22.952223 16.340643 19 4 19L1 19 z M 7 21.087891C9.4249565 21.213867 11.776551 21.4752 14 21.833984L14 25.384766C11.751331 25.228215 9.4039859 25.111405 7 25.052734L7 21.087891 z M 16 22.191406C18.095453 22.591247 20.048017 23.05964 21.826172 23.548828L21.398438 26.044922C19.737612 25.864674 18.018991 25.691755 16 25.529297L16 22.191406 z M 23.759766 24.115234C26.03041 24.806476 27.961119 25.496826 29.330078 26.052734L28.583984 26.941406C28.264643 26.892971 26.131412 26.601995 23.388672 26.275391L23.759766 24.115234 z M 5.1816406 37L10.818359 37C10.408769 38.167075 9.3148489 39 8 39C6.6851511 39 5.5912309 38.167075 5.1816406 37 z M 17.181641 37L21 37C21.573787 37 22.140861 37.120307 22.6875 37.3125C22.202273 38.307752 21.192689 39 20 39C18.685151 39 17.591231 38.167075 17.181641 37 z"/></svg>