<svg xmlns="http://www.w3.org/2000/svg" xmlns:xlink="http://www.w3.org/1999/xlink" viewBox="0 0 50 50"><path d="M1 9L1 20L4 20C4.3347834 20 4.6665129 20.0136 5 20.019531L5 26.017578C4.6673942 26.014536 4.3308054 26 4 26L1 26L1 37L3.1015625 37C3.5684515 39.274577 5.5928465 41 8 41C10.407153 41 12.431549 39.274577 12.898438 37L15.101562 37C15.568451 39.274577 17.592847 41 20 41C21.969352 41 23.667454 39.842931 24.480469 38.175781C26.098201 39.223369 27.195611 40.594971 27.212891 40.617188C27.401891 40.858187 27.693 41 28 41L42 41C42.404 41 42.768828 40.756813 42.923828 40.382812C43.078828 40.008813 42.993031 39.578969 42.707031 39.292969L40.414062 37L30 37C29.448 37 29 36.553 29 36C29 35.447 29.448 35 30 35L38.414062 35L40.414062 37C47.977063 36.578 49.004047 33.399828 48.998047 32.048828C48.988047 29.855828 47.917 28.071938 44.625 25.460938L44.402344 25.279297C38.844344 20.688297 31.582438 16.382031 23.398438 12.832031C15.258437 9.2990312 7.6370469 9.0229531 3.3730469 9.0019531C2.9970469 8.9999531 2.6471719 9 2.3261719 9L1 9 z M 13.908203 11.980469C16.634203 12.522469 19.584563 13.358969 22.601562 14.667969C26.761563 16.473969 30.741187 18.528937 34.367188 20.710938C31.123188 20.295938 25.474 19.381 20.875 17.625C16.965 16.132 15.221203 13.556469 13.908203 11.980469 z M 7 20.087891C9.405667 20.212226 11.756589 20.47084 14 20.824219L14 26.398438C11.724558 26.236634 9.3745388 26.113862 7 26.052734L7 20.087891 z M 16 21.166016C18.155144 21.565213 20.145687 22.040833 22 22.535156L21.228516 27.046875C19.583885 26.870677 17.931983 26.700461 16 26.542969L16 21.166016 z M 23.9375 23.068359C26.819334 23.913077 29.181571 24.770448 30.705078 25.408203C31.017078 25.539203 31.108625 25.932406 30.890625 26.191406L29.505859 27.835938C29.393859 27.968937 29.229594 28.034766 29.058594 28.009766C28.365621 27.906996 26.052868 27.603742 23.21875 27.273438L23.9375 23.068359 z M 5.1816406 37L10.818359 37C10.408769 38.167075 9.3148489 39 8 39C6.6851511 39 5.5912309 38.167075 5.1816406 37 z M 17.181641 37L21 37C21.584389 37 22.152971 37.114915 22.695312 37.296875C22.213187 38.300615 21.198959 39 20 39C18.685151 39 17.591231 38.167075 17.181641 37 z"/></svg>