<svg xmlns="http://www.w3.org/2000/svg" xmlns:xlink="http://www.w3.org/1999/xlink" viewBox="0 0 50 50"><path d="M2.7695312 9C1.2425313 9 2.9605947e-16 10.233 0 11.75L0 36.25C0 37.767 1.2425312 39 2.7695312 39L5 39C5 42.309 7.691 45 11 45C14.309 45 17 42.309 17 39L31 39C31 42.309 33.691 45 37 45C40.309 45 43 42.309 43 39L47.230469 39C48.757469 39 50.001953 37.767 50.001953 36.25L50.001953 29.25C50.001953 27.324 48.615328 25.348875 48.486328 25.171875L39.457031 11.207031C39.435031 11.172031 39.408812 11.137469 39.382812 11.105469L39.203125 10.890625C38.430125 9.960625 37.630937 9 35.960938 9L2.7695312 9 z M 32 14L38.853516 14L45.992188 25L32 25L32 14 z M 14 17L16 17L16 21L20 21L20 23L16 23L16 27L14 27L14 23L10 23L10 21L14 21L14 17 z M 11 35C13.206 35 15 36.794 15 39C15 41.206 13.206 43 11 43C8.794 43 7 41.206 7 39C7 36.794 8.794 35 11 35 z M 37 35C39.206 35 41 36.794 41 39C41 41.206 39.206 43 37 43C34.794 43 33 41.206 33 39C33 36.794 34.794 35 37 35 z"/></svg>