<svg xmlns="http://www.w3.org/2000/svg" xmlns:xlink="http://www.w3.org/1999/xlink" viewBox="0 0 30 30"><path d="M17.984375 2.9863281 A 1.0001 1.0001 0 0 0 17 4L7 4 A 1.0001 1.0001 0 1 0 7 6L17 6L17 9L3.578125 9C3.009125 9 2.5202031 8.5970625 2.4082031 8.0390625L2.1777344 6.8828125C2.0747344 6.3698125 1.6236094 6 1.0996094 6C0.49260938 6 -1.4802974e-16 6.4926094 0 7.0996094L0 7.90625C0 10.37225 1.5433281 12.574969 3.8613281 13.417969C5.2843281 13.935969 6.661375 14.427406 7.109375 14.566406C8.614375 15.032406 10.644531 18.707031 10.644531 18.707031L10.648438 18.703125C11.637438 20.656125 13.659 22 16 22L23.904297 22C26.150297 22 27.957297 20.15125 27.904297 17.90625L27.882812 16.978516C27.867812 16.335516 27.697719 15.705578 27.386719 15.142578L25.140625 11.068359C24.436625 9.7923594 23.095672 9 21.638672 9L19 9L19 6L29 6 A 1.0001 1.0001 0 1 0 29 4L19 4 A 1.0001 1.0001 0 0 0 17.984375 2.9863281 z M 14 11C14.552 11 15 11.448 15 12L15 13L16 13C16.552 13 17 13.448 17 14C17 14.552 16.552 15 16 15L15 15L15 16C15 16.552 14.552 17 14 17C13.448 17 13 16.552 13 16L13 15L12 15C11.448 15 11 14.552 11 14C11 13.448 11.448 13 12 13L13 13L13 12C13 11.448 13.448 11 14 11 z M 20 11L21.638672 11C22.367672 11 23.038625 11.396156 23.390625 12.035156L25.634766 16.107422C25.789766 16.389422 25.874812 16.705344 25.882812 17.027344L25.882812 17.029297C25.894813 17.541297 25.488563 17.964703 24.976562 17.970703C23.822563 17.984703 22 18 22 18C20.343 18 19 16.657 19 15L19 12C19 11.448 19.448 11 20 11 z M 28.955078 21.988281 A 1.0001 1.0001 0 0 0 28.105469 22.552734C28.105469 22.552734 27.332093 24 25.996094 24L10 24 A 1.0001 1.0001 0 1 0 10 26L25.996094 26C28.664094 26 29.894531 23.447266 29.894531 23.447266 A 1.0001 1.0001 0 0 0 28.955078 21.988281 z"/></svg>