<svg xmlns="http://www.w3.org/2000/svg" xmlns:xlink="http://www.w3.org/1999/xlink" viewBox="0 0 50 50"><path d="M5.7929688 7C4.262228 7 3 8.2622278 3 9.7929688L3 16.005859C1.3502658 16.037232 8.8817842e-16 17.400022 0 19.056641L0 31L0 39.65625C0 40.939131 1.0608695 42 2.34375 42L6.65625 42C7.9391305 42 9 40.939131 9 39.65625L9 37.617188L16.804688 33.714844L17.712891 35.460938 A 1.0001 1.0001 0 0 0 18.599609 36L31.400391 36 A 1.0001 1.0001 0 0 0 32.287109 35.460938L33.195312 33.714844L41 37.617188L41 39.65625C41 40.939131 42.06114 42 43.34375 42L47.65625 42C48.939131 42 50 40.939131 50 39.65625L50 31L50 30L50 29L50 19.056641C50 17.400022 48.650228 16.037232 47 16.005859L47 9.7929688C47 8.2622278 45.737772 7 44.207031 7L5.7929688 7 z M 5.7929688 9L24 9L24 16L5 16L5 9.7929688C5 9.3437093 5.3437094 9 5.7929688 9 z M 26 9L44.207031 9C44.656291 9 45 9.3437094 45 9.7929688L45 16L26 16L26 9 z M 3.0566406 18L46.943359 18C47.538866 18 48 18.46261 48 19.056641L48 29L41 29L34 29L16 29L9 29L2 29L2 19.056641C2 18.46261 2.4626098 18 3.0566406 18 z M 7.5 20 A 1.5 1.5 0 0 0 6 21.5 A 1.5 1.5 0 0 0 7.5 23 A 1.5 1.5 0 0 0 9 21.5 A 1.5 1.5 0 0 0 7.5 20 z M 14.5 20C12.578848 20 11 21.578848 11 23.5C11 25.421152 12.578848 27 14.5 27C16.421152 27 18 25.421152 18 23.5C18 21.578848 16.421152 20 14.5 20 z M 35.5 20C33.578848 20 32 21.578848 32 23.5C32 25.421152 33.578848 27 35.5 27C37.421152 27 39 25.421152 39 23.5C39 21.578848 37.421152 20 35.5 20 z M 42.5 20 A 1.5 1.5 0 0 0 41 21.5 A 1.5 1.5 0 0 0 42.5 23 A 1.5 1.5 0 0 0 44 21.5 A 1.5 1.5 0 0 0 42.5 20 z M 20.984375 20.986328 A 1.0001 1.0001 0 0 0 20 22L20 25 A 1.0001 1.0001 0 1 0 22 25L22 22 A 1.0001 1.0001 0 0 0 20.984375 20.986328 z M 24.984375 20.986328 A 1.0001 1.0001 0 0 0 24 22L24 25 A 1.0001 1.0001 0 1 0 26 25L26 22 A 1.0001 1.0001 0 0 0 24.984375 20.986328 z M 28.984375 20.986328 A 1.0001 1.0001 0 0 0 28 22L28 25 A 1.0001 1.0001 0 1 0 30 25L30 22 A 1.0001 1.0001 0 0 0 28.984375 20.986328 z M 14.5 22C15.340272 22 16 22.659728 16 23.5C16 24.340272 15.340272 25 14.5 25C13.659728 25 13 24.340272 13 23.5C13 22.659728 13.659728 22 14.5 22 z M 35.5 22C36.340272 22 37 22.659728 37 23.5C37 24.340272 36.340272 25 35.5 25C34.659728 25 34 24.340272 34 23.5C34 22.659728 34.659728 22 35.5 22 z M 2 31L7 31L7 39.65625C7 39.857369 6.8573695 40 6.65625 40L2.34375 40C2.1426305 40 2 39.857369 2 39.65625L2 31 z M 9 31L15.392578 31L15.882812 31.941406L9 35.382812L9 31 z M 17.646484 31L32.353516 31L30.792969 34L19.207031 34L17.646484 31 z M 34.607422 31L41 31L41 35.382812L34.117188 31.941406L34.607422 31 z M 43 31L48 31L48 39.65625C48 39.857369 47.857369 40 47.65625 40L43.34375 40C43.14436 40 43 39.857369 43 39.65625L43 31 z"/></svg>