<svg xmlns="http://www.w3.org/2000/svg" xmlns:xlink="http://www.w3.org/1999/xlink" viewBox="0 0 50 50"><path d="M5.7929688 7C4.2529687 7 3 8.2529688 3 9.7929688L3 16.005859C1.3407122 16.036918 -2.926518e-16 17.390047 0 19.056641L0 29L0 31L0 39.65625C2.9605947e-16 40.94825 1.05175 42 2.34375 42L6.65625 42C7.94825 42 9 40.94825 9 39.65625L9 37.617188L16.804688 33.714844L17.712891 35.460938C17.885891 35.791938 18.226609 36 18.599609 36L31.400391 36C31.773391 36 32.115109 35.792938 32.287109 35.460938L33.193359 33.716797L41 37.621094L41 39.65625C41 40.94825 42.05275 42 43.34375 42L47.65625 42C48.94825 42 50 40.94825 50 39.65625L50 31L50 29L50 19.056641C50 17.390047 48.659288 16.036918 47 16.005859L47 9.7929688C47 8.2529688 45.747031 7 44.207031 7L5.7929688 7 z M 5.7929688 9L24 9L24 16L5 16L5 9.7929688C5 9.3549688 5.3549688 9 5.7929688 9 z M 26 9L44.207031 9C44.645031 9 45 9.3549688 45 9.7929688L45 16L26 16L26 9 z M 7.5 20C8.328 20 9 20.672 9 21.5C9 22.328 8.328 23 7.5 23C6.672 23 6 22.328 6 21.5C6 20.672 6.672 20 7.5 20 z M 42.5 20C43.328 20 44 20.672 44 21.5C44 22.328 43.328 23 42.5 23C41.672 23 41 22.328 41 21.5C41 20.672 41.672 20 42.5 20 z M 14.5 21C15.881 21 17 22.119 17 23.5C17 24.881 15.881 26 14.5 26C13.119 26 12 24.881 12 23.5C12 22.119 13.119 21 14.5 21 z M 21 21C21.553 21 22 21.447 22 22L22 25C22 25.553 21.553 26 21 26C20.447 26 20 25.553 20 25L20 22C20 21.447 20.447 21 21 21 z M 25 21C25.553 21 26 21.447 26 22L26 25C26 25.553 25.553 26 25 26C24.447 26 24 25.553 24 25L24 22C24 21.447 24.447 21 25 21 z M 29 21C29.553 21 30 21.447 30 22L30 25C30 25.553 29.553 26 29 26C28.447 26 28 25.553 28 25L28 22C28 21.447 28.447 21 29 21 z M 35.5 21C36.881 21 38 22.119 38 23.5C38 24.881 36.881 26 35.5 26C34.119 26 33 24.881 33 23.5C33 22.119 34.119 21 35.5 21 z M 9 31L15.392578 31L15.882812 31.941406L9 35.382812L9 31 z M 34.607422 31L41 31L41 35.382812L34.117188 31.941406L34.607422 31 z"/></svg>