<svg xmlns="http://www.w3.org/2000/svg" xmlns:xlink="http://www.w3.org/1999/xlink" viewBox="0 0 30 30"><path d="M10.984375 4.9863281 A 1.0001 1.0001 0 0 0 10.839844 5L3 5C1.3550302 5 0 6.3550302 0 8L0 16L0 19C0 20.105 0.895 21 2 21L3.0507812 21C3.2981765 22.685411 4.7500665 24 6.5 24C8.2499335 24 9.7018235 22.685411 9.9492188 21L21.050781 21C21.298177 22.685411 22.750067 24 24.5 24C26.366331 24 27.897818 22.506531 27.984375 20.660156L28.623047 20.451172C29.445047 20.182172 30 19.414781 30 18.550781L30 14.572266C30 13.649266 29.367703 12.846906 28.470703 12.628906L23.021484 11.308594L19.412109 6.2578125C18.850001 5.4693624 17.938685 5 16.970703 5L11.154297 5 A 1.0001 1.0001 0 0 0 10.984375 4.9863281 z M 3 7L10 7L10 11L2 11L2 8C2 7.4349698 2.4349698 7 3 7 z M 12 7L16.970703 7C17.294722 7 17.595311 7.1544188 17.783203 7.4179688L20.341797 11L12 11L12 7 z M 6.5 19C7.3402718 19 8 19.659728 8 20.5C8 21.340272 7.3402718 22 6.5 22C5.6597282 22 5 21.340272 5 20.5C5 19.659728 5.6597282 19 6.5 19 z M 24.5 19C25.340272 19 26 19.659728 26 20.5C26 21.340272 25.340272 22 24.5 22C23.659728 22 23 21.340272 23 20.5C23 19.659728 23.659728 19 24.5 19 z"/></svg>