<svg xmlns="http://www.w3.org/2000/svg" xmlns:xlink="http://www.w3.org/1999/xlink" viewBox="0 0 30 30"><path d="M15 4.5C14.441088 4.5 13.929945 4.6902383 13.513672 5L12.066406 5C10.627868 5 9.2920167 5.8901918 7.9238281 6.953125C6.7587282 7.8582805 5.6791608 8.9025538 5.0078125 10L3.6796875 10C2.3576875 10 1 11.46875 1 13.09375L1 14.470703L0 14L0 18C0 18.552 0.448 19.40625 1 19.40625L1 21C1 21.552 1.448 22 2 22C2 22.552 2.448 23 3 23L6 23C6.552 23 7 22.552 7 22L8.5664062 22C9.6334063 22 10.373047 21 10.373047 21L15 21L19.626953 21C19.626953 21 20.367594 22 21.433594 22L23 22C23 22.552 23.448 23 24 23L27 23C27.552 23 28 22.552 28 22C28.552 22 29 21.552 29 21L29 19.40625C29.552 19.40625 30 18.553 30 18L30 14L29 14.470703L29 13.09375C29 11.46875 27.642313 10 26.320312 10L24.992188 10C24.320638 8.902742 23.241144 7.85827 22.076172 6.953125C20.708132 5.8902041 19.372132 5 17.933594 5L16.486328 5C16.070055 4.6902383 15.558912 4.5 15 4.5 z M 12.066406 7L12.5 7L15 7L17.5 7L17.933594 7C18.220055 7 19.647696 7.6008741 20.847656 8.5332031C21.729443 9.2183219 22.559464 10.068827 23.072266 10.755859C23.04674 10.75917 23.026477 10.766945 23 10.769531C22.194 10.848531 20.649 11 20 11C19.351 11 19.626 11.302734 15 11.302734C10.374 11.302734 10.649 11 10 11C9.351 11 7.806 10.848531 7 10.769531C6.9735226 10.766945 6.9532603 10.75917 6.9277344 10.755859C7.440449 10.068876 8.2704828 9.2183128 9.1523438 8.5332031C10.352405 7.6008863 11.779945 7 12.066406 7 z M 2.4121094 12.210938C6.7101094 12.210938 7.5 15.462891 7.5 15.462891C3.799 15.462891 2.4121094 14.497937 2.4121094 12.210938 z M 27.587891 12.210938C27.587891 14.497937 26.201 15.462891 22.5 15.462891C22.5 15.462891 23.289891 12.210937 27.587891 12.210938 z M 4.4316406 17.005859C4.9326406 17.005859 7.8984375 17.150391 7.8984375 17.150391L7.8984375 17.744141C7.8984375 17.968141 7.9510313 18.389078 7.5820312 18.455078C7.2130313 18.521078 3.4166875 19.391297 3.1796875 19.404297C2.9426875 19.417297 2.7304688 19.351297 2.7304688 19.154297C2.7304688 18.956297 2.9940781 18.442609 3.2050781 18.099609C3.4160781 17.756609 3.9306406 17.005859 4.4316406 17.005859 z M 25.568359 17.005859C26.069359 17.005859 26.583922 17.756609 26.794922 18.099609C27.005922 18.442609 27.269531 18.956297 27.269531 19.154297C27.269531 19.352297 27.058312 19.417297 26.820312 19.404297C26.583313 19.391297 22.786969 18.521078 22.417969 18.455078C22.048969 18.389078 22.101562 17.968141 22.101562 17.744141L22.101562 17.150391C22.101562 17.150391 25.067359 17.005859 25.568359 17.005859 z"/></svg>