<svg xmlns="http://www.w3.org/2000/svg" xmlns:xlink="http://www.w3.org/1999/xlink" viewBox="0 0 50 50"><path d="M6 5 A 1.0001 1.0001 0 0 0 5.1679688 5.4453125C3.5505236 7.8714802 2.8135714 8.7064807 2.5429688 9L1 9L1 11L13.517578 11C23.054969 11 32.435564 14.687781 40.068359 22.0625C42.554081 24.463547 45.023294 28.239059 47.212891 32L1 32L1 34L41.195312 34L37.445312 40L30 40L30 37L28 37L28 40L20 40L20 37L18 37L18 40L10 40L10 37L8 37L8 40L1 40L1 42L38 42 A 1.0001 1.0001 0 0 0 38.847656 41.529297L40.427734 39L50 39L50 37L41.677734 37L43.552734 34L49 34 A 1.0001 1.0001 0 0 0 49.873047 32.511719C47.456943 28.197823 44.569299 23.629364 41.458984 20.625C33.47578 12.911719 23.572187 9 13.517578 9L12.541016 9C12.142706 8.5848445 11.247393 7.5683553 9.8320312 5.4453125 A 1.0001 1.0001 0 0 0 9 5L6 5 z M 6.4960938 7L8.5175781 7C9.0806637 7.8019021 9.568309 8.4410308 10.007812 9L5.0488281 9C5.4684784 8.4433043 5.9387369 7.8047497 6.4960938 7 z M 1 16L1 18L10 18L10 23L1 23L1 25L11 25 A 1.0001 1.0001 0 0 0 12 24L12 17 A 1.0001 1.0001 0 0 0 11 16L1 16 z M 17.957031 16.400391 A 1.0001 1.0001 0 0 0 17 17.398438L17 24.214844 A 1.0001 1.0001 0 0 0 17.890625 25.208984C19.972794 25.437656 22.118419 25.947716 23.445312 26.832031 A 1.0001 1.0001 0 0 0 24 27L34 27 A 1.0001 1.0001 0 0 0 34.857422 25.486328C32.146671 20.968039 25.522267 17.575056 18.15625 16.412109 A 1.0001 1.0001 0 0 0 17.957031 16.400391 z M 19 18.667969C24.464771 19.751261 29.205635 22.19137 31.806641 25L24.167969 25C22.646334 24.09492 20.821592 23.63861 19 23.382812L19 18.667969 z"/></svg>