<svg xmlns="http://www.w3.org/2000/svg" xmlns:xlink="http://www.w3.org/1999/xlink" viewBox="0 0 50 50"><path d="M25 2C23.527344 2 21.929688 2.390625 20.859375 2.6875C19.820313 2.980469 19.015625 3.808594 18.753906 4.851563L18.636719 5.328125C18.332031 5.089844 18.039063 4.851563 17.667969 4.585938C16.589844 3.832031 15.46875 3 14.097656 3C13.601563 3 13.175781 3.070313 12.792969 3.285156C12.410156 3.5 12.117188 3.917969 12.035156 4.289063C11.875 5.023438 12.230469 5.492188 12.230469 5.492188C12.40625 5.804688 12.738281 6 13.097656 6L16.074219 6C16.261719 6.113281 16.339844 6.097656 16.515625 6.226563C17.003906 6.566406 17.457031 6.917969 17.796875 7.199219C17.976563 7.34375 17.992188 7.363281 18.105469 7.460938L18.03125 7.757813C18.007813 7.835938 18 7.917969 18 8L17 8C16.449219 8 16 8.449219 16 9L16 9.179688L11.804688 10.019531C11.445313 10.082031 11.148438 10.332031 11.027344 10.675781C10.910156 11.019531 10.984375 11.402344 11.226563 11.671875C11.46875 11.941406 11.839844 12.0625 12.195313 11.980469L16.023438 11.214844C16.097656 11.546875 16.332031 11.816406 16.648438 11.9375L20.5 13.378906C18.71875 13.683594 17.65625 14.0625 17.65625 14.0625C17.507813 14.113281 17.375 14.203125 17.265625 14.316406C16.183594 15.484375 15.699219 17.109375 15.390625 18.457031C15.085938 19.808594 15 20.925781 15 20.925781C15 20.960938 15 21 15 21.035156C14.988281 21.3125 14.941406 23.324219 15.765625 27.109375C14.753906 27.289063 13.8125 27.691406 13 28.261719L13 31.03125C13.910156 29.804688 15.359375 29 17 29C17.308594 29 17.597656 28.859375 17.785156 28.617188C17.972656 28.375 18.042969 28.0625 17.972656 27.765625C17.679688 26.5625 17.484375 25.550781 17.34375 24.667969C17.628906 25.089844 17.867188 25.417969 18.167969 25.871094C18.90625 26.996094 19.644531 28.171875 20.1875 29.15625C20.457031 29.644531 20.675781 30.089844 20.816406 30.433594C20.960938 30.773438 21 31.050781 21 31L21 38L20 38L20 34C20 32.355469 18.644531 31 17 31C15.355469 31 14 32.355469 14 34L14 45C14 46.378906 15.039063 47.371094 16.316406 47.714844C16.5 47.894531 16.742188 47.996094 17 48C17.257813 47.996094 17.5 47.894531 17.683594 47.714844C18.960938 47.371094 20 46.378906 20 45L20 40L21.71875 40C23.269531 40.976563 24.753906 41 24.957031 40.996094L24.957031 41C24.957031 41 24.996094 40.996094 25 40.996094C25.003906 40.996094 25.042969 41 25.042969 41L25.042969 40.996094C25.246094 41 26.730469 40.976563 28.28125 40L30 40L30 45C30 46.378906 31.039063 47.371094 32.316406 47.714844C32.5 47.894531 32.742188 47.996094 33 48C33.257813 47.996094 33.5 47.894531 33.683594 47.714844C34.960938 47.371094 36 46.378906 36 45L36 34C36 32.355469 34.644531 31 33 31C31.355469 31 30 32.355469 30 34L30 38L29 38L29 31C29 31.050781 29.039063 30.773438 29.183594 30.433594C29.324219 30.089844 29.542969 29.644531 29.8125 29.15625C30.355469 28.171875 31.09375 26.996094 31.832031 25.871094C32.132813 25.417969 32.371094 25.089844 32.65625 24.667969C32.515625 25.554688 32.320313 26.5625 32.03125 27.765625C31.957031 28.0625 32.023438 28.378906 32.214844 28.621094C32.40625 28.859375 32.691406 29 33 29C34.640625 29 36.089844 29.804688 37 31.03125L37 28.261719C36.1875 27.691406 35.246094 27.289063 34.234375 27.109375C35.050781 23.355469 35.007813 21.347656 35 21.046875C35 21.015625 35 20.980469 35 20.949219C35 20.941406 35 20.933594 35 20.925781C35 20.925781 34.914063 19.808594 34.609375 18.457031C34.300781 17.109375 33.816406 15.484375 32.734375 14.316406C32.625 14.203125 32.492188 14.113281 32.34375 14.0625C32.34375 14.0625 31.277344 13.683594 29.5 13.378906L33.351563 11.9375C33.667969 11.816406 33.902344 11.546875 33.976563 11.214844L37.804688 11.980469C38.160156 12.0625 38.53125 11.941406 38.773438 11.671875C39.015625 11.402344 39.089844 11.019531 38.972656 10.675781C38.851563 10.332031 38.554688 10.082031 38.195313 10.019531L34 9.179688L34 9C34 8.449219 33.550781 8 33 8L32 8C32 7.917969 31.988281 7.835938 31.96875 7.757813L31.914063 7.53125C32.015625 7.4375 32.078125 7.382813 32.300781 7.199219C32.644531 6.917969 33.097656 6.566406 33.582031 6.226563C33.761719 6.097656 33.835938 6.113281 34.027344 6L37 6C37.359375 6 37.695313 5.804688 37.871094 5.492188C37.871094 5.492188 38.222656 5.019531 38.0625 4.285156C37.980469 3.917969 37.6875 3.5 37.304688 3.285156C36.921875 3.070313 36.496094 3 36 3C34.632813 3 33.507813 3.832031 32.433594 4.585938C32.027344 4.871094 31.699219 5.136719 31.378906 5.390625L31.246094 4.851563C30.984375 3.8125 30.179688 2.980469 29.140625 2.691406C28.066406 2.390625 26.472656 2 25 2 Z M 25 4C26.09375 4 27.609375 4.339844 28.601563 4.617188C28.601563 4.617188 28.601563 4.617188 28.605469 4.617188C28.953125 4.714844 29.214844 4.984375 29.304688 5.335938L29.96875 8L20.03125 8L20.695313 5.335938C20.785156 4.984375 21.046875 4.714844 21.398438 4.617188C22.390625 4.339844 23.90625 4 25 4 Z M 18.011719 10L31.992188 10C31.992188 10.039063 31.996094 10.082031 32 10.121094L32 10.308594L25 12.933594L18 10.308594L18 10.140625C18.007813 10.09375 18.011719 10.046875 18.011719 10 Z M 26 15.023438C29.121094 15.136719 30.980469 15.734375 31.34375 15.859375C31.902344 16.542969 32.402344 17.769531 32.65625 18.902344C32.890625 19.921875 32.929688 20.523438 32.953125 20.753906C32.738281 21.046875 31.5625 22.652344 30.167969 24.769531C29.40625 25.917969 28.644531 27.128906 28.0625 28.191406C27.769531 28.722656 27.519531 29.214844 27.332031 29.667969C27.246094 29.878906 27.238281 30.09375 27.175781 30.292969C26.054688 30.976563 25.042969 31 25.042969 31C25.015625 31 24.988281 31 24.957031 31C24.957031 31 23.945313 30.976563 22.824219 30.292969C22.761719 30.09375 22.753906 29.878906 22.667969 29.667969C22.480469 29.214844 22.230469 28.722656 21.9375 28.191406C21.355469 27.128906 20.59375 25.917969 19.832031 24.769531C18.4375 22.652344 17.261719 21.046875 17.046875 20.753906C17.070313 20.523438 17.109375 19.921875 17.34375 18.902344C17.597656 17.769531 18.097656 16.542969 18.65625 15.859375C19.011719 15.734375 20.949219 15.238281 24 15.097656L24 23C23.996094 23.359375 24.183594 23.695313 24.496094 23.878906C24.808594 24.058594 25.191406 24.058594 25.503906 23.878906C25.816406 23.695313 26.003906 23.359375 26 23 Z M 23 32.628906C24.011719 32.988281 24.8125 33 24.957031 33C24.957031 33 24.996094 32.996094 25 33C25.003906 32.996094 25.042969 33 25.042969 33C25.050781 33 25.058594 33 25.066406 33C25.253906 33 26.027344 32.976563 27 32.628906L27 38.449219C25.941406 39.039063 25.042969 39 25.042969 39L25 40L24.957031 39C24.957031 39 24.058594 39.039063 23 38.449219 Z M 17 33C17.566406 33 18 33.433594 18 34L18 45C18 45.566406 17.566406 46 17 46C16.433594 46 16 45.566406 16 45L16 34C16 33.433594 16.433594 33 17 33 Z M 33 33C33.566406 33 34 33.433594 34 34L34 45C34 45.566406 33.566406 46 33 46C32.433594 46 32 45.566406 32 45L32 34C32 33.433594 32.433594 33 33 33Z"/></svg>