<svg xmlns="http://www.w3.org/2000/svg" xmlns:xlink="http://www.w3.org/1999/xlink" viewBox="0 0 50 50"><path d="M20.607422 0.04296875 A 1.0001 1.0001 0 0 0 19.939453 0.32617188C18.127958 2.088738 17 4.5417561 17 7.2382812C17 9.6855387 17.932919 11.916232 19.458984 13.628906L14.675781 19L4 19C1.8029372 19 0 20.802937 0 23L0 42C0 44.197063 1.8029372 46 4 46L7.1015625 46C7.5682905 48.275013 9.5920515 50 12 50C14.407948 50 16.431709 48.275013 16.898438 46L36.101562 46C36.568291 48.275013 38.592052 50 41 50C43.407948 50 45.431709 48.275013 45.898438 46L47 46C48.64497 46 50 44.64497 50 43L50 38.390625C50 37.263927 49.618992 36.17053 48.919922 35.291016L48.917969 35.287109L46.072266 31.689453L41.003906 21.734375C40.151982 20.057868 38.427996 19 36.546875 19L24 19L24 16.548828C24.948078 16.840899 25.956208 17 27 17C29.748179 17 32.249499 15.912521 34.060547 14.150391 A 1.0001 1.0001 0 0 0 34.0625 12.716797L28.302734 7.1113281L29.488281 5.9257812C29.652668 5.9694509 29.821821 6 30 6C31.105 6 32 5.105 32 4C32 2.895 31.105 2 30 2C28.895 2 28 2.895 28 4C28 4.1781789 28.030549 4.3473322 28.074219 4.5117188L26.871094 5.7148438L21.333984 0.32617188 A 1.0001 1.0001 0 0 0 20.607422 0.04296875 z M 20.771484 2.5703125L31.787109 13.294922C30.44085 14.298474 28.837673 15 27 15C22.555118 15 19 11.522208 19 7.2382812C19 5.4492038 19.724296 3.8826427 20.771484 2.5703125 z M 20.935547 14.980469C21.274696 15.234199 21.6289 15.467347 22 15.677734L22 19L17.355469 19L20.935547 14.980469 z M 4 21L15.125 21L23 21L36.546875 21C37.681754 21 38.706675 21.629125 39.220703 22.640625 A 1.0001 1.0001 0 0 0 39.222656 22.642578L39.404297 23L32 23 A 1.0001 1.0001 0 0 0 31 24L31 33 A 1.0001 1.0001 0 0 0 32 34L45 34 A 1.0001 1.0001 0 0 0 45.3125 33.953125L47.351562 36.53125 A 1.0001 1.0001 0 0 0 47.353516 36.533203C47.770598 37.057003 48 37.7128 48 38.390625L48 43C48 43.56503 47.56503 44 47 44L45.898438 44C45.431709 41.724987 43.407948 40 41 40C38.592052 40 36.568291 41.724987 36.101562 44L16.898438 44C16.431709 41.724987 14.407948 40 12 40C9.5920515 40 7.5682905 41.724987 7.1015625 44L4 44C2.8850628 44 2 43.114937 2 42L2 23C2 21.885063 2.8850628 21 4 21 z M 33 25L40.421875 25L43.984375 32L33 32L33 25 z M 12 42C13.640741 42 14.942458 43.28217 14.990234 44.910156 A 1.0001 1.0001 0 0 0 14.990234 45.091797C14.941458 46.718843 13.640078 48 12 48C10.359259 48 9.0575418 46.71783 9.0097656 45.089844 A 1.0001 1.0001 0 0 0 9.0097656 44.908203C9.0585424 43.281157 10.359922 42 12 42 z M 41 42C42.640741 42 43.942458 43.28217 43.990234 44.910156 A 1.0001 1.0001 0 0 0 43.990234 45.091797C43.941458 46.718843 42.640078 48 41 48C39.359259 48 38.057542 46.71783 38.009766 45.089844 A 1.0001 1.0001 0 0 0 38.009766 44.908203C38.058542 43.281157 39.359922 42 41 42 z"/></svg>