<svg xmlns="http://www.w3.org/2000/svg" xmlns:xlink="http://www.w3.org/1999/xlink" viewBox="0 0 30 30"><path d="M11.984375 5.9863281 A 1.0001 1.0001 0 0 0 11.744141 6.0195312C10.315567 6.0421488 8.7557432 6.0886902 7.4511719 6.140625C5.5505609 6.2167493 3.8518115 7.3671954 3.0800781 9.1054688L3.0820312 9.1054688L1.4980469 12.667969C0.62003321 12.896739 -2.8905437e-16 13.686733 0 14.599609L0 18.433594C0 19.353594 0.62848438 20.155953 1.5214844 20.376953L3.2617188 20.804688C3.7835537 22.085755 5.0399277 23 6.5 23C7.8831519 23 9.0777003 22.175306 9.6445312 21L21.355469 21C21.9223 22.175306 23.116848 23 24.5 23C25.985955 23 27.257527 22.051297 27.761719 20.734375L28.623047 20.451172C29.445047 20.182172 30 19.414781 30 18.550781L30 15.095703C30 14.157703 29.349594 13.343578 28.433594 13.142578C27.22033 12.875944 25.449323 12.529334 23.685547 12.236328L20.642578 7.859375C19.946151 6.8580116 18.827458 6.2238435 17.605469 6.1503906C16.440141 6.0806529 14.728428 6 13 6C12.76676 6 12.473083 6.0090167 12.220703 6.0117188 A 1.0001 1.0001 0 0 0 11.984375 5.9863281 z M 13 8C14.665572 8 16.343703 8.0782221 17.484375 8.1464844C18.092386 8.1830315 18.650427 8.4973634 19 9 A 1.0001 1.0001 0 0 0 19 9.0019531L21.085938 12L15.5 12L13 12L13 8 z M 15.5 12 A 1.5 1.5 0 0 0 17 10.5 A 1.5 1.5 0 0 0 15.5 9 A 1.5 1.5 0 0 0 14 10.5 A 1.5 1.5 0 0 0 15.5 12 z M 11 8.0332031L11 12L7.5 12L4.4296875 12L3.9335938 12.111328L4.9082031 9.9179688C5.3724697 8.8722419 6.3858609 8.1845476 7.53125 8.1386719C8.5879672 8.0966041 9.8111498 8.0600796 11 8.0332031 z M 7.5 12 A 1.5 1.5 0 0 0 9 10.5 A 1.5 1.5 0 0 0 7.5 9 A 1.5 1.5 0 0 0 6 10.5 A 1.5 1.5 0 0 0 7.5 12 z M 6.5 18C7.3402718 18 8 18.659728 8 19.5C8 20.340272 7.3402718 21 6.5 21C5.6597282 21 5 20.340272 5 19.5C5 18.659728 5.6597282 18 6.5 18 z M 24.5 18C25.340272 18 26 18.659728 26 19.5C26 20.340272 25.340272 21 24.5 21C23.659728 21 23 20.340272 23 19.5C23 18.659728 23.659728 18 24.5 18 z"/></svg>