<svg xmlns="http://www.w3.org/2000/svg" xmlns:xlink="http://www.w3.org/1999/xlink" viewBox="0 0 50 50"><path d="M25 8C18.402344 8 15.996094 8.871094 15.535156 9.070313C13.984375 9.59375 11.679688 10.394531 10.683594 12.328125C10.003906 13.644531 5.570313 25.476563 5.0625 26.820313L5 26.988281L5 39C5 40.652344 6.347656 42 8 42L12 42C13.652344 42 15 40.652344 15 39L15 38L35 38L35 39C35 40.652344 36.347656 42 38 42L42 42C43.652344 42 45 40.652344 45 39L45 26.988281L44.933594 26.8125C44.828125 26.535156 43.40625 22.820313 41.996094 19.191406C41.980469 19.160156 41.972656 19.132813 41.960938 19.097656C40.789063 16.085938 39.640625 13.148438 39.273438 12.308594C38.433594 10.40625 36.128906 9.539063 34.4375 9.054688C33.917969 8.839844 31.480469 8 25 8 Z M 25 10C31.550781 10 33.660156 10.898438 33.671875 10.902344L33.828125 10.964844C34.582031 11.175781 36.875 11.828125 37.441406 13.113281C37.777344 13.878906 38.820313 16.535156 39.917969 19.363281L39.910156 19.363281L39.988281 19.558594C40.007813 19.597656 40.023438 19.644531 40.042969 19.6875C40.070313 19.757813 40.097656 19.832031 40.125 19.902344C40.371094 20.542969 40.652344 21.496094 40.265625 22.078125C39.902344 22.613281 38.90625 22.914063 37.472656 22.972656C36.746094 21.257813 35.3125 19.917969 33.53125 19.332031C34.414063 18.695313 35 17.664063 35 16.5C35 14.578125 33.421875 13 31.5 13C29.578125 13 28 14.578125 28 16.5C28 17.664063 28.585938 18.699219 29.472656 19.335938C27.679688 19.925781 26.226563 21.269531 25.503906 23L24.484375 23C23.757813 21.269531 22.320313 19.921875 20.53125 19.332031C21.414063 18.695313 22 17.664063 22 16.5C22 14.578125 20.421875 13 18.5 13C16.578125 13 15 14.578125 15 16.5C15 17.667969 15.589844 18.699219 16.476563 19.339844C14.695313 19.925781 13.253906 21.253906 12.527344 22.96875C11.085938 22.898438 10.0625 22.539063 9.703125 22.003906C9.230469 21.308594 9.734375 20.078125 9.976563 19.484375L10.03125 19.34375L10.050781 19.292969C11.21875 16.257813 12.210938 13.730469 12.460938 13.246094C13.097656 12.011719 14.976563 11.371094 16.222656 10.949219L16.316406 10.90625C16.335938 10.898438 18.449219 10 25 10 Z M 18.5 15C19.339844 15 20 15.660156 20 16.5C20 17.339844 19.339844 18 18.5 18C17.660156 18 17 17.339844 17 16.5C17 15.660156 17.660156 15 18.5 15 Z M 31.5 15C32.339844 15 33 15.660156 33 16.5C33 17.339844 32.339844 18 31.5 18C30.660156 18 30 17.339844 30 16.5C30 15.660156 30.660156 15 31.5 15 Z M 5.101563 19C2.078125 19 1 20.855469 1 22.589844C1 23.433594 1.375 24.792969 3.625 24.96875C4.25 23.296875 5.066406 21.128906 5.882813 19 Z M 44.0625 19C44.96875 21.339844 45.855469 23.640625 46.367188 24.96875C48.621094 24.796875 49 23.433594 49 22.589844C49 20.855469 47.921875 19 44.902344 19 Z M 18.5 21C20.066406 21 21.433594 21.796875 22.238281 23L14.769531 23C15.578125 21.796875 16.933594 21 18.5 21 Z M 31.5 21C33.066406 21 34.433594 21.796875 35.238281 23L27.765625 23C28.570313 21.796875 29.933594 21 31.5 21 Z M 11 27L15 27C16.65625 27 18 28.34375 18 30C18 31.65625 16.65625 33 15 33C13.324219 33 12.8125 32.566406 11.078125 31.582031C9.917969 30.925781 9 30.308594 9 29C9 27.894531 9.894531 27 11 27 Z M 35 27L39 27C40.105469 27 41 27.894531 41 29C41 30.308594 40.082031 30.925781 38.921875 31.582031C37.1875 32.566406 36.675781 33 35 33C33.34375 33 32 31.65625 32 30C32 28.34375 33.34375 27 35 27Z"/></svg>