<svg xmlns="http://www.w3.org/2000/svg" xmlns:xlink="http://www.w3.org/1999/xlink" viewBox="0 0 30 30"><path d="M15 6C12.558 6 10.204531 6.3630781 9.0195312 6.5800781C8.0555312 6.7550781 7.2380313 7.3931094 6.8320312 8.2871094L5.0664062 12.169922C4.0514063 12.494922 3 13.223281 3 13.738281L3 22C3 23.105 3.895 24 5 24C6.105 24 7 23.105 7 22L23 22C23 23.105 23.895 24 25 24C26.105 24 27 23.105 27 22L27 13.738281C27 13.223281 25.948594 12.494922 24.933594 12.169922L23.167969 8.2890625C22.760969 7.3930625 21.942469 6.7550781 20.980469 6.5800781C19.794469 6.3630781 17.442 6 15 6 z M 15 8C17.284 8 19.503047 8.342875 20.623047 8.546875C20.941047 8.605875 21.211656 8.8172344 21.347656 9.1152344L22.445312 11.529297C21.153312 11.270297 18.885 11 15 11C11.115 11 8.8466875 11.270297 7.5546875 11.529297L8.6523438 9.1152344C8.7873437 8.8172344 9.0599063 8.604875 9.3789062 8.546875C10.497906 8.342875 12.716 8 15 8 z M 2 10 A 1.0001 1.0001 0 1 0 2 12L3 12 A 1.0001 1.0001 0 1 0 3 10L2 10 z M 27 10 A 1.0001 1.0001 0 1 0 27 12L28 12 A 1.0001 1.0001 0 1 0 28 10L27 10 z M 5.5 13C6.328 13 7 13.672 7 14.5C7 15.328 6.328 16 5.5 16C4.672 16 4 15.328 4 14.5C4 13.672 4.672 13 5.5 13 z M 24.5 13C25.328 13 26 13.672 26 14.5C26 15.328 25.328 16 24.5 16C23.672 16 23 15.328 23 14.5C23 13.672 23.672 13 24.5 13 z M 15 17.5C19.99 17.5 23 18 23 18L22.552734 18.894531C22.213734 19.572531 21.520672 20 20.763672 20L9.2363281 20C8.4783281 20 7.7862656 19.572531 7.4472656 18.894531L7 18C7 18 10.01 17.5 15 17.5 z"/></svg>