<svg xmlns="http://www.w3.org/2000/svg" xmlns:xlink="http://www.w3.org/1999/xlink" viewBox="0 0 50 50"><path d="M11 0C4.953125 0 0 4.953125 0 11L0 39C0 40.125 0.367188 41.160156 1 42L1 45C1 46.644531 2.355469 48 4 48L8 48C9.644531 48 11 46.644531 11 45L11 44L22 44L22 42L5 42C3.34375 42 2 40.65625 2 39L2 11C2 6.046875 6.046875 2 11 2L27 2C31.953125 2 36 6.046875 36 11L36 25L38 25L38 11C38 4.953125 33.046875 0 27 0 Z M 12 3C11.476563 3 10.941406 3.183594 10.5625 3.5625C10.183594 3.941406 10 4.476563 10 5L10 7C10 7.523438 10.183594 8.058594 10.5625 8.4375C10.941406 8.816406 11.476563 9 12 9L27 9C27.523438 9 28.058594 8.816406 28.4375 8.4375C28.816406 8.058594 29 7.523438 29 7L29 5C29 4.476563 28.816406 3.941406 28.4375 3.5625C28.058594 3.183594 27.523438 3 27 3 Z M 12 5L27 5L27 7L12 7 Z M 7 10C5.300781 10 4 11.300781 4 13L4 26C4 27.699219 5.300781 29 7 29L24.90625 29L26 27L7 27C6.398438 27 6 26.601563 6 26L6 13C6 12.398438 6.398438 12 7 12L31 12C31.601563 12 32 12.398438 32 13L32 25L34 25L34 13C34 11.300781 32.699219 10 31 10 Z M 31.59375 27C29.617188 27 27.851563 28.144531 27 29.96875L27 30L24.375 35.78125L24.375 35.84375C24.117188 36.492188 24 37.179688 24 37.8125L24 48C24 48.523438 24.183594 49.058594 24.5625 49.4375C24.941406 49.816406 25.476563 50 26 50L29 50C29.523438 50 30.058594 49.816406 30.4375 49.4375C30.816406 49.058594 31 48.523438 31 48L31 47L43 47L43 48C43 48.523438 43.183594 49.058594 43.5625 49.4375C43.941406 49.816406 44.476563 50 45 50L48 50C48.523438 50 49.058594 49.816406 49.4375 49.4375C49.816406 49.058594 50 48.523438 50 48L50 37.8125C50 37.101563 49.867188 36.449219 49.625 35.84375L49.625 35.78125L47 30L47 29.96875C46.148438 28.144531 44.382813 27 42.40625 27 Z M 31.59375 29L42.40625 29C43.632813 29 44.640625 29.636719 45.1875 30.8125L46 32.625L46 34C46 34.554688 45.554688 35 45 35L29 35C28.445313 35 28 34.554688 28 34L28 32.625L28.8125 30.8125C29.359375 29.636719 30.367188 29 31.59375 29 Z M 8.5 31C6.027344 31 4 33.027344 4 35.5C4 37.972656 6.027344 40 8.5 40C10.972656 40 13 37.972656 13 35.5C13 33.027344 10.972656 31 8.5 31 Z M 8.5 33C9.890625 33 11 34.109375 11 35.5C11 36.890625 9.890625 38 8.5 38C7.109375 38 6 36.890625 6 35.5C6 34.109375 7.109375 33 8.5 33 Z M 26.5625 35.78125C27.109375 36.527344 28.011719 37 29 37L45 37C45.988281 37 46.890625 36.527344 47.4375 35.78125L47.78125 36.5625C47.785156 36.570313 47.777344 36.585938 47.78125 36.59375C47.929688 36.976563 48 37.335938 48 37.8125L48 45L26 45L26 37.8125C26 37.453125 26.085938 36.941406 26.21875 36.59375C26.222656 36.585938 26.214844 36.570313 26.21875 36.5625 Z M 30 39C28.894531 39 28 39.894531 28 41C28 42.105469 28.894531 43 30 43C31.105469 43 32 42.105469 32 41C32 39.894531 31.105469 39 30 39 Z M 44 39C42.894531 39 42 39.894531 42 41C42 42.105469 42.894531 43 44 43C45.105469 43 46 42.105469 46 41C46 39.894531 45.105469 39 44 39 Z M 3 43.5625C3.613281 43.835938 4.289063 44 5 44L9 44L9 45C9 45.554688 8.554688 46 8 46L4 46C3.445313 46 3 45.554688 3 45 Z M 26 47L29 47L29 48L26 48 Z M 45 47L48 47L48 48L45 48Z"/></svg>