<svg xmlns="http://www.w3.org/2000/svg" xmlns:xlink="http://www.w3.org/1999/xlink" viewBox="0 0 50 50"><path d="M19 10C18.683594 10 18.386719 10.148438 18.199219 10.402344L15.476563 14.03125C8.222656 14.328125 1.949219 20.617188 1.394531 21.1875C1 21.457031 0.847656 21.96875 1.035156 22.410156C1.222656 22.847656 1.695313 23.09375 2.164063 22.996094C2.257813 22.980469 2.347656 22.949219 2.433594 22.90625C6.945313 21.152344 12.828125 21.039063 13.535156 21.03125C13.605469 21.089844 13.765625 21.230469 14.003906 21.53125L8.613281 26.019531C4.9375 26.222656 2 29.277344 2 33C2 36.855469 5.144531 40 9 40C12.515625 40 15.429688 37.382813 15.921875 34L18.761719 34C18.917969 34.039063 19.085938 34.039063 19.246094 34L27.417969 34C28.773438 34 29.960938 33.105469 30.359375 31.820313C31.75 27.363281 34.328125 22.523438 34.667969 21.898438C34.898438 21.855469 35.8125 21.683594 37 21.472656L37 26.296875C34.113281 27.160156 32 29.839844 32 33C32 36.855469 35.144531 40 39 40C42.855469 40 46 36.855469 46 33C46 29.144531 42.855469 26 39 26L39 21.128906C39.25 21.089844 39.394531 21.0625 39.660156 21.015625C42.644531 20.53125 46.164063 20.039063 48.019531 20C48.566406 19.988281 49 19.542969 49 19L49 17C49 16.449219 48.550781 16 48 16C43.34375 16 38.660156 16.503906 34.839844 17.007813C31.015625 17.511719 27.933594 18 27 18C26.25 18 24.472656 16.902344 23.277344 15.835938L23.277344 15.839844C21.964844 14.671875 20.277344 14 18.503906 14L18 14L19.5 12L23 12C23.359375 12.003906 23.695313 11.816406 23.878906 11.503906C24.058594 11.191406 24.058594 10.808594 23.878906 10.496094C23.695313 10.183594 23.359375 9.996094 23 10 Z M 15.984375 16C15.992188 16 15.996094 16 16 16L18 16C18.828125 16 19.425781 16.328125 20.0625 16.960938C20.703125 17.59375 21.300781 18.527344 21.902344 19.515625C22.503906 20.507813 23.101563 21.550781 23.875 22.417969C24.644531 23.28125 25.695313 24 27 24C27.097656 24 27.195313 23.984375 27.292969 23.957031C29.625 23.246094 31 22.855469 32.082031 22.554688C31.042969 24.636719 29.464844 27.972656 28.453125 31.226563C28.304688 31.695313 27.898438 32 27.417969 32L19.855469 32C19.140625 27.464844 17.945313 24.347656 16.875 22.34375C15.734375 20.210938 14.65625 19.246094 14.65625 19.246094C14.472656 19.085938 14.242188 19 14 19C14 19 10.367188 18.988281 6.335938 19.765625C8.894531 17.964844 12.457031 16.003906 15.984375 16 Z M 47 18.046875L47 18.121094C44.851563 18.246094 42.011719 18.609375 39.339844 19.046875C36.324219 19.535156 33.8125 20.015625 33.8125 20.015625C33.800781 20.019531 33.792969 20.019531 33.78125 20.023438C33.78125 20.023438 31.875 20.480469 26.953125 21.972656C26.375 21.957031 25.914063 21.703125 25.363281 21.082031C24.867188 20.53125 24.367188 19.71875 23.84375 18.859375C24.789063 19.5 25.847656 20 27 20C28.484375 20 31.316406 19.488281 35.097656 18.992188C38.601563 18.53125 42.816406 18.113281 47 18.046875 Z M 40 22L40 24L47 24L47 22 Z M 15.078125 23.234375C15.089844 23.253906 15.101563 23.265625 15.109375 23.285156C16.050781 25.042969 17.144531 27.839844 17.828125 32L15.921875 32C15.542969 29.390625 13.71875 27.242188 11.289063 26.394531 Z M 39 28C41.773438 28 44 30.226563 44 33C44 35.773438 41.773438 38 39 38C36.226563 38 34 35.773438 34 33C34 30.226563 36.226563 28 39 28 Z M 9.117188 28.003906C11.796875 28.066406 13.933594 30.203125 13.996094 32.882813C13.984375 32.964844 13.984375 33.042969 13.996094 33.125C13.929688 35.839844 11.730469 38 9 38C6.226563 38 4 35.773438 4 33C4 30.277344 6.148438 28.085938 8.855469 28.007813C8.941406 28.019531 9.03125 28.019531 9.117188 28.003906 Z M 9 30C7.355469 30 6 31.355469 6 33C6 34.644531 7.355469 36 9 36C10.644531 36 12 34.644531 12 33C12 31.355469 10.644531 30 9 30 Z M 39 30C37.355469 30 36 31.355469 36 33C36 34.644531 37.355469 36 39 36C40.644531 36 42 34.644531 42 33C42 31.355469 40.644531 30 39 30 Z M 9 32C9.5625 32 10 32.4375 10 33C10 33.5625 9.5625 34 9 34C8.4375 34 8 33.5625 8 33C8 32.4375 8.4375 32 9 32 Z M 39 32C39.5625 32 40 32.4375 40 33C40 33.5625 39.5625 34 39 34C38.4375 34 38 33.5625 38 33C38 32.4375 38.4375 32 39 32Z"/></svg>