<svg xmlns="http://www.w3.org/2000/svg" xmlns:xlink="http://www.w3.org/1999/xlink" viewBox="0 0 50 50"><path d="M19 10C18.683594 10 18.386719 10.148438 18.199219 10.402344L15.480469 14.03125C8.183594 14.339844 1.566406 21.007813 1.28125 21.300781C1.25 21.335938 1.234375 21.382813 1.203125 21.421875C1.160156 21.484375 1.109375 21.546875 1.078125 21.617188C1.054688 21.679688 1.050781 21.746094 1.039063 21.808594C1.023438 21.871094 1.003906 21.929688 1.003906 21.996094C1.003906 22.074219 1.027344 22.148438 1.046875 22.226563C1.054688 22.273438 1.050781 22.320313 1.070313 22.363281C1.070313 22.371094 1.074219 22.371094 1.074219 22.375C1.097656 22.4375 1.144531 22.484375 1.179688 22.535156C1.21875 22.59375 1.25 22.660156 1.296875 22.707031C1.300781 22.710938 1.300781 22.714844 1.304688 22.71875C1.335938 22.75 1.378906 22.765625 1.417969 22.792969C1.484375 22.839844 1.546875 22.890625 1.617188 22.921875C1.683594 22.949219 1.75 22.953125 1.820313 22.964844C1.878906 22.976563 1.929688 22.996094 1.992188 22.996094C2.078125 22.996094 2.160156 22.972656 2.242188 22.953125C2.285156 22.941406 2.324219 22.945313 2.367188 22.933594C6.507813 21.300781 12.035156 21.046875 13.582031 21.007813C13.691406 21.128906 13.835938 21.3125 14 21.53125L8.613281 26.019531C4.9375 26.222656 2 29.277344 2 33C2 36.855469 5.144531 40 9 40C12.511719 40 15.429688 37.382813 15.921875 34L27.417969 34C28.773438 34 29.957031 33.125 30.359375 31.820313C31.367188 28.585938 33.078125 24.996094 34.082031 23.011719C33.539063 23.144531 31.640625 23.632813 27.292969 24.957031C27.199219 24.984375 27.097656 25 27 25C24.570313 25 23.105469 22.234375 21.558594 19.3125C20.453125 17.226563 19.21875 14.929688 17.828125 14.234375L19.5 12L23 12C23.359375 12.003906 23.695313 11.816406 23.878906 11.503906C24.058594 11.191406 24.058594 10.808594 23.878906 10.496094C23.695313 10.183594 23.359375 9.996094 23 10 Z M 20.996094 14.457031C21.847656 15.59375 22.589844 16.992188 23.324219 18.375C24.433594 20.46875 25.6875 22.835938 26.878906 22.992188C32.054688 21.417969 33.710938 21.039063 33.78125 21.027344C33.886719 20.996094 35.238281 20.667969 37 20.300781L37 26.296875C34.113281 27.160156 32 29.839844 32 33C32 36.855469 35.144531 40 39 40C42.855469 40 46 36.855469 46 33C46 29.144531 42.855469 26 39 26L39 19.90625C41.628906 19.4375 44.890625 19 48 19C48.003906 19 48.003906 19 48.003906 19C48.011719 19 48.015625 19 48.019531 19C48.566406 18.988281 49 18.542969 49 18L49 17C49 16.449219 48.554688 16 48 16C41.871094 16 35.601563 16.886719 31.453125 17.476563C29.382813 17.769531 27.75 18 27 18C26.179688 18 24.820313 17.210938 23.277344 15.835938C22.59375 15.230469 21.820313 14.769531 20.996094 14.457031 Z M 40 22L40 24L47 24L47 22 Z M 15.066406 23.246094C16.019531 25.007813 17.140625 27.800781 17.832031 32L15.921875 32C15.542969 29.390625 13.71875 27.242188 11.289063 26.394531 Z M 39 28C41.773438 28 44 30.226563 44 33C44 35.773438 41.773438 38 39 38C36.226563 38 34 35.773438 34 33C34 30.226563 36.226563 28 39 28 Z M 9.117188 28.003906C11.835938 28.070313 14 30.265625 14 33C14 35.773438 11.773438 38 9 38C6.226563 38 4 35.773438 4 33C4 30.277344 6.148438 28.085938 8.855469 28.007813C8.941406 28.019531 9.03125 28.019531 9.117188 28.003906 Z M 9 30C7.347656 30 6 31.347656 6 33C6 34.652344 7.347656 36 9 36C10.652344 36 12 34.652344 12 33C12 31.347656 10.652344 30 9 30 Z M 39 30C37.347656 30 36 31.347656 36 33C36 34.652344 37.347656 36 39 36C40.652344 36 42 34.652344 42 33C42 31.347656 40.652344 30 39 30Z"/></svg>