<svg xmlns="http://www.w3.org/2000/svg" xmlns:xlink="http://www.w3.org/1999/xlink" viewBox="0 0 24 24"><path d="M12 4L12 6L14.382812 6L14.585938 6.4082031C13.99343 6.7445296 13.471723 7.2355007 12.990234 7.6972656C12.322234 8.3372656 11.634 9 11 9C10.173 9 9.7850312 8.716125 9.0820312 8.203125C7.8090312 7.272125 6.065 6 1 6L1 8C1.7673597 8 2.4213416 8.0369879 3.0195312 8.0917969L4.2695312 10L2 10L2 12L5.5800781 12L8.5585938 16.548828 A 1.0001 1.0001 0 0 0 9.3964844 17L17 17C17 18.64501 18.35499 20 20 20C21.64501 20 23 18.64501 23 17C23 15.560616 21.962944 14.342391 20.601562 14.060547L18.765625 11L22 11C22.388 11 22.740297 10.774828 22.904297 10.423828C23.069297 10.072828 23.017531 9.657375 22.769531 9.359375C22.660862 9.2299168 20.213714 6.3504525 16.634766 6.0332031L15.894531 4.5527344 A 1.0001 1.0001 0 0 0 15 4L12 4 z M 16.949219 11.857422L18.496094 14.435547C18.235251 14.592456 17.990901 14.774956 17.787109 15L16.046875 15C16.180166 13.596519 16.576476 12.569859 16.949219 11.857422 z M 4 14C2.3549904 14 1 15.35499 1 17C1 18.64501 2.3549904 20 4 20C5.6450096 20 7 18.64501 7 17C7 15.35499 5.6450096 14 4 14 z M 4 16C4.5641294 16 5 16.435871 5 17C5 17.564129 4.5641294 18 4 18C3.4358706 18 3 17.564129 3 17C3 16.435871 3.4358706 16 4 16 z M 19.894531 16.019531 A 1.0001 1.0001 0 0 0 20.119141 16.023438C20.621114 16.082696 21 16.478489 21 17C21 17.564129 20.564129 18 20 18C19.435871 18 19 17.564129 19 17C19 16.473517 19.385303 16.072545 19.894531 16.019531 z"/></svg>