<?xml version="1.0" encoding="utf-8"?><svg version="1.1" id="Layer_1" xmlns="http://www.w3.org/2000/svg" xmlns:xlink="http://www.w3.org/1999/xlink" x="0px" y="0px" viewBox="0 0 122.88 85.22" style="enable-background:new 0 0 122.88 85.22" xml:space="preserve"><style type="text/css">.st0{fill-rule:evenodd;clip-rule:evenodd;}</style><g><path class="st0" d="M28.84,12.93l4.75,0.09L23.08,47.67c1.45,0.36,2.82,0.79,4.11,1.28c-1.27-0.48-2.61-0.9-4.03-1.26 C13.94,45.62,6.32,48.64,0,55.82l7.87,3.71l33.43,15.77c0.26-2.05,0.38-3.97,0.34-5.78c0.01,0.26,0.03,0.53,0.03,0.8h38.37 c0.01,8.23,6.69,14.89,14.92,14.89s14.91-6.67,14.92-14.89h12.56c0.87-17.07-7.19-30.2-21.31-31.46h19c1.51,0,2.74-1.24,2.74-2.74 v-3.01c0-1.49-1.22-2.7-2.7-2.7h-0.24V9.79c0-1.35-1.11-2.46-2.46-2.46h-35.4c-1.35,0-2.46,1.11-2.46,2.46V30.4h-17.5 c-1.85-0.06-2.83,0.78-2.84,2.63v5.84h0v3.82c7.88,6.2,9.08,15.89,1.89,21.35H49.5c-0.3-9.29-5.61-14.95-14.43-21.21l5.26-16.21 c2.17-5.04,0.74-8.86-2.43-11.53c0.99-3.18,1.7-5.9,1.48-8.12l5.51,1.14c1.79,0.37,2.25,1.01,2.83-0.72 c0.1-0.3,0.18-0.59,0.23-0.89c0.45-2.37,0.17-2.21-1.75-2.58l-5.88-1.14h-1.75l-2.16-1.21c-1.29-0.74-2.63-1.18-4-1.36l-1.89-0.12 c-1.94,0-4.12-0.54-5.24,1.25c-0.02,0.03-0.03,0.14-0.04,0.3c-0.79,0.27-1.47,0.86-1.98,1.67c-0.63,0.98-1.01,2.32-1.01,3.78 c0,1.46,0.39,2.8,1.01,3.78c0.7,1.1,1.71,1.8,2.87,1.83C26.8,13.18,27.86,12.91,28.84,12.93L28.84,12.93L28.84,12.93z M103.13,24.37h12.46v2.19h-12.46V24.37L103.13,24.37z M93.66,9.48h9v9.78l-4.72-3.66l-4.28,3.66V9.48L93.66,9.48z M103.13,30.07 h12.46v2.19h-12.46V30.07L103.13,30.07z M7.91,59.56l13.3,6.3l-4.32-1.98c-2.97,0.63-5.19,3.27-5.19,6.42 c0,3.63,2.94,6.57,6.57,6.57c3.63,0,6.57-2.94,6.57-6.57c0-1.12-0.28-2.17-0.77-3.1l9.08,4.3c-0.61,7.68-7.04,13.72-14.87,13.72 c-8.24,0-14.92-6.68-14.92-14.92C3.34,66.08,5.09,62.27,7.91,59.56L7.91,59.56L7.91,59.56z M25.27,4.2 c0.06,1.92,0.19,4.39,0.28,6.05c-0.16-0.14-0.32-0.32-0.46-0.55c-0.42-0.65-0.67-1.58-0.67-2.62s0.26-1.97,0.67-2.62 C25.15,4.37,25.21,4.28,25.27,4.2L25.27,4.2z M88.4,70.32h13.14c-0.01,3.62-2.95,6.54-6.57,6.54S88.41,73.94,88.4,70.32L88.4,70.32 L88.4,70.32z"/></g></svg>