<svg xmlns="http://www.w3.org/2000/svg" xmlns:xlink="http://www.w3.org/1999/xlink" viewBox="0 0 50 50"><path d="M35.15625 5.28125C32.085938 5.28125 29.6875 6.820313 29.6875 8.8125C29.6875 10.804688 32.085938 12.375 35.15625 12.375C36.398438 12.375 37.257813 12.121094 37.8125 11.5625C38.535156 10.839844 38.503906 9.886719 38.5 9.03125L38.5 8.625C38.503906 7.773438 38.535156 6.816406 37.8125 6.09375C37.257813 5.535156 36.398438 5.28125 35.15625 5.28125 Z M 27.71875 9.15625C25.804688 9.988281 25.625 10.0625 25.5625 10.09375C24.328125 10.6875 24.054688 11.683594 24.21875 12.40625C24.480469 13.554688 25.863281 14.28125 27.21875 13.96875C28.011719 13.785156 28.890625 13.238281 29.5625 12.71875C30.851563 16.5625 32.097656 22.957031 29.71875 26.46875C28.570313 28.167969 26.703125 29 24 29L22.5625 29C21.09375 29 20.113281 28.90625 19.6875 28.34375C19.320313 27.855469 19.066406 26.613281 19.875 23.625C17.980469 24.589844 14.746094 25 9.90625 25C5.78125 25 2.863281 24.679688 0.9375 23.96875C0.4375 25.316406 0 27.058594 0 29C0 35.804688 20.789063 36 23.15625 36C25.3125 36 27.28125 35.863281 29.125 35.625C29.039063 35.132813 29 34.59375 29 34C29 27.957031 34.109375 23.03125 40.40625 23.03125C40.460938 23.03125 40.539063 23.0625 40.59375 23.0625C40.359375 22.699219 40.082031 22.289063 39.78125 21.84375C38.539063 20 36.832031 17.4375 35.5 14.34375C35.386719 14.347656 35.273438 14.375 35.15625 14.375C32.015625 14.375 29.449219 13.074219 28.3125 11.125L28.28125 11.09375C27.945313 10.503906 27.769531 9.84375 27.71875 9.15625 Z M 2.78125 17C1.214844 17 0 18.8125 0 20.375C0 21.027344 -0.0117188 23 9.90625 23C20 23 20 21.027344 20 20.375C20 18.8125 18.785156 17 17.21875 17 Z M 40.40625 25.03125C35.214844 25.03125 31 29.0625 31 34C31 37.304688 32.632813 38 34 38C34.511719 38 34.902344 37.875 35.21875 37.6875C35.976563 40.734375 38.722656 43 42 43C45.859375 43 49 39.859375 49 36C49 34.921875 48.75 33.859375 48.28125 32.90625C49.09375 32.746094 50 32.261719 50 30.71875C50 28.335938 46.660156 25.03125 40.40625 25.03125 Z M 44.625 33C45.46875 33.730469 46 34.796875 46 36C46 38.207031 44.207031 40 42 40C39.792969 40 38 38.207031 38 36C38 35.6875 38.023438 35.382813 38.09375 35.09375C38.664063 34.738281 39.410156 34.367188 40.375 33.96875C42.0625 33.273438 43.453125 33.0625 44.625 33 Z M 42 34C40.894531 34 40 34.894531 40 36C40 37.105469 40.894531 38 42 38C43.105469 38 44 37.105469 44 36C44 34.894531 43.105469 34 42 34 Z M 3.0625 35.03125C3.019531 35.347656 3 35.679688 3 36C3 39.859375 6.140625 43 10 43C13.242188 43 15.957031 40.777344 16.75 37.78125C15.753906 37.714844 14.726563 37.644531 13.6875 37.53125C13.085938 38.984375 11.667969 40 10 40C7.828125 40 6.050781 38.253906 6 36.09375C4.953125 35.792969 3.964844 35.433594 3.0625 35.03125 Z M 8.125 36.625C8.390625 37.421875 9.117188 38 10 38C10.628906 38 11.195313 37.703125 11.5625 37.25C10.398438 37.082031 9.246094 36.871094 8.125 36.625Z"/></svg>