<svg xmlns="http://www.w3.org/2000/svg" xmlns:xlink="http://www.w3.org/1999/xlink" viewBox="0 0 50 50"><path d="M8.1875 0C6.421875 0 5 1.421875 5 3.1875L5 10.90625L5.8125 10.90625C7.03125 10.90625 8.117188 11.476563 8.90625 12.34375C9.675781 8.886719 14.632813 7.1875 24 7.1875C34.558594 7.1875 40.292969 8.992188 41.09375 12.5C41.878906 11.605469 43.03125 11.03125 44.3125 11.03125L45 11.03125L45 3.1875C45 1.421875 43.507813 0 41.6875 0 Z M 24 9.1875C19.160156 9.1875 11.011719 9.710938 10.8125 13.15625L10.09375 18.6875L9.53125 22.78125L9.125 26L8.1875 26C7.855469 26 7.5625 26.039063 7.25 26.09375C7.085938 26.125 6.90625 26.171875 6.75 26.21875C6.625 26.253906 6.496094 26.300781 6.375 26.34375C6.164063 26.421875 5.976563 26.492188 5.78125 26.59375C5.734375 26.617188 5.703125 26.664063 5.65625 26.6875C5.433594 26.816406 5.203125 26.9375 5 27.09375C4.722656 27.308594 4.480469 27.578125 4.25 27.84375C4.207031 27.894531 4.164063 27.917969 4.125 27.96875C3.988281 28.144531 3.863281 28.339844 3.75 28.53125C3.664063 28.675781 3.570313 28.84375 3.5 29C3.453125 29.101563 3.417969 29.207031 3.375 29.3125C3.28125 29.558594 3.183594 29.796875 3.125 30.0625C3.109375 30.125 3.105469 30.1875 3.09375 30.25C3.039063 30.554688 3 30.863281 3 31.1875L3 38L47 38L47 31.1875C47 30.863281 46.960938 30.554688 46.90625 30.25C46.894531 30.1875 46.886719 30.125 46.875 30.0625C46.816406 29.796875 46.75 29.558594 46.65625 29.3125C46.617188 29.207031 46.546875 29.101563 46.5 29C46.429688 28.84375 46.335938 28.675781 46.25 28.53125C46.136719 28.339844 46.015625 28.144531 45.875 27.96875C45.835938 27.917969 45.792969 27.894531 45.75 27.84375C45.519531 27.574219 45.277344 27.308594 45 27.09375C44.796875 26.9375 44.566406 26.816406 44.34375 26.6875C44.296875 26.664063 44.265625 26.617188 44.21875 26.59375C44.023438 26.488281 43.835938 26.421875 43.625 26.34375C43.503906 26.300781 43.378906 26.253906 43.25 26.21875C43.09375 26.171875 42.914063 26.125 42.75 26.09375C42.4375 26.035156 42.140625 26 41.8125 26L40.875 26L40.4375 22.59375L40.03125 19.46875L39.1875 13.25C38.960938 9.402344 26.496094 9.1875 24 9.1875 Z M 24 11.1875C32.429688 11.1875 36.839844 12.683594 37.21875 13.4375L38.21875 21.125C36.738281 21.375 32.34375 22 25 22C17.65625 22 13.261719 21.378906 11.78125 21.125L12.8125 13.34375C12.835938 12.914063 14.894531 11.1875 24 11.1875 Z M 4.1875 12.90625C2.992188 12.90625 1.90625 13.992188 1.90625 15.1875L1.90625 20.6875C1.90625 21.957031 2.972656 23.09375 4.1875 23.09375L5.6875 23.09375C6.957031 23.09375 8.09375 22.03125 8.09375 20.8125L8.09375 15.3125C8.09375 14.042969 7.027344 12.90625 5.8125 12.90625 Z M 44.3125 13.03125C43.054688 13.03125 42.03125 14.054688 42.03125 15.3125L42.03125 20.8125C42.03125 22.074219 43.054688 23.09375 44.3125 23.09375L45.8125 23.09375C47.007813 23.09375 48.09375 22.007813 48.09375 20.8125L48.09375 15.3125C48.09375 14.054688 47.070313 13.03125 45.8125 13.03125 Z M 19.59375 27L30.40625 27C31.09375 27 31.644531 27.40625 31.875 28C31.949219 28.183594 32 28.378906 32 28.59375L32 33.40625C32 34.304688 31.304688 35 30.40625 35L19.59375 35C18.695313 35 18 34.304688 18 33.40625L18 28.59375C18 28.378906 18.054688 28.183594 18.125 28C18.355469 27.40625 18.90625 27 19.59375 27 Z M 8.6875 31L13.3125 31C13.710938 31 14 31.289063 14 31.6875L14 34.3125C14 34.710938 13.710938 35 13.3125 35L8.6875 35C8.289063 35 8 34.710938 8 34.3125L8 31.6875C8 31.289063 8.289063 31 8.6875 31 Z M 36.6875 31L41.3125 31C41.710938 31 42 31.289063 42 31.6875L42 34.3125C42 34.710938 41.710938 35 41.3125 35L36.6875 35C36.289063 35 36 34.710938 36 34.3125L36 31.6875C36 31.289063 36.289063 31 36.6875 31 Z M 3 40L3 45L47 45L47 40 Z M 3 47C3 48.652344 4.347656 50 6 50L10 50C11.652344 50 13 48.652344 13 47 Z M 37 47C37 48.652344 38.347656 50 40 50L44 50C45.652344 50 47 48.652344 47 47Z"/></svg>