<svg xmlns="http://www.w3.org/2000/svg" xmlns:xlink="http://www.w3.org/1999/xlink" viewBox="0 0 50 50"><path d="M10.84375 5L10.71875 5.03125L8.71875 5.625L8.21875 5.75L8.0625 6.25L6.625 10.28125L0.71875 12.03125L0 12.25L0 25.8125L0.8125 25.96875L2 26.21875C1.890625 26.378906 1.773438 26.546875 1.6875 26.71875C1.234375 27.625 1 28.761719 1 30C1 31.238281 1.234375 32.375 1.6875 33.28125C2.140625 34.1875 2.90625 35 4 35L7 35C8.09375 35 8.859375 34.1875 9.3125 33.28125C9.523438 32.855469 9.667969 32.386719 9.78125 31.875L14 32.8125C13.996094 32.875 14 32.933594 14 33C14 34.515625 14.300781 35.882813 14.84375 36.96875C15.386719 38.054688 16.269531 39 17.5 39L21.3125 39C21.179688 39.773438 21.03125 40.8125 21.03125 40.8125C20.976563 41.082031 21.035156 41.363281 21.195313 41.589844C21.355469 41.8125 21.601563 41.960938 21.875 42L46.875 45C47.347656 45.050781 47.792969 44.765625 47.9375 44.3125C47.9375 44.3125 50 38.480469 50 33.8125C50 31.476563 49.457031 29.835938 48.875 28.78125C48.292969 27.726563 47.59375 27.1875 47.59375 27.1875C47.421875 27.0625 47.210938 26.996094 47 27L44.9375 27C44.972656 26.839844 45 26.671875 45 26.5C45 25.132813 43.867188 24 42.5 24C41.132813 24 40 25.132813 40 26.5C40 26.671875 40.027344 26.839844 40.0625 27L39 27L39 23C39 22.449219 38.550781 22 38 22L30 22C29.96875 22 29.9375 22 29.90625 22C29.875 22 29.84375 22 29.8125 22C29.335938 22.089844 28.992188 22.511719 29 23L29 27L27.9375 27C27.972656 26.839844 28 26.671875 28 26.5C28 25.132813 26.867188 24 25.5 24C24.132813 24 23 25.132813 23 26.5C23 26.671875 23.027344 26.839844 23.0625 27L22 27C21.96875 27 21.9375 27 21.90625 27C21.875 27 21.84375 27 21.8125 27C21.496094 27.058594 21.230469 27.269531 21.09375 27.558594C20.957031 27.847656 20.96875 28.1875 21.125 28.46875C21.125 28.46875 22 30.03125 22 32.90625C22 34.085938 21.816406 35.59375 21.625 37L20.125 37C20.132813 36.988281 20.148438 36.980469 20.15625 36.96875C20.699219 35.882813 21 34.515625 21 33C21 31.484375 20.699219 30.117188 20.15625 29.03125C19.613281 27.945313 18.730469 27 17.5 27C16.925781 27 16.421875 27.199219 16 27.53125L16 13.25C16 12.578125 16.5 12.046875 17.15625 12C17.1875 12 17.21875 12 17.25 12L17.40625 12C18.5625 12 19.523438 12.808594 19.75 13.9375L20.34375 18.125C20.40625 18.628906 20.835938 19.003906 21.34375 19L35.78125 19L38.6875 20.15625C39.476563 20.472656 40 21.242188 40 22.09375C39.996094 22.453125 40.183594 22.789063 40.496094 22.972656C40.808594 23.152344 41.191406 23.152344 41.503906 22.972656C41.816406 22.789063 42.003906 22.453125 42 22.09375C42 20.433594 40.980469 18.929688 39.4375 18.3125L36.9375 17.28125L36.4375 13.5625C36.4375 13.550781 36.4375 13.542969 36.4375 13.53125C36.359375 13.070313 36.210938 12.644531 36 12.25L36 5 Z M 12 7L34 7L34 10.40625C33.46875 10.164063 32.894531 10 32.28125 10L17.3125 10C17.28125 10 17.25 10 17.21875 10C17.15625 10.003906 17.09375 10.015625 17.03125 10.03125C15.347656 10.148438 14 11.539063 14 13.25L14 26L12 26 Z M 10 7.34375L10 25.8125L2 24.1875L2 13.75L7.6875 12.03125L8.1875 11.875L8.34375 11.40625L9.75 7.40625 Z M 21.09375 12L32.28125 12C32.972656 12 33.589844 12.3125 34 12.8125L34 12.84375C34.222656 13.121094 34.402344 13.4375 34.46875 13.8125L34.46875 13.84375L34.875 17L22.1875 17L21.75 13.65625C21.75 13.644531 21.75 13.636719 21.75 13.625C21.640625 13.023438 21.414063 12.484375 21.09375 12 Z M 31 24L37 24L37 27L31 27 Z M 25.5 26C25.789063 26 26 26.210938 26 26.5C26 26.789063 25.789063 27 25.5 27C25.210938 27 25 26.789063 25 26.5C25 26.210938 25.210938 26 25.5 26 Z M 42.5 26C42.789063 26 43 26.210938 43 26.5C43 26.789063 42.789063 27 42.5 27C42.210938 27 42 26.789063 42 26.5C42 26.210938 42.210938 26 42.5 26 Z M 4 27C4.011719 27 4.261719 27.082031 4.53125 27.625C4.800781 28.167969 5 29.03125 5 30C5 30.96875 4.800781 31.832031 4.53125 32.375C4.261719 32.917969 4.011719 33 4 33C3.988281 33 3.738281 32.917969 3.46875 32.375C3.199219 31.832031 3 30.96875 3 30C3 29.03125 3.199219 28.167969 3.46875 27.625C3.738281 27.082031 3.988281 27 4 27 Z M 6.46875 27.09375L10.8125 27.96875L10.90625 28L14 28L14 30.75L6.96875 29.1875C6.902344 28.421875 6.726563 27.714844 6.46875 27.09375 Z M 17.5 29C17.648438 29 18.011719 29.183594 18.375 29.90625C18.738281 30.628906 19 31.753906 19 33C19 34.246094 18.738281 35.371094 18.375 36.09375C18.011719 36.816406 17.648438 37 17.5 37C17.351563 37 16.988281 36.816406 16.625 36.09375C16.261719 35.371094 16 34.246094 16 33C16 31.753906 16.261719 30.628906 16.625 29.90625C16.988281 29.183594 17.351563 29 17.5 29 Z M 23.4375 29L46.5625 29C46.652344 29.070313 46.792969 29.152344 47.125 29.75C47.542969 30.503906 48 31.785156 48 33.8125C48 37.410156 46.628906 41.820313 46.28125 42.90625L23.15625 40.125C23.40625 38.820313 24 35.609375 24 32.90625C24 31.265625 23.714844 29.933594 23.4375 29 Z M 6.90625 31.21875L7.84375 31.4375C7.761719 31.800781 7.65625 32.128906 7.53125 32.375C7.261719 32.917969 7.011719 33 7 33L6.4375 33C6.667969 32.464844 6.816406 31.867188 6.90625 31.21875Z"/></svg>