<svg xmlns="http://www.w3.org/2000/svg" xmlns:xlink="http://www.w3.org/1999/xlink" viewBox="0 0 30 30"><path d="M16 7 A 1.0001 1.0001 0 1 0 16 9L17.585938 9L19.189453 10.603516L15 12L11 12C10.278 11.037 9.204 10 8 10L2.5 10 A 1.5 1.5 0 0 0 1 11.5 A 1.5 1.5 0 0 0 2.5 13C4.5174269 13 6.5125881 13.725894 8.265625 14.667969L2.8828125 17.226562L2.96875 17.189453C2.7980047 17.252113 2.6398355 17.32985 2.4960938 17.414062L2.578125 17.371094L2.515625 17.400391 A 1.0001 1.0001 0 0 0 2.0644531 17.824219C1.448771 18.372553 1 19.114488 1 20C1 21.64497 2.3550302 23 4 23L12 23C13.036996 23 13.961721 22.465688 14.498047 21.658203 A 1.0001 1.0001 0 0 0 14.513672 21.634766L16.160156 19L20 19C20.156305 19 20.307604 18.984487 20.460938 18.974609L21.673828 21L19 21 A 1.0001 1.0001 0 1 0 19 23L24.376953 23C26.980118 23 28.705078 21.246094 28.705078 21.246094 A 1.0001 1.0001 0 0 0 28.837891 19.990234L27.837891 18.455078 A 1.0001 1.0001 0 0 0 27 17.988281 A 1.0001 1.0001 0 0 0 26.162109 19.544922L26.646484 20.289062C26.132783 20.62886 25.404915 21 24.376953 21L24.003906 21L22.539062 18.552734C25.544303 17.520621 27.580078 15.041016 27.580078 15.041016L27.580078 15.039062 A 1.5 1.5 0 0 0 28 14 A 1.5 1.5 0 0 0 26.978516 12.580078L26.978516 12.578125L21.728516 10.314453L18.707031 7.2929688 A 1.0001 1.0001 0 0 0 18 7L16 7 z M 10.150391 15.986328L11.994141 17.185547C13.125337 18.109435 13.759437 18.758764 13.876953 18.880859L12.818359 20.576172L12.832031 20.550781C12.652355 20.821295 12.355004 21 12 21L4 21C3.4349698 21 3 20.56503 3 20C3 19.640643 3.1849574 19.343138 3.4667969 19.164062L3.4257812 19.183594 A 1.0001 1.0001 0 0 0 3.46875 19.160156C3.46875 19.160156 3.4707031 19.158203 3.4707031 19.158203 A 1.0001 1.0001 0 0 0 3.9121094 18.068359L4.1074219 18.857422L10.150391 15.986328 z"/></svg>