<svg xmlns="http://www.w3.org/2000/svg" xmlns:xlink="http://www.w3.org/1999/xlink" viewBox="0 0 50 50"><path d="M16.71875 5C13.515625 5.113281 8.851563 6.046875 2.59375 8.8125C2.226563 8.925781 1.957031 9.246094 1.902344 9.625C1.847656 10.007813 2.019531 10.386719 2.339844 10.601563C2.660156 10.8125 3.074219 10.824219 3.40625 10.625C9.476563 7.941406 13.890625 7.101563 16.78125 7C18.226563 6.949219 19.277344 7.082031 19.96875 7.25C20.316406 7.335938 20.574219 7.429688 20.71875 7.5C20.738281 7.507813 20.734375 7.519531 20.75 7.53125C20.769531 7.570313 20.796875 7.601563 20.8125 7.65625C20.863281 7.839844 20.90625 8.101563 20.96875 8.40625C21.09375 9.015625 21.230469 9.804688 21.34375 10.5625C21.539063 11.867188 21.648438 12.777344 21.6875 13.09375C20.898438 13.117188 20.808594 13.117188 19.875 13.15625C18.566406 13.207031 17.21875 13.253906 16.125 13.34375C15.578125 13.386719 15.089844 13.441406 14.6875 13.5C14.285156 13.558594 14.046875 13.5625 13.625 13.78125C12.195313 14.53125 11.222656 15.980469 10.375 17.5C9.90625 18.339844 9.507813 19.1875 9.125 20C8.742188 19.320313 8.117188 19 7.875 19C7.355469 19 5.5625 19.558594 5.40625 19.6875C5.25 19.816406 5 21.003906 5 21.34375C5 21.683594 5.695313 21.96875 6.09375 21.96875C6.351563 21.96875 7.300781 21.992188 8.15625 22C8.003906 22.210938 7.644531 22.597656 7.125 23.09375C6.511719 23.683594 5.765625 24.398438 5.15625 25.3125C4.570313 26.1875 4 27.855469 4 31C4 31.375 4.011719 31.820313 4.03125 32.25L4 32.25L4 43C4 44.09375 4.90625 45 6 45L10 45C11.09375 45 12 44.09375 12 43L12 41.46875C15.15625 41.75 19.386719 42 25 42C30.613281 42 34.84375 41.75 38 41.46875L38 43C38 44.09375 38.90625 45 40 45L44 45C45.09375 45 46 44.09375 46 43L46 32.25L45.96875 32.25C45.988281 31.820313 46 31.375 46 31C46 27.855469 45.429688 26.1875 44.84375 25.3125C44.234375 24.398438 43.488281 23.683594 42.875 23.09375C42.355469 22.597656 41.996094 22.210938 41.84375 22C42.699219 21.992188 43.648438 21.96875 43.90625 21.96875C44.304688 21.96875 45 21.683594 45 21.34375C45 21.003906 44.75 19.816406 44.59375 19.6875C44.4375 19.558594 42.644531 19 42.125 19C41.882813 19 41.257813 19.320313 40.875 20C40.492188 19.1875 40.09375 18.339844 39.625 17.5C38.777344 15.980469 37.804688 14.53125 36.375 13.78125C35.953125 13.5625 35.714844 13.558594 35.3125 13.5C34.910156 13.441406 34.421875 13.386719 33.875 13.34375C32.78125 13.253906 31.433594 13.207031 30.125 13.15625C29.191406 13.117188 29.101563 13.117188 28.3125 13.09375C28.351563 12.777344 28.460938 11.867188 28.65625 10.5625C28.769531 9.804688 28.90625 9.015625 29.03125 8.40625C29.09375 8.101563 29.136719 7.839844 29.1875 7.65625C29.203125 7.601563 29.230469 7.570313 29.25 7.53125C29.265625 7.519531 29.261719 7.507813 29.28125 7.5C29.425781 7.429688 29.683594 7.335938 30.03125 7.25C30.722656 7.082031 31.773438 6.949219 33.21875 7C36.109375 7.101563 40.523438 7.941406 46.59375 10.625C46.925781 10.824219 47.339844 10.8125 47.660156 10.601563C47.980469 10.386719 48.152344 10.007813 48.097656 9.625C48.042969 9.246094 47.773438 8.925781 47.40625 8.8125C41.148438 6.046875 36.484375 5.113281 33.28125 5C31.679688 4.945313 30.441406 5.089844 29.53125 5.3125C29.078125 5.421875 28.714844 5.570313 28.40625 5.71875C28.097656 5.867188 27.859375 5.945313 27.59375 6.34375C27.386719 6.652344 27.355469 6.863281 27.28125 7.125C27.207031 7.386719 27.128906 7.664063 27.0625 8C26.925781 8.667969 26.804688 9.472656 26.6875 10.25C26.472656 11.675781 26.339844 12.816406 26.3125 13.03125C26.035156 13.023438 25.03125 13 25.03125 13L24.96875 13C24.96875 13 23.964844 13.023438 23.6875 13.03125C23.660156 12.816406 23.527344 11.675781 23.3125 10.25C23.195313 9.472656 23.074219 8.667969 22.9375 8C22.871094 7.664063 22.792969 7.386719 22.71875 7.125C22.644531 6.863281 22.613281 6.652344 22.40625 6.34375C22.140625 5.945313 21.902344 5.867188 21.59375 5.71875C21.285156 5.570313 20.921875 5.421875 20.46875 5.3125C19.558594 5.089844 18.320313 4.945313 16.71875 5 Z M 24.96875 15C24.96875 15 25.03125 15 25.03125 15C25.089844 15 27.472656 15.054688 30.03125 15.15625C31.324219 15.207031 32.675781 15.257813 33.71875 15.34375C34.242188 15.386719 34.671875 15.453125 35 15.5C35.21875 15.53125 35.414063 15.585938 35.46875 15.59375C36.214844 16 37.109375 17.101563 37.875 18.46875C38.152344 18.964844 38.402344 19.476563 38.65625 20L11.34375 20C11.597656 19.476563 11.847656 18.964844 12.125 18.46875C12.882813 17.113281 13.757813 16.011719 14.5 15.59375C14.496094 15.59375 14.527344 15.597656 14.53125 15.59375C14.585938 15.585938 14.78125 15.53125 15 15.5C15.328125 15.453125 15.757813 15.386719 16.28125 15.34375C17.324219 15.257813 18.675781 15.207031 19.96875 15.15625C22.527344 15.054688 24.910156 15 24.96875 15 Z M 10.40625 22L39.59375 22C39.703125 22.234375 39.832031 22.5 39.9375 22.71875C40.304688 23.484375 40.894531 23.949219 41.5 24.53125C41.894531 24.910156 42.296875 25.324219 42.65625 25.75C42.613281 25.746094 42.578125 25.742188 42.53125 25.75C37.328125 26.589844 37.292969 26.792969 36 27.875C36 27.875 36.554688 28.179688 37.53125 28.75C38.089844 29.078125 38.820313 29 39.34375 28.96875C39.867188 28.9375 40.921875 28.855469 42.3125 28.71875C43.683594 28.585938 43.53125 28.011719 43.4375 27.375C43.417969 27.234375 43.371094 26.960938 43.3125 26.6875C43.574219 27.226563 44 28.519531 44 31C44 32.929688 43.621094 36.214844 43.375 38.09375C43.316406 38.546875 42.980469 38.902344 42.53125 38.96875C41.460938 39.125 39.660156 39.339844 37.375 39.53125L34.59375 36.375C33.835938 35.507813 32.746094 35 31.59375 35L18.40625 35C17.253906 35 16.164063 35.507813 15.40625 36.375L12.625 39.53125C10.339844 39.339844 8.539063 39.125 7.46875 38.96875C7.019531 38.902344 6.683594 38.546875 6.625 38.09375C6.378906 36.214844 6 32.929688 6 31C6 28.519531 6.425781 27.226563 6.6875 26.6875C6.628906 26.960938 6.582031 27.234375 6.5625 27.375C6.46875 28.011719 6.316406 28.585938 7.6875 28.71875C9.078125 28.855469 10.132813 28.9375 10.65625 28.96875C11.179688 29 11.910156 29.078125 12.46875 28.75C13.445313 28.179688 14 27.875 14 27.875C12.707031 26.792969 12.671875 26.589844 7.46875 25.75C7.421875 25.742188 7.386719 25.746094 7.34375 25.75C7.703125 25.324219 8.105469 24.910156 8.5 24.53125C9.105469 23.949219 9.695313 23.484375 10.0625 22.71875C10.167969 22.5 10.296875 22.234375 10.40625 22 Z M 23.6875 27.875C21.277344 27.921875 16.289063 28.128906 15 29C15 29 22.195313 29.226563 23.15625 29.625C24.117188 30.023438 25 31 25 31C25 31 25.882813 30.023438 26.84375 29.625C27.804688 29.226563 35 29 35 29C33.28125 27.839844 25 27.875 25 27.875C25 27.875 24.492188 27.859375 23.6875 27.875 Z M 18.40625 37L31.59375 37C32.171875 37 32.714844 37.253906 33.09375 37.6875L34.84375 39.6875C32.140625 39.855469 28.945313 40 25 40C21.054688 40 17.859375 39.855469 15.15625 39.6875L16.90625 37.6875C17.285156 37.253906 17.828125 37 18.40625 37 Z M 6 40.46875C6.351563 40.695313 6.753906 40.875 7.1875 40.9375C7.878906 41.039063 8.835938 41.15625 10 41.28125L10 43L6 43 Z M 44 40.46875L44 43L40 43L40 41.28125C41.164063 41.15625 42.121094 41.039063 42.8125 40.9375C43.246094 40.875 43.648438 40.695313 44 40.46875Z"/></svg>