<svg xmlns="http://www.w3.org/2000/svg" xmlns:xlink="http://www.w3.org/1999/xlink" viewBox="0 0 50 50"><path d="M25 0C21.820313 0 19.257813 0.234375 17.375 0.78125C16.433594 1.054688 15.644531 1.394531 15.03125 1.90625C14.417969 2.417969 14 3.1875 14 4C13.996094 4.359375 14.183594 4.695313 14.496094 4.878906C14.808594 5.058594 15.191406 5.058594 15.503906 4.878906C15.816406 4.695313 16.003906 4.359375 16 4C16 3.8125 16.027344 3.707031 16.3125 3.46875C16.597656 3.230469 17.160156 2.945313 17.9375 2.71875C18.523438 2.546875 19.269531 2.394531 20.09375 2.28125L20.9375 7.21875C17.660156 7.578125 14.917969 8.367188 12.8125 9.40625C9.886719 10.847656 8 12.789063 8 15L8 38.28125C8 41.371094 10.191406 43.960938 13.125 44.75L8.9375 48.25C8.632813 48.46875 8.476563 48.839844 8.535156 49.207031C8.59375 49.578125 8.851563 49.882813 9.210938 50C9.566406 50.113281 9.957031 50.015625 10.21875 49.75L15.90625 45L34.09375 45L39.78125 49.75C40.042969 50.015625 40.433594 50.113281 40.789063 50C41.148438 49.882813 41.40625 49.578125 41.464844 49.207031C41.523438 48.839844 41.367188 48.46875 41.0625 48.25L36.875 44.75C39.808594 43.960938 42 41.371094 42 38.28125L42 15C42 12.789063 40.113281 10.847656 37.1875 9.40625C35.082031 8.367188 32.339844 7.578125 29.0625 7.21875L29.90625 2.28125C30.730469 2.394531 31.476563 2.546875 32.0625 2.71875C32.839844 2.945313 33.402344 3.230469 33.6875 3.46875C33.972656 3.707031 34 3.8125 34 4C33.996094 4.359375 34.183594 4.695313 34.496094 4.878906C34.808594 5.058594 35.191406 5.058594 35.503906 4.878906C35.816406 4.695313 36.003906 4.359375 36 4C36 3.1875 35.582031 2.417969 34.96875 1.90625C34.355469 1.394531 33.566406 1.054688 32.625 0.78125C30.742188 0.234375 28.179688 0 25 0 Z M 25 2C26.042969 2 26.988281 2.035156 27.875 2.09375L27.0625 7.03125C26.394531 6.996094 25.707031 7 25 7C24.292969 7 23.605469 6.996094 22.9375 7.03125L22.125 2.09375C23.011719 2.035156 23.957031 2 25 2 Z M 25 9C29.871094 9 33.738281 9.949219 36.3125 11.21875C38.886719 12.488281 40 14.058594 40 15L40 38.28125C40 40.867188 37.796875 43 35 43L15 43C12.203125 43 10 40.867188 10 38.28125L10 15C10 14.058594 11.113281 12.488281 13.6875 11.21875C16.261719 9.949219 20.128906 9 25 9 Z M 19 12C17.914063 12 17 12.914063 17 14L17 16L15 16C13.398438 16 12 17.242188 12 18.84375L12 27.15625C12 28.757813 13.398438 30 15 30L35 30C36.601563 30 38 28.757813 38 27.15625L38 18.84375C38 17.242188 36.601563 16 35 16L33 16L33 14C33 12.914063 32.085938 12 31 12 Z M 19 14L31 14L31 16L19 16 Z M 15 18L35 18C35.609375 18 36 18.421875 36 18.84375L36 27.15625C36 27.578125 35.609375 28 35 28L15 28C14.390625 28 14 27.578125 14 27.15625L14 18.84375C14 18.421875 14.390625 18 15 18 Z M 16 33.0625C13.832031 33.0625 12.0625 34.832031 12.0625 37C12.0625 39.167969 13.832031 40.9375 16 40.9375C18.167969 40.9375 19.9375 39.167969 19.9375 37C19.9375 34.832031 18.167969 33.0625 16 33.0625 Z M 34 33.0625C31.832031 33.0625 30.0625 34.832031 30.0625 37C30.0625 39.167969 31.832031 40.9375 34 40.9375C36.167969 40.9375 37.9375 39.167969 37.9375 37C37.9375 34.832031 36.167969 33.0625 34 33.0625 Z M 16 34.9375C17.144531 34.9375 18.0625 35.855469 18.0625 37C18.0625 38.144531 17.144531 39.0625 16 39.0625C14.855469 39.0625 13.9375 38.144531 13.9375 37C13.9375 35.855469 14.855469 34.9375 16 34.9375 Z M 34 34.9375C35.144531 34.9375 36.0625 35.855469 36.0625 37C36.0625 38.144531 35.144531 39.0625 34 39.0625C32.855469 39.0625 31.9375 38.144531 31.9375 37C31.9375 35.855469 32.855469 34.9375 34 34.9375Z"/></svg>