<svg xmlns="http://www.w3.org/2000/svg" xmlns:xlink="http://www.w3.org/1999/xlink" viewBox="0 0 50 50"><path d="M2.9902344 1.9902344 A 1.0001 1.0001 0 0 0 2.2929688 3.7070312L46.292969 47.707031 A 1.0001 1.0001 0 1 0 47.707031 46.292969L44.431641 43.017578C45.186421 42.190037 45.713427 41.153002 45.908203 40L47 40C48.542 40 50 38.542 50 37L50 27.400391C50 25.441391 48.580391 23.358516 48.400391 23.103516L44.28125 17.576172C43.51225 16.614172 41.933 15 40 15L32 15C31.656 15 31.32 15.081938 31 15.210938L31 10.900391C31 9.3553906 29.644609 8 28.099609 8L9.4140625 8L3.7070312 2.2929688 A 1.0001 1.0001 0 0 0 2.9902344 1.9902344 z M 2.8007812 8C1.2567813 8 -5.9211895e-16 9.2567812 0 10.800781L0 37C0 38.654 1.346 40 3 40L7.0839844 40C7.2561215 41.128645 7.7160789 42.217454 8.5019531 43.101562C9.5185588 44.245244 11.083334 45 13 45C15.960386 45 18.427922 42.828339 18.908203 40L29 40L31 40L34.089844 40C34.567844 42.833 37.032 45 40 45C40.243 45 40.476891 44.964547 40.712891 44.935547L38.470703 42.693359C37.493703 42.287359 36.712641 41.506297 36.306641 40.529297L33.777344 38L31 38L31 35.222656L29 33.222656L29 38L18.908203 38C18.427922 35.171661 15.960386 33 13 33C11.083334 33 9.5185588 33.754756 8.5019531 34.898438C7.7160789 35.782546 7.2561215 36.871355 7.0839844 38L3 38C2.448 38 2 37.551 2 37L2 10.800781C2 10.352781 2.3527813 10 2.8007812 10L5.7773438 10L3.7773438 8L2.8007812 8 z M 11.414062 10L28.099609 10C28.545609 10 29 10.454391 29 10.900391L29 18L29 27.585938L11.414062 10 z M 32 17L36 17L36 26C36 27.542 37.458 29 39 29L48 29L48 37C48 37.449 47.448 38 47 38L45.910156 38C45.432156 35.167 42.968 33 40 33C38.449389 33 37.049812 33.603753 35.988281 34.574219L31 29.585938L31 18C31 17.551 31.552 17 32 17 z M 38 17L40 17C40.789 17 41.805266 17.682828 42.697266 18.798828L46.779297 24.273438C47.080297 24.702437 47.80675 25.935 47.96875 27L39 27C38.552 27 38 26.449 38 26L38 17 z M 13 35C15.220986 35 17 36.779015 17 39C17 41.220985 15.220986 43 13 43C11.583334 43 10.648107 42.504756 9.9980469 41.773438C9.3479866 41.042119 9 40.027778 9 39C9 37.972222 9.3479866 36.957881 9.9980469 36.226562C10.648107 35.495244 11.583334 35 13 35 z M 40 35C42.206 35 44 36.794 44 39C44 39.998393 43.622847 40.901863 43.013672 41.599609L37.400391 35.986328C38.097958 35.377346 39.001029 35 40 35 z"/></svg>