<svg xmlns="http://www.w3.org/2000/svg" xmlns:xlink="http://www.w3.org/1999/xlink" viewBox="0 0 50 50"><path d="M2.9902344 1.9902344 A 1.0001 1.0001 0 0 0 2.2929688 3.7070312L46.292969 47.707031 A 1.0001 1.0001 0 1 0 47.707031 46.292969L44.431641 43.017578C45.186337 42.190083 45.71522 41.155276 45.910156 40.001953L47 40.001953C48.542 40.001953 50 38.543953 50 37.001953L50 27.400391C50 25.440391 48.580391 23.358516 48.400391 23.103516L44.28125 17.576172C43.51225 16.614172 41.933 15 40 15L33 15L33 31.585938L31 29.585938L31 10.900391C31 9.3553906 29.644609 8 28.099609 8L9.4140625 8L3.7070312 2.2929688 A 1.0001 1.0001 0 0 0 2.9902344 1.9902344 z M 2.7988281 8C0.82882813 8.156 0 9.765625 0 10.890625L0 37C0 38.654 1.346 40 3 40L7.0839844 40C7.2561215 41.128645 7.7160789 42.217454 8.5019531 43.101562C9.5185588 44.245244 11.083334 45 13 45C15.960386 45 18.427922 42.828339 18.908203 40L31 40L31 35.216797L3.7832031 8L2.7988281 8 z M 38 17L40 17C40.789 17 41.805266 17.682828 42.697266 18.798828L46.779297 24.273438C47.080297 24.705437 47.804797 25.940953 47.966797 27.001953L39 27.001953C38.552 27.000953 38 26.448 38 26L38 17 z M 13 35C15.220986 35 17 36.779015 17 39C17 41.220985 15.220986 43 13 43C11.583334 43 10.648107 42.504756 9.9980469 41.773438C9.3479866 41.042119 9 40.027778 9 39C9 37.972222 9.3479866 36.957881 9.9980469 36.226562C10.648107 35.495244 11.583334 35 13 35 z M 40 35C42.206 35 44 36.794 44 39C44 39.998803 43.622779 40.901784 43.013672 41.599609L37.400391 35.986328C38.098216 35.377221 39.001197 35 40 35 z M 33 37.216797L33 40L34.089844 40C34.567844 42.833 37.032 45 40 45C40.245 45 40.48175 44.964547 40.71875 44.935547L38.478516 42.695312C37.494516 42.289313 36.708734 41.503531 36.302734 40.519531L33 37.216797 z"/></svg>