<svg xmlns="http://www.w3.org/2000/svg" xmlns:xlink="http://www.w3.org/1999/xlink" viewBox="0 0 50 50"><path d="M31.046875 0.001953125C30.687687 -0.00175 30.322297 0.058453125 29.966797 0.18945312C26.763797 1.3694531 23.237203 1.3694531 20.033203 0.18945312C18.609203 -0.33154688 17.026172 0.2708125 16.326172 1.6328125C15.941172 2.3828125 15.894219 3.2637812 16.199219 4.0507812C16.498219 4.8217812 17.110859 5.4297969 17.880859 5.7167969C19.858859 6.4557969 21.924 6.8550312 24 6.9570312L24 13L23 13C22.447 13 22 13.447 22 14L22 30.585938L17.974609 26.560547C18.596609 26.042547 19.273 25.587844 20 25.214844L20 20.875C14.183 22.941 10 28.484 10 35C10 43.271 16.729 50 25 50C33.271 50 40 43.271 40 35C40 28.484 35.817 22.941 30 20.875L30 25.214844C30.727 25.587844 31.403391 26.042547 32.025391 26.560547L28 30.585938L28 14C28 13.447 27.553 13 27 13L26 13L26 6.9570312C28.076 6.8550312 30.141141 6.4557969 32.119141 5.7167969C32.889141 5.4297969 33.501781 4.8217812 33.800781 4.0507812C34.105781 3.2637813 34.059297 2.38275 33.654297 1.59375C33.144297 0.6015 32.124437 0.0130625 31.046875 0.001953125 z M 16.556641 27.96875L21.566406 32.980469C21.718406 32.722469 21.908328 32.492344 22.111328 32.277344C22.865328 31.477344 23.949781 30.997719 25.050781 31.011719C26.118781 31.024719 27.160625 31.501344 27.890625 32.277344C28.093625 32.492344 28.281594 32.723469 28.433594 32.980469L33.445312 27.96875C34.838313 29.63375 35.741219 31.717 35.949219 34L28.859375 34C28.942375 34.322 29 34.653 29 35C29 35.347 28.941422 35.678 28.857422 36L35.949219 36C35.742219 38.283 34.837266 40.365203 33.447266 42.033203L28.433594 37.019531C28.088594 37.604531 27.603531 38.088594 27.019531 38.433594L32.033203 43.447266C30.366203 44.838266 28.283 45.742219 26 45.949219L26 38.857422C25.678 38.941422 25.347 39 25 39C24.653 39 24.322 38.941422 24 38.857422L24 45.949219C21.717 45.742219 19.634797 44.837266 17.966797 43.447266L22.980469 38.433594C22.395469 38.088594 21.911406 37.603531 21.566406 37.019531L16.552734 42.033203C15.161734 40.365203 14.257781 38.283 14.050781 36L21.142578 36C21.058578 35.678 21 35.347 21 35C21 34.653 21.058578 34.322 21.142578 34L14.050781 34C14.257781 31.717 15.163641 29.63475 16.556641 27.96875 z M 25 33 A 2 2 0 0 0 25 37 A 2 2 0 0 0 25 33 z"/></svg>