<svg xmlns="http://www.w3.org/2000/svg" xmlns:xlink="http://www.w3.org/1999/xlink" viewBox="0 0 50 50"><path d="M18.966797 0.00390625C17.896138 0.012428672 16.864615 0.58758364 16.347656 1.5917969C16.347656 1.5917969 16.345703 1.59375 16.345703 1.59375C16.341403 1.60228 16.329577 1.6271164 16.335938 1.6152344L16.330078 1.6230469L16.326172 1.6328125C15.539891 3.1635067 16.244065 5.1064153 17.880859 5.7167969C19.856077 6.454163 21.924269 6.8078368 24 6.9101562L24 13L23 13 A 1.0001 1.0001 0 0 0 22 14L22 20.314453C15.155493 21.708084 10 27.756072 10 35C10 43.272438 16.727562 50 25 50C33.272438 50 40 43.272438 40 35C40 27.755093 34.844773 21.707404 28 20.314453L28 14 A 1.0001 1.0001 0 0 0 27 13L26 13L26 6.9101562C28.075786 6.8078375 30.143529 6.454141 32.119141 5.7167969C33.755935 5.1064153 34.460225 3.1635051 33.673828 1.6328125L33.654297 1.59375C32.965765 0.25292497 31.358985 -0.32338061 29.966797 0.18945312C26.763145 1.3692046 23.235748 1.3691411 20.033203 0.18945312C19.685383 0.06132845 19.323683 0.0010654425 18.966797 0.00390625 z M 18.974609 1.9960938C19.094301 1.9970391 19.218844 2.0191596 19.341797 2.0644531C22.991252 3.4087651 27.007855 3.4087017 30.658203 2.0644531C31.150015 1.8832869 31.651532 2.0706831 31.875 2.5058594L31.894531 2.5449219L31.894531 2.546875C32.154134 3.0521824 31.939131 3.6481785 31.419922 3.8417969C27.283779 5.3855018 22.715137 5.3854509 18.580078 3.8417969C18.060873 3.6481785 17.845866 3.0521824 18.105469 2.546875C18.111269 2.535649 18.124147 2.5105135 18.117188 2.5234375L18.121094 2.515625L18.125 2.5058594C18.236746 2.2882715 18.418279 2.1332976 18.632812 2.0546875C18.74008 2.0153825 18.854918 1.9951484 18.974609 1.9960938 z M 24 15L26 15L26 32.173828C25.686906 32.070231 25.355079 32 25 32C24.644921 32 24.313094 32.070231 24 32.173828L24 15 z M 22 22.355469L22 24.419922C17.382476 25.728711 14 29.976251 14 35C14 41.063407 18.936593 46 25 46C31.063407 46 36 41.063407 36 35C36 29.975659 32.616937 25.728405 28 24.419922L28 22.357422C33.730525 23.711905 38 28.843292 38 35C38 42.191562 32.191562 48 25 48C17.808438 48 12 42.191562 12 35C12 28.84389 16.268319 23.709925 22 22.355469 z M 22 26.546875L22 30.585938L19.466797 28.052734C20.237716 27.437562 21.076006 26.910219 22 26.546875 z M 28 26.546875C28.923649 26.910661 29.76264 27.438023 30.533203 28.052734L28 30.585938L28 26.546875 z M 17.984375 29.398438L22.287109 33.701172C22.242346 33.800185 22.195703 33.897676 22.162109 34L16.175781 34C16.373066 32.278547 16.95862 30.681945 17.984375 29.398438 z M 32.015625 29.398438C33.041225 30.681724 33.626848 32.27863 33.824219 34L27.837891 34C27.804297 33.897676 27.757654 33.800185 27.712891 33.701172L32.015625 29.398438 z M 25 34C25.416666 34 25.601893 34.120244 25.751953 34.289062C25.902014 34.457881 26 34.722222 26 35C26 35.277778 25.90201 35.542119 25.751953 35.710938C25.601893 35.879756 25.416666 36 25 36C24.583334 36 24.398107 35.879756 24.248047 35.710938C24.097986 35.542119 24 35.277778 24 35C24 34.722222 24.097986 34.457881 24.248047 34.289062C24.398107 34.120244 24.583334 34 25 34 z M 16.201172 36L22.162109 36C22.195703 36.102324 22.242346 36.199815 22.287109 36.298828L18.0625 40.523438C17.044126 39.243878 16.398889 37.713852 16.201172 36 z M 27.837891 36L33.798828 36C33.601111 37.713852 32.955874 39.243878 31.9375 40.523438L27.712891 36.298828C27.757654 36.199815 27.804297 36.102324 27.837891 36 z M 23.693359 37.720703C23.790496 37.764695 23.896633 37.791969 24 37.826172L24 43.798828C22.286148 43.601111 20.756122 42.955874 19.476562 41.9375L23.693359 37.720703 z M 26.306641 37.720703L30.523438 41.9375C29.243877 42.955874 27.713852 43.601111 26 43.798828L26 37.826172C26.103367 37.791969 26.209504 37.764695 26.306641 37.720703 z"/></svg>