<svg xmlns="http://www.w3.org/2000/svg" xmlns:xlink="http://www.w3.org/1999/xlink" viewBox="0 0 50 50"><path d="M44.667969 21.257813C44.484375 21.089844 44.246094 21 44 21L35.589844 21L38.402344 15.371094C38.867188 14.449219 38.824219 13.371094 38.292969 12.484375C38.183594 12.300781 35.558594 8 32 8C31.90625 8 31.816406 8.011719 31.730469 8.039063L22.023438 10.777344C20.988281 10.984375 20.0625 11.605469 19.480469 12.480469L14.167969 20.445313C14.136719 20.496094 14.125 20.550781 14.101563 20.605469L7.386719 21.667969C6.023438 21.972656 4.976563 23.105469 4.792969 24.40625L4.023438 27.78125C3.957031 28.074219 4.027344 28.386719 4.21875 28.625C4.40625 28.859375 4.695313 29 5 29L8 29L8 30.089844C5.167969 30.566406 3 33.03125 3 36C3 39.308594 5.691406 42 9 42C12.308594 42 15 39.308594 15 36C15 35.296875 14.871094 34.628906 14.648438 34L16.183594 34L17.0625 36.351563C17.066406 36.359375 17.074219 36.363281 17.074219 36.371094C17.085938 36.398438 17.105469 36.421875 17.117188 36.449219C17.160156 36.53125 17.207031 36.605469 17.269531 36.671875C17.292969 36.699219 17.320313 36.722656 17.351563 36.746094C17.414063 36.800781 17.480469 36.847656 17.554688 36.882813C17.585938 36.898438 17.617188 36.917969 17.652344 36.929688C17.761719 36.972656 17.878906 37 18 37L31 37C31.054688 37 31.101563 36.976563 31.152344 36.96875C31.21875 36.957031 31.285156 36.953125 31.347656 36.929688C31.414063 36.90625 31.464844 36.867188 31.523438 36.828125C31.574219 36.796875 31.628906 36.769531 31.671875 36.730469C31.726563 36.679688 31.765625 36.617188 31.808594 36.558594C31.835938 36.519531 31.871094 36.488281 31.894531 36.445313L33.117188 34L34.351563 34C34.128906 34.628906 34 35.296875 34 36C34 39.308594 36.691406 42 40 42C43.308594 42 46 39.308594 46 36C46 33.03125 43.832031 30.566406 41 30.089844L41 29L47 29C47.304688 29 47.589844 28.863281 47.78125 28.625C47.96875 28.390625 48.042969 28.078125 47.976563 27.78125C47.9375 27.601563 46.964844 23.320313 44.667969 21.257813 Z M 21.144531 13.589844C21.4375 13.148438 21.898438 12.839844 22.492188 12.71875L32.128906 10.003906C34.09375 10.105469 36 12.558594 36.578125 13.515625C36.757813 13.808594 36.769531 14.167969 36.613281 14.476563L34 19.703125L34 18.5C34 17.671875 33.328125 17 32.5 17C31.671875 17 31 17.671875 31 18.5L31 25.339844L30.632813 26L25.5 26C24.671875 26 24 26.671875 24 27.5C24 28.328125 24.671875 29 25.5 29L28.96875 29L28.410156 30L21 30L21 25C21 24.84375 20.964844 24.691406 20.894531 24.554688L18.894531 20.554688C18.699219 20.164063 18.269531 19.941406 17.84375 20.011719L16.746094 20.1875 Z M 9 38C7.898438 38 7 37.101563 7 36C7 34.898438 7.898438 34 9 34C10.101563 34 11 34.898438 11 36C11 37.101563 10.101563 38 9 38 Z M 13.460938 32C12.574219 31.011719 11.363281 30.320313 10 30.089844L10 29L14.308594 29L15.433594 32 Z M 42 36C42 37.101563 41.101563 38 40 38C38.898438 38 38 37.101563 38 36C38 34.898438 38.898438 34 40 34C41.101563 34 42 34.898438 42 36 Z M 39 30.089844C37.636719 30.320313 36.425781 31.011719 35.539063 32L34.117188 32L35.617188 29L39 29Z"/></svg>