<svg xmlns="http://www.w3.org/2000/svg" xmlns:xlink="http://www.w3.org/1999/xlink" viewBox="0 0 32 32"><path d="M15 3L15 5L11 5L11 8L7 8L7 13.90625L6.15625 14.09375L6.15625 14.125C4.351563 14.515625 3.457031 16.605469 4.40625 18.1875L6 20.875L6 25.84375C5.191406 25.617188 4.625 25.21875 4.625 25.21875L3.375 26.78125C3.375 26.78125 4.917969 28 7.03125 28C8.492188 28 9.421875 27.515625 10 27.15625C10.582031 27.511719 11.558594 28 13.03125 28C14.492188 28 15.421875 27.515625 16 27.15625C16.582031 27.511719 17.558594 28 19.03125 28C20.492188 28 21.421875 27.515625 22 27.15625C22.582031 27.511719 23.558594 28 25.03125 28C27.144531 28 28.625 26.78125 28.625 26.78125L27.375 25.21875C27.375 25.21875 26.832031 25.652344 26 25.875L26 20.875L27.59375 18.1875C28.542969 16.605469 27.648438 14.515625 25.84375 14.125L25 13.9375L25 8L21 8L21 5L17 5L17 3 Z M 13 7L19 7L19 10L23 10L23 13.5L16.21875 12.03125L16 12L15.78125 12.03125L9 13.5L9 10L13 10 Z M 16 14.0625L25.40625 16.0625C25.929688 16.175781 26.183594 16.699219 25.90625 17.15625L24.15625 20.09375L24 20.3125L24 25.84375C23.191406 25.617188 22.625 25.21875 22.625 25.21875L22 24.71875L21.375 25.21875C21.375 25.21875 20.371094 26 19.03125 26C17.691406 26 16.625 25.21875 16.625 25.21875L16 24.71875L15.375 25.21875C15.375 25.21875 14.371094 26 13.03125 26C11.691406 26 10.625 25.21875 10.625 25.21875L10 24.71875L9.375 25.21875C9.375 25.21875 8.832031 25.652344 8 25.875L8 20.3125L7.84375 20.09375L6.09375 17.15625C5.816406 16.695313 6.070313 16.175781 6.59375 16.0625 Z M 11 16C10.398438 16 10 16.699219 10 17.5C10 18.300781 10.398438 19 11 19C11.601563 19 12 18.300781 12 17.5C12 16.699219 11.601563 16 11 16 Z M 21 16C20.398438 16 20 16.699219 20 17.5C20 18.300781 20.398438 19 21 19C21.601563 19 22 18.300781 22 17.5C22 16.699219 21.601563 16 21 16Z"/></svg>