<svg xmlns="http://www.w3.org/2000/svg" xmlns:xlink="http://www.w3.org/1999/xlink" viewBox="0 0 50 50"><path d="M24 0L24 5L17 5C16.449219 5 16 5.449219 16 6L16 11L11 11C10.449219 11 10 11.449219 10 12L10 17.84375L24.0625 13.15625C24.367188 13.054688 24.679688 13 25 13C25.324219 13 25.664063 13.054688 25.96875 13.15625L40 17.875L40 12C40 11.449219 39.554688 11 39 11L34 11L34 6C34 5.449219 33.554688 5 33 5L26 5L26 0 Z M 25 15C24.894531 15 24.789063 15.027344 24.6875 15.0625L5.46875 21.4375C4.496094 21.761719 3.738281 22.492188 3.3125 23.4375C2.886719 24.382813 2.890625 25.460938 3.3125 26.4375L7 34.21875L7 40.75C7.5 40.402344 8.078125 40.1875 8.6875 40.1875C9.375 40.1875 10.058594 40.441406 10.59375 40.875C11.460938 41.582031 13.058594 41.90625 14.1875 41.90625C15.316406 41.90625 16.945313 41.578125 17.8125 40.875C18.34375 40.441406 19 40.1875 19.6875 40.1875C20.375 40.1875 21.058594 40.441406 21.59375 40.875C22.460938 41.582031 24.058594 41.90625 25.1875 41.90625C26.316406 41.90625 27.941406 41.585938 28.8125 40.875C29.347656 40.441406 30 40.1875 30.6875 40.1875C31.375 40.1875 32.0625 40.441406 32.59375 40.875C33.460938 41.582031 35.058594 41.90625 36.1875 41.90625C37.316406 41.90625 38.941406 41.585938 39.8125 40.875C40.347656 40.441406 41 40.1875 41.6875 40.1875C42.140625 40.1875 42.597656 40.304688 43 40.5L43 34.21875L46.59375 26.4375C47.039063 25.542969 47.078125 24.503906 46.6875 23.5625C46.273438 22.566406 45.433594 21.78125 44.40625 21.4375L25.3125 15.0625C25.210938 15.027344 25.105469 15 25 15 Z M 16.5 25C17.328125 25 18 26.117188 18 27.5C18 28.882813 17.328125 30 16.5 30C15.671875 30 15 28.882813 15 27.5C15 26.117188 15.671875 25 16.5 25 Z M 33.5 25C34.328125 25 35 26.117188 35 27.5C35 28.882813 34.328125 30 33.5 30C32.671875 30 32 28.882813 32 27.5C32 26.117188 32.671875 25 33.5 25 Z M 8.6875 42.1875C8.464844 42.1875 8.246094 42.289063 8.0625 42.4375C6.71875 43.527344 4.59375 43.90625 3.1875 43.90625C2.839844 43.90625 2.515625 43.867188 2.21875 43.84375C1.917969 43.816406 1.660156 43.8125 1.40625 43.8125C0.855469 43.8125 0.40625 44.257813 0.40625 44.8125C0.40625 45.367188 0.855469 45.8125 1.40625 45.8125C1.609375 45.8125 1.820313 45.824219 2.0625 45.84375C2.410156 45.875 2.777344 45.90625 3.1875 45.90625C4.796875 45.90625 6.992188 45.511719 8.6875 44.4375C10.382813 45.511719 12.578125 45.90625 14.1875 45.90625C15.796875 45.90625 17.992188 45.511719 19.6875 44.4375C21.382813 45.511719 23.578125 45.90625 25.1875 45.90625C26.796875 45.90625 28.992188 45.511719 30.6875 44.4375C32.378906 45.511719 34.578125 45.90625 36.1875 45.90625C37.796875 45.90625 39.992188 45.511719 41.6875 44.4375C43.378906 45.511719 45.578125 45.90625 47.1875 45.90625C48.011719 45.90625 48.757813 45.777344 49.375 45.53125C49.886719 45.324219 50.140625 44.730469 49.9375 44.21875C49.730469 43.707031 49.136719 43.453125 48.625 43.65625C48.246094 43.808594 47.753906 43.90625 47.1875 43.90625C45.78125 43.90625 43.683594 43.527344 42.34375 42.4375C41.976563 42.136719 41.429688 42.136719 41.0625 42.4375C39.71875 43.527344 37.59375 43.90625 36.1875 43.90625C34.78125 43.90625 32.683594 43.527344 31.34375 42.4375C30.976563 42.136719 30.429688 42.136719 30.0625 42.4375C28.71875 43.527344 26.59375 43.90625 25.1875 43.90625C23.78125 43.90625 21.683594 43.527344 20.34375 42.4375C19.976563 42.136719 19.429688 42.136719 19.0625 42.4375C17.71875 43.527344 15.59375 43.90625 14.1875 43.90625C12.78125 43.90625 10.683594 43.527344 9.34375 42.4375C9.160156 42.289063 8.910156 42.1875 8.6875 42.1875 Z M 8.59375 46.1875C8.394531 46.214844 8.210938 46.304688 8.0625 46.4375C6.765625 47.492188 4.507813 47.90625 3.1875 47.90625C2.582031 47.90625 2.039063 47.8125 1.40625 47.8125C1.046875 47.808594 0.710938 47.996094 0.527344 48.308594C0.347656 48.621094 0.347656 49.003906 0.527344 49.316406C0.710938 49.628906 1.046875 49.816406 1.40625 49.8125C1.773438 49.8125 2.390625 49.90625 3.1875 49.90625C4.691406 49.90625 6.875 49.457031 8.6875 48.28125C10.503906 49.472656 12.675781 49.90625 14.1875 49.90625C15.691406 49.90625 17.875 49.457031 19.6875 48.28125C21.503906 49.472656 23.675781 49.90625 25.1875 49.90625C26.691406 49.90625 28.875 49.457031 30.6875 48.28125C32.503906 49.472656 34.675781 49.90625 36.1875 49.90625C37.691406 49.90625 39.875 49.457031 41.6875 48.28125C43.503906 49.472656 45.675781 49.90625 47.1875 49.90625C47.984375 49.90625 48.726563 49.789063 49.375 49.53125C49.894531 49.324219 50.144531 48.738281 49.9375 48.21875C49.730469 47.699219 49.144531 47.449219 48.625 47.65625C48.273438 47.796875 47.792969 47.90625 47.1875 47.90625C45.867188 47.90625 43.640625 47.492188 42.34375 46.4375C41.972656 46.128906 41.433594 46.128906 41.0625 46.4375C39.761719 47.492188 37.507813 47.90625 36.1875 47.90625C34.867188 47.90625 32.640625 47.492188 31.34375 46.4375C30.972656 46.128906 30.433594 46.128906 30.0625 46.4375C28.761719 47.492188 26.507813 47.90625 25.1875 47.90625C23.867188 47.90625 21.640625 47.492188 20.34375 46.4375C19.972656 46.128906 19.433594 46.128906 19.0625 46.4375C17.765625 47.492188 15.507813 47.90625 14.1875 47.90625C12.867188 47.90625 10.640625 47.492188 9.34375 46.4375C9.164063 46.277344 8.929688 46.1875 8.6875 46.1875C8.65625 46.1875 8.625 46.1875 8.59375 46.1875Z"/></svg>