<svg xmlns="http://www.w3.org/2000/svg" xmlns:xlink="http://www.w3.org/1999/xlink" viewBox="0 0 30 30"><path d="M14.984375 0.98632812 A 1.0001 1.0001 0 0 0 14 2L14 4L11 4C9.9069372 4 9 4.9069372 9 6L9 7L8 7C6.9069372 7 6 7.9069372 6 9L6 12.412109L3.7675781 13.027344L3.7675781 13.029297 A 1 1 0 0 0 3 14 A 1 1 0 0 0 3.171875 14.560547L6 19L6 22.875C6.333 22.948 6.677 23 7 23C8.03 23 9.2772031 22.501406 9.6582031 22.316406C10.494203 21.898406 11.487125 21.901547 12.328125 22.310547C12.722125 22.502547 13.97 23 15 23C16.03 23 17.277875 22.502547 17.671875 22.310547C18.512875 21.901547 19.505797 21.897406 20.341797 22.316406C20.722797 22.501406 21.97 23 23 23C23.323 23 23.667 22.948 24 22.875L24 19L26.826172 14.564453 A 1 1 0 0 0 27 14 A 1 1 0 0 0 26.232422 13.027344L24 12.412109L24 9C24 7.9069372 23.093063 7 22 7L21 7L21 6C21 4.9069372 20.093063 4 19 4L16 4L16 2 A 1.0001 1.0001 0 0 0 14.984375 0.98632812 z M 11 6L14.832031 6 A 1.0001 1.0001 0 0 0 15.158203 6L19 6L19 9L22 9L22 11.859375L15.660156 10.111328L15.658203 10.113281 A 2 2 0 0 0 15 10 A 2 2 0 0 0 14.341797 10.113281L14.339844 10.111328L8 11.859375L8 9L11 9L11 6 z M 8 14C8.552 14 9 14.448 9 15C9 15.552 8.552 16 8 16C7.448 16 7 15.552 7 15C7 14.448 7.448 14 8 14 z M 22 14C22.552 14 23 14.448 23 15C23 15.552 22.552 16 22 16C21.448 16 21 15.552 21 15C21 14.448 21.448 14 22 14 z M 2.9648438 23.994141 A 1.0001 1.0001 0 0 0 2.5527344 25.894531C2.5527344 25.894531 4.6666667 27 7 27C8.9465696 27 10.458804 26.333203 11 26.078125C11.541196 26.333203 13.05343 27 15 27C16.94657 27 18.458804 26.333203 19 26.078125C19.541196 26.333203 21.05343 27 23 27C25.333333 27 27.447266 25.894531 27.447266 25.894531 A 1.0001163 1.0001163 0 1 0 26.552734 24.105469C26.552734 24.105469 24.666667 25 23 25C21.333333 25 19.447266 24.105469 19.447266 24.105469 A 1.0001 1.0001 0 0 0 18.552734 24.105469C18.552734 24.105469 16.666667 25 15 25C13.333333 25 11.447266 24.105469 11.447266 24.105469 A 1.0001 1.0001 0 0 0 10.552734 24.105469C10.552734 24.105469 8.6666667 25 7 25C5.3333333 25 3.4472656 24.105469 3.4472656 24.105469 A 1.0001 1.0001 0 0 0 2.9648438 23.994141 z"/></svg>